<?xml version="1.0" encoding="utf-8" standalone="no"?>
<!DOCTYPE svg PUBLIC "-//W3C//DTD SVG 1.1//EN"
  "http://www.w3.org/Graphics/SVG/1.1/DTD/svg11.dtd">
<svg xmlns:xlink="http://www.w3.org/1999/xlink" width="864pt" height="576pt" viewBox="0 0 864 576" xmlns="http://www.w3.org/2000/svg" version="1.1">
 <metadata>
  <rdf:RDF xmlns:dc="http://purl.org/dc/elements/1.1/" xmlns:cc="http://creativecommons.org/ns#" xmlns:rdf="http://www.w3.org/1999/02/22-rdf-syntax-ns#">
   <cc:Work>
    <dc:type rdf:resource="http://purl.org/dc/dcmitype/StillImage"/>
    <dc:date>2024-03-10T20:01:43.637088</dc:date>
    <dc:format>image/svg+xml</dc:format>
    <dc:creator>
     <cc:Agent>
      <dc:title>Matplotlib v3.7.3, https://matplotlib.org/</dc:title>
     </cc:Agent>
    </dc:creator>
   </cc:Work>
  </rdf:RDF>
 </metadata>
 <defs>
  <style type="text/css">*{stroke-linejoin: round; stroke-linecap: butt}</style>
 </defs>
 <g id="figure_1">
  <g id="patch_1">
   <path d="M 0 576 
L 864 576 
L 864 0 
L 0 0 
z
" style="fill: #ffffff"/>
  </g>
  <g id="axes_1">
   <g id="patch_2">
    <path d="M 108 512.64 
L 777.6 512.64 
L 777.6 69.12 
L 108 69.12 
z
" style="fill: #ffffff"/>
   </g>
   <g id="matplotlib.axis_1">
    <g id="xtick_1">
     <g id="line2d_1">
      <path d="M 199.223829 512.64 
L 199.223829 69.12 
" clip-path="url(#p819185f127)" style="fill: none; stroke: #b0b0b0; stroke-width: 0.8; stroke-linecap: square"/>
     </g>
     <g id="line2d_2">
      <defs>
       <path id="m619c5f5462" d="M 0 0 
L 0 3.5 
" style="stroke: #000000; stroke-width: 0.8"/>
      </defs>
      <g>
       <use xlink:href="#m619c5f5462" x="199.223829" y="512.64" style="stroke: #000000; stroke-width: 0.8"/>
      </g>
     </g>
     <g id="text_1">
      <!-- 0.6 -->
      <g transform="translate(191.272267 527.238438) scale(0.1 -0.1)">
       <defs>
        <path id="DejaVuSans-30" d="M 2034 4250 
Q 1547 4250 1301 3770 
Q 1056 3291 1056 2328 
Q 1056 1369 1301 889 
Q 1547 409 2034 409 
Q 2525 409 2770 889 
Q 3016 1369 3016 2328 
Q 3016 3291 2770 3770 
Q 2525 4250 2034 4250 
z
M 2034 4750 
Q 2819 4750 3233 4129 
Q 3647 3509 3647 2328 
Q 3647 1150 3233 529 
Q 2819 -91 2034 -91 
Q 1250 -91 836 529 
Q 422 1150 422 2328 
Q 422 3509 836 4129 
Q 1250 4750 2034 4750 
z
" transform="scale(0.015625)"/>
        <path id="DejaVuSans-2e" d="M 684 794 
L 1344 794 
L 1344 0 
L 684 0 
L 684 794 
z
" transform="scale(0.015625)"/>
        <path id="DejaVuSans-36" d="M 2113 2584 
Q 1688 2584 1439 2293 
Q 1191 2003 1191 1497 
Q 1191 994 1439 701 
Q 1688 409 2113 409 
Q 2538 409 2786 701 
Q 3034 994 3034 1497 
Q 3034 2003 2786 2293 
Q 2538 2584 2113 2584 
z
M 3366 4563 
L 3366 3988 
Q 3128 4100 2886 4159 
Q 2644 4219 2406 4219 
Q 1781 4219 1451 3797 
Q 1122 3375 1075 2522 
Q 1259 2794 1537 2939 
Q 1816 3084 2150 3084 
Q 2853 3084 3261 2657 
Q 3669 2231 3669 1497 
Q 3669 778 3244 343 
Q 2819 -91 2113 -91 
Q 1303 -91 875 529 
Q 447 1150 447 2328 
Q 447 3434 972 4092 
Q 1497 4750 2381 4750 
Q 2619 4750 2861 4703 
Q 3103 4656 3366 4563 
z
" transform="scale(0.015625)"/>
       </defs>
       <use xlink:href="#DejaVuSans-30"/>
       <use xlink:href="#DejaVuSans-2e" x="63.623047"/>
       <use xlink:href="#DejaVuSans-36" x="95.410156"/>
      </g>
     </g>
    </g>
    <g id="xtick_2">
     <g id="line2d_3">
      <path d="M 321.042365 512.64 
L 321.042365 69.12 
" clip-path="url(#p819185f127)" style="fill: none; stroke: #b0b0b0; stroke-width: 0.8; stroke-linecap: square"/>
     </g>
     <g id="line2d_4">
      <g>
       <use xlink:href="#m619c5f5462" x="321.042365" y="512.64" style="stroke: #000000; stroke-width: 0.8"/>
      </g>
     </g>
     <g id="text_2">
      <!-- 0.8 -->
      <g transform="translate(313.090803 527.238438) scale(0.1 -0.1)">
       <defs>
        <path id="DejaVuSans-38" d="M 2034 2216 
Q 1584 2216 1326 1975 
Q 1069 1734 1069 1313 
Q 1069 891 1326 650 
Q 1584 409 2034 409 
Q 2484 409 2743 651 
Q 3003 894 3003 1313 
Q 3003 1734 2745 1975 
Q 2488 2216 2034 2216 
z
M 1403 2484 
Q 997 2584 770 2862 
Q 544 3141 544 3541 
Q 544 4100 942 4425 
Q 1341 4750 2034 4750 
Q 2731 4750 3128 4425 
Q 3525 4100 3525 3541 
Q 3525 3141 3298 2862 
Q 3072 2584 2669 2484 
Q 3125 2378 3379 2068 
Q 3634 1759 3634 1313 
Q 3634 634 3220 271 
Q 2806 -91 2034 -91 
Q 1263 -91 848 271 
Q 434 634 434 1313 
Q 434 1759 690 2068 
Q 947 2378 1403 2484 
z
M 1172 3481 
Q 1172 3119 1398 2916 
Q 1625 2713 2034 2713 
Q 2441 2713 2670 2916 
Q 2900 3119 2900 3481 
Q 2900 3844 2670 4047 
Q 2441 4250 2034 4250 
Q 1625 4250 1398 4047 
Q 1172 3844 1172 3481 
z
" transform="scale(0.015625)"/>
       </defs>
       <use xlink:href="#DejaVuSans-30"/>
       <use xlink:href="#DejaVuSans-2e" x="63.623047"/>
       <use xlink:href="#DejaVuSans-38" x="95.410156"/>
      </g>
     </g>
    </g>
    <g id="xtick_3">
     <g id="line2d_5">
      <path d="M 442.860901 512.64 
L 442.860901 69.12 
" clip-path="url(#p819185f127)" style="fill: none; stroke: #b0b0b0; stroke-width: 0.8; stroke-linecap: square"/>
     </g>
     <g id="line2d_6">
      <g>
       <use xlink:href="#m619c5f5462" x="442.860901" y="512.64" style="stroke: #000000; stroke-width: 0.8"/>
      </g>
     </g>
     <g id="text_3">
      <!-- 1.0 -->
      <g transform="translate(434.909339 527.238438) scale(0.1 -0.1)">
       <defs>
        <path id="DejaVuSans-31" d="M 794 531 
L 1825 531 
L 1825 4091 
L 703 3866 
L 703 4441 
L 1819 4666 
L 2450 4666 
L 2450 531 
L 3481 531 
L 3481 0 
L 794 0 
L 794 531 
z
" transform="scale(0.015625)"/>
       </defs>
       <use xlink:href="#DejaVuSans-31"/>
       <use xlink:href="#DejaVuSans-2e" x="63.623047"/>
       <use xlink:href="#DejaVuSans-30" x="95.410156"/>
      </g>
     </g>
    </g>
    <g id="xtick_4">
     <g id="line2d_7">
      <path d="M 564.679437 512.64 
L 564.679437 69.12 
" clip-path="url(#p819185f127)" style="fill: none; stroke: #b0b0b0; stroke-width: 0.8; stroke-linecap: square"/>
     </g>
     <g id="line2d_8">
      <g>
       <use xlink:href="#m619c5f5462" x="564.679437" y="512.64" style="stroke: #000000; stroke-width: 0.8"/>
      </g>
     </g>
     <g id="text_4">
      <!-- 1.2 -->
      <g transform="translate(556.727875 527.238438) scale(0.1 -0.1)">
       <defs>
        <path id="DejaVuSans-32" d="M 1228 531 
L 3431 531 
L 3431 0 
L 469 0 
L 469 531 
Q 828 903 1448 1529 
Q 2069 2156 2228 2338 
Q 2531 2678 2651 2914 
Q 2772 3150 2772 3378 
Q 2772 3750 2511 3984 
Q 2250 4219 1831 4219 
Q 1534 4219 1204 4116 
Q 875 4013 500 3803 
L 500 4441 
Q 881 4594 1212 4672 
Q 1544 4750 1819 4750 
Q 2544 4750 2975 4387 
Q 3406 4025 3406 3419 
Q 3406 3131 3298 2873 
Q 3191 2616 2906 2266 
Q 2828 2175 2409 1742 
Q 1991 1309 1228 531 
z
" transform="scale(0.015625)"/>
       </defs>
       <use xlink:href="#DejaVuSans-31"/>
       <use xlink:href="#DejaVuSans-2e" x="63.623047"/>
       <use xlink:href="#DejaVuSans-32" x="95.410156"/>
      </g>
     </g>
    </g>
    <g id="xtick_5">
     <g id="line2d_9">
      <path d="M 686.497973 512.64 
L 686.497973 69.12 
" clip-path="url(#p819185f127)" style="fill: none; stroke: #b0b0b0; stroke-width: 0.8; stroke-linecap: square"/>
     </g>
     <g id="line2d_10">
      <g>
       <use xlink:href="#m619c5f5462" x="686.497973" y="512.64" style="stroke: #000000; stroke-width: 0.8"/>
      </g>
     </g>
     <g id="text_5">
      <!-- 1.4 -->
      <g transform="translate(678.546411 527.238438) scale(0.1 -0.1)">
       <defs>
        <path id="DejaVuSans-34" d="M 2419 4116 
L 825 1625 
L 2419 1625 
L 2419 4116 
z
M 2253 4666 
L 3047 4666 
L 3047 1625 
L 3713 1625 
L 3713 1100 
L 3047 1100 
L 3047 0 
L 2419 0 
L 2419 1100 
L 313 1100 
L 313 1709 
L 2253 4666 
z
" transform="scale(0.015625)"/>
       </defs>
       <use xlink:href="#DejaVuSans-31"/>
       <use xlink:href="#DejaVuSans-2e" x="63.623047"/>
       <use xlink:href="#DejaVuSans-34" x="95.410156"/>
      </g>
     </g>
    </g>
    <g id="text_6">
     <!-- Spot/Strike ratio -->
     <g transform="translate(369.829688 546.995312) scale(0.18 -0.18)">
      <defs>
       <path id="DejaVuSans-53" d="M 3425 4513 
L 3425 3897 
Q 3066 4069 2747 4153 
Q 2428 4238 2131 4238 
Q 1616 4238 1336 4038 
Q 1056 3838 1056 3469 
Q 1056 3159 1242 3001 
Q 1428 2844 1947 2747 
L 2328 2669 
Q 3034 2534 3370 2195 
Q 3706 1856 3706 1288 
Q 3706 609 3251 259 
Q 2797 -91 1919 -91 
Q 1588 -91 1214 -16 
Q 841 59 441 206 
L 441 856 
Q 825 641 1194 531 
Q 1563 422 1919 422 
Q 2459 422 2753 634 
Q 3047 847 3047 1241 
Q 3047 1584 2836 1778 
Q 2625 1972 2144 2069 
L 1759 2144 
Q 1053 2284 737 2584 
Q 422 2884 422 3419 
Q 422 4038 858 4394 
Q 1294 4750 2059 4750 
Q 2388 4750 2728 4690 
Q 3069 4631 3425 4513 
z
" transform="scale(0.015625)"/>
       <path id="DejaVuSans-70" d="M 1159 525 
L 1159 -1331 
L 581 -1331 
L 581 3500 
L 1159 3500 
L 1159 2969 
Q 1341 3281 1617 3432 
Q 1894 3584 2278 3584 
Q 2916 3584 3314 3078 
Q 3713 2572 3713 1747 
Q 3713 922 3314 415 
Q 2916 -91 2278 -91 
Q 1894 -91 1617 61 
Q 1341 213 1159 525 
z
M 3116 1747 
Q 3116 2381 2855 2742 
Q 2594 3103 2138 3103 
Q 1681 3103 1420 2742 
Q 1159 2381 1159 1747 
Q 1159 1113 1420 752 
Q 1681 391 2138 391 
Q 2594 391 2855 752 
Q 3116 1113 3116 1747 
z
" transform="scale(0.015625)"/>
       <path id="DejaVuSans-6f" d="M 1959 3097 
Q 1497 3097 1228 2736 
Q 959 2375 959 1747 
Q 959 1119 1226 758 
Q 1494 397 1959 397 
Q 2419 397 2687 759 
Q 2956 1122 2956 1747 
Q 2956 2369 2687 2733 
Q 2419 3097 1959 3097 
z
M 1959 3584 
Q 2709 3584 3137 3096 
Q 3566 2609 3566 1747 
Q 3566 888 3137 398 
Q 2709 -91 1959 -91 
Q 1206 -91 779 398 
Q 353 888 353 1747 
Q 353 2609 779 3096 
Q 1206 3584 1959 3584 
z
" transform="scale(0.015625)"/>
       <path id="DejaVuSans-74" d="M 1172 4494 
L 1172 3500 
L 2356 3500 
L 2356 3053 
L 1172 3053 
L 1172 1153 
Q 1172 725 1289 603 
Q 1406 481 1766 481 
L 2356 481 
L 2356 0 
L 1766 0 
Q 1100 0 847 248 
Q 594 497 594 1153 
L 594 3053 
L 172 3053 
L 172 3500 
L 594 3500 
L 594 4494 
L 1172 4494 
z
" transform="scale(0.015625)"/>
       <path id="DejaVuSans-2f" d="M 1625 4666 
L 2156 4666 
L 531 -594 
L 0 -594 
L 1625 4666 
z
" transform="scale(0.015625)"/>
       <path id="DejaVuSans-72" d="M 2631 2963 
Q 2534 3019 2420 3045 
Q 2306 3072 2169 3072 
Q 1681 3072 1420 2755 
Q 1159 2438 1159 1844 
L 1159 0 
L 581 0 
L 581 3500 
L 1159 3500 
L 1159 2956 
Q 1341 3275 1631 3429 
Q 1922 3584 2338 3584 
Q 2397 3584 2469 3576 
Q 2541 3569 2628 3553 
L 2631 2963 
z
" transform="scale(0.015625)"/>
       <path id="DejaVuSans-69" d="M 603 3500 
L 1178 3500 
L 1178 0 
L 603 0 
L 603 3500 
z
M 603 4863 
L 1178 4863 
L 1178 4134 
L 603 4134 
L 603 4863 
z
" transform="scale(0.015625)"/>
       <path id="DejaVuSans-6b" d="M 581 4863 
L 1159 4863 
L 1159 1991 
L 2875 3500 
L 3609 3500 
L 1753 1863 
L 3688 0 
L 2938 0 
L 1159 1709 
L 1159 0 
L 581 0 
L 581 4863 
z
" transform="scale(0.015625)"/>
       <path id="DejaVuSans-65" d="M 3597 1894 
L 3597 1613 
L 953 1613 
Q 991 1019 1311 708 
Q 1631 397 2203 397 
Q 2534 397 2845 478 
Q 3156 559 3463 722 
L 3463 178 
Q 3153 47 2828 -22 
Q 2503 -91 2169 -91 
Q 1331 -91 842 396 
Q 353 884 353 1716 
Q 353 2575 817 3079 
Q 1281 3584 2069 3584 
Q 2775 3584 3186 3129 
Q 3597 2675 3597 1894 
z
M 3022 2063 
Q 3016 2534 2758 2815 
Q 2500 3097 2075 3097 
Q 1594 3097 1305 2825 
Q 1016 2553 972 2059 
L 3022 2063 
z
" transform="scale(0.015625)"/>
       <path id="DejaVuSans-20" transform="scale(0.015625)"/>
       <path id="DejaVuSans-61" d="M 2194 1759 
Q 1497 1759 1228 1600 
Q 959 1441 959 1056 
Q 959 750 1161 570 
Q 1363 391 1709 391 
Q 2188 391 2477 730 
Q 2766 1069 2766 1631 
L 2766 1759 
L 2194 1759 
z
M 3341 1997 
L 3341 0 
L 2766 0 
L 2766 531 
Q 2569 213 2275 61 
Q 1981 -91 1556 -91 
Q 1019 -91 701 211 
Q 384 513 384 1019 
Q 384 1609 779 1909 
Q 1175 2209 1959 2209 
L 2766 2209 
L 2766 2266 
Q 2766 2663 2505 2880 
Q 2244 3097 1772 3097 
Q 1472 3097 1187 3025 
Q 903 2953 641 2809 
L 641 3341 
Q 956 3463 1253 3523 
Q 1550 3584 1831 3584 
Q 2591 3584 2966 3190 
Q 3341 2797 3341 1997 
z
" transform="scale(0.015625)"/>
      </defs>
      <use xlink:href="#DejaVuSans-53"/>
      <use xlink:href="#DejaVuSans-70" x="63.476562"/>
      <use xlink:href="#DejaVuSans-6f" x="126.953125"/>
      <use xlink:href="#DejaVuSans-74" x="188.134766"/>
      <use xlink:href="#DejaVuSans-2f" x="227.34375"/>
      <use xlink:href="#DejaVuSans-53" x="261.035156"/>
      <use xlink:href="#DejaVuSans-74" x="324.511719"/>
      <use xlink:href="#DejaVuSans-72" x="363.720703"/>
      <use xlink:href="#DejaVuSans-69" x="404.833984"/>
      <use xlink:href="#DejaVuSans-6b" x="432.617188"/>
      <use xlink:href="#DejaVuSans-65" x="486.902344"/>
      <use xlink:href="#DejaVuSans-20" x="548.425781"/>
      <use xlink:href="#DejaVuSans-72" x="580.212891"/>
      <use xlink:href="#DejaVuSans-61" x="621.326172"/>
      <use xlink:href="#DejaVuSans-74" x="682.605469"/>
      <use xlink:href="#DejaVuSans-69" x="721.814453"/>
      <use xlink:href="#DejaVuSans-6f" x="749.597656"/>
     </g>
    </g>
   </g>
   <g id="matplotlib.axis_2">
    <g id="ytick_1">
     <g id="line2d_11">
      <path d="M 108 492.50153 
L 777.6 492.50153 
" clip-path="url(#p819185f127)" style="fill: none; stroke: #b0b0b0; stroke-width: 0.8; stroke-linecap: square"/>
     </g>
     <g id="line2d_12">
      <defs>
       <path id="mbc9f246782" d="M 0 0 
L -3.5 0 
" style="stroke: #000000; stroke-width: 0.8"/>
      </defs>
      <g>
       <use xlink:href="#mbc9f246782" x="108" y="492.50153" style="stroke: #000000; stroke-width: 0.8"/>
      </g>
     </g>
     <g id="text_7">
      <!-- 0.00 -->
      <g transform="translate(78.734375 496.300749) scale(0.1 -0.1)">
       <use xlink:href="#DejaVuSans-30"/>
       <use xlink:href="#DejaVuSans-2e" x="63.623047"/>
       <use xlink:href="#DejaVuSans-30" x="95.410156"/>
       <use xlink:href="#DejaVuSans-30" x="159.033203"/>
      </g>
     </g>
    </g>
    <g id="ytick_2">
     <g id="line2d_13">
      <path d="M 108 402.09309 
L 777.6 402.09309 
" clip-path="url(#p819185f127)" style="fill: none; stroke: #b0b0b0; stroke-width: 0.8; stroke-linecap: square"/>
     </g>
     <g id="line2d_14">
      <g>
       <use xlink:href="#mbc9f246782" x="108" y="402.09309" style="stroke: #000000; stroke-width: 0.8"/>
      </g>
     </g>
     <g id="text_8">
      <!-- 0.01 -->
      <g transform="translate(78.734375 405.892309) scale(0.1 -0.1)">
       <use xlink:href="#DejaVuSans-30"/>
       <use xlink:href="#DejaVuSans-2e" x="63.623047"/>
       <use xlink:href="#DejaVuSans-30" x="95.410156"/>
       <use xlink:href="#DejaVuSans-31" x="159.033203"/>
      </g>
     </g>
    </g>
    <g id="ytick_3">
     <g id="line2d_15">
      <path d="M 108 311.68465 
L 777.6 311.68465 
" clip-path="url(#p819185f127)" style="fill: none; stroke: #b0b0b0; stroke-width: 0.8; stroke-linecap: square"/>
     </g>
     <g id="line2d_16">
      <g>
       <use xlink:href="#mbc9f246782" x="108" y="311.68465" style="stroke: #000000; stroke-width: 0.8"/>
      </g>
     </g>
     <g id="text_9">
      <!-- 0.02 -->
      <g transform="translate(78.734375 315.483869) scale(0.1 -0.1)">
       <use xlink:href="#DejaVuSans-30"/>
       <use xlink:href="#DejaVuSans-2e" x="63.623047"/>
       <use xlink:href="#DejaVuSans-30" x="95.410156"/>
       <use xlink:href="#DejaVuSans-32" x="159.033203"/>
      </g>
     </g>
    </g>
    <g id="ytick_4">
     <g id="line2d_17">
      <path d="M 108 221.27621 
L 777.6 221.27621 
" clip-path="url(#p819185f127)" style="fill: none; stroke: #b0b0b0; stroke-width: 0.8; stroke-linecap: square"/>
     </g>
     <g id="line2d_18">
      <g>
       <use xlink:href="#mbc9f246782" x="108" y="221.27621" style="stroke: #000000; stroke-width: 0.8"/>
      </g>
     </g>
     <g id="text_10">
      <!-- 0.03 -->
      <g transform="translate(78.734375 225.075429) scale(0.1 -0.1)">
       <defs>
        <path id="DejaVuSans-33" d="M 2597 2516 
Q 3050 2419 3304 2112 
Q 3559 1806 3559 1356 
Q 3559 666 3084 287 
Q 2609 -91 1734 -91 
Q 1441 -91 1130 -33 
Q 819 25 488 141 
L 488 750 
Q 750 597 1062 519 
Q 1375 441 1716 441 
Q 2309 441 2620 675 
Q 2931 909 2931 1356 
Q 2931 1769 2642 2001 
Q 2353 2234 1838 2234 
L 1294 2234 
L 1294 2753 
L 1863 2753 
Q 2328 2753 2575 2939 
Q 2822 3125 2822 3475 
Q 2822 3834 2567 4026 
Q 2313 4219 1838 4219 
Q 1578 4219 1281 4162 
Q 984 4106 628 3988 
L 628 4550 
Q 988 4650 1302 4700 
Q 1616 4750 1894 4750 
Q 2613 4750 3031 4423 
Q 3450 4097 3450 3541 
Q 3450 3153 3228 2886 
Q 3006 2619 2597 2516 
z
" transform="scale(0.015625)"/>
       </defs>
       <use xlink:href="#DejaVuSans-30"/>
       <use xlink:href="#DejaVuSans-2e" x="63.623047"/>
       <use xlink:href="#DejaVuSans-30" x="95.410156"/>
       <use xlink:href="#DejaVuSans-33" x="159.033203"/>
      </g>
     </g>
    </g>
    <g id="ytick_5">
     <g id="line2d_19">
      <path d="M 108 130.86777 
L 777.6 130.86777 
" clip-path="url(#p819185f127)" style="fill: none; stroke: #b0b0b0; stroke-width: 0.8; stroke-linecap: square"/>
     </g>
     <g id="line2d_20">
      <g>
       <use xlink:href="#mbc9f246782" x="108" y="130.86777" style="stroke: #000000; stroke-width: 0.8"/>
      </g>
     </g>
     <g id="text_11">
      <!-- 0.04 -->
      <g transform="translate(78.734375 134.666989) scale(0.1 -0.1)">
       <use xlink:href="#DejaVuSans-30"/>
       <use xlink:href="#DejaVuSans-2e" x="63.623047"/>
       <use xlink:href="#DejaVuSans-30" x="95.410156"/>
       <use xlink:href="#DejaVuSans-34" x="159.033203"/>
      </g>
     </g>
    </g>
    <g id="text_12">
     <!-- Price/strike ratio -->
     <g transform="translate(70.990938 364.318594) rotate(-90) scale(0.18 -0.18)">
      <defs>
       <path id="DejaVuSans-50" d="M 1259 4147 
L 1259 2394 
L 2053 2394 
Q 2494 2394 2734 2622 
Q 2975 2850 2975 3272 
Q 2975 3691 2734 3919 
Q 2494 4147 2053 4147 
L 1259 4147 
z
M 628 4666 
L 2053 4666 
Q 2838 4666 3239 4311 
Q 3641 3956 3641 3272 
Q 3641 2581 3239 2228 
Q 2838 1875 2053 1875 
L 1259 1875 
L 1259 0 
L 628 0 
L 628 4666 
z
" transform="scale(0.015625)"/>
       <path id="DejaVuSans-63" d="M 3122 3366 
L 3122 2828 
Q 2878 2963 2633 3030 
Q 2388 3097 2138 3097 
Q 1578 3097 1268 2742 
Q 959 2388 959 1747 
Q 959 1106 1268 751 
Q 1578 397 2138 397 
Q 2388 397 2633 464 
Q 2878 531 3122 666 
L 3122 134 
Q 2881 22 2623 -34 
Q 2366 -91 2075 -91 
Q 1284 -91 818 406 
Q 353 903 353 1747 
Q 353 2603 823 3093 
Q 1294 3584 2113 3584 
Q 2378 3584 2631 3529 
Q 2884 3475 3122 3366 
z
" transform="scale(0.015625)"/>
       <path id="DejaVuSans-73" d="M 2834 3397 
L 2834 2853 
Q 2591 2978 2328 3040 
Q 2066 3103 1784 3103 
Q 1356 3103 1142 2972 
Q 928 2841 928 2578 
Q 928 2378 1081 2264 
Q 1234 2150 1697 2047 
L 1894 2003 
Q 2506 1872 2764 1633 
Q 3022 1394 3022 966 
Q 3022 478 2636 193 
Q 2250 -91 1575 -91 
Q 1294 -91 989 -36 
Q 684 19 347 128 
L 347 722 
Q 666 556 975 473 
Q 1284 391 1588 391 
Q 1994 391 2212 530 
Q 2431 669 2431 922 
Q 2431 1156 2273 1281 
Q 2116 1406 1581 1522 
L 1381 1569 
Q 847 1681 609 1914 
Q 372 2147 372 2553 
Q 372 3047 722 3315 
Q 1072 3584 1716 3584 
Q 2034 3584 2315 3537 
Q 2597 3491 2834 3397 
z
" transform="scale(0.015625)"/>
      </defs>
      <use xlink:href="#DejaVuSans-50"/>
      <use xlink:href="#DejaVuSans-72" x="58.552734"/>
      <use xlink:href="#DejaVuSans-69" x="99.666016"/>
      <use xlink:href="#DejaVuSans-63" x="127.449219"/>
      <use xlink:href="#DejaVuSans-65" x="182.429688"/>
      <use xlink:href="#DejaVuSans-2f" x="243.953125"/>
      <use xlink:href="#DejaVuSans-73" x="277.644531"/>
      <use xlink:href="#DejaVuSans-74" x="329.744141"/>
      <use xlink:href="#DejaVuSans-72" x="368.953125"/>
      <use xlink:href="#DejaVuSans-69" x="410.066406"/>
      <use xlink:href="#DejaVuSans-6b" x="437.849609"/>
      <use xlink:href="#DejaVuSans-65" x="492.134766"/>
      <use xlink:href="#DejaVuSans-20" x="553.658203"/>
      <use xlink:href="#DejaVuSans-72" x="585.445312"/>
      <use xlink:href="#DejaVuSans-61" x="626.558594"/>
      <use xlink:href="#DejaVuSans-74" x="687.837891"/>
      <use xlink:href="#DejaVuSans-69" x="727.046875"/>
      <use xlink:href="#DejaVuSans-6f" x="754.830078"/>
     </g>
    </g>
   </g>
   <g id="line2d_21">
    <path d="M 138.436364 491.597446 
L 264.457639 491.597446 
L 264.457639 490.693361 
L 265.432204 491.597446 
L 265.797648 491.597446 
L 265.858567 490.693361 
L 266.041289 491.597446 
L 266.102208 490.693361 
L 266.224011 491.597446 
L 267.746741 491.597446 
L 267.990382 490.693361 
L 268.538584 491.597446 
L 270.487677 491.597446 
L 270.792202 489.789276 
L 271.157682 490.693361 
L 271.340403 490.693361 
L 271.705847 491.597446 
L 271.949488 490.693361 
L 272.010408 491.597446 
L 272.375851 490.693361 
L 272.436771 491.597446 
L 272.558573 490.693361 
L 272.558573 490.693361 
L 273.411335 490.693361 
L 273.71586 491.597446 
L 274.934066 490.693361 
L 275.177671 490.693361 
L 275.604034 488.885193 
L 276.030433 490.693361 
L 276.944042 490.693361 
L 277.004961 489.789276 
L 277.614046 490.693361 
L 277.674966 489.789276 
L 277.796768 490.693361 
L 277.857687 489.789276 
L 278.162248 489.789276 
L 278.28405 490.693361 
L 278.954055 489.789276 
L 279.258615 490.693361 
L 279.380418 489.789276 
L 279.56314 490.693361 
L 279.56314 489.789276 
L 280.842265 489.789276 
L 280.964067 490.693361 
L 281.573152 490.693361 
L 281.573152 490.693361 
L 281.877713 489.789276 
L 282.121354 489.789276 
L 282.364995 488.885193 
L 283.034999 489.789276 
L 283.217721 489.789276 
L 283.217721 488.885193 
L 283.583165 489.789276 
L 284.253169 489.789276 
L 284.55773 488.885193 
L 284.801334 489.789276 
L 284.984093 489.789276 
L 285.654097 488.885193 
L 286.445903 490.693361 
L 286.628625 488.885193 
L 286.750464 489.789276 
L 287.29863 487.981109 
L 287.481351 488.885193 
L 287.542271 487.981109 
L 287.664073 488.885193 
L 287.724993 487.981109 
L 288.334077 488.885193 
L 288.334077 487.981109 
L 288.638638 488.885193 
L 288.699557 487.981109 
L 288.699557 488.885193 
L 289.247723 488.885193 
L 289.308642 487.981109 
L 289.552283 489.789276 
L 289.674086 487.981109 
L 290.465929 487.077024 
L 290.831372 487.981109 
L 291.257735 487.981109 
L 292.354103 487.077024 
L 292.658663 487.981109 
L 293.511389 487.981109 
L 294.059555 487.077024 
L 294.059555 486.172939 
L 294.485918 487.077024 
L 294.607756 485.268852 
L 294.790478 485.268852 
L 295.155922 487.077024 
L 295.216841 486.172939 
L 295.582285 486.172939 
L 295.825926 487.077024 
L 295.947765 486.172939 
L 296.130487 486.172939 
L 296.617733 487.077024 
L 297.044096 485.268852 
L 297.775019 487.077024 
L 297.775019 487.077024 
L 298.018661 486.172939 
L 298.201382 486.172939 
L 298.201382 486.172939 
L 298.445024 485.268852 
L 298.566862 484.364772 
L 298.566862 485.268852 
L 299.419588 487.077024 
L 299.724113 483.460684 
L 299.724113 486.172939 
L 299.845951 487.077024 
L 299.967754 486.172939 
L 300.028673 483.460684 
L 300.394117 485.268852 
L 301.003202 484.364772 
L 301.18596 485.268852 
L 301.551404 484.364772 
L 302.282327 484.364772 
L 302.282327 483.460684 
L 302.34321 484.364772 
L 303.135053 485.268852 
L 303.378694 483.460684 
L 303.987779 484.364772 
L 304.048662 483.460684 
L 304.292303 486.172939 
L 304.840505 483.460684 
L 304.840505 482.556598 
L 305.023227 484.364772 
L 305.266868 484.364772 
L 305.327788 480.748439 
L 305.997792 484.364772 
L 306.180514 482.556598 
L 306.424155 481.652513 
L 306.606877 481.652513 
L 306.789598 482.556598 
L 306.97232 480.748439 
L 307.581405 482.556598 
L 307.581405 482.556598 
L 307.764127 482.556598 
L 308.068688 480.748439 
L 308.373248 481.652513 
L 308.616889 484.364772 
L 309.165055 484.364772 
L 309.835059 479.844354 
L 310.017781 481.652513 
L 310.626866 482.556598 
L 310.992346 479.844354 
L 311.723233 478.036181 
L 311.905991 480.748439 
L 312.332354 478.94026 
L 312.8196 478.94026 
L 313.245963 480.748439 
L 313.550524 478.94026 
L 313.672326 478.94026 
L 314.40325 477.132091 
L 314.585972 478.036181 
L 314.768693 480.748439 
L 314.829613 478.94026 
L 314.890532 479.844354 
L 315.92598 476.228005 
L 316.535065 479.844354 
L 316.535065 473.515765 
L 316.839625 478.036181 
L 316.900545 477.132091 
L 316.900545 478.036181 
L 316.961428 478.94026 
L 317.022347 478.036181 
L 317.387827 476.228005 
L 317.570549 477.132091 
L 317.692351 475.323929 
L 317.996912 478.036181 
L 318.179634 477.132091 
L 318.423275 477.132091 
L 318.605997 478.036181 
L 319.093279 475.323929 
L 319.641445 475.323929 
L 320.189646 476.228005 
L 320.311449 474.419843 
L 320.494171 476.228005 
L 320.676893 474.419843 
L 321.164175 475.323929 
L 322.321462 473.515765 
L 322.747825 472.611674 
L 323.113268 474.419843 
L 323.113268 475.323929 
L 323.174188 474.419843 
L 323.722389 471.707591 
L 323.965994 471.707591 
L 324.575115 472.611674 
L 324.818757 472.611674 
L 324.940559 473.515765 
L 325.549644 471.707591 
L 326.646011 472.611674 
L 326.889652 466.283077 
L 326.950572 470.803506 
L 327.072374 468.995336 
L 327.255096 469.899423 
L 327.9251 469.899423 
L 327.986019 465.379 
L 328.777826 468.09124 
L 329.143306 466.283077 
L 329.143306 466.283077 
L 329.326028 466.283077 
L 329.50875 467.187166 
L 329.752391 468.995336 
L 330.117835 467.187166 
L 330.117835 467.187166 
L 330.239673 467.187166 
L 330.239673 466.283077 
L 330.361476 468.09124 
L 330.361476 467.187166 
L 330.848758 465.379 
L 330.848758 464.474907 
L 330.909678 464.474907 
L 331.275121 465.379 
L 331.396924 466.283077 
L 331.762404 466.283077 
L 332.371488 464.474907 
L 332.55421 463.570818 
L 334.320582 460.858567 
L 334.686025 460.858567 
L 334.868783 459.050405 
L 334.868783 460.858567 
L 335.538788 458.146314 
L 336.269675 460.858567 
L 336.635155 455.434057 
L 338.218768 458.146314 
L 338.462409 459.954497 
L 338.827889 457.242237 
L 338.827889 459.050405 
L 338.949692 454.529978 
L 339.741498 454.529978 
L 340.167861 455.434057 
L 340.716063 453.625912 
L 340.959704 450.009543 
L 341.934233 453.625912 
L 341.995152 449.10546 
L 342.056072 450.913634 
L 342.360596 451.817734 
L 342.421515 450.009543 
L 342.969717 451.817734 
L 343.213322 448.201419 
L 343.335161 451.817734 
L 343.700604 450.913634 
L 343.700604 450.009543 
L 343.883326 451.817734 
L 343.944246 449.10546 
L 344.492447 448.201419 
L 344.55333 449.10546 
L 344.857891 448.201419 
L 344.91881 445.489167 
L 344.91881 447.297294 
L 345.406056 448.201419 
L 345.588815 447.297294 
L 345.710617 444.58505 
L 345.954258 446.393233 
L 346.319702 444.58505 
L 346.746065 447.297294 
L 346.928787 440.064648 
L 347.172428 441.872822 
L 347.842432 443.680976 
L 347.842432 440.968706 
L 348.938799 443.680976 
L 349.974283 437.35237 
L 349.974283 439.160553 
L 351.009731 434.640134 
L 351.131534 431.023773 
L 351.253373 436.448308 
L 352.654264 434.640134 
L 352.715183 435.5442 
L 353.50699 435.5442 
L 353.50699 431.023773 
L 353.87247 433.736072 
L 354.055192 431.023773 
L 354.664277 431.023773 
L 355.45612 429.215637 
L 356.065204 423.791127 
L 356.065204 429.215637 
L 356.308846 426.503363 
L 357.039733 426.503363 
L 357.344294 425.599314 
L 357.466096 427.407429 
L 357.648818 421.078883 
L 357.831576 421.078883 
L 358.014298 426.503363 
L 358.19702 422.887049 
L 358.562463 419.270692 
L 358.684302 421.078883 
L 358.806104 425.599314 
L 358.867024 418.366617 
L 359.597947 420.174783 
L 359.71975 416.558469 
L 360.267952 419.270692 
L 360.328835 415.654327 
L 360.633395 416.558469 
L 360.877036 416.558469 
L 361.059758 418.366617 
L 361.607924 412.037978 
L 362.034287 420.174783 
L 362.156125 410.229863 
L 362.277928 421.078883 
L 362.399767 412.942103 
L 362.887049 406.613523 
L 363.130654 406.613523 
L 364.105219 409.325772 
L 364.105219 402.997133 
L 364.105219 407.517598 
L 364.775223 405.709432 
L 365.018864 408.421698 
L 365.506147 402.997133 
L 365.749751 402.997133 
L 365.87159 404.805366 
L 365.93251 403.901258 
L 366.358873 399.380818 
L 367.759764 397.572686 
L 368.368849 395.764529 
L 368.97797 395.764529 
L 370.013418 393.956321 
L 370.439781 387.627716 
L 370.561583 388.531841 
L 371.048866 385.819525 
L 371.048866 391.244056 
L 371.353426 384.01141 
L 371.657951 389.435924 
L 371.779789 386.7237 
L 371.901592 388.531841 
L 372.449794 384.915518 
L 372.693435 386.7237 
L 372.754318 377.682863 
L 372.815237 383.107327 
L 372.815237 386.7237 
L 373.363439 374.066473 
L 373.850685 381.299169 
L 374.337967 382.203261 
L 374.642528 373.16239 
L 374.886169 374.066473 
L 375.007972 377.682863 
L 375.738895 378.586938 
L 375.738895 375.874622 
L 375.921617 368.641976 
L 376.287061 374.066473 
L 376.287061 367.737884 
L 376.34798 377.682863 
L 376.713424 374.970547 
L 376.774343 379.490987 
L 376.835262 371.354258 
L 377.809791 372.25829 
L 378.175271 360.505264 
L 378.297073 360.505264 
L 379.637082 362.313396 
L 379.698001 355.984824 
L 379.698001 356.888865 
L 380.124364 355.984824 
L 380.794368 353.272508 
L 380.97709 359.601122 
L 381.159812 356.888865 
L 381.768897 351.464351 
L 382.317099 360.505264 
L 383.839829 347.847952 
L 383.961631 347.847952 
L 384.327111 343.327605 
L 384.509833 343.327605 
L 384.936196 346.039786 
L 385.057999 332.478526 
L 385.484362 337.903108 
L 385.484362 334.286726 
L 385.545281 337.903108 
L 386.276205 326.150081 
L 386.337088 340.615323 
L 386.82437 341.519372 
L 387.189814 336.094925 
L 387.433455 329.766345 
L 387.433455 334.286726 
L 387.494374 324.341949 
L 387.616213 320.725449 
L 387.738015 329.766345 
L 388.590741 327.05413 
L 389.565306 318.013369 
L 390.661673 323.437597 
L 391.14892 316.20522 
L 391.331678 308.068137 
L 391.636202 305.355889 
L 391.818924 308.068137 
L 391.879843 311.684755 
L 392.184404 311.684755 
L 392.854408 299.931644 
L 393.402573 306.260005 
L 393.402573 299.931644 
L 393.524412 309.876522 
L 393.524412 302.643943 
L 393.828936 297.219311 
L 393.889856 299.027427 
L 394.011658 306.260005 
L 394.438021 301.739743 
L 395.047142 293.603064 
L 395.047142 295.411196 
L 395.168945 292.69888 
L 395.229864 295.411196 
L 395.534388 297.219311 
L 395.534388 290.890849 
L 395.656227 289.082364 
L 395.71711 290.890849 
L 396.204393 283.658186 
L 396.813478 287.274467 
L 397.178957 286.370233 
L 397.422599 283.658186 
L 397.60532 281.84992 
L 397.60532 276.425439 
L 398.336244 282.754002 
L 398.762607 271.905126 
L 399.493494 273.713224 
L 399.615333 276.425439 
L 399.737136 262.864095 
L 400.102579 277.329404 
L 400.285337 264.672446 
L 400.468059 270.09691 
L 400.7117 266.480343 
L 400.772583 254.727131 
L 401.259866 263.768077 
L 401.92987 260.151864 
L 402.112592 257.439463 
L 403.4526 252.919369 
L 404.061685 244.782303 
L 404.183524 244.782303 
L 404.366246 250.20712 
L 404.731689 238.453706 
L 404.853528 245.686403 
L 405.340774 252.015168 
L 405.888976 242.974138 
L 406.010778 232.125379 
L 406.55898 239.357722 
L 406.741702 233.933258 
L 406.741702 225.796647 
L 407.107146 233.933258 
L 407.350787 225.796647 
L 408.325352 222.180417 
L 408.751715 222.180417 
L 409.360799 225.796647 
L 409.848082 207.714872 
L 410.030804 214.947417 
L 410.335364 211.331069 
L 410.761727 211.331069 
L 411.370812 193.249647 
L 412.588982 198.674212 
L 412.710821 210.427053 
L 413.502627 188.72898 
L 413.92899 196.865743 
L 414.111712 182.400653 
L 414.233551 196.865743 
L 414.477192 179.688185 
L 414.538075 187.824914 
L 415.025357 190.537079 
L 415.147196 176.072056 
L 415.390837 178.784153 
L 415.756281 180.592588 
L 415.999922 173.359622 
L 416.304446 168.839292 
L 416.426285 168.839292 
L 417.157173 169.743628 
L 417.339931 168.839292 
L 417.400814 174.263554 
L 417.522652 160.702833 
L 417.522652 165.22323 
L 417.888096 163.414862 
L 418.25354 164.318726 
L 418.5581 159.798497 
L 418.679939 165.22323 
L 418.801742 154.374135 
L 418.862661 163.414862 
L 418.923544 150.757567 
L 419.106302 160.702833 
L 419.410826 155.277763 
L 419.593548 145.332834 
L 419.654468 150.757567 
L 419.715387 148.949166 
L 420.14175 148.045706 
L 420.446274 145.332834 
L 421.35992 141.716537 
L 421.35992 133.580044 
L 421.420839 140.812807 
L 422.029924 127.251346 
L 422.212646 136.292376 
L 422.212646 145.332834 
L 422.334484 143.525039 
L 422.395404 138.100441 
L 422.578126 132.675944 
L 423.369932 124.538945 
L 423.552654 136.292376 
L 423.613573 120.923018 
L 423.796295 129.963746 
L 424.344497 124.538945 
L 424.466299 115.498184 
L 424.527219 125.443247 
L 425.258106 106.457659 
L 425.319026 98.320694 
L 426.049949 109.169554 
L 426.841756 100.12923 
L 427.146316 93.800465 
L 427.694482 89.28 
L 428.364486 99.838001 
L 428.912688 97.830215 
L 429.156329 102.261564 
L 429.217212 105.855633 
L 429.582692 102.105929 
L 429.765414 112.888272 
L 429.887216 101.090484 
L 430.374499 110.857685 
L 430.800862 109.797782 
L 430.861781 120.624548 
L 430.9227 112.465894 
L 431.044503 115.133399 
L 431.409947 116.808192 
L 431.592705 118.549706 
L 432.445431 129.087263 
L 432.871794 126.219532 
L 432.993596 126.175513 
L 433.541798 134.112251 
L 433.6636 134.067828 
L 433.785403 133.119035 
L 434.089963 128.487191 
L 434.942689 142.641316 
L 435.429972 147.88795 
L 435.490891 142.441729 
L 435.795415 133.28969 
L 436.160895 145.813209 
L 436.76998 152.823417 
L 436.952702 151.8528 
L 438.170872 172.202251 
L 438.29271 157.69267 
L 438.962715 161.063981 
L 439.328158 170.875605 
L 439.389078 170.853544 
L 439.693602 162.605403 
L 439.998163 183.288351 
L 440.729086 169.460381 
L 440.972727 188.357358 
L 441.520893 180.924368 
L 441.520893 184.540834 
L 441.825453 195.278685 
L 441.886336 189.831892 
L 442.556341 191.395744 
L 443.348184 191.106738 
L 443.835466 190.024641 
L 443.957232 202.637512 
L 444.079071 200.785024 
L 444.20091 195.316137 
L 444.383668 209.714373 
L 444.505434 195.205027 
L 444.627273 204.20123 
L 445.236394 216.635784 
L 445.419079 203.912393 
L 445.540918 204.771968 
L 445.662757 203.823209 
L 445.723604 223.690988 
L 446.454563 210.766882 
L 446.454563 217.99941 
L 446.454563 215.287094 
L 447.063612 207.832179 
L 447.124531 215.946679 
L 447.24637 214.99824 
L 447.733653 215.724527 
L 447.794572 217.510481 
L 447.855491 222.912598 
L 448.525459 216.339924 
L 448.890903 221.630746 
L 449.073661 228.796723 
L 449.13458 211.596937 
L 450.230911 227.470565 
L 450.596355 238.186087 
L 450.779113 235.407085 
L 450.779113 231.790922 
L 451.083637 241.624556 
L 452.362726 242.061517 
L 452.545484 248.323546 
L 453.093686 246.315474 
L 453.337291 254.363136 
L 453.824574 255.089693 
L 453.946412 249.620419 
L 454.007332 252.310388 
L 454.433695 246.73024 
L 454.494541 249.420664 
L 454.738219 254.756146 
L 454.738219 263.79689 
L 454.738219 261.084658 
L 454.860058 239.342263 
L 456.017308 253.385042 
L 456.139147 256.957001 
L 456.200066 265.071417 
L 456.321832 255.986383 
L 456.626429 259.491487 
L 457.174558 257.483399 
L 457.296397 272.808283 
L 457.296397 271.90425 
L 457.72276 265.419935 
L 458.270962 265.219726 
L 458.270962 270.644324 
L 458.636405 275.031248 
L 459.245527 275.713348 
L 459.245527 278.42526 
L 459.306373 277.499251 
L 459.854575 280.011408 
L 460.524616 276.15036 
L 461.499108 276.698919 
L 461.620947 280.270625 
L 461.681866 277.536148 
L 462.169148 287.303432 
L 462.290987 281.834259 
L 463.996439 303.813962 
L 464.179125 300.130944 
L 465.397294 299.686489 
L 465.580052 290.578756 
L 466.067335 317.523446 
L 466.250093 305.703969 
L 466.798222 298.270929 
L 467.285505 311.65441 
L 467.529182 302.524768 
L 467.590029 309.735033 
L 467.833706 309.646119 
L 468.016464 304.155188 
L 468.260069 323.955962 
L 468.381908 306.733981 
L 468.564594 307.571462 
L 468.990957 320.976869 
L 469.051876 311.913946 
L 469.3564 317.227165 
L 469.41732 306.355892 
L 470.026441 316.982616 
L 470.08736 323.289204 
L 470.270046 322.318519 
L 470.635562 313.144217 
L 470.696409 329.395464 
L 470.757328 315.812042 
L 471.30553 321.940581 
L 472.097337 319.843157 
L 472.219175 327.031565 
L 472.280095 321.584637 
L 472.46278 331.463048 
L 472.706458 329.565866 
L 472.767377 326.831507 
L 472.828296 328.617427 
L 473.010982 327.646642 
L 473.132821 324.889818 
L 473.559184 336.487328 
L 473.863708 327.335373 
L 474.35099 333.486208 
L 474.960111 327.83929 
L 475.021031 344.994804 
L 475.142797 337.717532 
L 475.508241 336.680179 
L 475.508241 351.145504 
L 475.508241 343.912858 
L 475.934604 341.044908 
L 475.934604 336.524527 
L 476.178281 342.764176 
L 476.239201 353.590933 
L 476.543725 339.014456 
L 476.78733 338.925592 
L 477.396451 337.799138 
L 477.640128 345.847037 
L 477.640128 340.422557 
L 477.700975 341.304394 
L 478.614621 346.395394 
L 478.919217 347.188435 
L 479.040984 358.89697 
L 479.223742 348.885356 
L 479.832863 346.854904 
L 480.441911 360.193835 
L 480.868274 359.134261 
L 481.051032 345.506248 
L 481.538315 351.656974 
L 482.269202 374.896443 
L 482.573726 351.279163 
L 482.573726 353.991361 
L 482.756485 368.390009 
L 483.121928 363.736223 
L 483.548291 373.525584 
L 483.974654 360.712798 
L 484.035574 365.210891 
L 484.82738 363.113846 
L 485.253743 363.862278 
L 485.497421 363.773304 
L 485.680106 374.555663 
L 486.71559 371.465477 
L 487.081034 383.989375 
L 487.629236 374.748412 
L 488.360123 380.810266 
L 488.603728 379.817285 
L 488.786486 380.654631 
L 489.030091 372.42892 
L 489.09101 374.214908 
L 489.09101 386.872093 
L 489.943736 380.232304 
L 489.943736 383.848644 
L 490.491938 382.744503 
L 490.735616 386.271911 
L 490.857382 378.994783 
L 491.04014 393.393381 
L 491.283745 381.551389 
L 491.527422 380.558383 
L 492.136471 388.472825 
L 492.684673 388.272827 
L 492.745592 382.826109 
L 492.806511 390.036501 
L 492.989197 389.969832 
L 493.232874 392.593208 
L 493.537399 388.865641 
L 493.598318 396.076117 
L 493.659237 392.437591 
L 494.572883 388.487805 
L 494.572883 389.391887 
L 494.755568 400.174187 
L 495.060165 396.446645 
L 495.425609 396.313265 
L 496.095577 401.493264 
L 496.278335 401.426586 
L 496.582859 391.370481 
L 496.582859 402.219577 
L 496.887456 405.724748 
L 497.19198 388.436005 
L 497.374666 397.410139 
L 498.105626 401.663827 
L 498.531989 406.02859 
L 498.653755 395.135147 
L 499.019271 404.946678 
L 499.750158 402.871743 
L 500.115602 406.354711 
L 500.35928 406.26578 
L 501.51653 412.172074 
L 501.760135 414.7954 
L 502.308337 408.26672 
L 502.917458 415.277071 
L 504.56199 412.868707 
L 504.62291 423.695527 
L 504.62291 410.134246 
L 504.805595 418.204331 
L 505.171112 418.070926 
L 505.231958 412.624166 
L 505.353797 420.716489 
L 505.414716 413.46158 
L 505.597475 415.203094 
L 505.78016 418.752697 
L 505.841079 416.922311 
L 506.389281 425.76309 
L 507.242007 415.506952 
L 507.424693 421.768863 
L 507.546532 419.916215 
L 508.338338 425.955852 
L 509.617427 428.201308 
L 509.678347 429.987236 
L 509.800185 428.134618 
L 509.922024 429.89828 
L 509.982943 428.067919 
L 510.531073 429.676027 
L 510.896589 425.022232 
L 511.018355 428.594098 
L 511.262033 422.176599 
L 511.322952 431.195199 
L 511.444718 424.822124 
L 511.932 432.781041 
L 512.297444 429.03135 
L 512.723807 427.971687 
L 512.723807 428.875724 
L 512.845646 427.927175 
L 514.551098 433.633366 
L 515.281985 436.982933 
L 515.342905 436.056608 
L 515.342905 432.440285 
L 516.25655 436.627262 
L 516.317469 428.4683 
L 516.682913 438.279818 
L 517.109276 433.603829 
L 517.231115 434.463454 
L 517.657478 433.403754 
L 517.779317 434.263359 
L 517.840236 433.337043 
L 518.14476 435.034049 
L 518.14476 437.746306 
L 518.388365 436.753304 
L 518.388365 449.410519 
L 518.510204 444.845639 
L 519.058406 442.83739 
L 519.30201 436.419862 
L 519.484769 439.065441 
L 519.484769 441.777707 
L 520.03297 444.289864 
L 520.215656 437.894619 
L 520.5811 434.144877 
L 520.763858 442.21495 
L 521.372979 438.376332 
L 521.616584 444.615981 
L 521.738422 440.955188 
L 521.982027 447.194874 
L 521.982027 444.48263 
L 522.164785 443.511861 
L 523.13935 449.484753 
L 523.261116 447.63213 
L 523.62656 450.211032 
L 524.479286 440.858944 
L 524.601125 448.047153 
L 525.210246 448.728967 
L 526.002053 443.919563 
L 526.672021 445.483201 
L 526.854779 453.553252 
L 527.220222 450.707636 
L 527.281142 456.109905 
L 527.281142 450.685395 
L 527.890263 450.463117 
L 528.012029 445.898237 
L 528.438392 453.879378 
L 528.742989 451.055969 
L 528.986594 447.350715 
L 529.291118 454.472247 
L 529.717554 454.31663 
L 530.631126 452.175047 
L 530.631126 445.846429 
L 530.996643 456.562068 
L 531.118409 451.997209 
L 531.301167 462.779518 
L 532.214812 451.597073 
L 533.067538 458.518543 
L 533.189377 453.049546 
L 533.554821 452.012121 
L 535.077515 463.209465 
L 535.260273 453.197847 
L 535.321192 455.887879 
L 535.442958 459.459732 
L 535.869321 459.30414 
L 536.782967 454.450263 
L 537.453007 461.438415 
L 538.853935 466.351647 
L 538.975701 458.170416 
L 540.072105 462.290727 
L 540.437548 460.349169 
L 540.802992 461.119873 
L 540.863911 462.001734 
L 540.863911 460.193577 
L 541.229355 470.005116 
L 541.351194 463.63206 
L 541.716638 467.115022 
L 542.386678 465.966407 
L 542.569364 463.18747 
L 542.691202 464.047094 
L 542.691202 464.047094 
L 542.691202 464.951174 
L 543.117565 470.220084 
L 543.604848 470.946331 
L 544.640259 465.143926 
L 545.066622 466.796489 
L 545.127542 470.390592 
L 545.371219 465.781259 
L 545.919348 469.197518 
L 546.528469 466.262963 
L 546.893913 465.225521 
L 547.624873 462.2465 
L 548.41668 465.573873 
L 548.477599 466.455709 
L 548.782123 466.344565 
L 548.903962 471.724618 
L 549.025728 469.871986 
L 549.452091 473.332719 
L 549.452091 471.524547 
L 549.57393 466.959676 
L 550.24397 465.811057 
L 550.365737 474.807449 
L 550.974858 473.681057 
L 551.644826 467.107951 
L 551.888503 470.63537 
L 552.132108 469.642373 
L 552.375786 470.457524 
L 552.497552 474.029404 
L 552.923915 471.161547 
L 553.228512 470.146312 
L 553.83756 469.924024 
L 553.959399 475.304065 
L 554.263923 472.480666 
L 554.933964 474.044301 
L 555.238488 472.124984 
L 555.482165 469.323831 
L 555.543012 473.822015 
L 555.78669 478.253517 
L 556.639416 472.517789 
L 556.883021 469.716632 
L 556.94394 474.214814 
L 557.431222 474.036978 
L 557.492142 476.727002 
L 557.553061 473.992515 
L 558.405787 469.160884 
L 558.953989 477.097578 
L 559.197594 473.392331 
L 559.319433 477.868293 
L 559.441271 472.399316 
L 559.684876 476.830823 
L 559.684876 476.830823 
L 559.9894 471.295161 
L 560.233078 477.534841 
L 560.415763 470.235486 
L 560.415763 475.659981 
L 560.903046 475.48215 
L 561.816691 474.244629 
L 561.816691 476.956866 
L 562.303974 476.779044 
L 562.669417 471.221156 
L 562.730337 478.431593 
L 563.034861 484.649043 
L 563.948506 476.178842 
L 564.253103 479.684023 
L 564.862152 477.653564 
L 565.410354 478.357586 
L 565.532192 480.121297 
L 565.593112 477.386813 
L 565.836717 482.722398 
L 567.298564 478.572552 
L 567.542169 482.099975 
L 567.846693 474.756142 
L 567.968532 480.136187 
L 568.699419 481.677606 
L 568.760338 480.751297 
L 569.064935 474.311555 
L 569.064935 474.311555 
L 569.247621 477.861201 
L 569.369459 476.912655 
L 570.039427 477.572219 
L 570.46579 479.224786 
L 570.46579 481.032955 
L 570.587629 480.084405 
L 570.892153 479.973262 
L 570.892153 481.781424 
L 571.25767 480.743966 
L 571.562194 482.440982 
L 571.623113 481.514669 
L 571.805799 480.543903 
L 572.171242 480.410518 
L 572.293081 482.174234 
L 572.354001 478.535668 
L 572.536759 482.085311 
L 572.719444 481.11454 
L 572.780364 479.284137 
L 573.815848 482.522577 
L 574.120372 486.027765 
L 574.30313 485.05699 
L 574.424896 481.3962 
L 574.546735 482.255823 
L 575.155856 482.033528 
L 576.130348 486.198278 
L 576.67855 483.285954 
L 577.165833 479.491783 
L 577.226752 481.277718 
L 578.505841 484.427238 
L 579.724011 482.174481 
L 579.845849 481.22593 
L 579.967688 486.60598 
L 579.967688 486.60598 
L 580.454971 483.715888 
L 580.576737 487.287768 
L 581.855826 483.20461 
L 582.525866 482.056007 
L 582.586786 476.609269 
L 582.586786 487.45828 
L 582.647705 486.531967 
L 583.134915 481.833711 
L 583.439512 484.434811 
L 584.657681 483.990221 
L 585.023125 486.569095 
L 585.266802 485.576095 
L 585.510407 482.77492 
L 586.119529 488.881218 
L 586.180375 482.530397 
L 586.241295 485.220421 
L 586.363133 483.367789 
L 586.667658 485.968896 
L 586.850416 488.614463 
L 586.972255 485.857752 
L 587.459537 481.159496 
L 588.190424 481.796819 
L 588.616787 486.161636 
L 588.738626 484.309006 
L 588.921311 483.338239 
L 588.921311 489.666827 
L 589.04315 485.101944 
L 589.10407 485.9838 
L 589.164989 488.673822 
L 589.956796 483.864419 
L 590.748602 486.287687 
L 591.114046 484.346142 
L 591.41857 490.563582 
L 591.41857 487.85133 
L 591.845006 485.887553 
L 591.966772 489.459433 
L 592.514974 482.930776 
L 592.941337 486.391505 
L 593.002256 482.752939 
L 593.489539 480.766928 
L 594.646789 487.577248 
L 594.707708 489.363187 
L 594.890466 487.488327 
L 595.804039 488.058968 
L 596.108636 487.947822 
L 596.47408 485.102191 
L 596.656838 487.747754 
L 597.63133 490.104335 
L 598.423137 483.486761 
L 598.605895 487.940494 
L 598.788653 484.257466 
L 598.849572 485.139321 
L 599.032258 487.784888 
L 599.093177 486.858575 
L 599.275935 485.887799 
L 599.397701 491.267847 
L 599.945903 485.643273 
L 600.067742 485.598816 
L 600.494105 487.25138 
L 600.920468 487.999852 
L 600.920468 489.808023 
L 601.103153 491.597446 
L 601.40775 489.630186 
L 603.174122 488.985528 
L 603.174122 486.273276 
L 603.295888 490.74924 
L 603.600485 489.734006 
L 603.722251 487.88138 
L 604.148614 491.342109 
L 604.270453 489.489482 
L 605.123179 490.986437 
L 605.305937 491.597446 
L 605.427703 488.163035 
L 605.7323 488.051887 
L 605.854139 491.597446 
L 605.975905 487.058883 
L 606.341348 488.733675 
L 606.402268 488.711446 
L 606.463187 491.40147 
L 607.254994 482.975722 
L 607.559591 488.289087 
L 607.925034 490.867961 
L 608.046801 489.015331 
L 608.412317 491.597446 
L 608.534083 487.933412 
L 609.143204 489.519285 
L 609.874091 485.636193 
L 609.874091 491.597446 
L 609.99593 486.495815 
L 610.300454 485.480587 
L 610.909575 485.258291 
L 611.457777 491.386815 
L 611.457777 489.578645 
L 611.640463 485.895622 
L 611.762302 489.467499 
L 611.823221 486.733014 
L 611.823221 488.541183 
L 612.858632 488.163283 
L 613.163229 491.597446 
L 613.650512 486.066126 
L 614.503238 488.467169 
L 614.625004 489.326792 
L 614.746843 491.090502 
L 615.173206 488.222644 
L 615.173206 490.934895 
L 615.416883 491.597446 
L 615.599569 487.162952 
L 616.269609 489.630679 
L 616.330529 487.800282 
L 616.330529 489.60845 
L 617.244101 491.987259 
L 617.914142 489.934565 
L 617.975061 491.597446 
L 618.0969 491.676045 
L 618.157747 490.749731 
L 618.218666 488.015247 
L 618.401424 491.564897 
L 618.705949 488.741497 
L 619.132312 490.394058 
L 619.375989 492.113309 
L 619.375989 489.401057 
L 619.558675 492.04662 
L 621.081441 489.682711 
L 621.264127 488.711938 
L 621.385965 484.147056 
L 621.507804 487.718938 
L 622.604135 491.839226 
L 623.761458 488.704612 
L 623.761458 492.320949 
L 624.005063 489.519777 
L 624.370507 491.597446 
L 624.431426 489.364171 
L 624.857789 490.112647 
L 625.040547 487.333707 
L 625.954192 490.616599 
L 626.806918 490.305386 
L 626.928685 491.597446 
L 627.415967 489.179006 
L 628.451451 491.597446 
L 628.999653 486.792869 
L 629.243258 490.320287 
L 629.547782 489.305056 
L 629.73054 491.597446 
L 630.644186 487.096756 
L 630.766024 492.476802 
L 630.826871 491.550488 
L 631.375073 491.597446 
L 631.496912 491.305962 
L 632.288718 491.016978 
L 632.349638 491.597446 
L 632.958759 488.964283 
L 632.958759 488.060201 
L 633.445969 488.786447 
L 633.628727 491.597446 
L 633.750566 491.597446 
L 633.750566 490.483469 
L 634.116009 488.541924 
L 634.481453 487.504461 
L 635.456018 491.669209 
L 635.821461 492.439916 
L 636.247824 491.380225 
L 636.369663 492.23985 
L 637.039631 491.091241 
L 637.648752 488.156691 
L 638.501478 491.597446 
L 639.232365 491.195061 
L 639.780567 487.378654 
L 640.328769 489.890844 
L 640.450535 491.597446 
L 640.937817 492.380801 
L 640.937817 491.476717 
L 641.120576 490.505943 
L 641.242414 490.461485 
L 642.826028 490.7876 
L 642.826028 488.075347 
L 643.130552 491.597446 
L 643.252391 487.919743 
L 644.166036 492.106719 
L 645.749649 492.432834 
L 646.602375 491.597446 
L 646.967892 490.180074 
L 646.967892 489.275989 
L 647.942384 488.920317 
L 648.551505 487.793938 
L 648.612424 492.292129 
L 648.79511 489.513187 
L 648.977868 489.446498 
L 649.647836 491.914226 
L 650.013352 491.597446 
L 650.196038 489.001907 
L 650.439715 488.91299 
L 650.622401 490.654468 
L 652.206087 491.884669 
L 652.815135 489.854204 
L 653.058813 492.47754 
L 653.241498 486.986344 
L 653.485176 492.321933 
L 654.033305 491.597446 
L 654.398821 491.597446 
L 654.825184 489.120627 
L 655.373313 491.597446 
L 655.799676 491.597446 
L 656.530636 489.402286 
L 657.505128 491.597446 
L 657.809725 491.597446 
L 657.931491 489.79509 
L 658.05333 491.597446 
L 658.236088 489.683942 
L 658.479693 489.595023 
L 658.479693 491.597446 
L 658.966976 491.597446 
L 659.515177 488.313038 
L 660.124226 491.597446 
L 660.124226 489.898911 
L 660.306984 488.928136 
L 661.037871 491.373635 
L 661.098791 492.25549 
L 661.220629 491.306947 
L 661.281549 489.476548 
L 661.342468 490.358402 
L 661.342468 492.166572 
L 661.82975 491.597446 
L 662.560638 491.597446 
L 662.621557 488.987496 
L 662.865162 491.597446 
L 664.570614 491.597446 
L 664.996977 491.736882 
L 665.301574 491.625735 
L 665.788856 490.543813 
L 665.849703 489.617499 
L 665.849703 491.597446 
L 665.971542 490.477125 
L 666.276066 491.597446 
L 667.981591 491.551718 
L 668.286115 492.344654 
L 669.017002 491.597446 
L 669.077922 490.247501 
L 669.138841 491.129355 
L 669.321527 488.350414 
L 670.235172 489.825141 
L 670.296091 486.18657 
L 670.966132 492.270638 
L 671.027051 491.344324 
L 671.209737 491.597446 
L 672.732503 482.585132 
L 673.219786 491.448144 
L 673.341552 491.597446 
L 673.646149 492.196621 
L 674.194278 491.597446 
L 674.377036 490.121697 
L 674.437955 486.483133 
L 674.559722 490.959094 
L 675.168843 488.024543 
L 675.229762 489.810483 
L 675.717045 491.440816 
L 677.605255 491.597446 
L 677.666102 490.72947 
L 678.397061 492.270884 
L 678.457981 490.440485 
L 678.457981 491.597446 
L 682.904296 491.597446 
L 683.208893 491.418833 
L 683.452498 491.597446 
L 683.696176 489.432827 
L 684.427063 490.070156 
L 684.548902 489.121614 
L 684.670668 491.597446 
L 685.15795 491.61157 
L 685.21887 490.685257 
L 685.523394 490.574108 
L 685.706152 491.597446 
L 685.827991 491.597446 
L 685.949757 491.322587 
L 686.071596 490.374044 
L 686.071596 490.374044 
L 686.193434 491.597446 
L 686.193434 491.597446 
L 686.315273 490.285124 
L 686.558878 491.597446 
L 686.924322 491.597446 
L 687.10708 490.900224 
L 687.898887 490.61124 
L 688.508008 492.197113 
L 690.883428 491.330161 
L 691.797073 491.900801 
L 692.649799 491.597446 
L 695.512574 491.597446 
L 695.938937 492.197359 
L 695.938937 491.597446 
L 696.182542 491.597446 
L 696.243461 491.182128 
L 696.426219 488.403187 
L 696.426219 491.597446 
L 696.487066 491.597446 
L 696.547986 489.262812 
L 696.547986 491.597446 
L 696.791663 491.886146 
L 696.913429 489.129434 
L 697.035268 491.597446 
L 697.339792 491.686079 
L 697.52255 485.290802 
L 697.827075 490.604158 
L 698.070752 491.597446 
L 699.045317 491.063651 
L 699.349841 491.597446 
L 699.593446 491.597446 
L 700.202567 492.449458 
L 700.263487 487.906808 
L 700.324406 491.597446 
L 700.446172 492.36054 
L 700.68985 490.463453 
L 701.420737 491.597446 
L 702.51714 491.597446 
L 702.821665 492.397671 
L 702.882584 489.663189 
L 703.187108 491.360209 
L 703.248028 491.33798 
L 703.73531 491.597446 
L 704.466197 491.597446 
L 705.440762 488.729548 
L 705.988964 491.241734 
L 706.84169 491.597446 
L 707.389819 489.826371 
L 707.511658 491.597446 
L 707.99894 490.508159 
L 708.05986 491.597446 
L 708.547142 488.499923 
L 708.547142 491.597446 
L 710.252594 491.597446 
L 710.252594 489.685664 
L 710.739877 490.411911 
L 710.983481 491.597446 
L 711.16624 488.448136 
L 711.531683 491.597446 
L 713.115297 491.597446 
L 713.176216 491.330899 
L 713.480813 491.597446 
L 713.846256 491.597446 
L 714.2117 490.952995 
L 714.272619 491.597446 
L 714.455305 491.597446 
L 714.577144 491.723702 
L 715.734394 491.597446 
L 716.038991 491.597446 
L 716.09991 492.072048 
L 716.891717 491.597446 
L 717.257161 489.841517 
L 717.622604 492.420393 
L 717.683524 491.597446 
L 718.292645 488.55953 
L 718.353491 491.249554 
L 718.53625 491.597446 
L 718.53625 492.08695 
L 719.023532 491.597446 
L 720.36354 491.597446 
L 720.607145 491.331144 
L 720.789903 491.597446 
L 721.155347 491.597446 
L 721.398952 490.138075 
L 721.825315 491.597446 
L 722.312597 491.597446 
L 722.312597 491.597446 
L 722.73896 492.361278 
L 723.104477 491.597446 
L 723.104477 491.597446 
L 723.348082 491.597446 
L 723.409001 491.212668 
L 723.652606 491.597446 
L 727.124429 491.597446 
L 727.368107 492.48 
L 727.429026 488.841434 
L 727.489946 491.531456 
L 729.073559 491.597446 
L 729.134478 490.931259 
L 729.926285 492.450443 
L 730.291729 490.508897 
L 730.535406 491.597446 
L 730.657172 489.471435 
L 730.90085 491.597446 
L 732.301778 491.597446 
L 732.423544 489.730861 
L 732.545382 490.590487 
L 732.788987 488.693399 
L 733.21535 490.345962 
L 733.398108 492.087442 
L 733.580867 491.597446 
L 733.702633 491.597446 
L 733.763552 491.04998 
L 733.94631 491.887376 
L 734.00723 490.961062 
L 734.068076 491.597446 
L 734.128996 491.820687 
L 734.738117 491.597446 
L 734.981722 488.79722 
L 735.286319 491.597446 
L 735.773601 491.597446 
L 735.956287 490.249716 
L 736.078125 491.597446 
L 736.199964 490.160797 
L 736.38265 491.597446 
L 736.809013 491.597446 
L 737.539972 491.479915 
L 737.905416 491.597446 
L 737.905416 491.597446 
L 738.758142 491.597446 
L 739.001747 490.042321 
L 739.306344 491.597446 
L 739.549949 489.842256 
L 739.732707 490.679652 
L 740.280836 488.671415 
L 740.280836 488.671415 
L 740.341755 491.597446 
L 740.585433 491.272522 
L 741.499078 491.597446 
L 741.681764 487.256054 
L 741.864522 491.597446 
L 742.778167 488.664088 
L 742.960853 492.213737 
L 743.20453 491.597446 
L 743.265377 490.294421 
L 743.387216 490.249961 
L 743.813579 491.597446 
L 744.970902 490.576077 
L 745.092668 491.435703 
L 745.945394 491.597446 
L 747.163636 491.597446 
L 747.163636 491.597446 
" clip-path="url(#p819185f127)" style="fill: none; stroke: #1f77b4; stroke-width: 2; stroke-linecap: square"/>
   </g>
   <g id="line2d_22">
    <path d="M 138.436364 491.706312 
L 225.232097 491.559822 
L 251.24035 491.313537 
L 266.711293 490.962074 
L 277.857687 490.486106 
L 285.654097 489.947984 
L 292.354103 489.267472 
L 297.775019 488.501674 
L 297.775019 488.501674 
L 302.34321 487.652104 
L 306.789598 486.591558 
L 310.626866 485.443899 
L 313.672326 484.347619 
L 317.022347 482.918427 
L 320.311449 481.251516 
L 323.174188 479.557203 
L 325.549644 477.958611 
L 328.777826 475.474924 
L 331.396924 473.170212 
L 332.55421 472.062822 
L 335.538788 468.937428 
L 338.462409 465.474436 
L 341.203346 461.839957 
L 343.944246 457.806058 
L 346.746065 453.246581 
L 348.938799 449.356484 
L 351.253373 444.932095 
L 354.664277 437.794906 
L 357.892459 430.339893 
L 357.892459 430.339893 
L 360.877036 422.82408 
L 363.130654 416.744937 
L 366.358873 407.422966 
L 370.013418 395.993787 
L 373.363439 384.702409 
L 376.835262 372.191646 
L 380.97709 356.224043 
L 384.936196 339.957287 
L 388.590741 324.138153 
L 393.524412 301.700068 
L 393.524412 301.700068 
L 398.762607 276.755316 
L 405.888976 241.544633 
L 423.796295 152.370896 
L 427.694482 133.842847 
L 428.181764 114.09623 
L 430.9227 136.941284 
L 433.6636 157.903976 
L 436.160895 175.55625 
L 439.328158 196.204138 
L 441.886336 211.629623 
L 445.236394 230.353368 
L 448.220935 245.79982 
L 451.083637 259.660762 
L 454.860058 276.698919 
L 458.636405 292.509011 
L 462.290987 306.801997 
L 466.798222 323.253048 
L 470.757328 336.767544 
L 475.021031 350.455204 
L 479.040984 362.611765 
L 483.121928 374.258338 
L 487.081034 384.917985 
L 491.283745 395.559503 
L 495.060165 404.534227 
L 498.653755 412.557337 
L 502.308337 420.197542 
L 505.841079 427.084377 
L 508.338338 431.65761 
L 512.297444 438.411212 
L 515.342905 443.198542 
L 515.342905 443.198542 
L 519.058406 448.571265 
L 522.164785 452.681755 
L 525.210246 456.388491 
L 528.742989 460.307439 
L 531.301167 462.903609 
L 535.077515 466.389054 
L 537.696612 468.579355 
L 541.351194 471.349112 
L 544.640259 473.579302 
L 548.477599 475.896463 
L 552.375786 477.967872 
L 555.78669 479.571317 
L 560.233078 481.401653 
L 564.253103 482.832593 
L 569.064935 484.302267 
L 569.064935 484.302267 
L 574.120372 485.600113 
L 578.505841 486.550747 
L 584.657681 487.652889 
L 591.114046 488.56918 
L 598.423137 489.37021 
L 606.463187 490.027867 
L 616.330529 490.60075 
L 616.330529 490.60075 
L 628.451451 491.063587 
L 644.166036 491.421244 
L 667.007026 491.685121 
L 702.882584 491.846092 
L 747.163636 491.905749 
L 747.163636 491.905749 
" clip-path="url(#p819185f127)" style="fill: none; stroke: #ff7f0e; stroke-width: 2; stroke-linecap: square"/>
   </g>
   <g id="patch_3">
    <path d="M 108 512.64 
L 108 69.12 
" style="fill: none; stroke: #000000; stroke-width: 0.8; stroke-linejoin: miter; stroke-linecap: square"/>
   </g>
   <g id="patch_4">
    <path d="M 777.6 512.64 
L 777.6 69.12 
" style="fill: none; stroke: #000000; stroke-width: 0.8; stroke-linejoin: miter; stroke-linecap: square"/>
   </g>
   <g id="patch_5">
    <path d="M 108 512.64 
L 777.6 512.64 
" style="fill: none; stroke: #000000; stroke-width: 0.8; stroke-linejoin: miter; stroke-linecap: square"/>
   </g>
   <g id="patch_6">
    <path d="M 108 69.12 
L 777.6 69.12 
" style="fill: none; stroke: #000000; stroke-width: 0.8; stroke-linejoin: miter; stroke-linecap: square"/>
   </g>
   <g id="text_13">
    <!-- Price by Spot/Strike ratio. Moneyness=1.1 -->
    <g transform="translate(232.173438 63.12) scale(0.2 -0.2)">
     <defs>
      <path id="DejaVuSans-62" d="M 3116 1747 
Q 3116 2381 2855 2742 
Q 2594 3103 2138 3103 
Q 1681 3103 1420 2742 
Q 1159 2381 1159 1747 
Q 1159 1113 1420 752 
Q 1681 391 2138 391 
Q 2594 391 2855 752 
Q 3116 1113 3116 1747 
z
M 1159 2969 
Q 1341 3281 1617 3432 
Q 1894 3584 2278 3584 
Q 2916 3584 3314 3078 
Q 3713 2572 3713 1747 
Q 3713 922 3314 415 
Q 2916 -91 2278 -91 
Q 1894 -91 1617 61 
Q 1341 213 1159 525 
L 1159 0 
L 581 0 
L 581 4863 
L 1159 4863 
L 1159 2969 
z
" transform="scale(0.015625)"/>
      <path id="DejaVuSans-79" d="M 2059 -325 
Q 1816 -950 1584 -1140 
Q 1353 -1331 966 -1331 
L 506 -1331 
L 506 -850 
L 844 -850 
Q 1081 -850 1212 -737 
Q 1344 -625 1503 -206 
L 1606 56 
L 191 3500 
L 800 3500 
L 1894 763 
L 2988 3500 
L 3597 3500 
L 2059 -325 
z
" transform="scale(0.015625)"/>
      <path id="DejaVuSans-4d" d="M 628 4666 
L 1569 4666 
L 2759 1491 
L 3956 4666 
L 4897 4666 
L 4897 0 
L 4281 0 
L 4281 4097 
L 3078 897 
L 2444 897 
L 1241 4097 
L 1241 0 
L 628 0 
L 628 4666 
z
" transform="scale(0.015625)"/>
      <path id="DejaVuSans-6e" d="M 3513 2113 
L 3513 0 
L 2938 0 
L 2938 2094 
Q 2938 2591 2744 2837 
Q 2550 3084 2163 3084 
Q 1697 3084 1428 2787 
Q 1159 2491 1159 1978 
L 1159 0 
L 581 0 
L 581 3500 
L 1159 3500 
L 1159 2956 
Q 1366 3272 1645 3428 
Q 1925 3584 2291 3584 
Q 2894 3584 3203 3211 
Q 3513 2838 3513 2113 
z
" transform="scale(0.015625)"/>
      <path id="DejaVuSans-3d" d="M 678 2906 
L 4684 2906 
L 4684 2381 
L 678 2381 
L 678 2906 
z
M 678 1631 
L 4684 1631 
L 4684 1100 
L 678 1100 
L 678 1631 
z
" transform="scale(0.015625)"/>
     </defs>
     <use xlink:href="#DejaVuSans-50"/>
     <use xlink:href="#DejaVuSans-72" x="58.552734"/>
     <use xlink:href="#DejaVuSans-69" x="99.666016"/>
     <use xlink:href="#DejaVuSans-63" x="127.449219"/>
     <use xlink:href="#DejaVuSans-65" x="182.429688"/>
     <use xlink:href="#DejaVuSans-20" x="243.953125"/>
     <use xlink:href="#DejaVuSans-62" x="275.740234"/>
     <use xlink:href="#DejaVuSans-79" x="339.216797"/>
     <use xlink:href="#DejaVuSans-20" x="398.396484"/>
     <use xlink:href="#DejaVuSans-53" x="430.183594"/>
     <use xlink:href="#DejaVuSans-70" x="493.660156"/>
     <use xlink:href="#DejaVuSans-6f" x="557.136719"/>
     <use xlink:href="#DejaVuSans-74" x="618.318359"/>
     <use xlink:href="#DejaVuSans-2f" x="657.527344"/>
     <use xlink:href="#DejaVuSans-53" x="691.21875"/>
     <use xlink:href="#DejaVuSans-74" x="754.695312"/>
     <use xlink:href="#DejaVuSans-72" x="793.904297"/>
     <use xlink:href="#DejaVuSans-69" x="835.017578"/>
     <use xlink:href="#DejaVuSans-6b" x="862.800781"/>
     <use xlink:href="#DejaVuSans-65" x="917.085938"/>
     <use xlink:href="#DejaVuSans-20" x="978.609375"/>
     <use xlink:href="#DejaVuSans-72" x="1010.396484"/>
     <use xlink:href="#DejaVuSans-61" x="1051.509766"/>
     <use xlink:href="#DejaVuSans-74" x="1112.789062"/>
     <use xlink:href="#DejaVuSans-69" x="1151.998047"/>
     <use xlink:href="#DejaVuSans-6f" x="1179.78125"/>
     <use xlink:href="#DejaVuSans-2e" x="1239.212891"/>
     <use xlink:href="#DejaVuSans-20" x="1271"/>
     <use xlink:href="#DejaVuSans-4d" x="1302.787109"/>
     <use xlink:href="#DejaVuSans-6f" x="1389.066406"/>
     <use xlink:href="#DejaVuSans-6e" x="1450.248047"/>
     <use xlink:href="#DejaVuSans-65" x="1513.626953"/>
     <use xlink:href="#DejaVuSans-79" x="1575.150391"/>
     <use xlink:href="#DejaVuSans-6e" x="1634.330078"/>
     <use xlink:href="#DejaVuSans-65" x="1697.708984"/>
     <use xlink:href="#DejaVuSans-73" x="1759.232422"/>
     <use xlink:href="#DejaVuSans-73" x="1811.332031"/>
     <use xlink:href="#DejaVuSans-3d" x="1863.431641"/>
     <use xlink:href="#DejaVuSans-31" x="1947.220703"/>
     <use xlink:href="#DejaVuSans-2e" x="2010.84375"/>
     <use xlink:href="#DejaVuSans-31" x="2042.630859"/>
    </g>
   </g>
   <g id="legend_1">
    <g id="patch_7">
     <path d="M 598.581563 136.36125 
L 765 136.36125 
Q 768.6 136.36125 768.6 132.76125 
L 768.6 81.72 
Q 768.6 78.12 765 78.12 
L 598.581563 78.12 
Q 594.981563 78.12 594.981563 81.72 
L 594.981563 132.76125 
Q 594.981563 136.36125 598.581563 136.36125 
z
" style="fill: #ffffff; opacity: 0.8; stroke: #cccccc; stroke-linejoin: miter"/>
    </g>
    <g id="line2d_23">
     <path d="M 602.181563 92.697188 
L 620.181563 92.697188 
L 638.181563 92.697188 
" style="fill: none; stroke: #1f77b4; stroke-width: 2; stroke-linecap: square"/>
    </g>
    <g id="text_14">
     <!-- Monte Carlo -->
     <g transform="translate(652.581563 98.997188) scale(0.18 -0.18)">
      <defs>
       <path id="DejaVuSans-43" d="M 4122 4306 
L 4122 3641 
Q 3803 3938 3442 4084 
Q 3081 4231 2675 4231 
Q 1875 4231 1450 3742 
Q 1025 3253 1025 2328 
Q 1025 1406 1450 917 
Q 1875 428 2675 428 
Q 3081 428 3442 575 
Q 3803 722 4122 1019 
L 4122 359 
Q 3791 134 3420 21 
Q 3050 -91 2638 -91 
Q 1578 -91 968 557 
Q 359 1206 359 2328 
Q 359 3453 968 4101 
Q 1578 4750 2638 4750 
Q 3056 4750 3426 4639 
Q 3797 4528 4122 4306 
z
" transform="scale(0.015625)"/>
       <path id="DejaVuSans-6c" d="M 603 4863 
L 1178 4863 
L 1178 0 
L 603 0 
L 603 4863 
z
" transform="scale(0.015625)"/>
      </defs>
      <use xlink:href="#DejaVuSans-4d"/>
      <use xlink:href="#DejaVuSans-6f" x="86.279297"/>
      <use xlink:href="#DejaVuSans-6e" x="147.460938"/>
      <use xlink:href="#DejaVuSans-74" x="210.839844"/>
      <use xlink:href="#DejaVuSans-65" x="250.048828"/>
      <use xlink:href="#DejaVuSans-20" x="311.572266"/>
      <use xlink:href="#DejaVuSans-43" x="343.359375"/>
      <use xlink:href="#DejaVuSans-61" x="413.183594"/>
      <use xlink:href="#DejaVuSans-72" x="474.462891"/>
      <use xlink:href="#DejaVuSans-6c" x="515.576172"/>
      <use xlink:href="#DejaVuSans-6f" x="543.359375"/>
     </g>
    </g>
    <g id="line2d_24">
     <path d="M 602.181563 119.117813 
L 620.181563 119.117813 
L 638.181563 119.117813 
" style="fill: none; stroke: #ff7f0e; stroke-width: 2; stroke-linecap: square"/>
    </g>
    <g id="text_15">
     <!-- Positive net -->
     <g transform="translate(652.581563 125.417813) scale(0.18 -0.18)">
      <defs>
       <path id="DejaVuSans-76" d="M 191 3500 
L 800 3500 
L 1894 563 
L 2988 3500 
L 3597 3500 
L 2284 0 
L 1503 0 
L 191 3500 
z
" transform="scale(0.015625)"/>
      </defs>
      <use xlink:href="#DejaVuSans-50"/>
      <use xlink:href="#DejaVuSans-6f" x="56.677734"/>
      <use xlink:href="#DejaVuSans-73" x="117.859375"/>
      <use xlink:href="#DejaVuSans-69" x="169.958984"/>
      <use xlink:href="#DejaVuSans-74" x="197.742188"/>
      <use xlink:href="#DejaVuSans-69" x="236.951172"/>
      <use xlink:href="#DejaVuSans-76" x="264.734375"/>
      <use xlink:href="#DejaVuSans-65" x="323.914062"/>
      <use xlink:href="#DejaVuSans-20" x="385.4375"/>
      <use xlink:href="#DejaVuSans-6e" x="417.224609"/>
      <use xlink:href="#DejaVuSans-65" x="480.603516"/>
      <use xlink:href="#DejaVuSans-74" x="542.126953"/>
     </g>
    </g>
   </g>
  </g>
 </g>
 <defs>
  <clipPath id="p819185f127">
   <rect x="108" y="69.12" width="669.6" height="443.52"/>
  </clipPath>
 </defs>
</svg>
