<?xml version="1.0" encoding="utf-8" standalone="no"?>
<!DOCTYPE svg PUBLIC "-//W3C//DTD SVG 1.1//EN"
  "http://www.w3.org/Graphics/SVG/1.1/DTD/svg11.dtd">
<svg xmlns:xlink="http://www.w3.org/1999/xlink" width="864pt" height="576pt" viewBox="0 0 864 576" xmlns="http://www.w3.org/2000/svg" version="1.1">
 <metadata>
  <rdf:RDF xmlns:dc="http://purl.org/dc/elements/1.1/" xmlns:cc="http://creativecommons.org/ns#" xmlns:rdf="http://www.w3.org/1999/02/22-rdf-syntax-ns#">
   <cc:Work>
    <dc:type rdf:resource="http://purl.org/dc/dcmitype/StillImage"/>
    <dc:date>2024-03-10T20:05:29.718826</dc:date>
    <dc:format>image/svg+xml</dc:format>
    <dc:creator>
     <cc:Agent>
      <dc:title>Matplotlib v3.7.3, https://matplotlib.org/</dc:title>
     </cc:Agent>
    </dc:creator>
   </cc:Work>
  </rdf:RDF>
 </metadata>
 <defs>
  <style type="text/css">*{stroke-linejoin: round; stroke-linecap: butt}</style>
 </defs>
 <g id="figure_1">
  <g id="patch_1">
   <path d="M 0 576 
L 864 576 
L 864 0 
L 0 0 
z
" style="fill: #ffffff"/>
  </g>
  <g id="axes_1">
   <g id="patch_2">
    <path d="M 108 512.64 
L 777.6 512.64 
L 777.6 69.12 
L 108 69.12 
z
" style="fill: #ffffff"/>
   </g>
   <g id="matplotlib.axis_1">
    <g id="xtick_1">
     <g id="line2d_1">
      <path d="M 138.334854 512.64 
L 138.334854 69.12 
" clip-path="url(#pb94aabc09b)" style="fill: none; stroke: #b0b0b0; stroke-width: 0.8; stroke-linecap: square"/>
     </g>
     <g id="line2d_2">
      <defs>
       <path id="m16cd4660a5" d="M 0 0 
L 0 3.5 
" style="stroke: #000000; stroke-width: 0.8"/>
      </defs>
      <g>
       <use xlink:href="#m16cd4660a5" x="138.334854" y="512.64" style="stroke: #000000; stroke-width: 0.8"/>
      </g>
     </g>
     <g id="text_1">
      <!-- 0.7 -->
      <g transform="translate(130.383291 527.238438) scale(0.1 -0.1)">
       <defs>
        <path id="DejaVuSans-30" d="M 2034 4250 
Q 1547 4250 1301 3770 
Q 1056 3291 1056 2328 
Q 1056 1369 1301 889 
Q 1547 409 2034 409 
Q 2525 409 2770 889 
Q 3016 1369 3016 2328 
Q 3016 3291 2770 3770 
Q 2525 4250 2034 4250 
z
M 2034 4750 
Q 2819 4750 3233 4129 
Q 3647 3509 3647 2328 
Q 3647 1150 3233 529 
Q 2819 -91 2034 -91 
Q 1250 -91 836 529 
Q 422 1150 422 2328 
Q 422 3509 836 4129 
Q 1250 4750 2034 4750 
z
" transform="scale(0.015625)"/>
        <path id="DejaVuSans-2e" d="M 684 794 
L 1344 794 
L 1344 0 
L 684 0 
L 684 794 
z
" transform="scale(0.015625)"/>
        <path id="DejaVuSans-37" d="M 525 4666 
L 3525 4666 
L 3525 4397 
L 1831 0 
L 1172 0 
L 2766 4134 
L 525 4134 
L 525 4666 
z
" transform="scale(0.015625)"/>
       </defs>
       <use xlink:href="#DejaVuSans-30"/>
       <use xlink:href="#DejaVuSans-2e" x="63.623047"/>
       <use xlink:href="#DejaVuSans-37" x="95.410156"/>
      </g>
     </g>
    </g>
    <g id="xtick_2">
     <g id="line2d_3">
      <path d="M 239.840146 512.64 
L 239.840146 69.12 
" clip-path="url(#pb94aabc09b)" style="fill: none; stroke: #b0b0b0; stroke-width: 0.8; stroke-linecap: square"/>
     </g>
     <g id="line2d_4">
      <g>
       <use xlink:href="#m16cd4660a5" x="239.840146" y="512.64" style="stroke: #000000; stroke-width: 0.8"/>
      </g>
     </g>
     <g id="text_2">
      <!-- 0.8 -->
      <g transform="translate(231.888584 527.238438) scale(0.1 -0.1)">
       <defs>
        <path id="DejaVuSans-38" d="M 2034 2216 
Q 1584 2216 1326 1975 
Q 1069 1734 1069 1313 
Q 1069 891 1326 650 
Q 1584 409 2034 409 
Q 2484 409 2743 651 
Q 3003 894 3003 1313 
Q 3003 1734 2745 1975 
Q 2488 2216 2034 2216 
z
M 1403 2484 
Q 997 2584 770 2862 
Q 544 3141 544 3541 
Q 544 4100 942 4425 
Q 1341 4750 2034 4750 
Q 2731 4750 3128 4425 
Q 3525 4100 3525 3541 
Q 3525 3141 3298 2862 
Q 3072 2584 2669 2484 
Q 3125 2378 3379 2068 
Q 3634 1759 3634 1313 
Q 3634 634 3220 271 
Q 2806 -91 2034 -91 
Q 1263 -91 848 271 
Q 434 634 434 1313 
Q 434 1759 690 2068 
Q 947 2378 1403 2484 
z
M 1172 3481 
Q 1172 3119 1398 2916 
Q 1625 2713 2034 2713 
Q 2441 2713 2670 2916 
Q 2900 3119 2900 3481 
Q 2900 3844 2670 4047 
Q 2441 4250 2034 4250 
Q 1625 4250 1398 4047 
Q 1172 3844 1172 3481 
z
" transform="scale(0.015625)"/>
       </defs>
       <use xlink:href="#DejaVuSans-30"/>
       <use xlink:href="#DejaVuSans-2e" x="63.623047"/>
       <use xlink:href="#DejaVuSans-38" x="95.410156"/>
      </g>
     </g>
    </g>
    <g id="xtick_3">
     <g id="line2d_5">
      <path d="M 341.345438 512.64 
L 341.345438 69.12 
" clip-path="url(#pb94aabc09b)" style="fill: none; stroke: #b0b0b0; stroke-width: 0.8; stroke-linecap: square"/>
     </g>
     <g id="line2d_6">
      <g>
       <use xlink:href="#m16cd4660a5" x="341.345438" y="512.64" style="stroke: #000000; stroke-width: 0.8"/>
      </g>
     </g>
     <g id="text_3">
      <!-- 0.9 -->
      <g transform="translate(333.393876 527.238438) scale(0.1 -0.1)">
       <defs>
        <path id="DejaVuSans-39" d="M 703 97 
L 703 672 
Q 941 559 1184 500 
Q 1428 441 1663 441 
Q 2288 441 2617 861 
Q 2947 1281 2994 2138 
Q 2813 1869 2534 1725 
Q 2256 1581 1919 1581 
Q 1219 1581 811 2004 
Q 403 2428 403 3163 
Q 403 3881 828 4315 
Q 1253 4750 1959 4750 
Q 2769 4750 3195 4129 
Q 3622 3509 3622 2328 
Q 3622 1225 3098 567 
Q 2575 -91 1691 -91 
Q 1453 -91 1209 -44 
Q 966 3 703 97 
z
M 1959 2075 
Q 2384 2075 2632 2365 
Q 2881 2656 2881 3163 
Q 2881 3666 2632 3958 
Q 2384 4250 1959 4250 
Q 1534 4250 1286 3958 
Q 1038 3666 1038 3163 
Q 1038 2656 1286 2365 
Q 1534 2075 1959 2075 
z
" transform="scale(0.015625)"/>
       </defs>
       <use xlink:href="#DejaVuSans-30"/>
       <use xlink:href="#DejaVuSans-2e" x="63.623047"/>
       <use xlink:href="#DejaVuSans-39" x="95.410156"/>
      </g>
     </g>
    </g>
    <g id="xtick_4">
     <g id="line2d_7">
      <path d="M 442.850731 512.64 
L 442.850731 69.12 
" clip-path="url(#pb94aabc09b)" style="fill: none; stroke: #b0b0b0; stroke-width: 0.8; stroke-linecap: square"/>
     </g>
     <g id="line2d_8">
      <g>
       <use xlink:href="#m16cd4660a5" x="442.850731" y="512.64" style="stroke: #000000; stroke-width: 0.8"/>
      </g>
     </g>
     <g id="text_4">
      <!-- 1.0 -->
      <g transform="translate(434.899168 527.238438) scale(0.1 -0.1)">
       <defs>
        <path id="DejaVuSans-31" d="M 794 531 
L 1825 531 
L 1825 4091 
L 703 3866 
L 703 4441 
L 1819 4666 
L 2450 4666 
L 2450 531 
L 3481 531 
L 3481 0 
L 794 0 
L 794 531 
z
" transform="scale(0.015625)"/>
       </defs>
       <use xlink:href="#DejaVuSans-31"/>
       <use xlink:href="#DejaVuSans-2e" x="63.623047"/>
       <use xlink:href="#DejaVuSans-30" x="95.410156"/>
      </g>
     </g>
    </g>
    <g id="xtick_5">
     <g id="line2d_9">
      <path d="M 544.356023 512.64 
L 544.356023 69.12 
" clip-path="url(#pb94aabc09b)" style="fill: none; stroke: #b0b0b0; stroke-width: 0.8; stroke-linecap: square"/>
     </g>
     <g id="line2d_10">
      <g>
       <use xlink:href="#m16cd4660a5" x="544.356023" y="512.64" style="stroke: #000000; stroke-width: 0.8"/>
      </g>
     </g>
     <g id="text_5">
      <!-- 1.1 -->
      <g transform="translate(536.404461 527.238438) scale(0.1 -0.1)">
       <use xlink:href="#DejaVuSans-31"/>
       <use xlink:href="#DejaVuSans-2e" x="63.623047"/>
       <use xlink:href="#DejaVuSans-31" x="95.410156"/>
      </g>
     </g>
    </g>
    <g id="xtick_6">
     <g id="line2d_11">
      <path d="M 645.861316 512.64 
L 645.861316 69.12 
" clip-path="url(#pb94aabc09b)" style="fill: none; stroke: #b0b0b0; stroke-width: 0.8; stroke-linecap: square"/>
     </g>
     <g id="line2d_12">
      <g>
       <use xlink:href="#m16cd4660a5" x="645.861316" y="512.64" style="stroke: #000000; stroke-width: 0.8"/>
      </g>
     </g>
     <g id="text_6">
      <!-- 1.2 -->
      <g transform="translate(637.909753 527.238438) scale(0.1 -0.1)">
       <defs>
        <path id="DejaVuSans-32" d="M 1228 531 
L 3431 531 
L 3431 0 
L 469 0 
L 469 531 
Q 828 903 1448 1529 
Q 2069 2156 2228 2338 
Q 2531 2678 2651 2914 
Q 2772 3150 2772 3378 
Q 2772 3750 2511 3984 
Q 2250 4219 1831 4219 
Q 1534 4219 1204 4116 
Q 875 4013 500 3803 
L 500 4441 
Q 881 4594 1212 4672 
Q 1544 4750 1819 4750 
Q 2544 4750 2975 4387 
Q 3406 4025 3406 3419 
Q 3406 3131 3298 2873 
Q 3191 2616 2906 2266 
Q 2828 2175 2409 1742 
Q 1991 1309 1228 531 
z
" transform="scale(0.015625)"/>
       </defs>
       <use xlink:href="#DejaVuSans-31"/>
       <use xlink:href="#DejaVuSans-2e" x="63.623047"/>
       <use xlink:href="#DejaVuSans-32" x="95.410156"/>
      </g>
     </g>
    </g>
    <g id="xtick_7">
     <g id="line2d_13">
      <path d="M 747.366608 512.64 
L 747.366608 69.12 
" clip-path="url(#pb94aabc09b)" style="fill: none; stroke: #b0b0b0; stroke-width: 0.8; stroke-linecap: square"/>
     </g>
     <g id="line2d_14">
      <g>
       <use xlink:href="#m16cd4660a5" x="747.366608" y="512.64" style="stroke: #000000; stroke-width: 0.8"/>
      </g>
     </g>
     <g id="text_7">
      <!-- 1.3 -->
      <g transform="translate(739.415046 527.238438) scale(0.1 -0.1)">
       <defs>
        <path id="DejaVuSans-33" d="M 2597 2516 
Q 3050 2419 3304 2112 
Q 3559 1806 3559 1356 
Q 3559 666 3084 287 
Q 2609 -91 1734 -91 
Q 1441 -91 1130 -33 
Q 819 25 488 141 
L 488 750 
Q 750 597 1062 519 
Q 1375 441 1716 441 
Q 2309 441 2620 675 
Q 2931 909 2931 1356 
Q 2931 1769 2642 2001 
Q 2353 2234 1838 2234 
L 1294 2234 
L 1294 2753 
L 1863 2753 
Q 2328 2753 2575 2939 
Q 2822 3125 2822 3475 
Q 2822 3834 2567 4026 
Q 2313 4219 1838 4219 
Q 1578 4219 1281 4162 
Q 984 4106 628 3988 
L 628 4550 
Q 988 4650 1302 4700 
Q 1616 4750 1894 4750 
Q 2613 4750 3031 4423 
Q 3450 4097 3450 3541 
Q 3450 3153 3228 2886 
Q 3006 2619 2597 2516 
z
" transform="scale(0.015625)"/>
       </defs>
       <use xlink:href="#DejaVuSans-31"/>
       <use xlink:href="#DejaVuSans-2e" x="63.623047"/>
       <use xlink:href="#DejaVuSans-33" x="95.410156"/>
      </g>
     </g>
    </g>
    <g id="text_8">
     <!-- Spot/Strike ratio -->
     <g transform="translate(369.829688 546.995312) scale(0.18 -0.18)">
      <defs>
       <path id="DejaVuSans-53" d="M 3425 4513 
L 3425 3897 
Q 3066 4069 2747 4153 
Q 2428 4238 2131 4238 
Q 1616 4238 1336 4038 
Q 1056 3838 1056 3469 
Q 1056 3159 1242 3001 
Q 1428 2844 1947 2747 
L 2328 2669 
Q 3034 2534 3370 2195 
Q 3706 1856 3706 1288 
Q 3706 609 3251 259 
Q 2797 -91 1919 -91 
Q 1588 -91 1214 -16 
Q 841 59 441 206 
L 441 856 
Q 825 641 1194 531 
Q 1563 422 1919 422 
Q 2459 422 2753 634 
Q 3047 847 3047 1241 
Q 3047 1584 2836 1778 
Q 2625 1972 2144 2069 
L 1759 2144 
Q 1053 2284 737 2584 
Q 422 2884 422 3419 
Q 422 4038 858 4394 
Q 1294 4750 2059 4750 
Q 2388 4750 2728 4690 
Q 3069 4631 3425 4513 
z
" transform="scale(0.015625)"/>
       <path id="DejaVuSans-70" d="M 1159 525 
L 1159 -1331 
L 581 -1331 
L 581 3500 
L 1159 3500 
L 1159 2969 
Q 1341 3281 1617 3432 
Q 1894 3584 2278 3584 
Q 2916 3584 3314 3078 
Q 3713 2572 3713 1747 
Q 3713 922 3314 415 
Q 2916 -91 2278 -91 
Q 1894 -91 1617 61 
Q 1341 213 1159 525 
z
M 3116 1747 
Q 3116 2381 2855 2742 
Q 2594 3103 2138 3103 
Q 1681 3103 1420 2742 
Q 1159 2381 1159 1747 
Q 1159 1113 1420 752 
Q 1681 391 2138 391 
Q 2594 391 2855 752 
Q 3116 1113 3116 1747 
z
" transform="scale(0.015625)"/>
       <path id="DejaVuSans-6f" d="M 1959 3097 
Q 1497 3097 1228 2736 
Q 959 2375 959 1747 
Q 959 1119 1226 758 
Q 1494 397 1959 397 
Q 2419 397 2687 759 
Q 2956 1122 2956 1747 
Q 2956 2369 2687 2733 
Q 2419 3097 1959 3097 
z
M 1959 3584 
Q 2709 3584 3137 3096 
Q 3566 2609 3566 1747 
Q 3566 888 3137 398 
Q 2709 -91 1959 -91 
Q 1206 -91 779 398 
Q 353 888 353 1747 
Q 353 2609 779 3096 
Q 1206 3584 1959 3584 
z
" transform="scale(0.015625)"/>
       <path id="DejaVuSans-74" d="M 1172 4494 
L 1172 3500 
L 2356 3500 
L 2356 3053 
L 1172 3053 
L 1172 1153 
Q 1172 725 1289 603 
Q 1406 481 1766 481 
L 2356 481 
L 2356 0 
L 1766 0 
Q 1100 0 847 248 
Q 594 497 594 1153 
L 594 3053 
L 172 3053 
L 172 3500 
L 594 3500 
L 594 4494 
L 1172 4494 
z
" transform="scale(0.015625)"/>
       <path id="DejaVuSans-2f" d="M 1625 4666 
L 2156 4666 
L 531 -594 
L 0 -594 
L 1625 4666 
z
" transform="scale(0.015625)"/>
       <path id="DejaVuSans-72" d="M 2631 2963 
Q 2534 3019 2420 3045 
Q 2306 3072 2169 3072 
Q 1681 3072 1420 2755 
Q 1159 2438 1159 1844 
L 1159 0 
L 581 0 
L 581 3500 
L 1159 3500 
L 1159 2956 
Q 1341 3275 1631 3429 
Q 1922 3584 2338 3584 
Q 2397 3584 2469 3576 
Q 2541 3569 2628 3553 
L 2631 2963 
z
" transform="scale(0.015625)"/>
       <path id="DejaVuSans-69" d="M 603 3500 
L 1178 3500 
L 1178 0 
L 603 0 
L 603 3500 
z
M 603 4863 
L 1178 4863 
L 1178 4134 
L 603 4134 
L 603 4863 
z
" transform="scale(0.015625)"/>
       <path id="DejaVuSans-6b" d="M 581 4863 
L 1159 4863 
L 1159 1991 
L 2875 3500 
L 3609 3500 
L 1753 1863 
L 3688 0 
L 2938 0 
L 1159 1709 
L 1159 0 
L 581 0 
L 581 4863 
z
" transform="scale(0.015625)"/>
       <path id="DejaVuSans-65" d="M 3597 1894 
L 3597 1613 
L 953 1613 
Q 991 1019 1311 708 
Q 1631 397 2203 397 
Q 2534 397 2845 478 
Q 3156 559 3463 722 
L 3463 178 
Q 3153 47 2828 -22 
Q 2503 -91 2169 -91 
Q 1331 -91 842 396 
Q 353 884 353 1716 
Q 353 2575 817 3079 
Q 1281 3584 2069 3584 
Q 2775 3584 3186 3129 
Q 3597 2675 3597 1894 
z
M 3022 2063 
Q 3016 2534 2758 2815 
Q 2500 3097 2075 3097 
Q 1594 3097 1305 2825 
Q 1016 2553 972 2059 
L 3022 2063 
z
" transform="scale(0.015625)"/>
       <path id="DejaVuSans-20" transform="scale(0.015625)"/>
       <path id="DejaVuSans-61" d="M 2194 1759 
Q 1497 1759 1228 1600 
Q 959 1441 959 1056 
Q 959 750 1161 570 
Q 1363 391 1709 391 
Q 2188 391 2477 730 
Q 2766 1069 2766 1631 
L 2766 1759 
L 2194 1759 
z
M 3341 1997 
L 3341 0 
L 2766 0 
L 2766 531 
Q 2569 213 2275 61 
Q 1981 -91 1556 -91 
Q 1019 -91 701 211 
Q 384 513 384 1019 
Q 384 1609 779 1909 
Q 1175 2209 1959 2209 
L 2766 2209 
L 2766 2266 
Q 2766 2663 2505 2880 
Q 2244 3097 1772 3097 
Q 1472 3097 1187 3025 
Q 903 2953 641 2809 
L 641 3341 
Q 956 3463 1253 3523 
Q 1550 3584 1831 3584 
Q 2591 3584 2966 3190 
Q 3341 2797 3341 1997 
z
" transform="scale(0.015625)"/>
      </defs>
      <use xlink:href="#DejaVuSans-53"/>
      <use xlink:href="#DejaVuSans-70" x="63.476562"/>
      <use xlink:href="#DejaVuSans-6f" x="126.953125"/>
      <use xlink:href="#DejaVuSans-74" x="188.134766"/>
      <use xlink:href="#DejaVuSans-2f" x="227.34375"/>
      <use xlink:href="#DejaVuSans-53" x="261.035156"/>
      <use xlink:href="#DejaVuSans-74" x="324.511719"/>
      <use xlink:href="#DejaVuSans-72" x="363.720703"/>
      <use xlink:href="#DejaVuSans-69" x="404.833984"/>
      <use xlink:href="#DejaVuSans-6b" x="432.617188"/>
      <use xlink:href="#DejaVuSans-65" x="486.902344"/>
      <use xlink:href="#DejaVuSans-20" x="548.425781"/>
      <use xlink:href="#DejaVuSans-72" x="580.212891"/>
      <use xlink:href="#DejaVuSans-61" x="621.326172"/>
      <use xlink:href="#DejaVuSans-74" x="682.605469"/>
      <use xlink:href="#DejaVuSans-69" x="721.814453"/>
      <use xlink:href="#DejaVuSans-6f" x="749.597656"/>
     </g>
    </g>
   </g>
   <g id="matplotlib.axis_2">
    <g id="ytick_1">
     <g id="line2d_15">
      <path d="M 108 492.500184 
L 777.6 492.500184 
" clip-path="url(#pb94aabc09b)" style="fill: none; stroke: #b0b0b0; stroke-width: 0.8; stroke-linecap: square"/>
     </g>
     <g id="line2d_16">
      <defs>
       <path id="mf12a047b54" d="M 0 0 
L -3.5 0 
" style="stroke: #000000; stroke-width: 0.8"/>
      </defs>
      <g>
       <use xlink:href="#mf12a047b54" x="108" y="492.500184" style="stroke: #000000; stroke-width: 0.8"/>
      </g>
     </g>
     <g id="text_9">
      <!-- 0.00 -->
      <g transform="translate(78.734375 496.299403) scale(0.1 -0.1)">
       <use xlink:href="#DejaVuSans-30"/>
       <use xlink:href="#DejaVuSans-2e" x="63.623047"/>
       <use xlink:href="#DejaVuSans-30" x="95.410156"/>
       <use xlink:href="#DejaVuSans-30" x="159.033203"/>
      </g>
     </g>
    </g>
    <g id="ytick_2">
     <g id="line2d_17">
      <path d="M 108 409.973246 
L 777.6 409.973246 
" clip-path="url(#pb94aabc09b)" style="fill: none; stroke: #b0b0b0; stroke-width: 0.8; stroke-linecap: square"/>
     </g>
     <g id="line2d_18">
      <g>
       <use xlink:href="#mf12a047b54" x="108" y="409.973246" style="stroke: #000000; stroke-width: 0.8"/>
      </g>
     </g>
     <g id="text_10">
      <!-- 0.01 -->
      <g transform="translate(78.734375 413.772464) scale(0.1 -0.1)">
       <use xlink:href="#DejaVuSans-30"/>
       <use xlink:href="#DejaVuSans-2e" x="63.623047"/>
       <use xlink:href="#DejaVuSans-30" x="95.410156"/>
       <use xlink:href="#DejaVuSans-31" x="159.033203"/>
      </g>
     </g>
    </g>
    <g id="ytick_3">
     <g id="line2d_19">
      <path d="M 108 327.446307 
L 777.6 327.446307 
" clip-path="url(#pb94aabc09b)" style="fill: none; stroke: #b0b0b0; stroke-width: 0.8; stroke-linecap: square"/>
     </g>
     <g id="line2d_20">
      <g>
       <use xlink:href="#mf12a047b54" x="108" y="327.446307" style="stroke: #000000; stroke-width: 0.8"/>
      </g>
     </g>
     <g id="text_11">
      <!-- 0.02 -->
      <g transform="translate(78.734375 331.245526) scale(0.1 -0.1)">
       <use xlink:href="#DejaVuSans-30"/>
       <use xlink:href="#DejaVuSans-2e" x="63.623047"/>
       <use xlink:href="#DejaVuSans-30" x="95.410156"/>
       <use xlink:href="#DejaVuSans-32" x="159.033203"/>
      </g>
     </g>
    </g>
    <g id="ytick_4">
     <g id="line2d_21">
      <path d="M 108 244.919369 
L 777.6 244.919369 
" clip-path="url(#pb94aabc09b)" style="fill: none; stroke: #b0b0b0; stroke-width: 0.8; stroke-linecap: square"/>
     </g>
     <g id="line2d_22">
      <g>
       <use xlink:href="#mf12a047b54" x="108" y="244.919369" style="stroke: #000000; stroke-width: 0.8"/>
      </g>
     </g>
     <g id="text_12">
      <!-- 0.03 -->
      <g transform="translate(78.734375 248.718588) scale(0.1 -0.1)">
       <use xlink:href="#DejaVuSans-30"/>
       <use xlink:href="#DejaVuSans-2e" x="63.623047"/>
       <use xlink:href="#DejaVuSans-30" x="95.410156"/>
       <use xlink:href="#DejaVuSans-33" x="159.033203"/>
      </g>
     </g>
    </g>
    <g id="ytick_5">
     <g id="line2d_23">
      <path d="M 108 162.39243 
L 777.6 162.39243 
" clip-path="url(#pb94aabc09b)" style="fill: none; stroke: #b0b0b0; stroke-width: 0.8; stroke-linecap: square"/>
     </g>
     <g id="line2d_24">
      <g>
       <use xlink:href="#mf12a047b54" x="108" y="162.39243" style="stroke: #000000; stroke-width: 0.8"/>
      </g>
     </g>
     <g id="text_13">
      <!-- 0.04 -->
      <g transform="translate(78.734375 166.191649) scale(0.1 -0.1)">
       <defs>
        <path id="DejaVuSans-34" d="M 2419 4116 
L 825 1625 
L 2419 1625 
L 2419 4116 
z
M 2253 4666 
L 3047 4666 
L 3047 1625 
L 3713 1625 
L 3713 1100 
L 3047 1100 
L 3047 0 
L 2419 0 
L 2419 1100 
L 313 1100 
L 313 1709 
L 2253 4666 
z
" transform="scale(0.015625)"/>
       </defs>
       <use xlink:href="#DejaVuSans-30"/>
       <use xlink:href="#DejaVuSans-2e" x="63.623047"/>
       <use xlink:href="#DejaVuSans-30" x="95.410156"/>
       <use xlink:href="#DejaVuSans-34" x="159.033203"/>
      </g>
     </g>
    </g>
    <g id="ytick_6">
     <g id="line2d_25">
      <path d="M 108 79.865492 
L 777.6 79.865492 
" clip-path="url(#pb94aabc09b)" style="fill: none; stroke: #b0b0b0; stroke-width: 0.8; stroke-linecap: square"/>
     </g>
     <g id="line2d_26">
      <g>
       <use xlink:href="#mf12a047b54" x="108" y="79.865492" style="stroke: #000000; stroke-width: 0.8"/>
      </g>
     </g>
     <g id="text_14">
      <!-- 0.05 -->
      <g transform="translate(78.734375 83.664711) scale(0.1 -0.1)">
       <defs>
        <path id="DejaVuSans-35" d="M 691 4666 
L 3169 4666 
L 3169 4134 
L 1269 4134 
L 1269 2991 
Q 1406 3038 1543 3061 
Q 1681 3084 1819 3084 
Q 2600 3084 3056 2656 
Q 3513 2228 3513 1497 
Q 3513 744 3044 326 
Q 2575 -91 1722 -91 
Q 1428 -91 1123 -41 
Q 819 9 494 109 
L 494 744 
Q 775 591 1075 516 
Q 1375 441 1709 441 
Q 2250 441 2565 725 
Q 2881 1009 2881 1497 
Q 2881 1984 2565 2268 
Q 2250 2553 1709 2553 
Q 1456 2553 1204 2497 
Q 953 2441 691 2322 
L 691 4666 
z
" transform="scale(0.015625)"/>
       </defs>
       <use xlink:href="#DejaVuSans-30"/>
       <use xlink:href="#DejaVuSans-2e" x="63.623047"/>
       <use xlink:href="#DejaVuSans-30" x="95.410156"/>
       <use xlink:href="#DejaVuSans-35" x="159.033203"/>
      </g>
     </g>
    </g>
    <g id="text_15">
     <!-- Price/strike ratio -->
     <g transform="translate(70.990938 364.318594) rotate(-90) scale(0.18 -0.18)">
      <defs>
       <path id="DejaVuSans-50" d="M 1259 4147 
L 1259 2394 
L 2053 2394 
Q 2494 2394 2734 2622 
Q 2975 2850 2975 3272 
Q 2975 3691 2734 3919 
Q 2494 4147 2053 4147 
L 1259 4147 
z
M 628 4666 
L 2053 4666 
Q 2838 4666 3239 4311 
Q 3641 3956 3641 3272 
Q 3641 2581 3239 2228 
Q 2838 1875 2053 1875 
L 1259 1875 
L 1259 0 
L 628 0 
L 628 4666 
z
" transform="scale(0.015625)"/>
       <path id="DejaVuSans-63" d="M 3122 3366 
L 3122 2828 
Q 2878 2963 2633 3030 
Q 2388 3097 2138 3097 
Q 1578 3097 1268 2742 
Q 959 2388 959 1747 
Q 959 1106 1268 751 
Q 1578 397 2138 397 
Q 2388 397 2633 464 
Q 2878 531 3122 666 
L 3122 134 
Q 2881 22 2623 -34 
Q 2366 -91 2075 -91 
Q 1284 -91 818 406 
Q 353 903 353 1747 
Q 353 2603 823 3093 
Q 1294 3584 2113 3584 
Q 2378 3584 2631 3529 
Q 2884 3475 3122 3366 
z
" transform="scale(0.015625)"/>
       <path id="DejaVuSans-73" d="M 2834 3397 
L 2834 2853 
Q 2591 2978 2328 3040 
Q 2066 3103 1784 3103 
Q 1356 3103 1142 2972 
Q 928 2841 928 2578 
Q 928 2378 1081 2264 
Q 1234 2150 1697 2047 
L 1894 2003 
Q 2506 1872 2764 1633 
Q 3022 1394 3022 966 
Q 3022 478 2636 193 
Q 2250 -91 1575 -91 
Q 1294 -91 989 -36 
Q 684 19 347 128 
L 347 722 
Q 666 556 975 473 
Q 1284 391 1588 391 
Q 1994 391 2212 530 
Q 2431 669 2431 922 
Q 2431 1156 2273 1281 
Q 2116 1406 1581 1522 
L 1381 1569 
Q 847 1681 609 1914 
Q 372 2147 372 2553 
Q 372 3047 722 3315 
Q 1072 3584 1716 3584 
Q 2034 3584 2315 3537 
Q 2597 3491 2834 3397 
z
" transform="scale(0.015625)"/>
      </defs>
      <use xlink:href="#DejaVuSans-50"/>
      <use xlink:href="#DejaVuSans-72" x="58.552734"/>
      <use xlink:href="#DejaVuSans-69" x="99.666016"/>
      <use xlink:href="#DejaVuSans-63" x="127.449219"/>
      <use xlink:href="#DejaVuSans-65" x="182.429688"/>
      <use xlink:href="#DejaVuSans-2f" x="243.953125"/>
      <use xlink:href="#DejaVuSans-73" x="277.644531"/>
      <use xlink:href="#DejaVuSans-74" x="329.744141"/>
      <use xlink:href="#DejaVuSans-72" x="368.953125"/>
      <use xlink:href="#DejaVuSans-69" x="410.066406"/>
      <use xlink:href="#DejaVuSans-6b" x="437.849609"/>
      <use xlink:href="#DejaVuSans-65" x="492.134766"/>
      <use xlink:href="#DejaVuSans-20" x="553.658203"/>
      <use xlink:href="#DejaVuSans-72" x="585.445312"/>
      <use xlink:href="#DejaVuSans-61" x="626.558594"/>
      <use xlink:href="#DejaVuSans-74" x="687.837891"/>
      <use xlink:href="#DejaVuSans-69" x="727.046875"/>
      <use xlink:href="#DejaVuSans-6f" x="754.830078"/>
     </g>
    </g>
   </g>
   <g id="line2d_27">
    <path d="M 138.436364 491.674915 
L 252.934336 491.674915 
L 253.137319 490.849645 
L 253.746392 491.674915 
L 253.746392 491.674915 
L 258.415623 491.674915 
L 258.821651 490.849645 
L 259.126157 490.849645 
L 259.633708 491.674915 
L 259.633708 490.849645 
L 259.836691 491.674915 
L 259.938213 490.849645 
L 260.141197 491.674915 
L 260.445703 490.849645 
L 263.490883 490.849645 
L 264.099895 491.674915 
L 264.404401 490.849645 
L 264.505923 490.024375 
L 265.419501 490.849645 
L 265.825529 490.849645 
L 265.926991 490.024375 
L 266.028513 490.849645 
L 266.130035 490.024375 
L 266.231497 490.849645 
L 267.754087 490.849645 
L 267.957131 490.024375 
L 269.073693 490.024375 
L 269.378199 490.849645 
L 270.088733 490.849645 
L 270.088733 490.849645 
L 270.799267 489.199107 
L 271.205295 490.024375 
L 271.712785 490.024375 
L 272.017351 490.849645 
L 272.017351 490.024375 
L 272.423319 490.024375 
L 272.423319 490.849645 
L 272.524841 490.024375 
L 273.438419 490.024375 
L 273.742925 490.849645 
L 274.960949 490.024375 
L 275.163993 490.024375 
L 275.570021 488.373837 
L 275.976049 490.024375 
L 276.889567 490.024375 
L 276.991089 489.199107 
L 277.600101 490.024375 
L 277.600101 489.199107 
L 277.701623 490.024375 
L 277.803145 490.024375 
L 277.904606 489.199107 
L 278.209173 489.199107 
L 278.209173 489.199107 
L 278.310635 490.024375 
L 279.021168 489.199107 
L 279.325735 489.199107 
L 279.528719 490.024375 
L 279.630241 489.199107 
L 280.036269 489.199107 
L 280.036269 488.373837 
L 280.442236 489.199107 
L 280.848264 489.199107 
L 280.949787 490.024375 
L 281.558798 490.024375 
L 281.558798 489.199107 
L 281.863365 489.199107 
L 282.167871 488.373837 
L 283.182911 488.373837 
L 283.182911 488.373837 
L 283.588939 489.199107 
L 283.791922 488.373837 
L 283.791922 489.199107 
L 283.893444 489.199107 
L 283.994967 489.199107 
L 284.299473 488.373837 
L 285.72054 488.373837 
L 286.431074 489.199107 
L 286.634058 487.548568 
L 286.73558 488.373837 
L 286.73558 488.373837 
L 287.040086 487.548568 
L 287.24313 487.548568 
L 287.446114 488.373837 
L 287.547636 487.548568 
L 287.649158 488.373837 
L 287.75062 487.548568 
L 288.664198 487.548568 
L 288.76572 486.723298 
L 288.76572 487.548568 
L 289.070226 487.548568 
L 289.27321 488.373837 
L 289.27321 487.548568 
L 289.577716 488.373837 
L 289.679238 487.548568 
L 290.491294 486.723298 
L 290.7958 487.548568 
L 291.201828 486.723298 
L 292.724418 486.723298 
L 292.927402 487.548568 
L 292.927402 487.548568 
L 293.33343 487.548568 
L 293.536474 486.723298 
L 294.551514 486.723298 
L 294.652976 485.072761 
L 294.754498 485.898026 
L 295.160526 485.898026 
L 295.160526 486.723298 
L 295.566554 485.898026 
L 295.769538 485.898026 
L 295.87106 486.723298 
L 295.972582 485.898026 
L 296.683116 485.898026 
L 296.8861 485.072761 
L 297.089144 485.072761 
L 297.799678 486.723298 
L 297.799678 485.898026 
L 298.205706 485.898026 
L 298.205706 485.898026 
L 298.611734 484.247488 
L 299.42373 485.898026 
L 299.728296 485.898026 
L 299.728296 483.422217 
L 299.829758 485.898026 
L 300.032802 484.247488 
L 300.43883 485.072761 
L 301.149364 485.072761 
L 301.555392 484.247488 
L 302.062882 484.247488 
L 302.265926 483.422217 
L 302.265926 484.247488 
L 302.367388 484.247488 
L 303.077922 485.072761 
L 303.382488 483.422217 
L 303.9915 484.247488 
L 304.093022 483.422217 
L 304.296006 485.072761 
L 304.702034 484.247488 
L 304.803556 483.422217 
L 304.803556 483.422217 
L 305.00654 484.247488 
L 305.00654 484.247488 
L 305.209584 484.247488 
L 305.311046 481.771688 
L 305.818596 484.247488 
L 306.02158 484.247488 
L 306.427608 481.771688 
L 306.732113 482.596947 
L 306.935158 481.771688 
L 307.54417 482.596947 
L 307.54417 483.422217 
L 307.747214 483.422217 
L 308.05172 481.771688 
L 308.356226 481.771688 
L 308.660732 484.247488 
L 309.168282 484.247488 
L 309.980277 481.771688 
L 310.690811 483.422217 
L 310.995378 480.946418 
L 311.705912 479.295875 
L 311.908895 481.771688 
L 312.314923 480.121139 
L 312.822474 480.121139 
L 313.228502 481.771688 
L 313.634469 480.121139 
L 314.446525 479.295875 
L 314.852553 481.771688 
L 314.852553 480.121139 
L 315.157059 480.121139 
L 315.969115 478.470601 
L 316.273621 479.295875 
L 316.578127 480.946418 
L 316.578127 476.820068 
L 316.882633 478.470601 
L 316.984155 480.946418 
L 316.984155 479.295875 
L 317.390183 477.64533 
L 317.593227 478.470601 
L 317.694689 477.64533 
L 317.999195 479.295875 
L 318.608267 479.295875 
L 319.115757 477.64533 
L 319.318801 478.470601 
L 319.623307 477.64533 
L 319.623307 477.64533 
L 320.232319 478.470601 
L 320.333841 477.64533 
L 320.435363 478.470601 
L 320.739869 476.820068 
L 321.145897 478.470601 
L 322.363921 476.820068 
L 322.769949 475.994798 
L 323.175977 477.64533 
L 323.683527 475.169533 
L 323.988033 475.169533 
L 324.597045 475.994798 
L 324.800089 475.994798 
L 324.901611 476.820068 
L 325.612145 475.994798 
L 326.627185 475.994798 
L 326.830169 471.868452 
L 326.931691 475.169533 
L 327.134675 473.51899 
L 327.236197 474.344258 
L 327.946731 471.868452 
L 327.946731 474.344258 
L 328.758787 473.51899 
L 329.164815 471.868452 
L 329.164815 471.868452 
L 329.469321 472.69372 
L 329.773827 473.51899 
L 330.078333 472.69372 
L 330.078333 472.69372 
L 330.179855 471.868452 
L 330.382839 473.51899 
L 330.382839 472.69372 
L 330.890389 471.04318 
L 330.890389 471.04318 
L 331.296417 471.04318 
L 331.397939 471.868452 
L 331.803967 471.868452 
L 332.311457 471.04318 
L 332.514501 470.217901 
L 334.341597 468.567366 
L 334.646103 468.567366 
L 334.849087 467.742104 
L 334.849087 468.567366 
L 335.55962 466.916827 
L 336.270154 468.567366 
L 336.676182 465.266295 
L 338.198773 466.916827 
L 338.401756 467.742104 
L 338.807784 467.742104 
L 338.909306 464.44103 
L 338.909306 465.266295 
L 339.721363 464.44103 
L 340.127391 465.266295 
L 340.736402 464.44103 
L 340.939447 461.965215 
L 341.954487 464.44103 
L 341.954487 461.139939 
L 342.055948 461.965215 
L 342.360515 463.615747 
L 342.461976 461.965215 
L 342.969526 463.615747 
L 343.17251 461.139939 
L 343.375554 462.790491 
L 343.68006 462.790491 
L 343.68006 461.965215 
L 343.883044 463.615747 
L 343.984566 461.965215 
L 344.492116 460.314677 
L 344.593578 461.965215 
L 344.898144 459.489392 
L 344.898144 461.139939 
L 344.898144 460.314677 
L 345.405634 461.139939 
L 345.608678 460.314677 
L 345.71014 458.664128 
L 346.014706 460.314677 
L 346.319212 458.664128 
L 346.72524 460.314677 
L 346.928224 456.188316 
L 347.131268 457.013611 
L 347.841802 457.838863 
L 347.841802 457.013611 
L 348.958364 458.664128 
L 349.77036 456.188316 
L 349.973404 454.53778 
L 349.973404 455.363063 
L 350.988444 452.887236 
L 351.191428 454.53778 
L 351.191428 450.411452 
L 352.714018 453.712504 
L 353.526074 451.2367 
L 353.526074 453.712504 
L 353.83058 452.887236 
L 354.033624 451.2367 
L 354.642636 451.2367 
L 355.454692 449.586199 
L 355.86072 447.93564 
L 356.063704 450.411452 
L 356.063704 447.110349 
L 356.36821 448.7609 
L 357.078744 448.7609 
L 357.281788 447.93564 
L 357.484772 449.586199 
L 357.789278 445.459817 
L 357.8908 446.285116 
L 357.8908 446.285116 
L 357.992322 448.7609 
L 358.195306 446.285116 
L 358.601334 443.809292 
L 358.804378 448.7609 
L 358.804378 444.634572 
L 359.616374 445.459817 
L 359.717896 442.984001 
L 360.326908 442.158741 
L 360.326908 444.634572 
L 360.631474 442.984001 
L 360.93598 442.984001 
L 361.037442 444.634572 
L 361.646514 440.508201 
L 362.052542 445.459817 
L 362.154004 439.682949 
L 362.255526 446.285116 
L 362.357048 441.333492 
L 362.864537 437.207129 
L 363.169104 437.207129 
L 364.082622 435.556574 
L 364.082622 439.682949 
L 364.082622 438.032382 
L 364.793156 437.207129 
L 364.9962 438.8577 
L 365.503689 435.556574 
L 365.706734 436.38185 
L 365.909718 436.38185 
L 365.909718 436.38185 
L 366.417268 433.906054 
L 367.736813 433.080766 
L 368.954898 431.430277 
L 369.969937 430.604951 
L 370.375965 427.303921 
L 370.578949 428.129197 
L 370.984977 426.478638 
L 371.086499 429.779721 
L 371.289483 425.653362 
L 371.695511 428.954457 
L 371.695511 427.303921 
L 371.797033 427.303921 
L 371.898556 428.129197 
L 372.406045 426.478638 
L 372.710551 427.303921 
L 372.710551 422.35226 
L 372.812073 425.653362 
L 373.421085 419.876479 
L 373.827113 424.002849 
L 374.334663 424.828102 
L 374.639169 419.876479 
L 374.842213 419.876479 
L 375.045197 422.35226 
L 375.755731 421.527007 
L 375.755731 423.177581 
L 375.857253 419.051172 
L 375.958715 417.400682 
L 376.263281 416.575407 
L 376.364743 423.177581 
L 376.770771 420.701762 
L 376.770771 424.002849 
L 376.770771 419.051172 
L 377.785811 419.876479 
L 378.293361 413.274327 
L 379.612907 414.099603 
L 379.714429 410.798477 
L 380.120457 410.798477 
L 380.729469 409.147956 
L 380.932513 410.798477 
L 380.932513 413.274327 
L 381.643047 408.322681 
L 381.744569 408.322681 
L 382.252059 414.099603 
L 383.368621 409.147956 
L 383.876171 407.49742 
L 384.383661 404.196387 
L 384.485183 404.196387 
L 384.891211 406.672168 
L 385.094195 398.419488 
L 385.094195 401.720552 
L 385.500223 399.244702 
L 385.500223 401.720552 
L 385.601745 401.720552 
L 386.210757 395.118355 
L 386.312279 403.37105 
L 386.312279 399.244702 
L 386.819829 404.196387 
L 387.225857 401.720552 
L 387.428841 397.59422 
L 387.428841 400.069993 
L 387.428841 394.293156 
L 387.631825 392.642597 
L 387.733347 397.59422 
L 388.646925 395.943707 
L 389.560443 391.817344 
L 390.677005 395.118355 
L 391.083033 390.992069 
L 391.286016 386.040414 
L 391.692044 384.389894 
L 391.895089 388.51628 
L 392.199595 388.51628 
L 392.808606 381.914121 
L 393.417679 381.914121 
L 393.51914 388.51628 
L 393.823646 380.263569 
L 394.026691 386.040414 
L 395.04173 378.61301 
L 395.04173 380.263569 
L 395.143253 378.61301 
L 395.244775 380.263569 
L 395.549281 381.088768 
L 395.650742 376.137206 
L 395.752264 377.787742 
L 396.158292 373.66141 
L 396.767304 376.137206 
L 397.173332 375.311985 
L 397.173332 375.311985 
L 397.57936 372.836088 
L 397.57936 369.535055 
L 398.289894 373.66141 
L 398.695922 367.884542 
L 399.507978 368.709771 
L 399.609501 370.360307 
L 399.710962 362.107597 
L 400.11699 367.884542 
L 400.11699 371.185583 
L 400.320034 363.758148 
L 400.421496 367.059205 
L 400.726063 365.408677 
L 400.827524 357.981318 
L 401.233552 363.758148 
L 401.944086 362.107597 
L 402.045608 360.457015 
L 402.045608 361.282406 
L 403.466676 358.806479 
L 404.17721 353.854902 
L 404.380254 357.155958 
L 404.786222 350.553891 
L 404.887744 354.680139 
L 405.395294 358.806479 
L 405.902784 348.903278 
L 405.902784 353.854902 
L 406.004306 347.252712 
L 406.511856 352.204412 
L 406.71484 343.951701 
L 406.71484 348.903278 
L 407.120868 349.728577 
L 407.323852 344.777015 
L 408.338952 343.126464 
L 408.74498 343.126464 
L 409.353992 345.602237 
L 409.861482 334.873738 
L 410.064526 339.825331 
L 410.369032 337.349465 
L 410.77506 338.174672 
L 411.384072 327.446403 
L 412.602156 330.747475 
L 412.703678 338.174672 
L 413.515674 325.795806 
L 413.921702 331.572789 
L 414.124746 322.494565 
L 414.226268 331.572789 
L 414.429252 321.669266 
L 414.530774 325.795806 
L 415.038264 327.446403 
L 415.139786 319.193739 
L 415.444292 321.669266 
L 415.748798 322.494565 
L 415.951842 318.368363 
L 416.35787 315.892498 
L 416.35787 315.892498 
L 417.169866 317.543049 
L 417.37291 316.717889 
L 417.37291 319.193739 
L 417.474432 311.766081 
L 417.575894 314.242008 
L 417.880399 313.416617 
L 418.286427 314.242008 
L 418.590994 311.766081 
L 418.692456 315.067307 
L 418.793978 308.46524 
L 418.8955 314.242008 
L 418.8955 307.63991 
L 419.098484 312.591518 
L 419.606034 307.63991 
L 419.606034 304.338715 
L 419.707495 305.989144 
L 420.113523 305.989144 
L 420.41809 304.338715 
L 421.331608 298.561978 
L 421.331608 303.513616 
L 421.43313 302.688164 
L 422.042142 295.260875 
L 422.346647 305.164121 
L 422.346647 301.037735 
L 422.549692 298.561978 
L 423.361687 294.435638 
L 423.564732 291.959803 
L 423.564732 301.037735 
L 423.564732 296.911488 
L 423.767715 297.736433 
L 424.275266 294.435638 
L 424.478249 290.309083 
L 424.478249 295.260875 
L 424.681294 292.785102 
L 425.290305 280.405974 
L 425.290305 284.532468 
L 425.797856 285.357475 
L 426.102361 287.008272 
L 426.812895 282.056526 
L 427.117401 278.755561 
L 427.726413 276.279711 
L 428.132441 277.930032 
L 428.335485 277.930032 
L 428.944497 272.153464 
L 429.147542 272.978609 
L 429.249003 274.629175 
L 429.553509 269.67726 
L 429.756553 274.629175 
L 429.858075 266.37628 
L 430.365565 268.026847 
L 430.771593 264.725744 
L 430.873115 270.502759 
L 430.974637 265.551012 
L 431.076099 266.37628 
L 431.380605 263.900553 
L 431.583649 263.900553 
L 432.497167 263.075408 
L 433.004717 257.298563 
L 433.512267 258.123893 
L 433.613729 256.473018 
L 433.816773 255.64775 
L 434.121279 249.870859 
L 434.933335 251.521503 
L 435.440825 250.696435 
L 435.745331 239.967782 
L 436.151359 244.094337 
L 436.760431 244.094337 
L 436.963415 241.618333 
L 437.673949 242.443371 
L 438.181499 247.310326 
L 438.283021 238.228304 
L 438.993555 241.500585 
L 439.399523 246.435637 
L 439.704089 242.297384 
L 440.008595 254.663999 
L 440.719129 246.382574 
L 440.820651 254.630903 
L 441.023635 257.923966 
L 441.023635 257.098391 
L 441.531185 253.776859 
L 441.531185 255.42761 
L 441.835691 258.716369 
L 441.835691 262.017072 
L 442.546225 259.512738 
L 443.35822 261.13044 
L 443.764309 258.637865 
L 443.967232 266.88249 
L 444.068754 266.053011 
L 444.170277 262.747865 
L 444.373321 271.81782 
L 444.474843 262.735598 
L 444.576365 267.683194 
L 445.286899 276.732489 
L 445.388421 268.475536 
L 445.591344 269.292703 
L 445.692867 280.016867 
L 445.692867 268.463131 
L 446.403401 275.036468 
L 446.403401 276.687219 
L 446.504923 272.556559 
L 447.113935 271.706681 
L 447.113935 275.833052 
L 447.215457 275.003695 
L 447.722946 275.808226 
L 447.824468 279.930523 
L 447.824468 277.45475 
L 448.230557 279.088792 
L 448.535002 277.426036 
L 448.941091 280.710798 
L 449.042613 284.007412 
L 449.042613 280.706356 
L 449.144014 274.100353 
L 450.260637 284.783413 
L 450.565082 291.373352 
L 450.768126 288.88917 
L 450.768126 286.413612 
L 451.072693 293.003244 
L 452.392239 294.600301 
L 452.595283 297.068096 
L 453.102773 297.047252 
L 453.305817 301.165506 
L 453.813306 301.97033 
L 453.914829 298.665153 
L 454.016351 301.136684 
L 454.422318 296.993927 
L 454.726885 306.884876 
L 454.726885 306.059562 
L 454.828407 292.85097 
L 455.944908 301.058549 
L 456.147953 303.526221 
L 456.249475 303.521902 
L 456.249475 308.473679 
L 456.655442 305.981319 
L 457.162932 304.310354 
L 457.264454 313.384152 
L 457.264454 313.384152 
L 457.670543 309.241456 
L 458.279554 310.041898 
L 458.279554 312.517748 
L 458.584 314.981332 
L 459.294534 318.253412 
L 459.294534 316.60283 
L 459.802144 319.058159 
L 460.512678 316.553518 
L 461.527658 317.337712 
L 461.62918 319.809442 
L 461.62918 318.158999 
L 462.136791 324.740652 
L 462.238192 320.609977 
L 463.963826 335.395089 
L 464.16687 332.911 
L 465.384894 332.861687 
L 465.587938 327.901609 
L 466.095428 344.386555 
L 466.19695 336.955085 
L 466.805962 332.80412 
L 467.21205 341.040336 
L 467.516496 335.250886 
L 467.516496 340.202571 
L 467.821062 339.365128 
L 468.023985 336.880901 
L 468.22703 349.251789 
L 468.328552 337.693841 
L 468.531596 338.511054 
L 468.937564 347.572477 
L 469.039086 341.79145 
L 469.343652 345.905493 
L 469.445174 338.474038 
L 470.054186 349.17785 
L 470.054186 345.05148 
L 470.257109 349.169519 
L 470.663198 352.45425 
L 470.663198 342.550988 
L 470.76472 345.022642 
L 471.27221 349.128507 
L 472.084266 347.444998 
L 472.185788 352.392532 
L 472.28731 349.087341 
L 472.490233 355.681184 
L 473.099366 351.530188 
L 473.505334 358.11596 
L 473.8099 352.326772 
L 474.31739 357.257766 
L 474.926402 353.10677 
L 475.027924 363.831188 
L 475.129446 359.70069 
L 475.535413 359.684226 
L 475.535413 368.762189 
L 475.636936 362.981209 
L 475.941502 362.968866 
L 475.941502 359.667763 
L 476.144425 363.785902 
L 476.245947 369.558635 
L 476.550514 360.468359 
L 476.753558 361.285403 
L 477.36257 360.435494 
L 477.667015 363.724138 
L 477.667015 366.199957 
L 477.667015 363.724138 
L 478.580594 366.16298 
L 478.88516 366.150683 
L 478.986561 374.399282 
L 479.189605 368.614113 
L 479.798617 366.938905 
L 480.407629 375.992181 
L 480.813718 375.150496 
L 481.016762 366.064255 
L 481.524251 370.995341 
L 482.234785 385.821397 
L 482.539352 372.604765 
L 482.539352 370.129 
L 482.539352 380.857437 
L 482.742275 381.674474 
L 483.148364 379.182237 
L 483.554331 384.942658 
L 483.96042 377.498783 
L 484.061821 380.795773 
L 484.772476 379.116407 
L 485.279966 380.746437 
L 485.48301 379.912892 
L 485.685933 386.506827 
L 486.701033 384.815179 
L 487.005479 392.230239 
L 487.614612 386.428761 
L 488.325146 390.52624 
L 488.731113 391.33506 
L 489.03568 387.196385 
L 489.03568 395.449064 
L 489.03568 387.196385 
L 489.949137 393.761528 
L 489.949137 392.111031 
L 490.659671 394.558043 
L 490.761193 396.204406 
L 490.862715 392.073969 
L 491.065759 400.318425 
L 491.268804 392.882843 
L 491.573249 393.695775 
L 492.080739 396.976303 
L 492.689871 394.475812 
L 492.791394 399.423292 
L 492.994317 398.589808 
L 493.197361 400.232143 
L 493.501927 398.569202 
L 493.603329 403.516706 
L 493.704851 401.036836 
L 494.516907 398.528082 
L 494.516907 398.528082 
L 494.719951 405.947263 
L 495.024397 404.284422 
L 495.430485 404.267943 
L 496.546987 408.349082 
L 496.546987 400.921616 
L 496.851553 409.987251 
L 497.156119 399.246393 
L 497.359043 405.015068 
L 498.069577 407.462142 
L 498.475665 410.746728 
L 498.577187 404.140449 
L 498.983155 409.900892 
L 499.693689 409.046856 
L 500.099656 411.506227 
L 500.404223 412.319113 
L 501.723768 417.217319 
L 502.231379 413.895665 
L 502.941913 418.818466 
L 504.565904 423.70432 
L 504.667426 416.27272 
L 504.768949 421.22027 
L 505.175037 420.378531 
L 505.175037 421.203814 
L 505.276438 418.72389 
L 505.37796 417.894518 
L 505.37796 423.671379 
L 505.581005 419.536799 
L 505.784049 420.353836 
L 505.784049 422.004395 
L 506.393061 426.106048 
L 507.205117 420.296291 
L 507.40804 424.414392 
L 507.40804 422.763879 
L 507.509562 422.759759 
L 508.321618 426.853211 
L 509.641164 430.10082 
L 509.742686 428.446168 
L 509.94573 427.612695 
L 509.94573 430.088503 
L 510.45322 430.067905 
L 510.859309 426.750397 
L 511.062232 430.043248 
L 511.265276 425.083382 
L 511.265276 430.035028 
L 511.46832 426.725679 
L 511.569843 429.197424 
L 511.874288 432.486153 
L 512.280377 429.993905 
L 512.686344 429.977457 
L 512.787866 429.148089 
L 514.513501 433.20451 
L 515.224035 435.65153 
L 515.325557 433.171591 
L 515.325557 434.822119 
L 516.239014 436.435659 
L 516.340536 432.305192 
L 516.645102 438.06977 
L 517.05107 435.577484 
L 517.05107 433.926952 
L 517.254114 435.569283 
L 517.761604 434.723409 
L 517.761604 433.898175 
L 518.06617 434.711065 
L 518.06617 437.186877 
L 518.370616 437.174587 
L 518.370616 445.427232 
L 518.472138 442.947347 
L 518.979749 440.450953 
L 519.284194 437.137537 
L 519.487238 440.430393 
L 519.487238 439.605121 
L 519.994728 442.885633 
L 520.197772 439.576364 
L 520.60374 437.084074 
L 520.806784 442.027462 
L 521.314274 438.705849 
L 521.61884 442.819819 
L 521.720362 440.339945 
L 521.923406 444.458046 
L 522.12633 442.799301 
L 523.14143 446.884479 
L 523.242952 446.055137 
L 523.64892 446.863942 
L 524.460976 441.879423 
L 524.562498 446.001647 
L 525.17151 446.802228 
L 525.983566 444.293559 
L 526.592578 445.094128 
L 526.795622 450.037512 
L 527.20159 448.370532 
L 527.303112 449.191711 
L 527.303112 452.492776 
L 527.404634 448.362324 
L 527.912123 449.167005 
L 528.013646 446.687074 
L 528.419734 450.796977 
L 528.72418 449.134098 
L 528.927224 446.650093 
L 529.028746 449.947026 
L 529.23179 451.589353 
L 529.637758 450.74763 
L 530.551336 446.584286 
L 530.551336 449.885339 
L 530.957304 453.995266 
L 531.058826 450.690055 
L 531.26187 457.28399 
L 532.175448 450.644812 
L 532.479894 451.457774 
L 533.088905 455.559423 
L 533.190428 452.254251 
L 533.494994 451.416612 
L 535.118985 459.603508 
L 535.220507 452.997249 
L 535.423551 456.290124 
L 535.829519 457.098925 
L 536.743097 454.586117 
L 537.453631 458.683677 
L 537.656675 458.675418 
L 538.671776 461.110106 
L 538.874699 461.927162 
L 538.976221 456.971419 
L 539.889799 459.410219 
L 540.092844 459.402014 
L 540.397289 458.564403 
L 540.803378 459.373215 
L 540.803378 458.547955 
L 540.9049 460.194379 
L 541.209345 465.133645 
L 541.310867 460.17792 
L 541.716835 462.637295 
L 542.325968 461.787326 
L 542.528891 460.953842 
L 543.137903 465.880772 
L 543.645513 465.86023 
L 544.660493 463.343277 
L 545.066581 464.152103 
L 545.168104 466.623797 
L 545.371027 463.314486 
L 545.878637 464.944481 
L 546.487649 463.26925 
L 546.893617 463.252795 
L 547.604151 461.573473 
L 548.416207 463.191119 
L 548.416207 464.016389 
L 548.720773 464.004051 
L 548.923818 467.296905 
L 549.025219 466.467512 
L 549.431307 468.926881 
L 549.532829 464.796422 
L 550.243363 464.767636 
L 550.344885 469.715126 
L 550.953897 469.690452 
L 551.664431 466.360591 
L 551.867354 468.002901 
L 552.374965 467.982333 
L 552.476487 470.454048 
L 552.882455 467.961772 
L 553.491467 467.937094 
L 553.796033 467.099498 
L 553.897555 470.396469 
L 554.202001 469.558858 
L 554.202001 469.558858 
L 554.912535 470.355327 
L 555.217101 469.517732 
L 555.521546 467.854851 
L 555.521546 470.330666 
L 555.826113 473.619406 
L 556.638169 470.285417 
L 556.841213 468.626659 
L 556.942735 471.098357 
L 557.450225 472.728331 
L 557.551747 471.07367 
L 557.75467 471.065452 
L 558.363803 468.56497 
L 558.972815 473.49191 
L 559.175738 471.007871 
L 559.27726 473.479576 
L 559.480305 470.995529 
L 559.683349 473.463119 
L 559.683349 473.463119 
L 559.987794 470.149713 
L 560.190839 473.442555 
L 560.393883 469.307995 
L 560.393883 472.609069 
L 560.901373 472.588494 
L 561.814951 474.202016 
L 561.814951 472.551488 
L 562.220918 473.360302 
L 562.627007 470.868043 
L 562.728529 474.990275 
L 563.032974 478.279018 
L 563.946553 474.115659 
L 564.251119 475.753859 
L 564.860131 474.903916 
L 565.36762 475.708618 
L 565.570665 474.875128 
L 565.570665 477.350927 
L 565.773588 478.167987 
L 567.296178 476.455755 
L 567.499222 477.272798 
L 567.803789 473.959379 
L 567.905311 476.431071 
L 568.717246 477.223444 
L 569.021812 473.910034 
L 569.021812 473.910034 
L 569.326379 475.548232 
L 570.036913 476.344714 
L 570.44288 476.328267 
L 570.44288 477.978797 
L 570.544402 477.149416 
L 570.848848 478.78762 
L 570.848848 477.962348 
L 571.254936 477.945895 
L 571.660904 478.754716 
L 571.762426 477.100059 
L 572.270037 478.730039 
L 572.371438 477.075396 
L 572.47296 477.896553 
L 572.777526 477.884207 
L 573.48806 478.68069 
L 573.792506 479.49362 
L 574.097072 481.13182 
L 574.300116 481.123599 
L 574.401639 478.643673 
L 574.50304 479.464836 
L 575.112173 478.614887 
L 576.127152 481.874842 
L 577.142252 478.532637 
L 577.142252 478.532637 
L 578.461798 480.954986 
L 579.679822 480.080367 
L 579.781344 479.250982 
L 579.984388 483.369096 
L 579.984388 483.369096 
L 580.390356 480.876847 
L 580.5934 483.344428 
L 581.811423 480.819263 
L 582.521957 480.790476 
L 582.521957 477.489406 
L 582.62348 484.087438 
L 583.13109 480.765804 
L 583.435536 482.404003 
L 584.65368 481.529381 
L 585.262692 483.155241 
L 585.465615 481.496478 
L 586.074748 481.4718 
L 586.074748 484.772885 
L 586.176149 481.467687 
L 586.176149 481.467687 
L 586.277671 480.638312 
L 586.785282 483.918827 
L 586.886683 482.264172 
L 587.394294 480.593067 
L 588.20635 481.385441 
L 588.612318 483.844799 
L 588.916884 482.181922 
L 588.916884 485.483 
L 589.018406 483.003082 
L 589.119807 485.47477 
L 589.119807 483.824237 
L 589.931863 482.966066 
L 589.931863 483.791334 
L 590.743919 483.758434 
L 591.150008 482.916712 
L 591.352931 486.209565 
L 591.352931 484.559025 
L 591.860542 484.538467 
L 591.962064 486.18489 
L 592.469554 482.037977 
L 592.672598 483.680296 
L 592.977043 482.84269 
L 592.977043 485.318496 
L 593.484533 481.996849 
L 594.601156 484.42742 
L 594.702678 486.073848 
L 594.905601 485.240353 
L 595.717657 485.207454 
L 596.123746 486.01627 
L 596.428191 484.353398 
L 596.631235 485.170443 
L 597.544813 486.783964 
L 598.458392 484.271142 
L 598.559793 485.917573 
L 598.762837 484.258805 
L 598.762837 484.258805 
L 598.965881 485.901117 
L 599.067404 485.07174 
L 599.270327 485.063511 
L 599.371849 487.53521 
L 599.87946 485.038838 
L 600.082383 485.030609 
L 600.894439 486.648252 
L 600.894439 485.82298 
L 601.097483 489.115832 
L 601.40205 487.452958 
L 601.604973 487.444729 
L 603.127563 486.557769 
L 603.127563 484.907233 
L 603.330607 488.200086 
L 603.635174 486.537208 
L 604.142663 488.167187 
L 604.244185 487.337802 
L 605.056242 487.304904 
L 605.259165 488.947214 
L 605.665253 486.454956 
L 605.868177 489.747809 
L 605.969699 486.442617 
L 606.274265 486.430282 
L 606.375787 488.076708 
L 606.375787 487.251438 
L 607.289244 484.738615 
L 607.492289 486.380931 
L 608.405867 489.644993 
L 608.507389 487.165075 
L 609.116401 487.965668 
L 609.826935 489.587416 
L 609.826935 486.286338 
L 610.334425 486.265777 
L 610.842035 485.419946 
L 611.146481 487.883415 
L 611.451047 488.696346 
L 611.451047 488.696346 
L 611.755492 486.208203 
L 611.755492 487.858737 
L 611.755492 487.03347 
L 612.872115 487.813501 
L 613.17656 491.10224 
L 613.582649 486.134175 
L 614.496227 487.747698 
L 614.69915 488.564742 
L 615.105239 486.897754 
L 615.105239 488.548291 
L 615.409684 487.710685 
L 615.409684 491.011763 
L 615.511206 488.531844 
L 615.612729 487.70246 
L 615.612729 487.70246 
L 616.22174 488.503053 
L 616.323263 487.673672 
L 616.323263 489.324209 
L 617.236841 490.112466 
L 617.845853 487.611985 
L 617.947375 490.083677 
L 618.150419 487.599643 
L 618.150419 489.250183 
L 618.353342 489.241959 
L 618.657909 488.404352 
L 619.063876 489.213171 
L 619.368443 489.200831 
L 619.368443 490.026103 
L 619.469965 489.19672 
L 621.195478 488.301536 
L 621.297 485.821617 
L 621.500044 488.289197 
L 622.616546 490.719767 
L 622.616546 490.719767 
L 623.733168 488.19872 
L 623.733168 490.674529 
L 624.037735 489.011652 
L 624.34218 490.649853 
L 624.443702 488.995202 
L 625.052714 488.970528 
L 625.966292 489.758783 
L 626.473782 489.738219 
L 626.778349 488.900613 
L 626.879871 492.197577 
L 627.38736 488.875936 
L 628.402461 491.310618 
L 629.011473 488.810135 
L 629.214396 489.627179 
L 629.518962 488.789571 
L 629.722006 491.257154 
L 630.635464 488.744331 
L 630.838508 490.386646 
L 631.346119 491.191352 
L 631.44752 490.361971 
L 632.259576 490.32907 
L 632.361098 491.150226 
L 632.97011 489.475013 
L 632.97011 489.475013 
L 633.376198 489.458561 
L 633.579122 491.100876 
L 633.680644 489.446223 
L 633.680644 491.096762 
L 634.086732 488.604503 
L 634.4927 488.588054 
L 635.812246 491.010398 
L 636.218334 490.168678 
L 636.319856 490.989835 
L 637.03039 490.961046 
L 637.639402 489.285831 
L 638.451458 491.728739 
L 639.161992 490.049412 
L 639.771004 489.199466 
L 640.278494 490.004174 
L 640.380016 490.825331 
L 640.887505 490.804767 
L 640.887505 490.804767 
L 641.192072 489.967161 
L 642.816184 489.901358 
L 642.816184 490.726629 
L 643.120629 491.674915 
L 643.222152 489.05964 
L 644.034208 491.502546 
L 644.13573 490.673163 
L 645.759842 491.432632 
L 646.571898 492.225 
L 646.673299 490.570348 
L 646.876343 489.736855 
L 646.977866 490.558011 
L 647.891444 489.695728 
L 648.500456 488.845782 
L 648.601978 491.317479 
L 648.906423 489.654603 
L 649.616957 491.276352 
L 650.023046 491.674915 
L 650.124568 489.60525 
L 650.530535 490.414069 
L 651.647158 491.1941 
L 651.74868 492.015257 
L 652.154647 491.173537 
L 652.763659 490.323593 
L 653.068226 491.961793 
L 653.169748 489.481872 
L 653.474193 491.945343 
L 653.880282 491.103623 
L 653.981683 491.674915 
L 654.387771 491.90833 
L 654.793739 490.24134 
L 655.402872 491.867203 
L 655.402872 491.674915 
L 655.707317 491.674915 
L 656.519373 490.996696 
L 657.432951 491.784951 
L 657.737397 491.772613 
L 657.940441 490.939119 
L 658.041963 491.674915 
L 658.245008 490.926781 
L 658.447931 491.674915 
L 658.447931 490.093287 
L 658.955542 491.674915 
L 659.463031 490.052159 
L 660.072043 491.674915 
L 660.072043 490.852754 
L 660.985621 490.81574 
L 661.188666 491.632785 
L 661.290067 490.803403 
L 661.290067 491.628672 
L 661.797677 492.433378 
L 662.406689 491.583434 
L 662.508211 492.40459 
L 662.609733 490.749939 
L 662.812657 492.392252 
L 663.929279 492.347014 
L 664.436769 491.501181 
L 664.436769 492.326451 
L 664.538291 491.674915 
L 664.944259 491.480618 
L 665.756315 491.447717 
L 665.857837 491.674915 
L 665.857837 490.618336 
L 665.959359 491.439492 
L 666.263925 491.674915 
L 666.365326 492.248311 
L 669.004539 492.141383 
L 669.106061 491.312001 
L 669.308984 490.478506 
L 670.222563 488.790955 
L 670.222563 491.266763 
L 671.034619 492.059131 
L 671.136141 492.055018 
L 672.760253 488.688139 
L 673.267743 491.968654 
L 674.181321 491.93164 
L 674.384244 491.098145 
L 674.384244 489.447606 
L 674.485766 491.094033 
L 675.1963 491.065245 
L 675.1963 491.065245 
L 675.703911 491.869951 
L 677.530946 491.674915 
L 677.632468 491.791811 
L 683.215218 491.565618 
L 683.418262 491.674915 
L 683.722829 491.545055 
L 684.33184 490.69511 
L 684.534885 490.686885 
L 684.636286 492.333311 
L 685.143897 491.487479 
L 685.143897 492.312748 
L 685.448342 491.475141 
L 685.752908 491.674915 
L 685.955953 492.279847 
L 686.057354 491.450465 
L 686.158876 492.271622 
L 686.158876 491.674915 
L 686.260398 491.44224 
L 686.260398 491.44224 
L 686.463442 491.674915 
L 686.463442 492.259284 
L 687.072454 491.409339 
L 687.275498 492.226383 
L 687.88451 491.376438 
L 688.290478 491.674915 
L 688.493522 492.177032 
L 690.219156 491.674915 
L 690.828168 491.257172 
L 691.741746 492.045428 
L 692.553802 491.674915 
L 694.786926 491.674915 
L 694.888328 491.917938 
L 695.294416 491.901487 
L 695.49746 491.674915 
L 695.903428 491.876811 
L 695.903428 491.674915 
L 696.106472 491.674915 
L 696.207994 491.864474 
L 696.410918 491.674915 
L 696.51244 491.026867 
L 696.51244 491.674915 
L 696.715484 491.84391 
L 696.918528 491.010416 
L 696.918528 491.835685 
L 697.019929 491.674915 
L 697.324496 491.819235 
L 697.52754 490.16047 
L 697.831985 491.798672 
L 698.03503 491.674915 
L 700.268154 491.674915 
L 700.268154 490.874699 
L 700.369676 491.674915 
L 700.674121 491.683519 
L 701.384655 492.48 
L 701.587699 491.674915 
L 702.501278 491.674915 
L 702.805844 490.771885 
L 702.805844 492.422423 
L 703.211812 491.580704 
L 703.719301 491.674915 
L 703.922346 492.377185 
L 704.12539 492.36896 
L 704.328313 491.674915 
L 704.429835 492.356622 
L 705.343413 490.66907 
L 705.952425 491.469663 
L 706.764481 492.262032 
L 706.967526 491.428537 
L 707.373493 491.412087 
L 707.475015 491.674915 
L 707.982505 492.212681 
L 707.982505 492.212681 
L 708.490116 490.541579 
L 708.490116 491.674915 
L 710.114107 491.674915 
L 710.215629 491.296933 
L 710.215629 491.674915 
L 710.72324 492.10164 
L 710.926163 491.674915 
L 711.027685 492.089302 
L 711.129207 490.434651 
L 711.535296 491.674915 
L 711.738219 491.674915 
L 712.144308 492.044064 
L 713.057765 491.674915 
L 713.159287 492.002937 
L 713.463853 491.674915 
L 713.869821 491.674915 
L 714.174387 491.961811 
L 714.275909 491.674915 
L 714.377432 491.953586 
L 714.580355 491.674915 
L 716.813479 491.674915 
L 716.813479 491.674915 
L 717.219567 491.838433 
L 717.625535 491.674915 
L 717.625535 491.674915 
L 718.234547 490.146768 
L 718.336069 491.793194 
L 718.539113 491.674915 
L 718.539113 491.674915 
L 722.294827 491.674915 
L 722.294827 492.458072 
L 722.700795 492.441622 
L 723.005361 491.674915 
L 723.614373 491.674915 
L 723.817417 492.396383 
L 724.324907 492.37582 
L 724.426429 491.674915 
L 726.761075 491.674915 
L 726.862597 492.273005 
L 727.065521 491.674915 
L 727.268565 492.256554 
L 727.370087 491.427172 
L 727.471609 492.248329 
L 728.182143 491.674915 
L 728.994199 491.674915 
L 729.0956 492.182527 
L 729.907656 492.149627 
L 730.212223 491.31202 
L 730.516789 491.674915 
L 730.61819 491.295569 
L 730.922757 491.674915 
L 732.242302 491.674915 
L 732.546869 492.042699 
L 732.749792 491.209205 
L 733.155881 492.018023 
L 733.358925 492.009798 
L 733.358925 491.674915 
L 733.66337 491.674915 
L 733.866415 491.989235 
L 733.967937 491.985122 
L 733.967937 491.674915 
L 734.069459 491.981009 
L 734.678471 491.674915 
L 734.982916 491.118727 
L 735.18596 491.674915 
L 735.69345 491.674915 
L 735.896494 491.081713 
L 735.998016 491.674915 
L 735.998016 491.674915 
L 736.302583 491.890533 
L 736.70855 491.674915 
L 737.520606 491.841181 
L 737.926574 491.674915 
L 739.75373 491.750704 
L 740.26122 490.904871 
L 740.26122 490.904871 
L 740.362742 491.674915 
L 740.565787 491.717803 
L 741.479244 491.674915 
L 741.580766 490.026138 
L 741.78381 491.674915 
L 742.697388 490.806168 
L 742.900433 492.448482 
L 743.204878 491.610875 
L 743.204878 492.436144 
L 743.3064 490.781493 
L 743.712368 491.674915 
L 745.032035 491.536848 
L 745.945492 491.674915 
L 747.163636 491.674915 
L 747.163636 491.674915 
" clip-path="url(#pb94aabc09b)" style="fill: none; stroke: #1f77b4; stroke-width: 2; stroke-linecap: square"/>
   </g>
   <g id="line2d_28">
    <path d="M 138.436364 491.768532 
L 179.647514 491.456035 
L 179.647514 491.456035 
L 214.463799 490.968988 
L 214.463799 490.968988 
L 242.47931 490.36221 
L 262.069815 489.725648 
L 275.976049 489.0629 
L 287.040086 488.317127 
L 295.972582 487.495105 
L 303.382488 486.59836 
L 309.980277 485.576285 
L 315.969115 484.409107 
L 321.145897 483.166384 
L 325.612145 481.879087 
L 330.281377 480.27504 
L 332.514501 479.399494 
L 336.676182 477.551478 
L 340.939447 475.323167 
L 343.984566 473.49162 
L 347.131268 471.36004 
L 349.973404 469.202051 
L 349.973404 469.202051 
L 352.714018 466.889192 
L 356.063704 463.719576 
L 356.063704 463.719576 
L 358.804378 460.816539 
L 358.804378 460.816539 
L 361.646514 457.481587 
L 364.082622 454.336716 
L 364.082622 454.336716 
L 366.417268 451.054609 
L 368.954898 447.166541 
L 371.898556 442.204761 
L 374.842213 436.717309 
L 376.770771 432.815883 
L 376.770771 432.815883 
L 379.714429 426.359399 
L 379.714429 426.359399 
L 382.252059 420.274394 
L 385.500223 411.730226 
L 385.500223 411.730226 
L 387.733347 405.330629 
L 387.733347 405.330629 
L 390.880049 395.53344 
L 393.51914 386.568268 
L 393.51914 386.568268 
L 396.158292 376.874809 
L 398.695922 366.825707 
L 401.233552 356.021455 
L 404.380254 341.511791 
L 407.323852 326.753594 
L 410.369032 310.20258 
L 413.414212 292.265595 
L 415.951842 276.198025 
L 418.8955 256.212189 
L 418.8955 256.212189 
L 421.839158 234.702957 
L 424.681294 212.410315 
L 427.726413 186.77565 
L 430.974637 157.33212 
L 434.121279 126.63766 
L 437.673949 89.28 
L 438.181499 175.038666 
L 440.719129 196.136025 
L 442.546225 210.188223 
L 445.388421 230.350913 
L 447.824468 246.154317 
L 447.824468 246.154317 
L 450.565082 262.485206 
L 453.305817 277.448202 
L 456.249475 292.168952 
L 456.249475 292.168952 
L 458.584 302.953343 
L 461.62918 315.966928 
L 461.62918 315.966928 
L 464.16687 325.991551 
L 467.516496 338.21058 
L 467.516496 338.21058 
L 470.663198 348.753511 
L 470.663198 348.753511 
L 473.505334 357.584587 
L 473.505334 357.584587 
L 476.753558 366.959503 
L 479.798617 375.124756 
L 483.148364 383.48357 
L 486.701033 391.709849 
L 489.949137 398.713943 
L 489.949137 398.713943 
L 493.704851 406.258481 
L 497.359043 413.082487 
L 500.404223 418.41331 
L 504.667426 425.377853 
L 508.321618 430.918248 
L 512.787866 437.191258 
L 517.05107 442.699953 
L 517.05107 442.699953 
L 520.806784 447.186858 
L 524.562498 451.347128 
L 528.72418 455.591892 
L 532.479894 459.106741 
L 535.829519 461.998977 
L 540.092844 465.363646 
L 543.645513 467.909204 
L 547.604151 470.48363 
L 551.867354 472.965855 
L 555.826113 475.019673 
L 560.393883 477.113081 
L 560.393883 477.113081 
L 564.860131 478.899366 
L 569.326379 480.454387 
L 574.50304 482.000966 
L 579.984388 483.378983 
L 579.984388 483.378983 
L 585.465615 484.530247 
L 591.962064 485.651408 
L 599.067404 486.633925 
L 606.375787 487.436816 
L 606.375787 487.436816 
L 615.612729 488.225143 
L 615.612729 488.225143 
L 626.879871 488.943424 
L 640.887505 489.593263 
L 640.887505 489.593263 
L 658.955542 490.197978 
L 685.448342 490.8436 
L 721.178205 491.484925 
L 747.163636 491.819873 
L 747.163636 491.819873 
" clip-path="url(#pb94aabc09b)" style="fill: none; stroke: #ff7f0e; stroke-width: 2; stroke-linecap: square"/>
   </g>
   <g id="patch_3">
    <path d="M 108 512.64 
L 108 69.12 
" style="fill: none; stroke: #000000; stroke-width: 0.8; stroke-linejoin: miter; stroke-linecap: square"/>
   </g>
   <g id="patch_4">
    <path d="M 777.6 512.64 
L 777.6 69.12 
" style="fill: none; stroke: #000000; stroke-width: 0.8; stroke-linejoin: miter; stroke-linecap: square"/>
   </g>
   <g id="patch_5">
    <path d="M 108 512.64 
L 777.6 512.64 
" style="fill: none; stroke: #000000; stroke-width: 0.8; stroke-linejoin: miter; stroke-linecap: square"/>
   </g>
   <g id="patch_6">
    <path d="M 108 69.12 
L 777.6 69.12 
" style="fill: none; stroke: #000000; stroke-width: 0.8; stroke-linejoin: miter; stroke-linecap: square"/>
   </g>
   <g id="text_16">
    <!-- Price by Spot/Strike ratio. Moneyness=1.1 -->
    <g transform="translate(232.173438 63.12) scale(0.2 -0.2)">
     <defs>
      <path id="DejaVuSans-62" d="M 3116 1747 
Q 3116 2381 2855 2742 
Q 2594 3103 2138 3103 
Q 1681 3103 1420 2742 
Q 1159 2381 1159 1747 
Q 1159 1113 1420 752 
Q 1681 391 2138 391 
Q 2594 391 2855 752 
Q 3116 1113 3116 1747 
z
M 1159 2969 
Q 1341 3281 1617 3432 
Q 1894 3584 2278 3584 
Q 2916 3584 3314 3078 
Q 3713 2572 3713 1747 
Q 3713 922 3314 415 
Q 2916 -91 2278 -91 
Q 1894 -91 1617 61 
Q 1341 213 1159 525 
L 1159 0 
L 581 0 
L 581 4863 
L 1159 4863 
L 1159 2969 
z
" transform="scale(0.015625)"/>
      <path id="DejaVuSans-79" d="M 2059 -325 
Q 1816 -950 1584 -1140 
Q 1353 -1331 966 -1331 
L 506 -1331 
L 506 -850 
L 844 -850 
Q 1081 -850 1212 -737 
Q 1344 -625 1503 -206 
L 1606 56 
L 191 3500 
L 800 3500 
L 1894 763 
L 2988 3500 
L 3597 3500 
L 2059 -325 
z
" transform="scale(0.015625)"/>
      <path id="DejaVuSans-4d" d="M 628 4666 
L 1569 4666 
L 2759 1491 
L 3956 4666 
L 4897 4666 
L 4897 0 
L 4281 0 
L 4281 4097 
L 3078 897 
L 2444 897 
L 1241 4097 
L 1241 0 
L 628 0 
L 628 4666 
z
" transform="scale(0.015625)"/>
      <path id="DejaVuSans-6e" d="M 3513 2113 
L 3513 0 
L 2938 0 
L 2938 2094 
Q 2938 2591 2744 2837 
Q 2550 3084 2163 3084 
Q 1697 3084 1428 2787 
Q 1159 2491 1159 1978 
L 1159 0 
L 581 0 
L 581 3500 
L 1159 3500 
L 1159 2956 
Q 1366 3272 1645 3428 
Q 1925 3584 2291 3584 
Q 2894 3584 3203 3211 
Q 3513 2838 3513 2113 
z
" transform="scale(0.015625)"/>
      <path id="DejaVuSans-3d" d="M 678 2906 
L 4684 2906 
L 4684 2381 
L 678 2381 
L 678 2906 
z
M 678 1631 
L 4684 1631 
L 4684 1100 
L 678 1100 
L 678 1631 
z
" transform="scale(0.015625)"/>
     </defs>
     <use xlink:href="#DejaVuSans-50"/>
     <use xlink:href="#DejaVuSans-72" x="58.552734"/>
     <use xlink:href="#DejaVuSans-69" x="99.666016"/>
     <use xlink:href="#DejaVuSans-63" x="127.449219"/>
     <use xlink:href="#DejaVuSans-65" x="182.429688"/>
     <use xlink:href="#DejaVuSans-20" x="243.953125"/>
     <use xlink:href="#DejaVuSans-62" x="275.740234"/>
     <use xlink:href="#DejaVuSans-79" x="339.216797"/>
     <use xlink:href="#DejaVuSans-20" x="398.396484"/>
     <use xlink:href="#DejaVuSans-53" x="430.183594"/>
     <use xlink:href="#DejaVuSans-70" x="493.660156"/>
     <use xlink:href="#DejaVuSans-6f" x="557.136719"/>
     <use xlink:href="#DejaVuSans-74" x="618.318359"/>
     <use xlink:href="#DejaVuSans-2f" x="657.527344"/>
     <use xlink:href="#DejaVuSans-53" x="691.21875"/>
     <use xlink:href="#DejaVuSans-74" x="754.695312"/>
     <use xlink:href="#DejaVuSans-72" x="793.904297"/>
     <use xlink:href="#DejaVuSans-69" x="835.017578"/>
     <use xlink:href="#DejaVuSans-6b" x="862.800781"/>
     <use xlink:href="#DejaVuSans-65" x="917.085938"/>
     <use xlink:href="#DejaVuSans-20" x="978.609375"/>
     <use xlink:href="#DejaVuSans-72" x="1010.396484"/>
     <use xlink:href="#DejaVuSans-61" x="1051.509766"/>
     <use xlink:href="#DejaVuSans-74" x="1112.789062"/>
     <use xlink:href="#DejaVuSans-69" x="1151.998047"/>
     <use xlink:href="#DejaVuSans-6f" x="1179.78125"/>
     <use xlink:href="#DejaVuSans-2e" x="1239.212891"/>
     <use xlink:href="#DejaVuSans-20" x="1271"/>
     <use xlink:href="#DejaVuSans-4d" x="1302.787109"/>
     <use xlink:href="#DejaVuSans-6f" x="1389.066406"/>
     <use xlink:href="#DejaVuSans-6e" x="1450.248047"/>
     <use xlink:href="#DejaVuSans-65" x="1513.626953"/>
     <use xlink:href="#DejaVuSans-79" x="1575.150391"/>
     <use xlink:href="#DejaVuSans-6e" x="1634.330078"/>
     <use xlink:href="#DejaVuSans-65" x="1697.708984"/>
     <use xlink:href="#DejaVuSans-73" x="1759.232422"/>
     <use xlink:href="#DejaVuSans-73" x="1811.332031"/>
     <use xlink:href="#DejaVuSans-3d" x="1863.431641"/>
     <use xlink:href="#DejaVuSans-31" x="1947.220703"/>
     <use xlink:href="#DejaVuSans-2e" x="2010.84375"/>
     <use xlink:href="#DejaVuSans-31" x="2042.630859"/>
    </g>
   </g>
   <g id="legend_1">
    <g id="patch_7">
     <path d="M 598.581563 136.36125 
L 765 136.36125 
Q 768.6 136.36125 768.6 132.76125 
L 768.6 81.72 
Q 768.6 78.12 765 78.12 
L 598.581563 78.12 
Q 594.981563 78.12 594.981563 81.72 
L 594.981563 132.76125 
Q 594.981563 136.36125 598.581563 136.36125 
z
" style="fill: #ffffff; opacity: 0.8; stroke: #cccccc; stroke-linejoin: miter"/>
    </g>
    <g id="line2d_29">
     <path d="M 602.181563 92.697188 
L 620.181563 92.697188 
L 638.181563 92.697188 
" style="fill: none; stroke: #1f77b4; stroke-width: 2; stroke-linecap: square"/>
    </g>
    <g id="text_17">
     <!-- Monte Carlo -->
     <g transform="translate(652.581563 98.997188) scale(0.18 -0.18)">
      <defs>
       <path id="DejaVuSans-43" d="M 4122 4306 
L 4122 3641 
Q 3803 3938 3442 4084 
Q 3081 4231 2675 4231 
Q 1875 4231 1450 3742 
Q 1025 3253 1025 2328 
Q 1025 1406 1450 917 
Q 1875 428 2675 428 
Q 3081 428 3442 575 
Q 3803 722 4122 1019 
L 4122 359 
Q 3791 134 3420 21 
Q 3050 -91 2638 -91 
Q 1578 -91 968 557 
Q 359 1206 359 2328 
Q 359 3453 968 4101 
Q 1578 4750 2638 4750 
Q 3056 4750 3426 4639 
Q 3797 4528 4122 4306 
z
" transform="scale(0.015625)"/>
       <path id="DejaVuSans-6c" d="M 603 4863 
L 1178 4863 
L 1178 0 
L 603 0 
L 603 4863 
z
" transform="scale(0.015625)"/>
      </defs>
      <use xlink:href="#DejaVuSans-4d"/>
      <use xlink:href="#DejaVuSans-6f" x="86.279297"/>
      <use xlink:href="#DejaVuSans-6e" x="147.460938"/>
      <use xlink:href="#DejaVuSans-74" x="210.839844"/>
      <use xlink:href="#DejaVuSans-65" x="250.048828"/>
      <use xlink:href="#DejaVuSans-20" x="311.572266"/>
      <use xlink:href="#DejaVuSans-43" x="343.359375"/>
      <use xlink:href="#DejaVuSans-61" x="413.183594"/>
      <use xlink:href="#DejaVuSans-72" x="474.462891"/>
      <use xlink:href="#DejaVuSans-6c" x="515.576172"/>
      <use xlink:href="#DejaVuSans-6f" x="543.359375"/>
     </g>
    </g>
    <g id="line2d_30">
     <path d="M 602.181563 119.117813 
L 620.181563 119.117813 
L 638.181563 119.117813 
" style="fill: none; stroke: #ff7f0e; stroke-width: 2; stroke-linecap: square"/>
    </g>
    <g id="text_18">
     <!-- Positive net -->
     <g transform="translate(652.581563 125.417813) scale(0.18 -0.18)">
      <defs>
       <path id="DejaVuSans-76" d="M 191 3500 
L 800 3500 
L 1894 563 
L 2988 3500 
L 3597 3500 
L 2284 0 
L 1503 0 
L 191 3500 
z
" transform="scale(0.015625)"/>
      </defs>
      <use xlink:href="#DejaVuSans-50"/>
      <use xlink:href="#DejaVuSans-6f" x="56.677734"/>
      <use xlink:href="#DejaVuSans-73" x="117.859375"/>
      <use xlink:href="#DejaVuSans-69" x="169.958984"/>
      <use xlink:href="#DejaVuSans-74" x="197.742188"/>
      <use xlink:href="#DejaVuSans-69" x="236.951172"/>
      <use xlink:href="#DejaVuSans-76" x="264.734375"/>
      <use xlink:href="#DejaVuSans-65" x="323.914062"/>
      <use xlink:href="#DejaVuSans-20" x="385.4375"/>
      <use xlink:href="#DejaVuSans-6e" x="417.224609"/>
      <use xlink:href="#DejaVuSans-65" x="480.603516"/>
      <use xlink:href="#DejaVuSans-74" x="542.126953"/>
     </g>
    </g>
   </g>
  </g>
 </g>
 <defs>
  <clipPath id="pb94aabc09b">
   <rect x="108" y="69.12" width="669.6" height="443.52"/>
  </clipPath>
 </defs>
</svg>
