<?xml version="1.0" encoding="utf-8" standalone="no"?>
<!DOCTYPE svg PUBLIC "-//W3C//DTD SVG 1.1//EN"
  "http://www.w3.org/Graphics/SVG/1.1/DTD/svg11.dtd">
<svg xmlns:xlink="http://www.w3.org/1999/xlink" width="864pt" height="576pt" viewBox="0 0 864 576" xmlns="http://www.w3.org/2000/svg" version="1.1">
 <metadata>
  <rdf:RDF xmlns:dc="http://purl.org/dc/elements/1.1/" xmlns:cc="http://creativecommons.org/ns#" xmlns:rdf="http://www.w3.org/1999/02/22-rdf-syntax-ns#">
   <cc:Work>
    <dc:type rdf:resource="http://purl.org/dc/dcmitype/StillImage"/>
    <dc:date>2024-03-10T20:01:43.860340</dc:date>
    <dc:format>image/svg+xml</dc:format>
    <dc:creator>
     <cc:Agent>
      <dc:title>Matplotlib v3.7.3, https://matplotlib.org/</dc:title>
     </cc:Agent>
    </dc:creator>
   </cc:Work>
  </rdf:RDF>
 </metadata>
 <defs>
  <style type="text/css">*{stroke-linejoin: round; stroke-linecap: butt}</style>
 </defs>
 <g id="figure_1">
  <g id="patch_1">
   <path d="M 0 576 
L 864 576 
L 864 0 
L 0 0 
z
" style="fill: #ffffff"/>
  </g>
  <g id="axes_1">
   <g id="patch_2">
    <path d="M 108 512.64 
L 777.6 512.64 
L 777.6 69.12 
L 108 69.12 
z
" style="fill: #ffffff"/>
   </g>
   <g id="matplotlib.axis_1">
    <g id="xtick_1">
     <g id="line2d_1">
      <path d="M 197.408542 512.64 
L 197.408542 69.12 
" clip-path="url(#p273c917cae)" style="fill: none; stroke: #b0b0b0; stroke-width: 0.8; stroke-linecap: square"/>
     </g>
     <g id="line2d_2">
      <defs>
       <path id="m474678167d" d="M 0 0 
L 0 3.5 
" style="stroke: #000000; stroke-width: 0.8"/>
      </defs>
      <g>
       <use xlink:href="#m474678167d" x="197.408542" y="512.64" style="stroke: #000000; stroke-width: 0.8"/>
      </g>
     </g>
     <g id="text_1">
      <!-- 0.6 -->
      <g transform="translate(189.45698 527.238438) scale(0.1 -0.1)">
       <defs>
        <path id="DejaVuSans-30" d="M 2034 4250 
Q 1547 4250 1301 3770 
Q 1056 3291 1056 2328 
Q 1056 1369 1301 889 
Q 1547 409 2034 409 
Q 2525 409 2770 889 
Q 3016 1369 3016 2328 
Q 3016 3291 2770 3770 
Q 2525 4250 2034 4250 
z
M 2034 4750 
Q 2819 4750 3233 4129 
Q 3647 3509 3647 2328 
Q 3647 1150 3233 529 
Q 2819 -91 2034 -91 
Q 1250 -91 836 529 
Q 422 1150 422 2328 
Q 422 3509 836 4129 
Q 1250 4750 2034 4750 
z
" transform="scale(0.015625)"/>
        <path id="DejaVuSans-2e" d="M 684 794 
L 1344 794 
L 1344 0 
L 684 0 
L 684 794 
z
" transform="scale(0.015625)"/>
        <path id="DejaVuSans-36" d="M 2113 2584 
Q 1688 2584 1439 2293 
Q 1191 2003 1191 1497 
Q 1191 994 1439 701 
Q 1688 409 2113 409 
Q 2538 409 2786 701 
Q 3034 994 3034 1497 
Q 3034 2003 2786 2293 
Q 2538 2584 2113 2584 
z
M 3366 4563 
L 3366 3988 
Q 3128 4100 2886 4159 
Q 2644 4219 2406 4219 
Q 1781 4219 1451 3797 
Q 1122 3375 1075 2522 
Q 1259 2794 1537 2939 
Q 1816 3084 2150 3084 
Q 2853 3084 3261 2657 
Q 3669 2231 3669 1497 
Q 3669 778 3244 343 
Q 2819 -91 2113 -91 
Q 1303 -91 875 529 
Q 447 1150 447 2328 
Q 447 3434 972 4092 
Q 1497 4750 2381 4750 
Q 2619 4750 2861 4703 
Q 3103 4656 3366 4563 
z
" transform="scale(0.015625)"/>
       </defs>
       <use xlink:href="#DejaVuSans-30"/>
       <use xlink:href="#DejaVuSans-2e" x="63.623047"/>
       <use xlink:href="#DejaVuSans-36" x="95.410156"/>
      </g>
     </g>
    </g>
    <g id="xtick_2">
     <g id="line2d_3">
      <path d="M 319.630655 512.64 
L 319.630655 69.12 
" clip-path="url(#p273c917cae)" style="fill: none; stroke: #b0b0b0; stroke-width: 0.8; stroke-linecap: square"/>
     </g>
     <g id="line2d_4">
      <g>
       <use xlink:href="#m474678167d" x="319.630655" y="512.64" style="stroke: #000000; stroke-width: 0.8"/>
      </g>
     </g>
     <g id="text_2">
      <!-- 0.8 -->
      <g transform="translate(311.679092 527.238438) scale(0.1 -0.1)">
       <defs>
        <path id="DejaVuSans-38" d="M 2034 2216 
Q 1584 2216 1326 1975 
Q 1069 1734 1069 1313 
Q 1069 891 1326 650 
Q 1584 409 2034 409 
Q 2484 409 2743 651 
Q 3003 894 3003 1313 
Q 3003 1734 2745 1975 
Q 2488 2216 2034 2216 
z
M 1403 2484 
Q 997 2584 770 2862 
Q 544 3141 544 3541 
Q 544 4100 942 4425 
Q 1341 4750 2034 4750 
Q 2731 4750 3128 4425 
Q 3525 4100 3525 3541 
Q 3525 3141 3298 2862 
Q 3072 2584 2669 2484 
Q 3125 2378 3379 2068 
Q 3634 1759 3634 1313 
Q 3634 634 3220 271 
Q 2806 -91 2034 -91 
Q 1263 -91 848 271 
Q 434 634 434 1313 
Q 434 1759 690 2068 
Q 947 2378 1403 2484 
z
M 1172 3481 
Q 1172 3119 1398 2916 
Q 1625 2713 2034 2713 
Q 2441 2713 2670 2916 
Q 2900 3119 2900 3481 
Q 2900 3844 2670 4047 
Q 2441 4250 2034 4250 
Q 1625 4250 1398 4047 
Q 1172 3844 1172 3481 
z
" transform="scale(0.015625)"/>
       </defs>
       <use xlink:href="#DejaVuSans-30"/>
       <use xlink:href="#DejaVuSans-2e" x="63.623047"/>
       <use xlink:href="#DejaVuSans-38" x="95.410156"/>
      </g>
     </g>
    </g>
    <g id="xtick_3">
     <g id="line2d_5">
      <path d="M 441.852767 512.64 
L 441.852767 69.12 
" clip-path="url(#p273c917cae)" style="fill: none; stroke: #b0b0b0; stroke-width: 0.8; stroke-linecap: square"/>
     </g>
     <g id="line2d_6">
      <g>
       <use xlink:href="#m474678167d" x="441.852767" y="512.64" style="stroke: #000000; stroke-width: 0.8"/>
      </g>
     </g>
     <g id="text_3">
      <!-- 1.0 -->
      <g transform="translate(433.901205 527.238438) scale(0.1 -0.1)">
       <defs>
        <path id="DejaVuSans-31" d="M 794 531 
L 1825 531 
L 1825 4091 
L 703 3866 
L 703 4441 
L 1819 4666 
L 2450 4666 
L 2450 531 
L 3481 531 
L 3481 0 
L 794 0 
L 794 531 
z
" transform="scale(0.015625)"/>
       </defs>
       <use xlink:href="#DejaVuSans-31"/>
       <use xlink:href="#DejaVuSans-2e" x="63.623047"/>
       <use xlink:href="#DejaVuSans-30" x="95.410156"/>
      </g>
     </g>
    </g>
    <g id="xtick_4">
     <g id="line2d_7">
      <path d="M 564.07488 512.64 
L 564.07488 69.12 
" clip-path="url(#p273c917cae)" style="fill: none; stroke: #b0b0b0; stroke-width: 0.8; stroke-linecap: square"/>
     </g>
     <g id="line2d_8">
      <g>
       <use xlink:href="#m474678167d" x="564.07488" y="512.64" style="stroke: #000000; stroke-width: 0.8"/>
      </g>
     </g>
     <g id="text_4">
      <!-- 1.2 -->
      <g transform="translate(556.123317 527.238438) scale(0.1 -0.1)">
       <defs>
        <path id="DejaVuSans-32" d="M 1228 531 
L 3431 531 
L 3431 0 
L 469 0 
L 469 531 
Q 828 903 1448 1529 
Q 2069 2156 2228 2338 
Q 2531 2678 2651 2914 
Q 2772 3150 2772 3378 
Q 2772 3750 2511 3984 
Q 2250 4219 1831 4219 
Q 1534 4219 1204 4116 
Q 875 4013 500 3803 
L 500 4441 
Q 881 4594 1212 4672 
Q 1544 4750 1819 4750 
Q 2544 4750 2975 4387 
Q 3406 4025 3406 3419 
Q 3406 3131 3298 2873 
Q 3191 2616 2906 2266 
Q 2828 2175 2409 1742 
Q 1991 1309 1228 531 
z
" transform="scale(0.015625)"/>
       </defs>
       <use xlink:href="#DejaVuSans-31"/>
       <use xlink:href="#DejaVuSans-2e" x="63.623047"/>
       <use xlink:href="#DejaVuSans-32" x="95.410156"/>
      </g>
     </g>
    </g>
    <g id="xtick_5">
     <g id="line2d_9">
      <path d="M 686.296992 512.64 
L 686.296992 69.12 
" clip-path="url(#p273c917cae)" style="fill: none; stroke: #b0b0b0; stroke-width: 0.8; stroke-linecap: square"/>
     </g>
     <g id="line2d_10">
      <g>
       <use xlink:href="#m474678167d" x="686.296992" y="512.64" style="stroke: #000000; stroke-width: 0.8"/>
      </g>
     </g>
     <g id="text_5">
      <!-- 1.4 -->
      <g transform="translate(678.34543 527.238438) scale(0.1 -0.1)">
       <defs>
        <path id="DejaVuSans-34" d="M 2419 4116 
L 825 1625 
L 2419 1625 
L 2419 4116 
z
M 2253 4666 
L 3047 4666 
L 3047 1625 
L 3713 1625 
L 3713 1100 
L 3047 1100 
L 3047 0 
L 2419 0 
L 2419 1100 
L 313 1100 
L 313 1709 
L 2253 4666 
z
" transform="scale(0.015625)"/>
       </defs>
       <use xlink:href="#DejaVuSans-31"/>
       <use xlink:href="#DejaVuSans-2e" x="63.623047"/>
       <use xlink:href="#DejaVuSans-34" x="95.410156"/>
      </g>
     </g>
    </g>
    <g id="text_6">
     <!-- TTM -->
     <g transform="translate(424.198125 546.995312) scale(0.18 -0.18)">
      <defs>
       <path id="DejaVuSans-54" d="M -19 4666 
L 3928 4666 
L 3928 4134 
L 2272 4134 
L 2272 0 
L 1638 0 
L 1638 4134 
L -19 4134 
L -19 4666 
z
" transform="scale(0.015625)"/>
       <path id="DejaVuSans-4d" d="M 628 4666 
L 1569 4666 
L 2759 1491 
L 3956 4666 
L 4897 4666 
L 4897 0 
L 4281 0 
L 4281 4097 
L 3078 897 
L 2444 897 
L 1241 4097 
L 1241 0 
L 628 0 
L 628 4666 
z
" transform="scale(0.015625)"/>
      </defs>
      <use xlink:href="#DejaVuSans-54"/>
      <use xlink:href="#DejaVuSans-54" x="59.333984"/>
      <use xlink:href="#DejaVuSans-4d" x="120.417969"/>
     </g>
    </g>
   </g>
   <g id="matplotlib.axis_2">
    <g id="ytick_1">
     <g id="line2d_11">
      <path d="M 108 464.116377 
L 777.6 464.116377 
" clip-path="url(#p273c917cae)" style="fill: none; stroke: #b0b0b0; stroke-width: 0.8; stroke-linecap: square"/>
     </g>
     <g id="line2d_12">
      <defs>
       <path id="mb94b811c9f" d="M 0 0 
L -3.5 0 
" style="stroke: #000000; stroke-width: 0.8"/>
      </defs>
      <g>
       <use xlink:href="#mb94b811c9f" x="108" y="464.116377" style="stroke: #000000; stroke-width: 0.8"/>
      </g>
     </g>
     <g id="text_7">
      <!-- 0.004 -->
      <g transform="translate(72.371875 467.915596) scale(0.1 -0.1)">
       <use xlink:href="#DejaVuSans-30"/>
       <use xlink:href="#DejaVuSans-2e" x="63.623047"/>
       <use xlink:href="#DejaVuSans-30" x="95.410156"/>
       <use xlink:href="#DejaVuSans-30" x="159.033203"/>
       <use xlink:href="#DejaVuSans-34" x="222.65625"/>
      </g>
     </g>
    </g>
    <g id="ytick_2">
     <g id="line2d_13">
      <path d="M 108 392.518368 
L 777.6 392.518368 
" clip-path="url(#p273c917cae)" style="fill: none; stroke: #b0b0b0; stroke-width: 0.8; stroke-linecap: square"/>
     </g>
     <g id="line2d_14">
      <g>
       <use xlink:href="#mb94b811c9f" x="108" y="392.518368" style="stroke: #000000; stroke-width: 0.8"/>
      </g>
     </g>
     <g id="text_8">
      <!-- 0.006 -->
      <g transform="translate(72.371875 396.317586) scale(0.1 -0.1)">
       <use xlink:href="#DejaVuSans-30"/>
       <use xlink:href="#DejaVuSans-2e" x="63.623047"/>
       <use xlink:href="#DejaVuSans-30" x="95.410156"/>
       <use xlink:href="#DejaVuSans-30" x="159.033203"/>
       <use xlink:href="#DejaVuSans-36" x="222.65625"/>
      </g>
     </g>
    </g>
    <g id="ytick_3">
     <g id="line2d_15">
      <path d="M 108 320.920358 
L 777.6 320.920358 
" clip-path="url(#p273c917cae)" style="fill: none; stroke: #b0b0b0; stroke-width: 0.8; stroke-linecap: square"/>
     </g>
     <g id="line2d_16">
      <g>
       <use xlink:href="#mb94b811c9f" x="108" y="320.920358" style="stroke: #000000; stroke-width: 0.8"/>
      </g>
     </g>
     <g id="text_9">
      <!-- 0.008 -->
      <g transform="translate(72.371875 324.719577) scale(0.1 -0.1)">
       <use xlink:href="#DejaVuSans-30"/>
       <use xlink:href="#DejaVuSans-2e" x="63.623047"/>
       <use xlink:href="#DejaVuSans-30" x="95.410156"/>
       <use xlink:href="#DejaVuSans-30" x="159.033203"/>
       <use xlink:href="#DejaVuSans-38" x="222.65625"/>
      </g>
     </g>
    </g>
    <g id="ytick_4">
     <g id="line2d_17">
      <path d="M 108 249.322349 
L 777.6 249.322349 
" clip-path="url(#p273c917cae)" style="fill: none; stroke: #b0b0b0; stroke-width: 0.8; stroke-linecap: square"/>
     </g>
     <g id="line2d_18">
      <g>
       <use xlink:href="#mb94b811c9f" x="108" y="249.322349" style="stroke: #000000; stroke-width: 0.8"/>
      </g>
     </g>
     <g id="text_10">
      <!-- 0.010 -->
      <g transform="translate(72.371875 253.121568) scale(0.1 -0.1)">
       <use xlink:href="#DejaVuSans-30"/>
       <use xlink:href="#DejaVuSans-2e" x="63.623047"/>
       <use xlink:href="#DejaVuSans-30" x="95.410156"/>
       <use xlink:href="#DejaVuSans-31" x="159.033203"/>
       <use xlink:href="#DejaVuSans-30" x="222.65625"/>
      </g>
     </g>
    </g>
    <g id="ytick_5">
     <g id="line2d_19">
      <path d="M 108 177.72434 
L 777.6 177.72434 
" clip-path="url(#p273c917cae)" style="fill: none; stroke: #b0b0b0; stroke-width: 0.8; stroke-linecap: square"/>
     </g>
     <g id="line2d_20">
      <g>
       <use xlink:href="#mb94b811c9f" x="108" y="177.72434" style="stroke: #000000; stroke-width: 0.8"/>
      </g>
     </g>
     <g id="text_11">
      <!-- 0.012 -->
      <g transform="translate(72.371875 181.523558) scale(0.1 -0.1)">
       <use xlink:href="#DejaVuSans-30"/>
       <use xlink:href="#DejaVuSans-2e" x="63.623047"/>
       <use xlink:href="#DejaVuSans-30" x="95.410156"/>
       <use xlink:href="#DejaVuSans-31" x="159.033203"/>
       <use xlink:href="#DejaVuSans-32" x="222.65625"/>
      </g>
     </g>
    </g>
    <g id="ytick_6">
     <g id="line2d_21">
      <path d="M 108 106.12633 
L 777.6 106.12633 
" clip-path="url(#p273c917cae)" style="fill: none; stroke: #b0b0b0; stroke-width: 0.8; stroke-linecap: square"/>
     </g>
     <g id="line2d_22">
      <g>
       <use xlink:href="#mb94b811c9f" x="108" y="106.12633" style="stroke: #000000; stroke-width: 0.8"/>
      </g>
     </g>
     <g id="text_12">
      <!-- 0.014 -->
      <g transform="translate(72.371875 109.925549) scale(0.1 -0.1)">
       <use xlink:href="#DejaVuSans-30"/>
       <use xlink:href="#DejaVuSans-2e" x="63.623047"/>
       <use xlink:href="#DejaVuSans-30" x="95.410156"/>
       <use xlink:href="#DejaVuSans-31" x="159.033203"/>
       <use xlink:href="#DejaVuSans-34" x="222.65625"/>
      </g>
     </g>
    </g>
    <g id="text_13">
     <!-- Price/strike ratio -->
     <g transform="translate(64.628438 364.318594) rotate(-90) scale(0.18 -0.18)">
      <defs>
       <path id="DejaVuSans-50" d="M 1259 4147 
L 1259 2394 
L 2053 2394 
Q 2494 2394 2734 2622 
Q 2975 2850 2975 3272 
Q 2975 3691 2734 3919 
Q 2494 4147 2053 4147 
L 1259 4147 
z
M 628 4666 
L 2053 4666 
Q 2838 4666 3239 4311 
Q 3641 3956 3641 3272 
Q 3641 2581 3239 2228 
Q 2838 1875 2053 1875 
L 1259 1875 
L 1259 0 
L 628 0 
L 628 4666 
z
" transform="scale(0.015625)"/>
       <path id="DejaVuSans-72" d="M 2631 2963 
Q 2534 3019 2420 3045 
Q 2306 3072 2169 3072 
Q 1681 3072 1420 2755 
Q 1159 2438 1159 1844 
L 1159 0 
L 581 0 
L 581 3500 
L 1159 3500 
L 1159 2956 
Q 1341 3275 1631 3429 
Q 1922 3584 2338 3584 
Q 2397 3584 2469 3576 
Q 2541 3569 2628 3553 
L 2631 2963 
z
" transform="scale(0.015625)"/>
       <path id="DejaVuSans-69" d="M 603 3500 
L 1178 3500 
L 1178 0 
L 603 0 
L 603 3500 
z
M 603 4863 
L 1178 4863 
L 1178 4134 
L 603 4134 
L 603 4863 
z
" transform="scale(0.015625)"/>
       <path id="DejaVuSans-63" d="M 3122 3366 
L 3122 2828 
Q 2878 2963 2633 3030 
Q 2388 3097 2138 3097 
Q 1578 3097 1268 2742 
Q 959 2388 959 1747 
Q 959 1106 1268 751 
Q 1578 397 2138 397 
Q 2388 397 2633 464 
Q 2878 531 3122 666 
L 3122 134 
Q 2881 22 2623 -34 
Q 2366 -91 2075 -91 
Q 1284 -91 818 406 
Q 353 903 353 1747 
Q 353 2603 823 3093 
Q 1294 3584 2113 3584 
Q 2378 3584 2631 3529 
Q 2884 3475 3122 3366 
z
" transform="scale(0.015625)"/>
       <path id="DejaVuSans-65" d="M 3597 1894 
L 3597 1613 
L 953 1613 
Q 991 1019 1311 708 
Q 1631 397 2203 397 
Q 2534 397 2845 478 
Q 3156 559 3463 722 
L 3463 178 
Q 3153 47 2828 -22 
Q 2503 -91 2169 -91 
Q 1331 -91 842 396 
Q 353 884 353 1716 
Q 353 2575 817 3079 
Q 1281 3584 2069 3584 
Q 2775 3584 3186 3129 
Q 3597 2675 3597 1894 
z
M 3022 2063 
Q 3016 2534 2758 2815 
Q 2500 3097 2075 3097 
Q 1594 3097 1305 2825 
Q 1016 2553 972 2059 
L 3022 2063 
z
" transform="scale(0.015625)"/>
       <path id="DejaVuSans-2f" d="M 1625 4666 
L 2156 4666 
L 531 -594 
L 0 -594 
L 1625 4666 
z
" transform="scale(0.015625)"/>
       <path id="DejaVuSans-73" d="M 2834 3397 
L 2834 2853 
Q 2591 2978 2328 3040 
Q 2066 3103 1784 3103 
Q 1356 3103 1142 2972 
Q 928 2841 928 2578 
Q 928 2378 1081 2264 
Q 1234 2150 1697 2047 
L 1894 2003 
Q 2506 1872 2764 1633 
Q 3022 1394 3022 966 
Q 3022 478 2636 193 
Q 2250 -91 1575 -91 
Q 1294 -91 989 -36 
Q 684 19 347 128 
L 347 722 
Q 666 556 975 473 
Q 1284 391 1588 391 
Q 1994 391 2212 530 
Q 2431 669 2431 922 
Q 2431 1156 2273 1281 
Q 2116 1406 1581 1522 
L 1381 1569 
Q 847 1681 609 1914 
Q 372 2147 372 2553 
Q 372 3047 722 3315 
Q 1072 3584 1716 3584 
Q 2034 3584 2315 3537 
Q 2597 3491 2834 3397 
z
" transform="scale(0.015625)"/>
       <path id="DejaVuSans-74" d="M 1172 4494 
L 1172 3500 
L 2356 3500 
L 2356 3053 
L 1172 3053 
L 1172 1153 
Q 1172 725 1289 603 
Q 1406 481 1766 481 
L 2356 481 
L 2356 0 
L 1766 0 
Q 1100 0 847 248 
Q 594 497 594 1153 
L 594 3053 
L 172 3053 
L 172 3500 
L 594 3500 
L 594 4494 
L 1172 4494 
z
" transform="scale(0.015625)"/>
       <path id="DejaVuSans-6b" d="M 581 4863 
L 1159 4863 
L 1159 1991 
L 2875 3500 
L 3609 3500 
L 1753 1863 
L 3688 0 
L 2938 0 
L 1159 1709 
L 1159 0 
L 581 0 
L 581 4863 
z
" transform="scale(0.015625)"/>
       <path id="DejaVuSans-20" transform="scale(0.015625)"/>
       <path id="DejaVuSans-61" d="M 2194 1759 
Q 1497 1759 1228 1600 
Q 959 1441 959 1056 
Q 959 750 1161 570 
Q 1363 391 1709 391 
Q 2188 391 2477 730 
Q 2766 1069 2766 1631 
L 2766 1759 
L 2194 1759 
z
M 3341 1997 
L 3341 0 
L 2766 0 
L 2766 531 
Q 2569 213 2275 61 
Q 1981 -91 1556 -91 
Q 1019 -91 701 211 
Q 384 513 384 1019 
Q 384 1609 779 1909 
Q 1175 2209 1959 2209 
L 2766 2209 
L 2766 2266 
Q 2766 2663 2505 2880 
Q 2244 3097 1772 3097 
Q 1472 3097 1187 3025 
Q 903 2953 641 2809 
L 641 3341 
Q 956 3463 1253 3523 
Q 1550 3584 1831 3584 
Q 2591 3584 2966 3190 
Q 3341 2797 3341 1997 
z
" transform="scale(0.015625)"/>
       <path id="DejaVuSans-6f" d="M 1959 3097 
Q 1497 3097 1228 2736 
Q 959 2375 959 1747 
Q 959 1119 1226 758 
Q 1494 397 1959 397 
Q 2419 397 2687 759 
Q 2956 1122 2956 1747 
Q 2956 2369 2687 2733 
Q 2419 3097 1959 3097 
z
M 1959 3584 
Q 2709 3584 3137 3096 
Q 3566 2609 3566 1747 
Q 3566 888 3137 398 
Q 2709 -91 1959 -91 
Q 1206 -91 779 398 
Q 353 888 353 1747 
Q 353 2609 779 3096 
Q 1206 3584 1959 3584 
z
" transform="scale(0.015625)"/>
      </defs>
      <use xlink:href="#DejaVuSans-50"/>
      <use xlink:href="#DejaVuSans-72" x="58.552734"/>
      <use xlink:href="#DejaVuSans-69" x="99.666016"/>
      <use xlink:href="#DejaVuSans-63" x="127.449219"/>
      <use xlink:href="#DejaVuSans-65" x="182.429688"/>
      <use xlink:href="#DejaVuSans-2f" x="243.953125"/>
      <use xlink:href="#DejaVuSans-73" x="277.644531"/>
      <use xlink:href="#DejaVuSans-74" x="329.744141"/>
      <use xlink:href="#DejaVuSans-72" x="368.953125"/>
      <use xlink:href="#DejaVuSans-69" x="410.066406"/>
      <use xlink:href="#DejaVuSans-6b" x="437.849609"/>
      <use xlink:href="#DejaVuSans-65" x="492.134766"/>
      <use xlink:href="#DejaVuSans-20" x="553.658203"/>
      <use xlink:href="#DejaVuSans-72" x="585.445312"/>
      <use xlink:href="#DejaVuSans-61" x="626.558594"/>
      <use xlink:href="#DejaVuSans-74" x="687.837891"/>
      <use xlink:href="#DejaVuSans-69" x="727.046875"/>
      <use xlink:href="#DejaVuSans-6f" x="754.830078"/>
     </g>
    </g>
   </g>
   <g id="line2d_23">
    <path d="M 138.436364 465.194766 
L 138.619691 483.327529 
L 140.086381 460.133723 
L 141.430829 479.742934 
L 142.28638 470.091207 
L 144.730827 451.719401 
L 145.464136 474.130924 
L 147.419686 455.136761 
L 149.925255 465.48006 
L 150.780806 470.146685 
L 151.086375 474.114787 
L 151.45303 492.48 
L 151.819684 467.886413 
L 152.003011 471.699199 
L 155.303009 475.889498 
L 157.564129 460.860261 
L 159.030783 448.402113 
L 160.130782 446.217965 
L 160.436352 453.765536 
L 161.047455 472.440415 
L 161.047455 461.700723 
L 164.653023 455.534446 
L 165.814143 457.006859 
L 166.7919 468.986464 
L 168.869693 464.460743 
L 171.130777 460.166564 
L 172.536346 440.468226 
L 173.697466 474.158472 
L 175.16412 458.116811 
L 175.530774 444.261649 
L 179.686324 449.523835 
L 181.091893 454.882991 
L 181.397462 451.689862 
L 183.964115 458.518063 
L 185.002994 452.672804 
L 185.430769 453.213969 
L 185.675218 446.363379 
L 189.219664 447.266755 
L 191.480784 457.285551 
L 193.925195 456.795564 
L 195.025194 447.44616 
L 198.630762 455.581489 
L 199.791883 428.408946 
L 200.219658 428.949327 
L 202.664106 435.616011 
L 203.03076 432.499065 
L 204.375208 437.77632 
L 204.558535 430.847848 
L 205.658534 421.496593 
L 207.430758 441.632857 
L 207.491879 409.490841 
L 207.614085 441.864156 
L 212.075204 422.432909 
L 213.6641 406.537263 
L 213.725185 460.312712 
L 213.969633 446.301366 
L 214.15296 450.11246 
L 215.252959 426.440044 
L 215.558529 441.144853 
L 216.41408 449.383371 
L 216.658528 421.052182 
L 219.46963 424.595202 
L 221.364059 434.142098 
L 221.42518 412.739698 
L 221.852956 427.598223 
L 223.075198 414.818273 
L 224.236282 430.600445 
L 224.664058 431.139076 
L 225.641851 435.950382 
L 228.147419 421.205581 
L 228.575195 414.584257 
L 228.758522 421.974811 
L 228.880728 443.608194 
L 230.530745 417.045663 
L 232.914071 412.885112 
L 233.097399 409.535717 
L 234.380725 425.469921 
L 239.330741 406.63585 
L 240.247377 400.62849 
L 245.319598 392.683534 
L 245.747374 393.220965 
L 246.419598 408.385072 
L 246.664046 430.171537 
L 247.030737 401.99288 
L 247.33627 398.796767 
L 247.702924 420.736798 
L 247.825167 410.150598 
L 248.986287 415.188735 
L 252.102922 411.942212 
L 256.258508 424.317743 
L 257.480713 411.531691 
L 258.030694 412.221654 
L 262.858468 403.956997 
L 267.502914 391.879247 
L 268.541828 396.760951 
L 268.908483 379.320893 
L 270.436258 395.554528 
L 271.719584 386.422453 
L 271.780705 411.558197 
L 272.14736 397.697783 
L 273.369602 413.548153 
L 274.041789 360.69155 
L 275.997376 413.258558 
L 276.608479 403.283888 
L 276.6696 389.040643 
L 279.847356 407.337566 
L 280.030683 403.987237 
L 280.580701 379.615956 
L 281.6807 377.412371 
L 282.230682 385.260373 
L 285.102904 363.793642 
L 285.958455 389.922714 
L 287.119576 355.575679 
L 287.180697 387.871211 
L 287.730679 381.398902 
L 288.952921 382.926827 
L 289.74735 366.020533 
L 291.764022 382.860479 
L 295.369554 373.045409 
L 295.552881 376.854369 
L 296.714001 363.984916 
L 297.080692 378.762475 
L 298.241776 373.052761 
L 299.525103 378.234846 
L 302.580653 356.989813 
L 306.308427 379.540807 
L 306.613996 372.762166 
L 307.164014 398.507622 
L 307.713996 392.033896 
L 310.402891 370.327782 
L 310.464012 366.824137 
L 311.808424 386.399915 
L 313.336199 366.825054 
L 313.702889 374.441806 
L 316.269543 352.581325 
L 318.897317 359.435249 
L 320.913989 369.106705 
L 321.708418 380.835882 
L 325.497313 328.274608 
L 326.536192 368.946488 
L 327.697312 338.172429 
L 328.125088 363.764153 
L 329.469536 351.117364 
L 330.997311 356.598013 
L 333.502879 348.974525 
L 333.502879 334.654781 
L 334.908411 361.46203 
L 340.591736 372.106093 
L 340.713978 336.458848 
L 341.63065 355.497395 
L 342.363959 363.568245 
L 343.21951 357.471098 
L 343.586201 347.186845 
L 347.619508 366.515238 
L 348.658422 342.745768 
L 349.819507 304.808019 
L 349.941749 344.33859 
L 351.408403 349.738838 
L 352.202833 336.405103 
L 352.569523 365.499222 
L 354.769522 328.84988 
L 356.052849 351.921135 
L 356.175055 366.392345 
L 356.358382 330.820499 
L 358.986193 348.398836 
L 359.047278 334.155092 
L 360.75838 379.235175 
L 361.12507 343.890795 
L 363.508396 336.104989 
L 363.752845 350.727615 
L 364.669517 341.123756 
L 367.725067 337.749372 
L 368.763945 346.195885 
L 369.313927 325.397596 
L 371.513925 310.222137 
L 371.575047 353.256752 
L 372.125065 303.818876 
L 373.408391 316.14723 
L 373.65284 323.609683 
L 373.713924 330.845055 
L 376.586147 359.459104 
L 378.480613 318.84397 
L 378.480613 315.263975 
L 379.702818 331.095674 
L 382.636162 341.883001 
L 382.758368 338.454356 
L 384.286143 333.183252 
L 385.141694 348.560504 
L 386.302815 307.036993 
L 386.547263 321.658802 
L 389.480607 350.342666 
L 389.725019 343.485042 
L 391.680606 302.941789 
L 392.230587 328.680411 
L 392.35283 353.890737 
L 392.658363 307.729507 
L 393.269465 337.123423 
L 393.880605 319.978478 
L 394.552792 317.228727 
L 396.019482 329.779378 
L 396.447258 294.50823 
L 396.447258 312.407835 
L 397.180603 327.632805 
L 398.463929 318.477025 
L 398.586135 289.988669 
L 399.625014 280.531158 
L 400.908377 303.593928 
L 404.819478 290.519282 
L 408.608336 302.35083 
L 409.219475 310.263779 
L 412.397231 307.02039 
L 412.825007 332.606946 
L 413.008334 293.454006 
L 413.436109 304.720567 
L 414.291697 320.094369 
L 418.019471 321.105784 
L 420.341675 298.905765 
L 420.952778 288.918275 
L 421.136105 310.623322 
L 423.458347 324.221046 
L 424.802794 297.236276 
L 427.308326 307.478554 
L 428.836101 280.718398 
L 429.324998 295.63947 
L 431.402791 305.353902 
L 431.830566 287.980442 
L 432.50279 285.22689 
L 432.747202 285.527487 
L 434.458341 291.210695 
L 436.597218 311.738559 
L 437.086115 330.238742 
L 437.941666 277.5914 
L 438.858338 296.617011 
L 440.508319 287.904026 
L 440.874974 306.253627 
L 442.341664 272.255899 
L 442.95273 294.485525 
L 442.95273 308.805236 
L 443.502748 280.841391 
L 443.62499 302.470622 
L 444.41942 292.706313 
L 446.741662 291.976958 
L 447.230558 288.996925 
L 449.613848 299.081302 
L 449.797211 295.726255 
L 453.036125 296.119139 
L 453.769434 300.598491 
L 453.769434 329.237596 
L 453.891676 243.469779 
L 455.663899 277.862024 
L 457.31388 294.204365 
L 457.680535 287.493738 
L 460.674963 276.844008 
L 463.058326 311.982845 
L 464.463822 281.485595 
L 464.647185 249.490993 
L 466.663821 284.179601 
L 467.091669 259.643985 
L 468.06939 300.220011 
L 468.130511 268.075744 
L 469.780492 305.89455 
L 471.919442 276.292957 
L 472.224975 258.767532 
L 473.447181 278.162221 
L 474.05832 246.690731 
L 474.730507 290.472172 
L 475.03604 280.106135 
L 476.747215 253.559891 
L 478.152712 305.397411 
L 478.336075 262.662593 
L 479.986056 286.159321 
L 480.16942 236.264981 
L 481.697158 234.552584 
L 483.102727 257.749915 
L 483.958278 255.21551 
L 484.752708 270.505727 
L 486.219398 304.516791 
L 487.502725 284.604891 
L 488.236034 296.240498 
L 489.091585 265.066037 
L 489.641603 269.317741 
L 490.19162 302.208567 
L 492.758274 291.022522 
L 493.736067 245.677149 
L 493.919358 292.439757 
L 495.263806 283.340956 
L 495.447169 283.564536 
L 495.752702 280.357521 
L 496.241599 241.575177 
L 497.708289 279.163601 
L 498.930495 252.015429 
L 499.541634 263.500704 
L 504.00268 272.520722 
L 504.369407 262.227767 
L 504.369407 269.387689 
L 504.430455 247.982572 
L 505.591612 292.356872 
L 506.447163 239.701178 
L 506.630454 264.983786 
L 508.891574 285.638844 
L 509.013817 271.467998 
L 509.19718 268.111351 
L 510.480507 233.87584 
L 510.847161 262.96189 
L 511.519349 256.620975 
L 514.513777 271.0074 
L 515.491571 261.458137 
L 516.347122 241.020159 
L 517.019382 234.678777 
L 517.630448 307.020656 
L 518.730484 258.240619 
L 519.463793 248.393559 
L 520.013811 256.22239 
L 520.869362 260.843473 
L 521.236016 275.609145 
L 522.885997 274.036711 
L 523.741548 224.958777 
L 524.47493 261.649411 
L 525.269359 230.396633 
L 526.73605 253.659379 
L 528.263788 219.717963 
L 528.386031 248.505483 
L 528.569321 259.46818 
L 528.99717 252.828402 
L 529.913769 207.403712 
L 529.913769 243.202823 
L 530.402666 240.217255 
L 531.808235 234.765462 
L 532.847149 228.868042 
L 537.002662 255.395081 
L 538.163819 271.124725 
L 538.285989 228.314324 
L 542.013799 239.999775 
L 543.969313 242.372713 
L 544.702695 232.522919 
L 548.124899 211.615141 
L 548.919329 216.158373 
L 549.591589 216.97368 
L 553.563811 239.688909 
L 553.62486 229.023175 
L 554.908186 237.738328 
L 555.09155 248.700091 
L 555.152671 263.093851 
L 558.81936 217.417908 
L 559.063772 246.353192 
L 559.797081 232.92157 
L 561.20265 245.363549 
L 562.424855 279.062813 
L 563.647133 244.743417 
L 566.947095 248.737733 
L 568.108179 239.403081 
L 568.474906 189.728154 
L 568.78044 218.737155 
L 570.308178 227.74537 
L 571.713747 222.285409 
L 571.958232 222.581272 
L 573.547092 253.142002 
L 573.852625 221.292331 
L 573.974867 225.020024 
L 579.169295 202.660037 
L 582.041554 245.50918 
L 582.591499 203.214955 
L 582.774862 217.755746 
L 584.485965 226.982274 
L 584.730449 227.277404 
L 584.974861 216.832983 
L 585.586 246.210329 
L 585.830412 207.126353 
L 586.441551 218.604126 
L 588.091532 224.175844 
L 590.597064 205.720954 
L 592.430409 222.252735 
L 594.141511 217.157186 
L 595.608201 233.246039 
L 597.93037 185.92808 
L 599.458181 202.089582 
L 600.619265 253.607768 
L 601.108162 229.137899 
L 603.247039 206.656253 
L 605.38599 252.192267 
L 607.463746 222.475916 
L 610.458175 168.803406 
L 611.191484 176.846316 
L 613.208192 172.114276 
L 615.163706 203.107032 
L 615.897087 200.409325 
L 616.813687 215.831804 
L 617.547068 234.61373 
L 617.79148 177.629349 
L 617.974844 210.069045 
L 618.708153 200.211383 
L 618.952637 189.765596 
L 618.952637 218.404984 
L 620.84703 181.304364 
L 620.969273 159.972095 
L 622.191478 229.459834 
L 625.980409 180.315987 
L 626.408185 198.729501 
L 626.530354 241.835265 
L 630.380407 214.241866 
L 630.991473 218.555883 
L 631.113716 207.962831 
L 634.108144 172.180224 
L 636.00261 195.93394 
L 639.424814 164.24207 
L 645.413672 192.905497 
L 647.613671 170.483863 
L 648.469222 175.089442 
L 650.302566 180.866604 
L 651.891499 193.510158 
L 654.519273 157.279289 
L 655.191461 197.463499 
L 656.230375 170.068742 
L 660.019234 156.705534 
L 660.935906 175.702339 
L 661.058148 186.588254 
L 662.585887 188.416676 
L 663.319268 196.454218 
L 663.685923 214.792516 
L 665.702558 163.506647 
L 667.169248 186.740286 
L 667.291418 190.466645 
L 667.719266 173.078581 
L 668.024799 180.603781 
L 668.758108 188.640757 
L 672.485918 89.28 
L 673.096984 193.827693 
L 674.135899 155.690618 
L 674.930329 142.320176 
L 678.230364 189.22168 
L 678.474776 200.253325 
L 680.124757 202.224111 
L 680.185878 159.338527 
L 682.202586 204.705172 
L 682.69141 183.809363 
L 682.997016 162.694974 
L 685.869202 148.223698 
L 686.296978 191.693205 
L 687.091407 164.001985 
L 687.702546 157.571451 
L 693.019216 203.292005 
L 694.669197 187.359884 
L 696.013645 185.382397 
L 696.074766 167.555874 
L 696.319178 185.746808 
L 700.413643 169.146646 
L 702.308109 200.042814 
L 707.258051 145.078629 
L 707.86919 142.226089 
L 710.863619 178.009396 
L 711.413637 167.923952 
L 711.658049 171.794575 
L 712.085824 165.144128 
L 713.002497 209.193359 
L 714.163654 167.615787 
L 715.630271 190.839357 
L 716.669186 170.595487 
L 717.585858 193.165085 
L 718.441409 158.383091 
L 718.869185 162.471427 
L 720.152511 160.417256 
L 723.02477 178.150193 
L 723.269182 189.180638 
L 724.369145 183.327694 
L 724.858042 191.068039 
L 726.813629 154.012095 
L 728.219198 195.060455 
L 729.013628 170.944361 
L 729.074749 135.218266 
L 729.869179 150.480811 
L 730.235833 136.596626 
L 730.480318 161.946348 
L 731.213627 173.556616 
L 732.252541 185.529228 
L 733.352504 201.154517 
L 734.696952 152.631435 
L 736.0414 172.125879 
L 737.50809 141.646999 
L 737.874744 210.100085 
L 740.258034 116.269338 
L 740.319155 166.460308 
L 741.663603 100.03652 
L 742.946929 144.516709 
L 743.252463 134.13917 
L 745.819189 151.500894 
L 747.163636 156.674161 
L 747.163636 156.674161 
" clip-path="url(#p273c917cae)" style="fill: none; stroke: #1f77b4; stroke-width: 2; stroke-linecap: square"/>
   </g>
   <g id="line2d_24">
    <path d="M 138.436364 444.462592 
L 172.536346 433.919334 
L 200.219658 425.124147 
L 228.147419 416.010577 
L 248.986287 409.033377 
L 274.041789 400.415311 
L 296.714001 392.370534 
L 318.897317 384.239022 
L 334.908411 378.188969 
L 356.358382 369.816023 
L 373.713924 362.790629 
L 391.680606 355.25331 
L 404.819478 349.555049 
L 421.136105 342.23841 
L 436.597218 335.03988 
L 449.797211 328.672426 
L 464.647185 321.245747 
L 478.336075 314.136369 
L 490.19162 307.760614 
L 504.00268 300.06271 
L 516.347122 292.921659 
L 528.569321 285.595902 
L 538.285989 279.581756 
L 549.591589 272.364555 
L 562.424855 263.87265 
L 573.974867 255.947765 
L 588.091532 245.883392 
L 599.458181 237.467503 
L 610.458175 229.049147 
L 620.969273 220.746749 
L 631.113716 212.491094 
L 639.424814 205.54515 
L 651.891499 194.817036 
L 663.685923 184.319571 
L 674.930329 173.994843 
L 687.702546 161.89027 
L 700.413643 149.445757 
L 712.085824 137.672788 
L 723.269182 126.085091 
L 734.696952 113.938309 
L 747.163636 100.344119 
L 747.163636 100.344119 
" clip-path="url(#p273c917cae)" style="fill: none; stroke: #ff7f0e; stroke-width: 2; stroke-linecap: square"/>
   </g>
   <g id="patch_3">
    <path d="M 108 512.64 
L 108 69.12 
" style="fill: none; stroke: #000000; stroke-width: 0.8; stroke-linejoin: miter; stroke-linecap: square"/>
   </g>
   <g id="patch_4">
    <path d="M 777.6 512.64 
L 777.6 69.12 
" style="fill: none; stroke: #000000; stroke-width: 0.8; stroke-linejoin: miter; stroke-linecap: square"/>
   </g>
   <g id="patch_5">
    <path d="M 108 512.64 
L 777.6 512.64 
" style="fill: none; stroke: #000000; stroke-width: 0.8; stroke-linejoin: miter; stroke-linecap: square"/>
   </g>
   <g id="patch_6">
    <path d="M 108 69.12 
L 777.6 69.12 
" style="fill: none; stroke: #000000; stroke-width: 0.8; stroke-linejoin: miter; stroke-linecap: square"/>
   </g>
   <g id="text_14">
    <!-- Price by TTM. Moneyness=1.1 -->
    <g transform="translate(292.407812 63.12) scale(0.2 -0.2)">
     <defs>
      <path id="DejaVuSans-62" d="M 3116 1747 
Q 3116 2381 2855 2742 
Q 2594 3103 2138 3103 
Q 1681 3103 1420 2742 
Q 1159 2381 1159 1747 
Q 1159 1113 1420 752 
Q 1681 391 2138 391 
Q 2594 391 2855 752 
Q 3116 1113 3116 1747 
z
M 1159 2969 
Q 1341 3281 1617 3432 
Q 1894 3584 2278 3584 
Q 2916 3584 3314 3078 
Q 3713 2572 3713 1747 
Q 3713 922 3314 415 
Q 2916 -91 2278 -91 
Q 1894 -91 1617 61 
Q 1341 213 1159 525 
L 1159 0 
L 581 0 
L 581 4863 
L 1159 4863 
L 1159 2969 
z
" transform="scale(0.015625)"/>
      <path id="DejaVuSans-79" d="M 2059 -325 
Q 1816 -950 1584 -1140 
Q 1353 -1331 966 -1331 
L 506 -1331 
L 506 -850 
L 844 -850 
Q 1081 -850 1212 -737 
Q 1344 -625 1503 -206 
L 1606 56 
L 191 3500 
L 800 3500 
L 1894 763 
L 2988 3500 
L 3597 3500 
L 2059 -325 
z
" transform="scale(0.015625)"/>
      <path id="DejaVuSans-6e" d="M 3513 2113 
L 3513 0 
L 2938 0 
L 2938 2094 
Q 2938 2591 2744 2837 
Q 2550 3084 2163 3084 
Q 1697 3084 1428 2787 
Q 1159 2491 1159 1978 
L 1159 0 
L 581 0 
L 581 3500 
L 1159 3500 
L 1159 2956 
Q 1366 3272 1645 3428 
Q 1925 3584 2291 3584 
Q 2894 3584 3203 3211 
Q 3513 2838 3513 2113 
z
" transform="scale(0.015625)"/>
      <path id="DejaVuSans-3d" d="M 678 2906 
L 4684 2906 
L 4684 2381 
L 678 2381 
L 678 2906 
z
M 678 1631 
L 4684 1631 
L 4684 1100 
L 678 1100 
L 678 1631 
z
" transform="scale(0.015625)"/>
     </defs>
     <use xlink:href="#DejaVuSans-50"/>
     <use xlink:href="#DejaVuSans-72" x="58.552734"/>
     <use xlink:href="#DejaVuSans-69" x="99.666016"/>
     <use xlink:href="#DejaVuSans-63" x="127.449219"/>
     <use xlink:href="#DejaVuSans-65" x="182.429688"/>
     <use xlink:href="#DejaVuSans-20" x="243.953125"/>
     <use xlink:href="#DejaVuSans-62" x="275.740234"/>
     <use xlink:href="#DejaVuSans-79" x="339.216797"/>
     <use xlink:href="#DejaVuSans-20" x="398.396484"/>
     <use xlink:href="#DejaVuSans-54" x="430.183594"/>
     <use xlink:href="#DejaVuSans-54" x="489.517578"/>
     <use xlink:href="#DejaVuSans-4d" x="550.601562"/>
     <use xlink:href="#DejaVuSans-2e" x="636.880859"/>
     <use xlink:href="#DejaVuSans-20" x="668.667969"/>
     <use xlink:href="#DejaVuSans-4d" x="700.455078"/>
     <use xlink:href="#DejaVuSans-6f" x="786.734375"/>
     <use xlink:href="#DejaVuSans-6e" x="847.916016"/>
     <use xlink:href="#DejaVuSans-65" x="911.294922"/>
     <use xlink:href="#DejaVuSans-79" x="972.818359"/>
     <use xlink:href="#DejaVuSans-6e" x="1031.998047"/>
     <use xlink:href="#DejaVuSans-65" x="1095.376953"/>
     <use xlink:href="#DejaVuSans-73" x="1156.900391"/>
     <use xlink:href="#DejaVuSans-73" x="1209"/>
     <use xlink:href="#DejaVuSans-3d" x="1261.099609"/>
     <use xlink:href="#DejaVuSans-31" x="1344.888672"/>
     <use xlink:href="#DejaVuSans-2e" x="1408.511719"/>
     <use xlink:href="#DejaVuSans-31" x="1440.298828"/>
    </g>
   </g>
   <g id="legend_1">
    <g id="patch_7">
     <path d="M 120.6 136.36125 
L 287.018437 136.36125 
Q 290.618437 136.36125 290.618437 132.76125 
L 290.618437 81.72 
Q 290.618437 78.12 287.018437 78.12 
L 120.6 78.12 
Q 117 78.12 117 81.72 
L 117 132.76125 
Q 117 136.36125 120.6 136.36125 
z
" style="fill: #ffffff; opacity: 0.8; stroke: #cccccc; stroke-linejoin: miter"/>
    </g>
    <g id="line2d_25">
     <path d="M 124.2 92.697188 
L 142.2 92.697188 
L 160.2 92.697188 
" style="fill: none; stroke: #1f77b4; stroke-width: 2; stroke-linecap: square"/>
    </g>
    <g id="text_15">
     <!-- Monte Carlo -->
     <g transform="translate(174.6 98.997188) scale(0.18 -0.18)">
      <defs>
       <path id="DejaVuSans-43" d="M 4122 4306 
L 4122 3641 
Q 3803 3938 3442 4084 
Q 3081 4231 2675 4231 
Q 1875 4231 1450 3742 
Q 1025 3253 1025 2328 
Q 1025 1406 1450 917 
Q 1875 428 2675 428 
Q 3081 428 3442 575 
Q 3803 722 4122 1019 
L 4122 359 
Q 3791 134 3420 21 
Q 3050 -91 2638 -91 
Q 1578 -91 968 557 
Q 359 1206 359 2328 
Q 359 3453 968 4101 
Q 1578 4750 2638 4750 
Q 3056 4750 3426 4639 
Q 3797 4528 4122 4306 
z
" transform="scale(0.015625)"/>
       <path id="DejaVuSans-6c" d="M 603 4863 
L 1178 4863 
L 1178 0 
L 603 0 
L 603 4863 
z
" transform="scale(0.015625)"/>
      </defs>
      <use xlink:href="#DejaVuSans-4d"/>
      <use xlink:href="#DejaVuSans-6f" x="86.279297"/>
      <use xlink:href="#DejaVuSans-6e" x="147.460938"/>
      <use xlink:href="#DejaVuSans-74" x="210.839844"/>
      <use xlink:href="#DejaVuSans-65" x="250.048828"/>
      <use xlink:href="#DejaVuSans-20" x="311.572266"/>
      <use xlink:href="#DejaVuSans-43" x="343.359375"/>
      <use xlink:href="#DejaVuSans-61" x="413.183594"/>
      <use xlink:href="#DejaVuSans-72" x="474.462891"/>
      <use xlink:href="#DejaVuSans-6c" x="515.576172"/>
      <use xlink:href="#DejaVuSans-6f" x="543.359375"/>
     </g>
    </g>
    <g id="line2d_26">
     <path d="M 124.2 119.117813 
L 142.2 119.117813 
L 160.2 119.117813 
" style="fill: none; stroke: #ff7f0e; stroke-width: 2; stroke-linecap: square"/>
    </g>
    <g id="text_16">
     <!-- Positive net -->
     <g transform="translate(174.6 125.417813) scale(0.18 -0.18)">
      <defs>
       <path id="DejaVuSans-76" d="M 191 3500 
L 800 3500 
L 1894 563 
L 2988 3500 
L 3597 3500 
L 2284 0 
L 1503 0 
L 191 3500 
z
" transform="scale(0.015625)"/>
      </defs>
      <use xlink:href="#DejaVuSans-50"/>
      <use xlink:href="#DejaVuSans-6f" x="56.677734"/>
      <use xlink:href="#DejaVuSans-73" x="117.859375"/>
      <use xlink:href="#DejaVuSans-69" x="169.958984"/>
      <use xlink:href="#DejaVuSans-74" x="197.742188"/>
      <use xlink:href="#DejaVuSans-69" x="236.951172"/>
      <use xlink:href="#DejaVuSans-76" x="264.734375"/>
      <use xlink:href="#DejaVuSans-65" x="323.914062"/>
      <use xlink:href="#DejaVuSans-20" x="385.4375"/>
      <use xlink:href="#DejaVuSans-6e" x="417.224609"/>
      <use xlink:href="#DejaVuSans-65" x="480.603516"/>
      <use xlink:href="#DejaVuSans-74" x="542.126953"/>
     </g>
    </g>
   </g>
  </g>
 </g>
 <defs>
  <clipPath id="p273c917cae">
   <rect x="108" y="69.12" width="669.6" height="443.52"/>
  </clipPath>
 </defs>
</svg>
