<?xml version="1.0" encoding="utf-8" standalone="no"?>
<!DOCTYPE svg PUBLIC "-//W3C//DTD SVG 1.1//EN"
  "http://www.w3.org/Graphics/SVG/1.1/DTD/svg11.dtd">
<svg xmlns:xlink="http://www.w3.org/1999/xlink" width="864pt" height="576pt" viewBox="0 0 864 576" xmlns="http://www.w3.org/2000/svg" version="1.1">
 <metadata>
  <rdf:RDF xmlns:dc="http://purl.org/dc/elements/1.1/" xmlns:cc="http://creativecommons.org/ns#" xmlns:rdf="http://www.w3.org/1999/02/22-rdf-syntax-ns#">
   <cc:Work>
    <dc:type rdf:resource="http://purl.org/dc/dcmitype/StillImage"/>
    <dc:date>2024-03-10T20:01:44.070175</dc:date>
    <dc:format>image/svg+xml</dc:format>
    <dc:creator>
     <cc:Agent>
      <dc:title>Matplotlib v3.7.3, https://matplotlib.org/</dc:title>
     </cc:Agent>
    </dc:creator>
   </cc:Work>
  </rdf:RDF>
 </metadata>
 <defs>
  <style type="text/css">*{stroke-linejoin: round; stroke-linecap: butt}</style>
 </defs>
 <g id="figure_1">
  <g id="patch_1">
   <path d="M 0 576 
L 864 576 
L 864 0 
L 0 0 
z
" style="fill: #ffffff"/>
  </g>
  <g id="axes_1">
   <g id="patch_2">
    <path d="M 108 512.64 
L 777.6 512.64 
L 777.6 69.12 
L 108 69.12 
z
" style="fill: #ffffff"/>
   </g>
   <g id="matplotlib.axis_1">
    <g id="xtick_1">
     <g id="line2d_1">
      <path d="M 136.597308 512.64 
L 136.597308 69.12 
" clip-path="url(#pb0c8891118)" style="fill: none; stroke: #b0b0b0; stroke-width: 0.8; stroke-linecap: square"/>
     </g>
     <g id="line2d_2">
      <defs>
       <path id="mc1a633a5db" d="M 0 0 
L 0 3.5 
" style="stroke: #000000; stroke-width: 0.8"/>
      </defs>
      <g>
       <use xlink:href="#mc1a633a5db" x="136.597308" y="512.64" style="stroke: #000000; stroke-width: 0.8"/>
      </g>
     </g>
     <g id="text_1">
      <!-- 0.000 -->
      <g transform="translate(122.283246 527.238438) scale(0.1 -0.1)">
       <defs>
        <path id="DejaVuSans-30" d="M 2034 4250 
Q 1547 4250 1301 3770 
Q 1056 3291 1056 2328 
Q 1056 1369 1301 889 
Q 1547 409 2034 409 
Q 2525 409 2770 889 
Q 3016 1369 3016 2328 
Q 3016 3291 2770 3770 
Q 2525 4250 2034 4250 
z
M 2034 4750 
Q 2819 4750 3233 4129 
Q 3647 3509 3647 2328 
Q 3647 1150 3233 529 
Q 2819 -91 2034 -91 
Q 1250 -91 836 529 
Q 422 1150 422 2328 
Q 422 3509 836 4129 
Q 1250 4750 2034 4750 
z
" transform="scale(0.015625)"/>
        <path id="DejaVuSans-2e" d="M 684 794 
L 1344 794 
L 1344 0 
L 684 0 
L 684 794 
z
" transform="scale(0.015625)"/>
       </defs>
       <use xlink:href="#DejaVuSans-30"/>
       <use xlink:href="#DejaVuSans-2e" x="63.623047"/>
       <use xlink:href="#DejaVuSans-30" x="95.410156"/>
       <use xlink:href="#DejaVuSans-30" x="159.033203"/>
       <use xlink:href="#DejaVuSans-30" x="222.65625"/>
      </g>
     </g>
    </g>
    <g id="xtick_2">
     <g id="line2d_3">
      <path d="M 213.224607 512.64 
L 213.224607 69.12 
" clip-path="url(#pb0c8891118)" style="fill: none; stroke: #b0b0b0; stroke-width: 0.8; stroke-linecap: square"/>
     </g>
     <g id="line2d_4">
      <g>
       <use xlink:href="#mc1a633a5db" x="213.224607" y="512.64" style="stroke: #000000; stroke-width: 0.8"/>
      </g>
     </g>
     <g id="text_2">
      <!-- 0.025 -->
      <g transform="translate(198.910544 527.238438) scale(0.1 -0.1)">
       <defs>
        <path id="DejaVuSans-32" d="M 1228 531 
L 3431 531 
L 3431 0 
L 469 0 
L 469 531 
Q 828 903 1448 1529 
Q 2069 2156 2228 2338 
Q 2531 2678 2651 2914 
Q 2772 3150 2772 3378 
Q 2772 3750 2511 3984 
Q 2250 4219 1831 4219 
Q 1534 4219 1204 4116 
Q 875 4013 500 3803 
L 500 4441 
Q 881 4594 1212 4672 
Q 1544 4750 1819 4750 
Q 2544 4750 2975 4387 
Q 3406 4025 3406 3419 
Q 3406 3131 3298 2873 
Q 3191 2616 2906 2266 
Q 2828 2175 2409 1742 
Q 1991 1309 1228 531 
z
" transform="scale(0.015625)"/>
        <path id="DejaVuSans-35" d="M 691 4666 
L 3169 4666 
L 3169 4134 
L 1269 4134 
L 1269 2991 
Q 1406 3038 1543 3061 
Q 1681 3084 1819 3084 
Q 2600 3084 3056 2656 
Q 3513 2228 3513 1497 
Q 3513 744 3044 326 
Q 2575 -91 1722 -91 
Q 1428 -91 1123 -41 
Q 819 9 494 109 
L 494 744 
Q 775 591 1075 516 
Q 1375 441 1709 441 
Q 2250 441 2565 725 
Q 2881 1009 2881 1497 
Q 2881 1984 2565 2268 
Q 2250 2553 1709 2553 
Q 1456 2553 1204 2497 
Q 953 2441 691 2322 
L 691 4666 
z
" transform="scale(0.015625)"/>
       </defs>
       <use xlink:href="#DejaVuSans-30"/>
       <use xlink:href="#DejaVuSans-2e" x="63.623047"/>
       <use xlink:href="#DejaVuSans-30" x="95.410156"/>
       <use xlink:href="#DejaVuSans-32" x="159.033203"/>
       <use xlink:href="#DejaVuSans-35" x="222.65625"/>
      </g>
     </g>
    </g>
    <g id="xtick_3">
     <g id="line2d_5">
      <path d="M 289.851905 512.64 
L 289.851905 69.12 
" clip-path="url(#pb0c8891118)" style="fill: none; stroke: #b0b0b0; stroke-width: 0.8; stroke-linecap: square"/>
     </g>
     <g id="line2d_6">
      <g>
       <use xlink:href="#mc1a633a5db" x="289.851905" y="512.64" style="stroke: #000000; stroke-width: 0.8"/>
      </g>
     </g>
     <g id="text_3">
      <!-- 0.050 -->
      <g transform="translate(275.537843 527.238438) scale(0.1 -0.1)">
       <use xlink:href="#DejaVuSans-30"/>
       <use xlink:href="#DejaVuSans-2e" x="63.623047"/>
       <use xlink:href="#DejaVuSans-30" x="95.410156"/>
       <use xlink:href="#DejaVuSans-35" x="159.033203"/>
       <use xlink:href="#DejaVuSans-30" x="222.65625"/>
      </g>
     </g>
    </g>
    <g id="xtick_4">
     <g id="line2d_7">
      <path d="M 366.479204 512.64 
L 366.479204 69.12 
" clip-path="url(#pb0c8891118)" style="fill: none; stroke: #b0b0b0; stroke-width: 0.8; stroke-linecap: square"/>
     </g>
     <g id="line2d_8">
      <g>
       <use xlink:href="#mc1a633a5db" x="366.479204" y="512.64" style="stroke: #000000; stroke-width: 0.8"/>
      </g>
     </g>
     <g id="text_4">
      <!-- 0.075 -->
      <g transform="translate(352.165141 527.238438) scale(0.1 -0.1)">
       <defs>
        <path id="DejaVuSans-37" d="M 525 4666 
L 3525 4666 
L 3525 4397 
L 1831 0 
L 1172 0 
L 2766 4134 
L 525 4134 
L 525 4666 
z
" transform="scale(0.015625)"/>
       </defs>
       <use xlink:href="#DejaVuSans-30"/>
       <use xlink:href="#DejaVuSans-2e" x="63.623047"/>
       <use xlink:href="#DejaVuSans-30" x="95.410156"/>
       <use xlink:href="#DejaVuSans-37" x="159.033203"/>
       <use xlink:href="#DejaVuSans-35" x="222.65625"/>
      </g>
     </g>
    </g>
    <g id="xtick_5">
     <g id="line2d_9">
      <path d="M 443.106503 512.64 
L 443.106503 69.12 
" clip-path="url(#pb0c8891118)" style="fill: none; stroke: #b0b0b0; stroke-width: 0.8; stroke-linecap: square"/>
     </g>
     <g id="line2d_10">
      <g>
       <use xlink:href="#mc1a633a5db" x="443.106503" y="512.64" style="stroke: #000000; stroke-width: 0.8"/>
      </g>
     </g>
     <g id="text_5">
      <!-- 0.100 -->
      <g transform="translate(428.79244 527.238438) scale(0.1 -0.1)">
       <defs>
        <path id="DejaVuSans-31" d="M 794 531 
L 1825 531 
L 1825 4091 
L 703 3866 
L 703 4441 
L 1819 4666 
L 2450 4666 
L 2450 531 
L 3481 531 
L 3481 0 
L 794 0 
L 794 531 
z
" transform="scale(0.015625)"/>
       </defs>
       <use xlink:href="#DejaVuSans-30"/>
       <use xlink:href="#DejaVuSans-2e" x="63.623047"/>
       <use xlink:href="#DejaVuSans-31" x="95.410156"/>
       <use xlink:href="#DejaVuSans-30" x="159.033203"/>
       <use xlink:href="#DejaVuSans-30" x="222.65625"/>
      </g>
     </g>
    </g>
    <g id="xtick_6">
     <g id="line2d_11">
      <path d="M 519.733801 512.64 
L 519.733801 69.12 
" clip-path="url(#pb0c8891118)" style="fill: none; stroke: #b0b0b0; stroke-width: 0.8; stroke-linecap: square"/>
     </g>
     <g id="line2d_12">
      <g>
       <use xlink:href="#mc1a633a5db" x="519.733801" y="512.64" style="stroke: #000000; stroke-width: 0.8"/>
      </g>
     </g>
     <g id="text_6">
      <!-- 0.125 -->
      <g transform="translate(505.419739 527.238438) scale(0.1 -0.1)">
       <use xlink:href="#DejaVuSans-30"/>
       <use xlink:href="#DejaVuSans-2e" x="63.623047"/>
       <use xlink:href="#DejaVuSans-31" x="95.410156"/>
       <use xlink:href="#DejaVuSans-32" x="159.033203"/>
       <use xlink:href="#DejaVuSans-35" x="222.65625"/>
      </g>
     </g>
    </g>
    <g id="xtick_7">
     <g id="line2d_13">
      <path d="M 596.3611 512.64 
L 596.3611 69.12 
" clip-path="url(#pb0c8891118)" style="fill: none; stroke: #b0b0b0; stroke-width: 0.8; stroke-linecap: square"/>
     </g>
     <g id="line2d_14">
      <g>
       <use xlink:href="#mc1a633a5db" x="596.3611" y="512.64" style="stroke: #000000; stroke-width: 0.8"/>
      </g>
     </g>
     <g id="text_7">
      <!-- 0.150 -->
      <g transform="translate(582.047037 527.238438) scale(0.1 -0.1)">
       <use xlink:href="#DejaVuSans-30"/>
       <use xlink:href="#DejaVuSans-2e" x="63.623047"/>
       <use xlink:href="#DejaVuSans-31" x="95.410156"/>
       <use xlink:href="#DejaVuSans-35" x="159.033203"/>
       <use xlink:href="#DejaVuSans-30" x="222.65625"/>
      </g>
     </g>
    </g>
    <g id="xtick_8">
     <g id="line2d_15">
      <path d="M 672.988398 512.64 
L 672.988398 69.12 
" clip-path="url(#pb0c8891118)" style="fill: none; stroke: #b0b0b0; stroke-width: 0.8; stroke-linecap: square"/>
     </g>
     <g id="line2d_16">
      <g>
       <use xlink:href="#mc1a633a5db" x="672.988398" y="512.64" style="stroke: #000000; stroke-width: 0.8"/>
      </g>
     </g>
     <g id="text_8">
      <!-- 0.175 -->
      <g transform="translate(658.674336 527.238438) scale(0.1 -0.1)">
       <use xlink:href="#DejaVuSans-30"/>
       <use xlink:href="#DejaVuSans-2e" x="63.623047"/>
       <use xlink:href="#DejaVuSans-31" x="95.410156"/>
       <use xlink:href="#DejaVuSans-37" x="159.033203"/>
       <use xlink:href="#DejaVuSans-35" x="222.65625"/>
      </g>
     </g>
    </g>
    <g id="xtick_9">
     <g id="line2d_17">
      <path d="M 749.615697 512.64 
L 749.615697 69.12 
" clip-path="url(#pb0c8891118)" style="fill: none; stroke: #b0b0b0; stroke-width: 0.8; stroke-linecap: square"/>
     </g>
     <g id="line2d_18">
      <g>
       <use xlink:href="#mc1a633a5db" x="749.615697" y="512.64" style="stroke: #000000; stroke-width: 0.8"/>
      </g>
     </g>
     <g id="text_9">
      <!-- 0.200 -->
      <g transform="translate(735.301634 527.238438) scale(0.1 -0.1)">
       <use xlink:href="#DejaVuSans-30"/>
       <use xlink:href="#DejaVuSans-2e" x="63.623047"/>
       <use xlink:href="#DejaVuSans-32" x="95.410156"/>
       <use xlink:href="#DejaVuSans-30" x="159.033203"/>
       <use xlink:href="#DejaVuSans-30" x="222.65625"/>
      </g>
     </g>
    </g>
    <g id="text_10">
     <!-- Risk-free rate -->
     <g transform="translate(382.01625 546.995312) scale(0.18 -0.18)">
      <defs>
       <path id="DejaVuSans-52" d="M 2841 2188 
Q 3044 2119 3236 1894 
Q 3428 1669 3622 1275 
L 4263 0 
L 3584 0 
L 2988 1197 
Q 2756 1666 2539 1819 
Q 2322 1972 1947 1972 
L 1259 1972 
L 1259 0 
L 628 0 
L 628 4666 
L 2053 4666 
Q 2853 4666 3247 4331 
Q 3641 3997 3641 3322 
Q 3641 2881 3436 2590 
Q 3231 2300 2841 2188 
z
M 1259 4147 
L 1259 2491 
L 2053 2491 
Q 2509 2491 2742 2702 
Q 2975 2913 2975 3322 
Q 2975 3731 2742 3939 
Q 2509 4147 2053 4147 
L 1259 4147 
z
" transform="scale(0.015625)"/>
       <path id="DejaVuSans-69" d="M 603 3500 
L 1178 3500 
L 1178 0 
L 603 0 
L 603 3500 
z
M 603 4863 
L 1178 4863 
L 1178 4134 
L 603 4134 
L 603 4863 
z
" transform="scale(0.015625)"/>
       <path id="DejaVuSans-73" d="M 2834 3397 
L 2834 2853 
Q 2591 2978 2328 3040 
Q 2066 3103 1784 3103 
Q 1356 3103 1142 2972 
Q 928 2841 928 2578 
Q 928 2378 1081 2264 
Q 1234 2150 1697 2047 
L 1894 2003 
Q 2506 1872 2764 1633 
Q 3022 1394 3022 966 
Q 3022 478 2636 193 
Q 2250 -91 1575 -91 
Q 1294 -91 989 -36 
Q 684 19 347 128 
L 347 722 
Q 666 556 975 473 
Q 1284 391 1588 391 
Q 1994 391 2212 530 
Q 2431 669 2431 922 
Q 2431 1156 2273 1281 
Q 2116 1406 1581 1522 
L 1381 1569 
Q 847 1681 609 1914 
Q 372 2147 372 2553 
Q 372 3047 722 3315 
Q 1072 3584 1716 3584 
Q 2034 3584 2315 3537 
Q 2597 3491 2834 3397 
z
" transform="scale(0.015625)"/>
       <path id="DejaVuSans-6b" d="M 581 4863 
L 1159 4863 
L 1159 1991 
L 2875 3500 
L 3609 3500 
L 1753 1863 
L 3688 0 
L 2938 0 
L 1159 1709 
L 1159 0 
L 581 0 
L 581 4863 
z
" transform="scale(0.015625)"/>
       <path id="DejaVuSans-2d" d="M 313 2009 
L 1997 2009 
L 1997 1497 
L 313 1497 
L 313 2009 
z
" transform="scale(0.015625)"/>
       <path id="DejaVuSans-66" d="M 2375 4863 
L 2375 4384 
L 1825 4384 
Q 1516 4384 1395 4259 
Q 1275 4134 1275 3809 
L 1275 3500 
L 2222 3500 
L 2222 3053 
L 1275 3053 
L 1275 0 
L 697 0 
L 697 3053 
L 147 3053 
L 147 3500 
L 697 3500 
L 697 3744 
Q 697 4328 969 4595 
Q 1241 4863 1831 4863 
L 2375 4863 
z
" transform="scale(0.015625)"/>
       <path id="DejaVuSans-72" d="M 2631 2963 
Q 2534 3019 2420 3045 
Q 2306 3072 2169 3072 
Q 1681 3072 1420 2755 
Q 1159 2438 1159 1844 
L 1159 0 
L 581 0 
L 581 3500 
L 1159 3500 
L 1159 2956 
Q 1341 3275 1631 3429 
Q 1922 3584 2338 3584 
Q 2397 3584 2469 3576 
Q 2541 3569 2628 3553 
L 2631 2963 
z
" transform="scale(0.015625)"/>
       <path id="DejaVuSans-65" d="M 3597 1894 
L 3597 1613 
L 953 1613 
Q 991 1019 1311 708 
Q 1631 397 2203 397 
Q 2534 397 2845 478 
Q 3156 559 3463 722 
L 3463 178 
Q 3153 47 2828 -22 
Q 2503 -91 2169 -91 
Q 1331 -91 842 396 
Q 353 884 353 1716 
Q 353 2575 817 3079 
Q 1281 3584 2069 3584 
Q 2775 3584 3186 3129 
Q 3597 2675 3597 1894 
z
M 3022 2063 
Q 3016 2534 2758 2815 
Q 2500 3097 2075 3097 
Q 1594 3097 1305 2825 
Q 1016 2553 972 2059 
L 3022 2063 
z
" transform="scale(0.015625)"/>
       <path id="DejaVuSans-20" transform="scale(0.015625)"/>
       <path id="DejaVuSans-61" d="M 2194 1759 
Q 1497 1759 1228 1600 
Q 959 1441 959 1056 
Q 959 750 1161 570 
Q 1363 391 1709 391 
Q 2188 391 2477 730 
Q 2766 1069 2766 1631 
L 2766 1759 
L 2194 1759 
z
M 3341 1997 
L 3341 0 
L 2766 0 
L 2766 531 
Q 2569 213 2275 61 
Q 1981 -91 1556 -91 
Q 1019 -91 701 211 
Q 384 513 384 1019 
Q 384 1609 779 1909 
Q 1175 2209 1959 2209 
L 2766 2209 
L 2766 2266 
Q 2766 2663 2505 2880 
Q 2244 3097 1772 3097 
Q 1472 3097 1187 3025 
Q 903 2953 641 2809 
L 641 3341 
Q 956 3463 1253 3523 
Q 1550 3584 1831 3584 
Q 2591 3584 2966 3190 
Q 3341 2797 3341 1997 
z
" transform="scale(0.015625)"/>
       <path id="DejaVuSans-74" d="M 1172 4494 
L 1172 3500 
L 2356 3500 
L 2356 3053 
L 1172 3053 
L 1172 1153 
Q 1172 725 1289 603 
Q 1406 481 1766 481 
L 2356 481 
L 2356 0 
L 1766 0 
Q 1100 0 847 248 
Q 594 497 594 1153 
L 594 3053 
L 172 3053 
L 172 3500 
L 594 3500 
L 594 4494 
L 1172 4494 
z
" transform="scale(0.015625)"/>
      </defs>
      <use xlink:href="#DejaVuSans-52"/>
      <use xlink:href="#DejaVuSans-69" x="69.482422"/>
      <use xlink:href="#DejaVuSans-73" x="97.265625"/>
      <use xlink:href="#DejaVuSans-6b" x="149.365234"/>
      <use xlink:href="#DejaVuSans-2d" x="207.275391"/>
      <use xlink:href="#DejaVuSans-66" x="243.359375"/>
      <use xlink:href="#DejaVuSans-72" x="278.564453"/>
      <use xlink:href="#DejaVuSans-65" x="317.427734"/>
      <use xlink:href="#DejaVuSans-65" x="378.951172"/>
      <use xlink:href="#DejaVuSans-20" x="440.474609"/>
      <use xlink:href="#DejaVuSans-72" x="472.261719"/>
      <use xlink:href="#DejaVuSans-61" x="513.375"/>
      <use xlink:href="#DejaVuSans-74" x="574.654297"/>
      <use xlink:href="#DejaVuSans-65" x="613.863281"/>
     </g>
    </g>
   </g>
   <g id="matplotlib.axis_2">
    <g id="ytick_1">
     <g id="line2d_19">
      <path d="M 108 481.572758 
L 777.6 481.572758 
" clip-path="url(#pb0c8891118)" style="fill: none; stroke: #b0b0b0; stroke-width: 0.8; stroke-linecap: square"/>
     </g>
     <g id="line2d_20">
      <defs>
       <path id="m2576a7962c" d="M 0 0 
L -3.5 0 
" style="stroke: #000000; stroke-width: 0.8"/>
      </defs>
      <g>
       <use xlink:href="#m2576a7962c" x="108" y="481.572758" style="stroke: #000000; stroke-width: 0.8"/>
      </g>
     </g>
     <g id="text_11">
      <!-- 0.002 -->
      <g transform="translate(72.371875 485.371976) scale(0.1 -0.1)">
       <use xlink:href="#DejaVuSans-30"/>
       <use xlink:href="#DejaVuSans-2e" x="63.623047"/>
       <use xlink:href="#DejaVuSans-30" x="95.410156"/>
       <use xlink:href="#DejaVuSans-30" x="159.033203"/>
       <use xlink:href="#DejaVuSans-32" x="222.65625"/>
      </g>
     </g>
    </g>
    <g id="ytick_2">
     <g id="line2d_21">
      <path d="M 108 417.016192 
L 777.6 417.016192 
" clip-path="url(#pb0c8891118)" style="fill: none; stroke: #b0b0b0; stroke-width: 0.8; stroke-linecap: square"/>
     </g>
     <g id="line2d_22">
      <g>
       <use xlink:href="#m2576a7962c" x="108" y="417.016192" style="stroke: #000000; stroke-width: 0.8"/>
      </g>
     </g>
     <g id="text_12">
      <!-- 0.004 -->
      <g transform="translate(72.371875 420.815411) scale(0.1 -0.1)">
       <defs>
        <path id="DejaVuSans-34" d="M 2419 4116 
L 825 1625 
L 2419 1625 
L 2419 4116 
z
M 2253 4666 
L 3047 4666 
L 3047 1625 
L 3713 1625 
L 3713 1100 
L 3047 1100 
L 3047 0 
L 2419 0 
L 2419 1100 
L 313 1100 
L 313 1709 
L 2253 4666 
z
" transform="scale(0.015625)"/>
       </defs>
       <use xlink:href="#DejaVuSans-30"/>
       <use xlink:href="#DejaVuSans-2e" x="63.623047"/>
       <use xlink:href="#DejaVuSans-30" x="95.410156"/>
       <use xlink:href="#DejaVuSans-30" x="159.033203"/>
       <use xlink:href="#DejaVuSans-34" x="222.65625"/>
      </g>
     </g>
    </g>
    <g id="ytick_3">
     <g id="line2d_23">
      <path d="M 108 352.459627 
L 777.6 352.459627 
" clip-path="url(#pb0c8891118)" style="fill: none; stroke: #b0b0b0; stroke-width: 0.8; stroke-linecap: square"/>
     </g>
     <g id="line2d_24">
      <g>
       <use xlink:href="#m2576a7962c" x="108" y="352.459627" style="stroke: #000000; stroke-width: 0.8"/>
      </g>
     </g>
     <g id="text_13">
      <!-- 0.006 -->
      <g transform="translate(72.371875 356.258846) scale(0.1 -0.1)">
       <defs>
        <path id="DejaVuSans-36" d="M 2113 2584 
Q 1688 2584 1439 2293 
Q 1191 2003 1191 1497 
Q 1191 994 1439 701 
Q 1688 409 2113 409 
Q 2538 409 2786 701 
Q 3034 994 3034 1497 
Q 3034 2003 2786 2293 
Q 2538 2584 2113 2584 
z
M 3366 4563 
L 3366 3988 
Q 3128 4100 2886 4159 
Q 2644 4219 2406 4219 
Q 1781 4219 1451 3797 
Q 1122 3375 1075 2522 
Q 1259 2794 1537 2939 
Q 1816 3084 2150 3084 
Q 2853 3084 3261 2657 
Q 3669 2231 3669 1497 
Q 3669 778 3244 343 
Q 2819 -91 2113 -91 
Q 1303 -91 875 529 
Q 447 1150 447 2328 
Q 447 3434 972 4092 
Q 1497 4750 2381 4750 
Q 2619 4750 2861 4703 
Q 3103 4656 3366 4563 
z
" transform="scale(0.015625)"/>
       </defs>
       <use xlink:href="#DejaVuSans-30"/>
       <use xlink:href="#DejaVuSans-2e" x="63.623047"/>
       <use xlink:href="#DejaVuSans-30" x="95.410156"/>
       <use xlink:href="#DejaVuSans-30" x="159.033203"/>
       <use xlink:href="#DejaVuSans-36" x="222.65625"/>
      </g>
     </g>
    </g>
    <g id="ytick_4">
     <g id="line2d_25">
      <path d="M 108 287.903062 
L 777.6 287.903062 
" clip-path="url(#pb0c8891118)" style="fill: none; stroke: #b0b0b0; stroke-width: 0.8; stroke-linecap: square"/>
     </g>
     <g id="line2d_26">
      <g>
       <use xlink:href="#m2576a7962c" x="108" y="287.903062" style="stroke: #000000; stroke-width: 0.8"/>
      </g>
     </g>
     <g id="text_14">
      <!-- 0.008 -->
      <g transform="translate(72.371875 291.702281) scale(0.1 -0.1)">
       <defs>
        <path id="DejaVuSans-38" d="M 2034 2216 
Q 1584 2216 1326 1975 
Q 1069 1734 1069 1313 
Q 1069 891 1326 650 
Q 1584 409 2034 409 
Q 2484 409 2743 651 
Q 3003 894 3003 1313 
Q 3003 1734 2745 1975 
Q 2488 2216 2034 2216 
z
M 1403 2484 
Q 997 2584 770 2862 
Q 544 3141 544 3541 
Q 544 4100 942 4425 
Q 1341 4750 2034 4750 
Q 2731 4750 3128 4425 
Q 3525 4100 3525 3541 
Q 3525 3141 3298 2862 
Q 3072 2584 2669 2484 
Q 3125 2378 3379 2068 
Q 3634 1759 3634 1313 
Q 3634 634 3220 271 
Q 2806 -91 2034 -91 
Q 1263 -91 848 271 
Q 434 634 434 1313 
Q 434 1759 690 2068 
Q 947 2378 1403 2484 
z
M 1172 3481 
Q 1172 3119 1398 2916 
Q 1625 2713 2034 2713 
Q 2441 2713 2670 2916 
Q 2900 3119 2900 3481 
Q 2900 3844 2670 4047 
Q 2441 4250 2034 4250 
Q 1625 4250 1398 4047 
Q 1172 3844 1172 3481 
z
" transform="scale(0.015625)"/>
       </defs>
       <use xlink:href="#DejaVuSans-30"/>
       <use xlink:href="#DejaVuSans-2e" x="63.623047"/>
       <use xlink:href="#DejaVuSans-30" x="95.410156"/>
       <use xlink:href="#DejaVuSans-30" x="159.033203"/>
       <use xlink:href="#DejaVuSans-38" x="222.65625"/>
      </g>
     </g>
    </g>
    <g id="ytick_5">
     <g id="line2d_27">
      <path d="M 108 223.346497 
L 777.6 223.346497 
" clip-path="url(#pb0c8891118)" style="fill: none; stroke: #b0b0b0; stroke-width: 0.8; stroke-linecap: square"/>
     </g>
     <g id="line2d_28">
      <g>
       <use xlink:href="#m2576a7962c" x="108" y="223.346497" style="stroke: #000000; stroke-width: 0.8"/>
      </g>
     </g>
     <g id="text_15">
      <!-- 0.010 -->
      <g transform="translate(72.371875 227.145716) scale(0.1 -0.1)">
       <use xlink:href="#DejaVuSans-30"/>
       <use xlink:href="#DejaVuSans-2e" x="63.623047"/>
       <use xlink:href="#DejaVuSans-30" x="95.410156"/>
       <use xlink:href="#DejaVuSans-31" x="159.033203"/>
       <use xlink:href="#DejaVuSans-30" x="222.65625"/>
      </g>
     </g>
    </g>
    <g id="ytick_6">
     <g id="line2d_29">
      <path d="M 108 158.789932 
L 777.6 158.789932 
" clip-path="url(#pb0c8891118)" style="fill: none; stroke: #b0b0b0; stroke-width: 0.8; stroke-linecap: square"/>
     </g>
     <g id="line2d_30">
      <g>
       <use xlink:href="#m2576a7962c" x="108" y="158.789932" style="stroke: #000000; stroke-width: 0.8"/>
      </g>
     </g>
     <g id="text_16">
      <!-- 0.012 -->
      <g transform="translate(72.371875 162.58915) scale(0.1 -0.1)">
       <use xlink:href="#DejaVuSans-30"/>
       <use xlink:href="#DejaVuSans-2e" x="63.623047"/>
       <use xlink:href="#DejaVuSans-30" x="95.410156"/>
       <use xlink:href="#DejaVuSans-31" x="159.033203"/>
       <use xlink:href="#DejaVuSans-32" x="222.65625"/>
      </g>
     </g>
    </g>
    <g id="ytick_7">
     <g id="line2d_31">
      <path d="M 108 94.233366 
L 777.6 94.233366 
" clip-path="url(#pb0c8891118)" style="fill: none; stroke: #b0b0b0; stroke-width: 0.8; stroke-linecap: square"/>
     </g>
     <g id="line2d_32">
      <g>
       <use xlink:href="#m2576a7962c" x="108" y="94.233366" style="stroke: #000000; stroke-width: 0.8"/>
      </g>
     </g>
     <g id="text_17">
      <!-- 0.014 -->
      <g transform="translate(72.371875 98.032585) scale(0.1 -0.1)">
       <use xlink:href="#DejaVuSans-30"/>
       <use xlink:href="#DejaVuSans-2e" x="63.623047"/>
       <use xlink:href="#DejaVuSans-30" x="95.410156"/>
       <use xlink:href="#DejaVuSans-31" x="159.033203"/>
       <use xlink:href="#DejaVuSans-34" x="222.65625"/>
      </g>
     </g>
    </g>
    <g id="text_18">
     <!-- Price/strike ratio -->
     <g transform="translate(64.628438 364.318594) rotate(-90) scale(0.18 -0.18)">
      <defs>
       <path id="DejaVuSans-50" d="M 1259 4147 
L 1259 2394 
L 2053 2394 
Q 2494 2394 2734 2622 
Q 2975 2850 2975 3272 
Q 2975 3691 2734 3919 
Q 2494 4147 2053 4147 
L 1259 4147 
z
M 628 4666 
L 2053 4666 
Q 2838 4666 3239 4311 
Q 3641 3956 3641 3272 
Q 3641 2581 3239 2228 
Q 2838 1875 2053 1875 
L 1259 1875 
L 1259 0 
L 628 0 
L 628 4666 
z
" transform="scale(0.015625)"/>
       <path id="DejaVuSans-63" d="M 3122 3366 
L 3122 2828 
Q 2878 2963 2633 3030 
Q 2388 3097 2138 3097 
Q 1578 3097 1268 2742 
Q 959 2388 959 1747 
Q 959 1106 1268 751 
Q 1578 397 2138 397 
Q 2388 397 2633 464 
Q 2878 531 3122 666 
L 3122 134 
Q 2881 22 2623 -34 
Q 2366 -91 2075 -91 
Q 1284 -91 818 406 
Q 353 903 353 1747 
Q 353 2603 823 3093 
Q 1294 3584 2113 3584 
Q 2378 3584 2631 3529 
Q 2884 3475 3122 3366 
z
" transform="scale(0.015625)"/>
       <path id="DejaVuSans-2f" d="M 1625 4666 
L 2156 4666 
L 531 -594 
L 0 -594 
L 1625 4666 
z
" transform="scale(0.015625)"/>
       <path id="DejaVuSans-6f" d="M 1959 3097 
Q 1497 3097 1228 2736 
Q 959 2375 959 1747 
Q 959 1119 1226 758 
Q 1494 397 1959 397 
Q 2419 397 2687 759 
Q 2956 1122 2956 1747 
Q 2956 2369 2687 2733 
Q 2419 3097 1959 3097 
z
M 1959 3584 
Q 2709 3584 3137 3096 
Q 3566 2609 3566 1747 
Q 3566 888 3137 398 
Q 2709 -91 1959 -91 
Q 1206 -91 779 398 
Q 353 888 353 1747 
Q 353 2609 779 3096 
Q 1206 3584 1959 3584 
z
" transform="scale(0.015625)"/>
      </defs>
      <use xlink:href="#DejaVuSans-50"/>
      <use xlink:href="#DejaVuSans-72" x="58.552734"/>
      <use xlink:href="#DejaVuSans-69" x="99.666016"/>
      <use xlink:href="#DejaVuSans-63" x="127.449219"/>
      <use xlink:href="#DejaVuSans-65" x="182.429688"/>
      <use xlink:href="#DejaVuSans-2f" x="243.953125"/>
      <use xlink:href="#DejaVuSans-73" x="277.644531"/>
      <use xlink:href="#DejaVuSans-74" x="329.744141"/>
      <use xlink:href="#DejaVuSans-72" x="368.953125"/>
      <use xlink:href="#DejaVuSans-69" x="410.066406"/>
      <use xlink:href="#DejaVuSans-6b" x="437.849609"/>
      <use xlink:href="#DejaVuSans-65" x="492.134766"/>
      <use xlink:href="#DejaVuSans-20" x="553.658203"/>
      <use xlink:href="#DejaVuSans-72" x="585.445312"/>
      <use xlink:href="#DejaVuSans-61" x="626.558594"/>
      <use xlink:href="#DejaVuSans-74" x="687.837891"/>
      <use xlink:href="#DejaVuSans-69" x="727.046875"/>
      <use xlink:href="#DejaVuSans-6f" x="754.830078"/>
     </g>
    </g>
   </g>
   <g id="line2d_33">
    <path d="M 138.436364 99.7169 
L 139.96891 123.109972 
L 139.96891 97.28745 
L 140.275419 131.016115 
L 142.114474 110.662319 
L 142.420983 108.88331 
L 143.340511 116.45577 
L 143.953529 112.895798 
L 144.873057 139.83282 
L 148.244658 100.864467 
L 148.857677 110.209383 
L 149.470694 109.870019 
L 151.00324 120.314794 
L 153.148805 130.410766 
L 155.294369 130.812959 
L 157.746443 135.871497 
L 159.585497 154.182253 
L 159.892008 149.163697 
L 160.505025 110.07591 
L 165.409172 113.669401 
L 165.715681 89.28 
L 167.248227 141.633353 
L 170.31332 104.300045 
L 171.845866 156.638157 
L 172.765395 177.063949 
L 173.378412 163.781699 
L 173.684921 145.842623 
L 174.60445 166.264749 
L 174.60445 153.353458 
L 175.217467 146.524238 
L 175.523976 151.17902 
L 185.94529 176.978064 
L 187.171325 172.9727 
L 187.784342 153.215986 
L 189.010383 142.750077 
L 189.010383 191.167449 
L 190.849435 196.443542 
L 192.381984 177.702215 
L 192.995001 154.710794 
L 193.30151 169.03717 
L 195.140562 177.524371 
L 196.673111 152.31339 
L 197.592637 153.323486 
L 199.125186 163.610289 
L 201.577256 165.211244 
L 203.722822 165.391041 
L 204.335839 177.890881 
L 204.948857 200.073257 
L 205.255365 169.202538 
L 205.868388 207.522735 
L 205.868388 194.611594 
L 206.174897 199.246235 
L 208.013949 162.493414 
L 209.546498 185.658049 
L 210.772533 178.363237 
L 211.079042 228.18439 
L 211.38555 190.853818 
L 213.224608 196.042822 
L 213.837625 173.023925 
L 216.2897 203.598989 
L 216.902718 193.487776 
L 219.048284 177.458657 
L 219.354793 246.641336 
L 226.711013 196.218021 
L 227.937047 185.651195 
L 229.776105 216.598601 
L 232.534689 222.658396 
L 232.841192 233.731548 
L 233.454209 220.370957 
L 233.760723 205.620925 
L 234.986758 214.402759 
L 235.293273 199.651885 
L 236.212793 229.637413 
L 237.132325 198.292504 
L 238.971377 238.887635 
L 241.116943 242.12637 
L 241.423457 217.687909 
L 242.342978 215.383305 
L 242.955995 227.833362 
L 244.488544 208.92324 
L 245.408076 216.296423 
L 245.408076 213.06851 
L 246.634111 241.18761 
L 247.247128 227.809674 
L 248.779677 247.619957 
L 251.844764 212.9856 
L 252.764295 262.30656 
L 256.135897 212.882339 
L 257.974949 217.89864 
L 258.587966 233.55665 
L 258.89448 222.018297 
L 258.89448 254.296525 
L 259.200983 262.124868 
L 259.507498 231.219248 
L 260.120515 198.457662 
L 261.653064 221.454614 
L 262.572584 244.933963 
L 263.185602 254.130315 
L 264.411648 214.419864 
L 265.024665 239.752865 
L 265.944186 237.403198 
L 271.461353 271.685836 
L 271.767867 253.683601 
L 274.219937 251.68349 
L 276.058989 272.770124 
L 276.978521 241.34895 
L 278.204555 250.020939 
L 278.51107 222.330937 
L 280.043607 251.725335 
L 280.043607 271.092362 
L 281.576156 242.381081 
L 282.189174 267.692347 
L 282.802191 263.952607 
L 283.108705 252.398653 
L 283.108705 278.221445 
L 283.721723 271.25262 
L 284.33474 244.915866 
L 284.947758 254.084651 
L 285.560775 282.619592 
L 286.78681 278.358375 
L 288.012856 257.954918 
L 288.932376 287.840041 
L 290.158411 283.570317 
L 291.997474 243.267955 
L 293.223509 261.585385 
L 293.836526 257.831516 
L 294.143029 236.58748 
L 294.449544 254.077136 
L 295.062561 260.005202 
L 295.369075 274.266315 
L 297.208127 262.994577 
L 297.821145 252.780223 
L 299.353694 285.34163 
L 300.579728 274.590197 
L 301.49926 252.806256 
L 303.644815 300.957088 
L 303.95133 273.251198 
L 304.257833 281.051104 
L 304.257833 268.139993 
L 304.564347 285.623006 
L 305.483879 296.110048 
L 305.790382 245.808181 
L 309.161983 276.711577 
L 309.468497 265.141148 
L 312.227081 273.974237 
L 314.372636 289.79993 
L 315.905185 302.94274 
L 317.13122 276.010753 
L 317.744237 301.277423 
L 318.050751 305.841028 
L 318.357266 281.353793 
L 318.663769 279.461301 
L 318.970283 280.796423 
L 319.889803 307.395628 
L 322.648387 300.031074 
L 322.648387 309.714542 
L 324.180936 309.920283 
L 326.019988 311.451841 
L 328.778583 287.913932 
L 329.698104 301.583374 
L 329.698104 301.583374 
L 329.698104 291.899966 
L 329.698104 308.03908 
L 330.004618 309.367317 
L 330.31111 291.328347 
L 331.230653 301.767335 
L 334.295728 285.981519 
L 338.586861 281.925352 
L 339.19989 303.9377 
L 340.425924 280.175743 
L 340.425924 299.542665 
L 340.732439 287.953072 
L 341.958474 286.782147 
L 343.491023 309.52281 
L 345.023572 316.119504 
L 345.636578 315.529141 
L 346.249606 321.393658 
L 349.621196 297.147966 
L 355.751392 326.659304 
L 357.590433 305.479148 
L 357.590433 311.934989 
L 357.896947 316.473703 
L 358.203462 304.873424 
L 358.509976 309.411988 
L 359.429496 306.887153 
L 360.349017 320.499884 
L 360.655531 331.492741 
L 361.881566 304.450173 
L 363.720629 318.753672 
L 365.55967 323.367014 
L 366.172699 313.067962 
L 370.770323 335.863261 
L 371.076837 308.115797 
L 371.383352 338.469052 
L 371.689866 339.771827 
L 372.609387 340.450645 
L 375.674485 308.27147 
L 375.674485 347.005599 
L 375.674485 321.182896 
L 376.594005 344.44941 
L 376.594005 363.816347 
L 376.594005 334.765746 
L 379.965618 323.226988 
L 381.498144 329.712139 
L 381.498144 326.484271 
L 384.869756 311.684712 
L 387.321826 338.174179 
L 390.99993 343.993633 
L 391.612959 333.663512 
L 391.612959 320.75213 
L 391.919473 347.865102 
L 394.065028 356.892313 
L 395.597577 350.423335 
L 397.130126 347.177761 
L 400.195224 327.761028 
L 400.501716 345.1853 
L 402.034265 341.924711 
L 402.034265 345.152714 
L 404.179843 341.225751 
L 404.179843 331.542252 
L 404.792849 353.474381 
L 405.405877 381.861705 
L 406.018883 355.375004 
L 406.631912 354.710224 
L 408.470953 346.25597 
L 410.003502 352.65486 
L 410.003502 330.06004 
L 410.923045 362.94772 
L 411.536051 329.998835 
L 412.762086 338.33872 
L 413.375114 360.260613 
L 415.214155 345.326304 
L 415.827184 360.78968 
L 418.892282 354.171853 
L 419.505288 359.947102 
L 419.811802 357.992879 
L 420.424831 357.311626 
L 422.570386 372.674296 
L 422.570386 369.446413 
L 423.796421 364.848613 
L 424.409449 373.845973 
L 424.715941 352.521793 
L 426.24849 371.783214 
L 427.168033 349.768626 
L 431.152652 375.933969 
L 433.911235 361.503972 
L 435.13727 379.473815 
L 435.750276 372.318458 
L 438.50886 386.91417 
L 440.041409 348.033687 
L 441.267444 382.12796 
L 441.267444 388.583635 
L 442.186964 395.592578 
L 444.332542 362.44688 
L 444.332542 375.358262 
L 444.639056 392.756095 
L 446.784611 372.511619 
L 446.784611 385.42285 
L 447.39764 362.114641 
L 447.39764 368.570241 
L 448.010646 371.083818 
L 450.156224 360.508756 
L 450.462715 368.219724 
L 452.608293 377.001528 
L 453.527813 393.673662 
L 459.65801 383.198494 
L 459.65801 392.881993 
L 461.803565 366.119493 
L 465.481669 384.31603 
L 467.627247 386.579931 
L 469.772802 359.784755 
L 471.305351 369.229084 
L 471.611865 376.927487 
L 472.531385 370.971268 
L 472.531385 377.426973 
L 473.144414 389.594408 
L 473.144414 383.138807 
L 473.450906 381.152554 
L 474.063934 403.00251 
L 475.596484 415.662142 
L 475.596484 389.839484 
L 475.902975 413.674551 
L 475.902975 400.76329 
L 476.516004 393.559774 
L 476.822518 420.622092 
L 478.048553 390.073002 
L 478.048553 370.70614 
L 480.194108 376.146309 
L 482.952692 396.961368 
L 482.952692 400.18919 
L 482.952692 367.910812 
L 483.259206 407.880724 
L 484.178726 414.815324 
L 486.01779 373.806683 
L 486.324304 407.319115 
L 489.082888 399.051438 
L 491.228443 404.446409 
L 491.841472 390.769301 
L 493.374021 393.693578 
L 493.374021 403.376971 
L 493.680512 398.151156 
L 494.293541 400.610427 
L 496.132582 401.528039 
L 497.358639 419.351273 
L 497.971645 392.755659 
L 499.504194 402.11774 
L 500.730229 400.566146 
L 502.262778 409.920051 
L 502.262778 413.147903 
L 502.875784 389.774491 
L 503.488813 411.589982 
L 505.940882 405.237612 
L 506.247397 393.548862 
L 506.553911 407.682544 
L 507.779946 396.431098 
L 508.08646 397.652707 
L 508.08646 400.88053 
L 510.232015 415.881575 
L 511.764564 412.296637 
L 512.071078 416.743619 
L 512.684084 419.181395 
L 516.055697 403.526377 
L 517.281732 411.619878 
L 517.894738 401.140411 
L 518.814281 408.014618 
L 519.120772 425.368832 
L 520.653344 418.530339 
L 522.18587 398.77612 
L 522.798899 407.657983 
L 524.024911 418.96378 
L 528.009552 418.568171 
L 528.009552 434.707322 
L 528.622581 411.304082 
L 531.687679 423.390613 
L 533.833234 422.157273 
L 535.978789 398.320538 
L 535.978789 433.826573 
L 537.511316 397.88914 
L 539.656916 432.138538 
L 541.189442 405.874134 
L 541.802471 411.506185 
L 541.802471 411.506185 
L 542.108986 415.935972 
L 542.721969 431.250521 
L 546.093581 425.088885 
L 548.545651 395.945484 
L 549.771708 426.559155 
L 550.384737 425.72579 
L 550.384737 435.409296 
L 551.304234 438.999743 
L 551.917263 434.936827 
L 552.530292 411.506185 
L 553.756304 419.516085 
L 554.062818 417.483192 
L 555.901904 431.105595 
L 556.514888 410.898312 
L 558.353974 434.195789 
L 560.806043 427.591218 
L 561.112558 432.01019 
L 566.016696 421.992814 
L 566.323211 429.636467 
L 571.22735 422.799709 
L 571.533864 433.66827 
L 572.453361 430.767027 
L 572.759876 425.495805 
L 573.372905 434.319867 
L 573.985933 423.776159 
L 577.357546 452.925091 
L 578.277043 427.419154 
L 579.503101 441.826245 
L 583.794211 400.235951 
L 585.939766 427.845644 
L 588.69835 415.836107 
L 590.230922 434.622076 
L 590.230922 457.216797 
L 592.682991 453.69601 
L 592.989505 438.729888 
L 593.602534 424.936308 
L 594.215517 420.825534 
L 594.828546 410.258408 
L 596.054603 447.223049 
L 597.58713 433.7101 
L 600.652228 458.31659 
L 602.184754 448.018574 
L 602.797783 447.125936 
L 605.556367 457.626175 
L 606.47591 451.43964 
L 607.088939 440.858806 
L 607.088939 460.225758 
L 607.395453 435.568088 
L 607.701922 452.87201 
L 609.234494 445.782127 
L 611.380049 434.558045 
L 612.606106 442.435103 
L 613.219089 435.07523 
L 616.590702 438.159419 
L 616.897216 468.369596 
L 616.897216 436.091309 
L 617.816759 439.569243 
L 622.414384 440.797135 
L 623.94691 459.488905 
L 625.785996 466.419913 
L 628.851094 442.451817 
L 630.383621 435.303126 
L 630.996649 444.062685 
L 631.303164 464.581307 
L 633.755233 454.42171 
L 635.287759 460.170768 
L 637.739829 453.221324 
L 639.885384 464.48124 
L 640.804927 455.009735 
L 644.483054 452.614548 
L 644.483054 439.703287 
L 648.467649 448.10948 
L 650.613204 446.416793 
L 654.291331 453.640367 
L 655.210874 463.51202 
L 656.130372 460.470849 
L 657.049915 467.111681 
L 657.356429 471.476858 
L 659.808499 477.341622 
L 662.873597 466.097481 
L 664.406123 468.538715 
L 666.24521 478.563802 
L 666.24521 465.652496 
L 667.471221 473.408549 
L 668.08425 478.899446 
L 668.697279 471.478421 
L 670.842834 456.796846 
L 672.681875 460.345199 
L 672.681875 463.573067 
L 672.988389 467.929646 
L 674.827475 458.559772 
L 676.053487 466.297052 
L 676.97303 453.538263 
L 679.4251 459.31745 
L 680.038128 461.567492 
L 680.957626 471.397014 
L 681.877169 471.541542 
L 685.248782 480.666243 
L 687.394337 459.466013 
L 690.15292 479.230679 
L 694.137516 480.857314 
L 696.8961 474.766524 
L 697.509129 480.225504 
L 697.815643 474.885185 
L 697.815643 484.56866 
L 698.428672 483.57101 
L 698.735186 475.002357 
L 701.187255 471.003712 
L 701.49377 468.889254 
L 702.106753 454.976269 
L 702.413267 472.228275 
L 703.33281 472.337999 
L 703.945839 490.701344 
L 704.558822 480.01354 
L 706.091394 479.113897 
L 706.397909 473.768911 
L 708.849978 479.420795 
L 710.382504 462.370412 
L 712.22159 465.790531 
L 712.22159 488.385286 
L 712.834574 471.232969 
L 713.141088 465.884413 
L 715.286689 467.173675 
L 717.738758 479.242996 
L 718.96477 486.887649 
L 718.96477 477.204181 
L 722.336382 489.336887 
L 722.642897 474.299699 
L 723.255926 489.414498 
L 723.562394 467.921214 
L 725.707995 491.766212 
L 728.773093 489.84942 
L 729.079562 487.720168 
L 729.692591 477.005452 
L 730.918648 484.624533 
L 733.064203 482.619488 
L 734.596729 475.187844 
L 734.903244 469.827631 
L 735.209758 470.922914 
L 735.822787 492.48 
L 735.822787 479.56866 
L 736.129301 480.663492 
L 736.129301 480.663492 
L 741.339954 489.566605 
L 742.872481 478.885152 
L 745.018081 470.379959 
L 745.32455 484.381159 
L 745.631064 475.78742 
L 747.163636 478.005951 
L 747.163636 478.005951 
" clip-path="url(#pb0c8891118)" style="fill: none; stroke: #1f77b4; stroke-width: 2; stroke-linecap: square"/>
   </g>
   <g id="line2d_34">
    <path d="M 138.436364 165.534826 
L 149.470694 176.974546 
L 160.505025 188.106678 
L 173.684921 201.010243 
L 175.523976 202.777438 
L 193.30151 219.455976 
L 205.868388 230.813839 
L 205.868388 230.813839 
L 216.902718 240.501666 
L 227.937047 249.931386 
L 238.971377 259.110723 
L 251.844764 269.510406 
L 263.185602 278.405331 
L 276.058989 288.206791 
L 288.012856 297.036077 
L 300.579728 306.041704 
L 312.227081 314.144118 
L 326.019988 323.442003 
L 339.19989 332.035516 
L 349.621196 338.633774 
L 365.55967 348.398513 
L 376.594005 354.934077 
L 376.594005 354.934077 
L 391.612959 363.542126 
L 391.612959 363.542126 
L 404.179843 370.497228 
L 404.179843 370.497228 
L 415.827184 376.746982 
L 427.168033 382.655599 
L 442.186964 390.218349 
L 453.527813 395.736377 
L 469.772802 403.359821 
L 484.178726 409.851195 
L 499.504194 416.487826 
L 512.684084 421.980038 
L 528.622581 428.36307 
L 542.721969 433.780722 
L 558.353974 439.543721 
L 573.985933 445.058156 
L 590.230922 450.534112 
L 590.230922 450.534112 
L 607.088939 455.951329 
L 607.088939 455.951329 
L 622.414384 460.649076 
L 637.739829 465.137956 
L 655.210874 470.009473 
L 670.842834 474.153225 
L 687.394337 478.327752 
L 706.091394 482.789817 
L 723.562394 486.725452 
L 741.339954 490.507804 
L 747.163636 491.699656 
L 747.163636 491.699656 
" clip-path="url(#pb0c8891118)" style="fill: none; stroke: #ff7f0e; stroke-width: 2; stroke-linecap: square"/>
   </g>
   <g id="patch_3">
    <path d="M 108 512.64 
L 108 69.12 
" style="fill: none; stroke: #000000; stroke-width: 0.8; stroke-linejoin: miter; stroke-linecap: square"/>
   </g>
   <g id="patch_4">
    <path d="M 777.6 512.64 
L 777.6 69.12 
" style="fill: none; stroke: #000000; stroke-width: 0.8; stroke-linejoin: miter; stroke-linecap: square"/>
   </g>
   <g id="patch_5">
    <path d="M 108 512.64 
L 777.6 512.64 
" style="fill: none; stroke: #000000; stroke-width: 0.8; stroke-linejoin: miter; stroke-linecap: square"/>
   </g>
   <g id="patch_6">
    <path d="M 108 69.12 
L 777.6 69.12 
" style="fill: none; stroke: #000000; stroke-width: 0.8; stroke-linejoin: miter; stroke-linecap: square"/>
   </g>
   <g id="text_19">
    <!-- Price by Risk-free rate. Moneyness=1.1 -->
    <g transform="translate(245.539062 63.12) scale(0.2 -0.2)">
     <defs>
      <path id="DejaVuSans-62" d="M 3116 1747 
Q 3116 2381 2855 2742 
Q 2594 3103 2138 3103 
Q 1681 3103 1420 2742 
Q 1159 2381 1159 1747 
Q 1159 1113 1420 752 
Q 1681 391 2138 391 
Q 2594 391 2855 752 
Q 3116 1113 3116 1747 
z
M 1159 2969 
Q 1341 3281 1617 3432 
Q 1894 3584 2278 3584 
Q 2916 3584 3314 3078 
Q 3713 2572 3713 1747 
Q 3713 922 3314 415 
Q 2916 -91 2278 -91 
Q 1894 -91 1617 61 
Q 1341 213 1159 525 
L 1159 0 
L 581 0 
L 581 4863 
L 1159 4863 
L 1159 2969 
z
" transform="scale(0.015625)"/>
      <path id="DejaVuSans-79" d="M 2059 -325 
Q 1816 -950 1584 -1140 
Q 1353 -1331 966 -1331 
L 506 -1331 
L 506 -850 
L 844 -850 
Q 1081 -850 1212 -737 
Q 1344 -625 1503 -206 
L 1606 56 
L 191 3500 
L 800 3500 
L 1894 763 
L 2988 3500 
L 3597 3500 
L 2059 -325 
z
" transform="scale(0.015625)"/>
      <path id="DejaVuSans-4d" d="M 628 4666 
L 1569 4666 
L 2759 1491 
L 3956 4666 
L 4897 4666 
L 4897 0 
L 4281 0 
L 4281 4097 
L 3078 897 
L 2444 897 
L 1241 4097 
L 1241 0 
L 628 0 
L 628 4666 
z
" transform="scale(0.015625)"/>
      <path id="DejaVuSans-6e" d="M 3513 2113 
L 3513 0 
L 2938 0 
L 2938 2094 
Q 2938 2591 2744 2837 
Q 2550 3084 2163 3084 
Q 1697 3084 1428 2787 
Q 1159 2491 1159 1978 
L 1159 0 
L 581 0 
L 581 3500 
L 1159 3500 
L 1159 2956 
Q 1366 3272 1645 3428 
Q 1925 3584 2291 3584 
Q 2894 3584 3203 3211 
Q 3513 2838 3513 2113 
z
" transform="scale(0.015625)"/>
      <path id="DejaVuSans-3d" d="M 678 2906 
L 4684 2906 
L 4684 2381 
L 678 2381 
L 678 2906 
z
M 678 1631 
L 4684 1631 
L 4684 1100 
L 678 1100 
L 678 1631 
z
" transform="scale(0.015625)"/>
     </defs>
     <use xlink:href="#DejaVuSans-50"/>
     <use xlink:href="#DejaVuSans-72" x="58.552734"/>
     <use xlink:href="#DejaVuSans-69" x="99.666016"/>
     <use xlink:href="#DejaVuSans-63" x="127.449219"/>
     <use xlink:href="#DejaVuSans-65" x="182.429688"/>
     <use xlink:href="#DejaVuSans-20" x="243.953125"/>
     <use xlink:href="#DejaVuSans-62" x="275.740234"/>
     <use xlink:href="#DejaVuSans-79" x="339.216797"/>
     <use xlink:href="#DejaVuSans-20" x="398.396484"/>
     <use xlink:href="#DejaVuSans-52" x="430.183594"/>
     <use xlink:href="#DejaVuSans-69" x="499.666016"/>
     <use xlink:href="#DejaVuSans-73" x="527.449219"/>
     <use xlink:href="#DejaVuSans-6b" x="579.548828"/>
     <use xlink:href="#DejaVuSans-2d" x="637.458984"/>
     <use xlink:href="#DejaVuSans-66" x="673.542969"/>
     <use xlink:href="#DejaVuSans-72" x="708.748047"/>
     <use xlink:href="#DejaVuSans-65" x="747.611328"/>
     <use xlink:href="#DejaVuSans-65" x="809.134766"/>
     <use xlink:href="#DejaVuSans-20" x="870.658203"/>
     <use xlink:href="#DejaVuSans-72" x="902.445312"/>
     <use xlink:href="#DejaVuSans-61" x="943.558594"/>
     <use xlink:href="#DejaVuSans-74" x="1004.837891"/>
     <use xlink:href="#DejaVuSans-65" x="1044.046875"/>
     <use xlink:href="#DejaVuSans-2e" x="1105.570312"/>
     <use xlink:href="#DejaVuSans-20" x="1137.357422"/>
     <use xlink:href="#DejaVuSans-4d" x="1169.144531"/>
     <use xlink:href="#DejaVuSans-6f" x="1255.423828"/>
     <use xlink:href="#DejaVuSans-6e" x="1316.605469"/>
     <use xlink:href="#DejaVuSans-65" x="1379.984375"/>
     <use xlink:href="#DejaVuSans-79" x="1441.507812"/>
     <use xlink:href="#DejaVuSans-6e" x="1500.6875"/>
     <use xlink:href="#DejaVuSans-65" x="1564.066406"/>
     <use xlink:href="#DejaVuSans-73" x="1625.589844"/>
     <use xlink:href="#DejaVuSans-73" x="1677.689453"/>
     <use xlink:href="#DejaVuSans-3d" x="1729.789062"/>
     <use xlink:href="#DejaVuSans-31" x="1813.578125"/>
     <use xlink:href="#DejaVuSans-2e" x="1877.201172"/>
     <use xlink:href="#DejaVuSans-31" x="1908.988281"/>
    </g>
   </g>
   <g id="legend_1">
    <g id="patch_7">
     <path d="M 598.581563 136.36125 
L 765 136.36125 
Q 768.6 136.36125 768.6 132.76125 
L 768.6 81.72 
Q 768.6 78.12 765 78.12 
L 598.581563 78.12 
Q 594.981563 78.12 594.981563 81.72 
L 594.981563 132.76125 
Q 594.981563 136.36125 598.581563 136.36125 
z
" style="fill: #ffffff; opacity: 0.8; stroke: #cccccc; stroke-linejoin: miter"/>
    </g>
    <g id="line2d_35">
     <path d="M 602.181563 92.697188 
L 620.181563 92.697188 
L 638.181563 92.697188 
" style="fill: none; stroke: #1f77b4; stroke-width: 2; stroke-linecap: square"/>
    </g>
    <g id="text_20">
     <!-- Monte Carlo -->
     <g transform="translate(652.581563 98.997188) scale(0.18 -0.18)">
      <defs>
       <path id="DejaVuSans-43" d="M 4122 4306 
L 4122 3641 
Q 3803 3938 3442 4084 
Q 3081 4231 2675 4231 
Q 1875 4231 1450 3742 
Q 1025 3253 1025 2328 
Q 1025 1406 1450 917 
Q 1875 428 2675 428 
Q 3081 428 3442 575 
Q 3803 722 4122 1019 
L 4122 359 
Q 3791 134 3420 21 
Q 3050 -91 2638 -91 
Q 1578 -91 968 557 
Q 359 1206 359 2328 
Q 359 3453 968 4101 
Q 1578 4750 2638 4750 
Q 3056 4750 3426 4639 
Q 3797 4528 4122 4306 
z
" transform="scale(0.015625)"/>
       <path id="DejaVuSans-6c" d="M 603 4863 
L 1178 4863 
L 1178 0 
L 603 0 
L 603 4863 
z
" transform="scale(0.015625)"/>
      </defs>
      <use xlink:href="#DejaVuSans-4d"/>
      <use xlink:href="#DejaVuSans-6f" x="86.279297"/>
      <use xlink:href="#DejaVuSans-6e" x="147.460938"/>
      <use xlink:href="#DejaVuSans-74" x="210.839844"/>
      <use xlink:href="#DejaVuSans-65" x="250.048828"/>
      <use xlink:href="#DejaVuSans-20" x="311.572266"/>
      <use xlink:href="#DejaVuSans-43" x="343.359375"/>
      <use xlink:href="#DejaVuSans-61" x="413.183594"/>
      <use xlink:href="#DejaVuSans-72" x="474.462891"/>
      <use xlink:href="#DejaVuSans-6c" x="515.576172"/>
      <use xlink:href="#DejaVuSans-6f" x="543.359375"/>
     </g>
    </g>
    <g id="line2d_36">
     <path d="M 602.181563 119.117813 
L 620.181563 119.117813 
L 638.181563 119.117813 
" style="fill: none; stroke: #ff7f0e; stroke-width: 2; stroke-linecap: square"/>
    </g>
    <g id="text_21">
     <!-- Positive net -->
     <g transform="translate(652.581563 125.417813) scale(0.18 -0.18)">
      <defs>
       <path id="DejaVuSans-76" d="M 191 3500 
L 800 3500 
L 1894 563 
L 2988 3500 
L 3597 3500 
L 2284 0 
L 1503 0 
L 191 3500 
z
" transform="scale(0.015625)"/>
      </defs>
      <use xlink:href="#DejaVuSans-50"/>
      <use xlink:href="#DejaVuSans-6f" x="56.677734"/>
      <use xlink:href="#DejaVuSans-73" x="117.859375"/>
      <use xlink:href="#DejaVuSans-69" x="169.958984"/>
      <use xlink:href="#DejaVuSans-74" x="197.742188"/>
      <use xlink:href="#DejaVuSans-69" x="236.951172"/>
      <use xlink:href="#DejaVuSans-76" x="264.734375"/>
      <use xlink:href="#DejaVuSans-65" x="323.914062"/>
      <use xlink:href="#DejaVuSans-20" x="385.4375"/>
      <use xlink:href="#DejaVuSans-6e" x="417.224609"/>
      <use xlink:href="#DejaVuSans-65" x="480.603516"/>
      <use xlink:href="#DejaVuSans-74" x="542.126953"/>
     </g>
    </g>
   </g>
  </g>
 </g>
 <defs>
  <clipPath id="pb0c8891118">
   <rect x="108" y="69.12" width="669.6" height="443.52"/>
  </clipPath>
 </defs>
</svg>
