<?xml version="1.0" encoding="utf-8" standalone="no"?>
<!DOCTYPE svg PUBLIC "-//W3C//DTD SVG 1.1//EN"
  "http://www.w3.org/Graphics/SVG/1.1/DTD/svg11.dtd">
<svg xmlns:xlink="http://www.w3.org/1999/xlink" width="864pt" height="576pt" viewBox="0 0 864 576" xmlns="http://www.w3.org/2000/svg" version="1.1">
 <metadata>
  <rdf:RDF xmlns:dc="http://purl.org/dc/elements/1.1/" xmlns:cc="http://creativecommons.org/ns#" xmlns:rdf="http://www.w3.org/1999/02/22-rdf-syntax-ns#">
   <cc:Work>
    <dc:type rdf:resource="http://purl.org/dc/dcmitype/StillImage"/>
    <dc:date>2024-03-10T20:05:30.528456</dc:date>
    <dc:format>image/svg+xml</dc:format>
    <dc:creator>
     <cc:Agent>
      <dc:title>Matplotlib v3.7.3, https://matplotlib.org/</dc:title>
     </cc:Agent>
    </dc:creator>
   </cc:Work>
  </rdf:RDF>
 </metadata>
 <defs>
  <style type="text/css">*{stroke-linejoin: round; stroke-linecap: butt}</style>
 </defs>
 <g id="figure_1">
  <g id="patch_1">
   <path d="M 0 576 
L 864 576 
L 864 0 
L 0 0 
z
" style="fill: #ffffff"/>
  </g>
  <g id="axes_1">
   <g id="patch_2">
    <path d="M 108 512.64 
L 777.6 512.64 
L 777.6 69.12 
L 108 69.12 
z
" style="fill: #ffffff"/>
   </g>
   <g id="matplotlib.axis_1">
    <g id="xtick_1">
     <g id="line2d_1">
      <path d="M 138.436364 512.64 
L 138.436364 69.12 
" clip-path="url(#pad9dffb841)" style="fill: none; stroke: #b0b0b0; stroke-width: 0.8; stroke-linecap: square"/>
     </g>
     <g id="line2d_2">
      <defs>
       <path id="m8c055bbd17" d="M 0 0 
L 0 3.5 
" style="stroke: #000000; stroke-width: 0.8"/>
      </defs>
      <g>
       <use xlink:href="#m8c055bbd17" x="138.436364" y="512.64" style="stroke: #000000; stroke-width: 0.8"/>
      </g>
     </g>
     <g id="text_1">
      <!-- 0.00 -->
      <g transform="translate(127.303551 527.238438) scale(0.1 -0.1)">
       <defs>
        <path id="DejaVuSans-30" d="M 2034 4250 
Q 1547 4250 1301 3770 
Q 1056 3291 1056 2328 
Q 1056 1369 1301 889 
Q 1547 409 2034 409 
Q 2525 409 2770 889 
Q 3016 1369 3016 2328 
Q 3016 3291 2770 3770 
Q 2525 4250 2034 4250 
z
M 2034 4750 
Q 2819 4750 3233 4129 
Q 3647 3509 3647 2328 
Q 3647 1150 3233 529 
Q 2819 -91 2034 -91 
Q 1250 -91 836 529 
Q 422 1150 422 2328 
Q 422 3509 836 4129 
Q 1250 4750 2034 4750 
z
" transform="scale(0.015625)"/>
        <path id="DejaVuSans-2e" d="M 684 794 
L 1344 794 
L 1344 0 
L 684 0 
L 684 794 
z
" transform="scale(0.015625)"/>
       </defs>
       <use xlink:href="#DejaVuSans-30"/>
       <use xlink:href="#DejaVuSans-2e" x="63.623047"/>
       <use xlink:href="#DejaVuSans-30" x="95.410156"/>
       <use xlink:href="#DejaVuSans-30" x="159.033203"/>
      </g>
     </g>
    </g>
    <g id="xtick_2">
     <g id="line2d_3">
      <path d="M 219.654143 512.64 
L 219.654143 69.12 
" clip-path="url(#pad9dffb841)" style="fill: none; stroke: #b0b0b0; stroke-width: 0.8; stroke-linecap: square"/>
     </g>
     <g id="line2d_4">
      <g>
       <use xlink:href="#m8c055bbd17" x="219.654143" y="512.64" style="stroke: #000000; stroke-width: 0.8"/>
      </g>
     </g>
     <g id="text_2">
      <!-- 0.02 -->
      <g transform="translate(208.52133 527.238438) scale(0.1 -0.1)">
       <defs>
        <path id="DejaVuSans-32" d="M 1228 531 
L 3431 531 
L 3431 0 
L 469 0 
L 469 531 
Q 828 903 1448 1529 
Q 2069 2156 2228 2338 
Q 2531 2678 2651 2914 
Q 2772 3150 2772 3378 
Q 2772 3750 2511 3984 
Q 2250 4219 1831 4219 
Q 1534 4219 1204 4116 
Q 875 4013 500 3803 
L 500 4441 
Q 881 4594 1212 4672 
Q 1544 4750 1819 4750 
Q 2544 4750 2975 4387 
Q 3406 4025 3406 3419 
Q 3406 3131 3298 2873 
Q 3191 2616 2906 2266 
Q 2828 2175 2409 1742 
Q 1991 1309 1228 531 
z
" transform="scale(0.015625)"/>
       </defs>
       <use xlink:href="#DejaVuSans-30"/>
       <use xlink:href="#DejaVuSans-2e" x="63.623047"/>
       <use xlink:href="#DejaVuSans-30" x="95.410156"/>
       <use xlink:href="#DejaVuSans-32" x="159.033203"/>
      </g>
     </g>
    </g>
    <g id="xtick_3">
     <g id="line2d_5">
      <path d="M 300.871922 512.64 
L 300.871922 69.12 
" clip-path="url(#pad9dffb841)" style="fill: none; stroke: #b0b0b0; stroke-width: 0.8; stroke-linecap: square"/>
     </g>
     <g id="line2d_6">
      <g>
       <use xlink:href="#m8c055bbd17" x="300.871922" y="512.64" style="stroke: #000000; stroke-width: 0.8"/>
      </g>
     </g>
     <g id="text_3">
      <!-- 0.04 -->
      <g transform="translate(289.73911 527.238438) scale(0.1 -0.1)">
       <defs>
        <path id="DejaVuSans-34" d="M 2419 4116 
L 825 1625 
L 2419 1625 
L 2419 4116 
z
M 2253 4666 
L 3047 4666 
L 3047 1625 
L 3713 1625 
L 3713 1100 
L 3047 1100 
L 3047 0 
L 2419 0 
L 2419 1100 
L 313 1100 
L 313 1709 
L 2253 4666 
z
" transform="scale(0.015625)"/>
       </defs>
       <use xlink:href="#DejaVuSans-30"/>
       <use xlink:href="#DejaVuSans-2e" x="63.623047"/>
       <use xlink:href="#DejaVuSans-30" x="95.410156"/>
       <use xlink:href="#DejaVuSans-34" x="159.033203"/>
      </g>
     </g>
    </g>
    <g id="xtick_4">
     <g id="line2d_7">
      <path d="M 382.089701 512.64 
L 382.089701 69.12 
" clip-path="url(#pad9dffb841)" style="fill: none; stroke: #b0b0b0; stroke-width: 0.8; stroke-linecap: square"/>
     </g>
     <g id="line2d_8">
      <g>
       <use xlink:href="#m8c055bbd17" x="382.089701" y="512.64" style="stroke: #000000; stroke-width: 0.8"/>
      </g>
     </g>
     <g id="text_4">
      <!-- 0.06 -->
      <g transform="translate(370.956889 527.238438) scale(0.1 -0.1)">
       <defs>
        <path id="DejaVuSans-36" d="M 2113 2584 
Q 1688 2584 1439 2293 
Q 1191 2003 1191 1497 
Q 1191 994 1439 701 
Q 1688 409 2113 409 
Q 2538 409 2786 701 
Q 3034 994 3034 1497 
Q 3034 2003 2786 2293 
Q 2538 2584 2113 2584 
z
M 3366 4563 
L 3366 3988 
Q 3128 4100 2886 4159 
Q 2644 4219 2406 4219 
Q 1781 4219 1451 3797 
Q 1122 3375 1075 2522 
Q 1259 2794 1537 2939 
Q 1816 3084 2150 3084 
Q 2853 3084 3261 2657 
Q 3669 2231 3669 1497 
Q 3669 778 3244 343 
Q 2819 -91 2113 -91 
Q 1303 -91 875 529 
Q 447 1150 447 2328 
Q 447 3434 972 4092 
Q 1497 4750 2381 4750 
Q 2619 4750 2861 4703 
Q 3103 4656 3366 4563 
z
" transform="scale(0.015625)"/>
       </defs>
       <use xlink:href="#DejaVuSans-30"/>
       <use xlink:href="#DejaVuSans-2e" x="63.623047"/>
       <use xlink:href="#DejaVuSans-30" x="95.410156"/>
       <use xlink:href="#DejaVuSans-36" x="159.033203"/>
      </g>
     </g>
    </g>
    <g id="xtick_5">
     <g id="line2d_9">
      <path d="M 463.307481 512.64 
L 463.307481 69.12 
" clip-path="url(#pad9dffb841)" style="fill: none; stroke: #b0b0b0; stroke-width: 0.8; stroke-linecap: square"/>
     </g>
     <g id="line2d_10">
      <g>
       <use xlink:href="#m8c055bbd17" x="463.307481" y="512.64" style="stroke: #000000; stroke-width: 0.8"/>
      </g>
     </g>
     <g id="text_5">
      <!-- 0.08 -->
      <g transform="translate(452.174668 527.238438) scale(0.1 -0.1)">
       <defs>
        <path id="DejaVuSans-38" d="M 2034 2216 
Q 1584 2216 1326 1975 
Q 1069 1734 1069 1313 
Q 1069 891 1326 650 
Q 1584 409 2034 409 
Q 2484 409 2743 651 
Q 3003 894 3003 1313 
Q 3003 1734 2745 1975 
Q 2488 2216 2034 2216 
z
M 1403 2484 
Q 997 2584 770 2862 
Q 544 3141 544 3541 
Q 544 4100 942 4425 
Q 1341 4750 2034 4750 
Q 2731 4750 3128 4425 
Q 3525 4100 3525 3541 
Q 3525 3141 3298 2862 
Q 3072 2584 2669 2484 
Q 3125 2378 3379 2068 
Q 3634 1759 3634 1313 
Q 3634 634 3220 271 
Q 2806 -91 2034 -91 
Q 1263 -91 848 271 
Q 434 634 434 1313 
Q 434 1759 690 2068 
Q 947 2378 1403 2484 
z
M 1172 3481 
Q 1172 3119 1398 2916 
Q 1625 2713 2034 2713 
Q 2441 2713 2670 2916 
Q 2900 3119 2900 3481 
Q 2900 3844 2670 4047 
Q 2441 4250 2034 4250 
Q 1625 4250 1398 4047 
Q 1172 3844 1172 3481 
z
" transform="scale(0.015625)"/>
       </defs>
       <use xlink:href="#DejaVuSans-30"/>
       <use xlink:href="#DejaVuSans-2e" x="63.623047"/>
       <use xlink:href="#DejaVuSans-30" x="95.410156"/>
       <use xlink:href="#DejaVuSans-38" x="159.033203"/>
      </g>
     </g>
    </g>
    <g id="xtick_6">
     <g id="line2d_11">
      <path d="M 544.52526 512.64 
L 544.52526 69.12 
" clip-path="url(#pad9dffb841)" style="fill: none; stroke: #b0b0b0; stroke-width: 0.8; stroke-linecap: square"/>
     </g>
     <g id="line2d_12">
      <g>
       <use xlink:href="#m8c055bbd17" x="544.52526" y="512.64" style="stroke: #000000; stroke-width: 0.8"/>
      </g>
     </g>
     <g id="text_6">
      <!-- 0.10 -->
      <g transform="translate(533.392447 527.238438) scale(0.1 -0.1)">
       <defs>
        <path id="DejaVuSans-31" d="M 794 531 
L 1825 531 
L 1825 4091 
L 703 3866 
L 703 4441 
L 1819 4666 
L 2450 4666 
L 2450 531 
L 3481 531 
L 3481 0 
L 794 0 
L 794 531 
z
" transform="scale(0.015625)"/>
       </defs>
       <use xlink:href="#DejaVuSans-30"/>
       <use xlink:href="#DejaVuSans-2e" x="63.623047"/>
       <use xlink:href="#DejaVuSans-31" x="95.410156"/>
       <use xlink:href="#DejaVuSans-30" x="159.033203"/>
      </g>
     </g>
    </g>
    <g id="xtick_7">
     <g id="line2d_13">
      <path d="M 625.743039 512.64 
L 625.743039 69.12 
" clip-path="url(#pad9dffb841)" style="fill: none; stroke: #b0b0b0; stroke-width: 0.8; stroke-linecap: square"/>
     </g>
     <g id="line2d_14">
      <g>
       <use xlink:href="#m8c055bbd17" x="625.743039" y="512.64" style="stroke: #000000; stroke-width: 0.8"/>
      </g>
     </g>
     <g id="text_7">
      <!-- 0.12 -->
      <g transform="translate(614.610227 527.238438) scale(0.1 -0.1)">
       <use xlink:href="#DejaVuSans-30"/>
       <use xlink:href="#DejaVuSans-2e" x="63.623047"/>
       <use xlink:href="#DejaVuSans-31" x="95.410156"/>
       <use xlink:href="#DejaVuSans-32" x="159.033203"/>
      </g>
     </g>
    </g>
    <g id="xtick_8">
     <g id="line2d_15">
      <path d="M 706.960818 512.64 
L 706.960818 69.12 
" clip-path="url(#pad9dffb841)" style="fill: none; stroke: #b0b0b0; stroke-width: 0.8; stroke-linecap: square"/>
     </g>
     <g id="line2d_16">
      <g>
       <use xlink:href="#m8c055bbd17" x="706.960818" y="512.64" style="stroke: #000000; stroke-width: 0.8"/>
      </g>
     </g>
     <g id="text_8">
      <!-- 0.14 -->
      <g transform="translate(695.828006 527.238438) scale(0.1 -0.1)">
       <use xlink:href="#DejaVuSans-30"/>
       <use xlink:href="#DejaVuSans-2e" x="63.623047"/>
       <use xlink:href="#DejaVuSans-31" x="95.410156"/>
       <use xlink:href="#DejaVuSans-34" x="159.033203"/>
      </g>
     </g>
    </g>
    <g id="text_9">
     <!-- Risk-free rate -->
     <g transform="translate(382.01625 546.995312) scale(0.18 -0.18)">
      <defs>
       <path id="DejaVuSans-52" d="M 2841 2188 
Q 3044 2119 3236 1894 
Q 3428 1669 3622 1275 
L 4263 0 
L 3584 0 
L 2988 1197 
Q 2756 1666 2539 1819 
Q 2322 1972 1947 1972 
L 1259 1972 
L 1259 0 
L 628 0 
L 628 4666 
L 2053 4666 
Q 2853 4666 3247 4331 
Q 3641 3997 3641 3322 
Q 3641 2881 3436 2590 
Q 3231 2300 2841 2188 
z
M 1259 4147 
L 1259 2491 
L 2053 2491 
Q 2509 2491 2742 2702 
Q 2975 2913 2975 3322 
Q 2975 3731 2742 3939 
Q 2509 4147 2053 4147 
L 1259 4147 
z
" transform="scale(0.015625)"/>
       <path id="DejaVuSans-69" d="M 603 3500 
L 1178 3500 
L 1178 0 
L 603 0 
L 603 3500 
z
M 603 4863 
L 1178 4863 
L 1178 4134 
L 603 4134 
L 603 4863 
z
" transform="scale(0.015625)"/>
       <path id="DejaVuSans-73" d="M 2834 3397 
L 2834 2853 
Q 2591 2978 2328 3040 
Q 2066 3103 1784 3103 
Q 1356 3103 1142 2972 
Q 928 2841 928 2578 
Q 928 2378 1081 2264 
Q 1234 2150 1697 2047 
L 1894 2003 
Q 2506 1872 2764 1633 
Q 3022 1394 3022 966 
Q 3022 478 2636 193 
Q 2250 -91 1575 -91 
Q 1294 -91 989 -36 
Q 684 19 347 128 
L 347 722 
Q 666 556 975 473 
Q 1284 391 1588 391 
Q 1994 391 2212 530 
Q 2431 669 2431 922 
Q 2431 1156 2273 1281 
Q 2116 1406 1581 1522 
L 1381 1569 
Q 847 1681 609 1914 
Q 372 2147 372 2553 
Q 372 3047 722 3315 
Q 1072 3584 1716 3584 
Q 2034 3584 2315 3537 
Q 2597 3491 2834 3397 
z
" transform="scale(0.015625)"/>
       <path id="DejaVuSans-6b" d="M 581 4863 
L 1159 4863 
L 1159 1991 
L 2875 3500 
L 3609 3500 
L 1753 1863 
L 3688 0 
L 2938 0 
L 1159 1709 
L 1159 0 
L 581 0 
L 581 4863 
z
" transform="scale(0.015625)"/>
       <path id="DejaVuSans-2d" d="M 313 2009 
L 1997 2009 
L 1997 1497 
L 313 1497 
L 313 2009 
z
" transform="scale(0.015625)"/>
       <path id="DejaVuSans-66" d="M 2375 4863 
L 2375 4384 
L 1825 4384 
Q 1516 4384 1395 4259 
Q 1275 4134 1275 3809 
L 1275 3500 
L 2222 3500 
L 2222 3053 
L 1275 3053 
L 1275 0 
L 697 0 
L 697 3053 
L 147 3053 
L 147 3500 
L 697 3500 
L 697 3744 
Q 697 4328 969 4595 
Q 1241 4863 1831 4863 
L 2375 4863 
z
" transform="scale(0.015625)"/>
       <path id="DejaVuSans-72" d="M 2631 2963 
Q 2534 3019 2420 3045 
Q 2306 3072 2169 3072 
Q 1681 3072 1420 2755 
Q 1159 2438 1159 1844 
L 1159 0 
L 581 0 
L 581 3500 
L 1159 3500 
L 1159 2956 
Q 1341 3275 1631 3429 
Q 1922 3584 2338 3584 
Q 2397 3584 2469 3576 
Q 2541 3569 2628 3553 
L 2631 2963 
z
" transform="scale(0.015625)"/>
       <path id="DejaVuSans-65" d="M 3597 1894 
L 3597 1613 
L 953 1613 
Q 991 1019 1311 708 
Q 1631 397 2203 397 
Q 2534 397 2845 478 
Q 3156 559 3463 722 
L 3463 178 
Q 3153 47 2828 -22 
Q 2503 -91 2169 -91 
Q 1331 -91 842 396 
Q 353 884 353 1716 
Q 353 2575 817 3079 
Q 1281 3584 2069 3584 
Q 2775 3584 3186 3129 
Q 3597 2675 3597 1894 
z
M 3022 2063 
Q 3016 2534 2758 2815 
Q 2500 3097 2075 3097 
Q 1594 3097 1305 2825 
Q 1016 2553 972 2059 
L 3022 2063 
z
" transform="scale(0.015625)"/>
       <path id="DejaVuSans-20" transform="scale(0.015625)"/>
       <path id="DejaVuSans-61" d="M 2194 1759 
Q 1497 1759 1228 1600 
Q 959 1441 959 1056 
Q 959 750 1161 570 
Q 1363 391 1709 391 
Q 2188 391 2477 730 
Q 2766 1069 2766 1631 
L 2766 1759 
L 2194 1759 
z
M 3341 1997 
L 3341 0 
L 2766 0 
L 2766 531 
Q 2569 213 2275 61 
Q 1981 -91 1556 -91 
Q 1019 -91 701 211 
Q 384 513 384 1019 
Q 384 1609 779 1909 
Q 1175 2209 1959 2209 
L 2766 2209 
L 2766 2266 
Q 2766 2663 2505 2880 
Q 2244 3097 1772 3097 
Q 1472 3097 1187 3025 
Q 903 2953 641 2809 
L 641 3341 
Q 956 3463 1253 3523 
Q 1550 3584 1831 3584 
Q 2591 3584 2966 3190 
Q 3341 2797 3341 1997 
z
" transform="scale(0.015625)"/>
       <path id="DejaVuSans-74" d="M 1172 4494 
L 1172 3500 
L 2356 3500 
L 2356 3053 
L 1172 3053 
L 1172 1153 
Q 1172 725 1289 603 
Q 1406 481 1766 481 
L 2356 481 
L 2356 0 
L 1766 0 
Q 1100 0 847 248 
Q 594 497 594 1153 
L 594 3053 
L 172 3053 
L 172 3500 
L 594 3500 
L 594 4494 
L 1172 4494 
z
" transform="scale(0.015625)"/>
      </defs>
      <use xlink:href="#DejaVuSans-52"/>
      <use xlink:href="#DejaVuSans-69" x="69.482422"/>
      <use xlink:href="#DejaVuSans-73" x="97.265625"/>
      <use xlink:href="#DejaVuSans-6b" x="149.365234"/>
      <use xlink:href="#DejaVuSans-2d" x="207.275391"/>
      <use xlink:href="#DejaVuSans-66" x="243.359375"/>
      <use xlink:href="#DejaVuSans-72" x="278.564453"/>
      <use xlink:href="#DejaVuSans-65" x="317.427734"/>
      <use xlink:href="#DejaVuSans-65" x="378.951172"/>
      <use xlink:href="#DejaVuSans-20" x="440.474609"/>
      <use xlink:href="#DejaVuSans-72" x="472.261719"/>
      <use xlink:href="#DejaVuSans-61" x="513.375"/>
      <use xlink:href="#DejaVuSans-74" x="574.654297"/>
      <use xlink:href="#DejaVuSans-65" x="613.863281"/>
     </g>
    </g>
   </g>
   <g id="matplotlib.axis_2">
    <g id="ytick_1">
     <g id="line2d_17">
      <path d="M 108 479.85708 
L 777.6 479.85708 
" clip-path="url(#pad9dffb841)" style="fill: none; stroke: #b0b0b0; stroke-width: 0.8; stroke-linecap: square"/>
     </g>
     <g id="line2d_18">
      <defs>
       <path id="m9dc21191e8" d="M 0 0 
L -3.5 0 
" style="stroke: #000000; stroke-width: 0.8"/>
      </defs>
      <g>
       <use xlink:href="#m9dc21191e8" x="108" y="479.85708" style="stroke: #000000; stroke-width: 0.8"/>
      </g>
     </g>
     <g id="text_10">
      <!-- 0.0020 -->
      <g transform="translate(66.009375 483.656299) scale(0.1 -0.1)">
       <use xlink:href="#DejaVuSans-30"/>
       <use xlink:href="#DejaVuSans-2e" x="63.623047"/>
       <use xlink:href="#DejaVuSans-30" x="95.410156"/>
       <use xlink:href="#DejaVuSans-30" x="159.033203"/>
       <use xlink:href="#DejaVuSans-32" x="222.65625"/>
       <use xlink:href="#DejaVuSans-30" x="286.279297"/>
      </g>
     </g>
    </g>
    <g id="ytick_2">
     <g id="line2d_19">
      <path d="M 108 412.747909 
L 777.6 412.747909 
" clip-path="url(#pad9dffb841)" style="fill: none; stroke: #b0b0b0; stroke-width: 0.8; stroke-linecap: square"/>
     </g>
     <g id="line2d_20">
      <g>
       <use xlink:href="#m9dc21191e8" x="108" y="412.747909" style="stroke: #000000; stroke-width: 0.8"/>
      </g>
     </g>
     <g id="text_11">
      <!-- 0.0025 -->
      <g transform="translate(66.009375 416.547128) scale(0.1 -0.1)">
       <defs>
        <path id="DejaVuSans-35" d="M 691 4666 
L 3169 4666 
L 3169 4134 
L 1269 4134 
L 1269 2991 
Q 1406 3038 1543 3061 
Q 1681 3084 1819 3084 
Q 2600 3084 3056 2656 
Q 3513 2228 3513 1497 
Q 3513 744 3044 326 
Q 2575 -91 1722 -91 
Q 1428 -91 1123 -41 
Q 819 9 494 109 
L 494 744 
Q 775 591 1075 516 
Q 1375 441 1709 441 
Q 2250 441 2565 725 
Q 2881 1009 2881 1497 
Q 2881 1984 2565 2268 
Q 2250 2553 1709 2553 
Q 1456 2553 1204 2497 
Q 953 2441 691 2322 
L 691 4666 
z
" transform="scale(0.015625)"/>
       </defs>
       <use xlink:href="#DejaVuSans-30"/>
       <use xlink:href="#DejaVuSans-2e" x="63.623047"/>
       <use xlink:href="#DejaVuSans-30" x="95.410156"/>
       <use xlink:href="#DejaVuSans-30" x="159.033203"/>
       <use xlink:href="#DejaVuSans-32" x="222.65625"/>
       <use xlink:href="#DejaVuSans-35" x="286.279297"/>
      </g>
     </g>
    </g>
    <g id="ytick_3">
     <g id="line2d_21">
      <path d="M 108 345.638738 
L 777.6 345.638738 
" clip-path="url(#pad9dffb841)" style="fill: none; stroke: #b0b0b0; stroke-width: 0.8; stroke-linecap: square"/>
     </g>
     <g id="line2d_22">
      <g>
       <use xlink:href="#m9dc21191e8" x="108" y="345.638738" style="stroke: #000000; stroke-width: 0.8"/>
      </g>
     </g>
     <g id="text_12">
      <!-- 0.0030 -->
      <g transform="translate(66.009375 349.437957) scale(0.1 -0.1)">
       <defs>
        <path id="DejaVuSans-33" d="M 2597 2516 
Q 3050 2419 3304 2112 
Q 3559 1806 3559 1356 
Q 3559 666 3084 287 
Q 2609 -91 1734 -91 
Q 1441 -91 1130 -33 
Q 819 25 488 141 
L 488 750 
Q 750 597 1062 519 
Q 1375 441 1716 441 
Q 2309 441 2620 675 
Q 2931 909 2931 1356 
Q 2931 1769 2642 2001 
Q 2353 2234 1838 2234 
L 1294 2234 
L 1294 2753 
L 1863 2753 
Q 2328 2753 2575 2939 
Q 2822 3125 2822 3475 
Q 2822 3834 2567 4026 
Q 2313 4219 1838 4219 
Q 1578 4219 1281 4162 
Q 984 4106 628 3988 
L 628 4550 
Q 988 4650 1302 4700 
Q 1616 4750 1894 4750 
Q 2613 4750 3031 4423 
Q 3450 4097 3450 3541 
Q 3450 3153 3228 2886 
Q 3006 2619 2597 2516 
z
" transform="scale(0.015625)"/>
       </defs>
       <use xlink:href="#DejaVuSans-30"/>
       <use xlink:href="#DejaVuSans-2e" x="63.623047"/>
       <use xlink:href="#DejaVuSans-30" x="95.410156"/>
       <use xlink:href="#DejaVuSans-30" x="159.033203"/>
       <use xlink:href="#DejaVuSans-33" x="222.65625"/>
       <use xlink:href="#DejaVuSans-30" x="286.279297"/>
      </g>
     </g>
    </g>
    <g id="ytick_4">
     <g id="line2d_23">
      <path d="M 108 278.529567 
L 777.6 278.529567 
" clip-path="url(#pad9dffb841)" style="fill: none; stroke: #b0b0b0; stroke-width: 0.8; stroke-linecap: square"/>
     </g>
     <g id="line2d_24">
      <g>
       <use xlink:href="#m9dc21191e8" x="108" y="278.529567" style="stroke: #000000; stroke-width: 0.8"/>
      </g>
     </g>
     <g id="text_13">
      <!-- 0.0035 -->
      <g transform="translate(66.009375 282.328786) scale(0.1 -0.1)">
       <use xlink:href="#DejaVuSans-30"/>
       <use xlink:href="#DejaVuSans-2e" x="63.623047"/>
       <use xlink:href="#DejaVuSans-30" x="95.410156"/>
       <use xlink:href="#DejaVuSans-30" x="159.033203"/>
       <use xlink:href="#DejaVuSans-33" x="222.65625"/>
       <use xlink:href="#DejaVuSans-35" x="286.279297"/>
      </g>
     </g>
    </g>
    <g id="ytick_5">
     <g id="line2d_25">
      <path d="M 108 211.420397 
L 777.6 211.420397 
" clip-path="url(#pad9dffb841)" style="fill: none; stroke: #b0b0b0; stroke-width: 0.8; stroke-linecap: square"/>
     </g>
     <g id="line2d_26">
      <g>
       <use xlink:href="#m9dc21191e8" x="108" y="211.420397" style="stroke: #000000; stroke-width: 0.8"/>
      </g>
     </g>
     <g id="text_14">
      <!-- 0.0040 -->
      <g transform="translate(66.009375 215.219615) scale(0.1 -0.1)">
       <use xlink:href="#DejaVuSans-30"/>
       <use xlink:href="#DejaVuSans-2e" x="63.623047"/>
       <use xlink:href="#DejaVuSans-30" x="95.410156"/>
       <use xlink:href="#DejaVuSans-30" x="159.033203"/>
       <use xlink:href="#DejaVuSans-34" x="222.65625"/>
       <use xlink:href="#DejaVuSans-30" x="286.279297"/>
      </g>
     </g>
    </g>
    <g id="ytick_6">
     <g id="line2d_27">
      <path d="M 108 144.311226 
L 777.6 144.311226 
" clip-path="url(#pad9dffb841)" style="fill: none; stroke: #b0b0b0; stroke-width: 0.8; stroke-linecap: square"/>
     </g>
     <g id="line2d_28">
      <g>
       <use xlink:href="#m9dc21191e8" x="108" y="144.311226" style="stroke: #000000; stroke-width: 0.8"/>
      </g>
     </g>
     <g id="text_15">
      <!-- 0.0045 -->
      <g transform="translate(66.009375 148.110444) scale(0.1 -0.1)">
       <use xlink:href="#DejaVuSans-30"/>
       <use xlink:href="#DejaVuSans-2e" x="63.623047"/>
       <use xlink:href="#DejaVuSans-30" x="95.410156"/>
       <use xlink:href="#DejaVuSans-30" x="159.033203"/>
       <use xlink:href="#DejaVuSans-34" x="222.65625"/>
       <use xlink:href="#DejaVuSans-35" x="286.279297"/>
      </g>
     </g>
    </g>
    <g id="ytick_7">
     <g id="line2d_29">
      <path d="M 108 77.202055 
L 777.6 77.202055 
" clip-path="url(#pad9dffb841)" style="fill: none; stroke: #b0b0b0; stroke-width: 0.8; stroke-linecap: square"/>
     </g>
     <g id="line2d_30">
      <g>
       <use xlink:href="#m9dc21191e8" x="108" y="77.202055" style="stroke: #000000; stroke-width: 0.8"/>
      </g>
     </g>
     <g id="text_16">
      <!-- 0.0050 -->
      <g transform="translate(66.009375 81.001274) scale(0.1 -0.1)">
       <use xlink:href="#DejaVuSans-30"/>
       <use xlink:href="#DejaVuSans-2e" x="63.623047"/>
       <use xlink:href="#DejaVuSans-30" x="95.410156"/>
       <use xlink:href="#DejaVuSans-30" x="159.033203"/>
       <use xlink:href="#DejaVuSans-35" x="222.65625"/>
       <use xlink:href="#DejaVuSans-30" x="286.279297"/>
      </g>
     </g>
    </g>
    <g id="text_17">
     <!-- Price/strike ratio -->
     <g transform="translate(58.265938 364.318594) rotate(-90) scale(0.18 -0.18)">
      <defs>
       <path id="DejaVuSans-50" d="M 1259 4147 
L 1259 2394 
L 2053 2394 
Q 2494 2394 2734 2622 
Q 2975 2850 2975 3272 
Q 2975 3691 2734 3919 
Q 2494 4147 2053 4147 
L 1259 4147 
z
M 628 4666 
L 2053 4666 
Q 2838 4666 3239 4311 
Q 3641 3956 3641 3272 
Q 3641 2581 3239 2228 
Q 2838 1875 2053 1875 
L 1259 1875 
L 1259 0 
L 628 0 
L 628 4666 
z
" transform="scale(0.015625)"/>
       <path id="DejaVuSans-63" d="M 3122 3366 
L 3122 2828 
Q 2878 2963 2633 3030 
Q 2388 3097 2138 3097 
Q 1578 3097 1268 2742 
Q 959 2388 959 1747 
Q 959 1106 1268 751 
Q 1578 397 2138 397 
Q 2388 397 2633 464 
Q 2878 531 3122 666 
L 3122 134 
Q 2881 22 2623 -34 
Q 2366 -91 2075 -91 
Q 1284 -91 818 406 
Q 353 903 353 1747 
Q 353 2603 823 3093 
Q 1294 3584 2113 3584 
Q 2378 3584 2631 3529 
Q 2884 3475 3122 3366 
z
" transform="scale(0.015625)"/>
       <path id="DejaVuSans-2f" d="M 1625 4666 
L 2156 4666 
L 531 -594 
L 0 -594 
L 1625 4666 
z
" transform="scale(0.015625)"/>
       <path id="DejaVuSans-6f" d="M 1959 3097 
Q 1497 3097 1228 2736 
Q 959 2375 959 1747 
Q 959 1119 1226 758 
Q 1494 397 1959 397 
Q 2419 397 2687 759 
Q 2956 1122 2956 1747 
Q 2956 2369 2687 2733 
Q 2419 3097 1959 3097 
z
M 1959 3584 
Q 2709 3584 3137 3096 
Q 3566 2609 3566 1747 
Q 3566 888 3137 398 
Q 2709 -91 1959 -91 
Q 1206 -91 779 398 
Q 353 888 353 1747 
Q 353 2609 779 3096 
Q 1206 3584 1959 3584 
z
" transform="scale(0.015625)"/>
      </defs>
      <use xlink:href="#DejaVuSans-50"/>
      <use xlink:href="#DejaVuSans-72" x="58.552734"/>
      <use xlink:href="#DejaVuSans-69" x="99.666016"/>
      <use xlink:href="#DejaVuSans-63" x="127.449219"/>
      <use xlink:href="#DejaVuSans-65" x="182.429688"/>
      <use xlink:href="#DejaVuSans-2f" x="243.953125"/>
      <use xlink:href="#DejaVuSans-73" x="277.644531"/>
      <use xlink:href="#DejaVuSans-74" x="329.744141"/>
      <use xlink:href="#DejaVuSans-72" x="368.953125"/>
      <use xlink:href="#DejaVuSans-69" x="410.066406"/>
      <use xlink:href="#DejaVuSans-6b" x="437.849609"/>
      <use xlink:href="#DejaVuSans-65" x="492.134766"/>
      <use xlink:href="#DejaVuSans-20" x="553.658203"/>
      <use xlink:href="#DejaVuSans-72" x="585.445312"/>
      <use xlink:href="#DejaVuSans-61" x="626.558594"/>
      <use xlink:href="#DejaVuSans-74" x="687.837891"/>
      <use xlink:href="#DejaVuSans-69" x="727.046875"/>
      <use xlink:href="#DejaVuSans-6f" x="754.830078"/>
     </g>
    </g>
   </g>
   <g id="line2d_31">
    <path d="M 138.436364 144.311252 
L 139.248541 227.258256 
L 139.248541 173.570698 
L 139.65463 174.778516 
L 139.65463 188.200702 
L 140.060719 175.986521 
L 140.060719 216.252081 
L 140.060719 175.986521 
L 140.466808 204.038025 
L 140.466808 204.038025 
L 140.466808 217.459836 
L 140.466808 150.350779 
L 140.872897 205.24553 
L 140.872897 178.40197 
L 140.872897 232.089372 
L 140.872897 191.823781 
L 141.685075 207.661229 
L 142.091164 208.868984 
L 142.497253 169.811056 
L 142.497253 183.23268 
L 142.497253 89.28 
L 142.903341 157.597062 
L 142.903341 197.862434 
L 143.715519 240.54291 
L 143.715519 200.27757 
L 144.933786 150.212779 
L 145.339875 205.107217 
L 145.339875 164.841783 
L 145.745964 206.31441 
L 145.745964 260.002031 
L 146.152053 194.100042 
L 146.558142 208.728984 
L 147.776408 172.085566 
L 147.776408 212.350688 
L 148.994675 189.128832 
L 149.806852 218.386465 
L 149.806852 124.433536 
L 150.212941 206.171785 
L 150.212941 192.749598 
L 150.212941 165.90635 
L 150.619031 193.956791 
L 150.619031 180.53498 
L 151.02512 195.163484 
L 151.02512 248.850917 
L 151.837297 197.57737 
L 152.649475 199.991194 
L 152.649475 240.256659 
L 152.649475 132.882012 
L 153.055564 214.619886 
L 153.055564 241.463133 
L 153.055564 174.353952 
L 153.461653 188.982706 
L 153.461653 175.560645 
L 153.461653 229.247984 
L 153.461653 188.982706 
L 153.867742 230.454896 
L 154.27383 191.395967 
L 154.27383 271.926991 
L 154.27383 245.083431 
L 154.67992 179.180849 
L 155.086008 153.543606 
L 155.086008 207.231102 
L 155.086008 180.387167 
L 155.492097 141.328238 
L 155.492097 235.281324 
L 156.304275 184.006996 
L 156.304275 184.006996 
L 156.710363 198.635125 
L 156.710363 198.635125 
L 157.116453 240.106971 
L 157.928632 202.254267 
L 157.928632 161.988707 
L 158.33472 176.617087 
L 158.33472 243.726394 
L 158.33472 163.195275 
L 158.740808 204.667278 
L 158.740808 258.354492 
L 158.740808 177.823467 
L 159.146898 165.608037 
L 159.552986 207.079351 
L 159.552986 207.079351 
L 160.365165 249.757453 
L 160.771253 291.228892 
L 160.771253 264.385144 
L 161.989519 214.315947 
L 161.989519 227.738071 
L 161.989519 214.315947 
L 162.395609 188.67858 
L 162.395609 161.834957 
L 162.395609 161.834957 
L 162.801698 216.727833 
L 162.801698 189.88446 
L 162.801698 203.306209 
L 163.613876 219.139969 
L 163.613876 205.718157 
L 164.019964 233.767379 
L 165.238231 223.962866 
L 165.644319 238.590652 
L 165.644319 158.059377 
L 166.050409 253.218031 
L 166.050409 239.796188 
L 166.456497 227.580132 
L 166.456497 133.626953 
L 166.456497 214.158071 
L 167.268675 176.304085 
L 167.268675 243.413049 
L 168.486942 233.607816 
L 168.486942 166.498666 
L 168.89303 207.96948 
L 168.89303 221.391417 
L 170.111297 198.163685 
L 171.329565 161.51383 
L 171.735653 202.984895 
L 172.54783 138.285787 
L 172.54783 205.395218 
L 172.54783 191.972907 
L 173.36001 194.383231 
L 173.36001 274.91413 
L 173.36001 127.273986 
L 173.36001 180.961482 
L 174.172186 250.480518 
L 175.390455 186.986322 
L 175.390455 213.82982 
L 175.390455 173.564635 
L 175.390455 186.986322 
L 175.796543 174.769203 
L 176.202631 202.817957 
L 176.202631 202.817957 
L 176.202631 189.395958 
L 177.014808 151.540285 
L 177.4209 219.854035 
L 177.4209 179.588288 
L 177.826988 221.058665 
L 178.639164 156.358682 
L 178.639164 263.733548 
L 178.639164 210.04624 
L 179.045252 224.672463 
L 179.451341 225.877 
L 179.451341 225.877 
L 179.451341 212.455001 
L 179.451341 239.298936 
L 179.857433 159.972386 
L 179.857433 200.23782 
L 180.669609 202.646768 
L 181.075697 190.429525 
L 181.075697 270.960581 
L 181.481785 231.899371 
L 181.481785 164.790033 
L 181.887877 246.525407 
L 181.887877 192.838099 
L 181.887877 246.525407 
L 183.106142 196.45124 
L 183.106142 209.872801 
L 183.106142 196.45124 
L 183.51223 278.186176 
L 183.918318 212.281187 
L 184.730499 228.111197 
L 184.730499 161.002078 
L 185.136587 202.471893 
L 185.948763 204.879779 
L 186.760943 180.444042 
L 187.57312 169.430304 
L 187.57312 236.539173 
L 187.979208 264.586802 
L 188.385296 198.68125 
L 189.197476 187.666825 
L 189.197476 268.198131 
L 189.603565 255.979856 
L 189.603565 202.292767 
L 190.009653 243.761519 
L 190.415741 204.699903 
L 190.821833 232.747187 
L 190.821833 219.325095 
L 191.227921 233.950849 
L 191.634009 208.310544 
L 191.634009 181.467172 
L 192.040098 222.935799 
L 192.040098 236.357579 
L 192.040098 209.514237 
L 193.258366 239.967814 
L 193.258366 119.171699 
L 193.664454 187.484012 
L 193.664454 241.17157 
L 194.070542 269.218479 
L 194.070542 188.687642 
L 194.476631 216.734458 
L 194.882719 258.203085 
L 194.882719 244.781555 
L 194.882719 244.781555 
L 195.288811 205.71922 
L 195.694899 193.500414 
L 195.694899 193.500414 
L 195.694899 233.765879 
L 196.913164 250.797082 
L 197.319252 184.891 
L 198.131432 254.406349 
L 198.53752 201.921953 
L 198.53752 255.609292 
L 199.349697 204.327526 
L 199.755789 205.530782 
L 200.974053 249.404513 
L 200.974053 155.451365 
L 201.380142 210.341866 
L 201.78623 157.857314 
L 201.78623 265.231711 
L 202.192318 253.012592 
L 202.598406 213.949633 
L 203.004502 255.41751 
L 203.41059 176.089084 
L 203.41059 229.776392 
L 203.41059 202.932895 
L 203.816678 150.44828 
L 204.222767 232.181466 
L 205.034943 261.430006 
L 205.441031 195.523111 
L 205.441031 235.788889 
L 205.441031 208.94511 
L 207.877568 162.471647 
L 207.877568 162.471647 
L 208.283656 230.782678 
L 208.283656 271.048456 
L 209.095833 246.608657 
L 209.095833 139.233916 
L 209.095833 179.499913 
L 209.501921 247.810975 
L 209.908009 195.325422 
L 209.908009 262.434636 
L 210.314097 223.370988 
L 211.126274 185.50969 
L 211.532362 173.289384 
L 212.344546 202.536955 
L 212.750634 257.426175 
L 212.750634 190.316712 
L 213.156722 218.362153 
L 213.156722 231.784089 
L 213.56281 232.986063 
L 213.56281 232.986063 
L 213.56281 192.720473 
L 213.968899 234.187663 
L 214.781075 223.168675 
L 214.781075 182.903241 
L 214.781075 236.590861 
L 215.187163 224.370774 
L 215.187163 224.370774 
L 215.593251 238.993997 
L 215.593251 185.306689 
L 215.593251 185.306689 
L 216.405435 214.553198 
L 216.405435 241.396914 
L 217.217612 230.377833 
L 217.217612 190.112399 
L 217.217612 216.955896 
L 217.6237 177.891968 
L 218.029788 246.202311 
L 218.435876 233.981724 
L 218.435876 193.716228 
L 219.248053 196.118989 
L 219.248053 115.588058 
L 219.654141 116.788876 
L 219.654141 237.585366 
L 220.060229 198.521375 
L 220.466317 213.144441 
L 221.278501 188.70258 
L 221.68459 189.903648 
L 221.68459 216.747583 
L 222.090678 204.526714 
L 222.090678 231.37015 
L 222.496766 232.571155 
L 222.496766 245.993029 
L 222.496766 205.72747 
L 223.308942 234.97301 
L 223.715031 195.908363 
L 224.121119 237.374958 
L 224.527207 292.262959 
L 224.933295 280.041716 
L 225.745479 215.333951 
L 226.963744 205.514282 
L 226.963744 245.779809 
L 226.963744 218.93603 
L 227.369832 260.401876 
L 227.369832 206.714912 
L 227.77592 275.024287 
L 228.182009 249.381232 
L 228.588097 210.316178 
L 228.994185 265.204054 
L 229.400273 239.560468 
L 229.400273 159.029569 
L 229.400273 252.982342 
L 229.806369 254.183067 
L 229.806369 200.495446 
L 230.212457 241.961229 
L 230.212457 188.27389 
L 231.024634 298.049361 
L 231.430722 245.562183 
L 231.430722 191.874782 
L 231.83681 246.76222 
L 232.242898 221.118978 
L 232.648986 262.584324 
L 233.461163 291.82827 
L 233.461163 251.562742 
L 233.867251 266.184403 
L 233.867251 225.918875 
L 233.867251 252.762654 
L 234.273347 200.275508 
L 234.679435 241.740947 
L 234.679435 255.162696 
L 235.491611 257.562363 
L 235.8977 218.496653 
L 236.303788 246.54025 
L 236.303788 259.961968 
L 236.303788 206.27466 
L 236.709876 180.630855 
L 236.709876 194.052479 
L 237.115964 262.361479 
L 237.115964 248.93998 
L 237.928141 211.073994 
L 238.334229 212.2735 
L 238.740325 240.316784 
L 238.740325 213.473005 
L 239.146413 254.937851 
L 239.146413 160.985328 
L 240.364677 245.11465 
L 240.770766 192.626723 
L 241.176854 207.248164 
L 241.582942 235.291105 
L 241.582942 221.869544 
L 241.582942 302.400131 
L 241.98903 276.756076 
L 242.395118 237.689647 
L 243.613391 214.443697 
L 244.831655 258.306835 
L 245.643832 247.283316 
L 246.456008 249.68089 
L 246.862096 197.192806 
L 247.268184 252.078838 
L 247.268184 238.657246 
L 248.486457 282.518915 
L 248.486457 201.98814 
L 248.892545 189.765209 
L 249.298633 244.650898 
L 249.298633 325.182204 
L 249.704721 205.584157 
L 250.110809 206.783037 
L 250.516898 275.090631 
L 251.329074 210.378741 
L 251.329074 156.691683 
L 251.735162 211.577372 
L 252.953434 228.594668 
L 252.953434 255.438229 
L 253.359523 216.371331 
L 253.765611 284.678487 
L 253.765611 230.991398 
L 255.389964 168.675113 
L 255.796052 290.669765 
L 255.796052 196.716866 
L 255.796052 250.404581 
L 256.20214 278.446146 
L 256.608236 266.222528 
L 257.014324 200.31157 
L 257.420412 214.931262 
L 257.420412 268.618758 
L 257.420412 255.197009 
L 258.232589 217.327211 
L 258.638677 205.103592 
L 258.638677 285.63471 
L 259.044765 219.723471 
L 259.044765 219.723471 
L 259.450853 288.030565 
L 259.856942 222.118982 
L 259.856942 289.228133 
L 259.856942 208.697109 
L 260.26303 250.160423 
L 260.26303 196.473303 
L 260.669118 197.670808 
L 260.669118 278.201864 
L 260.669118 264.780053 
L 261.075214 265.977902 
L 261.88739 214.686011 
L 261.88739 295.216817 
L 261.88739 254.951476 
L 262.293478 269.571074 
L 262.293478 323.25832 
L 263.105655 258.544212 
L 264.730008 317.021791 
L 264.730008 236.490829 
L 264.730008 276.756076 
L 265.136096 170.579059 
L 265.136096 264.531926 
L 265.542192 238.885653 
L 266.760449 229.055358 
L 266.760449 202.212079 
L 267.166544 270.518423 
L 267.978721 232.647374 
L 267.978721 192.381846 
L 267.978721 246.069186 
L 269.196993 276.5042 
L 269.196993 222.817048 
L 269.603074 224.013866 
L 269.603074 224.013866 
L 270.009169 211.789248 
L 270.009169 278.898023 
L 270.821346 254.448318 
L 271.227426 228.801794 
L 271.227426 269.06726 
L 271.633522 189.733272 
L 271.633522 243.42033 
L 272.039618 244.617304 
L 272.039618 204.351901 
L 273.257875 207.94223 
L 274.070051 264.022737 
L 274.476147 278.641428 
L 274.882228 226.15047 
L 275.288324 213.925132 
L 275.288324 281.034283 
L 276.506596 190.671026 
L 276.912676 258.976901 
L 277.724853 207.682416 
L 277.724853 261.369662 
L 278.537029 263.762173 
L 278.537029 236.918706 
L 278.537029 290.606046 
L 279.349206 292.998244 
L 279.349206 279.576651 
L 279.755301 213.663694 
L 279.755301 280.772626 
L 280.973574 230.673647 
L 280.973574 257.517426 
L 281.379654 231.869808 
L 281.78575 327.018618 
L 281.78575 219.644346 
L 282.191831 274.527503 
L 283.004007 276.919296 
L 283.004007 276.919296 
L 284.62836 228.015416 
L 285.034456 296.320291 
L 285.440552 297.516108 
L 285.440552 243.828863 
L 285.846632 164.493406 
L 286.252728 299.907307 
L 287.064904 315.720535 
L 287.064904 181.502297 
L 287.877081 264.424395 
L 288.689257 307.080683 
L 290.31361 298.4403 
L 290.31361 204.487839 
L 291.125786 260.565627 
L 291.531882 181.229858 
L 291.937963 262.956138 
L 292.344059 237.307239 
L 292.344059 237.307239 
L 292.344059 317.838233 
L 292.344059 237.307239 
L 292.750139 265.34643 
L 293.156235 239.697782 
L 293.562316 294.579908 
L 293.968411 242.087699 
L 294.374507 270.126389 
L 294.374507 310.391886 
L 294.780588 257.899677 
L 294.780588 257.899677 
L 295.99886 315.171533 
L 296.404941 249.257013 
L 296.404941 262.678824 
L 296.811036 237.030394 
L 296.811036 277.29586 
L 296.811036 223.608239 
L 296.811036 263.874017 
L 297.217117 278.49049 
L 297.623213 266.263434 
L 298.029293 267.458096 
L 298.435389 214.965325 
L 299.247566 203.932649 
L 300.059742 246.587157 
L 300.465838 261.20338 
L 301.278014 277.014108 
L 301.684095 224.521118 
L 302.496271 267.175595 
L 302.902367 268.369756 
L 302.902367 281.791662 
L 303.308463 242.72017 
L 303.714543 230.492896 
L 304.120639 231.687057 
L 304.120639 285.374303 
L 304.120639 258.530586 
L 304.52672 232.880875 
L 304.52672 259.724873 
L 304.52672 246.302874 
L 304.932816 341.449966 
L 305.338896 248.691354 
L 305.744992 223.041487 
L 305.744992 249.885328 
L 306.151073 264.500989 
L 306.151073 345.031982 
L 306.557169 279.116899 
L 306.557169 185.163876 
L 306.557169 292.538648 
L 306.963249 293.732716 
L 306.963249 293.732716 
L 306.963249 280.310936 
L 307.369345 200.973823 
L 307.369345 281.504629 
L 307.775441 309.542101 
L 308.181521 270.470547 
L 308.181521 243.626768 
L 308.181521 270.470547 
L 308.993698 246.014592 
L 308.993698 272.858339 
L 309.399794 206.942601 
L 310.21197 263.017669 
L 311.024146 305.670083 
L 311.024146 332.513894 
L 311.430227 186.067568 
L 311.430227 280.020278 
L 312.242419 228.720075 
L 313.054595 284.794269 
L 313.054595 284.794269 
L 313.054595 244.528397 
L 315.491124 265.110554 
L 315.897205 279.725465 
L 317.115477 296.726574 
L 317.115477 296.726574 
L 317.115477 283.304918 
L 318.333749 233.196877 
L 318.333749 286.883872 
L 318.333749 273.462311 
L 318.73983 274.654941 
L 318.73983 207.545791 
L 319.145926 249.004262 
L 319.145926 235.582638 
L 319.145926 302.691788 
L 319.552006 250.197517 
L 319.552006 290.462826 
L 319.552006 277.041109 
L 320.364183 279.42687 
L 320.364183 239.161029 
L 320.770278 280.619656 
L 320.770278 226.932223 
L 321.176374 281.81213 
L 321.582455 283.005073 
L 321.988551 176.82315 
L 321.988551 284.19761 
L 322.394631 258.546962 
L 322.800727 286.583246 
L 322.800727 179.208536 
L 323.206808 287.775876 
L 323.612903 235.280855 
L 324.018984 317.004479 
L 324.018984 223.051487 
L 324.018984 276.738951 
L 324.42508 237.665772 
L 324.83116 225.436435 
L 324.83116 279.124056 
L 325.643352 254.664881 
L 325.643352 214.399447 
L 325.643352 281.508598 
L 325.643352 241.243101 
L 326.049433 282.701009 
L 326.049433 229.013795 
L 326.049433 242.4357 
L 326.455528 297.315326 
L 326.455528 283.893484 
L 326.455528 230.205926 
L 326.455528 243.6278 
L 326.861609 217.976464 
L 326.861609 271.663897 
L 327.267705 192.325096 
L 327.267705 205.747158 
L 328.079881 248.396821 
L 328.485962 289.854636 
L 328.485962 263.010763 
L 328.892058 291.046641 
L 328.892058 250.781426 
L 329.704234 306.852589 
L 330.11033 281.200878 
L 330.51641 242.127761 
L 330.51641 336.080254 
L 330.922506 350.694414 
L 330.922506 270.163327 
L 330.922506 270.163327 
L 331.328587 271.355145 
L 331.734683 232.281341 
L 332.140763 260.317188 
L 332.546859 301.77419 
L 332.95294 235.85692 
L 332.95294 316.387945 
L 333.359036 263.892517 
L 333.765116 291.927989 
L 334.577308 267.467752 
L 334.983388 295.502756 
L 335.389484 296.694292 
L 335.389484 243.006984 
L 335.795565 351.573481 
L 335.795565 244.19874 
L 336.607741 286.847403 
L 337.419918 248.964699 
L 337.419918 275.80804 
L 337.419918 262.38651 
L 338.232094 264.768927 
L 339.450366 281.764974 
L 339.450366 268.343225 
L 339.450366 281.764974 
L 339.856462 296.378072 
L 339.856462 269.534106 
L 340.262543 270.725705 
L 340.262543 310.991201 
L 340.668638 271.916554 
L 340.668638 218.229277 
L 341.074719 326.79518 
L 341.480815 274.298877 
L 341.886895 262.068009 
L 342.292991 263.259202 
L 342.292991 209.571738 
L 342.699072 264.450207 
L 343.105168 292.484679 
L 343.105168 319.328302 
L 343.511263 307.097527 
L 343.511263 307.097527 
L 343.511263 239.988189 
L 344.32344 255.792043 
L 344.32344 228.94842 
L 344.72952 310.669919 
L 344.72952 216.717145 
L 344.72952 243.560862 
L 345.135616 231.329743 
L 346.353873 221.480292 
L 346.759969 236.092859 
L 347.16605 304.392609 
L 347.16605 264.127112 
L 348.384322 267.698785 
L 348.384322 254.276817 
L 348.790418 255.467354 
L 348.790418 242.04523 
L 348.790418 282.311008 
L 349.196498 323.76676 
L 349.196498 243.235829 
L 349.602594 231.004273 
L 349.602594 284.691737 
L 350.008675 245.61684 
L 350.41477 233.384971 
L 350.41477 233.384971 
L 350.41477 287.072654 
L 350.820851 247.99707 
L 351.226947 249.187544 
L 351.226947 289.453134 
L 351.226947 289.453134 
L 352.039123 278.411615 
L 352.039123 291.83352 
L 352.445219 306.445712 
L 352.8513 227.10463 
L 353.257395 295.40388 
L 353.663476 283.172355 
L 353.663476 310.015853 
L 354.475652 218.443028 
L 354.881748 327.007806 
L 355.287829 287.93219 
L 355.287829 274.51041 
L 355.287829 287.93219 
L 355.693925 275.700352 
L 356.100005 303.733856 
L 356.100005 209.781301 
L 356.506101 291.502112 
L 356.506101 291.502112 
L 356.912197 332.957364 
L 356.912197 225.582498 
L 357.318277 240.19419 
L 357.318277 334.14712 
L 357.724373 308.493065 
L 358.130454 336.526568 
L 358.130454 255.995356 
L 358.130454 296.260821 
L 358.53655 270.607267 
L 358.94263 204.687465 
L 358.94263 244.952931 
L 359.348726 232.720625 
L 359.754807 207.066476 
L 360.973079 250.900489 
L 361.379175 332.6213 
L 361.379175 278.933867 
L 361.785255 280.123466 
L 361.785255 239.857814 
L 362.191351 254.469005 
L 362.191351 294.734377 
L 362.191351 281.312691 
L 362.597432 255.658105 
L 363.003528 283.69142 
L 363.409608 258.037147 
L 363.409608 271.458802 
L 363.409608 258.037147 
L 364.221785 300.681029 
L 364.62788 261.604569 
L 364.62788 288.448223 
L 365.033961 235.950202 
L 365.440057 277.404548 
L 365.846153 224.906589 
L 367.470505 243.084078 
L 367.470505 283.349731 
L 367.876586 244.27324 
L 367.876586 230.851272 
L 368.282682 245.461995 
L 368.282682 339.414863 
L 368.282682 285.727367 
L 368.688762 246.650813 
L 369.094858 274.683379 
L 369.500939 222.184733 
L 369.500939 316.137444 
L 370.31313 237.98418 
L 370.31313 331.936953 
L 371.125307 267.204939 
L 371.531387 268.3936 
L 371.531387 228.128072 
L 372.343564 270.770736 
L 373.15574 232.882344 
L 374.780108 264.479301 
L 375.186189 279.089618 
L 375.592285 320.543214 
L 375.998365 294.887846 
L 377.622718 313.062305 
L 377.622718 286.218526 
L 378.028814 260.563314 
L 378.028814 314.250247 
L 378.84099 262.938982 
L 378.84099 249.517295 
L 380.059262 279.924716 
L 380.059262 360.455928 
L 380.059262 239.659406 
L 380.059262 239.659406 
L 380.465343 294.53447 
L 380.871439 295.722475 
L 380.871439 282.30032 
L 381.277519 296.910012 
L 382.089696 285.863649 
L 382.495792 219.942222 
L 383.307968 262.582917 
L 383.307968 302.84857 
L 383.307968 276.004948 
L 384.120145 345.48939 
L 384.52624 266.145746 
L 384.932321 240.489691 
L 385.338417 308.786129 
L 385.338417 281.942412 
L 385.744497 336.817507 
L 386.150593 297.739203 
L 386.96277 326.957556 
L 388.587122 331.706546 
L 388.587122 237.753898 
L 388.993218 292.628586 
L 388.993218 279.206368 
L 389.399299 280.393499 
L 389.399299 293.815529 
L 389.805395 308.424252 
L 389.805395 268.158755 
L 389.805395 281.580692 
L 390.617571 283.955046 
L 391.835828 274.094064 
L 391.835828 327.781309 
L 391.835828 287.515813 
L 392.241924 328.968221 
L 392.241924 275.281038 
L 392.64802 263.045888 
L 393.054115 291.076329 
L 393.054115 304.498015 
L 393.460181 278.841179 
L 393.460181 305.684865 
L 393.460181 265.419618 
L 393.866277 360.559116 
L 394.272372 321.480468 
L 394.678468 322.666911 
L 394.678468 255.558104 
L 394.678468 255.558104 
L 395.084534 256.744578 
L 395.896725 285.961556 
L 396.302821 273.726218 
L 396.302821 287.147842 
L 396.302821 260.304157 
L 396.708917 261.490819 
L 396.708917 301.756315 
L 397.521078 290.707296 
L 397.521078 277.285516 
L 398.33327 239.39303 
L 398.739335 321.110279 
L 398.739335 240.579286 
L 399.145431 308.874973 
L 399.551527 310.06101 
L 399.551527 283.217574 
L 399.551527 310.06101 
L 400.363688 299.011834 
L 400.363688 312.433427 
L 400.769784 273.354092 
L 401.175879 301.38397 
L 401.175879 274.54066 
L 401.581975 289.148476 
L 402.394136 291.520394 
L 402.394136 264.67674 
L 402.394136 345.208108 
L 402.800232 292.706774 
L 402.800232 265.86287 
L 403.206328 199.939881 
L 404.018489 323.10835 
L 404.018489 282.842635 
L 404.018489 309.686414 
L 404.424585 284.028547 
L 405.236777 246.134811 
L 405.642872 260.742378 
L 406.048938 302.193474 
L 406.048938 261.927977 
L 406.048938 315.615347 
L 406.048938 275.350038 
L 406.455034 263.113951 
L 406.861129 304.564891 
L 406.861129 291.142986 
L 406.861129 291.142986 
L 407.673291 306.936339 
L 408.079386 321.543937 
L 408.485482 282.463852 
L 408.485482 309.307694 
L 408.891578 310.492918 
L 409.703739 286.02015 
L 409.703739 299.442211 
L 410.515931 274.969193 
L 410.922027 289.57651 
L 411.328092 357.870853 
L 411.328092 317.60545 
L 411.734188 278.525428 
L 411.734188 251.681586 
L 412.546379 321.161217 
L 412.546379 321.161217 
L 413.358541 256.422358 
L 413.358541 336.953226 
L 413.764637 271.029394 
L 413.764637 230.763928 
L 413.764637 284.451142 
L 414.170732 285.636492 
L 414.576828 219.712409 
L 414.982894 261.162505 
L 414.982894 301.428314 
L 414.982894 261.162505 
L 415.388989 262.347541 
L 415.795085 290.376357 
L 415.795085 317.21998 
L 416.201181 278.139551 
L 416.201181 278.139551 
L 417.419438 321.959658 
L 417.419438 295.115691 
L 417.419438 308.537534 
L 417.825534 269.456949 
L 417.825534 269.456949 
L 417.825534 256.0352 
L 418.231599 310.907357 
L 419.043791 326.698273 
L 419.449887 314.461311 
L 420.262048 303.408542 
L 420.262048 316.830509 
L 420.262048 316.830509 
L 420.668144 291.171329 
L 420.668144 291.171329 
L 421.074239 319.199395 
L 421.074239 292.356022 
L 421.886401 281.302878 
L 421.886401 267.881192 
L 422.292496 282.487383 
L 422.292496 322.753005 
L 422.698592 256.827954 
L 422.698592 297.093794 
L 423.104688 271.43427 
L 423.104688 298.278112 
L 423.104688 284.856207 
L 423.916849 394.59949 
L 424.322945 234.721821 
L 424.322945 274.987287 
L 425.135137 344.464729 
L 425.541202 291.961458 
L 426.353394 280.908126 
L 426.353394 348.017152 
L 426.759489 335.77944 
L 427.571651 324.725608 
L 427.571651 284.460018 
L 427.571651 284.460018 
L 427.977746 325.90952 
L 428.383842 286.827997 
L 428.383842 353.937148 
L 428.383842 313.67162 
L 429.196003 262.352166 
L 429.196003 302.617413 
L 429.196003 302.617413 
L 430.414291 239.059497 
L 430.414291 333.012427 
L 430.820356 347.618025 
L 431.226452 295.114379 
L 431.632548 309.719852 
L 432.038644 257.216393 
L 432.444739 325.508955 
L 432.850805 273.005184 
L 433.662996 248.528384 
L 433.662996 329.059409 
L 434.069092 209.446362 
L 434.475158 291.160892 
L 435.287349 266.683905 
L 435.287349 280.10556 
L 435.693445 348.39831 
L 435.693445 281.289097 
L 435.693445 281.289097 
L 436.505606 283.655545 
L 436.911702 325.104328 
L 437.317798 259.178464 
L 437.317798 286.021931 
L 438.129959 288.388098 
L 438.536055 343.25863 
L 438.942151 304.176264 
L 438.942151 304.176264 
L 438.942151 331.019918 
L 439.754312 293.12062 
L 440.566504 282.064288 
L 440.566504 268.642476 
L 441.378695 311.273859 
L 441.378695 338.11745 
L 441.378695 284.430361 
L 442.190856 353.905148 
L 442.596952 301.400595 
L 443.003048 302.583007 
L 443.409113 330.609416 
L 443.409113 250.078267 
L 443.815209 318.37036 
L 444.221305 346.396488 
L 444.221305 279.287306 
L 444.221305 292.709399 
L 444.627401 320.73534 
L 444.627401 320.73534 
L 444.627401 347.579056 
L 444.627401 253.626252 
L 444.627401 280.470249 
L 445.033466 268.230631 
L 445.033466 335.339781 
L 445.439562 309.678852 
L 445.439562 309.678852 
L 445.845658 297.439577 
L 445.845658 270.595829 
L 445.845658 297.439577 
L 446.251754 271.777991 
L 446.251754 271.777991 
L 446.251754 285.199927 
L 446.657849 340.069834 
L 447.063915 354.673964 
L 447.876106 289.929386 
L 448.688268 278.872086 
L 449.500459 334.92403 
L 450.718716 311.626704 
L 451.124812 339.652301 
L 451.530908 313.990653 
L 451.530908 300.568779 
L 452.343069 276.089198 
L 452.343069 329.776443 
L 452.749165 290.69289 
L 453.155261 265.031304 
L 453.561356 279.634745 
L 453.561356 306.478587 
L 453.561356 279.634745 
L 453.967422 321.082185 
L 454.373518 295.420255 
L 454.373518 268.576664 
L 454.779613 296.602104 
L 455.185709 270.940112 
L 456.810062 235.401231 
L 458.028319 332.898333 
L 458.434415 320.657808 
L 458.434415 266.970906 
L 458.840511 335.261375 
L 459.652672 297.358358 
L 460.058768 352.22714 
L 460.058768 338.805329 
L 460.870959 314.324342 
L 461.277025 315.505597 
L 461.277025 248.396259 
L 462.495312 305.627052 
L 462.901378 239.698719 
L 463.307473 281.14569 
L 463.713569 268.90454 
L 463.713569 336.013847 
L 463.713569 322.591817 
L 464.119665 296.929387 
L 464.119665 323.772822 
L 464.525761 284.688644 
L 464.525761 311.532204 
L 464.931826 299.291117 
L 465.337922 340.737744 
L 465.744018 301.652815 
L 465.744018 301.652815 
L 466.150113 289.411978 
L 466.150113 262.568105 
L 466.150113 289.411978 
L 466.962275 372.304544 
L 466.962275 264.929866 
L 466.962275 318.617111 
L 468.992723 297.676484 
L 469.398819 352.544641 
L 469.398819 325.7008 
L 469.804915 326.881212 
L 469.804915 300.037683 
L 470.21098 247.530724 
L 470.21098 328.061936 
L 470.21098 301.218157 
L 470.617076 302.398443 
L 471.023172 276.735357 
L 471.023172 249.891516 
L 471.023172 357.266444 
L 471.429268 318.181297 
L 471.835333 332.783395 
L 471.835333 279.096305 
L 472.241429 347.385649 
L 472.241429 320.541964 
L 473.053621 363.167909 
L 473.865782 298.4193 
L 474.271878 339.865021 
L 474.677973 367.888805 
L 475.084069 275.115881 
L 475.89623 331.163137 
L 476.302326 332.343361 
L 476.302326 318.921425 
L 476.708422 346.944959 
L 476.708422 306.679525 
L 477.114518 348.125152 
L 477.114518 267.593847 
L 478.332775 297.977173 
L 478.332775 297.977173 
L 478.738871 326.00052 
L 479.144936 313.758651 
L 479.144936 313.758651 
L 479.144936 340.602087 
L 479.551032 328.36 
L 479.551032 314.938063 
L 479.957128 329.539724 
L 479.957128 289.274133 
L 479.957128 329.539724 
L 480.363223 303.875888 
L 480.769289 251.368022 
L 480.769289 345.320702 
L 480.769289 305.055518 
L 481.175385 319.656678 
L 481.58148 293.99278 
L 481.58148 374.523617 
L 481.987576 348.8595 
L 481.987576 375.70306 
L 481.987576 322.015783 
L 481.987576 348.8595 
L 482.393672 309.773383 
L 482.799737 324.374794 
L 482.799737 364.640478 
L 483.205833 285.288646 
L 483.205833 352.397828 
L 483.611929 326.73368 
L 483.611929 313.311681 
L 483.611929 340.155491 
L 483.611929 313.311681 
L 484.018025 247.381723 
L 484.018025 354.756495 
L 484.42409 355.935844 
L 484.42409 288.826975 
L 485.236282 318.029077 
L 485.642378 319.208051 
L 485.642378 359.473798 
L 486.454539 308.144813 
L 486.860635 255.636479 
L 487.26673 297.080856 
L 487.26673 270.237234 
L 487.672826 298.260112 
L 488.078892 312.86096 
L 488.078892 286.017118 
L 488.484988 314.039934 
L 488.484988 287.196249 
L 489.297179 343.241286 
L 489.297179 396.928688 
L 489.297179 276.132386 
L 489.703245 317.576669 
L 489.703245 290.733046 
L 490.515436 333.356022 
L 490.921532 334.534746 
L 490.921532 294.269531 
L 492.139789 297.805797 
L 492.139789 311.227577 
L 492.139789 311.227577 
L 492.545885 312.405989 
L 492.545885 285.562335 
L 492.545885 325.827738 
L 492.95198 327.006587 
L 492.95198 313.584557 
L 492.95198 340.428211 
L 492.95198 313.584557 
L 493.764142 289.09807 
L 493.764142 356.207439 
L 493.764142 275.676446 
L 493.764142 302.520069 
L 494.170238 303.698668 
L 494.576333 291.45505 
L 494.576333 345.142358 
L 494.982429 386.58636 
L 494.982429 332.899145 
L 495.388495 320.655808 
L 495.79459 321.834001 
L 495.79459 281.568723 
L 496.200686 336.434286 
L 496.606782 297.347139 
L 496.606782 270.503329 
L 497.012847 365.634389 
L 497.012847 311.947237 
L 497.418943 299.703743 
L 497.418943 326.547085 
L 497.418943 259.438247 
L 497.825039 327.725528 
L 497.825039 300.881655 
L 498.6372 316.660134 
L 499.043296 331.259794 
L 499.043296 371.525322 
L 499.449392 292.172522 
L 499.449392 251.907025 
L 499.449392 319.016019 
L 499.855488 320.194275 
L 499.855488 306.772588 
L 500.261583 361.637683 
L 500.261583 294.528376 
L 500.667649 322.550035 
L 501.073745 310.306261 
L 501.885936 352.927549 
L 502.292002 313.839839 
L 502.292002 327.261994 
L 502.698097 274.752442 
L 502.698097 315.017876 
L 503.510289 290.529639 
L 503.510289 317.373324 
L 503.916385 358.816545 
L 504.728546 267.219157 
L 505.134642 322.084033 
L 505.540738 296.418103 
L 505.540738 336.683256 
L 505.540738 296.418103 
L 505.946803 324.439107 
L 505.946803 351.282854 
L 506.352899 352.460485 
L 506.352899 325.616549 
L 506.758995 299.950495 
L 506.758995 340.215804 
L 507.16509 314.549843 
L 507.16509 368.236963 
L 508.383347 304.66011 
L 508.789443 319.259145 
L 510.0077 295.94732 
L 510.819892 284.879613 
L 510.819892 325.145485 
L 511.225957 312.900804 
L 511.225957 366.587831 
L 511.225957 366.587831 
L 511.632053 300.655842 
L 512.038149 328.676626 
L 512.038149 382.36384 
L 512.444245 343.275286 
L 512.444245 316.431601 
L 513.256406 345.629578 
L 513.256406 305.363988 
L 513.662502 319.962742 
L 513.662502 333.384522 
L 514.474693 308.894692 
L 515.69295 312.424708 
L 516.099046 353.86721 
L 516.911207 329.376785 
L 516.911207 329.376785 
L 516.911207 275.689571 
L 516.911207 315.954787 
L 517.317303 330.553228 
L 517.723399 264.620927 
L 518.129495 319.484521 
L 518.53556 347.5049 
L 518.941656 294.994191 
L 518.941656 362.103154 
L 519.347752 309.592257 
L 519.347752 349.857848 
L 519.347752 336.43588 
L 519.753847 297.346701 
L 520.159913 365.632576 
L 520.566009 299.699837 
L 520.972105 367.985306 
L 520.972105 341.14137 
L 521.784296 330.072132 
L 521.784296 370.337691 
L 522.190362 304.404921 
L 522.190362 317.826764 
L 522.596457 265.315555 
L 523.002553 387.287988 
L 523.002553 373.866114 
L 523.408649 348.198809 
L 523.814714 362.796751 
L 523.814714 349.374939 
L 524.22081 350.550695 
L 524.22081 323.707259 
L 525.033002 352.902674 
L 525.845163 368.676715 
L 526.251259 262.477761 
L 526.657355 411.29391 
L 526.657355 263.653641 
L 526.657355 344.184634 
L 527.06345 345.360265 
L 527.06345 358.782357 
L 527.875612 320.868247 
L 527.875612 267.181032 
L 528.281707 335.465751 
L 528.281707 295.200379 
L 528.687803 350.063349 
L 529.093869 337.817293 
L 529.093869 337.817293 
L 529.093869 310.97367 
L 529.499964 352.414828 
L 529.90606 367.012051 
L 530.312156 287.656813 
L 530.312156 368.187619 
L 530.718252 329.097784 
L 530.718252 329.097784 
L 531.124317 370.538755 
L 531.124317 330.273102 
L 531.530413 304.60511 
L 531.936509 265.514931 
L 531.936509 346.046018 
L 531.936509 332.624113 
L 532.342605 360.643053 
L 532.74867 294.709221 
L 533.966957 298.235174 
L 533.966957 405.609665 
L 534.373023 312.832304 
L 534.779119 340.851213 
L 535.185214 315.182689 
L 535.185214 342.026093 
L 535.185214 328.604188 
L 535.997406 357.798228 
L 535.997406 330.954636 
L 536.403471 332.129486 
L 536.403471 399.238855 
L 536.809567 346.726333 
L 538.027824 336.829632 
L 538.840016 312.33577 
L 538.840016 339.179299 
L 539.246112 313.510369 
L 539.652207 354.950902 
L 539.652207 341.529091 
L 540.058273 302.438037 
L 540.464369 343.878508 
L 540.464369 370.722099 
L 540.464369 330.456415 
L 540.870464 331.631077 
L 541.27656 346.2278 
L 541.27656 346.2278 
L 542.088722 294.889565 
L 542.900913 337.503979 
L 542.900913 337.503979 
L 542.900913 364.348008 
L 543.306979 325.25686 
L 543.306979 284.991395 
L 543.713074 286.165682 
L 544.11917 341.02762 
L 544.525266 369.045811 
L 546.149619 306.633588 
L 546.96178 349.247501 
L 547.773972 324.752264 
L 548.586163 340.522336 
L 548.992229 328.27428 
L 548.992229 288.009034 
L 548.992229 341.696248 
L 549.80442 330.622572 
L 550.210516 331.796328 
L 550.210516 331.796328 
L 550.616581 373.235673 
L 552.240934 351.087447 
L 552.240934 324.243824 
L 553.053126 326.590898 
L 553.053126 380.278362 
L 553.053126 366.856394 
L 553.459222 314.342967 
L 554.271383 343.533944 
L 554.271383 397.221096 
L 554.677479 291.020016 
L 555.083574 345.881017 
L 555.48967 333.632524 
L 556.707927 337.152852 
L 556.707927 363.99635 
L 556.707927 310.309198 
L 557.114023 324.904515 
L 557.114023 311.482579 
L 557.114023 365.169949 
L 557.520119 299.234148 
L 557.926184 327.251182 
L 557.926184 313.829089 
L 557.926184 313.829089 
L 558.33228 408.955087 
L 558.33228 315.002563 
L 558.33228 382.111464 
L 559.144472 371.036288 
L 559.144472 317.348668 
L 559.144472 344.192322 
L 559.550537 372.209513 
L 559.550537 331.943735 
L 559.956633 413.647858 
L 559.956633 333.116928 
L 560.768824 322.041377 
L 561.17489 376.901784 
L 561.17489 323.214163 
L 561.17489 376.901784 
L 561.580986 310.965326 
L 561.987081 379.247576 
L 561.987081 352.403891 
L 561.987081 352.403891 
L 562.393177 353.577084 
L 562.799273 341.32809 
L 562.799273 354.749776 
L 563.611434 357.095568 
L 563.611434 343.673663 
L 564.01753 304.580953 
L 565.235787 348.364778 
L 565.641883 336.115629 
L 565.641883 336.115629 
L 565.641883 362.959251 
L 565.641883 322.693755 
L 566.454074 365.304356 
L 566.454074 325.038922 
L 566.86014 299.367742 
L 566.86014 353.054987 
L 566.86014 312.789522 
L 567.266236 354.227743 
L 567.672331 315.134752 
L 567.672331 328.556563 
L 568.078427 369.994377 
L 569.296684 346.668114 
L 570.108846 322.169034 
L 570.514941 390.450408 
L 570.921037 284.248079 
L 570.921037 351.357042 
L 570.921037 337.935137 
L 571.327133 352.529173 
L 571.327133 339.107517 
L 571.733229 353.701647 
L 572.54539 342.623908 
L 572.951486 343.796008 
L 572.951486 316.95226 
L 572.951486 384.061504 
L 573.357581 331.546077 
L 573.357581 344.968138 
L 573.763647 372.983797 
L 573.763647 319.296364 
L 574.169743 347.311867 
L 574.169743 320.468182 
L 574.169743 347.311867 
L 574.575839 308.218251 
L 574.575839 335.061999 
L 574.981934 336.233973 
L 574.981934 309.390132 
L 574.981934 336.233973 
L 575.38803 350.827884 
L 576.200191 339.749708 
L 576.200191 420.280701 
L 576.606287 367.765117 
L 577.012383 355.515061 
L 577.012383 288.405661 
L 577.418448 329.842756 
L 577.418448 356.686473 
L 577.418448 329.842756 
L 578.23064 372.451889 
L 578.636736 279.670496 
L 578.636736 387.045205 
L 579.042801 280.842126 
L 579.448897 349.122626 
L 579.854993 363.716255 
L 580.261089 364.887698 
L 580.261089 324.62217 
L 580.667184 352.637142 
L 581.885441 356.151345 
L 581.885441 329.307629 
L 582.291537 343.900914 
L 582.697603 331.650171 
L 582.697603 304.806454 
L 583.103698 346.243113 
L 583.103698 319.39949 
L 583.103698 359.66508 
L 583.91589 388.851089 
L 583.91589 335.163656 
L 584.321986 363.178565 
L 584.728051 350.927915 
L 584.728051 391.193599 
L 585.134147 258.146085 
L 585.540243 286.160807 
L 585.540243 353.270176 
L 585.946339 354.441181 
L 586.352404 342.190375 
L 586.7585 370.205003 
L 587.164596 344.532105 
L 587.164596 411.641162 
L 587.570691 359.124703 
L 588.382853 401.731866 
L 588.788948 376.058936 
L 589.195044 336.964226 
L 589.195044 310.12076 
L 589.195044 363.807912 
L 589.60114 351.556887 
L 590.413301 300.210808 
L 590.819397 328.224999 
L 590.819397 355.068653 
L 590.819397 274.537972 
L 591.631558 357.409945 
L 592.037654 331.736765 
L 592.037654 385.424073 
L 592.849846 334.077557 
L 592.849846 441.452204 
L 593.662007 309.574664 
L 594.068103 324.16698 
L 594.068103 283.901421 
L 594.880294 407.038453 
L 595.28636 381.365086 
L 595.28636 327.677809 
L 596.098551 383.705628 
L 596.504647 358.03201 
L 597.316808 360.372365 
L 598.535096 350.460382 
L 598.535096 350.460382 
L 599.347257 312.534833 
L 599.753353 340.54843 
L 600.159448 408.827274 
L 600.159448 328.29628 
L 600.565514 342.888035 
L 600.565514 383.153438 
L 601.377706 425.758476 
L 601.377706 318.383891 
L 601.783801 346.397238 
L 601.783801 413.506451 
L 602.189897 347.566837 
L 602.595963 335.314938 
L 602.595963 389.002214 
L 603.002058 390.171845 
L 603.002058 296.218978 
L 603.002058 349.906067 
L 603.408154 377.919351 
L 603.81425 325.401673 
L 603.81425 352.245296 
L 604.220315 393.680486 
L 604.220315 339.993146 
L 604.626411 354.584244 
L 605.438603 343.501506 
L 605.844668 290.983422 
L 605.844668 358.092667 
L 606.250764 372.683733 
L 606.65686 347.009616 
L 607.062956 361.600464 
L 607.469051 282.239007 
L 607.469051 416.457246 
L 608.281213 391.951884 
L 608.281213 365.108168 
L 608.687308 393.121014 
L 608.687308 326.011864 
L 608.687308 379.699203 
L 611.529918 320.773246 
L 611.936014 375.629466 
L 612.34211 336.532881 
L 612.34211 363.376472 
L 612.748206 404.810662 
L 612.748206 418.232567 
L 613.154271 379.13595 
L 614.372558 409.485777 
L 614.778624 397.232471 
L 614.778624 316.701696 
L 614.778624 316.701696 
L 615.18472 398.40132 
L 615.996911 320.207368 
L 616.403007 334.797873 
L 616.809073 389.653655 
L 616.809073 376.231781 
L 617.215168 363.978412 
L 618.839521 382.073714 
L 619.245617 356.39844 
L 620.057808 372.156762 
L 620.057808 358.734826 
L 620.463874 319.63746 
L 620.86997 387.914741 
L 620.86997 347.6494 
L 621.276065 348.817624 
L 622.494323 365.743483 
L 623.306514 341.235715 
L 623.306514 394.923148 
L 624.118675 356.99338 
L 624.118675 397.258908 
L 624.524771 331.317857 
L 624.524771 371.583135 
L 624.930867 319.06352 
L 625.336963 347.075085 
L 625.336963 441.02789 
L 626.149124 362.83247 
L 626.55522 310.312948 
L 626.55522 377.422068 
L 626.961315 324.902484 
L 627.367381 366.335486 
L 627.773477 300.39409 
L 627.773477 380.924959 
L 628.179573 341.826905 
L 628.179573 368.670528 
L 628.991764 371.005726 
L 628.991764 397.849317 
L 629.803925 333.074959 
L 629.803925 400.184328 
L 630.210021 334.242683 
L 630.210021 347.664275 
L 630.210021 374.507929 
L 630.210021 320.820559 
L 630.616117 362.253436 
L 631.022182 376.842627 
L 631.022182 349.999161 
L 631.022182 376.842627 
L 632.646535 327.824622 
L 632.646535 341.246183 
L 633.052631 369.256968 
L 633.458727 370.424192 
L 635.08308 388.514306 
L 635.08308 375.092463 
L 635.489175 335.993753 
L 636.301337 338.327889 
L 636.707432 352.916612 
L 636.707432 406.603701 
L 637.113528 380.927084 
L 637.113528 407.77055 
L 638.331785 344.161884 
L 638.737881 385.593949 
L 638.737881 345.328421 
L 638.737881 399.01576 
L 639.143977 359.917019 
L 639.550073 401.349271 
L 639.550073 374.505429 
L 639.956138 375.672153 
L 639.956138 362.250436 
L 640.362234 363.416816 
L 640.362234 390.260595 
L 640.76833 351.161666 
L 641.174425 338.90611 
L 641.580491 434.025514 
L 641.986587 381.50468 
L 641.986587 327.817372 
L 642.798778 370.415504 
L 642.798778 356.993755 
L 643.204874 331.316638 
L 643.204874 371.582041 
L 643.61094 345.904767 
L 644.017035 387.33655 
L 644.017035 400.758143 
L 644.423131 348.236997 
L 644.423131 307.971813 
L 645.235292 404.256972 
L 645.641388 405.423039 
L 645.641388 338.313795 
L 646.047484 352.901924 
L 646.047484 299.214491 
L 646.047484 352.901924 
L 647.265771 396.665531 
L 647.671867 384.409756 
L 647.671867 303.878388 
L 647.671867 370.987726 
L 648.077902 398.997416 
L 648.077902 358.731826 
L 648.483998 373.319736 
L 648.890094 361.063524 
L 648.890094 387.907178 
L 648.890094 387.907178 
L 650.108381 391.404663 
L 650.108381 351.139322 
L 650.514477 405.99248 
L 650.920573 366.892801 
L 650.920573 393.736298 
L 650.920573 366.892801 
L 651.326668 368.058181 
L 651.326668 368.058181 
L 651.732704 315.536503 
L 651.732704 409.489308 
L 651.732704 382.645717 
L 652.138799 370.389567 
L 652.544895 331.289638 
L 652.950991 359.298703 
L 652.950991 386.142482 
L 652.950991 332.455174 
L 653.763182 388.473493 
L 654.169278 376.217218 
L 654.98147 338.282482 
L 654.98147 418.813413 
L 655.793601 394.30052 
L 656.199697 355.200247 
L 656.605792 342.943722 
L 656.605792 356.365565 
L 657.82408 333.017583 
L 657.82408 386.704641 
L 658.230175 334.182651 
L 658.230175 374.448054 
L 659.042306 403.621844 
L 660.260594 393.695048 
L 660.260594 313.163961 
L 660.260594 366.851301 
L 661.072785 382.603185 
L 661.478881 383.767878 
L 661.884977 344.667262 
L 661.884977 317.823483 
L 662.291012 359.25386 
L 662.291012 399.519387 
L 662.697108 373.840426 
L 662.697108 387.262206 
L 663.103204 321.31803 
L 663.509299 376.170031 
L 663.915395 310.225198 
L 663.915395 377.334723 
L 664.727587 352.82008 
L 664.727587 393.085452 
L 665.539778 328.305499 
L 665.539778 408.83668 
L 665.539778 381.992682 
L 665.945814 383.15725 
L 666.351909 424.58719 
L 666.351909 411.165316 
L 667.164101 332.963302 
L 667.976292 388.979277 
L 668.382388 363.300128 
L 668.788484 324.198918 
L 669.600615 313.105492 
L 669.600615 353.370739 
L 670.006711 354.535057 
L 671.224998 344.605668 
L 671.224998 358.027166 
L 672.03719 320.089774 
L 672.03719 387.199175 
L 672.443285 374.941181 
L 672.443285 348.097277 
L 672.443285 388.362961 
L 672.849381 389.526779 
L 673.255416 377.268911 
L 674.067608 366.174829 
L 674.473704 407.604268 
L 674.473704 407.604268 
L 674.879799 341.658654 
L 676.098087 385.415417 
L 676.910218 374.320741 
L 677.722409 376.648127 
L 677.722409 336.382411 
L 678.128505 377.811288 
L 678.534601 378.975012 
L 678.534601 365.553013 
L 679.346792 421.567269 
L 679.346792 354.458056 
L 679.752888 369.043248 
L 680.158923 343.362943 
L 680.971115 359.11139 
L 680.971115 345.689485 
L 680.971115 345.689485 
L 681.377211 413.962047 
L 682.595498 336.920664 
L 682.595498 323.498602 
L 683.001594 338.083825 
L 683.001594 418.614787 
L 683.001594 311.240109 
L 684.219821 381.838275 
L 684.219821 395.259993 
L 684.625916 369.579626 
L 685.032012 424.42972 
L 685.438108 318.217828 
L 685.438108 371.905261 
L 685.844204 346.224331 
L 685.844204 359.646518 
L 686.2503 347.387524 
L 686.2503 333.9654 
L 687.062491 403.400218 
L 687.062491 322.869443 
L 687.468526 377.719413 
L 687.468526 364.297508 
L 687.468526 417.984753 
L 687.874622 378.882043 
L 688.280718 366.622768 
L 689.092909 409.213619 
L 689.092909 315.260721 
L 689.499005 356.689098 
L 689.499005 410.376375 
L 690.311197 359.014108 
L 690.717292 360.176583 
L 691.123328 401.604647 
L 691.123328 374.760962 
L 691.529424 389.34506 
L 691.935519 417.351281 
L 692.341615 378.248071 
L 693.153807 420.837954 
L 693.153807 367.150958 
L 693.559902 395.156649 
L 693.965998 396.318967 
L 693.965998 356.053345 
L 694.372033 384.05941 
L 694.778129 438.908724 
L 694.778129 304.690516 
L 695.590321 400.96755 
L 695.590321 414.389362 
L 695.996416 308.176688 
L 695.996416 361.864059 
L 695.996416 361.864059 
L 696.402512 336.182442 
L 696.808608 350.766071 
L 696.808608 350.766071 
L 697.6208 339.668239 
L 697.6208 420.199357 
L 698.026835 340.830275 
L 698.432931 409.101369 
L 698.839026 356.575566 
L 699.245122 357.737509 
L 699.651218 345.477484 
L 699.651218 399.164636 
L 700.463409 401.488209 
L 700.869505 362.384436 
L 701.275601 350.124099 
L 701.681636 351.285886 
L 701.681636 378.129477 
L 702.493828 380.452425 
L 702.493828 393.874237 
L 702.493828 380.452425 
L 702.899924 341.348684 
L 702.899924 341.348684 
L 703.306019 329.088222 
L 703.306019 396.197403 
L 703.712115 397.35869 
L 703.712115 343.671351 
L 703.712115 383.936785 
L 704.524307 399.681638 
L 704.930402 400.842987 
L 704.930402 360.577241 
L 705.336438 361.738715 
L 705.742533 389.743624 
L 706.554725 405.487758 
L 706.554725 445.753505 
L 707.366917 394.388301 
L 707.773012 382.127527 
L 707.773012 395.549463 
L 708.179108 356.445159 
L 708.991239 385.610918 
L 708.991239 412.454353 
L 709.397335 373.349768 
L 710.209526 402.515276 
L 710.209526 415.93715 
L 710.615622 390.254439 
L 710.615622 403.676406 
L 710.615622 403.676406 
L 711.021718 351.149947 
L 711.427814 405.998042 
L 712.239945 381.47568 
L 712.64604 449.745523 
L 713.458232 358.114261 
L 714.676519 348.174028 
L 714.676519 348.174028 
L 714.676519 321.330217 
L 715.082615 362.756313 
L 715.082615 403.021747 
L 716.300842 352.815955 
L 716.706938 380.819864 
L 717.113033 341.714873 
L 717.113033 435.667553 
L 717.519129 356.296752 
L 717.519129 409.984279 
L 718.331321 372.039481 
L 718.737417 373.199548 
L 719.143512 401.203301 
L 720.767835 405.843916 
L 721.173931 393.582079 
L 721.173931 420.425483 
L 721.173931 353.316489 
L 721.986122 409.323838 
L 722.392218 383.639909 
L 722.798314 398.221756 
L 723.610445 346.854209 
L 723.610445 320.010555 
L 724.828732 404.020627 
L 724.828732 404.020627 
L 725.234828 391.758477 
L 725.234828 364.914792 
L 725.640924 419.761949 
L 725.640924 339.230768 
L 726.453115 381.815556 
L 726.453115 408.65921 
L 726.85915 409.818747 
L 727.265246 397.55641 
L 727.671342 412.137758 
L 728.483533 374.191272 
L 728.889629 348.506998 
L 728.889629 469.30355 
L 728.889629 388.772588 
L 729.295725 430.197309 
L 729.295725 376.509876 
L 730.920048 434.83433 
L 731.732239 356.621879 
L 731.732239 343.199911 
L 731.732239 383.465314 
L 732.544431 399.205573 
L 732.544431 399.205573 
L 733.356622 428.367332 
L 733.762657 375.839092 
L 733.762657 389.260841 
L 734.168753 363.576129 
L 734.574849 405.000631 
L 734.574849 351.313136 
L 734.574849 391.57857 
L 734.980945 406.159574 
L 735.387041 367.05277 
L 736.199232 382.792123 
L 736.199232 342.526783 
L 736.199232 369.370468 
L 737.011424 452.218816 
L 737.011424 411.953382 
L 737.417459 426.533917 
L 739.041842 377.481099 
L 739.041842 337.215603 
L 739.854034 393.219952 
L 740.260129 380.956521 
L 740.260129 394.37852 
L 740.666225 368.69334 
L 741.07226 369.851845 
L 741.478356 424.697378 
L 741.478356 344.166509 
L 741.478356 357.588102 
L 741.884452 425.855664 
L 743.102739 375.643372 
L 743.102739 389.064902 
L 743.102739 348.799687 
L 743.508835 417.067093 
L 744.321026 352.273984 
L 744.321026 419.383259 
L 744.321026 365.696076 
L 745.133158 408.27774 
L 745.945349 410.593813 
L 746.351445 384.908071 
L 746.757541 399.487762 
L 746.757541 412.90948 
L 746.757541 386.066138 
L 746.757541 412.90948 
L 747.163636 360.380115 
L 747.163636 360.380115 
" clip-path="url(#pad9dffb841)" style="fill: none; stroke: #1f77b4; stroke-width: 2; stroke-linecap: square"/>
   </g>
   <g id="line2d_32">
    <path d="M 138.436364 260.676784 
L 157.928632 270.859549 
L 157.928632 270.859549 
L 177.4209 280.81097 
L 177.4209 280.81097 
L 197.319252 290.73739 
L 218.029788 300.826999 
L 239.146413 310.866482 
L 239.146413 310.866482 
L 261.075214 321.034497 
L 283.410103 331.129356 
L 305.744992 340.967776 
L 305.744992 340.967776 
L 328.892058 350.90104 
L 328.892058 350.90104 
L 351.226947 360.240614 
L 351.226947 360.240614 
L 373.15574 369.182874 
L 396.302821 378.383541 
L 396.302821 378.383541 
L 418.231599 386.881173 
L 443.003048 396.231997 
L 466.962275 405.033006 
L 466.962275 405.033006 
L 492.139789 414.03186 
L 492.139789 414.03186 
L 514.474693 421.806802 
L 539.652207 430.34531 
L 539.652207 430.34531 
L 567.266236 439.441414 
L 593.662007 447.883921 
L 621.276065 456.459398 
L 648.483998 464.662123 
L 674.879799 472.392877 
L 702.899924 480.363757 
L 702.899924 480.363757 
L 731.732239 488.320418 
L 731.732239 488.320418 
L 747.163636 492.48 
L 747.163636 492.48 
" clip-path="url(#pad9dffb841)" style="fill: none; stroke: #ff7f0e; stroke-width: 2; stroke-linecap: square"/>
   </g>
   <g id="patch_3">
    <path d="M 108 512.64 
L 108 69.12 
" style="fill: none; stroke: #000000; stroke-width: 0.8; stroke-linejoin: miter; stroke-linecap: square"/>
   </g>
   <g id="patch_4">
    <path d="M 777.6 512.64 
L 777.6 69.12 
" style="fill: none; stroke: #000000; stroke-width: 0.8; stroke-linejoin: miter; stroke-linecap: square"/>
   </g>
   <g id="patch_5">
    <path d="M 108 512.64 
L 777.6 512.64 
" style="fill: none; stroke: #000000; stroke-width: 0.8; stroke-linejoin: miter; stroke-linecap: square"/>
   </g>
   <g id="patch_6">
    <path d="M 108 69.12 
L 777.6 69.12 
" style="fill: none; stroke: #000000; stroke-width: 0.8; stroke-linejoin: miter; stroke-linecap: square"/>
   </g>
   <g id="text_18">
    <!-- Price by Risk-free rate. Moneyness=1.1 -->
    <g transform="translate(245.539062 63.12) scale(0.2 -0.2)">
     <defs>
      <path id="DejaVuSans-62" d="M 3116 1747 
Q 3116 2381 2855 2742 
Q 2594 3103 2138 3103 
Q 1681 3103 1420 2742 
Q 1159 2381 1159 1747 
Q 1159 1113 1420 752 
Q 1681 391 2138 391 
Q 2594 391 2855 752 
Q 3116 1113 3116 1747 
z
M 1159 2969 
Q 1341 3281 1617 3432 
Q 1894 3584 2278 3584 
Q 2916 3584 3314 3078 
Q 3713 2572 3713 1747 
Q 3713 922 3314 415 
Q 2916 -91 2278 -91 
Q 1894 -91 1617 61 
Q 1341 213 1159 525 
L 1159 0 
L 581 0 
L 581 4863 
L 1159 4863 
L 1159 2969 
z
" transform="scale(0.015625)"/>
      <path id="DejaVuSans-79" d="M 2059 -325 
Q 1816 -950 1584 -1140 
Q 1353 -1331 966 -1331 
L 506 -1331 
L 506 -850 
L 844 -850 
Q 1081 -850 1212 -737 
Q 1344 -625 1503 -206 
L 1606 56 
L 191 3500 
L 800 3500 
L 1894 763 
L 2988 3500 
L 3597 3500 
L 2059 -325 
z
" transform="scale(0.015625)"/>
      <path id="DejaVuSans-4d" d="M 628 4666 
L 1569 4666 
L 2759 1491 
L 3956 4666 
L 4897 4666 
L 4897 0 
L 4281 0 
L 4281 4097 
L 3078 897 
L 2444 897 
L 1241 4097 
L 1241 0 
L 628 0 
L 628 4666 
z
" transform="scale(0.015625)"/>
      <path id="DejaVuSans-6e" d="M 3513 2113 
L 3513 0 
L 2938 0 
L 2938 2094 
Q 2938 2591 2744 2837 
Q 2550 3084 2163 3084 
Q 1697 3084 1428 2787 
Q 1159 2491 1159 1978 
L 1159 0 
L 581 0 
L 581 3500 
L 1159 3500 
L 1159 2956 
Q 1366 3272 1645 3428 
Q 1925 3584 2291 3584 
Q 2894 3584 3203 3211 
Q 3513 2838 3513 2113 
z
" transform="scale(0.015625)"/>
      <path id="DejaVuSans-3d" d="M 678 2906 
L 4684 2906 
L 4684 2381 
L 678 2381 
L 678 2906 
z
M 678 1631 
L 4684 1631 
L 4684 1100 
L 678 1100 
L 678 1631 
z
" transform="scale(0.015625)"/>
     </defs>
     <use xlink:href="#DejaVuSans-50"/>
     <use xlink:href="#DejaVuSans-72" x="58.552734"/>
     <use xlink:href="#DejaVuSans-69" x="99.666016"/>
     <use xlink:href="#DejaVuSans-63" x="127.449219"/>
     <use xlink:href="#DejaVuSans-65" x="182.429688"/>
     <use xlink:href="#DejaVuSans-20" x="243.953125"/>
     <use xlink:href="#DejaVuSans-62" x="275.740234"/>
     <use xlink:href="#DejaVuSans-79" x="339.216797"/>
     <use xlink:href="#DejaVuSans-20" x="398.396484"/>
     <use xlink:href="#DejaVuSans-52" x="430.183594"/>
     <use xlink:href="#DejaVuSans-69" x="499.666016"/>
     <use xlink:href="#DejaVuSans-73" x="527.449219"/>
     <use xlink:href="#DejaVuSans-6b" x="579.548828"/>
     <use xlink:href="#DejaVuSans-2d" x="637.458984"/>
     <use xlink:href="#DejaVuSans-66" x="673.542969"/>
     <use xlink:href="#DejaVuSans-72" x="708.748047"/>
     <use xlink:href="#DejaVuSans-65" x="747.611328"/>
     <use xlink:href="#DejaVuSans-65" x="809.134766"/>
     <use xlink:href="#DejaVuSans-20" x="870.658203"/>
     <use xlink:href="#DejaVuSans-72" x="902.445312"/>
     <use xlink:href="#DejaVuSans-61" x="943.558594"/>
     <use xlink:href="#DejaVuSans-74" x="1004.837891"/>
     <use xlink:href="#DejaVuSans-65" x="1044.046875"/>
     <use xlink:href="#DejaVuSans-2e" x="1105.570312"/>
     <use xlink:href="#DejaVuSans-20" x="1137.357422"/>
     <use xlink:href="#DejaVuSans-4d" x="1169.144531"/>
     <use xlink:href="#DejaVuSans-6f" x="1255.423828"/>
     <use xlink:href="#DejaVuSans-6e" x="1316.605469"/>
     <use xlink:href="#DejaVuSans-65" x="1379.984375"/>
     <use xlink:href="#DejaVuSans-79" x="1441.507812"/>
     <use xlink:href="#DejaVuSans-6e" x="1500.6875"/>
     <use xlink:href="#DejaVuSans-65" x="1564.066406"/>
     <use xlink:href="#DejaVuSans-73" x="1625.589844"/>
     <use xlink:href="#DejaVuSans-73" x="1677.689453"/>
     <use xlink:href="#DejaVuSans-3d" x="1729.789062"/>
     <use xlink:href="#DejaVuSans-31" x="1813.578125"/>
     <use xlink:href="#DejaVuSans-2e" x="1877.201172"/>
     <use xlink:href="#DejaVuSans-31" x="1908.988281"/>
    </g>
   </g>
   <g id="legend_1">
    <g id="patch_7">
     <path d="M 598.581563 136.36125 
L 765 136.36125 
Q 768.6 136.36125 768.6 132.76125 
L 768.6 81.72 
Q 768.6 78.12 765 78.12 
L 598.581563 78.12 
Q 594.981563 78.12 594.981563 81.72 
L 594.981563 132.76125 
Q 594.981563 136.36125 598.581563 136.36125 
z
" style="fill: #ffffff; opacity: 0.8; stroke: #cccccc; stroke-linejoin: miter"/>
    </g>
    <g id="line2d_33">
     <path d="M 602.181563 92.697188 
L 620.181563 92.697188 
L 638.181563 92.697188 
" style="fill: none; stroke: #1f77b4; stroke-width: 2; stroke-linecap: square"/>
    </g>
    <g id="text_19">
     <!-- Monte Carlo -->
     <g transform="translate(652.581563 98.997188) scale(0.18 -0.18)">
      <defs>
       <path id="DejaVuSans-43" d="M 4122 4306 
L 4122 3641 
Q 3803 3938 3442 4084 
Q 3081 4231 2675 4231 
Q 1875 4231 1450 3742 
Q 1025 3253 1025 2328 
Q 1025 1406 1450 917 
Q 1875 428 2675 428 
Q 3081 428 3442 575 
Q 3803 722 4122 1019 
L 4122 359 
Q 3791 134 3420 21 
Q 3050 -91 2638 -91 
Q 1578 -91 968 557 
Q 359 1206 359 2328 
Q 359 3453 968 4101 
Q 1578 4750 2638 4750 
Q 3056 4750 3426 4639 
Q 3797 4528 4122 4306 
z
" transform="scale(0.015625)"/>
       <path id="DejaVuSans-6c" d="M 603 4863 
L 1178 4863 
L 1178 0 
L 603 0 
L 603 4863 
z
" transform="scale(0.015625)"/>
      </defs>
      <use xlink:href="#DejaVuSans-4d"/>
      <use xlink:href="#DejaVuSans-6f" x="86.279297"/>
      <use xlink:href="#DejaVuSans-6e" x="147.460938"/>
      <use xlink:href="#DejaVuSans-74" x="210.839844"/>
      <use xlink:href="#DejaVuSans-65" x="250.048828"/>
      <use xlink:href="#DejaVuSans-20" x="311.572266"/>
      <use xlink:href="#DejaVuSans-43" x="343.359375"/>
      <use xlink:href="#DejaVuSans-61" x="413.183594"/>
      <use xlink:href="#DejaVuSans-72" x="474.462891"/>
      <use xlink:href="#DejaVuSans-6c" x="515.576172"/>
      <use xlink:href="#DejaVuSans-6f" x="543.359375"/>
     </g>
    </g>
    <g id="line2d_34">
     <path d="M 602.181563 119.117813 
L 620.181563 119.117813 
L 638.181563 119.117813 
" style="fill: none; stroke: #ff7f0e; stroke-width: 2; stroke-linecap: square"/>
    </g>
    <g id="text_20">
     <!-- Positive net -->
     <g transform="translate(652.581563 125.417813) scale(0.18 -0.18)">
      <defs>
       <path id="DejaVuSans-76" d="M 191 3500 
L 800 3500 
L 1894 563 
L 2988 3500 
L 3597 3500 
L 2284 0 
L 1503 0 
L 191 3500 
z
" transform="scale(0.015625)"/>
      </defs>
      <use xlink:href="#DejaVuSans-50"/>
      <use xlink:href="#DejaVuSans-6f" x="56.677734"/>
      <use xlink:href="#DejaVuSans-73" x="117.859375"/>
      <use xlink:href="#DejaVuSans-69" x="169.958984"/>
      <use xlink:href="#DejaVuSans-74" x="197.742188"/>
      <use xlink:href="#DejaVuSans-69" x="236.951172"/>
      <use xlink:href="#DejaVuSans-76" x="264.734375"/>
      <use xlink:href="#DejaVuSans-65" x="323.914062"/>
      <use xlink:href="#DejaVuSans-20" x="385.4375"/>
      <use xlink:href="#DejaVuSans-6e" x="417.224609"/>
      <use xlink:href="#DejaVuSans-65" x="480.603516"/>
      <use xlink:href="#DejaVuSans-74" x="542.126953"/>
     </g>
    </g>
   </g>
  </g>
 </g>
 <defs>
  <clipPath id="pad9dffb841">
   <rect x="108" y="69.12" width="669.6" height="443.52"/>
  </clipPath>
 </defs>
</svg>
