<?xml version="1.0" encoding="utf-8" standalone="no"?>
<!DOCTYPE svg PUBLIC "-//W3C//DTD SVG 1.1//EN"
  "http://www.w3.org/Graphics/SVG/1.1/DTD/svg11.dtd">
<svg xmlns:xlink="http://www.w3.org/1999/xlink" width="864pt" height="576pt" viewBox="0 0 864 576" xmlns="http://www.w3.org/2000/svg" version="1.1">
 <metadata>
  <rdf:RDF xmlns:dc="http://purl.org/dc/elements/1.1/" xmlns:cc="http://creativecommons.org/ns#" xmlns:rdf="http://www.w3.org/1999/02/22-rdf-syntax-ns#">
   <cc:Work>
    <dc:type rdf:resource="http://purl.org/dc/dcmitype/StillImage"/>
    <dc:date>2024-03-10T20:01:44.372415</dc:date>
    <dc:format>image/svg+xml</dc:format>
    <dc:creator>
     <cc:Agent>
      <dc:title>Matplotlib v3.7.3, https://matplotlib.org/</dc:title>
     </cc:Agent>
    </dc:creator>
   </cc:Work>
  </rdf:RDF>
 </metadata>
 <defs>
  <style type="text/css">*{stroke-linejoin: round; stroke-linecap: butt}</style>
 </defs>
 <g id="figure_1">
  <g id="patch_1">
   <path d="M 0 576 
L 864 576 
L 864 0 
L 0 0 
z
" style="fill: #ffffff"/>
  </g>
  <g id="axes_1">
   <g id="patch_2">
    <path d="M 108 512.64 
L 777.6 512.64 
L 777.6 69.12 
L 108 69.12 
z
" style="fill: #ffffff"/>
   </g>
   <g id="matplotlib.axis_1">
    <g id="xtick_1">
     <g id="line2d_1">
      <path d="M 199.235839 512.64 
L 199.235839 69.12 
" clip-path="url(#p74ad2962b2)" style="fill: none; stroke: #b0b0b0; stroke-width: 0.8; stroke-linecap: square"/>
     </g>
     <g id="line2d_2">
      <defs>
       <path id="m03ae7695b2" d="M 0 0 
L 0 3.5 
" style="stroke: #000000; stroke-width: 0.8"/>
      </defs>
      <g>
       <use xlink:href="#m03ae7695b2" x="199.235839" y="512.64" style="stroke: #000000; stroke-width: 0.8"/>
      </g>
     </g>
     <g id="text_1">
      <!-- 0.1 -->
      <g transform="translate(191.284277 527.238438) scale(0.1 -0.1)">
       <defs>
        <path id="DejaVuSans-30" d="M 2034 4250 
Q 1547 4250 1301 3770 
Q 1056 3291 1056 2328 
Q 1056 1369 1301 889 
Q 1547 409 2034 409 
Q 2525 409 2770 889 
Q 3016 1369 3016 2328 
Q 3016 3291 2770 3770 
Q 2525 4250 2034 4250 
z
M 2034 4750 
Q 2819 4750 3233 4129 
Q 3647 3509 3647 2328 
Q 3647 1150 3233 529 
Q 2819 -91 2034 -91 
Q 1250 -91 836 529 
Q 422 1150 422 2328 
Q 422 3509 836 4129 
Q 1250 4750 2034 4750 
z
" transform="scale(0.015625)"/>
        <path id="DejaVuSans-2e" d="M 684 794 
L 1344 794 
L 1344 0 
L 684 0 
L 684 794 
z
" transform="scale(0.015625)"/>
        <path id="DejaVuSans-31" d="M 794 531 
L 1825 531 
L 1825 4091 
L 703 3866 
L 703 4441 
L 1819 4666 
L 2450 4666 
L 2450 531 
L 3481 531 
L 3481 0 
L 794 0 
L 794 531 
z
" transform="scale(0.015625)"/>
       </defs>
       <use xlink:href="#DejaVuSans-30"/>
       <use xlink:href="#DejaVuSans-2e" x="63.623047"/>
       <use xlink:href="#DejaVuSans-31" x="95.410156"/>
      </g>
     </g>
    </g>
    <g id="xtick_2">
     <g id="line2d_3">
      <path d="M 321.32314 512.64 
L 321.32314 69.12 
" clip-path="url(#p74ad2962b2)" style="fill: none; stroke: #b0b0b0; stroke-width: 0.8; stroke-linecap: square"/>
     </g>
     <g id="line2d_4">
      <g>
       <use xlink:href="#m03ae7695b2" x="321.32314" y="512.64" style="stroke: #000000; stroke-width: 0.8"/>
      </g>
     </g>
     <g id="text_2">
      <!-- 0.2 -->
      <g transform="translate(313.371578 527.238438) scale(0.1 -0.1)">
       <defs>
        <path id="DejaVuSans-32" d="M 1228 531 
L 3431 531 
L 3431 0 
L 469 0 
L 469 531 
Q 828 903 1448 1529 
Q 2069 2156 2228 2338 
Q 2531 2678 2651 2914 
Q 2772 3150 2772 3378 
Q 2772 3750 2511 3984 
Q 2250 4219 1831 4219 
Q 1534 4219 1204 4116 
Q 875 4013 500 3803 
L 500 4441 
Q 881 4594 1212 4672 
Q 1544 4750 1819 4750 
Q 2544 4750 2975 4387 
Q 3406 4025 3406 3419 
Q 3406 3131 3298 2873 
Q 3191 2616 2906 2266 
Q 2828 2175 2409 1742 
Q 1991 1309 1228 531 
z
" transform="scale(0.015625)"/>
       </defs>
       <use xlink:href="#DejaVuSans-30"/>
       <use xlink:href="#DejaVuSans-2e" x="63.623047"/>
       <use xlink:href="#DejaVuSans-32" x="95.410156"/>
      </g>
     </g>
    </g>
    <g id="xtick_3">
     <g id="line2d_5">
      <path d="M 443.410441 512.64 
L 443.410441 69.12 
" clip-path="url(#p74ad2962b2)" style="fill: none; stroke: #b0b0b0; stroke-width: 0.8; stroke-linecap: square"/>
     </g>
     <g id="line2d_6">
      <g>
       <use xlink:href="#m03ae7695b2" x="443.410441" y="512.64" style="stroke: #000000; stroke-width: 0.8"/>
      </g>
     </g>
     <g id="text_3">
      <!-- 0.3 -->
      <g transform="translate(435.458879 527.238438) scale(0.1 -0.1)">
       <defs>
        <path id="DejaVuSans-33" d="M 2597 2516 
Q 3050 2419 3304 2112 
Q 3559 1806 3559 1356 
Q 3559 666 3084 287 
Q 2609 -91 1734 -91 
Q 1441 -91 1130 -33 
Q 819 25 488 141 
L 488 750 
Q 750 597 1062 519 
Q 1375 441 1716 441 
Q 2309 441 2620 675 
Q 2931 909 2931 1356 
Q 2931 1769 2642 2001 
Q 2353 2234 1838 2234 
L 1294 2234 
L 1294 2753 
L 1863 2753 
Q 2328 2753 2575 2939 
Q 2822 3125 2822 3475 
Q 2822 3834 2567 4026 
Q 2313 4219 1838 4219 
Q 1578 4219 1281 4162 
Q 984 4106 628 3988 
L 628 4550 
Q 988 4650 1302 4700 
Q 1616 4750 1894 4750 
Q 2613 4750 3031 4423 
Q 3450 4097 3450 3541 
Q 3450 3153 3228 2886 
Q 3006 2619 2597 2516 
z
" transform="scale(0.015625)"/>
       </defs>
       <use xlink:href="#DejaVuSans-30"/>
       <use xlink:href="#DejaVuSans-2e" x="63.623047"/>
       <use xlink:href="#DejaVuSans-33" x="95.410156"/>
      </g>
     </g>
    </g>
    <g id="xtick_4">
     <g id="line2d_7">
      <path d="M 565.497743 512.64 
L 565.497743 69.12 
" clip-path="url(#p74ad2962b2)" style="fill: none; stroke: #b0b0b0; stroke-width: 0.8; stroke-linecap: square"/>
     </g>
     <g id="line2d_8">
      <g>
       <use xlink:href="#m03ae7695b2" x="565.497743" y="512.64" style="stroke: #000000; stroke-width: 0.8"/>
      </g>
     </g>
     <g id="text_4">
      <!-- 0.4 -->
      <g transform="translate(557.54618 527.238438) scale(0.1 -0.1)">
       <defs>
        <path id="DejaVuSans-34" d="M 2419 4116 
L 825 1625 
L 2419 1625 
L 2419 4116 
z
M 2253 4666 
L 3047 4666 
L 3047 1625 
L 3713 1625 
L 3713 1100 
L 3047 1100 
L 3047 0 
L 2419 0 
L 2419 1100 
L 313 1100 
L 313 1709 
L 2253 4666 
z
" transform="scale(0.015625)"/>
       </defs>
       <use xlink:href="#DejaVuSans-30"/>
       <use xlink:href="#DejaVuSans-2e" x="63.623047"/>
       <use xlink:href="#DejaVuSans-34" x="95.410156"/>
      </g>
     </g>
    </g>
    <g id="xtick_5">
     <g id="line2d_9">
      <path d="M 687.585044 512.64 
L 687.585044 69.12 
" clip-path="url(#p74ad2962b2)" style="fill: none; stroke: #b0b0b0; stroke-width: 0.8; stroke-linecap: square"/>
     </g>
     <g id="line2d_10">
      <g>
       <use xlink:href="#m03ae7695b2" x="687.585044" y="512.64" style="stroke: #000000; stroke-width: 0.8"/>
      </g>
     </g>
     <g id="text_5">
      <!-- 0.5 -->
      <g transform="translate(679.633481 527.238438) scale(0.1 -0.1)">
       <defs>
        <path id="DejaVuSans-35" d="M 691 4666 
L 3169 4666 
L 3169 4134 
L 1269 4134 
L 1269 2991 
Q 1406 3038 1543 3061 
Q 1681 3084 1819 3084 
Q 2600 3084 3056 2656 
Q 3513 2228 3513 1497 
Q 3513 744 3044 326 
Q 2575 -91 1722 -91 
Q 1428 -91 1123 -41 
Q 819 9 494 109 
L 494 744 
Q 775 591 1075 516 
Q 1375 441 1709 441 
Q 2250 441 2565 725 
Q 2881 1009 2881 1497 
Q 2881 1984 2565 2268 
Q 2250 2553 1709 2553 
Q 1456 2553 1204 2497 
Q 953 2441 691 2322 
L 691 4666 
z
" transform="scale(0.015625)"/>
       </defs>
       <use xlink:href="#DejaVuSans-30"/>
       <use xlink:href="#DejaVuSans-2e" x="63.623047"/>
       <use xlink:href="#DejaVuSans-35" x="95.410156"/>
      </g>
     </g>
    </g>
    <g id="text_6">
     <!-- Volatility -->
     <g transform="translate(403.934062 546.995312) scale(0.18 -0.18)">
      <defs>
       <path id="DejaVuSans-56" d="M 1831 0 
L 50 4666 
L 709 4666 
L 2188 738 
L 3669 4666 
L 4325 4666 
L 2547 0 
L 1831 0 
z
" transform="scale(0.015625)"/>
       <path id="DejaVuSans-6f" d="M 1959 3097 
Q 1497 3097 1228 2736 
Q 959 2375 959 1747 
Q 959 1119 1226 758 
Q 1494 397 1959 397 
Q 2419 397 2687 759 
Q 2956 1122 2956 1747 
Q 2956 2369 2687 2733 
Q 2419 3097 1959 3097 
z
M 1959 3584 
Q 2709 3584 3137 3096 
Q 3566 2609 3566 1747 
Q 3566 888 3137 398 
Q 2709 -91 1959 -91 
Q 1206 -91 779 398 
Q 353 888 353 1747 
Q 353 2609 779 3096 
Q 1206 3584 1959 3584 
z
" transform="scale(0.015625)"/>
       <path id="DejaVuSans-6c" d="M 603 4863 
L 1178 4863 
L 1178 0 
L 603 0 
L 603 4863 
z
" transform="scale(0.015625)"/>
       <path id="DejaVuSans-61" d="M 2194 1759 
Q 1497 1759 1228 1600 
Q 959 1441 959 1056 
Q 959 750 1161 570 
Q 1363 391 1709 391 
Q 2188 391 2477 730 
Q 2766 1069 2766 1631 
L 2766 1759 
L 2194 1759 
z
M 3341 1997 
L 3341 0 
L 2766 0 
L 2766 531 
Q 2569 213 2275 61 
Q 1981 -91 1556 -91 
Q 1019 -91 701 211 
Q 384 513 384 1019 
Q 384 1609 779 1909 
Q 1175 2209 1959 2209 
L 2766 2209 
L 2766 2266 
Q 2766 2663 2505 2880 
Q 2244 3097 1772 3097 
Q 1472 3097 1187 3025 
Q 903 2953 641 2809 
L 641 3341 
Q 956 3463 1253 3523 
Q 1550 3584 1831 3584 
Q 2591 3584 2966 3190 
Q 3341 2797 3341 1997 
z
" transform="scale(0.015625)"/>
       <path id="DejaVuSans-74" d="M 1172 4494 
L 1172 3500 
L 2356 3500 
L 2356 3053 
L 1172 3053 
L 1172 1153 
Q 1172 725 1289 603 
Q 1406 481 1766 481 
L 2356 481 
L 2356 0 
L 1766 0 
Q 1100 0 847 248 
Q 594 497 594 1153 
L 594 3053 
L 172 3053 
L 172 3500 
L 594 3500 
L 594 4494 
L 1172 4494 
z
" transform="scale(0.015625)"/>
       <path id="DejaVuSans-69" d="M 603 3500 
L 1178 3500 
L 1178 0 
L 603 0 
L 603 3500 
z
M 603 4863 
L 1178 4863 
L 1178 4134 
L 603 4134 
L 603 4863 
z
" transform="scale(0.015625)"/>
       <path id="DejaVuSans-79" d="M 2059 -325 
Q 1816 -950 1584 -1140 
Q 1353 -1331 966 -1331 
L 506 -1331 
L 506 -850 
L 844 -850 
Q 1081 -850 1212 -737 
Q 1344 -625 1503 -206 
L 1606 56 
L 191 3500 
L 800 3500 
L 1894 763 
L 2988 3500 
L 3597 3500 
L 2059 -325 
z
" transform="scale(0.015625)"/>
      </defs>
      <use xlink:href="#DejaVuSans-56"/>
      <use xlink:href="#DejaVuSans-6f" x="60.658203"/>
      <use xlink:href="#DejaVuSans-6c" x="121.839844"/>
      <use xlink:href="#DejaVuSans-61" x="149.623047"/>
      <use xlink:href="#DejaVuSans-74" x="210.902344"/>
      <use xlink:href="#DejaVuSans-69" x="250.111328"/>
      <use xlink:href="#DejaVuSans-6c" x="277.894531"/>
      <use xlink:href="#DejaVuSans-69" x="305.677734"/>
      <use xlink:href="#DejaVuSans-74" x="333.460938"/>
      <use xlink:href="#DejaVuSans-79" x="372.669922"/>
     </g>
    </g>
   </g>
   <g id="matplotlib.axis_2">
    <g id="ytick_1">
     <g id="line2d_11">
      <path d="M 108 492.885603 
L 777.6 492.885603 
" clip-path="url(#p74ad2962b2)" style="fill: none; stroke: #b0b0b0; stroke-width: 0.8; stroke-linecap: square"/>
     </g>
     <g id="line2d_12">
      <defs>
       <path id="ma61495ad5f" d="M 0 0 
L -3.5 0 
" style="stroke: #000000; stroke-width: 0.8"/>
      </defs>
      <g>
       <use xlink:href="#ma61495ad5f" x="108" y="492.885603" style="stroke: #000000; stroke-width: 0.8"/>
      </g>
     </g>
     <g id="text_7">
      <!-- 0.00 -->
      <g transform="translate(78.734375 496.684821) scale(0.1 -0.1)">
       <use xlink:href="#DejaVuSans-30"/>
       <use xlink:href="#DejaVuSans-2e" x="63.623047"/>
       <use xlink:href="#DejaVuSans-30" x="95.410156"/>
       <use xlink:href="#DejaVuSans-30" x="159.033203"/>
      </g>
     </g>
    </g>
    <g id="ytick_2">
     <g id="line2d_13">
      <path d="M 108 439.622745 
L 777.6 439.622745 
" clip-path="url(#p74ad2962b2)" style="fill: none; stroke: #b0b0b0; stroke-width: 0.8; stroke-linecap: square"/>
     </g>
     <g id="line2d_14">
      <g>
       <use xlink:href="#ma61495ad5f" x="108" y="439.622745" style="stroke: #000000; stroke-width: 0.8"/>
      </g>
     </g>
     <g id="text_8">
      <!-- 0.01 -->
      <g transform="translate(78.734375 443.421963) scale(0.1 -0.1)">
       <use xlink:href="#DejaVuSans-30"/>
       <use xlink:href="#DejaVuSans-2e" x="63.623047"/>
       <use xlink:href="#DejaVuSans-30" x="95.410156"/>
       <use xlink:href="#DejaVuSans-31" x="159.033203"/>
      </g>
     </g>
    </g>
    <g id="ytick_3">
     <g id="line2d_15">
      <path d="M 108 386.359887 
L 777.6 386.359887 
" clip-path="url(#p74ad2962b2)" style="fill: none; stroke: #b0b0b0; stroke-width: 0.8; stroke-linecap: square"/>
     </g>
     <g id="line2d_16">
      <g>
       <use xlink:href="#ma61495ad5f" x="108" y="386.359887" style="stroke: #000000; stroke-width: 0.8"/>
      </g>
     </g>
     <g id="text_9">
      <!-- 0.02 -->
      <g transform="translate(78.734375 390.159105) scale(0.1 -0.1)">
       <use xlink:href="#DejaVuSans-30"/>
       <use xlink:href="#DejaVuSans-2e" x="63.623047"/>
       <use xlink:href="#DejaVuSans-30" x="95.410156"/>
       <use xlink:href="#DejaVuSans-32" x="159.033203"/>
      </g>
     </g>
    </g>
    <g id="ytick_4">
     <g id="line2d_17">
      <path d="M 108 333.097029 
L 777.6 333.097029 
" clip-path="url(#p74ad2962b2)" style="fill: none; stroke: #b0b0b0; stroke-width: 0.8; stroke-linecap: square"/>
     </g>
     <g id="line2d_18">
      <g>
       <use xlink:href="#ma61495ad5f" x="108" y="333.097029" style="stroke: #000000; stroke-width: 0.8"/>
      </g>
     </g>
     <g id="text_10">
      <!-- 0.03 -->
      <g transform="translate(78.734375 336.896247) scale(0.1 -0.1)">
       <use xlink:href="#DejaVuSans-30"/>
       <use xlink:href="#DejaVuSans-2e" x="63.623047"/>
       <use xlink:href="#DejaVuSans-30" x="95.410156"/>
       <use xlink:href="#DejaVuSans-33" x="159.033203"/>
      </g>
     </g>
    </g>
    <g id="ytick_5">
     <g id="line2d_19">
      <path d="M 108 279.834171 
L 777.6 279.834171 
" clip-path="url(#p74ad2962b2)" style="fill: none; stroke: #b0b0b0; stroke-width: 0.8; stroke-linecap: square"/>
     </g>
     <g id="line2d_20">
      <g>
       <use xlink:href="#ma61495ad5f" x="108" y="279.834171" style="stroke: #000000; stroke-width: 0.8"/>
      </g>
     </g>
     <g id="text_11">
      <!-- 0.04 -->
      <g transform="translate(78.734375 283.633389) scale(0.1 -0.1)">
       <use xlink:href="#DejaVuSans-30"/>
       <use xlink:href="#DejaVuSans-2e" x="63.623047"/>
       <use xlink:href="#DejaVuSans-30" x="95.410156"/>
       <use xlink:href="#DejaVuSans-34" x="159.033203"/>
      </g>
     </g>
    </g>
    <g id="ytick_6">
     <g id="line2d_21">
      <path d="M 108 226.571313 
L 777.6 226.571313 
" clip-path="url(#p74ad2962b2)" style="fill: none; stroke: #b0b0b0; stroke-width: 0.8; stroke-linecap: square"/>
     </g>
     <g id="line2d_22">
      <g>
       <use xlink:href="#ma61495ad5f" x="108" y="226.571313" style="stroke: #000000; stroke-width: 0.8"/>
      </g>
     </g>
     <g id="text_12">
      <!-- 0.05 -->
      <g transform="translate(78.734375 230.370531) scale(0.1 -0.1)">
       <use xlink:href="#DejaVuSans-30"/>
       <use xlink:href="#DejaVuSans-2e" x="63.623047"/>
       <use xlink:href="#DejaVuSans-30" x="95.410156"/>
       <use xlink:href="#DejaVuSans-35" x="159.033203"/>
      </g>
     </g>
    </g>
    <g id="ytick_7">
     <g id="line2d_23">
      <path d="M 108 173.308455 
L 777.6 173.308455 
" clip-path="url(#p74ad2962b2)" style="fill: none; stroke: #b0b0b0; stroke-width: 0.8; stroke-linecap: square"/>
     </g>
     <g id="line2d_24">
      <g>
       <use xlink:href="#ma61495ad5f" x="108" y="173.308455" style="stroke: #000000; stroke-width: 0.8"/>
      </g>
     </g>
     <g id="text_13">
      <!-- 0.06 -->
      <g transform="translate(78.734375 177.107673) scale(0.1 -0.1)">
       <defs>
        <path id="DejaVuSans-36" d="M 2113 2584 
Q 1688 2584 1439 2293 
Q 1191 2003 1191 1497 
Q 1191 994 1439 701 
Q 1688 409 2113 409 
Q 2538 409 2786 701 
Q 3034 994 3034 1497 
Q 3034 2003 2786 2293 
Q 2538 2584 2113 2584 
z
M 3366 4563 
L 3366 3988 
Q 3128 4100 2886 4159 
Q 2644 4219 2406 4219 
Q 1781 4219 1451 3797 
Q 1122 3375 1075 2522 
Q 1259 2794 1537 2939 
Q 1816 3084 2150 3084 
Q 2853 3084 3261 2657 
Q 3669 2231 3669 1497 
Q 3669 778 3244 343 
Q 2819 -91 2113 -91 
Q 1303 -91 875 529 
Q 447 1150 447 2328 
Q 447 3434 972 4092 
Q 1497 4750 2381 4750 
Q 2619 4750 2861 4703 
Q 3103 4656 3366 4563 
z
" transform="scale(0.015625)"/>
       </defs>
       <use xlink:href="#DejaVuSans-30"/>
       <use xlink:href="#DejaVuSans-2e" x="63.623047"/>
       <use xlink:href="#DejaVuSans-30" x="95.410156"/>
       <use xlink:href="#DejaVuSans-36" x="159.033203"/>
      </g>
     </g>
    </g>
    <g id="ytick_8">
     <g id="line2d_25">
      <path d="M 108 120.045597 
L 777.6 120.045597 
" clip-path="url(#p74ad2962b2)" style="fill: none; stroke: #b0b0b0; stroke-width: 0.8; stroke-linecap: square"/>
     </g>
     <g id="line2d_26">
      <g>
       <use xlink:href="#ma61495ad5f" x="108" y="120.045597" style="stroke: #000000; stroke-width: 0.8"/>
      </g>
     </g>
     <g id="text_14">
      <!-- 0.07 -->
      <g transform="translate(78.734375 123.844816) scale(0.1 -0.1)">
       <defs>
        <path id="DejaVuSans-37" d="M 525 4666 
L 3525 4666 
L 3525 4397 
L 1831 0 
L 1172 0 
L 2766 4134 
L 525 4134 
L 525 4666 
z
" transform="scale(0.015625)"/>
       </defs>
       <use xlink:href="#DejaVuSans-30"/>
       <use xlink:href="#DejaVuSans-2e" x="63.623047"/>
       <use xlink:href="#DejaVuSans-30" x="95.410156"/>
       <use xlink:href="#DejaVuSans-37" x="159.033203"/>
      </g>
     </g>
    </g>
    <g id="text_15">
     <!-- Price/strike ratio -->
     <g transform="translate(70.990938 364.318594) rotate(-90) scale(0.18 -0.18)">
      <defs>
       <path id="DejaVuSans-50" d="M 1259 4147 
L 1259 2394 
L 2053 2394 
Q 2494 2394 2734 2622 
Q 2975 2850 2975 3272 
Q 2975 3691 2734 3919 
Q 2494 4147 2053 4147 
L 1259 4147 
z
M 628 4666 
L 2053 4666 
Q 2838 4666 3239 4311 
Q 3641 3956 3641 3272 
Q 3641 2581 3239 2228 
Q 2838 1875 2053 1875 
L 1259 1875 
L 1259 0 
L 628 0 
L 628 4666 
z
" transform="scale(0.015625)"/>
       <path id="DejaVuSans-72" d="M 2631 2963 
Q 2534 3019 2420 3045 
Q 2306 3072 2169 3072 
Q 1681 3072 1420 2755 
Q 1159 2438 1159 1844 
L 1159 0 
L 581 0 
L 581 3500 
L 1159 3500 
L 1159 2956 
Q 1341 3275 1631 3429 
Q 1922 3584 2338 3584 
Q 2397 3584 2469 3576 
Q 2541 3569 2628 3553 
L 2631 2963 
z
" transform="scale(0.015625)"/>
       <path id="DejaVuSans-63" d="M 3122 3366 
L 3122 2828 
Q 2878 2963 2633 3030 
Q 2388 3097 2138 3097 
Q 1578 3097 1268 2742 
Q 959 2388 959 1747 
Q 959 1106 1268 751 
Q 1578 397 2138 397 
Q 2388 397 2633 464 
Q 2878 531 3122 666 
L 3122 134 
Q 2881 22 2623 -34 
Q 2366 -91 2075 -91 
Q 1284 -91 818 406 
Q 353 903 353 1747 
Q 353 2603 823 3093 
Q 1294 3584 2113 3584 
Q 2378 3584 2631 3529 
Q 2884 3475 3122 3366 
z
" transform="scale(0.015625)"/>
       <path id="DejaVuSans-65" d="M 3597 1894 
L 3597 1613 
L 953 1613 
Q 991 1019 1311 708 
Q 1631 397 2203 397 
Q 2534 397 2845 478 
Q 3156 559 3463 722 
L 3463 178 
Q 3153 47 2828 -22 
Q 2503 -91 2169 -91 
Q 1331 -91 842 396 
Q 353 884 353 1716 
Q 353 2575 817 3079 
Q 1281 3584 2069 3584 
Q 2775 3584 3186 3129 
Q 3597 2675 3597 1894 
z
M 3022 2063 
Q 3016 2534 2758 2815 
Q 2500 3097 2075 3097 
Q 1594 3097 1305 2825 
Q 1016 2553 972 2059 
L 3022 2063 
z
" transform="scale(0.015625)"/>
       <path id="DejaVuSans-2f" d="M 1625 4666 
L 2156 4666 
L 531 -594 
L 0 -594 
L 1625 4666 
z
" transform="scale(0.015625)"/>
       <path id="DejaVuSans-73" d="M 2834 3397 
L 2834 2853 
Q 2591 2978 2328 3040 
Q 2066 3103 1784 3103 
Q 1356 3103 1142 2972 
Q 928 2841 928 2578 
Q 928 2378 1081 2264 
Q 1234 2150 1697 2047 
L 1894 2003 
Q 2506 1872 2764 1633 
Q 3022 1394 3022 966 
Q 3022 478 2636 193 
Q 2250 -91 1575 -91 
Q 1294 -91 989 -36 
Q 684 19 347 128 
L 347 722 
Q 666 556 975 473 
Q 1284 391 1588 391 
Q 1994 391 2212 530 
Q 2431 669 2431 922 
Q 2431 1156 2273 1281 
Q 2116 1406 1581 1522 
L 1381 1569 
Q 847 1681 609 1914 
Q 372 2147 372 2553 
Q 372 3047 722 3315 
Q 1072 3584 1716 3584 
Q 2034 3584 2315 3537 
Q 2597 3491 2834 3397 
z
" transform="scale(0.015625)"/>
       <path id="DejaVuSans-6b" d="M 581 4863 
L 1159 4863 
L 1159 1991 
L 2875 3500 
L 3609 3500 
L 1753 1863 
L 3688 0 
L 2938 0 
L 1159 1709 
L 1159 0 
L 581 0 
L 581 4863 
z
" transform="scale(0.015625)"/>
       <path id="DejaVuSans-20" transform="scale(0.015625)"/>
      </defs>
      <use xlink:href="#DejaVuSans-50"/>
      <use xlink:href="#DejaVuSans-72" x="58.552734"/>
      <use xlink:href="#DejaVuSans-69" x="99.666016"/>
      <use xlink:href="#DejaVuSans-63" x="127.449219"/>
      <use xlink:href="#DejaVuSans-65" x="182.429688"/>
      <use xlink:href="#DejaVuSans-2f" x="243.953125"/>
      <use xlink:href="#DejaVuSans-73" x="277.644531"/>
      <use xlink:href="#DejaVuSans-74" x="329.744141"/>
      <use xlink:href="#DejaVuSans-72" x="368.953125"/>
      <use xlink:href="#DejaVuSans-69" x="410.066406"/>
      <use xlink:href="#DejaVuSans-6b" x="437.849609"/>
      <use xlink:href="#DejaVuSans-65" x="492.134766"/>
      <use xlink:href="#DejaVuSans-20" x="553.658203"/>
      <use xlink:href="#DejaVuSans-72" x="585.445312"/>
      <use xlink:href="#DejaVuSans-61" x="626.558594"/>
      <use xlink:href="#DejaVuSans-74" x="687.837891"/>
      <use xlink:href="#DejaVuSans-69" x="727.046875"/>
      <use xlink:href="#DejaVuSans-6f" x="754.830078"/>
     </g>
    </g>
   </g>
   <g id="line2d_27">
    <path d="M 138.436364 492.352974 
L 146.494125 492.352974 
L 146.7383 492.48 
L 148.691698 492.48 
L 152.110141 492.352974 
L 152.720579 492.48 
L 152.842663 492.352974 
L 162.36547 492.352974 
L 163.586346 492.48 
L 165.417659 492.48 
L 165.417659 492.48 
L 168.714017 492.352974 
L 170.423232 492.48 
L 174.330028 492.48 
L 175.672993 491.947371 
L 175.917163 492.48 
L 176.64969 492.48 
L 177.748476 491.947371 
L 179.213521 492.48 
L 183.974925 491.947371 
L 184.341193 492.48 
L 185.1958 491.414742 
L 185.684149 491.947371 
L 187.027113 491.414742 
L 187.881721 491.947371 
L 188.614248 491.947371 
L 191.300168 491.414742 
L 196.305742 491.414742 
L 197.770796 490.882115 
L 202.776369 489.816858 
L 202.898458 490.349486 
L 204.607682 490.349486 
L 204.607682 489.284229 
L 206.438986 489.284229 
L 207.049424 490.349486 
L 207.171513 490.882115 
L 208.14821 488.7516 
L 209.124907 489.816858 
L 209.124907 488.7516 
L 209.491175 489.816858 
L 209.857434 488.7516 
L 212.543355 490.349486 
L 212.543355 488.7516 
L 214.496748 489.284229 
L 216.57224 487.686344 
L 217.915196 488.218973 
L 220.601116 487.686344 
L 221.211554 487.686344 
L 221.699903 487.153711 
L 221.944081 487.153711 
L 222.31034 488.218973 
L 222.43243 488.218973 
L 222.43243 486.621088 
L 222.55451 487.686344 
L 223.164948 485.555828 
L 224.630002 487.153711 
L 225.240431 485.555828 
L 226.461306 485.0232 
L 226.827565 486.08846 
L 228.292619 486.08846 
L 230.856451 484.49057 
L 233.054023 485.0232 
L 233.420291 483.957944 
L 234.152809 483.957944 
L 234.519077 483.425312 
L 235.129506 485.0232 
L 236.96081 482.892687 
L 238.059596 483.425312 
L 238.059596 482.892687 
L 239.52465 483.957944 
L 242.45474 484.49057 
L 244.286044 481.294801 
L 244.408134 479.696915 
L 248.559118 479.16429 
L 248.925368 479.696915 
L 250.756672 480.229545 
L 251.367119 478.631662 
L 252.099637 478.631662 
L 253.198423 477.033771 
L 253.198423 475.968508 
L 254.05303 477.566397 
L 256.128513 477.566397 
L 261.500354 475.435878 
L 262.59914 475.968508 
L 266.017588 472.772744 
L 266.261767 474.90326 
L 266.383856 473.305378 
L 269.558125 473.83801 
L 270.290643 470.642221 
L 271.023179 467.97909 
L 273.587002 471.174846 
L 276.761271 469.576963 
L 278.104235 465.848577 
L 279.81345 465.848577 
L 280.179718 467.97909 
L 281.034326 465.315947 
L 284.941131 463.185431 
L 286.894524 468.511716 
L 287.871221 463.185431 
L 288.48165 464.250679 
L 288.48165 463.185431 
L 289.336275 465.315947 
L 289.580436 463.185431 
L 289.946704 461.587541 
L 292.510544 459.457023 
L 293.120973 464.250679 
L 293.120973 462.120164 
L 293.731402 458.924415 
L 294.830188 458.924415 
L 295.806903 459.989655 
L 296.051063 458.924415 
L 296.173153 455.728617 
L 296.905689 458.924415 
L 298.004457 458.391775 
L 298.736993 458.924415 
L 302.521691 453.598101 
L 302.521691 455.195996 
L 303.620477 455.195996 
L 304.475084 456.793874 
L 305.085531 454.130731 
L 305.085531 454.130731 
L 306.062228 453.598101 
L 306.428496 455.195996 
L 307.161014 451.467618 
L 307.771442 456.261259 
L 310.945711 453.065483 
L 311.18989 452.000245 
L 311.922426 446.673939 
L 313.87582 450.934975 
L 313.87582 448.271827 
L 314.730427 449.869725 
L 314.852517 450.402323 
L 315.096695 452.532841 
L 317.172178 452.000245 
L 317.172178 453.598101 
L 317.294268 447.206566 
L 318.515125 447.206566 
L 319.613911 448.804459 
L 319.85809 446.141331 
L 321.445233 447.739219 
L 324.863681 444.010815 
L 325.229931 446.673939 
L 325.840378 446.673939 
L 327.427503 439.217131 
L 327.549592 441.347652 
L 328.282111 437.086621 
L 329.502986 436.553973 
L 330.113433 442.412932 
L 336.95031 432.292987 
L 338.537454 436.553973 
L 339.269972 434.956125 
L 343.665116 434.423487 
L 344.031384 433.89087 
L 345.25226 430.162466 
L 345.984778 431.227696 
L 347.327743 426.966685 
L 348.18235 427.499318 
L 348.18235 430.162466 
L 354.408799 427.499318 
L 355.019227 428.031916 
L 356.72846 424.836174 
L 357.460978 425.368767 
L 358.315586 428.031916 
L 359.048122 422.173021 
L 359.170211 429.097206 
L 361.978212 420.575123 
L 362.46657 421.640369 
L 362.71073 429.629808 
L 368.815107 416.846719 
L 372.111466 415.248871 
L 372.111466 413.651003 
L 372.843984 413.651003 
L 374.797377 415.248871 
L 375.407806 413.651003 
L 376.140342 413.118311 
L 376.750771 406.726779 
L 376.750771 414.183591 
L 378.704164 405.128935 
L 381.390094 412.053095 
L 381.634273 410.455197 
L 383.831827 410.987795 
L 384.808542 406.194171 
L 385.41897 411.520443 
L 385.907328 400.867845 
L 386.761935 402.465767 
L 387.250293 413.118311 
L 388.226971 404.06366 
L 389.081579 404.596308 
L 392.622116 402.465767 
L 394.331331 396.606833 
L 395.552224 395.541588 
L 397.871868 396.074196 
L 399.214832 390.747968 
L 400.679869 395.009029 
L 407.028443 393.943645 
L 407.760943 385.95422 
L 413.254873 395.541588 
L 415.452446 389.150016 
L 416.42916 380.095336 
L 416.42916 379.030169 
L 416.79541 376.899679 
L 417.894196 384.356446 
L 418.016268 374.769188 
L 418.016268 379.562708 
L 418.748804 382.758543 
L 418.992983 381.693298 
L 419.237161 385.421602 
L 419.359233 384.356446 
L 421.800983 378.497542 
L 421.800983 371.040685 
L 422.289341 370.508027 
L 423.876485 375.301686 
L 424.975271 373.171086 
L 425.585699 368.910214 
L 425.829878 363.583997 
L 427.417022 373.171086 
L 428.271629 368.377507 
L 428.75995 371.040685 
L 429.370415 368.377507 
L 429.736665 372.10598 
L 430.102915 365.714349 
L 431.567987 368.377507 
L 431.934237 367.844889 
L 432.056308 366.779544 
L 433.521381 366.247105 
L 439.869919 365.714349 
L 439.869919 364.116595 
L 440.602419 373.703764 
L 441.334955 354.529098 
L 444.387134 356.12717 
L 446.096349 358.790229 
L 446.218457 356.12717 
L 446.340528 374.769188 
L 447.683493 359.322945 
L 448.416029 363.05119 
L 449.148529 351.333411 
L 449.636886 343.876604 
L 453.177423 358.25769 
L 454.398281 358.25769 
L 455.008746 347.072459 
L 455.374996 359.322945 
L 456.595853 346.007016 
L 456.717961 352.931284 
L 456.717961 349.20298 
L 457.938818 357.192465 
L 458.915533 343.343877 
L 460.380569 350.800784 
L 462.333962 339.615593 
L 462.82232 340.680947 
L 464.775713 349.735568 
L 466.851214 344.4094 
L 467.339535 334.289336 
L 468.438322 340.680947 
L 469.170858 334.822043 
L 470.635894 338.017571 
L 470.880072 342.278761 
L 471.246359 331.093421 
L 472.955574 332.158865 
L 473.077645 342.811269 
L 474.176431 342.278761 
L 476.496111 330.028374 
L 477.472789 329.495706 
L 477.961147 324.701948 
L 479.182004 328.96287 
L 482.96672 348.137635 
L 484.675935 327.365275 
L 488.216472 322.571378 
L 489.437365 327.365275 
L 490.536151 326.299821 
L 491.268651 322.571378 
L 493.466223 312.451561 
L 495.663796 323.104274 
L 497.861368 300.201055 
L 505.308692 311.386385 
L 505.308692 302.331427 
L 505.308692 326.832449 
L 506.041228 318.843133 
L 506.529586 308.190639 
L 509.093408 312.451561 
L 511.168909 314.049553 
L 512.511837 308.190639 
L 513.366481 299.135998 
L 513.488552 304.461997 
L 515.197767 302.864243 
L 516.052374 302.864243 
L 517.029089 291.146415 
L 518.372054 294.34226 
L 518.494125 291.146415 
L 519.715019 304.994575 
L 525.331021 300.733574 
L 527.406522 283.156831 
L 527.528593 300.733574 
L 528.016951 292.211769 
L 528.74945 283.156831 
L 529.481987 290.081219 
L 533.022524 285.287282 
L 533.999202 279.428645 
L 536.074703 278.36337 
L 541.690705 281.02636 
L 543.155778 281.559077 
L 543.399956 279.961323 
L 543.399956 283.156831 
L 544.376635 289.548641 
L 545.963778 284.754823 
L 547.306743 275.167505 
L 549.870565 276.232979 
L 552.678566 271.43926 
L 553.288995 278.895869 
L 554.63196 257.058303 
L 556.097032 265.047768 
L 557.439997 266.113023 
L 558.538783 265.047768 
L 559.271283 248.536141 
L 560.12589 263.982334 
L 560.736355 251.199051 
L 561.224676 243.742442 
L 562.689749 260.786607 
L 563.544356 266.645264 
L 564.765214 255.460132 
L 566.352357 257.590702 
L 566.352357 266.113023 
L 566.596536 262.917197 
L 568.061572 251.731808 
L 568.672001 240.01394 
L 569.526608 254.927435 
L 571.235859 260.786607 
L 571.235859 253.329919 
L 572.456716 262.917197 
L 573.067145 248.003325 
L 573.555503 251.731808 
L 574.288039 252.264326 
L 574.654289 249.068739 
L 575.997254 253.862557 
L 580.880755 250.134133 
L 581.247005 237.88331 
L 587.595543 239.481381 
L 587.717615 247.470747 
L 589.060579 228.296071 
L 589.548937 225.63326 
L 590.037294 242.677147 
L 593.577831 223.502769 
L 595.531225 233.622467 
L 595.653296 236.285437 
L 597.60669 236.285437 
L 598.461297 237.88331 
L 599.682191 217.643696 
L 599.682191 218.708892 
L 600.170548 221.371842 
L 601.025155 213.915432 
L 604.077335 225.63326 
L 604.199406 235.752878 
L 606.274907 241.612071 
L 607.251586 224.567826 
L 608.228301 203.262501 
L 609.327087 242.677147 
L 609.449158 216.57856 
L 610.059623 224.03505 
L 610.792123 202.730022 
L 611.28048 205.926086 
L 612.379267 218.176036 
L 612.379267 216.045744 
L 612.623445 217.643696 
L 615.675625 224.03505 
L 616.163982 221.371842 
L 616.408161 215.512987 
L 617.140661 209.121515 
L 622.390413 196.338292 
L 624.710093 201.664985 
L 624.954271 207.523641 
L 625.442592 207.523641 
L 626.907665 201.664985 
L 627.396022 199.001658 
L 631.79113 204.327796 
L 634.47706 186.750894 
L 634.721239 190.479635 
L 635.087489 189.414142 
L 636.430454 199.001658 
L 636.79674 200.066953 
L 641.436027 202.197166 
L 641.924384 191.544791 
L 641.924384 197.403706 
L 642.168563 191.544791 
L 644.121956 189.94676 
L 644.244064 174.500646 
L 645.098671 200.066953 
L 647.662494 186.750894 
L 650.592602 186.750894 
L 650.714673 179.826883 
L 651.080923 204.327796 
L 651.203031 169.174568 
L 652.668067 189.94676 
L 654.133139 183.022947 
L 654.25521 158.522173 
L 654.987746 184.620463 
L 655.109818 198.469219 
L 659.260783 171.305059 
L 659.504962 186.750894 
L 659.871212 181.957275 
L 659.99332 201.132328 
L 660.481677 158.522173 
L 661.214177 187.816427 
L 662.068784 172.902575 
L 662.435071 173.43553 
L 663.533857 178.761608 
L 663.655928 160.119709 
L 665.48725 170.239704 
L 666.830215 163.315852 
L 670.248645 159.054255 
L 670.370752 149.999614 
L 675.620504 156.923983 
L 676.71929 157.4567 
L 685.509543 140.412455 
L 685.753721 151.065326 
L 686.242079 139.879619 
L 686.852507 164.913666 
L 687.340865 158.522173 
L 689.538474 144.673715 
L 691.369723 161.71784 
L 692.834796 143.075405 
L 693.689403 159.587409 
L 696.49744 137.216788 
L 697.59619 121.237581 
L 697.59619 126.031637 
L 697.840405 137.749624 
L 699.18337 153.195797 
L 701.380942 138.81486 
L 702.723834 146.27131 
L 703.944764 123.368687 
L 705.409764 135.618995 
L 708.095694 123.901126 
L 709.194516 134.553719 
L 709.682874 149.999614 
L 711.269981 132.423209 
L 715.05466 128.162346 
L 716.397625 124.966521 
L 718.839412 120.172782 
L 719.449805 108.454557 
L 719.571912 114.31353 
L 723.478699 117.509554 
L 723.478699 131.890651 
L 724.211199 128.162346 
L 725.187914 115.379242 
L 725.554164 119.10707 
L 728.362201 138.81486 
L 728.606344 94.606336 
L 731.780631 103.128339 
L 733.611953 95.139252 
L 734.588668 105.791726 
L 735.19906 100.46539 
L 735.19906 113.248414 
L 736.41999 117.509554 
L 736.664133 125.498761 
L 736.664133 139.879619 
L 736.908348 110.052628 
L 739.10592 114.31353 
L 739.716312 107.389877 
L 740.20467 92.475905 
L 740.693027 89.28 
L 742.768492 99.400313 
L 743.012707 136.151513 
L 746.309029 96.736768 
L 747.163636 105.791726 
L 747.163636 105.791726 
" clip-path="url(#p74ad2962b2)" style="fill: none; stroke: #1f77b4; stroke-width: 2; stroke-linecap: square"/>
   </g>
   <g id="line2d_28">
    <path d="M 138.436364 492.3008 
L 165.417659 492.020636 
L 165.417659 492.020636 
L 184.341193 491.613828 
L 197.770796 491.110542 
L 209.857434 490.397519 
L 217.915196 489.721986 
L 226.827565 488.723434 
L 234.519077 487.596963 
L 239.52465 486.708862 
L 244.408134 485.711179 
L 252.099637 483.854216 
L 256.128513 482.734052 
L 262.59914 480.715367 
L 270.290643 477.962212 
L 276.761271 475.356954 
L 281.034326 473.49934 
L 289.946704 469.304456 
L 298.736993 464.796869 
L 307.771442 459.853815 
L 318.515125 453.663986 
L 330.113433 446.712259 
L 345.984778 436.909665 
L 362.71073 426.358127 
L 389.081579 409.416376 
L 407.760943 397.198262 
L 429.736665 382.536075 
L 446.340528 371.196762 
L 462.82232 359.665408 
L 477.961147 348.788293 
L 491.268651 338.968149 
L 505.308692 328.315963 
L 505.308692 328.315963 
L 518.372054 318.111302 
L 529.481987 309.195416 
L 543.399956 297.702794 
L 543.399956 297.702794 
L 556.097032 286.893806 
L 568.672001 275.878542 
L 581.247005 264.553147 
L 595.653296 251.202266 
L 609.449158 238.052522 
L 622.390413 225.409403 
L 636.79674 211.009537 
L 654.133139 193.271598 
L 670.370752 176.308189 
L 691.369723 153.968523 
L 711.269981 132.494005 
L 747.163636 93.382921 
L 747.163636 93.382921 
" clip-path="url(#p74ad2962b2)" style="fill: none; stroke: #ff7f0e; stroke-width: 2; stroke-linecap: square"/>
   </g>
   <g id="patch_3">
    <path d="M 108 512.64 
L 108 69.12 
" style="fill: none; stroke: #000000; stroke-width: 0.8; stroke-linejoin: miter; stroke-linecap: square"/>
   </g>
   <g id="patch_4">
    <path d="M 777.6 512.64 
L 777.6 69.12 
" style="fill: none; stroke: #000000; stroke-width: 0.8; stroke-linejoin: miter; stroke-linecap: square"/>
   </g>
   <g id="patch_5">
    <path d="M 108 512.64 
L 777.6 512.64 
" style="fill: none; stroke: #000000; stroke-width: 0.8; stroke-linejoin: miter; stroke-linecap: square"/>
   </g>
   <g id="patch_6">
    <path d="M 108 69.12 
L 777.6 69.12 
" style="fill: none; stroke: #000000; stroke-width: 0.8; stroke-linejoin: miter; stroke-linecap: square"/>
   </g>
   <g id="text_16">
    <!-- Price by Volatility. Moneyness=1.1 -->
    <g transform="translate(271.317187 63.12) scale(0.2 -0.2)">
     <defs>
      <path id="DejaVuSans-62" d="M 3116 1747 
Q 3116 2381 2855 2742 
Q 2594 3103 2138 3103 
Q 1681 3103 1420 2742 
Q 1159 2381 1159 1747 
Q 1159 1113 1420 752 
Q 1681 391 2138 391 
Q 2594 391 2855 752 
Q 3116 1113 3116 1747 
z
M 1159 2969 
Q 1341 3281 1617 3432 
Q 1894 3584 2278 3584 
Q 2916 3584 3314 3078 
Q 3713 2572 3713 1747 
Q 3713 922 3314 415 
Q 2916 -91 2278 -91 
Q 1894 -91 1617 61 
Q 1341 213 1159 525 
L 1159 0 
L 581 0 
L 581 4863 
L 1159 4863 
L 1159 2969 
z
" transform="scale(0.015625)"/>
      <path id="DejaVuSans-4d" d="M 628 4666 
L 1569 4666 
L 2759 1491 
L 3956 4666 
L 4897 4666 
L 4897 0 
L 4281 0 
L 4281 4097 
L 3078 897 
L 2444 897 
L 1241 4097 
L 1241 0 
L 628 0 
L 628 4666 
z
" transform="scale(0.015625)"/>
      <path id="DejaVuSans-6e" d="M 3513 2113 
L 3513 0 
L 2938 0 
L 2938 2094 
Q 2938 2591 2744 2837 
Q 2550 3084 2163 3084 
Q 1697 3084 1428 2787 
Q 1159 2491 1159 1978 
L 1159 0 
L 581 0 
L 581 3500 
L 1159 3500 
L 1159 2956 
Q 1366 3272 1645 3428 
Q 1925 3584 2291 3584 
Q 2894 3584 3203 3211 
Q 3513 2838 3513 2113 
z
" transform="scale(0.015625)"/>
      <path id="DejaVuSans-3d" d="M 678 2906 
L 4684 2906 
L 4684 2381 
L 678 2381 
L 678 2906 
z
M 678 1631 
L 4684 1631 
L 4684 1100 
L 678 1100 
L 678 1631 
z
" transform="scale(0.015625)"/>
     </defs>
     <use xlink:href="#DejaVuSans-50"/>
     <use xlink:href="#DejaVuSans-72" x="58.552734"/>
     <use xlink:href="#DejaVuSans-69" x="99.666016"/>
     <use xlink:href="#DejaVuSans-63" x="127.449219"/>
     <use xlink:href="#DejaVuSans-65" x="182.429688"/>
     <use xlink:href="#DejaVuSans-20" x="243.953125"/>
     <use xlink:href="#DejaVuSans-62" x="275.740234"/>
     <use xlink:href="#DejaVuSans-79" x="339.216797"/>
     <use xlink:href="#DejaVuSans-20" x="398.396484"/>
     <use xlink:href="#DejaVuSans-56" x="430.183594"/>
     <use xlink:href="#DejaVuSans-6f" x="490.841797"/>
     <use xlink:href="#DejaVuSans-6c" x="552.023438"/>
     <use xlink:href="#DejaVuSans-61" x="579.806641"/>
     <use xlink:href="#DejaVuSans-74" x="641.085938"/>
     <use xlink:href="#DejaVuSans-69" x="680.294922"/>
     <use xlink:href="#DejaVuSans-6c" x="708.078125"/>
     <use xlink:href="#DejaVuSans-69" x="735.861328"/>
     <use xlink:href="#DejaVuSans-74" x="763.644531"/>
     <use xlink:href="#DejaVuSans-79" x="802.853516"/>
     <use xlink:href="#DejaVuSans-2e" x="847.783203"/>
     <use xlink:href="#DejaVuSans-20" x="879.570312"/>
     <use xlink:href="#DejaVuSans-4d" x="911.357422"/>
     <use xlink:href="#DejaVuSans-6f" x="997.636719"/>
     <use xlink:href="#DejaVuSans-6e" x="1058.818359"/>
     <use xlink:href="#DejaVuSans-65" x="1122.197266"/>
     <use xlink:href="#DejaVuSans-79" x="1183.720703"/>
     <use xlink:href="#DejaVuSans-6e" x="1242.900391"/>
     <use xlink:href="#DejaVuSans-65" x="1306.279297"/>
     <use xlink:href="#DejaVuSans-73" x="1367.802734"/>
     <use xlink:href="#DejaVuSans-73" x="1419.902344"/>
     <use xlink:href="#DejaVuSans-3d" x="1472.001953"/>
     <use xlink:href="#DejaVuSans-31" x="1555.791016"/>
     <use xlink:href="#DejaVuSans-2e" x="1619.414062"/>
     <use xlink:href="#DejaVuSans-31" x="1651.201172"/>
    </g>
   </g>
   <g id="legend_1">
    <g id="patch_7">
     <path d="M 120.6 136.36125 
L 287.018437 136.36125 
Q 290.618437 136.36125 290.618437 132.76125 
L 290.618437 81.72 
Q 290.618437 78.12 287.018437 78.12 
L 120.6 78.12 
Q 117 78.12 117 81.72 
L 117 132.76125 
Q 117 136.36125 120.6 136.36125 
z
" style="fill: #ffffff; opacity: 0.8; stroke: #cccccc; stroke-linejoin: miter"/>
    </g>
    <g id="line2d_29">
     <path d="M 124.2 92.697188 
L 142.2 92.697188 
L 160.2 92.697188 
" style="fill: none; stroke: #1f77b4; stroke-width: 2; stroke-linecap: square"/>
    </g>
    <g id="text_17">
     <!-- Monte Carlo -->
     <g transform="translate(174.6 98.997188) scale(0.18 -0.18)">
      <defs>
       <path id="DejaVuSans-43" d="M 4122 4306 
L 4122 3641 
Q 3803 3938 3442 4084 
Q 3081 4231 2675 4231 
Q 1875 4231 1450 3742 
Q 1025 3253 1025 2328 
Q 1025 1406 1450 917 
Q 1875 428 2675 428 
Q 3081 428 3442 575 
Q 3803 722 4122 1019 
L 4122 359 
Q 3791 134 3420 21 
Q 3050 -91 2638 -91 
Q 1578 -91 968 557 
Q 359 1206 359 2328 
Q 359 3453 968 4101 
Q 1578 4750 2638 4750 
Q 3056 4750 3426 4639 
Q 3797 4528 4122 4306 
z
" transform="scale(0.015625)"/>
      </defs>
      <use xlink:href="#DejaVuSans-4d"/>
      <use xlink:href="#DejaVuSans-6f" x="86.279297"/>
      <use xlink:href="#DejaVuSans-6e" x="147.460938"/>
      <use xlink:href="#DejaVuSans-74" x="210.839844"/>
      <use xlink:href="#DejaVuSans-65" x="250.048828"/>
      <use xlink:href="#DejaVuSans-20" x="311.572266"/>
      <use xlink:href="#DejaVuSans-43" x="343.359375"/>
      <use xlink:href="#DejaVuSans-61" x="413.183594"/>
      <use xlink:href="#DejaVuSans-72" x="474.462891"/>
      <use xlink:href="#DejaVuSans-6c" x="515.576172"/>
      <use xlink:href="#DejaVuSans-6f" x="543.359375"/>
     </g>
    </g>
    <g id="line2d_30">
     <path d="M 124.2 119.117813 
L 142.2 119.117813 
L 160.2 119.117813 
" style="fill: none; stroke: #ff7f0e; stroke-width: 2; stroke-linecap: square"/>
    </g>
    <g id="text_18">
     <!-- Positive net -->
     <g transform="translate(174.6 125.417813) scale(0.18 -0.18)">
      <defs>
       <path id="DejaVuSans-76" d="M 191 3500 
L 800 3500 
L 1894 563 
L 2988 3500 
L 3597 3500 
L 2284 0 
L 1503 0 
L 191 3500 
z
" transform="scale(0.015625)"/>
      </defs>
      <use xlink:href="#DejaVuSans-50"/>
      <use xlink:href="#DejaVuSans-6f" x="56.677734"/>
      <use xlink:href="#DejaVuSans-73" x="117.859375"/>
      <use xlink:href="#DejaVuSans-69" x="169.958984"/>
      <use xlink:href="#DejaVuSans-74" x="197.742188"/>
      <use xlink:href="#DejaVuSans-69" x="236.951172"/>
      <use xlink:href="#DejaVuSans-76" x="264.734375"/>
      <use xlink:href="#DejaVuSans-65" x="323.914062"/>
      <use xlink:href="#DejaVuSans-20" x="385.4375"/>
      <use xlink:href="#DejaVuSans-6e" x="417.224609"/>
      <use xlink:href="#DejaVuSans-65" x="480.603516"/>
      <use xlink:href="#DejaVuSans-74" x="542.126953"/>
     </g>
    </g>
   </g>
  </g>
 </g>
 <defs>
  <clipPath id="p74ad2962b2">
   <rect x="108" y="69.12" width="669.6" height="443.52"/>
  </clipPath>
 </defs>
</svg>
