<?xml version="1.0" encoding="utf-8" standalone="no"?>
<!DOCTYPE svg PUBLIC "-//W3C//DTD SVG 1.1//EN"
  "http://www.w3.org/Graphics/SVG/1.1/DTD/svg11.dtd">
<svg xmlns:xlink="http://www.w3.org/1999/xlink" width="864pt" height="576pt" viewBox="0 0 864 576" xmlns="http://www.w3.org/2000/svg" version="1.1">
 <metadata>
  <rdf:RDF xmlns:dc="http://purl.org/dc/elements/1.1/" xmlns:cc="http://creativecommons.org/ns#" xmlns:rdf="http://www.w3.org/1999/02/22-rdf-syntax-ns#">
   <cc:Work>
    <dc:type rdf:resource="http://purl.org/dc/dcmitype/StillImage"/>
    <dc:date>2024-03-10T20:05:30.956259</dc:date>
    <dc:format>image/svg+xml</dc:format>
    <dc:creator>
     <cc:Agent>
      <dc:title>Matplotlib v3.7.3, https://matplotlib.org/</dc:title>
     </cc:Agent>
    </dc:creator>
   </cc:Work>
  </rdf:RDF>
 </metadata>
 <defs>
  <style type="text/css">*{stroke-linejoin: round; stroke-linecap: butt}</style>
 </defs>
 <g id="figure_1">
  <g id="patch_1">
   <path d="M 0 576 
L 864 576 
L 864 0 
L 0 0 
z
" style="fill: #ffffff"/>
  </g>
  <g id="axes_1">
   <g id="patch_2">
    <path d="M 108 512.64 
L 777.6 512.64 
L 777.6 69.12 
L 108 69.12 
z
" style="fill: #ffffff"/>
   </g>
   <g id="matplotlib.axis_1">
    <g id="xtick_1">
     <g id="line2d_1">
      <path d="M 188.799786 512.64 
L 188.799786 69.12 
" clip-path="url(#pd6a7c02c15)" style="fill: none; stroke: #b0b0b0; stroke-width: 0.8; stroke-linecap: square"/>
     </g>
     <g id="line2d_2">
      <defs>
       <path id="mae684be1c6" d="M 0 0 
L 0 3.5 
" style="stroke: #000000; stroke-width: 0.8"/>
      </defs>
      <g>
       <use xlink:href="#mae684be1c6" x="188.799786" y="512.64" style="stroke: #000000; stroke-width: 0.8"/>
      </g>
     </g>
     <g id="text_1">
      <!-- 0.1 -->
      <g transform="translate(180.848224 527.238438) scale(0.1 -0.1)">
       <defs>
        <path id="DejaVuSans-30" d="M 2034 4250 
Q 1547 4250 1301 3770 
Q 1056 3291 1056 2328 
Q 1056 1369 1301 889 
Q 1547 409 2034 409 
Q 2525 409 2770 889 
Q 3016 1369 3016 2328 
Q 3016 3291 2770 3770 
Q 2525 4250 2034 4250 
z
M 2034 4750 
Q 2819 4750 3233 4129 
Q 3647 3509 3647 2328 
Q 3647 1150 3233 529 
Q 2819 -91 2034 -91 
Q 1250 -91 836 529 
Q 422 1150 422 2328 
Q 422 3509 836 4129 
Q 1250 4750 2034 4750 
z
" transform="scale(0.015625)"/>
        <path id="DejaVuSans-2e" d="M 684 794 
L 1344 794 
L 1344 0 
L 684 0 
L 684 794 
z
" transform="scale(0.015625)"/>
        <path id="DejaVuSans-31" d="M 794 531 
L 1825 531 
L 1825 4091 
L 703 3866 
L 703 4441 
L 1819 4666 
L 2450 4666 
L 2450 531 
L 3481 531 
L 3481 0 
L 794 0 
L 794 531 
z
" transform="scale(0.015625)"/>
       </defs>
       <use xlink:href="#DejaVuSans-30"/>
       <use xlink:href="#DejaVuSans-2e" x="63.623047"/>
       <use xlink:href="#DejaVuSans-31" x="95.410156"/>
      </g>
     </g>
    </g>
    <g id="xtick_2">
     <g id="line2d_3">
      <path d="M 290.338944 512.64 
L 290.338944 69.12 
" clip-path="url(#pd6a7c02c15)" style="fill: none; stroke: #b0b0b0; stroke-width: 0.8; stroke-linecap: square"/>
     </g>
     <g id="line2d_4">
      <g>
       <use xlink:href="#mae684be1c6" x="290.338944" y="512.64" style="stroke: #000000; stroke-width: 0.8"/>
      </g>
     </g>
     <g id="text_2">
      <!-- 0.2 -->
      <g transform="translate(282.387382 527.238438) scale(0.1 -0.1)">
       <defs>
        <path id="DejaVuSans-32" d="M 1228 531 
L 3431 531 
L 3431 0 
L 469 0 
L 469 531 
Q 828 903 1448 1529 
Q 2069 2156 2228 2338 
Q 2531 2678 2651 2914 
Q 2772 3150 2772 3378 
Q 2772 3750 2511 3984 
Q 2250 4219 1831 4219 
Q 1534 4219 1204 4116 
Q 875 4013 500 3803 
L 500 4441 
Q 881 4594 1212 4672 
Q 1544 4750 1819 4750 
Q 2544 4750 2975 4387 
Q 3406 4025 3406 3419 
Q 3406 3131 3298 2873 
Q 3191 2616 2906 2266 
Q 2828 2175 2409 1742 
Q 1991 1309 1228 531 
z
" transform="scale(0.015625)"/>
       </defs>
       <use xlink:href="#DejaVuSans-30"/>
       <use xlink:href="#DejaVuSans-2e" x="63.623047"/>
       <use xlink:href="#DejaVuSans-32" x="95.410156"/>
      </g>
     </g>
    </g>
    <g id="xtick_3">
     <g id="line2d_5">
      <path d="M 391.878102 512.64 
L 391.878102 69.12 
" clip-path="url(#pd6a7c02c15)" style="fill: none; stroke: #b0b0b0; stroke-width: 0.8; stroke-linecap: square"/>
     </g>
     <g id="line2d_6">
      <g>
       <use xlink:href="#mae684be1c6" x="391.878102" y="512.64" style="stroke: #000000; stroke-width: 0.8"/>
      </g>
     </g>
     <g id="text_3">
      <!-- 0.3 -->
      <g transform="translate(383.92654 527.238438) scale(0.1 -0.1)">
       <defs>
        <path id="DejaVuSans-33" d="M 2597 2516 
Q 3050 2419 3304 2112 
Q 3559 1806 3559 1356 
Q 3559 666 3084 287 
Q 2609 -91 1734 -91 
Q 1441 -91 1130 -33 
Q 819 25 488 141 
L 488 750 
Q 750 597 1062 519 
Q 1375 441 1716 441 
Q 2309 441 2620 675 
Q 2931 909 2931 1356 
Q 2931 1769 2642 2001 
Q 2353 2234 1838 2234 
L 1294 2234 
L 1294 2753 
L 1863 2753 
Q 2328 2753 2575 2939 
Q 2822 3125 2822 3475 
Q 2822 3834 2567 4026 
Q 2313 4219 1838 4219 
Q 1578 4219 1281 4162 
Q 984 4106 628 3988 
L 628 4550 
Q 988 4650 1302 4700 
Q 1616 4750 1894 4750 
Q 2613 4750 3031 4423 
Q 3450 4097 3450 3541 
Q 3450 3153 3228 2886 
Q 3006 2619 2597 2516 
z
" transform="scale(0.015625)"/>
       </defs>
       <use xlink:href="#DejaVuSans-30"/>
       <use xlink:href="#DejaVuSans-2e" x="63.623047"/>
       <use xlink:href="#DejaVuSans-33" x="95.410156"/>
      </g>
     </g>
    </g>
    <g id="xtick_4">
     <g id="line2d_7">
      <path d="M 493.417261 512.64 
L 493.417261 69.12 
" clip-path="url(#pd6a7c02c15)" style="fill: none; stroke: #b0b0b0; stroke-width: 0.8; stroke-linecap: square"/>
     </g>
     <g id="line2d_8">
      <g>
       <use xlink:href="#mae684be1c6" x="493.417261" y="512.64" style="stroke: #000000; stroke-width: 0.8"/>
      </g>
     </g>
     <g id="text_4">
      <!-- 0.4 -->
      <g transform="translate(485.465698 527.238438) scale(0.1 -0.1)">
       <defs>
        <path id="DejaVuSans-34" d="M 2419 4116 
L 825 1625 
L 2419 1625 
L 2419 4116 
z
M 2253 4666 
L 3047 4666 
L 3047 1625 
L 3713 1625 
L 3713 1100 
L 3047 1100 
L 3047 0 
L 2419 0 
L 2419 1100 
L 313 1100 
L 313 1709 
L 2253 4666 
z
" transform="scale(0.015625)"/>
       </defs>
       <use xlink:href="#DejaVuSans-30"/>
       <use xlink:href="#DejaVuSans-2e" x="63.623047"/>
       <use xlink:href="#DejaVuSans-34" x="95.410156"/>
      </g>
     </g>
    </g>
    <g id="xtick_5">
     <g id="line2d_9">
      <path d="M 594.956419 512.64 
L 594.956419 69.12 
" clip-path="url(#pd6a7c02c15)" style="fill: none; stroke: #b0b0b0; stroke-width: 0.8; stroke-linecap: square"/>
     </g>
     <g id="line2d_10">
      <g>
       <use xlink:href="#mae684be1c6" x="594.956419" y="512.64" style="stroke: #000000; stroke-width: 0.8"/>
      </g>
     </g>
     <g id="text_5">
      <!-- 0.5 -->
      <g transform="translate(587.004856 527.238438) scale(0.1 -0.1)">
       <defs>
        <path id="DejaVuSans-35" d="M 691 4666 
L 3169 4666 
L 3169 4134 
L 1269 4134 
L 1269 2991 
Q 1406 3038 1543 3061 
Q 1681 3084 1819 3084 
Q 2600 3084 3056 2656 
Q 3513 2228 3513 1497 
Q 3513 744 3044 326 
Q 2575 -91 1722 -91 
Q 1428 -91 1123 -41 
Q 819 9 494 109 
L 494 744 
Q 775 591 1075 516 
Q 1375 441 1709 441 
Q 2250 441 2565 725 
Q 2881 1009 2881 1497 
Q 2881 1984 2565 2268 
Q 2250 2553 1709 2553 
Q 1456 2553 1204 2497 
Q 953 2441 691 2322 
L 691 4666 
z
" transform="scale(0.015625)"/>
       </defs>
       <use xlink:href="#DejaVuSans-30"/>
       <use xlink:href="#DejaVuSans-2e" x="63.623047"/>
       <use xlink:href="#DejaVuSans-35" x="95.410156"/>
      </g>
     </g>
    </g>
    <g id="xtick_6">
     <g id="line2d_11">
      <path d="M 696.495577 512.64 
L 696.495577 69.12 
" clip-path="url(#pd6a7c02c15)" style="fill: none; stroke: #b0b0b0; stroke-width: 0.8; stroke-linecap: square"/>
     </g>
     <g id="line2d_12">
      <g>
       <use xlink:href="#mae684be1c6" x="696.495577" y="512.64" style="stroke: #000000; stroke-width: 0.8"/>
      </g>
     </g>
     <g id="text_6">
      <!-- 0.6 -->
      <g transform="translate(688.544014 527.238438) scale(0.1 -0.1)">
       <defs>
        <path id="DejaVuSans-36" d="M 2113 2584 
Q 1688 2584 1439 2293 
Q 1191 2003 1191 1497 
Q 1191 994 1439 701 
Q 1688 409 2113 409 
Q 2538 409 2786 701 
Q 3034 994 3034 1497 
Q 3034 2003 2786 2293 
Q 2538 2584 2113 2584 
z
M 3366 4563 
L 3366 3988 
Q 3128 4100 2886 4159 
Q 2644 4219 2406 4219 
Q 1781 4219 1451 3797 
Q 1122 3375 1075 2522 
Q 1259 2794 1537 2939 
Q 1816 3084 2150 3084 
Q 2853 3084 3261 2657 
Q 3669 2231 3669 1497 
Q 3669 778 3244 343 
Q 2819 -91 2113 -91 
Q 1303 -91 875 529 
Q 447 1150 447 2328 
Q 447 3434 972 4092 
Q 1497 4750 2381 4750 
Q 2619 4750 2861 4703 
Q 3103 4656 3366 4563 
z
" transform="scale(0.015625)"/>
       </defs>
       <use xlink:href="#DejaVuSans-30"/>
       <use xlink:href="#DejaVuSans-2e" x="63.623047"/>
       <use xlink:href="#DejaVuSans-36" x="95.410156"/>
      </g>
     </g>
    </g>
    <g id="text_7">
     <!-- Volatility -->
     <g transform="translate(403.934062 546.995312) scale(0.18 -0.18)">
      <defs>
       <path id="DejaVuSans-56" d="M 1831 0 
L 50 4666 
L 709 4666 
L 2188 738 
L 3669 4666 
L 4325 4666 
L 2547 0 
L 1831 0 
z
" transform="scale(0.015625)"/>
       <path id="DejaVuSans-6f" d="M 1959 3097 
Q 1497 3097 1228 2736 
Q 959 2375 959 1747 
Q 959 1119 1226 758 
Q 1494 397 1959 397 
Q 2419 397 2687 759 
Q 2956 1122 2956 1747 
Q 2956 2369 2687 2733 
Q 2419 3097 1959 3097 
z
M 1959 3584 
Q 2709 3584 3137 3096 
Q 3566 2609 3566 1747 
Q 3566 888 3137 398 
Q 2709 -91 1959 -91 
Q 1206 -91 779 398 
Q 353 888 353 1747 
Q 353 2609 779 3096 
Q 1206 3584 1959 3584 
z
" transform="scale(0.015625)"/>
       <path id="DejaVuSans-6c" d="M 603 4863 
L 1178 4863 
L 1178 0 
L 603 0 
L 603 4863 
z
" transform="scale(0.015625)"/>
       <path id="DejaVuSans-61" d="M 2194 1759 
Q 1497 1759 1228 1600 
Q 959 1441 959 1056 
Q 959 750 1161 570 
Q 1363 391 1709 391 
Q 2188 391 2477 730 
Q 2766 1069 2766 1631 
L 2766 1759 
L 2194 1759 
z
M 3341 1997 
L 3341 0 
L 2766 0 
L 2766 531 
Q 2569 213 2275 61 
Q 1981 -91 1556 -91 
Q 1019 -91 701 211 
Q 384 513 384 1019 
Q 384 1609 779 1909 
Q 1175 2209 1959 2209 
L 2766 2209 
L 2766 2266 
Q 2766 2663 2505 2880 
Q 2244 3097 1772 3097 
Q 1472 3097 1187 3025 
Q 903 2953 641 2809 
L 641 3341 
Q 956 3463 1253 3523 
Q 1550 3584 1831 3584 
Q 2591 3584 2966 3190 
Q 3341 2797 3341 1997 
z
" transform="scale(0.015625)"/>
       <path id="DejaVuSans-74" d="M 1172 4494 
L 1172 3500 
L 2356 3500 
L 2356 3053 
L 1172 3053 
L 1172 1153 
Q 1172 725 1289 603 
Q 1406 481 1766 481 
L 2356 481 
L 2356 0 
L 1766 0 
Q 1100 0 847 248 
Q 594 497 594 1153 
L 594 3053 
L 172 3053 
L 172 3500 
L 594 3500 
L 594 4494 
L 1172 4494 
z
" transform="scale(0.015625)"/>
       <path id="DejaVuSans-69" d="M 603 3500 
L 1178 3500 
L 1178 0 
L 603 0 
L 603 3500 
z
M 603 4863 
L 1178 4863 
L 1178 4134 
L 603 4134 
L 603 4863 
z
" transform="scale(0.015625)"/>
       <path id="DejaVuSans-79" d="M 2059 -325 
Q 1816 -950 1584 -1140 
Q 1353 -1331 966 -1331 
L 506 -1331 
L 506 -850 
L 844 -850 
Q 1081 -850 1212 -737 
Q 1344 -625 1503 -206 
L 1606 56 
L 191 3500 
L 800 3500 
L 1894 763 
L 2988 3500 
L 3597 3500 
L 2059 -325 
z
" transform="scale(0.015625)"/>
      </defs>
      <use xlink:href="#DejaVuSans-56"/>
      <use xlink:href="#DejaVuSans-6f" x="60.658203"/>
      <use xlink:href="#DejaVuSans-6c" x="121.839844"/>
      <use xlink:href="#DejaVuSans-61" x="149.623047"/>
      <use xlink:href="#DejaVuSans-74" x="210.902344"/>
      <use xlink:href="#DejaVuSans-69" x="250.111328"/>
      <use xlink:href="#DejaVuSans-6c" x="277.894531"/>
      <use xlink:href="#DejaVuSans-69" x="305.677734"/>
      <use xlink:href="#DejaVuSans-74" x="333.460938"/>
      <use xlink:href="#DejaVuSans-79" x="372.669922"/>
     </g>
    </g>
   </g>
   <g id="matplotlib.axis_2">
    <g id="ytick_1">
     <g id="line2d_13">
      <path d="M 108 492.898071 
L 777.6 492.898071 
" clip-path="url(#pd6a7c02c15)" style="fill: none; stroke: #b0b0b0; stroke-width: 0.8; stroke-linecap: square"/>
     </g>
     <g id="line2d_14">
      <defs>
       <path id="m7c5e8b4685" d="M 0 0 
L -3.5 0 
" style="stroke: #000000; stroke-width: 0.8"/>
      </defs>
      <g>
       <use xlink:href="#m7c5e8b4685" x="108" y="492.898071" style="stroke: #000000; stroke-width: 0.8"/>
      </g>
     </g>
     <g id="text_8">
      <!-- 0.000 -->
      <g transform="translate(72.371875 496.697289) scale(0.1 -0.1)">
       <use xlink:href="#DejaVuSans-30"/>
       <use xlink:href="#DejaVuSans-2e" x="63.623047"/>
       <use xlink:href="#DejaVuSans-30" x="95.410156"/>
       <use xlink:href="#DejaVuSans-30" x="159.033203"/>
       <use xlink:href="#DejaVuSans-30" x="222.65625"/>
      </g>
     </g>
    </g>
    <g id="ytick_2">
     <g id="line2d_15">
      <path d="M 108 426.582226 
L 777.6 426.582226 
" clip-path="url(#pd6a7c02c15)" style="fill: none; stroke: #b0b0b0; stroke-width: 0.8; stroke-linecap: square"/>
     </g>
     <g id="line2d_16">
      <g>
       <use xlink:href="#m7c5e8b4685" x="108" y="426.582226" style="stroke: #000000; stroke-width: 0.8"/>
      </g>
     </g>
     <g id="text_9">
      <!-- 0.005 -->
      <g transform="translate(72.371875 430.381445) scale(0.1 -0.1)">
       <use xlink:href="#DejaVuSans-30"/>
       <use xlink:href="#DejaVuSans-2e" x="63.623047"/>
       <use xlink:href="#DejaVuSans-30" x="95.410156"/>
       <use xlink:href="#DejaVuSans-30" x="159.033203"/>
       <use xlink:href="#DejaVuSans-35" x="222.65625"/>
      </g>
     </g>
    </g>
    <g id="ytick_3">
     <g id="line2d_17">
      <path d="M 108 360.266382 
L 777.6 360.266382 
" clip-path="url(#pd6a7c02c15)" style="fill: none; stroke: #b0b0b0; stroke-width: 0.8; stroke-linecap: square"/>
     </g>
     <g id="line2d_18">
      <g>
       <use xlink:href="#m7c5e8b4685" x="108" y="360.266382" style="stroke: #000000; stroke-width: 0.8"/>
      </g>
     </g>
     <g id="text_10">
      <!-- 0.010 -->
      <g transform="translate(72.371875 364.065601) scale(0.1 -0.1)">
       <use xlink:href="#DejaVuSans-30"/>
       <use xlink:href="#DejaVuSans-2e" x="63.623047"/>
       <use xlink:href="#DejaVuSans-30" x="95.410156"/>
       <use xlink:href="#DejaVuSans-31" x="159.033203"/>
       <use xlink:href="#DejaVuSans-30" x="222.65625"/>
      </g>
     </g>
    </g>
    <g id="ytick_4">
     <g id="line2d_19">
      <path d="M 108 293.950537 
L 777.6 293.950537 
" clip-path="url(#pd6a7c02c15)" style="fill: none; stroke: #b0b0b0; stroke-width: 0.8; stroke-linecap: square"/>
     </g>
     <g id="line2d_20">
      <g>
       <use xlink:href="#m7c5e8b4685" x="108" y="293.950537" style="stroke: #000000; stroke-width: 0.8"/>
      </g>
     </g>
     <g id="text_11">
      <!-- 0.015 -->
      <g transform="translate(72.371875 297.749756) scale(0.1 -0.1)">
       <use xlink:href="#DejaVuSans-30"/>
       <use xlink:href="#DejaVuSans-2e" x="63.623047"/>
       <use xlink:href="#DejaVuSans-30" x="95.410156"/>
       <use xlink:href="#DejaVuSans-31" x="159.033203"/>
       <use xlink:href="#DejaVuSans-35" x="222.65625"/>
      </g>
     </g>
    </g>
    <g id="ytick_5">
     <g id="line2d_21">
      <path d="M 108 227.634693 
L 777.6 227.634693 
" clip-path="url(#pd6a7c02c15)" style="fill: none; stroke: #b0b0b0; stroke-width: 0.8; stroke-linecap: square"/>
     </g>
     <g id="line2d_22">
      <g>
       <use xlink:href="#m7c5e8b4685" x="108" y="227.634693" style="stroke: #000000; stroke-width: 0.8"/>
      </g>
     </g>
     <g id="text_12">
      <!-- 0.020 -->
      <g transform="translate(72.371875 231.433912) scale(0.1 -0.1)">
       <use xlink:href="#DejaVuSans-30"/>
       <use xlink:href="#DejaVuSans-2e" x="63.623047"/>
       <use xlink:href="#DejaVuSans-30" x="95.410156"/>
       <use xlink:href="#DejaVuSans-32" x="159.033203"/>
       <use xlink:href="#DejaVuSans-30" x="222.65625"/>
      </g>
     </g>
    </g>
    <g id="ytick_6">
     <g id="line2d_23">
      <path d="M 108 161.318848 
L 777.6 161.318848 
" clip-path="url(#pd6a7c02c15)" style="fill: none; stroke: #b0b0b0; stroke-width: 0.8; stroke-linecap: square"/>
     </g>
     <g id="line2d_24">
      <g>
       <use xlink:href="#m7c5e8b4685" x="108" y="161.318848" style="stroke: #000000; stroke-width: 0.8"/>
      </g>
     </g>
     <g id="text_13">
      <!-- 0.025 -->
      <g transform="translate(72.371875 165.118067) scale(0.1 -0.1)">
       <use xlink:href="#DejaVuSans-30"/>
       <use xlink:href="#DejaVuSans-2e" x="63.623047"/>
       <use xlink:href="#DejaVuSans-30" x="95.410156"/>
       <use xlink:href="#DejaVuSans-32" x="159.033203"/>
       <use xlink:href="#DejaVuSans-35" x="222.65625"/>
      </g>
     </g>
    </g>
    <g id="ytick_7">
     <g id="line2d_25">
      <path d="M 108 95.003004 
L 777.6 95.003004 
" clip-path="url(#pd6a7c02c15)" style="fill: none; stroke: #b0b0b0; stroke-width: 0.8; stroke-linecap: square"/>
     </g>
     <g id="line2d_26">
      <g>
       <use xlink:href="#m7c5e8b4685" x="108" y="95.003004" style="stroke: #000000; stroke-width: 0.8"/>
      </g>
     </g>
     <g id="text_14">
      <!-- 0.030 -->
      <g transform="translate(72.371875 98.802223) scale(0.1 -0.1)">
       <use xlink:href="#DejaVuSans-30"/>
       <use xlink:href="#DejaVuSans-2e" x="63.623047"/>
       <use xlink:href="#DejaVuSans-30" x="95.410156"/>
       <use xlink:href="#DejaVuSans-33" x="159.033203"/>
       <use xlink:href="#DejaVuSans-30" x="222.65625"/>
      </g>
     </g>
    </g>
    <g id="text_15">
     <!-- Price/strike ratio -->
     <g transform="translate(64.628438 364.318594) rotate(-90) scale(0.18 -0.18)">
      <defs>
       <path id="DejaVuSans-50" d="M 1259 4147 
L 1259 2394 
L 2053 2394 
Q 2494 2394 2734 2622 
Q 2975 2850 2975 3272 
Q 2975 3691 2734 3919 
Q 2494 4147 2053 4147 
L 1259 4147 
z
M 628 4666 
L 2053 4666 
Q 2838 4666 3239 4311 
Q 3641 3956 3641 3272 
Q 3641 2581 3239 2228 
Q 2838 1875 2053 1875 
L 1259 1875 
L 1259 0 
L 628 0 
L 628 4666 
z
" transform="scale(0.015625)"/>
       <path id="DejaVuSans-72" d="M 2631 2963 
Q 2534 3019 2420 3045 
Q 2306 3072 2169 3072 
Q 1681 3072 1420 2755 
Q 1159 2438 1159 1844 
L 1159 0 
L 581 0 
L 581 3500 
L 1159 3500 
L 1159 2956 
Q 1341 3275 1631 3429 
Q 1922 3584 2338 3584 
Q 2397 3584 2469 3576 
Q 2541 3569 2628 3553 
L 2631 2963 
z
" transform="scale(0.015625)"/>
       <path id="DejaVuSans-63" d="M 3122 3366 
L 3122 2828 
Q 2878 2963 2633 3030 
Q 2388 3097 2138 3097 
Q 1578 3097 1268 2742 
Q 959 2388 959 1747 
Q 959 1106 1268 751 
Q 1578 397 2138 397 
Q 2388 397 2633 464 
Q 2878 531 3122 666 
L 3122 134 
Q 2881 22 2623 -34 
Q 2366 -91 2075 -91 
Q 1284 -91 818 406 
Q 353 903 353 1747 
Q 353 2603 823 3093 
Q 1294 3584 2113 3584 
Q 2378 3584 2631 3529 
Q 2884 3475 3122 3366 
z
" transform="scale(0.015625)"/>
       <path id="DejaVuSans-65" d="M 3597 1894 
L 3597 1613 
L 953 1613 
Q 991 1019 1311 708 
Q 1631 397 2203 397 
Q 2534 397 2845 478 
Q 3156 559 3463 722 
L 3463 178 
Q 3153 47 2828 -22 
Q 2503 -91 2169 -91 
Q 1331 -91 842 396 
Q 353 884 353 1716 
Q 353 2575 817 3079 
Q 1281 3584 2069 3584 
Q 2775 3584 3186 3129 
Q 3597 2675 3597 1894 
z
M 3022 2063 
Q 3016 2534 2758 2815 
Q 2500 3097 2075 3097 
Q 1594 3097 1305 2825 
Q 1016 2553 972 2059 
L 3022 2063 
z
" transform="scale(0.015625)"/>
       <path id="DejaVuSans-2f" d="M 1625 4666 
L 2156 4666 
L 531 -594 
L 0 -594 
L 1625 4666 
z
" transform="scale(0.015625)"/>
       <path id="DejaVuSans-73" d="M 2834 3397 
L 2834 2853 
Q 2591 2978 2328 3040 
Q 2066 3103 1784 3103 
Q 1356 3103 1142 2972 
Q 928 2841 928 2578 
Q 928 2378 1081 2264 
Q 1234 2150 1697 2047 
L 1894 2003 
Q 2506 1872 2764 1633 
Q 3022 1394 3022 966 
Q 3022 478 2636 193 
Q 2250 -91 1575 -91 
Q 1294 -91 989 -36 
Q 684 19 347 128 
L 347 722 
Q 666 556 975 473 
Q 1284 391 1588 391 
Q 1994 391 2212 530 
Q 2431 669 2431 922 
Q 2431 1156 2273 1281 
Q 2116 1406 1581 1522 
L 1381 1569 
Q 847 1681 609 1914 
Q 372 2147 372 2553 
Q 372 3047 722 3315 
Q 1072 3584 1716 3584 
Q 2034 3584 2315 3537 
Q 2597 3491 2834 3397 
z
" transform="scale(0.015625)"/>
       <path id="DejaVuSans-6b" d="M 581 4863 
L 1159 4863 
L 1159 1991 
L 2875 3500 
L 3609 3500 
L 1753 1863 
L 3688 0 
L 2938 0 
L 1159 1709 
L 1159 0 
L 581 0 
L 581 4863 
z
" transform="scale(0.015625)"/>
       <path id="DejaVuSans-20" transform="scale(0.015625)"/>
      </defs>
      <use xlink:href="#DejaVuSans-50"/>
      <use xlink:href="#DejaVuSans-72" x="58.552734"/>
      <use xlink:href="#DejaVuSans-69" x="99.666016"/>
      <use xlink:href="#DejaVuSans-63" x="127.449219"/>
      <use xlink:href="#DejaVuSans-65" x="182.429688"/>
      <use xlink:href="#DejaVuSans-2f" x="243.953125"/>
      <use xlink:href="#DejaVuSans-73" x="277.644531"/>
      <use xlink:href="#DejaVuSans-74" x="329.744141"/>
      <use xlink:href="#DejaVuSans-72" x="368.953125"/>
      <use xlink:href="#DejaVuSans-69" x="410.066406"/>
      <use xlink:href="#DejaVuSans-6b" x="437.849609"/>
      <use xlink:href="#DejaVuSans-65" x="492.134766"/>
      <use xlink:href="#DejaVuSans-20" x="553.658203"/>
      <use xlink:href="#DejaVuSans-72" x="585.445312"/>
      <use xlink:href="#DejaVuSans-61" x="626.558594"/>
      <use xlink:href="#DejaVuSans-74" x="687.837891"/>
      <use xlink:href="#DejaVuSans-69" x="727.046875"/>
      <use xlink:href="#DejaVuSans-6f" x="754.830078"/>
     </g>
    </g>
   </g>
   <g id="line2d_27">
    <path d="M 138.436364 492.48 
L 183.316671 492.48 
L 183.316671 492.48 
L 183.519753 491.571754 
L 183.519753 492.48 
L 183.621286 492.48 
L 203.624506 492.48 
L 203.624506 491.571754 
L 203.726039 492.48 
L 207.990688 492.48 
L 208.193762 491.571754 
L 208.701459 492.48 
L 217.433823 492.48 
L 217.433823 492.48 
L 217.636905 491.571754 
L 217.941528 492.48 
L 221.901546 492.48 
L 222.003087 491.571754 
L 222.206169 492.48 
L 222.206169 492.48 
L 224.541563 492.48 
L 224.643104 491.571754 
L 224.846186 492.48 
L 233.477009 492.48 
L 233.680091 491.153684 
L 234.289336 492.48 
L 234.898566 492.48 
L 235.203174 491.153684 
L 236.218568 492.48 
L 239.569371 492.48 
L 240.07706 491.153684 
L 240.686291 491.153684 
L 240.787831 492.48 
L 240.990913 491.153684 
L 241.498602 491.153684 
L 241.498602 492.48 
L 242.107848 491.153684 
L 242.310929 492.48 
L 242.412455 491.153684 
L 243.224782 491.153684 
L 243.224782 492.48 
L 243.224782 492.48 
L 245.255554 492.48 
L 245.255554 492.48 
L 245.357095 491.153684 
L 246.067866 492.48 
L 246.372489 491.153684 
L 246.47403 492.48 
L 246.47403 491.153684 
L 246.778652 492.48 
L 247.387883 491.153684 
L 248.098654 491.153684 
L 248.504817 492.48 
L 248.809425 491.153684 
L 249.012506 492.48 
L 249.317129 491.153684 
L 249.824818 492.48 
L 250.941753 491.153684 
L 251.449442 492.48 
L 251.652524 491.153684 
L 251.754065 492.48 
L 252.667917 491.153684 
L 252.769458 492.48 
L 252.97254 491.153684 
L 253.277147 492.48 
L 253.480229 489.827366 
L 254.089459 491.153684 
L 254.901771 491.153684 
L 255.917165 489.827366 
L 256.018706 491.153684 
L 257.13564 491.153684 
L 257.13564 491.153684 
L 258.658723 489.827366 
L 258.963346 491.153684 
L 259.369494 491.153684 
L 259.775658 489.827366 
L 259.978739 489.827366 
L 259.978739 491.153684 
L 260.283347 489.827366 
L 260.486429 489.827366 
L 260.58797 491.153684 
L 261.400281 489.827366 
L 261.603363 491.153684 
L 262.009512 489.827366 
L 262.009512 491.153684 
L 262.517216 489.827366 
L 262.923364 491.153684 
L 263.126446 489.827366 
L 264.243381 491.153684 
L 264.954152 489.827366 
L 266.071086 489.827366 
L 266.984939 488.50105 
L 267.594169 489.827366 
L 268.000333 488.50105 
L 268.101873 489.827366 
L 268.203414 488.50105 
L 268.406481 491.153684 
L 268.711104 488.50105 
L 268.711104 489.827366 
L 269.320334 488.50105 
L 269.320334 489.827366 
L 269.523415 488.50105 
L 269.624956 489.827366 
L 270.335727 489.827366 
L 270.944957 488.50105 
L 271.046498 491.153684 
L 271.24958 489.827366 
L 271.757284 489.827366 
L 272.061892 488.50105 
L 272.975745 488.50105 
L 273.077286 489.827366 
L 275.209614 489.827366 
L 275.209614 488.50105 
L 275.311155 488.50105 
L 275.41268 487.174731 
L 275.514221 489.827366 
L 275.818844 488.50105 
L 277.240386 488.50105 
L 277.240386 489.827366 
L 277.443468 488.50105 
L 278.763484 488.50105 
L 278.966566 487.174731 
L 279.271173 489.827366 
L 279.474255 488.50105 
L 279.474255 488.50105 
L 279.981944 488.50105 
L 279.981944 488.50105 
L 280.388108 489.827366 
L 280.388108 488.50105 
L 280.388108 488.50105 
L 280.591189 489.827366 
L 280.997338 488.50105 
L 281.80965 488.50105 
L 282.012732 485.848413 
L 282.012732 487.174731 
L 282.621962 488.50105 
L 282.621962 487.174731 
L 283.332748 488.50105 
L 283.434289 488.50105 
L 283.941978 487.174731 
L 284.246601 487.174731 
L 284.551208 484.522099 
L 284.855831 487.174731 
L 285.058912 487.174731 
L 285.36352 488.50105 
L 285.566602 487.174731 
L 285.769683 487.174731 
L 285.972765 485.848413 
L 286.277373 487.174731 
L 288.105078 487.174731 
L 288.105078 485.848413 
L 288.612783 487.174731 
L 288.714323 485.848413 
L 289.323554 485.848413 
L 289.729702 488.50105 
L 290.338947 485.848413 
L 290.846636 484.522099 
L 291.2528 484.522099 
L 291.658948 487.174731 
L 292.065112 485.848413 
L 292.572801 487.174731 
L 292.674342 485.848413 
L 293.994358 485.848413 
L 293.994358 485.848413 
L 294.197425 487.174731 
L 294.298966 485.848413 
L 294.298966 487.174731 
L 294.705129 485.848413 
L 294.80667 487.174731 
L 295.720523 488.50105 
L 296.431294 483.195784 
L 297.75131 485.848413 
L 298.157459 485.848413 
L 298.258999 484.522099 
L 299.579001 483.195784 
L 299.883623 485.848413 
L 300.086705 483.195784 
L 300.289787 485.848413 
L 300.797476 483.195784 
L 301.20364 484.522099 
L 301.406706 481.869464 
L 301.711329 484.522099 
L 301.711329 483.195784 
L 301.914411 484.522099 
L 302.828263 483.195784 
L 302.929804 484.522099 
L 303.132871 481.869464 
L 303.539034 484.522099 
L 303.742116 483.195784 
L 304.452887 481.869464 
L 304.452887 480.543153 
L 304.554428 481.869464 
L 304.655969 480.543153 
L 305.062117 483.195784 
L 305.36674 480.543153 
L 305.569822 483.195784 
L 306.483674 483.195784 
L 307.194445 481.869464 
L 307.397527 484.522099 
L 307.600594 480.543153 
L 308.006757 476.564192 
L 308.006757 483.195784 
L 308.31138 481.869464 
L 308.615987 481.869464 
L 308.615987 481.869464 
L 308.819069 480.543153 
L 309.428299 480.543153 
L 309.52984 483.195784 
L 309.52984 483.195784 
L 309.834463 480.543153 
L 309.936004 483.195784 
L 310.849856 481.869464 
L 311.256005 480.543153 
L 311.560627 481.869464 
L 311.560627 481.869464 
L 311.662168 483.195784 
L 311.763709 481.869464 
L 312.779103 481.869464 
L 312.880644 479.216827 
L 312.982169 481.869464 
L 313.185251 480.543153 
L 314.099104 479.216827 
L 314.200645 480.543153 
L 314.302186 476.564192 
L 314.302186 479.216827 
L 314.606808 480.543153 
L 315.114498 477.890509 
L 315.622202 479.216827 
L 315.622202 476.564192 
L 316.02835 479.216827 
L 316.434514 480.543153 
L 317.348367 479.216827 
L 317.348367 477.890509 
L 318.160678 479.216827 
L 318.465286 480.543153 
L 318.769909 476.564192 
L 318.769909 479.216827 
L 318.87145 479.216827 
L 319.48068 477.890509 
L 319.582221 479.216827 
L 319.886843 479.216827 
L 320.089925 477.890509 
L 320.496073 479.216827 
L 320.902237 477.890509 
L 320.902237 479.216827 
L 321.206844 477.890509 
L 321.308385 479.216827 
L 321.511467 476.564192 
L 322.019156 480.543153 
L 322.120697 477.890509 
L 322.526861 476.564192 
L 322.628401 477.890509 
L 322.628401 476.564192 
L 322.831468 476.564192 
L 323.440713 479.216827 
L 323.542254 476.564192 
L 323.542254 476.564192 
L 323.643795 479.216827 
L 323.846862 476.564192 
L 324.659174 477.890509 
L 325.166878 479.216827 
L 325.268419 477.890509 
L 325.573026 477.890509 
L 326.080731 473.911569 
L 326.283812 476.564192 
L 327.299191 475.237879 
L 327.705355 476.564192 
L 328.111518 476.564192 
L 328.111518 475.237879 
L 328.517666 475.237879 
L 328.517666 473.911569 
L 328.517666 477.890509 
L 328.822289 475.237879 
L 329.126897 473.911569 
L 329.736142 472.585251 
L 329.736142 472.585251 
L 330.345372 475.237879 
L 330.548454 475.237879 
L 330.954602 476.564192 
L 331.462306 475.237879 
L 331.563847 477.890509 
L 331.868455 471.258932 
L 332.274618 476.564192 
L 332.274618 472.585251 
L 332.4777 475.237879 
L 333.391553 473.911569 
L 334.406931 473.911569 
L 335.016177 476.564192 
L 335.523866 472.585251 
L 335.930029 473.911569 
L 337.14849 473.911569 
L 337.351571 472.585251 
L 337.757735 468.606299 
L 338.163883 469.932617 
L 339.4839 472.585251 
L 340.09313 472.585251 
L 340.70236 468.606299 
L 341.311605 471.258932 
L 341.819294 469.932617 
L 342.326984 468.606299 
L 342.42854 469.932617 
L 342.733147 469.932617 
L 344.154689 467.279991 
L 344.459327 471.258932 
L 344.459327 463.301036 
L 344.86546 469.932617 
L 345.779313 467.279991 
L 345.982395 468.606299 
L 346.490084 464.627332 
L 346.693166 469.932617 
L 346.997803 472.585251 
L 347.607018 465.953672 
L 348.216264 465.953672 
L 348.723953 468.606299 
L 349.028591 464.627332 
L 349.333198 467.279991 
L 349.434724 465.953672 
L 349.739362 468.606299 
L 350.247051 467.279991 
L 350.551658 464.627332 
L 350.551658 467.279991 
L 351.059348 468.606299 
L 351.465511 467.279991 
L 351.567067 465.953672 
L 352.074756 464.627332 
L 352.887053 465.953672 
L 353.191691 465.953672 
L 353.293217 464.627332 
L 353.394773 469.932617 
L 354.207069 469.932617 
L 354.511707 461.974712 
L 354.91784 467.279991 
L 355.730168 463.301036 
L 355.933249 465.953672 
L 356.440939 463.301036 
L 357.15171 464.627332 
L 357.253235 463.301036 
L 357.760955 460.648401 
L 357.760955 463.301036 
L 358.167088 463.301036 
L 358.471726 464.627332 
L 358.573252 465.953672 
L 358.877889 461.974712 
L 359.487104 461.974712 
L 359.994794 460.648401 
L 360.502513 464.627332 
L 361.31481 463.301036 
L 361.31481 460.648401 
L 361.619448 465.953672 
L 362.330219 461.974712 
L 362.736352 464.627332 
L 363.04099 460.648401 
L 363.04099 464.627332 
L 363.244071 463.301036 
L 363.853286 461.974712 
L 364.360976 461.974712 
L 364.564057 459.322092 
L 364.564057 459.322092 
L 364.767139 459.322092 
L 364.970221 455.343139 
L 365.47791 460.648401 
L 365.680992 457.995762 
L 365.98563 465.953672 
L 366.290237 461.974712 
L 366.696401 452.690494 
L 367.001008 463.301036 
L 367.508697 461.974712 
L 367.914861 452.690494 
L 368.321024 457.995762 
L 368.828714 460.648401 
L 369.133321 457.995762 
L 369.133321 459.322092 
L 369.437959 455.343139 
L 369.641041 459.322092 
L 369.945648 456.669451 
L 370.757945 454.016797 
L 371.062583 456.669451 
L 371.468746 457.995762 
L 371.671798 457.995762 
L 371.773354 459.322092 
L 372.179517 460.648401 
L 372.58565 456.669451 
L 372.991814 456.669451 
L 373.09337 457.995762 
L 373.499503 456.669451 
L 373.601059 452.690494 
L 374.210274 456.669451 
L 374.514912 456.669451 
L 374.717994 452.690494 
L 375.022601 454.016797 
L 375.428765 456.669451 
L 375.428765 457.995762 
L 376.139536 450.037859 
L 376.444143 456.669451 
L 376.748781 447.385211 
L 376.748781 459.322092 
L 376.748781 456.669451 
L 376.951833 451.364173 
L 377.25647 450.037859 
L 377.561078 460.648401 
L 377.967241 450.037859 
L 378.474931 454.016797 
L 379.287258 452.690494 
L 380.505718 447.385211 
L 380.607244 454.016797 
L 380.810325 451.364173 
L 381.013407 454.016797 
L 381.114963 447.385211 
L 381.622652 447.385211 
L 381.92726 450.037859 
L 382.028816 456.669451 
L 382.231867 452.690494 
L 382.231867 448.71156 
L 382.739587 452.690494 
L 383.450358 452.690494 
L 383.856521 448.71156 
L 384.262655 452.690494 
L 384.364211 451.364173 
L 384.364211 451.364173 
L 384.567292 454.016797 
L 385.176507 450.037859 
L 385.582671 444.732606 
L 385.582671 450.037859 
L 385.785753 444.732606 
L 385.785753 450.037859 
L 385.887278 447.385211 
L 385.988834 452.690494 
L 386.09036 448.71156 
L 386.293442 446.058912 
L 386.496524 446.058912 
L 386.902687 443.406286 
L 387.308851 450.037859 
L 387.918066 448.71156 
L 388.019622 450.037859 
L 388.425785 448.71156 
L 388.425785 450.037859 
L 389.136556 447.385211 
L 389.644245 450.037859 
L 389.948853 447.385211 
L 390.151935 447.385211 
L 390.355016 444.732606 
L 390.558098 450.037859 
L 390.659624 447.385211 
L 390.862706 448.71156 
L 391.167313 444.732606 
L 391.471951 452.690494 
L 391.471951 446.058912 
L 392.081166 444.732606 
L 392.081166 448.71156 
L 392.284248 442.079946 
L 392.791967 443.406286 
L 392.893493 446.058912 
L 393.198101 444.732606 
L 393.299657 440.753638 
L 393.299657 447.385211 
L 393.70582 443.406286 
L 393.807346 447.385211 
L 393.807346 438.101033 
L 394.416591 442.079946 
L 395.43197 442.079946 
L 395.533526 446.058912 
L 395.939659 443.406286 
L 396.041215 438.101033 
L 396.548904 446.058912 
L 396.751986 442.079946 
L 396.955068 443.406286 
L 397.361231 443.406286 
L 397.361231 443.406286 
L 397.462757 442.079946 
L 397.564283 431.469448 
L 397.767364 438.101033 
L 397.86892 439.427342 
L 398.275084 439.427342 
L 398.478135 442.079946 
L 398.579691 439.427342 
L 398.681217 440.753638 
L 398.681217 440.753638 
L 398.884299 447.385211 
L 398.985855 442.079946 
L 399.696626 438.101033 
L 399.899708 442.079946 
L 400.204315 443.406286 
L 400.305841 440.753638 
L 400.712004 435.448367 
L 400.81356 439.427342 
L 401.625857 436.774694 
L 402.133546 439.427342 
L 402.235102 442.079946 
L 403.250481 442.079946 
L 403.75817 438.101033 
L 404.773579 435.448367 
L 404.875105 436.774694 
L 404.875105 440.753638 
L 404.976661 432.795762 
L 405.078186 432.795762 
L 405.179742 442.079946 
L 405.179742 435.448367 
L 405.281268 436.774694 
L 406.499728 442.079946 
L 406.905892 427.490492 
L 406.905892 439.427342 
L 407.108974 434.12204 
L 407.718219 436.774694 
L 407.718219 435.448367 
L 407.921301 439.427342 
L 407.921301 428.816788 
L 407.921301 434.12204 
L 408.42899 431.469448 
L 408.42899 436.774694 
L 408.530516 432.795762 
L 409.241287 435.448367 
L 409.342843 431.469448 
L 409.749006 430.143127 
L 410.256696 435.448367 
L 410.358221 434.12204 
L 410.865911 434.12204 
L 410.967467 432.795762 
L 410.967467 432.795762 
L 412.287483 434.12204 
L 412.693616 428.816788 
L 412.693616 424.837838 
L 412.896698 432.795762 
L 412.998254 430.143127 
L 413.810551 432.795762 
L 414.216714 428.816788 
L 414.216714 436.774694 
L 414.216714 427.490492 
L 414.521322 426.164171 
L 414.521322 430.143127 
L 415.435174 428.816788 
L 415.638256 435.448367 
L 415.739812 426.164171 
L 416.552109 435.448367 
L 417.161354 426.164171 
L 417.770599 431.469448 
L 418.075207 426.164171 
L 418.887504 434.12204 
L 418.887504 432.795762 
L 419.293667 432.795762 
L 419.395223 426.164171 
L 419.496749 427.490492 
L 419.598305 426.164171 
L 420.105994 426.164171 
L 420.410602 434.12204 
L 420.715209 427.490492 
L 420.816765 428.816788 
L 421.121373 428.816788 
L 421.9337 420.858894 
L 422.441389 426.164171 
L 423.355242 424.837838 
L 424.472176 424.837838 
L 424.675258 423.511554 
L 424.87834 428.816788 
L 424.979865 420.858894 
L 425.690636 426.164171 
L 426.0968 426.164171 
L 426.0968 424.837838 
L 426.502963 419.532567 
L 426.502963 424.837838 
L 426.706045 420.858894 
L 426.706045 420.858894 
L 427.112178 423.511554 
L 427.822949 424.837838 
L 428.229113 426.164171 
L 428.330669 420.858894 
L 428.838358 427.490492 
L 429.142966 423.511554 
L 429.244522 424.837838 
L 429.549129 416.879968 
L 430.056819 422.18519 
L 430.76759 427.490492 
L 431.072227 419.532567 
L 431.579917 415.55366 
L 432.087606 419.532567 
L 432.392213 414.22732 
L 432.392213 415.55366 
L 432.595295 418.206252 
L 432.798377 424.837838 
L 433.20454 416.879968 
L 433.407622 420.858894 
L 435.235328 414.22732 
L 435.336853 423.511554 
L 435.539935 416.879968 
L 435.844573 416.879968 
L 436.047624 412.900975 
L 436.250706 427.490492 
L 436.555344 411.574691 
L 437.164559 411.574691 
L 437.367641 414.22732 
L 437.367641 416.879968 
L 438.078412 412.900975 
L 438.484575 406.269414 
L 438.687657 415.55366 
L 440.109199 415.55366 
L 440.718444 404.943044 
L 441.023052 416.879968 
L 441.733823 406.269414 
L 442.343068 411.574691 
L 443.053839 411.574691 
L 443.561528 416.879968 
L 444.069217 407.59571 
L 444.780019 416.879968 
L 444.98307 406.269414 
L 445.693841 408.922037 
L 445.693841 406.269414 
L 446.70925 404.943044 
L 447.013858 402.290458 
L 447.420021 414.22732 
L 448.130792 408.922037 
L 448.536956 407.59571 
L 449.450808 398.311502 
L 449.755416 415.55366 
L 449.755416 410.248333 
L 450.567743 411.574691 
L 450.87235 410.248333 
L 451.176958 393.006262 
L 451.278514 404.943044 
L 451.38004 402.290458 
L 451.38004 406.269414 
L 451.786203 399.637853 
L 452.801612 399.637853 
L 452.903138 404.943044 
L 453.106219 400.964131 
L 453.410827 408.922037 
L 453.613909 404.943044 
L 453.918516 407.59571 
L 454.223154 395.65886 
L 454.32468 404.943044 
L 454.32468 403.616729 
L 454.527761 403.616729 
L 454.629287 400.964131 
L 454.730843 402.290458 
L 455.54314 404.943044 
L 455.644696 398.311502 
L 455.847778 403.616729 
L 456.253941 399.637853 
L 456.355467 404.943044 
L 457.26932 400.964131 
L 457.370845 398.311502 
L 457.370845 400.964131 
L 457.472401 403.616729 
L 457.472401 398.311502 
L 458.284698 404.943044 
L 458.386254 399.637853 
L 459.097025 396.985199 
L 459.503189 398.311502 
L 459.604714 391.679928 
L 459.909352 403.616729 
L 460.721649 396.985199 
L 460.823205 391.679928 
L 460.924731 400.964131 
L 461.127812 393.006262 
L 462.346273 394.332508 
L 462.955518 390.353601 
L 463.1586 404.943044 
L 463.260125 396.985199 
L 463.361681 399.637853 
L 463.361681 391.679928 
L 463.463207 393.006262 
L 463.767815 398.311502 
L 463.767815 394.332508 
L 464.072452 390.353601 
L 464.884749 391.679928 
L 465.290913 391.679928 
L 465.290913 396.985199 
L 466.10324 390.353601 
L 467.118618 398.311502 
L 467.118618 393.006262 
L 467.524782 387.700954 
L 467.626308 389.027318 
L 468.54016 390.353601 
L 468.641716 385.0483 
L 468.743242 396.985199 
L 469.149406 394.332508 
L 469.250931 385.0483 
L 469.555569 386.374602 
L 469.555569 389.027318 
L 470.26634 393.006262 
L 470.570948 393.006262 
L 470.977111 390.353601 
L 471.180193 391.679928 
L 471.281719 387.700954 
L 471.4848 389.027318 
L 471.4848 395.65886 
L 471.789408 389.027318 
L 471.890964 381.069356 
L 471.890964 393.006262 
L 472.094046 385.0483 
L 472.195571 395.65886 
L 472.500209 385.0483 
L 473.312506 381.069356 
L 473.820195 391.679928 
L 474.124833 383.722034 
L 474.327884 387.700954 
L 474.93713 385.0483 
L 475.140211 381.069356 
L 475.343293 382.395707 
L 475.444819 389.027318 
L 475.444819 386.374602 
L 475.546375 382.395707 
L 475.546375 383.722034 
L 475.647901 393.006262 
L 477.069443 379.743053 
L 477.272524 381.069356 
L 477.475606 373.111443 
L 477.983295 394.332508 
L 477.983295 394.332508 
L 478.287933 383.722034 
L 478.592541 382.395707 
L 478.998704 382.395707 
L 479.201786 375.764159 
L 479.607949 377.090474 
L 479.709475 378.416764 
L 479.811001 371.785166 
L 480.31872 379.743053 
L 480.420246 373.111443 
L 480.927935 374.437758 
L 481.232573 379.743053 
L 481.537181 382.395707 
L 481.740262 379.743053 
L 481.740262 382.395707 
L 482.146426 385.0483 
L 482.247952 378.416764 
L 482.349477 382.395707 
L 482.654115 371.785166 
L 482.654115 381.069356 
L 482.857197 382.395707 
L 483.567968 378.416764 
L 484.075657 382.395707 
L 484.583347 374.437758 
L 484.98951 379.743053 
L 484.98951 386.374602 
L 485.192592 378.416764 
L 486.512608 378.416764 
L 486.614134 367.806246 
L 486.614134 379.743053 
L 486.817216 373.111443 
L 487.223379 383.722034 
L 487.629543 378.416764 
L 487.731068 373.111443 
L 487.731068 378.416764 
L 488.949529 379.743053 
L 489.457248 381.069356 
L 489.558774 370.458802 
L 490.066463 377.090474 
L 490.269545 374.437758 
L 490.472627 375.764159 
L 490.574152 374.437758 
L 490.675708 370.458802 
L 491.488005 369.132549 
L 491.589561 382.395707 
L 491.589561 366.479845 
L 491.995725 369.132549 
L 492.09725 379.743053 
L 492.300332 373.111443 
L 492.401858 377.090474 
L 492.706496 365.15363 
L 493.518792 377.090474 
L 493.82343 366.479845 
L 494.432645 357.195692 
L 494.940334 366.479845 
L 495.244972 359.848322 
L 496.361907 373.111443 
L 496.463432 367.806246 
L 496.564988 370.458802 
L 496.564988 374.437758 
L 496.76804 367.806246 
L 496.76804 358.522007 
L 497.580367 369.132549 
L 497.580367 363.82729 
L 497.681893 365.15363 
L 497.884974 369.132549 
L 497.98653 361.174611 
L 498.49422 366.479845 
L 498.595745 362.500976 
L 499.103465 371.785166 
L 499.306547 365.15363 
L 499.509598 362.500976 
L 499.71268 365.15363 
L 499.71268 377.090474 
L 500.017318 359.848322 
L 500.321925 366.479845 
L 500.93117 366.479845 
L 501.641942 370.458802 
L 501.946549 351.890397 
L 501.946549 359.848322 
L 502.048075 359.848322 
L 502.454238 369.132549 
L 502.758876 351.890397 
L 503.266565 355.869328 
L 503.571173 350.564057 
L 503.977336 363.82729 
L 504.688107 366.479845 
L 504.789633 359.848322 
L 505.094271 354.543075 
L 505.094271 354.543075 
L 505.398878 353.216773 
L 505.805042 367.806246 
L 506.617339 363.82729 
L 506.921976 358.522007 
L 507.429666 357.195692 
L 507.531191 355.869328 
L 507.632747 363.82729 
L 507.937355 363.82729 
L 508.038911 357.195692 
L 508.343518 353.216773 
L 508.5466 362.500976 
L 508.749682 350.564057 
L 509.460453 350.564057 
L 509.76506 342.606268 
L 509.76506 365.15363 
L 509.866616 358.522007 
L 510.27275 358.522007 
L 510.374306 354.543075 
L 510.475831 367.806246 
L 510.475831 353.216773 
L 510.780469 351.890397 
L 511.186602 354.543075 
L 511.694322 345.258824 
L 512.100455 361.174611 
L 512.405093 350.564057 
L 512.405093 353.216773 
L 512.7097 354.543075 
L 512.811226 349.237706 
L 512.912782 365.15363 
L 513.318946 343.932484 
L 513.318946 345.258824 
L 513.420471 361.174611 
L 514.334324 354.543075 
L 515.146651 358.522007 
L 515.755866 349.237706 
L 516.263586 355.869328 
L 516.365111 351.890397 
L 516.669719 361.174611 
L 516.771275 345.258824 
L 516.872801 349.237706 
L 517.075882 350.564057 
L 517.38049 341.279954 
L 517.685128 341.279954 
L 517.888209 342.606268 
L 518.091261 349.237706 
L 518.091261 355.869328 
L 518.294343 353.216773 
L 518.59898 345.258824 
L 518.700506 359.848322 
L 518.802062 346.5852 
L 519.005114 339.953602 
L 519.10667 350.564057 
L 519.10667 342.606268 
L 519.309751 349.237706 
L 519.614359 347.91144 
L 520.020523 350.564057 
L 520.832819 343.932484 
L 520.934375 351.890397 
L 521.645146 343.932484 
L 521.746672 349.237706 
L 521.746672 342.606268 
L 522.355917 353.216773 
L 522.355917 339.953602 
L 522.965163 341.279954 
L 523.066688 346.5852 
L 523.066688 341.279954 
L 523.675934 339.953602 
L 523.879015 343.932484 
L 524.285179 337.300862 
L 524.48823 341.279954 
L 525.503639 335.974596 
L 525.503639 334.648319 
L 525.808247 342.606268 
L 525.909803 349.237706 
L 526.011328 333.321955 
L 526.722099 342.606268 
L 526.925181 328.016671 
L 527.635952 347.91144 
L 527.94056 345.258824 
L 527.94056 343.932484 
L 528.143641 354.543075 
L 528.752887 329.343011 
L 529.057494 341.279954 
L 529.666739 338.627275 
L 529.869821 338.627275 
L 530.275985 334.648319 
L 530.682118 338.627275 
L 530.986756 333.321955 
L 531.392919 333.321955 
L 531.494445 329.343011 
L 531.595971 339.953602 
L 532.002134 338.627275 
L 532.712905 331.995665 
L 533.017543 342.606268 
L 533.220625 337.300862 
L 533.220625 343.932484 
L 534.134477 335.974596 
L 534.134477 342.606268 
L 534.439085 341.279954 
L 534.642167 343.932484 
L 534.743692 328.016671 
L 534.946774 334.648319 
L 536.063709 335.974596 
L 536.165234 343.932484 
L 536.368316 334.648319 
L 536.469872 320.058858 
L 536.876005 328.016671 
L 536.876005 325.364116 
L 536.977561 330.66935 
L 537.383725 326.690394 
L 537.485251 330.66935 
L 537.485251 330.66935 
L 537.891414 322.711388 
L 537.891414 333.321955 
L 538.094496 339.953602 
L 538.399104 342.606268 
L 539.008349 334.648319 
L 539.109875 335.974596 
L 541.242218 343.932484 
L 541.343744 322.711388 
L 541.749907 320.058858 
L 541.952989 330.66935 
L 542.054515 325.364116 
L 542.66376 338.627275 
L 542.968367 326.690394 
L 543.272975 322.711388 
L 543.577613 324.037728 
L 543.679138 328.016671 
L 544.085302 314.753562 
L 544.085302 324.037728 
L 544.288384 324.037728 
L 544.389909 310.774569 
L 544.796073 335.974596 
L 545.10068 322.711388 
L 546.116089 321.385098 
L 546.116089 310.774569 
L 546.217615 325.364116 
L 546.319171 318.732494 
L 546.725304 322.711388 
L 547.233024 317.406179 
L 547.639157 320.058858 
L 547.842239 318.732494 
L 548.248402 325.364116 
L 548.55301 320.058858 
L 548.756091 338.627275 
L 548.959173 309.448353 
L 548.959173 320.058858 
L 549.162255 321.385098 
L 549.466862 318.732494 
L 550.177664 330.66935 
L 550.380715 331.995665 
L 550.98996 331.995665 
L 550.98996 314.753562 
L 551.396124 320.058858 
L 551.396124 324.037728 
L 551.599206 312.100846 
L 551.903813 310.774569 
L 552.106895 314.753562 
L 552.513058 316.079864 
L 552.71614 320.058858 
L 553.9346 318.732494 
L 554.746897 285.574492 
L 555.153061 325.364116 
L 555.356142 316.079864 
L 556.371551 306.795637 
L 556.473077 316.079864 
L 557.082322 314.753562 
L 557.285404 318.732494 
L 557.285404 313.427223 
L 557.488456 314.753562 
L 557.793093 322.711388 
L 557.793093 313.427223 
L 558.199257 314.753562 
L 558.706946 308.122001 
L 558.706946 321.385098 
L 558.808472 316.079864 
L 559.011554 308.122001 
L 559.417717 298.8377 
L 560.128488 304.143082 
L 560.433096 308.122001 
L 560.636177 308.122001 
L 560.737733 312.100846 
L 561.854668 306.795637 
L 562.971572 298.8377 
L 563.479292 312.100846 
L 563.580817 298.8377 
L 564.190063 324.037728 
L 564.291588 293.532491 
L 565.002359 304.143082 
L 565.002359 316.079864 
L 565.103915 306.795637 
L 565.814686 298.8377 
L 566.728539 302.816644 
L 566.931621 312.100846 
L 567.134703 293.532491 
L 567.845474 305.469224 
L 568.048555 300.16399 
L 568.048555 312.100846 
L 568.048555 301.490342 
L 568.454689 309.448353 
L 568.454689 301.490342 
L 568.860852 298.8377 
L 568.860852 308.122001 
L 568.962408 294.858793 
L 568.962408 298.8377 
L 569.063934 292.206139 
L 570.079312 290.879825 
L 570.587032 297.511423 
L 570.587032 304.143082 
L 570.891639 314.753562 
L 570.993165 290.879825 
L 571.60241 294.858793 
L 571.703966 289.553461 
L 572.617789 309.448353 
L 572.922427 294.858793 
L 573.125508 310.774569 
L 574.140887 290.879825 
L 574.242443 294.858793 
L 574.242443 305.469224 
L 574.445494 304.143082 
L 574.648576 304.143082 
L 575.765511 296.185083 
L 575.968593 282.921863 
L 576.070149 286.900856 
L 576.171674 296.185083 
L 576.679364 286.900856 
L 577.390135 289.553461 
L 578.202462 300.16399 
L 578.405543 276.290388 
L 578.811707 281.595647 
L 579.21784 294.858793 
L 579.420922 288.227158 
L 579.624004 298.8377 
L 580.131693 290.879825 
L 580.537856 281.595647 
L 580.842464 309.448353 
L 581.350183 272.31142 
L 581.654791 293.532491 
L 581.654791 281.595647 
L 581.857873 300.16399 
L 582.16248 286.900856 
L 582.467088 308.122001 
L 583.076333 280.269357 
L 583.482496 292.206139 
L 583.685578 268.332402 
L 584.396349 306.795637 
L 584.802513 276.290388 
L 584.802513 296.185083 
L 585.10712 282.921863 
L 585.208646 298.8377 
L 585.310202 286.900856 
L 585.614809 285.574492 
L 585.716365 281.595647 
L 586.020973 293.532491 
L 586.528662 285.574492 
L 586.630218 298.8377 
L 587.239433 286.900856 
L 587.544071 288.227158 
L 587.848678 282.921863 
L 588.661005 282.921863 
L 589.371776 280.269357 
L 589.371776 284.248301 
L 589.574858 265.679871 
L 589.574858 297.511423 
L 589.676384 284.248301 
L 589.77791 290.879825 
L 589.980991 286.900856 
L 590.184073 285.574492 
L 590.590237 281.595647 
L 590.894844 274.964049 
L 590.894844 298.8377 
L 591.707171 278.942944 
L 591.707171 273.637759 
L 591.910253 281.595647 
L 591.910253 286.900856 
L 592.113335 284.248301 
L 592.316386 276.290388 
L 592.417942 277.616629 
L 592.519468 268.332402 
L 592.621024 278.942944 
L 593.94104 281.595647 
L 594.042566 276.290388 
L 594.144092 285.574492 
L 594.347174 263.027168 
L 594.956419 281.595647 
L 595.464138 270.985056 
L 595.565634 276.290388 
L 595.66719 263.027168 
L 597.494895 261.700779 
L 597.799503 274.964049 
L 598.510274 286.900856 
L 598.61183 269.658815 
L 598.61183 272.31142 
L 599.931816 264.353532 
L 600.439535 267.006038 
L 600.744143 264.353532 
L 600.947255 277.616629 
L 601.150306 278.942944 
L 601.454914 264.353532 
L 601.658026 273.637759 
L 601.861077 273.637759 
L 601.962633 261.700779 
L 602.470292 278.942944 
L 602.571848 268.332402 
L 602.673404 269.658815 
L 602.876456 256.395644 
L 603.790339 261.700779 
L 604.196502 274.964049 
L 604.399554 267.006038 
L 604.704161 269.658815 
L 606.227259 260.374489 
L 606.93803 267.006038 
L 607.141142 260.374489 
L 607.547245 252.416601 
L 607.648801 278.942944 
L 608.054965 264.353532 
L 608.156521 251.090361 
L 608.156521 259.048175 
L 608.258077 272.31142 
L 608.765736 269.658815 
L 608.968848 263.027168 
L 609.476507 273.637759 
L 609.679619 249.764219 
L 609.679619 264.353532 
L 610.288834 249.764219 
L 610.898049 261.700779 
L 610.999605 249.764219 
L 611.304212 265.679871 
L 612.014984 255.069354 
L 612.014984 257.721934 
L 612.218096 265.679871 
L 612.319591 252.416601 
L 612.421147 261.700779 
L 612.522703 252.416601 
L 612.522703 253.742891 
L 612.827311 249.764219 
L 613.33503 256.395644 
L 613.33503 241.806035 
L 613.436526 256.395644 
L 613.842689 260.374489 
L 614.147297 252.416601 
L 614.350409 260.374489 
L 614.756572 251.090361 
L 615.467343 252.416601 
L 615.873507 248.437559 
L 616.27967 249.764219 
L 616.685773 269.658815 
L 616.888885 256.395644 
L 616.990441 263.027168 
L 616.990441 248.437559 
L 617.193493 252.416601 
L 618.208871 245.785078 
L 619.325806 245.785078 
L 620.341184 257.721934 
L 620.544296 264.353532 
L 620.645852 245.785078 
L 621.762787 247.11117 
L 621.965838 256.395644 
L 621.965838 247.11117 
L 622.372002 243.132473 
L 623.082773 247.11117 
L 623.285824 256.395644 
L 623.285824 241.806035 
L 623.488936 231.19537 
L 623.691988 241.806035 
L 624.098151 255.069354 
L 624.199707 235.174561 
L 624.605871 253.742891 
L 624.910478 236.500826 
L 625.621249 239.153257 
L 626.027413 241.806035 
L 626.941235 243.132473 
L 627.042791 239.153257 
L 628.362777 249.764219 
L 628.464333 241.806035 
L 628.464333 241.806035 
L 628.565889 256.395644 
L 628.768941 240.479745 
L 628.972053 248.437559 
L 628.972053 240.479745 
L 629.479712 236.500826 
L 629.479712 240.479745 
L 629.581268 235.174561 
L 630.596646 227.216599 
L 630.799758 229.869277 
L 631.307417 239.153257 
L 631.612025 239.153257 
L 631.815137 244.458516 
L 631.815137 231.19537 
L 632.018188 241.806035 
L 632.322856 236.500826 
L 632.424352 243.132473 
L 632.627464 247.11117 
L 633.033627 248.437559 
L 633.236679 240.479745 
L 633.43973 236.500826 
L 634.049006 236.500826 
L 634.252057 219.258834 
L 634.962828 225.890185 
L 635.064384 217.932569 
L 635.064384 225.890185 
L 635.572104 249.764219 
L 635.673599 236.500826 
L 635.978267 249.764219 
L 635.978267 221.911389 
L 636.38437 239.153257 
L 636.485926 216.60618 
L 636.993646 244.458516 
L 637.501305 207.322003 
L 637.501305 223.237482 
L 639.125959 227.216599 
L 639.227515 235.174561 
L 640.750552 231.19537 
L 640.750552 221.911389 
L 641.664435 227.216599 
L 641.664435 231.19537 
L 641.969043 231.19537 
L 642.27365 236.500826 
L 642.375206 204.669077 
L 642.78137 236.500826 
L 642.882926 240.479745 
L 643.085977 223.237482 
L 643.593697 212.626989 
L 643.593697 219.258834 
L 644.609075 243.132473 
L 644.913683 235.174561 
L 645.116734 211.300774 
L 645.319846 211.300774 
L 645.624454 208.647947 
L 646.030617 225.890185 
L 646.335225 215.279742 
L 646.538337 212.626989 
L 646.94444 217.932569 
L 647.553716 211.300774 
L 647.858323 228.542963 
L 648.162931 225.890185 
L 650.193748 209.974237 
L 650.193748 232.521758 
L 650.498356 249.764219 
L 650.904519 208.647947 
L 650.904519 245.785078 
L 651.209127 219.258834 
L 651.513734 227.216599 
L 651.818342 231.19537 
L 652.122949 239.153257 
L 653.138328 208.647947 
L 653.34144 215.279742 
L 653.849159 204.669077 
L 653.950655 227.216599 
L 653.950655 223.237482 
L 654.356818 209.974237 
L 654.55993 220.584976 
L 655.169145 216.60618 
L 655.169145 223.237482 
L 655.372197 216.60618 
L 655.372197 212.626989 
L 655.473753 217.932569 
L 655.575309 223.237482 
L 655.77836 217.932569 
L 656.489131 216.60618 
L 657.098407 195.38527 
L 657.707622 208.647947 
L 658.418393 219.258834 
L 658.926112 196.711288 
L 659.129164 200.690232 
L 659.129164 209.974237 
L 659.129164 195.38527 
L 659.23072 207.322003 
L 659.535327 199.364115 
L 659.636883 202.016472 
L 660.144542 209.974237 
L 660.652262 195.38527 
L 660.956869 211.300774 
L 661.566084 192.732542 
L 661.566084 196.711288 
L 661.769196 225.890185 
L 661.972248 190.079863 
L 662.683019 205.995293 
L 662.784575 202.016472 
L 662.784575 183.448117 
L 662.886131 209.974237 
L 663.799953 212.626989 
L 664.003065 198.037578 
L 664.510724 199.364115 
L 664.61228 190.079863 
L 665.221495 186.100993 
L 666.135378 203.342787 
L 666.135378 184.774481 
L 666.33843 191.40598 
L 666.33843 207.322003 
L 666.541542 208.647947 
L 666.744593 203.342787 
L 666.846149 190.079863 
L 667.049201 198.037578 
L 667.353869 195.38527 
L 667.455364 204.669077 
L 668.267691 209.974237 
L 668.267691 202.016472 
L 668.572299 215.279742 
L 668.673855 199.364115 
L 668.775411 202.016472 
L 668.876906 212.626989 
L 669.384626 208.647947 
L 669.486182 187.427036 
L 669.486182 195.38527 
L 669.587677 191.40598 
L 669.790789 172.837353 
L 670.095397 187.427036 
L 670.095397 196.711288 
L 672.126154 184.774481 
L 672.22771 182.122 
L 672.532317 195.38527 
L 672.938481 175.490377 
L 673.243088 184.774481 
L 673.4462 174.164211 
L 673.750808 190.079863 
L 673.852364 212.626989 
L 674.258527 180.795537 
L 674.461579 191.40598 
L 674.563135 184.774481 
L 675.476957 183.448117 
L 675.578513 202.016472 
L 675.781565 192.732542 
L 675.883121 207.322003 
L 675.984677 186.100993 
L 677.304663 183.448117 
L 677.406219 182.122 
L 677.60927 176.816445 
L 677.710826 188.753721 
L 677.812382 175.490377 
L 678.11699 190.079863 
L 678.624709 199.364115 
L 678.624709 182.122 
L 678.929317 196.711288 
L 679.132368 183.448117 
L 679.640088 190.079863 
L 680.757022 192.732542 
L 680.757022 196.711288 
L 681.264681 172.837353 
L 681.467793 187.427036 
L 682.990891 198.037578 
L 683.49855 163.553101 
L 684.717041 167.532292 
L 684.717041 188.753721 
L 684.818597 188.753721 
L 685.529368 174.164211 
L 685.833976 178.143056 
L 686.646303 166.205854 
L 686.95091 183.448117 
L 686.95091 179.469395 
L 687.153962 171.511112 
L 687.153962 183.448117 
L 687.458569 171.511112 
L 687.966289 196.711288 
L 688.067845 188.753721 
L 689.184779 170.184946 
L 689.387831 174.164211 
L 689.489387 170.184946 
L 689.590943 159.574305 
L 690.301714 182.122 
L 690.707817 164.879687 
L 691.926307 182.122 
L 692.535522 184.774481 
L 692.941686 180.795537 
L 693.754013 164.879687 
L 694.972503 164.879687 
L 695.175555 179.469395 
L 695.683274 159.574305 
L 696.089438 175.490377 
L 696.292489 150.290424 
L 696.901704 152.943053 
L 696.901704 150.290424 
L 697.307868 170.184946 
L 697.612536 176.816445 
L 697.815587 152.943053 
L 697.917143 167.532292 
L 698.120195 146.311406 
L 698.323307 178.143056 
L 698.424802 162.226934 
L 698.627914 171.511112 
L 698.932522 178.143056 
L 699.643293 172.837353 
L 700.049456 166.205854 
L 700.354064 182.122 
L 700.963279 174.164211 
L 702.486377 159.574305 
L 702.994096 159.574305 
L 703.095652 194.059004 
L 703.095652 156.921552 
L 703.907919 138.353444 
L 705.024853 147.637572 
L 705.024853 168.858853 
L 705.227965 156.921552 
L 705.329461 158.248015 
L 705.634129 146.311406 
L 705.938736 158.248015 
L 706.040232 150.290424 
L 706.751003 151.616368 
L 706.751003 167.532292 
L 707.157166 131.721821 
L 707.360278 158.248015 
L 707.461834 143.658357 
L 708.680264 162.226934 
L 708.984872 162.226934 
L 710.304918 125.090372 
L 710.50797 127.743075 
L 711.015689 147.637572 
L 711.117245 137.026907 
L 711.117245 155.595682 
L 712.437231 119.784644 
L 712.538787 151.616368 
L 713.554166 135.700839 
L 713.757217 135.700839 
L 713.960329 125.090372 
L 714.264937 141.005876 
L 714.975708 163.553101 
L 715.077264 148.963961 
L 715.280315 143.658357 
L 715.483427 133.048259 
L 715.88953 127.743075 
L 716.295694 164.879687 
L 716.498806 151.616368 
L 716.600301 122.437471 
L 716.904969 150.290424 
L 717.61574 151.616368 
L 717.717236 130.395383 
L 717.818792 151.616368 
L 718.021904 127.743075 
L 718.428007 151.616368 
L 718.732675 133.048259 
L 718.732675 134.374599 
L 719.646497 142.332264 
L 720.357268 122.437471 
L 720.763432 163.553101 
L 720.763432 154.269047 
L 720.864988 139.679759 
L 721.372647 129.068871 
L 721.474203 139.679759 
L 721.981923 114.479583 
L 722.28653 150.290424 
L 722.388086 143.658357 
L 722.794189 125.090372 
L 723.200353 139.679759 
L 723.911124 141.005876 
L 725.434222 150.290424 
L 725.637334 133.048259 
L 725.637334 151.616368 
L 726.144993 125.090372 
L 726.348105 138.353444 
L 726.551156 141.005876 
L 727.058876 141.005876 
L 727.058876 126.416686 
L 727.160432 152.943053 
L 727.363483 121.110934 
L 727.668091 130.395383 
L 727.769647 115.806046 
L 728.17581 152.943053 
L 728.277306 148.963961 
L 728.785025 141.005876 
L 728.886581 121.110934 
L 729.089633 123.764181 
L 729.089633 138.353444 
L 729.191189 125.090372 
L 729.597352 127.743075 
L 729.800404 133.048259 
L 731.221946 105.195183 
L 731.323502 121.110934 
L 732.237385 135.700839 
L 732.745044 121.110934 
L 734.471193 126.416686 
L 734.572749 139.679759 
L 734.775861 135.700839 
L 735.486632 125.090372 
L 736.502011 118.458601 
L 737.720501 133.048259 
L 737.923553 103.869263 
L 738.025109 113.15354 
L 738.837436 122.437471 
L 739.040487 103.869263 
L 739.446651 134.374599 
L 739.548207 117.132138 
L 739.95431 103.869263 
L 740.157422 115.806046 
L 740.258978 113.15354 
L 740.665081 146.311406 
L 740.665081 135.700839 
L 740.969749 117.132138 
L 741.578964 114.479583 
L 741.985127 89.28 
L 741.985127 117.132138 
L 742.188179 115.806046 
L 743.305113 118.458601 
L 743.609721 123.764181 
L 743.914389 102.542504 
L 744.828211 111.827176 
L 744.828211 110.500589 
L 745.132819 134.374599 
L 746.046702 110.500589 
L 747.06208 98.56361 
L 747.163636 103.869263 
L 747.163636 101.216486 
" clip-path="url(#pd6a7c02c15)" style="fill: none; stroke: #1f77b4; stroke-width: 2; stroke-linecap: square"/>
   </g>
   <g id="line2d_28">
    <path d="M 138.436364 492.243766 
L 228.400056 491.131224 
L 243.224782 490.642528 
L 243.224782 490.642528 
L 254.901771 490.03931 
L 265.461856 489.26212 
L 265.461856 489.26212 
L 273.077286 488.535313 
L 282.621962 487.404802 
L 282.621962 487.404802 
L 291.658948 486.100924 
L 300.797476 484.55477 
L 309.936004 482.787771 
L 319.582221 480.68594 
L 328.517666 478.512257 
L 328.517666 478.512257 
L 337.14849 476.184005 
L 344.86546 473.887489 
L 352.887053 471.25763 
L 359.994794 468.697794 
L 367.001008 465.944732 
L 373.601059 463.129321 
L 380.607244 459.895303 
L 387.308851 456.560491 
L 394.416591 452.76673 
L 401.625857 448.656067 
L 409.241287 444.043025 
L 417.161354 438.976965 
L 426.0968 432.977304 
L 426.0968 432.977304 
L 436.047624 426.011064 
L 448.536956 416.969152 
L 467.626308 402.829086 
L 534.946774 352.570155 
L 547.233024 342.986472 
L 557.793093 334.463788 
L 557.793093 334.463788 
L 567.134703 326.64915 
L 576.171674 318.803594 
L 584.802513 311.020169 
L 584.802513 311.020169 
L 592.621024 303.705885 
L 601.658026 294.925854 
L 609.679619 286.834067 
L 609.679619 286.834067 
L 618.208871 277.924991 
L 627.042791 268.375882 
L 636.993646 257.254326 
L 646.94444 245.789351 
L 658.418393 232.222117 
L 673.243088 214.318042 
L 708.984872 171.078708 
L 720.357268 157.806026 
L 729.800404 147.118949 
L 739.243539 136.798735 
L 747.163636 128.461855 
L 747.163636 128.461855 
" clip-path="url(#pd6a7c02c15)" style="fill: none; stroke: #ff7f0e; stroke-width: 2; stroke-linecap: square"/>
   </g>
   <g id="patch_3">
    <path d="M 108 512.64 
L 108 69.12 
" style="fill: none; stroke: #000000; stroke-width: 0.8; stroke-linejoin: miter; stroke-linecap: square"/>
   </g>
   <g id="patch_4">
    <path d="M 777.6 512.64 
L 777.6 69.12 
" style="fill: none; stroke: #000000; stroke-width: 0.8; stroke-linejoin: miter; stroke-linecap: square"/>
   </g>
   <g id="patch_5">
    <path d="M 108 512.64 
L 777.6 512.64 
" style="fill: none; stroke: #000000; stroke-width: 0.8; stroke-linejoin: miter; stroke-linecap: square"/>
   </g>
   <g id="patch_6">
    <path d="M 108 69.12 
L 777.6 69.12 
" style="fill: none; stroke: #000000; stroke-width: 0.8; stroke-linejoin: miter; stroke-linecap: square"/>
   </g>
   <g id="text_16">
    <!-- Price by Volatility. Moneyness=1.1 -->
    <g transform="translate(271.317187 63.12) scale(0.2 -0.2)">
     <defs>
      <path id="DejaVuSans-62" d="M 3116 1747 
Q 3116 2381 2855 2742 
Q 2594 3103 2138 3103 
Q 1681 3103 1420 2742 
Q 1159 2381 1159 1747 
Q 1159 1113 1420 752 
Q 1681 391 2138 391 
Q 2594 391 2855 752 
Q 3116 1113 3116 1747 
z
M 1159 2969 
Q 1341 3281 1617 3432 
Q 1894 3584 2278 3584 
Q 2916 3584 3314 3078 
Q 3713 2572 3713 1747 
Q 3713 922 3314 415 
Q 2916 -91 2278 -91 
Q 1894 -91 1617 61 
Q 1341 213 1159 525 
L 1159 0 
L 581 0 
L 581 4863 
L 1159 4863 
L 1159 2969 
z
" transform="scale(0.015625)"/>
      <path id="DejaVuSans-4d" d="M 628 4666 
L 1569 4666 
L 2759 1491 
L 3956 4666 
L 4897 4666 
L 4897 0 
L 4281 0 
L 4281 4097 
L 3078 897 
L 2444 897 
L 1241 4097 
L 1241 0 
L 628 0 
L 628 4666 
z
" transform="scale(0.015625)"/>
      <path id="DejaVuSans-6e" d="M 3513 2113 
L 3513 0 
L 2938 0 
L 2938 2094 
Q 2938 2591 2744 2837 
Q 2550 3084 2163 3084 
Q 1697 3084 1428 2787 
Q 1159 2491 1159 1978 
L 1159 0 
L 581 0 
L 581 3500 
L 1159 3500 
L 1159 2956 
Q 1366 3272 1645 3428 
Q 1925 3584 2291 3584 
Q 2894 3584 3203 3211 
Q 3513 2838 3513 2113 
z
" transform="scale(0.015625)"/>
      <path id="DejaVuSans-3d" d="M 678 2906 
L 4684 2906 
L 4684 2381 
L 678 2381 
L 678 2906 
z
M 678 1631 
L 4684 1631 
L 4684 1100 
L 678 1100 
L 678 1631 
z
" transform="scale(0.015625)"/>
     </defs>
     <use xlink:href="#DejaVuSans-50"/>
     <use xlink:href="#DejaVuSans-72" x="58.552734"/>
     <use xlink:href="#DejaVuSans-69" x="99.666016"/>
     <use xlink:href="#DejaVuSans-63" x="127.449219"/>
     <use xlink:href="#DejaVuSans-65" x="182.429688"/>
     <use xlink:href="#DejaVuSans-20" x="243.953125"/>
     <use xlink:href="#DejaVuSans-62" x="275.740234"/>
     <use xlink:href="#DejaVuSans-79" x="339.216797"/>
     <use xlink:href="#DejaVuSans-20" x="398.396484"/>
     <use xlink:href="#DejaVuSans-56" x="430.183594"/>
     <use xlink:href="#DejaVuSans-6f" x="490.841797"/>
     <use xlink:href="#DejaVuSans-6c" x="552.023438"/>
     <use xlink:href="#DejaVuSans-61" x="579.806641"/>
     <use xlink:href="#DejaVuSans-74" x="641.085938"/>
     <use xlink:href="#DejaVuSans-69" x="680.294922"/>
     <use xlink:href="#DejaVuSans-6c" x="708.078125"/>
     <use xlink:href="#DejaVuSans-69" x="735.861328"/>
     <use xlink:href="#DejaVuSans-74" x="763.644531"/>
     <use xlink:href="#DejaVuSans-79" x="802.853516"/>
     <use xlink:href="#DejaVuSans-2e" x="847.783203"/>
     <use xlink:href="#DejaVuSans-20" x="879.570312"/>
     <use xlink:href="#DejaVuSans-4d" x="911.357422"/>
     <use xlink:href="#DejaVuSans-6f" x="997.636719"/>
     <use xlink:href="#DejaVuSans-6e" x="1058.818359"/>
     <use xlink:href="#DejaVuSans-65" x="1122.197266"/>
     <use xlink:href="#DejaVuSans-79" x="1183.720703"/>
     <use xlink:href="#DejaVuSans-6e" x="1242.900391"/>
     <use xlink:href="#DejaVuSans-65" x="1306.279297"/>
     <use xlink:href="#DejaVuSans-73" x="1367.802734"/>
     <use xlink:href="#DejaVuSans-73" x="1419.902344"/>
     <use xlink:href="#DejaVuSans-3d" x="1472.001953"/>
     <use xlink:href="#DejaVuSans-31" x="1555.791016"/>
     <use xlink:href="#DejaVuSans-2e" x="1619.414062"/>
     <use xlink:href="#DejaVuSans-31" x="1651.201172"/>
    </g>
   </g>
   <g id="legend_1">
    <g id="patch_7">
     <path d="M 120.6 136.36125 
L 287.018437 136.36125 
Q 290.618437 136.36125 290.618437 132.76125 
L 290.618437 81.72 
Q 290.618437 78.12 287.018437 78.12 
L 120.6 78.12 
Q 117 78.12 117 81.72 
L 117 132.76125 
Q 117 136.36125 120.6 136.36125 
z
" style="fill: #ffffff; opacity: 0.8; stroke: #cccccc; stroke-linejoin: miter"/>
    </g>
    <g id="line2d_29">
     <path d="M 124.2 92.697188 
L 142.2 92.697188 
L 160.2 92.697188 
" style="fill: none; stroke: #1f77b4; stroke-width: 2; stroke-linecap: square"/>
    </g>
    <g id="text_17">
     <!-- Monte Carlo -->
     <g transform="translate(174.6 98.997188) scale(0.18 -0.18)">
      <defs>
       <path id="DejaVuSans-43" d="M 4122 4306 
L 4122 3641 
Q 3803 3938 3442 4084 
Q 3081 4231 2675 4231 
Q 1875 4231 1450 3742 
Q 1025 3253 1025 2328 
Q 1025 1406 1450 917 
Q 1875 428 2675 428 
Q 3081 428 3442 575 
Q 3803 722 4122 1019 
L 4122 359 
Q 3791 134 3420 21 
Q 3050 -91 2638 -91 
Q 1578 -91 968 557 
Q 359 1206 359 2328 
Q 359 3453 968 4101 
Q 1578 4750 2638 4750 
Q 3056 4750 3426 4639 
Q 3797 4528 4122 4306 
z
" transform="scale(0.015625)"/>
      </defs>
      <use xlink:href="#DejaVuSans-4d"/>
      <use xlink:href="#DejaVuSans-6f" x="86.279297"/>
      <use xlink:href="#DejaVuSans-6e" x="147.460938"/>
      <use xlink:href="#DejaVuSans-74" x="210.839844"/>
      <use xlink:href="#DejaVuSans-65" x="250.048828"/>
      <use xlink:href="#DejaVuSans-20" x="311.572266"/>
      <use xlink:href="#DejaVuSans-43" x="343.359375"/>
      <use xlink:href="#DejaVuSans-61" x="413.183594"/>
      <use xlink:href="#DejaVuSans-72" x="474.462891"/>
      <use xlink:href="#DejaVuSans-6c" x="515.576172"/>
      <use xlink:href="#DejaVuSans-6f" x="543.359375"/>
     </g>
    </g>
    <g id="line2d_30">
     <path d="M 124.2 119.117813 
L 142.2 119.117813 
L 160.2 119.117813 
" style="fill: none; stroke: #ff7f0e; stroke-width: 2; stroke-linecap: square"/>
    </g>
    <g id="text_18">
     <!-- Positive net -->
     <g transform="translate(174.6 125.417813) scale(0.18 -0.18)">
      <defs>
       <path id="DejaVuSans-76" d="M 191 3500 
L 800 3500 
L 1894 563 
L 2988 3500 
L 3597 3500 
L 2284 0 
L 1503 0 
L 191 3500 
z
" transform="scale(0.015625)"/>
      </defs>
      <use xlink:href="#DejaVuSans-50"/>
      <use xlink:href="#DejaVuSans-6f" x="56.677734"/>
      <use xlink:href="#DejaVuSans-73" x="117.859375"/>
      <use xlink:href="#DejaVuSans-69" x="169.958984"/>
      <use xlink:href="#DejaVuSans-74" x="197.742188"/>
      <use xlink:href="#DejaVuSans-69" x="236.951172"/>
      <use xlink:href="#DejaVuSans-76" x="264.734375"/>
      <use xlink:href="#DejaVuSans-65" x="323.914062"/>
      <use xlink:href="#DejaVuSans-20" x="385.4375"/>
      <use xlink:href="#DejaVuSans-6e" x="417.224609"/>
      <use xlink:href="#DejaVuSans-65" x="480.603516"/>
      <use xlink:href="#DejaVuSans-74" x="542.126953"/>
     </g>
    </g>
   </g>
  </g>
 </g>
 <defs>
  <clipPath id="pd6a7c02c15">
   <rect x="108" y="69.12" width="669.6" height="443.52"/>
  </clipPath>
 </defs>
</svg>
