<?xml version="1.0" encoding="utf-8" standalone="no"?>
<!DOCTYPE svg PUBLIC "-//W3C//DTD SVG 1.1//EN"
  "http://www.w3.org/Graphics/SVG/1.1/DTD/svg11.dtd">
<svg xmlns:xlink="http://www.w3.org/1999/xlink" width="864pt" height="576pt" viewBox="0 0 864 576" xmlns="http://www.w3.org/2000/svg" version="1.1">
 <metadata>
  <rdf:RDF xmlns:dc="http://purl.org/dc/elements/1.1/" xmlns:cc="http://creativecommons.org/ns#" xmlns:rdf="http://www.w3.org/1999/02/22-rdf-syntax-ns#">
   <cc:Work>
    <dc:type rdf:resource="http://purl.org/dc/dcmitype/StillImage"/>
    <dc:date>2024-03-10T20:05:31.281154</dc:date>
    <dc:format>image/svg+xml</dc:format>
    <dc:creator>
     <cc:Agent>
      <dc:title>Matplotlib v3.7.3, https://matplotlib.org/</dc:title>
     </cc:Agent>
    </dc:creator>
   </cc:Work>
  </rdf:RDF>
 </metadata>
 <defs>
  <style type="text/css">*{stroke-linejoin: round; stroke-linecap: butt}</style>
 </defs>
 <g id="figure_1">
  <g id="patch_1">
   <path d="M 0 576 
L 864 576 
L 864 0 
L 0 0 
z
" style="fill: #ffffff"/>
  </g>
  <g id="axes_1">
   <g id="patch_2">
    <path d="M 108 512.64 
L 777.6 512.64 
L 777.6 69.12 
L 108 69.12 
z
" style="fill: #ffffff"/>
   </g>
   <g id="matplotlib.axis_1">
    <g id="xtick_1">
     <g id="line2d_1">
      <path d="M 138.436364 512.64 
L 138.436364 69.12 
" clip-path="url(#p555f664e88)" style="fill: none; stroke: #b0b0b0; stroke-width: 0.8; stroke-linecap: square"/>
     </g>
     <g id="line2d_2">
      <defs>
       <path id="m1d76c5fb4a" d="M 0 0 
L 0 3.5 
" style="stroke: #000000; stroke-width: 0.8"/>
      </defs>
      <g>
       <use xlink:href="#m1d76c5fb4a" x="138.436364" y="512.64" style="stroke: #000000; stroke-width: 0.8"/>
      </g>
     </g>
     <g id="text_1">
      <!-- 0.00 -->
      <g transform="translate(127.303551 527.238438) scale(0.1 -0.1)">
       <defs>
        <path id="DejaVuSans-30" d="M 2034 4250 
Q 1547 4250 1301 3770 
Q 1056 3291 1056 2328 
Q 1056 1369 1301 889 
Q 1547 409 2034 409 
Q 2525 409 2770 889 
Q 3016 1369 3016 2328 
Q 3016 3291 2770 3770 
Q 2525 4250 2034 4250 
z
M 2034 4750 
Q 2819 4750 3233 4129 
Q 3647 3509 3647 2328 
Q 3647 1150 3233 529 
Q 2819 -91 2034 -91 
Q 1250 -91 836 529 
Q 422 1150 422 2328 
Q 422 3509 836 4129 
Q 1250 4750 2034 4750 
z
" transform="scale(0.015625)"/>
        <path id="DejaVuSans-2e" d="M 684 794 
L 1344 794 
L 1344 0 
L 684 0 
L 684 794 
z
" transform="scale(0.015625)"/>
       </defs>
       <use xlink:href="#DejaVuSans-30"/>
       <use xlink:href="#DejaVuSans-2e" x="63.623047"/>
       <use xlink:href="#DejaVuSans-30" x="95.410156"/>
       <use xlink:href="#DejaVuSans-30" x="159.033203"/>
      </g>
     </g>
    </g>
    <g id="xtick_2">
     <g id="line2d_3">
      <path d="M 219.599997 512.64 
L 219.599997 69.12 
" clip-path="url(#p555f664e88)" style="fill: none; stroke: #b0b0b0; stroke-width: 0.8; stroke-linecap: square"/>
     </g>
     <g id="line2d_4">
      <g>
       <use xlink:href="#m1d76c5fb4a" x="219.599997" y="512.64" style="stroke: #000000; stroke-width: 0.8"/>
      </g>
     </g>
     <g id="text_2">
      <!-- 0.02 -->
      <g transform="translate(208.467184 527.238438) scale(0.1 -0.1)">
       <defs>
        <path id="DejaVuSans-32" d="M 1228 531 
L 3431 531 
L 3431 0 
L 469 0 
L 469 531 
Q 828 903 1448 1529 
Q 2069 2156 2228 2338 
Q 2531 2678 2651 2914 
Q 2772 3150 2772 3378 
Q 2772 3750 2511 3984 
Q 2250 4219 1831 4219 
Q 1534 4219 1204 4116 
Q 875 4013 500 3803 
L 500 4441 
Q 881 4594 1212 4672 
Q 1544 4750 1819 4750 
Q 2544 4750 2975 4387 
Q 3406 4025 3406 3419 
Q 3406 3131 3298 2873 
Q 3191 2616 2906 2266 
Q 2828 2175 2409 1742 
Q 1991 1309 1228 531 
z
" transform="scale(0.015625)"/>
       </defs>
       <use xlink:href="#DejaVuSans-30"/>
       <use xlink:href="#DejaVuSans-2e" x="63.623047"/>
       <use xlink:href="#DejaVuSans-30" x="95.410156"/>
       <use xlink:href="#DejaVuSans-32" x="159.033203"/>
      </g>
     </g>
    </g>
    <g id="xtick_3">
     <g id="line2d_5">
      <path d="M 300.76363 512.64 
L 300.76363 69.12 
" clip-path="url(#p555f664e88)" style="fill: none; stroke: #b0b0b0; stroke-width: 0.8; stroke-linecap: square"/>
     </g>
     <g id="line2d_6">
      <g>
       <use xlink:href="#m1d76c5fb4a" x="300.76363" y="512.64" style="stroke: #000000; stroke-width: 0.8"/>
      </g>
     </g>
     <g id="text_3">
      <!-- 0.04 -->
      <g transform="translate(289.630817 527.238438) scale(0.1 -0.1)">
       <defs>
        <path id="DejaVuSans-34" d="M 2419 4116 
L 825 1625 
L 2419 1625 
L 2419 4116 
z
M 2253 4666 
L 3047 4666 
L 3047 1625 
L 3713 1625 
L 3713 1100 
L 3047 1100 
L 3047 0 
L 2419 0 
L 2419 1100 
L 313 1100 
L 313 1709 
L 2253 4666 
z
" transform="scale(0.015625)"/>
       </defs>
       <use xlink:href="#DejaVuSans-30"/>
       <use xlink:href="#DejaVuSans-2e" x="63.623047"/>
       <use xlink:href="#DejaVuSans-30" x="95.410156"/>
       <use xlink:href="#DejaVuSans-34" x="159.033203"/>
      </g>
     </g>
    </g>
    <g id="xtick_4">
     <g id="line2d_7">
      <path d="M 381.927263 512.64 
L 381.927263 69.12 
" clip-path="url(#p555f664e88)" style="fill: none; stroke: #b0b0b0; stroke-width: 0.8; stroke-linecap: square"/>
     </g>
     <g id="line2d_8">
      <g>
       <use xlink:href="#m1d76c5fb4a" x="381.927263" y="512.64" style="stroke: #000000; stroke-width: 0.8"/>
      </g>
     </g>
     <g id="text_4">
      <!-- 0.06 -->
      <g transform="translate(370.794451 527.238438) scale(0.1 -0.1)">
       <defs>
        <path id="DejaVuSans-36" d="M 2113 2584 
Q 1688 2584 1439 2293 
Q 1191 2003 1191 1497 
Q 1191 994 1439 701 
Q 1688 409 2113 409 
Q 2538 409 2786 701 
Q 3034 994 3034 1497 
Q 3034 2003 2786 2293 
Q 2538 2584 2113 2584 
z
M 3366 4563 
L 3366 3988 
Q 3128 4100 2886 4159 
Q 2644 4219 2406 4219 
Q 1781 4219 1451 3797 
Q 1122 3375 1075 2522 
Q 1259 2794 1537 2939 
Q 1816 3084 2150 3084 
Q 2853 3084 3261 2657 
Q 3669 2231 3669 1497 
Q 3669 778 3244 343 
Q 2819 -91 2113 -91 
Q 1303 -91 875 529 
Q 447 1150 447 2328 
Q 447 3434 972 4092 
Q 1497 4750 2381 4750 
Q 2619 4750 2861 4703 
Q 3103 4656 3366 4563 
z
" transform="scale(0.015625)"/>
       </defs>
       <use xlink:href="#DejaVuSans-30"/>
       <use xlink:href="#DejaVuSans-2e" x="63.623047"/>
       <use xlink:href="#DejaVuSans-30" x="95.410156"/>
       <use xlink:href="#DejaVuSans-36" x="159.033203"/>
      </g>
     </g>
    </g>
    <g id="xtick_5">
     <g id="line2d_9">
      <path d="M 463.090896 512.64 
L 463.090896 69.12 
" clip-path="url(#p555f664e88)" style="fill: none; stroke: #b0b0b0; stroke-width: 0.8; stroke-linecap: square"/>
     </g>
     <g id="line2d_10">
      <g>
       <use xlink:href="#m1d76c5fb4a" x="463.090896" y="512.64" style="stroke: #000000; stroke-width: 0.8"/>
      </g>
     </g>
     <g id="text_5">
      <!-- 0.08 -->
      <g transform="translate(451.958084 527.238438) scale(0.1 -0.1)">
       <defs>
        <path id="DejaVuSans-38" d="M 2034 2216 
Q 1584 2216 1326 1975 
Q 1069 1734 1069 1313 
Q 1069 891 1326 650 
Q 1584 409 2034 409 
Q 2484 409 2743 651 
Q 3003 894 3003 1313 
Q 3003 1734 2745 1975 
Q 2488 2216 2034 2216 
z
M 1403 2484 
Q 997 2584 770 2862 
Q 544 3141 544 3541 
Q 544 4100 942 4425 
Q 1341 4750 2034 4750 
Q 2731 4750 3128 4425 
Q 3525 4100 3525 3541 
Q 3525 3141 3298 2862 
Q 3072 2584 2669 2484 
Q 3125 2378 3379 2068 
Q 3634 1759 3634 1313 
Q 3634 634 3220 271 
Q 2806 -91 2034 -91 
Q 1263 -91 848 271 
Q 434 634 434 1313 
Q 434 1759 690 2068 
Q 947 2378 1403 2484 
z
M 1172 3481 
Q 1172 3119 1398 2916 
Q 1625 2713 2034 2713 
Q 2441 2713 2670 2916 
Q 2900 3119 2900 3481 
Q 2900 3844 2670 4047 
Q 2441 4250 2034 4250 
Q 1625 4250 1398 4047 
Q 1172 3844 1172 3481 
z
" transform="scale(0.015625)"/>
       </defs>
       <use xlink:href="#DejaVuSans-30"/>
       <use xlink:href="#DejaVuSans-2e" x="63.623047"/>
       <use xlink:href="#DejaVuSans-30" x="95.410156"/>
       <use xlink:href="#DejaVuSans-38" x="159.033203"/>
      </g>
     </g>
    </g>
    <g id="xtick_6">
     <g id="line2d_11">
      <path d="M 544.254529 512.64 
L 544.254529 69.12 
" clip-path="url(#p555f664e88)" style="fill: none; stroke: #b0b0b0; stroke-width: 0.8; stroke-linecap: square"/>
     </g>
     <g id="line2d_12">
      <g>
       <use xlink:href="#m1d76c5fb4a" x="544.254529" y="512.64" style="stroke: #000000; stroke-width: 0.8"/>
      </g>
     </g>
     <g id="text_6">
      <!-- 0.10 -->
      <g transform="translate(533.121717 527.238438) scale(0.1 -0.1)">
       <defs>
        <path id="DejaVuSans-31" d="M 794 531 
L 1825 531 
L 1825 4091 
L 703 3866 
L 703 4441 
L 1819 4666 
L 2450 4666 
L 2450 531 
L 3481 531 
L 3481 0 
L 794 0 
L 794 531 
z
" transform="scale(0.015625)"/>
       </defs>
       <use xlink:href="#DejaVuSans-30"/>
       <use xlink:href="#DejaVuSans-2e" x="63.623047"/>
       <use xlink:href="#DejaVuSans-31" x="95.410156"/>
       <use xlink:href="#DejaVuSans-30" x="159.033203"/>
      </g>
     </g>
    </g>
    <g id="xtick_7">
     <g id="line2d_13">
      <path d="M 625.418162 512.64 
L 625.418162 69.12 
" clip-path="url(#p555f664e88)" style="fill: none; stroke: #b0b0b0; stroke-width: 0.8; stroke-linecap: square"/>
     </g>
     <g id="line2d_14">
      <g>
       <use xlink:href="#m1d76c5fb4a" x="625.418162" y="512.64" style="stroke: #000000; stroke-width: 0.8"/>
      </g>
     </g>
     <g id="text_7">
      <!-- 0.12 -->
      <g transform="translate(614.28535 527.238438) scale(0.1 -0.1)">
       <use xlink:href="#DejaVuSans-30"/>
       <use xlink:href="#DejaVuSans-2e" x="63.623047"/>
       <use xlink:href="#DejaVuSans-31" x="95.410156"/>
       <use xlink:href="#DejaVuSans-32" x="159.033203"/>
      </g>
     </g>
    </g>
    <g id="xtick_8">
     <g id="line2d_15">
      <path d="M 706.581796 512.64 
L 706.581796 69.12 
" clip-path="url(#p555f664e88)" style="fill: none; stroke: #b0b0b0; stroke-width: 0.8; stroke-linecap: square"/>
     </g>
     <g id="line2d_16">
      <g>
       <use xlink:href="#m1d76c5fb4a" x="706.581796" y="512.64" style="stroke: #000000; stroke-width: 0.8"/>
      </g>
     </g>
     <g id="text_8">
      <!-- 0.14 -->
      <g transform="translate(695.448983 527.238438) scale(0.1 -0.1)">
       <use xlink:href="#DejaVuSans-30"/>
       <use xlink:href="#DejaVuSans-2e" x="63.623047"/>
       <use xlink:href="#DejaVuSans-31" x="95.410156"/>
       <use xlink:href="#DejaVuSans-34" x="159.033203"/>
      </g>
     </g>
    </g>
    <g id="text_9">
     <!-- Risk-free rate -->
     <g transform="translate(382.01625 546.995312) scale(0.18 -0.18)">
      <defs>
       <path id="DejaVuSans-52" d="M 2841 2188 
Q 3044 2119 3236 1894 
Q 3428 1669 3622 1275 
L 4263 0 
L 3584 0 
L 2988 1197 
Q 2756 1666 2539 1819 
Q 2322 1972 1947 1972 
L 1259 1972 
L 1259 0 
L 628 0 
L 628 4666 
L 2053 4666 
Q 2853 4666 3247 4331 
Q 3641 3997 3641 3322 
Q 3641 2881 3436 2590 
Q 3231 2300 2841 2188 
z
M 1259 4147 
L 1259 2491 
L 2053 2491 
Q 2509 2491 2742 2702 
Q 2975 2913 2975 3322 
Q 2975 3731 2742 3939 
Q 2509 4147 2053 4147 
L 1259 4147 
z
" transform="scale(0.015625)"/>
       <path id="DejaVuSans-69" d="M 603 3500 
L 1178 3500 
L 1178 0 
L 603 0 
L 603 3500 
z
M 603 4863 
L 1178 4863 
L 1178 4134 
L 603 4134 
L 603 4863 
z
" transform="scale(0.015625)"/>
       <path id="DejaVuSans-73" d="M 2834 3397 
L 2834 2853 
Q 2591 2978 2328 3040 
Q 2066 3103 1784 3103 
Q 1356 3103 1142 2972 
Q 928 2841 928 2578 
Q 928 2378 1081 2264 
Q 1234 2150 1697 2047 
L 1894 2003 
Q 2506 1872 2764 1633 
Q 3022 1394 3022 966 
Q 3022 478 2636 193 
Q 2250 -91 1575 -91 
Q 1294 -91 989 -36 
Q 684 19 347 128 
L 347 722 
Q 666 556 975 473 
Q 1284 391 1588 391 
Q 1994 391 2212 530 
Q 2431 669 2431 922 
Q 2431 1156 2273 1281 
Q 2116 1406 1581 1522 
L 1381 1569 
Q 847 1681 609 1914 
Q 372 2147 372 2553 
Q 372 3047 722 3315 
Q 1072 3584 1716 3584 
Q 2034 3584 2315 3537 
Q 2597 3491 2834 3397 
z
" transform="scale(0.015625)"/>
       <path id="DejaVuSans-6b" d="M 581 4863 
L 1159 4863 
L 1159 1991 
L 2875 3500 
L 3609 3500 
L 1753 1863 
L 3688 0 
L 2938 0 
L 1159 1709 
L 1159 0 
L 581 0 
L 581 4863 
z
" transform="scale(0.015625)"/>
       <path id="DejaVuSans-2d" d="M 313 2009 
L 1997 2009 
L 1997 1497 
L 313 1497 
L 313 2009 
z
" transform="scale(0.015625)"/>
       <path id="DejaVuSans-66" d="M 2375 4863 
L 2375 4384 
L 1825 4384 
Q 1516 4384 1395 4259 
Q 1275 4134 1275 3809 
L 1275 3500 
L 2222 3500 
L 2222 3053 
L 1275 3053 
L 1275 0 
L 697 0 
L 697 3053 
L 147 3053 
L 147 3500 
L 697 3500 
L 697 3744 
Q 697 4328 969 4595 
Q 1241 4863 1831 4863 
L 2375 4863 
z
" transform="scale(0.015625)"/>
       <path id="DejaVuSans-72" d="M 2631 2963 
Q 2534 3019 2420 3045 
Q 2306 3072 2169 3072 
Q 1681 3072 1420 2755 
Q 1159 2438 1159 1844 
L 1159 0 
L 581 0 
L 581 3500 
L 1159 3500 
L 1159 2956 
Q 1341 3275 1631 3429 
Q 1922 3584 2338 3584 
Q 2397 3584 2469 3576 
Q 2541 3569 2628 3553 
L 2631 2963 
z
" transform="scale(0.015625)"/>
       <path id="DejaVuSans-65" d="M 3597 1894 
L 3597 1613 
L 953 1613 
Q 991 1019 1311 708 
Q 1631 397 2203 397 
Q 2534 397 2845 478 
Q 3156 559 3463 722 
L 3463 178 
Q 3153 47 2828 -22 
Q 2503 -91 2169 -91 
Q 1331 -91 842 396 
Q 353 884 353 1716 
Q 353 2575 817 3079 
Q 1281 3584 2069 3584 
Q 2775 3584 3186 3129 
Q 3597 2675 3597 1894 
z
M 3022 2063 
Q 3016 2534 2758 2815 
Q 2500 3097 2075 3097 
Q 1594 3097 1305 2825 
Q 1016 2553 972 2059 
L 3022 2063 
z
" transform="scale(0.015625)"/>
       <path id="DejaVuSans-20" transform="scale(0.015625)"/>
       <path id="DejaVuSans-61" d="M 2194 1759 
Q 1497 1759 1228 1600 
Q 959 1441 959 1056 
Q 959 750 1161 570 
Q 1363 391 1709 391 
Q 2188 391 2477 730 
Q 2766 1069 2766 1631 
L 2766 1759 
L 2194 1759 
z
M 3341 1997 
L 3341 0 
L 2766 0 
L 2766 531 
Q 2569 213 2275 61 
Q 1981 -91 1556 -91 
Q 1019 -91 701 211 
Q 384 513 384 1019 
Q 384 1609 779 1909 
Q 1175 2209 1959 2209 
L 2766 2209 
L 2766 2266 
Q 2766 2663 2505 2880 
Q 2244 3097 1772 3097 
Q 1472 3097 1187 3025 
Q 903 2953 641 2809 
L 641 3341 
Q 956 3463 1253 3523 
Q 1550 3584 1831 3584 
Q 2591 3584 2966 3190 
Q 3341 2797 3341 1997 
z
" transform="scale(0.015625)"/>
       <path id="DejaVuSans-74" d="M 1172 4494 
L 1172 3500 
L 2356 3500 
L 2356 3053 
L 1172 3053 
L 1172 1153 
Q 1172 725 1289 603 
Q 1406 481 1766 481 
L 2356 481 
L 2356 0 
L 1766 0 
Q 1100 0 847 248 
Q 594 497 594 1153 
L 594 3053 
L 172 3053 
L 172 3500 
L 594 3500 
L 594 4494 
L 1172 4494 
z
" transform="scale(0.015625)"/>
      </defs>
      <use xlink:href="#DejaVuSans-52"/>
      <use xlink:href="#DejaVuSans-69" x="69.482422"/>
      <use xlink:href="#DejaVuSans-73" x="97.265625"/>
      <use xlink:href="#DejaVuSans-6b" x="149.365234"/>
      <use xlink:href="#DejaVuSans-2d" x="207.275391"/>
      <use xlink:href="#DejaVuSans-66" x="243.359375"/>
      <use xlink:href="#DejaVuSans-72" x="278.564453"/>
      <use xlink:href="#DejaVuSans-65" x="317.427734"/>
      <use xlink:href="#DejaVuSans-65" x="378.951172"/>
      <use xlink:href="#DejaVuSans-20" x="440.474609"/>
      <use xlink:href="#DejaVuSans-72" x="472.261719"/>
      <use xlink:href="#DejaVuSans-61" x="513.375"/>
      <use xlink:href="#DejaVuSans-74" x="574.654297"/>
      <use xlink:href="#DejaVuSans-65" x="613.863281"/>
     </g>
    </g>
   </g>
   <g id="matplotlib.axis_2">
    <g id="ytick_1">
     <g id="line2d_17">
      <path d="M 108 460.715799 
L 777.6 460.715799 
" clip-path="url(#p555f664e88)" style="fill: none; stroke: #b0b0b0; stroke-width: 0.8; stroke-linecap: square"/>
     </g>
     <g id="line2d_18">
      <defs>
       <path id="maf91752af4" d="M 0 0 
L -3.5 0 
" style="stroke: #000000; stroke-width: 0.8"/>
      </defs>
      <g>
       <use xlink:href="#maf91752af4" x="108" y="460.715799" style="stroke: #000000; stroke-width: 0.8"/>
      </g>
     </g>
     <g id="text_10">
      <!-- 0.0020 -->
      <g transform="translate(66.009375 464.515018) scale(0.1 -0.1)">
       <use xlink:href="#DejaVuSans-30"/>
       <use xlink:href="#DejaVuSans-2e" x="63.623047"/>
       <use xlink:href="#DejaVuSans-30" x="95.410156"/>
       <use xlink:href="#DejaVuSans-30" x="159.033203"/>
       <use xlink:href="#DejaVuSans-32" x="222.65625"/>
       <use xlink:href="#DejaVuSans-30" x="286.279297"/>
      </g>
     </g>
    </g>
    <g id="ytick_2">
     <g id="line2d_19">
      <path d="M 108 396.675084 
L 777.6 396.675084 
" clip-path="url(#p555f664e88)" style="fill: none; stroke: #b0b0b0; stroke-width: 0.8; stroke-linecap: square"/>
     </g>
     <g id="line2d_20">
      <g>
       <use xlink:href="#maf91752af4" x="108" y="396.675084" style="stroke: #000000; stroke-width: 0.8"/>
      </g>
     </g>
     <g id="text_11">
      <!-- 0.0025 -->
      <g transform="translate(66.009375 400.474302) scale(0.1 -0.1)">
       <defs>
        <path id="DejaVuSans-35" d="M 691 4666 
L 3169 4666 
L 3169 4134 
L 1269 4134 
L 1269 2991 
Q 1406 3038 1543 3061 
Q 1681 3084 1819 3084 
Q 2600 3084 3056 2656 
Q 3513 2228 3513 1497 
Q 3513 744 3044 326 
Q 2575 -91 1722 -91 
Q 1428 -91 1123 -41 
Q 819 9 494 109 
L 494 744 
Q 775 591 1075 516 
Q 1375 441 1709 441 
Q 2250 441 2565 725 
Q 2881 1009 2881 1497 
Q 2881 1984 2565 2268 
Q 2250 2553 1709 2553 
Q 1456 2553 1204 2497 
Q 953 2441 691 2322 
L 691 4666 
z
" transform="scale(0.015625)"/>
       </defs>
       <use xlink:href="#DejaVuSans-30"/>
       <use xlink:href="#DejaVuSans-2e" x="63.623047"/>
       <use xlink:href="#DejaVuSans-30" x="95.410156"/>
       <use xlink:href="#DejaVuSans-30" x="159.033203"/>
       <use xlink:href="#DejaVuSans-32" x="222.65625"/>
       <use xlink:href="#DejaVuSans-35" x="286.279297"/>
      </g>
     </g>
    </g>
    <g id="ytick_3">
     <g id="line2d_21">
      <path d="M 108 332.634368 
L 777.6 332.634368 
" clip-path="url(#p555f664e88)" style="fill: none; stroke: #b0b0b0; stroke-width: 0.8; stroke-linecap: square"/>
     </g>
     <g id="line2d_22">
      <g>
       <use xlink:href="#maf91752af4" x="108" y="332.634368" style="stroke: #000000; stroke-width: 0.8"/>
      </g>
     </g>
     <g id="text_12">
      <!-- 0.0030 -->
      <g transform="translate(66.009375 336.433587) scale(0.1 -0.1)">
       <defs>
        <path id="DejaVuSans-33" d="M 2597 2516 
Q 3050 2419 3304 2112 
Q 3559 1806 3559 1356 
Q 3559 666 3084 287 
Q 2609 -91 1734 -91 
Q 1441 -91 1130 -33 
Q 819 25 488 141 
L 488 750 
Q 750 597 1062 519 
Q 1375 441 1716 441 
Q 2309 441 2620 675 
Q 2931 909 2931 1356 
Q 2931 1769 2642 2001 
Q 2353 2234 1838 2234 
L 1294 2234 
L 1294 2753 
L 1863 2753 
Q 2328 2753 2575 2939 
Q 2822 3125 2822 3475 
Q 2822 3834 2567 4026 
Q 2313 4219 1838 4219 
Q 1578 4219 1281 4162 
Q 984 4106 628 3988 
L 628 4550 
Q 988 4650 1302 4700 
Q 1616 4750 1894 4750 
Q 2613 4750 3031 4423 
Q 3450 4097 3450 3541 
Q 3450 3153 3228 2886 
Q 3006 2619 2597 2516 
z
" transform="scale(0.015625)"/>
       </defs>
       <use xlink:href="#DejaVuSans-30"/>
       <use xlink:href="#DejaVuSans-2e" x="63.623047"/>
       <use xlink:href="#DejaVuSans-30" x="95.410156"/>
       <use xlink:href="#DejaVuSans-30" x="159.033203"/>
       <use xlink:href="#DejaVuSans-33" x="222.65625"/>
       <use xlink:href="#DejaVuSans-30" x="286.279297"/>
      </g>
     </g>
    </g>
    <g id="ytick_4">
     <g id="line2d_23">
      <path d="M 108 268.593653 
L 777.6 268.593653 
" clip-path="url(#p555f664e88)" style="fill: none; stroke: #b0b0b0; stroke-width: 0.8; stroke-linecap: square"/>
     </g>
     <g id="line2d_24">
      <g>
       <use xlink:href="#maf91752af4" x="108" y="268.593653" style="stroke: #000000; stroke-width: 0.8"/>
      </g>
     </g>
     <g id="text_13">
      <!-- 0.0035 -->
      <g transform="translate(66.009375 272.392872) scale(0.1 -0.1)">
       <use xlink:href="#DejaVuSans-30"/>
       <use xlink:href="#DejaVuSans-2e" x="63.623047"/>
       <use xlink:href="#DejaVuSans-30" x="95.410156"/>
       <use xlink:href="#DejaVuSans-30" x="159.033203"/>
       <use xlink:href="#DejaVuSans-33" x="222.65625"/>
       <use xlink:href="#DejaVuSans-35" x="286.279297"/>
      </g>
     </g>
    </g>
    <g id="ytick_5">
     <g id="line2d_25">
      <path d="M 108 204.552937 
L 777.6 204.552937 
" clip-path="url(#p555f664e88)" style="fill: none; stroke: #b0b0b0; stroke-width: 0.8; stroke-linecap: square"/>
     </g>
     <g id="line2d_26">
      <g>
       <use xlink:href="#maf91752af4" x="108" y="204.552937" style="stroke: #000000; stroke-width: 0.8"/>
      </g>
     </g>
     <g id="text_14">
      <!-- 0.0040 -->
      <g transform="translate(66.009375 208.352156) scale(0.1 -0.1)">
       <use xlink:href="#DejaVuSans-30"/>
       <use xlink:href="#DejaVuSans-2e" x="63.623047"/>
       <use xlink:href="#DejaVuSans-30" x="95.410156"/>
       <use xlink:href="#DejaVuSans-30" x="159.033203"/>
       <use xlink:href="#DejaVuSans-34" x="222.65625"/>
       <use xlink:href="#DejaVuSans-30" x="286.279297"/>
      </g>
     </g>
    </g>
    <g id="ytick_6">
     <g id="line2d_27">
      <path d="M 108 140.512222 
L 777.6 140.512222 
" clip-path="url(#p555f664e88)" style="fill: none; stroke: #b0b0b0; stroke-width: 0.8; stroke-linecap: square"/>
     </g>
     <g id="line2d_28">
      <g>
       <use xlink:href="#maf91752af4" x="108" y="140.512222" style="stroke: #000000; stroke-width: 0.8"/>
      </g>
     </g>
     <g id="text_15">
      <!-- 0.0045 -->
      <g transform="translate(66.009375 144.311441) scale(0.1 -0.1)">
       <use xlink:href="#DejaVuSans-30"/>
       <use xlink:href="#DejaVuSans-2e" x="63.623047"/>
       <use xlink:href="#DejaVuSans-30" x="95.410156"/>
       <use xlink:href="#DejaVuSans-30" x="159.033203"/>
       <use xlink:href="#DejaVuSans-34" x="222.65625"/>
       <use xlink:href="#DejaVuSans-35" x="286.279297"/>
      </g>
     </g>
    </g>
    <g id="ytick_7">
     <g id="line2d_29">
      <path d="M 108 76.471507 
L 777.6 76.471507 
" clip-path="url(#p555f664e88)" style="fill: none; stroke: #b0b0b0; stroke-width: 0.8; stroke-linecap: square"/>
     </g>
     <g id="line2d_30">
      <g>
       <use xlink:href="#maf91752af4" x="108" y="76.471507" style="stroke: #000000; stroke-width: 0.8"/>
      </g>
     </g>
     <g id="text_16">
      <!-- 0.0050 -->
      <g transform="translate(66.009375 80.270725) scale(0.1 -0.1)">
       <use xlink:href="#DejaVuSans-30"/>
       <use xlink:href="#DejaVuSans-2e" x="63.623047"/>
       <use xlink:href="#DejaVuSans-30" x="95.410156"/>
       <use xlink:href="#DejaVuSans-30" x="159.033203"/>
       <use xlink:href="#DejaVuSans-35" x="222.65625"/>
       <use xlink:href="#DejaVuSans-30" x="286.279297"/>
      </g>
     </g>
    </g>
    <g id="text_17">
     <!-- Price/strike ratio -->
     <g transform="translate(58.265938 364.318594) rotate(-90) scale(0.18 -0.18)">
      <defs>
       <path id="DejaVuSans-50" d="M 1259 4147 
L 1259 2394 
L 2053 2394 
Q 2494 2394 2734 2622 
Q 2975 2850 2975 3272 
Q 2975 3691 2734 3919 
Q 2494 4147 2053 4147 
L 1259 4147 
z
M 628 4666 
L 2053 4666 
Q 2838 4666 3239 4311 
Q 3641 3956 3641 3272 
Q 3641 2581 3239 2228 
Q 2838 1875 2053 1875 
L 1259 1875 
L 1259 0 
L 628 0 
L 628 4666 
z
" transform="scale(0.015625)"/>
       <path id="DejaVuSans-63" d="M 3122 3366 
L 3122 2828 
Q 2878 2963 2633 3030 
Q 2388 3097 2138 3097 
Q 1578 3097 1268 2742 
Q 959 2388 959 1747 
Q 959 1106 1268 751 
Q 1578 397 2138 397 
Q 2388 397 2633 464 
Q 2878 531 3122 666 
L 3122 134 
Q 2881 22 2623 -34 
Q 2366 -91 2075 -91 
Q 1284 -91 818 406 
Q 353 903 353 1747 
Q 353 2603 823 3093 
Q 1294 3584 2113 3584 
Q 2378 3584 2631 3529 
Q 2884 3475 3122 3366 
z
" transform="scale(0.015625)"/>
       <path id="DejaVuSans-2f" d="M 1625 4666 
L 2156 4666 
L 531 -594 
L 0 -594 
L 1625 4666 
z
" transform="scale(0.015625)"/>
       <path id="DejaVuSans-6f" d="M 1959 3097 
Q 1497 3097 1228 2736 
Q 959 2375 959 1747 
Q 959 1119 1226 758 
Q 1494 397 1959 397 
Q 2419 397 2687 759 
Q 2956 1122 2956 1747 
Q 2956 2369 2687 2733 
Q 2419 3097 1959 3097 
z
M 1959 3584 
Q 2709 3584 3137 3096 
Q 3566 2609 3566 1747 
Q 3566 888 3137 398 
Q 2709 -91 1959 -91 
Q 1206 -91 779 398 
Q 353 888 353 1747 
Q 353 2609 779 3096 
Q 1206 3584 1959 3584 
z
" transform="scale(0.015625)"/>
      </defs>
      <use xlink:href="#DejaVuSans-50"/>
      <use xlink:href="#DejaVuSans-72" x="58.552734"/>
      <use xlink:href="#DejaVuSans-69" x="99.666016"/>
      <use xlink:href="#DejaVuSans-63" x="127.449219"/>
      <use xlink:href="#DejaVuSans-65" x="182.429688"/>
      <use xlink:href="#DejaVuSans-2f" x="243.953125"/>
      <use xlink:href="#DejaVuSans-73" x="277.644531"/>
      <use xlink:href="#DejaVuSans-74" x="329.744141"/>
      <use xlink:href="#DejaVuSans-72" x="368.953125"/>
      <use xlink:href="#DejaVuSans-69" x="410.066406"/>
      <use xlink:href="#DejaVuSans-6b" x="437.849609"/>
      <use xlink:href="#DejaVuSans-65" x="492.134766"/>
      <use xlink:href="#DejaVuSans-20" x="553.658203"/>
      <use xlink:href="#DejaVuSans-72" x="585.445312"/>
      <use xlink:href="#DejaVuSans-61" x="626.558594"/>
      <use xlink:href="#DejaVuSans-74" x="687.837891"/>
      <use xlink:href="#DejaVuSans-69" x="727.046875"/>
      <use xlink:href="#DejaVuSans-6f" x="754.830078"/>
     </g>
    </g>
   </g>
   <g id="line2d_31">
    <path d="M 138.436364 332.634395 
L 138.842182 332.634395 
L 139.653818 281.40188 
L 139.653818 307.017913 
L 139.653818 294.209941 
L 140.059636 345.442427 
L 140.465455 319.826124 
L 140.465455 371.058639 
L 140.465455 358.250637 
L 140.871273 332.634395 
L 140.871273 307.017913 
L 140.871273 319.826124 
L 141.277091 345.442427 
L 141.277091 345.442427 
L 141.277091 307.017913 
L 142.088727 358.250637 
L 142.900363 319.826124 
L 142.900363 319.826124 
L 145.335273 319.826124 
L 146.146909 307.017913 
L 146.552727 358.250637 
L 147.364363 307.017913 
L 147.770182 294.209941 
L 147.770182 319.826124 
L 147.770182 319.826124 
L 148.176 307.017913 
L 149.393454 345.442427 
L 149.393454 332.634395 
L 149.799272 294.209941 
L 150.610909 307.017913 
L 150.610909 319.826124 
L 150.610909 294.209941 
L 151.422545 332.634395 
L 151.422545 332.634395 
L 151.422545 345.442427 
L 151.828363 332.634395 
L 151.828363 319.826124 
L 151.828363 345.442427 
L 151.828363 319.826124 
L 152.234181 281.40188 
L 152.64 332.634395 
L 152.64 319.826124 
L 153.045817 332.634395 
L 153.451636 332.634395 
L 153.451636 319.826124 
L 153.857454 307.017913 
L 153.857454 319.826124 
L 155.074909 319.826124 
L 155.074909 332.634395 
L 155.480726 319.826124 
L 155.886545 319.826124 
L 156.292363 332.634395 
L 156.292363 319.826124 
L 157.915637 345.442427 
L 158.321454 319.826124 
L 158.727271 332.634395 
L 159.133091 307.017913 
L 159.538908 358.250637 
L 159.538908 307.017913 
L 159.944726 281.40188 
L 161.16218 319.826124 
L 161.16218 307.017913 
L 161.973817 332.634395 
L 161.973817 332.634395 
L 162.785454 319.826124 
L 163.191271 332.634395 
L 163.597091 332.634395 
L 163.597091 332.634395 
L 164.002908 319.826124 
L 164.002908 332.634395 
L 164.002908 307.017913 
L 164.408726 332.634395 
L 164.408726 345.442427 
L 164.814545 319.826124 
L 164.814545 307.017913 
L 165.220362 345.442427 
L 165.220362 307.017913 
L 165.220362 358.250637 
L 165.220362 307.017913 
L 165.62618 319.826124 
L 165.62618 332.634395 
L 166.031999 319.826124 
L 166.843636 345.442427 
L 167.249454 345.442427 
L 167.655271 307.017913 
L 167.655271 294.209941 
L 168.872725 281.40188 
L 169.278545 255.785577 
L 169.684362 332.634395 
L 169.684362 294.209941 
L 169.684362 345.442427 
L 170.09018 319.826124 
L 170.09018 358.250637 
L 170.09018 319.826124 
L 170.495997 307.017913 
L 170.495997 332.634395 
L 170.901818 345.442427 
L 171.713453 281.40188 
L 171.713453 307.017913 
L 171.713453 307.017913 
L 172.525088 332.634395 
L 172.93091 281.40188 
L 172.93091 319.826124 
L 172.93091 281.40188 
L 173.742545 345.442427 
L 173.742545 319.826124 
L 173.742545 345.442427 
L 175.365818 281.40188 
L 175.365818 319.826124 
L 175.771636 294.209941 
L 176.583271 281.40188 
L 176.989088 345.442427 
L 176.989088 307.017913 
L 176.989088 345.442427 
L 177.394909 319.826124 
L 177.394909 358.250637 
L 177.394909 319.826124 
L 178.206544 319.826124 
L 179.018179 332.634395 
L 179.423997 319.826124 
L 179.423997 345.442427 
L 179.423997 332.634395 
L 180.235636 332.634395 
L 180.235636 332.634395 
L 180.235636 358.250637 
L 180.641453 358.250637 
L 180.641453 345.442427 
L 181.453088 307.017913 
L 182.264727 307.017913 
L 182.264727 319.826124 
L 182.264727 319.826124 
L 182.670544 319.826124 
L 182.670544 319.826124 
L 183.482179 294.209941 
L 183.482179 319.826124 
L 183.482179 319.826124 
L 183.887997 319.826124 
L 183.887997 332.634395 
L 184.699635 332.634395 
L 185.105453 281.40188 
L 185.105453 294.209941 
L 185.51127 294.209941 
L 186.322909 319.826124 
L 186.322909 307.017913 
L 186.728726 307.017913 
L 187.134544 345.442427 
L 188.351996 319.826124 
L 188.757818 319.826124 
L 189.163635 294.209941 
L 189.163635 332.634395 
L 189.163635 307.017913 
L 190.381088 319.826124 
L 190.381088 307.017913 
L 190.786909 307.017913 
L 190.786909 319.826124 
L 191.192726 319.826124 
L 191.192726 307.017913 
L 191.598544 307.017913 
L 191.598544 319.826124 
L 192.004361 307.017913 
L 192.004361 281.40188 
L 192.004361 281.40188 
L 192.410179 319.826124 
L 192.410179 332.634395 
L 192.410179 307.017913 
L 192.815996 307.017913 
L 192.815996 319.826124 
L 192.815996 307.017913 
L 193.221817 319.826124 
L 193.627635 268.59352 
L 193.627635 345.442427 
L 194.033452 319.826124 
L 195.250909 307.017913 
L 195.250909 319.826124 
L 195.250909 294.209941 
L 195.656726 281.40188 
L 196.468361 281.40188 
L 196.468361 358.250637 
L 196.468361 294.209941 
L 196.874178 332.634395 
L 196.874178 332.634395 
L 197.685817 319.826124 
L 197.685817 294.209941 
L 197.685817 294.209941 
L 198.091635 294.209941 
L 198.091635 294.209941 
L 198.497452 332.634395 
L 198.497452 281.40188 
L 198.497452 307.017913 
L 198.90327 332.634395 
L 199.714908 294.209941 
L 200.526543 281.40188 
L 200.526543 319.826124 
L 200.932361 294.209941 
L 201.338178 294.209941 
L 201.338178 281.40188 
L 201.743996 319.826124 
L 201.743996 319.826124 
L 202.149813 319.826124 
L 202.149813 332.634395 
L 202.149813 281.40188 
L 202.555631 319.826124 
L 202.961456 307.017913 
L 203.367273 332.634395 
L 204.178908 281.40188 
L 205.396361 307.017913 
L 205.396361 319.826124 
L 206.613813 294.209941 
L 206.613813 319.826124 
L 206.613813 319.826124 
L 207.019631 319.826124 
L 207.019631 281.40188 
L 207.019631 281.40188 
L 207.425456 281.40188 
L 207.425456 345.442427 
L 208.237091 307.017913 
L 208.237091 332.634395 
L 208.642908 319.826124 
L 208.642908 281.40188 
L 209.454543 281.40188 
L 209.454543 319.826124 
L 209.86036 332.634395 
L 209.86036 345.442427 
L 210.266178 294.209941 
L 210.671995 294.209941 
L 211.077813 307.017913 
L 211.48363 307.017913 
L 211.48363 307.017913 
L 211.48363 319.826124 
L 211.889455 332.634395 
L 211.889455 319.826124 
L 212.295273 294.209941 
L 212.70109 281.40188 
L 214.32436 319.826124 
L 214.730178 332.634395 
L 214.730178 281.40188 
L 215.541813 294.209941 
L 215.94763 294.209941 
L 215.94763 332.634395 
L 216.353455 294.209941 
L 216.353455 255.785577 
L 216.759273 307.017913 
L 217.16509 294.209941 
L 217.976725 307.017913 
L 218.382543 319.826124 
L 218.382543 319.826124 
L 219.194177 319.826124 
L 219.194177 294.209941 
L 219.599995 345.442427 
L 220.005812 294.209941 
L 220.817455 319.826124 
L 220.817455 332.634395 
L 220.817455 281.40188 
L 221.223272 332.634395 
L 221.223272 307.017913 
L 221.62909 319.826124 
L 222.034907 281.40188 
L 222.034907 281.40188 
L 222.440725 294.209941 
L 222.440725 307.017913 
L 222.846542 319.826124 
L 222.846542 294.209941 
L 223.25236 319.826124 
L 223.25236 294.209941 
L 224.063995 307.017913 
L 224.063995 319.826124 
L 224.063995 255.785577 
L 224.469812 307.017913 
L 224.469812 307.017913 
L 225.281455 307.017913 
L 225.687272 319.826124 
L 225.687272 281.40188 
L 225.687272 294.209941 
L 226.09309 294.209941 
L 226.09309 294.209941 
L 226.498907 268.59352 
L 226.498907 332.634395 
L 227.310542 345.442427 
L 228.122177 307.017913 
L 228.527995 294.209941 
L 229.745455 307.017913 
L 230.151272 294.209941 
L 230.151272 307.017913 
L 230.151272 294.209941 
L 230.557089 294.209941 
L 230.962907 281.40188 
L 231.774542 281.40188 
L 232.180359 319.826124 
L 232.180359 281.40188 
L 232.586177 332.634395 
L 232.586177 307.017913 
L 232.586177 307.017913 
L 232.991994 319.826124 
L 232.991994 307.017913 
L 233.397812 307.017913 
L 233.803629 319.826124 
L 234.209454 319.826124 
L 234.209454 307.017913 
L 234.615272 281.40188 
L 235.021089 294.209941 
L 235.426907 294.209941 
L 235.426907 268.59352 
L 235.426907 319.826124 
L 236.238542 332.634395 
L 236.238542 294.209941 
L 236.238542 319.826124 
L 236.644359 268.59352 
L 237.050177 294.209941 
L 237.050177 268.59352 
L 237.050177 307.017913 
L 237.050177 307.017913 
L 237.861812 319.826124 
L 237.861812 281.40188 
L 238.267629 319.826124 
L 238.673454 281.40188 
L 238.673454 268.59352 
L 238.673454 307.017913 
L 239.079272 307.017913 
L 239.079272 281.40188 
L 239.079272 281.40188 
L 239.890907 268.59352 
L 239.890907 307.017913 
L 240.296724 281.40188 
L 241.108359 332.634395 
L 241.514176 281.40188 
L 241.514176 319.826124 
L 241.919994 319.826124 
L 241.919994 294.209941 
L 244.354906 294.209941 
L 244.760724 281.40188 
L 245.166541 332.634395 
L 245.572359 319.826124 
L 245.572359 268.59352 
L 245.572359 307.017913 
L 246.789811 307.017913 
L 247.195629 268.59352 
L 247.601454 294.209941 
L 247.601454 281.40188 
L 248.007271 307.017913 
L 248.818906 281.40188 
L 249.224724 307.017913 
L 250.036359 281.40188 
L 250.036359 255.785577 
L 250.036359 332.634395 
L 250.036359 319.826124 
L 250.442176 281.40188 
L 250.442176 307.017913 
L 251.253811 281.40188 
L 251.253811 332.634395 
L 251.253811 294.209941 
L 252.471271 294.209941 
L 253.282906 307.017913 
L 255.311993 294.209941 
L 255.311993 268.59352 
L 255.717811 281.40188 
L 256.123628 332.634395 
L 256.123628 307.017913 
L 256.935271 332.634395 
L 256.935271 281.40188 
L 257.746906 281.40188 
L 257.746906 294.209941 
L 258.152723 281.40188 
L 258.964358 268.59352 
L 258.964358 281.40188 
L 259.370176 294.209941 
L 259.370176 268.59352 
L 259.370176 294.209941 
L 259.775993 255.785577 
L 259.775993 319.826124 
L 259.775993 307.017913 
L 260.181811 281.40188 
L 260.587628 268.59352 
L 260.993453 307.017913 
L 260.993453 319.826124 
L 262.210906 268.59352 
L 262.616723 281.40188 
L 262.616723 319.826124 
L 262.616723 307.017913 
L 263.428358 294.209941 
L 263.834175 281.40188 
L 264.239993 332.634395 
L 265.051628 268.59352 
L 265.457453 319.826124 
L 265.457453 255.785577 
L 267.080723 281.40188 
L 267.080723 294.209941 
L 268.298183 307.017913 
L 268.703993 230.169096 
L 268.703993 332.634395 
L 268.703993 319.826124 
L 269.109818 294.209941 
L 269.109818 255.785577 
L 269.109818 319.826124 
L 269.515628 294.209941 
L 270.327263 281.40188 
L 270.327263 281.40188 
L 271.138898 294.209941 
L 271.138898 281.40188 
L 271.138898 307.017913 
L 271.544723 294.209941 
L 271.544723 268.59352 
L 271.544723 268.59352 
L 272.356358 294.209941 
L 272.762183 294.209941 
L 273.167993 281.40188 
L 273.167993 268.59352 
L 273.167993 307.017913 
L 273.573818 307.017913 
L 273.979627 294.209941 
L 275.602897 294.209941 
L 275.602897 255.785577 
L 275.602897 294.209941 
L 276.414547 294.209941 
L 277.226182 255.785577 
L 278.037817 255.785577 
L 278.443627 307.017913 
L 278.443627 332.634395 
L 278.443627 281.40188 
L 278.849452 281.40188 
L 278.849452 281.40188 
L 278.849452 319.826124 
L 279.255262 281.40188 
L 279.661087 255.785577 
L 279.661087 281.40188 
L 280.472722 268.59352 
L 280.878547 307.017913 
L 280.878547 345.442427 
L 280.878547 332.634395 
L 281.284357 294.209941 
L 282.501817 281.40188 
L 282.501817 307.017913 
L 282.501817 281.40188 
L 282.907627 281.40188 
L 282.907627 268.59352 
L 283.313452 307.017913 
L 284.125087 255.785577 
L 284.125087 281.40188 
L 284.936722 281.40188 
L 285.342547 268.59352 
L 285.748357 307.017913 
L 286.154182 268.59352 
L 286.559992 268.59352 
L 286.965817 255.785577 
L 287.371627 255.785577 
L 288.183262 281.40188 
L 288.589087 281.40188 
L 288.589087 319.826124 
L 289.806547 281.40188 
L 290.618182 307.017913 
L 290.618182 281.40188 
L 291.023992 319.826124 
L 291.429817 281.40188 
L 291.429817 294.209941 
L 292.647262 307.017913 
L 292.647262 294.209941 
L 292.647262 307.017913 
L 293.053087 281.40188 
L 293.458897 307.017913 
L 293.458897 307.017913 
L 295.082182 242.977337 
L 295.893817 294.209941 
L 297.517086 255.785577 
L 297.922896 294.209941 
L 297.922896 294.209941 
L 297.922896 268.59352 
L 298.328721 319.826124 
L 299.546181 294.209941 
L 299.951991 294.209941 
L 301.575261 268.59352 
L 301.575261 294.209941 
L 301.981086 268.59352 
L 301.981086 255.785577 
L 302.386896 307.017913 
L 302.792721 307.017913 
L 303.604356 294.209941 
L 303.604356 294.209941 
L 304.010181 294.209941 
L 304.010181 294.209941 
L 304.821816 307.017913 
L 305.227626 294.209941 
L 305.227626 268.59352 
L 305.633451 268.59352 
L 305.633451 307.017913 
L 306.039261 319.826124 
L 306.039261 307.017913 
L 306.445086 294.209941 
L 306.445086 281.40188 
L 306.850896 294.209941 
L 307.256721 268.59352 
L 307.256721 307.017913 
L 307.256721 217.361064 
L 307.662546 319.826124 
L 307.662546 307.017913 
L 308.068356 281.40188 
L 308.068356 281.40188 
L 308.068356 268.59352 
L 308.068356 294.209941 
L 308.474181 294.209941 
L 308.474181 281.40188 
L 308.879991 281.40188 
L 308.879991 242.977337 
L 309.285816 307.017913 
L 309.691626 217.361064 
L 309.691626 281.40188 
L 310.503261 294.209941 
L 310.503261 294.209941 
L 310.503261 268.59352 
L 310.909086 268.59352 
L 310.909086 294.209941 
L 310.909086 281.40188 
L 312.126546 281.40188 
L 312.126546 242.977337 
L 312.126546 268.59352 
L 312.938181 307.017913 
L 312.938181 255.785577 
L 313.749816 255.785577 
L 313.749816 294.209941 
L 313.749816 294.209941 
L 314.561451 268.59352 
L 314.561451 281.40188 
L 314.967261 242.977337 
L 314.967261 281.40188 
L 315.373086 268.59352 
L 315.778896 268.59352 
L 316.184721 294.209941 
L 316.184721 268.59352 
L 316.590546 307.017913 
L 316.590546 268.59352 
L 316.996356 268.59352 
L 318.213816 255.785577 
L 318.213816 281.40188 
L 319.025451 307.017913 
L 319.025451 242.977337 
L 320.64872 294.209941 
L 321.054545 255.785577 
L 321.460355 242.977337 
L 321.86618 281.40188 
L 321.86618 255.785577 
L 322.677815 268.59352 
L 323.48945 307.017913 
L 323.48945 294.209941 
L 323.89526 281.40188 
L 324.706895 268.59352 
L 324.706895 281.40188 
L 325.518545 294.209941 
L 325.518545 255.785577 
L 325.518545 294.209941 
L 326.33018 268.59352 
L 326.73599 294.209941 
L 326.73599 255.785577 
L 327.141815 268.59352 
L 327.547625 268.59352 
L 327.95345 255.785577 
L 328.35926 294.209941 
L 328.765085 319.826124 
L 329.170895 242.977337 
L 329.170895 268.59352 
L 330.388355 268.59352 
L 330.388355 255.785577 
L 330.388355 268.59352 
L 330.79418 242.977337 
L 330.79418 281.40188 
L 331.19999 307.017913 
L 331.19999 268.59352 
L 331.19999 281.40188 
L 332.41745 294.209941 
L 332.41745 294.209941 
L 332.82326 268.59352 
L 333.229085 294.209941 
L 333.634895 255.785577 
L 333.634895 307.017913 
L 334.04072 255.785577 
L 334.04072 281.40188 
L 334.446545 268.59352 
L 334.852355 281.40188 
L 335.25818 255.785577 
L 335.66399 255.785577 
L 336.069815 281.40188 
L 336.88145 268.59352 
L 337.28726 281.40188 
L 338.098895 268.59352 
L 338.098895 294.209941 
L 338.50472 281.40188 
L 338.50472 294.209941 
L 338.910545 255.785577 
L 339.316355 281.40188 
L 340.12799 242.977337 
L 340.12799 268.59352 
L 340.12799 268.59352 
L 341.34545 268.59352 
L 341.34545 268.59352 
L 342.157084 242.977337 
L 342.562894 319.826124 
L 342.562894 255.785577 
L 342.562894 255.785577 
L 342.968719 268.59352 
L 342.968719 255.785577 
L 343.374544 281.40188 
L 344.186179 307.017913 
L 344.591989 268.59352 
L 345.403624 242.977337 
L 345.403624 268.59352 
L 345.809449 294.209941 
L 346.621084 217.361064 
L 346.621084 281.40188 
L 347.026894 217.361064 
L 347.432719 242.977337 
L 347.432719 307.017913 
L 347.432719 268.59352 
L 347.838544 255.785577 
L 348.244354 307.017913 
L 348.244354 255.785577 
L 348.244354 294.209941 
L 349.055989 242.977337 
L 349.055989 230.169096 
L 349.461814 294.209941 
L 349.867624 268.59352 
L 349.867624 294.209941 
L 349.867624 281.40188 
L 350.273449 268.59352 
L 350.679259 242.977337 
L 351.085084 294.209941 
L 351.490894 268.59352 
L 351.490894 294.209941 
L 353.114179 294.209941 
L 353.114179 255.785577 
L 353.114179 268.59352 
L 353.519989 294.209941 
L 353.519989 255.785577 
L 353.925814 268.59352 
L 355.143259 281.40188 
L 355.549084 281.40188 
L 355.954894 255.785577 
L 355.954894 281.40188 
L 356.360719 268.59352 
L 356.360719 281.40188 
L 356.766544 255.785577 
L 356.766544 268.59352 
L 357.172354 255.785577 
L 357.172354 307.017913 
L 357.983989 281.40188 
L 357.983989 294.209941 
L 357.983989 281.40188 
L 358.795624 242.977337 
L 359.201449 255.785577 
L 359.201449 268.59352 
L 360.013084 294.209941 
L 360.013084 242.977337 
L 360.824719 268.59352 
L 362.447989 255.785577 
L 362.447989 294.209941 
L 362.447989 294.209941 
L 362.853814 255.785577 
L 362.853814 281.40188 
L 363.259623 255.785577 
L 363.259623 242.977337 
L 363.665448 255.785577 
L 363.665448 268.59352 
L 363.665448 230.169096 
L 363.665448 242.977337 
L 364.071258 255.785577 
L 364.071258 268.59352 
L 364.477083 255.785577 
L 364.882893 268.59352 
L 364.882893 294.209941 
L 365.694543 268.59352 
L 366.100353 307.017913 
L 366.100353 242.977337 
L 367.317813 294.209941 
L 368.129448 307.017913 
L 368.129448 255.785577 
L 368.941083 255.785577 
L 369.752718 242.977337 
L 369.752718 281.40188 
L 369.752718 281.40188 
L 370.564353 230.169096 
L 370.970178 230.169096 
L 371.375988 242.977337 
L 371.375988 268.59352 
L 371.375988 242.977337 
L 371.781813 268.59352 
L 371.781813 255.785577 
L 371.781813 294.209941 
L 372.593448 268.59352 
L 372.593448 281.40188 
L 372.999258 268.59352 
L 372.999258 255.785577 
L 373.810893 255.785577 
L 373.810893 294.209941 
L 373.810893 242.977337 
L 373.810893 268.59352 
L 374.216718 230.169096 
L 374.216718 255.785577 
L 375.434178 268.59352 
L 375.434178 281.40188 
L 375.434178 230.169096 
L 375.434178 242.977337 
L 375.839988 255.785577 
L 376.245813 242.977337 
L 376.651623 242.977337 
L 377.463258 255.785577 
L 377.463258 294.209941 
L 378.680718 217.361064 
L 378.680718 268.59352 
L 379.492353 281.40188 
L 380.303988 242.977337 
L 381.115623 294.209941 
L 381.115623 242.977337 
L 381.927258 255.785577 
L 382.333083 255.785577 
L 382.333083 281.40188 
L 383.144718 255.785577 
L 383.550543 217.361064 
L 383.956353 281.40188 
L 384.767988 268.59352 
L 385.173813 255.785577 
L 385.173813 217.361064 
L 385.173813 268.59352 
L 385.579622 268.59352 
L 385.985447 281.40188 
L 385.985447 255.785577 
L 385.985447 281.40188 
L 386.391257 242.977337 
L 386.391257 255.785577 
L 387.202892 230.169096 
L 387.202892 268.59352 
L 388.014542 242.977337 
L 388.420352 255.785577 
L 388.826177 242.977337 
L 389.231987 255.785577 
L 389.231987 217.361064 
L 389.637812 230.169096 
L 390.043622 319.826124 
L 390.043622 268.59352 
L 390.449447 242.977337 
L 390.449447 281.40188 
L 390.449447 242.977337 
L 390.855257 281.40188 
L 390.855257 255.785577 
L 391.261082 281.40188 
L 391.666892 255.785577 
L 391.666892 268.59352 
L 391.666892 242.977337 
L 391.666892 255.785577 
L 392.072717 242.977337 
L 392.072717 268.59352 
L 393.290162 268.59352 
L 393.290162 268.59352 
L 393.290162 242.977337 
L 393.695987 242.977337 
L 393.695987 230.169096 
L 393.695987 242.977337 
L 394.507637 242.977337 
L 394.507637 281.40188 
L 394.913432 268.59352 
L 394.913432 268.59352 
L 395.319257 281.40188 
L 396.942527 255.785577 
L 397.348352 242.977337 
L 397.754177 268.59352 
L 397.754177 230.169096 
L 398.565797 255.785577 
L 398.565797 268.59352 
L 398.971622 294.209941 
L 398.971622 255.785577 
L 399.377447 255.785577 
L 399.377447 281.40188 
L 399.783272 281.40188 
L 400.189067 255.785577 
L 400.594892 294.209941 
L 401.000717 242.977337 
L 401.406542 281.40188 
L 402.218162 217.361064 
L 402.218162 242.977337 
L 402.623987 307.017913 
L 402.623987 281.40188 
L 403.029812 255.785577 
L 403.029812 255.785577 
L 403.029812 230.169096 
L 403.435637 255.785577 
L 403.435637 281.40188 
L 403.435637 255.785577 
L 403.841432 204.552674 
L 403.841432 255.785577 
L 404.247257 230.169096 
L 404.653082 230.169096 
L 404.653082 268.59352 
L 405.058907 255.785577 
L 405.058907 281.40188 
L 405.464732 268.59352 
L 406.682177 255.785577 
L 406.682177 307.017913 
L 407.493796 230.169096 
L 407.899621 255.785577 
L 408.711272 217.361064 
L 409.117066 255.785577 
L 409.522891 217.361064 
L 409.522891 268.59352 
L 409.928716 281.40188 
L 409.928716 242.977337 
L 409.928716 281.40188 
L 410.740366 255.785577 
L 411.146161 217.361064 
L 411.551986 281.40188 
L 411.957811 255.785577 
L 411.957811 281.40188 
L 411.957811 242.977337 
L 412.363636 268.59352 
L 412.363636 217.361064 
L 412.363636 268.59352 
L 412.769431 281.40188 
L 412.769431 255.785577 
L 413.175256 268.59352 
L 413.581081 294.209941 
L 413.986906 242.977337 
L 414.392731 255.785577 
L 415.204351 230.169096 
L 415.610176 204.552674 
L 415.610176 255.785577 
L 416.016001 242.977337 
L 417.233446 230.169096 
L 417.233446 242.977337 
L 417.639271 217.361064 
L 418.450891 217.361064 
L 418.450891 268.59352 
L 418.450891 255.785577 
L 419.262541 230.169096 
L 419.262541 255.785577 
L 419.262541 255.785577 
L 419.668366 294.209941 
L 420.074161 255.785577 
L 420.479986 191.744613 
L 420.479986 242.977337 
L 420.885811 268.59352 
L 421.291636 268.59352 
L 421.697431 255.785577 
L 422.103256 230.169096 
L 422.509081 255.785577 
L 422.509081 204.552674 
L 423.320731 242.977337 
L 423.320731 217.361064 
L 424.132351 268.59352 
L 424.132351 230.169096 
L 424.538176 230.169096 
L 424.538176 268.59352 
L 425.349796 242.977337 
L 425.349796 294.209941 
L 426.161446 281.40188 
L 426.161446 217.361064 
L 426.567271 242.977337 
L 426.973066 242.977337 
L 426.973066 255.785577 
L 427.378891 230.169096 
L 427.378891 204.552674 
L 427.378891 230.169096 
L 428.190541 230.169096 
L 428.596366 217.361064 
L 428.596366 255.785577 
L 429.00216 242.977337 
L 429.407985 217.361064 
L 429.407985 204.552674 
L 429.813811 230.169096 
L 430.62543 268.59352 
L 430.62543 281.40188 
L 430.62543 242.977337 
L 431.031255 242.977337 
L 431.031255 204.552674 
L 431.43708 255.785577 
L 431.43708 255.785577 
L 431.842905 255.785577 
L 432.24873 268.59352 
L 432.24873 294.209941 
L 432.24873 230.169096 
L 432.654525 242.977337 
L 432.654525 217.361064 
L 433.466175 217.361064 
L 433.466175 294.209941 
L 433.872 242.977337 
L 434.277795 242.977337 
L 434.68362 230.169096 
L 435.49527 268.59352 
L 436.30689 242.977337 
L 437.11854 230.169096 
L 437.11854 242.977337 
L 437.524365 242.977337 
L 437.524365 255.785577 
L 437.524365 242.977337 
L 437.93016 242.977337 
L 438.335985 230.169096 
L 438.335985 217.361064 
L 438.74181 191.744613 
L 439.147635 204.552674 
L 439.55343 255.785577 
L 439.55343 191.744613 
L 439.959255 255.785577 
L 439.959255 255.785577 
L 440.36508 217.361064 
L 441.98835 268.59352 
L 442.394175 268.59352 
L 442.394175 230.169096 
L 442.8 204.552674 
L 442.8 242.977337 
L 443.205795 230.169096 
L 443.205795 281.40188 
L 444.829065 242.977337 
L 445.23489 242.977337 
L 445.640715 268.59352 
L 446.452365 242.977337 
L 446.452365 268.59352 
L 447.263985 217.361064 
L 447.66981 268.59352 
L 448.887255 268.59352 
L 449.29308 230.169096 
L 449.29308 230.169096 
L 449.698905 255.785577 
L 449.698905 230.169096 
L 450.10473 242.977337 
L 450.510524 217.361064 
L 450.91635 242.977337 
L 450.91635 217.361064 
L 451.322175 230.169096 
L 451.322175 230.169096 
L 451.728 217.361064 
L 451.728 217.361064 
L 452.133794 230.169096 
L 452.539619 217.361064 
L 452.539619 178.936551 
L 452.945444 255.785577 
L 452.945444 255.785577 
L 453.35127 217.361064 
L 453.757064 217.361064 
L 454.162889 294.209941 
L 454.162889 204.552674 
L 454.568714 191.744613 
L 454.568714 230.169096 
L 454.568714 230.169096 
L 455.786159 217.361064 
L 455.786159 242.977337 
L 455.786159 204.552674 
L 455.786159 230.169096 
L 456.597809 217.361064 
L 457.409429 268.59352 
L 457.409429 230.169096 
L 457.815254 255.785577 
L 457.815254 230.169096 
L 457.815254 242.977337 
L 458.221079 242.977337 
L 458.221079 281.40188 
L 458.626904 204.552674 
L 458.626904 242.977337 
L 459.032729 204.552674 
L 459.844349 230.169096 
L 460.250174 191.744613 
L 461.061794 242.977337 
L 461.467619 204.552674 
L 461.873444 242.977337 
L 461.873444 217.361064 
L 461.873444 255.785577 
L 462.279269 230.169096 
L 462.685064 268.59352 
L 462.685064 255.785577 
L 463.090889 230.169096 
L 463.090889 204.552674 
L 463.090889 230.169096 
L 463.496714 204.552674 
L 463.496714 204.552674 
L 463.496714 268.59352 
L 463.902539 230.169096 
L 463.902539 242.977337 
L 463.902539 204.552674 
L 465.119984 217.361064 
L 465.931634 217.361064 
L 465.931634 255.785577 
L 466.337429 230.169096 
L 466.337429 204.552674 
L 466.743254 230.169096 
L 466.743254 204.552674 
L 467.149079 191.744613 
L 467.554904 242.977337 
L 467.960729 268.59352 
L 467.960729 204.552674 
L 467.960729 255.785577 
L 468.772349 204.552674 
L 468.772349 230.169096 
L 469.583999 242.977337 
L 469.583999 217.361064 
L 470.395619 255.785577 
L 470.395619 191.744613 
L 470.801444 230.169096 
L 470.801444 217.361064 
L 471.613063 204.552674 
L 471.613063 281.40188 
L 471.613063 204.552674 
L 472.018889 217.361064 
L 472.018889 230.169096 
L 472.018889 217.361064 
L 472.424714 268.59352 
L 472.424714 204.552674 
L 473.642158 204.552674 
L 473.642158 242.977337 
L 474.047983 191.744613 
L 474.859634 191.744613 
L 474.859634 230.169096 
L 475.671253 230.169096 
L 476.888728 242.977337 
L 477.294523 217.361064 
L 477.700348 204.552674 
L 478.106173 217.361064 
L 478.511998 242.977337 
L 478.511998 242.977337 
L 478.511998 217.361064 
L 479.323618 255.785577 
L 479.323618 242.977337 
L 480.135268 217.361064 
L 480.135268 242.977337 
L 480.946888 191.744613 
L 480.946888 217.361064 
L 481.352713 242.977337 
L 481.758538 255.785577 
L 481.758538 217.361064 
L 482.164363 217.361064 
L 482.164363 217.361064 
L 482.164363 255.785577 
L 482.570158 230.169096 
L 482.570158 204.552674 
L 482.570158 230.169096 
L 483.381808 268.59352 
L 483.381808 217.361064 
L 483.381808 217.361064 
L 483.787633 217.361064 
L 483.787633 217.361064 
L 483.787633 191.744613 
L 484.599253 217.361064 
L 485.005078 217.361064 
L 485.005078 255.785577 
L 485.410903 204.552674 
L 485.410903 242.977337 
L 485.410903 217.361064 
L 486.222523 191.744613 
L 486.222523 268.59352 
L 486.628348 204.552674 
L 486.628348 242.977337 
L 486.628348 178.936551 
L 487.034173 178.936551 
L 487.439998 217.361064 
L 487.439998 255.785577 
L 488.251618 204.552674 
L 488.657443 242.977337 
L 488.657443 268.59352 
L 488.657443 217.361064 
L 489.063268 204.552674 
L 489.063268 242.977337 
L 489.469063 242.977337 
L 489.874888 191.744613 
L 489.874888 230.169096 
L 490.280713 230.169096 
L 491.092363 191.744613 
L 491.092363 242.977337 
L 491.498158 242.977337 
L 491.498158 255.785577 
L 491.903983 204.552674 
L 492.309808 191.744613 
L 492.309808 255.785577 
L 493.121428 204.552674 
L 493.527253 217.361064 
L 493.527253 204.552674 
L 494.338903 217.361064 
L 494.744728 268.59352 
L 495.150522 255.785577 
L 495.962173 268.59352 
L 496.367998 230.169096 
L 496.367998 204.552674 
L 496.367998 255.785577 
L 496.773792 255.785577 
L 497.991267 281.40188 
L 497.991267 230.169096 
L 497.991267 242.977337 
L 498.397062 191.744613 
L 498.802887 242.977337 
L 498.802887 242.977337 
L 499.208712 191.744613 
L 499.614537 242.977337 
L 499.614537 217.361064 
L 500.426157 217.361064 
L 500.426157 242.977337 
L 501.643632 204.552674 
L 501.643632 230.169096 
L 502.455252 255.785577 
L 502.861077 230.169096 
L 502.861077 191.744613 
L 503.266902 255.785577 
L 503.266902 204.552674 
L 503.672727 255.785577 
L 503.672727 242.977337 
L 504.078522 191.744613 
L 504.890172 217.361064 
L 505.295997 242.977337 
L 505.701792 255.785577 
L 505.701792 217.361064 
L 505.701792 242.977337 
L 506.107617 204.552674 
L 506.107617 230.169096 
L 506.513442 242.977337 
L 506.919267 204.552674 
L 506.919267 230.169096 
L 507.325062 230.169096 
L 508.136712 204.552674 
L 508.948362 268.59352 
L 509.354157 230.169096 
L 509.354157 217.361064 
L 510.571632 217.361064 
L 510.571632 255.785577 
L 510.571632 255.785577 
L 510.977427 281.40188 
L 510.977427 191.744613 
L 511.789077 191.744613 
L 512.194902 230.169096 
L 512.194902 204.552674 
L 513.412347 204.552674 
L 513.412347 217.361064 
L 513.818172 204.552674 
L 513.818172 204.552674 
L 513.818172 230.169096 
L 513.818172 217.361064 
L 514.223997 204.552674 
L 514.223997 268.59352 
L 515.035617 191.744613 
L 515.441442 217.361064 
L 515.441442 204.552674 
L 515.441442 217.361064 
L 515.847267 217.361064 
L 515.847267 204.552674 
L 515.847267 255.785577 
L 516.253061 230.169096 
L 517.064712 242.977337 
L 517.064712 204.552674 
L 517.876362 230.169096 
L 519.093806 281.40188 
L 519.093806 204.552674 
L 519.093806 217.361064 
L 519.499632 242.977337 
L 520.717076 204.552674 
L 520.717076 242.977337 
L 521.528726 204.552674 
L 521.934521 242.977337 
L 521.934521 191.744613 
L 522.340346 242.977337 
L 522.340346 217.361064 
L 522.340346 230.169096 
L 523.151996 217.361064 
L 523.151996 204.552674 
L 523.557791 217.361064 
L 523.963616 217.361064 
L 523.963616 217.361064 
L 524.775266 230.169096 
L 525.181061 242.977337 
L 525.586886 217.361064 
L 525.992711 217.361064 
L 525.992711 191.744613 
L 525.992711 242.977337 
L 525.992711 217.361064 
L 527.210156 242.977337 
L 527.210156 230.169096 
L 527.615981 204.552674 
L 527.615981 178.936551 
L 529.645076 242.977337 
L 530.050901 204.552674 
L 530.050901 230.169096 
L 530.862521 204.552674 
L 530.862521 217.361064 
L 532.485791 178.936551 
L 532.485791 217.361064 
L 533.297441 217.361064 
L 533.297441 204.552674 
L 533.703266 230.169096 
L 533.703266 178.936551 
L 534.514886 230.169096 
L 534.514886 204.552674 
L 535.326536 281.40188 
L 535.732361 178.936551 
L 535.732361 204.552674 
L 535.732361 255.785577 
L 536.138156 178.936551 
L 538.167251 242.977337 
L 538.573076 204.552674 
L 538.573076 166.128668 
L 539.384726 204.552674 
L 539.79052 230.169096 
L 540.196345 242.977337 
L 540.196345 242.977337 
L 540.196345 166.128668 
L 540.602171 204.552674 
L 540.602171 217.361064 
L 541.007996 204.552674 
L 541.41379 242.977337 
L 541.41379 204.552674 
L 542.22544 217.361064 
L 542.22544 204.552674 
L 543.442885 242.977337 
L 543.442885 178.936551 
L 543.442885 217.361064 
L 543.84871 204.552674 
L 544.66036 217.361064 
L 544.66036 178.936551 
L 544.66036 204.552674 
L 545.066155 204.552674 
L 545.47198 217.361064 
L 545.47198 217.361064 
L 545.47198 178.936551 
L 546.28363 217.361064 
L 546.28363 230.169096 
L 546.28363 191.744613 
L 546.689425 242.977337 
L 546.689425 230.169096 
L 546.689425 217.361064 
L 547.09525 178.936551 
L 547.09525 191.744613 
L 547.501075 217.361064 
L 547.501075 242.977337 
L 547.501075 204.552674 
L 547.9069 255.785577 
L 548.312725 217.361064 
L 548.71852 204.552674 
L 548.71852 166.128668 
L 549.124345 230.169096 
L 549.53017 217.361064 
L 549.53017 230.169096 
L 549.935995 217.361064 
L 549.935995 204.552674 
L 550.34179 191.744613 
L 550.747615 217.361064 
L 551.15344 191.744613 
L 551.15344 191.744613 
L 551.96506 191.744613 
L 553.182535 178.936551 
L 553.182535 230.169096 
L 553.994155 217.361064 
L 553.994155 204.552674 
L 554.39998 178.936551 
L 554.805805 204.552674 
L 554.805805 178.936551 
L 555.21163 217.361064 
L 556.02325 230.169096 
L 556.02325 191.744613 
L 556.02325 242.977337 
L 556.429075 217.361064 
L 557.240725 217.361064 
L 558.052345 204.552674 
L 558.863995 230.169096 
L 558.863995 230.169096 
L 559.675615 217.361064 
L 559.675615 204.552674 
L 560.08144 166.128668 
L 560.487265 178.936551 
L 560.487265 230.169096 
L 560.487265 217.361064 
L 560.893059 217.361064 
L 560.893059 166.128668 
L 561.70471 217.361064 
L 561.70471 217.361064 
L 562.110535 204.552674 
L 562.110535 230.169096 
L 562.110535 178.936551 
L 562.51636 178.936551 
L 562.51636 230.169096 
L 562.51636 204.552674 
L 563.327979 204.552674 
L 563.327979 204.552674 
L 564.13963 191.744613 
L 564.545424 204.552674 
L 564.545424 204.552674 
L 564.545424 191.744613 
L 564.951249 242.977337 
L 565.357074 217.361064 
L 565.762899 204.552674 
L 565.762899 153.32013 
L 566.168724 217.361064 
L 566.168724 153.32013 
L 566.980344 230.169096 
L 566.980344 217.361064 
L 567.386169 178.936551 
L 567.791994 191.744613 
L 568.603614 191.744613 
L 568.603614 242.977337 
L 569.009439 217.361064 
L 569.009439 166.128668 
L 569.415264 204.552674 
L 569.415264 204.552674 
L 569.821059 191.744613 
L 570.226884 230.169096 
L 571.850154 204.552674 
L 572.255979 204.552674 
L 572.255979 178.936551 
L 572.661804 204.552674 
L 572.661804 204.552674 
L 572.661804 230.169096 
L 572.661804 204.552674 
L 573.067629 217.361064 
L 573.473424 191.744613 
L 573.879249 204.552674 
L 573.879249 166.128668 
L 573.879249 204.552674 
L 574.690899 191.744613 
L 574.690899 191.744613 
L 574.690899 217.361064 
L 575.096724 166.128668 
L 575.502519 178.936551 
L 575.502519 230.169096 
L 575.502519 204.552674 
L 576.314169 153.32013 
L 576.719994 166.128668 
L 576.719994 230.169096 
L 576.719994 166.128668 
L 577.531614 217.361064 
L 577.531614 230.169096 
L 577.937439 178.936551 
L 577.937439 153.32013 
L 577.937439 178.936551 
L 579.154884 191.744613 
L 579.154884 217.361064 
L 579.966534 178.936551 
L 579.966534 230.169096 
L 579.966534 191.744613 
L 580.372359 217.361064 
L 580.372359 166.128668 
L 580.372359 191.744613 
L 581.589804 178.936551 
L 581.589804 191.744613 
L 582.401424 217.361064 
L 582.401424 166.128668 
L 582.807249 217.361064 
L 583.618899 204.552674 
L 583.618899 178.936551 
L 584.024724 204.552674 
L 584.836343 204.552674 
L 585.647994 191.744613 
L 586.053788 191.744613 
L 586.459613 217.361064 
L 586.865438 140.512247 
L 587.271263 230.169096 
L 587.677058 217.361064 
L 588.894533 204.552674 
L 588.894533 242.977337 
L 589.300358 217.361064 
L 589.300358 217.361064 
L 589.706153 217.361064 
L 589.706153 178.936551 
L 590.111978 178.936551 
L 590.923628 191.744613 
L 590.923628 178.936551 
L 591.329423 204.552674 
L 591.735248 166.128668 
L 591.735248 166.128668 
L 592.141073 217.361064 
L 592.952723 217.361064 
L 592.952723 242.977337 
L 593.764343 217.361064 
L 594.575993 178.936551 
L 594.981788 178.936551 
L 595.387613 191.744613 
L 595.793438 178.936551 
L 595.793438 191.744613 
L 596.199263 191.744613 
L 596.199263 191.744613 
L 596.199263 153.32013 
L 596.199263 191.744613 
L 597.010883 230.169096 
L 597.010883 178.936551 
L 598.228358 178.936551 
L 598.228358 204.552674 
L 598.228358 191.744613 
L 598.634153 166.128668 
L 598.634153 191.744613 
L 599.039978 217.361064 
L 599.039978 217.361064 
L 599.851628 191.744613 
L 599.851628 191.744613 
L 600.257423 204.552674 
L 600.257423 191.744613 
L 601.069073 217.361064 
L 601.069073 178.936551 
L 601.474898 191.744613 
L 601.474898 204.552674 
L 601.474898 178.936551 
L 601.474898 178.936551 
L 602.286518 242.977337 
L 602.692343 191.744613 
L 602.692343 191.744613 
L 603.098168 191.744613 
L 603.098168 230.169096 
L 603.098168 153.32013 
L 603.503993 166.128668 
L 603.503993 178.936551 
L 603.909788 166.128668 
L 603.909788 204.552674 
L 604.721438 178.936551 
L 604.721438 166.128668 
L 604.721438 166.128668 
L 605.533057 166.128668 
L 605.533057 153.32013 
L 606.344708 166.128668 
L 606.344708 166.128668 
L 606.344708 204.552674 
L 607.156358 191.744613 
L 607.562152 217.361064 
L 607.562152 230.169096 
L 607.967977 166.128668 
L 608.373802 153.32013 
L 608.373802 217.361064 
L 608.779627 178.936551 
L 609.185422 204.552674 
L 609.997072 230.169096 
L 610.402897 178.936551 
L 610.402897 255.785577 
L 610.808722 242.977337 
L 611.620342 166.128668 
L 612.026167 204.552674 
L 612.837787 178.936551 
L 613.243612 204.552674 
L 613.649437 191.744613 
L 614.055262 166.128668 
L 614.055262 153.32013 
L 614.461057 153.32013 
L 614.866882 178.936551 
L 614.866882 204.552674 
L 615.678532 153.32013 
L 616.084357 178.936551 
L 616.084357 127.703887 
L 616.490152 204.552674 
L 616.490152 178.936551 
L 616.490152 204.552674 
L 617.707627 153.32013 
L 618.113422 166.128668 
L 618.113422 204.552674 
L 618.519247 204.552674 
L 618.519247 204.552674 
L 618.925072 153.32013 
L 618.925072 204.552674 
L 619.736722 204.552674 
L 620.548342 178.936551 
L 622.171612 178.936551 
L 622.171612 153.32013 
L 622.171612 217.361064 
L 622.577437 204.552674 
L 622.577437 166.128668 
L 623.389057 217.361064 
L 623.389057 166.128668 
L 623.389057 166.128668 
L 623.794882 178.936551 
L 623.794882 166.128668 
L 623.794882 191.744613 
L 624.200707 127.703887 
L 624.200707 191.744613 
L 624.606532 204.552674 
L 624.606532 166.128668 
L 624.606532 204.552674 
L 625.012357 178.936551 
L 625.823977 204.552674 
L 625.823977 191.744613 
L 626.229802 153.32013 
L 626.635627 217.361064 
L 627.041421 166.128668 
L 627.447247 140.512247 
L 627.447247 140.512247 
L 628.258897 166.128668 
L 629.070516 178.936551 
L 629.476341 230.169096 
L 630.287992 166.128668 
L 631.911261 114.895646 
L 631.911261 230.169096 
L 631.911261 217.361064 
L 632.317056 153.32013 
L 632.317056 191.744613 
L 632.722881 191.744613 
L 633.128706 204.552674 
L 633.128706 166.128668 
L 635.157801 166.128668 
L 635.157801 140.512247 
L 635.563626 102.087525 
L 635.563626 166.128668 
L 635.969421 204.552674 
L 636.375246 114.895646 
L 636.375246 178.936551 
L 636.375246 166.128668 
L 636.781071 191.744613 
L 636.781071 166.128668 
L 637.186896 153.32013 
L 637.592721 166.128668 
L 637.592721 191.744613 
L 637.998516 114.895646 
L 638.404341 204.552674 
L 638.810166 178.936551 
L 638.810166 166.128668 
L 638.810166 217.361064 
L 639.215991 217.361064 
L 639.621786 178.936551 
L 639.621786 178.936551 
L 640.027611 191.744613 
L 640.027611 166.128668 
L 640.433436 191.744613 
L 640.433436 153.32013 
L 640.839261 140.512247 
L 640.839261 153.32013 
L 641.245056 191.744613 
L 641.650881 178.936551 
L 641.650881 166.128668 
L 641.650881 166.128668 
L 642.056706 166.128668 
L 642.462531 204.552674 
L 642.462531 204.552674 
L 642.868356 153.32013 
L 643.274151 178.936551 
L 643.274151 217.361064 
L 644.085801 153.32013 
L 644.491626 140.512247 
L 644.897421 191.744613 
L 644.897421 166.128668 
L 644.897421 178.936551 
L 645.303246 191.744613 
L 645.303246 191.744613 
L 645.709071 153.32013 
L 646.114896 178.936551 
L 646.520721 191.744613 
L 647.332371 166.128668 
L 647.738135 191.744613 
L 647.738135 153.32013 
L 647.738135 191.744613 
L 648.14396 153.32013 
L 648.549786 153.32013 
L 648.549786 230.169096 
L 648.549786 153.32013 
L 648.955611 178.936551 
L 649.361436 191.744613 
L 650.173086 178.936551 
L 651.3905 178.936551 
L 651.3905 242.977337 
L 651.796325 178.936551 
L 651.796325 191.744613 
L 651.796325 204.552674 
L 652.607975 140.512247 
L 652.607975 242.977337 
L 653.0138 191.744613 
L 653.825451 166.128668 
L 654.637101 178.936551 
L 655.042865 204.552674 
L 655.042865 178.936551 
L 655.042865 204.552674 
L 655.44869 178.936551 
L 655.44869 153.32013 
L 655.854515 191.744613 
L 655.854515 166.128668 
L 655.854515 166.128668 
L 657.07199 166.128668 
L 657.07199 153.32013 
L 657.88364 140.512247 
L 658.289405 204.552674 
L 658.69523 178.936551 
L 659.50688 191.744613 
L 659.912705 153.32013 
L 660.31853 127.703887 
L 660.31853 127.703887 
L 660.724355 166.128668 
L 660.724355 166.128668 
L 660.724355 191.744613 
L 660.724355 140.512247 
L 661.13018 153.32013 
L 661.13018 166.128668 
L 661.94177 166.128668 
L 661.94177 204.552674 
L 662.75342 140.512247 
L 663.56507 166.128668 
L 663.970895 217.361064 
L 663.970895 178.936551 
L 664.37672 191.744613 
L 664.782545 166.128668 
L 665.18837 166.128668 
L 665.594135 178.936551 
L 666.405785 127.703887 
L 666.405785 217.361064 
L 666.81161 153.32013 
L 666.81161 178.936551 
L 667.217435 191.744613 
L 667.62326 153.32013 
L 668.029085 191.744613 
L 668.840735 191.744613 
L 669.246499 178.936551 
L 670.05815 178.936551 
L 670.463975 217.361064 
L 670.463975 166.128668 
L 671.275625 191.744613 
L 671.275625 140.512247 
L 671.68145 204.552674 
L 672.087275 166.128668 
L 672.087275 140.512247 
L 672.898864 191.744613 
L 673.304689 153.32013 
L 673.304689 191.744613 
L 673.304689 166.128668 
L 673.710514 153.32013 
L 673.710514 166.128668 
L 674.116339 153.32013 
L 674.92799 140.512247 
L 674.92799 166.128668 
L 674.92799 166.128668 
L 675.333815 178.936551 
L 675.333815 140.512247 
L 675.73964 178.936551 
L 676.145404 166.128668 
L 676.145404 140.512247 
L 676.551229 178.936551 
L 676.551229 230.169096 
L 677.362879 217.361064 
L 677.768704 204.552674 
L 678.174529 127.703887 
L 679.797769 191.744613 
L 679.797769 191.744613 
L 680.203594 166.128668 
L 680.203594 140.512247 
L 680.609419 217.361064 
L 680.609419 204.552674 
L 681.015244 178.936551 
L 681.421069 178.936551 
L 681.421069 153.32013 
L 682.638544 153.32013 
L 683.044369 178.936551 
L 683.044369 166.128668 
L 683.450134 140.512247 
L 683.450134 140.512247 
L 683.855959 178.936551 
L 683.855959 153.32013 
L 683.855959 178.936551 
L 684.261784 153.32013 
L 684.261784 140.512247 
L 684.261784 153.32013 
L 684.667609 178.936551 
L 684.667609 153.32013 
L 684.667609 204.552674 
L 685.073434 140.512247 
L 685.885084 191.744613 
L 685.885084 191.744613 
L 686.290909 191.744613 
L 687.102499 178.936551 
L 687.508324 166.128668 
L 687.508324 140.512247 
L 687.914149 140.512247 
L 687.914149 153.32013 
L 688.725799 191.744613 
L 688.725799 140.512247 
L 689.131624 166.128668 
L 689.537449 153.32013 
L 690.754864 153.32013 
L 691.160689 166.128668 
L 691.160689 153.32013 
L 691.566514 166.128668 
L 691.972339 191.744613 
L 691.972339 166.128668 
L 692.378164 153.32013 
L 692.378164 127.703887 
L 692.783989 127.703887 
L 692.783989 178.936551 
L 692.783989 178.936551 
L 693.189814 153.32013 
L 693.189814 178.936551 
L 693.189814 140.512247 
L 693.595639 153.32013 
L 693.595639 178.936551 
L 694.407228 153.32013 
L 694.813053 127.703887 
L 694.813053 166.128668 
L 694.813053 166.128668 
L 695.218878 166.128668 
L 695.624703 178.936551 
L 695.624703 153.32013 
L 696.436354 89.28 
L 696.842179 166.128668 
L 697.248004 153.32013 
L 698.059593 153.32013 
L 698.465418 178.936551 
L 698.465418 153.32013 
L 698.871243 127.703887 
L 699.277068 140.512247 
L 699.682893 166.128668 
L 699.682893 140.512247 
L 700.088718 140.512247 
L 700.088718 114.895646 
L 701.306133 153.32013 
L 701.306133 153.32013 
L 701.711958 153.32013 
L 701.711958 178.936551 
L 702.117783 153.32013 
L 702.929433 204.552674 
L 702.929433 166.128668 
L 703.335258 204.552674 
L 703.335258 166.128668 
L 703.741083 140.512247 
L 704.146908 204.552674 
L 704.146908 140.512247 
L 705.364323 102.087525 
L 705.770148 166.128668 
L 706.175973 127.703887 
L 706.581798 114.895646 
L 706.987623 140.512247 
L 706.987623 153.32013 
L 707.393448 140.512247 
L 709.828338 127.703887 
L 710.234163 178.936551 
L 710.234163 114.895646 
L 710.639988 140.512247 
L 710.639988 178.936551 
L 711.045813 114.895646 
L 711.045813 114.895646 
L 711.045813 140.512247 
L 711.857403 166.128668 
L 712.263228 153.32013 
L 713.480703 166.128668 
L 713.886528 153.32013 
L 714.292353 153.32013 
L 715.104003 127.703887 
L 715.915592 140.512247 
L 715.915592 166.128668 
L 715.915592 140.512247 
L 716.321417 191.744613 
L 717.538893 166.128668 
L 717.538893 140.512247 
L 717.944718 114.895646 
L 717.944718 127.703887 
L 719.162132 140.512247 
L 719.162132 191.744613 
L 719.973782 114.895646 
L 720.379607 140.512247 
L 720.379607 127.703887 
L 720.785432 153.32013 
L 721.191257 114.895646 
L 721.191257 102.087525 
L 722.408733 140.512247 
L 722.408733 153.32013 
L 723.220322 191.744613 
L 723.220322 127.703887 
L 723.626147 153.32013 
L 724.031972 153.32013 
L 724.437797 166.128668 
L 724.437797 127.703887 
L 724.843622 178.936551 
L 725.249447 127.703887 
L 726.061097 166.128668 
L 726.872687 153.32013 
L 726.872687 140.512247 
L 727.684337 140.512247 
L 728.090162 178.936551 
L 728.901812 140.512247 
L 729.307637 140.512247 
L 729.307637 153.32013 
L 729.713402 140.512247 
L 729.713402 166.128668 
L 730.119227 178.936551 
L 730.119227 102.087525 
L 730.525052 127.703887 
L 730.930877 102.087525 
L 730.930877 114.895646 
L 731.336702 102.087525 
L 731.742527 153.32013 
L 732.148352 140.512247 
L 732.148352 127.703887 
L 732.148352 191.744613 
L 732.554177 166.128668 
L 732.960002 166.128668 
L 733.365767 191.744613 
L 734.177417 153.32013 
L 734.177417 178.936551 
L 734.177417 140.512247 
L 734.583242 127.703887 
L 735.800717 178.936551 
L 737.018131 178.936551 
L 737.829781 153.32013 
L 737.829781 114.895646 
L 738.235607 127.703887 
L 738.235607 140.512247 
L 739.047257 153.32013 
L 739.047257 153.32013 
L 739.453082 166.128668 
L 740.264732 127.703887 
L 741.076321 153.32013 
L 741.482146 140.512247 
L 741.482146 166.128668 
L 741.887971 153.32013 
L 741.887971 178.936551 
L 741.887971 153.32013 
L 742.293796 140.512247 
L 742.699621 166.128668 
L 742.699621 127.703887 
L 743.105446 191.744613 
L 743.917097 153.32013 
L 744.322861 127.703887 
L 745.134511 166.128668 
L 745.134511 140.512247 
L 745.540336 140.512247 
L 745.540336 140.512247 
L 745.946161 127.703887 
L 746.351986 102.087525 
L 746.351986 114.895646 
L 746.757811 140.512247 
L 747.163636 153.32013 
L 747.163636 153.32013 
" clip-path="url(#p555f664e88)" style="fill: none; stroke: #1f77b4; stroke-width: 2; stroke-linecap: square"/>
   </g>
   <g id="line2d_32">
    <path d="M 138.436364 492.48 
L 176.989088 484.395913 
L 176.989088 484.395913 
L 217.16509 475.676259 
L 249.224724 468.494817 
L 282.501817 460.823293 
L 282.501817 460.823293 
L 319.025451 452.139335 
L 319.025451 452.139335 
L 353.925814 443.57511 
L 386.391257 435.367071 
L 386.391257 435.367071 
L 418.856716 426.919119 
L 446.452365 419.545151 
L 446.452365 419.545151 
L 478.511998 410.747963 
L 478.511998 410.747963 
L 508.136712 402.394008 
L 508.136712 402.394008 
L 539.79052 393.22119 
L 567.791994 384.889273 
L 597.010883 375.972411 
L 597.010883 375.972411 
L 627.447247 366.435923 
L 627.447247 366.435923 
L 655.854515 357.301665 
L 655.854515 357.301665 
L 683.855959 348.071023 
L 683.855959 348.071023 
L 707.393448 340.135014 
L 735.800717 330.3358 
L 747.163636 326.348128 
L 747.163636 326.348128 
" clip-path="url(#p555f664e88)" style="fill: none; stroke: #ff7f0e; stroke-width: 2; stroke-linecap: square"/>
   </g>
   <g id="patch_3">
    <path d="M 108 512.64 
L 108 69.12 
" style="fill: none; stroke: #000000; stroke-width: 0.8; stroke-linejoin: miter; stroke-linecap: square"/>
   </g>
   <g id="patch_4">
    <path d="M 777.6 512.64 
L 777.6 69.12 
" style="fill: none; stroke: #000000; stroke-width: 0.8; stroke-linejoin: miter; stroke-linecap: square"/>
   </g>
   <g id="patch_5">
    <path d="M 108 512.64 
L 777.6 512.64 
" style="fill: none; stroke: #000000; stroke-width: 0.8; stroke-linejoin: miter; stroke-linecap: square"/>
   </g>
   <g id="patch_6">
    <path d="M 108 69.12 
L 777.6 69.12 
" style="fill: none; stroke: #000000; stroke-width: 0.8; stroke-linejoin: miter; stroke-linecap: square"/>
   </g>
   <g id="text_18">
    <!-- Price by Risk-free rate. Moneyness=0.9 -->
    <g transform="translate(245.539062 63.12) scale(0.2 -0.2)">
     <defs>
      <path id="DejaVuSans-62" d="M 3116 1747 
Q 3116 2381 2855 2742 
Q 2594 3103 2138 3103 
Q 1681 3103 1420 2742 
Q 1159 2381 1159 1747 
Q 1159 1113 1420 752 
Q 1681 391 2138 391 
Q 2594 391 2855 752 
Q 3116 1113 3116 1747 
z
M 1159 2969 
Q 1341 3281 1617 3432 
Q 1894 3584 2278 3584 
Q 2916 3584 3314 3078 
Q 3713 2572 3713 1747 
Q 3713 922 3314 415 
Q 2916 -91 2278 -91 
Q 1894 -91 1617 61 
Q 1341 213 1159 525 
L 1159 0 
L 581 0 
L 581 4863 
L 1159 4863 
L 1159 2969 
z
" transform="scale(0.015625)"/>
      <path id="DejaVuSans-79" d="M 2059 -325 
Q 1816 -950 1584 -1140 
Q 1353 -1331 966 -1331 
L 506 -1331 
L 506 -850 
L 844 -850 
Q 1081 -850 1212 -737 
Q 1344 -625 1503 -206 
L 1606 56 
L 191 3500 
L 800 3500 
L 1894 763 
L 2988 3500 
L 3597 3500 
L 2059 -325 
z
" transform="scale(0.015625)"/>
      <path id="DejaVuSans-4d" d="M 628 4666 
L 1569 4666 
L 2759 1491 
L 3956 4666 
L 4897 4666 
L 4897 0 
L 4281 0 
L 4281 4097 
L 3078 897 
L 2444 897 
L 1241 4097 
L 1241 0 
L 628 0 
L 628 4666 
z
" transform="scale(0.015625)"/>
      <path id="DejaVuSans-6e" d="M 3513 2113 
L 3513 0 
L 2938 0 
L 2938 2094 
Q 2938 2591 2744 2837 
Q 2550 3084 2163 3084 
Q 1697 3084 1428 2787 
Q 1159 2491 1159 1978 
L 1159 0 
L 581 0 
L 581 3500 
L 1159 3500 
L 1159 2956 
Q 1366 3272 1645 3428 
Q 1925 3584 2291 3584 
Q 2894 3584 3203 3211 
Q 3513 2838 3513 2113 
z
" transform="scale(0.015625)"/>
      <path id="DejaVuSans-3d" d="M 678 2906 
L 4684 2906 
L 4684 2381 
L 678 2381 
L 678 2906 
z
M 678 1631 
L 4684 1631 
L 4684 1100 
L 678 1100 
L 678 1631 
z
" transform="scale(0.015625)"/>
      <path id="DejaVuSans-39" d="M 703 97 
L 703 672 
Q 941 559 1184 500 
Q 1428 441 1663 441 
Q 2288 441 2617 861 
Q 2947 1281 2994 2138 
Q 2813 1869 2534 1725 
Q 2256 1581 1919 1581 
Q 1219 1581 811 2004 
Q 403 2428 403 3163 
Q 403 3881 828 4315 
Q 1253 4750 1959 4750 
Q 2769 4750 3195 4129 
Q 3622 3509 3622 2328 
Q 3622 1225 3098 567 
Q 2575 -91 1691 -91 
Q 1453 -91 1209 -44 
Q 966 3 703 97 
z
M 1959 2075 
Q 2384 2075 2632 2365 
Q 2881 2656 2881 3163 
Q 2881 3666 2632 3958 
Q 2384 4250 1959 4250 
Q 1534 4250 1286 3958 
Q 1038 3666 1038 3163 
Q 1038 2656 1286 2365 
Q 1534 2075 1959 2075 
z
" transform="scale(0.015625)"/>
     </defs>
     <use xlink:href="#DejaVuSans-50"/>
     <use xlink:href="#DejaVuSans-72" x="58.552734"/>
     <use xlink:href="#DejaVuSans-69" x="99.666016"/>
     <use xlink:href="#DejaVuSans-63" x="127.449219"/>
     <use xlink:href="#DejaVuSans-65" x="182.429688"/>
     <use xlink:href="#DejaVuSans-20" x="243.953125"/>
     <use xlink:href="#DejaVuSans-62" x="275.740234"/>
     <use xlink:href="#DejaVuSans-79" x="339.216797"/>
     <use xlink:href="#DejaVuSans-20" x="398.396484"/>
     <use xlink:href="#DejaVuSans-52" x="430.183594"/>
     <use xlink:href="#DejaVuSans-69" x="499.666016"/>
     <use xlink:href="#DejaVuSans-73" x="527.449219"/>
     <use xlink:href="#DejaVuSans-6b" x="579.548828"/>
     <use xlink:href="#DejaVuSans-2d" x="637.458984"/>
     <use xlink:href="#DejaVuSans-66" x="673.542969"/>
     <use xlink:href="#DejaVuSans-72" x="708.748047"/>
     <use xlink:href="#DejaVuSans-65" x="747.611328"/>
     <use xlink:href="#DejaVuSans-65" x="809.134766"/>
     <use xlink:href="#DejaVuSans-20" x="870.658203"/>
     <use xlink:href="#DejaVuSans-72" x="902.445312"/>
     <use xlink:href="#DejaVuSans-61" x="943.558594"/>
     <use xlink:href="#DejaVuSans-74" x="1004.837891"/>
     <use xlink:href="#DejaVuSans-65" x="1044.046875"/>
     <use xlink:href="#DejaVuSans-2e" x="1105.570312"/>
     <use xlink:href="#DejaVuSans-20" x="1137.357422"/>
     <use xlink:href="#DejaVuSans-4d" x="1169.144531"/>
     <use xlink:href="#DejaVuSans-6f" x="1255.423828"/>
     <use xlink:href="#DejaVuSans-6e" x="1316.605469"/>
     <use xlink:href="#DejaVuSans-65" x="1379.984375"/>
     <use xlink:href="#DejaVuSans-79" x="1441.507812"/>
     <use xlink:href="#DejaVuSans-6e" x="1500.6875"/>
     <use xlink:href="#DejaVuSans-65" x="1564.066406"/>
     <use xlink:href="#DejaVuSans-73" x="1625.589844"/>
     <use xlink:href="#DejaVuSans-73" x="1677.689453"/>
     <use xlink:href="#DejaVuSans-3d" x="1729.789062"/>
     <use xlink:href="#DejaVuSans-30" x="1813.578125"/>
     <use xlink:href="#DejaVuSans-2e" x="1877.201172"/>
     <use xlink:href="#DejaVuSans-39" x="1908.988281"/>
    </g>
   </g>
   <g id="legend_1">
    <g id="patch_7">
     <path d="M 120.6 136.36125 
L 287.018437 136.36125 
Q 290.618437 136.36125 290.618437 132.76125 
L 290.618437 81.72 
Q 290.618437 78.12 287.018437 78.12 
L 120.6 78.12 
Q 117 78.12 117 81.72 
L 117 132.76125 
Q 117 136.36125 120.6 136.36125 
z
" style="fill: #ffffff; opacity: 0.8; stroke: #cccccc; stroke-linejoin: miter"/>
    </g>
    <g id="line2d_33">
     <path d="M 124.2 92.697188 
L 142.2 92.697188 
L 160.2 92.697188 
" style="fill: none; stroke: #1f77b4; stroke-width: 2; stroke-linecap: square"/>
    </g>
    <g id="text_19">
     <!-- Monte Carlo -->
     <g transform="translate(174.6 98.997188) scale(0.18 -0.18)">
      <defs>
       <path id="DejaVuSans-43" d="M 4122 4306 
L 4122 3641 
Q 3803 3938 3442 4084 
Q 3081 4231 2675 4231 
Q 1875 4231 1450 3742 
Q 1025 3253 1025 2328 
Q 1025 1406 1450 917 
Q 1875 428 2675 428 
Q 3081 428 3442 575 
Q 3803 722 4122 1019 
L 4122 359 
Q 3791 134 3420 21 
Q 3050 -91 2638 -91 
Q 1578 -91 968 557 
Q 359 1206 359 2328 
Q 359 3453 968 4101 
Q 1578 4750 2638 4750 
Q 3056 4750 3426 4639 
Q 3797 4528 4122 4306 
z
" transform="scale(0.015625)"/>
       <path id="DejaVuSans-6c" d="M 603 4863 
L 1178 4863 
L 1178 0 
L 603 0 
L 603 4863 
z
" transform="scale(0.015625)"/>
      </defs>
      <use xlink:href="#DejaVuSans-4d"/>
      <use xlink:href="#DejaVuSans-6f" x="86.279297"/>
      <use xlink:href="#DejaVuSans-6e" x="147.460938"/>
      <use xlink:href="#DejaVuSans-74" x="210.839844"/>
      <use xlink:href="#DejaVuSans-65" x="250.048828"/>
      <use xlink:href="#DejaVuSans-20" x="311.572266"/>
      <use xlink:href="#DejaVuSans-43" x="343.359375"/>
      <use xlink:href="#DejaVuSans-61" x="413.183594"/>
      <use xlink:href="#DejaVuSans-72" x="474.462891"/>
      <use xlink:href="#DejaVuSans-6c" x="515.576172"/>
      <use xlink:href="#DejaVuSans-6f" x="543.359375"/>
     </g>
    </g>
    <g id="line2d_34">
     <path d="M 124.2 119.117813 
L 142.2 119.117813 
L 160.2 119.117813 
" style="fill: none; stroke: #ff7f0e; stroke-width: 2; stroke-linecap: square"/>
    </g>
    <g id="text_20">
     <!-- Positive net -->
     <g transform="translate(174.6 125.417813) scale(0.18 -0.18)">
      <defs>
       <path id="DejaVuSans-76" d="M 191 3500 
L 800 3500 
L 1894 563 
L 2988 3500 
L 3597 3500 
L 2284 0 
L 1503 0 
L 191 3500 
z
" transform="scale(0.015625)"/>
      </defs>
      <use xlink:href="#DejaVuSans-50"/>
      <use xlink:href="#DejaVuSans-6f" x="56.677734"/>
      <use xlink:href="#DejaVuSans-73" x="117.859375"/>
      <use xlink:href="#DejaVuSans-69" x="169.958984"/>
      <use xlink:href="#DejaVuSans-74" x="197.742188"/>
      <use xlink:href="#DejaVuSans-69" x="236.951172"/>
      <use xlink:href="#DejaVuSans-76" x="264.734375"/>
      <use xlink:href="#DejaVuSans-65" x="323.914062"/>
      <use xlink:href="#DejaVuSans-20" x="385.4375"/>
      <use xlink:href="#DejaVuSans-6e" x="417.224609"/>
      <use xlink:href="#DejaVuSans-65" x="480.603516"/>
      <use xlink:href="#DejaVuSans-74" x="542.126953"/>
     </g>
    </g>
   </g>
  </g>
 </g>
 <defs>
  <clipPath id="p555f664e88">
   <rect x="108" y="69.12" width="669.6" height="443.52"/>
  </clipPath>
 </defs>
</svg>
