<?xml version="1.0" encoding="utf-8" standalone="no"?>
<!DOCTYPE svg PUBLIC "-//W3C//DTD SVG 1.1//EN"
  "http://www.w3.org/Graphics/SVG/1.1/DTD/svg11.dtd">
<svg xmlns:xlink="http://www.w3.org/1999/xlink" width="864pt" height="576pt" viewBox="0 0 864 576" xmlns="http://www.w3.org/2000/svg" version="1.1">
 <metadata>
  <rdf:RDF xmlns:dc="http://purl.org/dc/elements/1.1/" xmlns:cc="http://creativecommons.org/ns#" xmlns:rdf="http://www.w3.org/1999/02/22-rdf-syntax-ns#">
   <cc:Work>
    <dc:type rdf:resource="http://purl.org/dc/dcmitype/StillImage"/>
    <dc:date>2024-03-10T20:01:44.866092</dc:date>
    <dc:format>image/svg+xml</dc:format>
    <dc:creator>
     <cc:Agent>
      <dc:title>Matplotlib v3.7.3, https://matplotlib.org/</dc:title>
     </cc:Agent>
    </dc:creator>
   </cc:Work>
  </rdf:RDF>
 </metadata>
 <defs>
  <style type="text/css">*{stroke-linejoin: round; stroke-linecap: butt}</style>
 </defs>
 <g id="figure_1">
  <g id="patch_1">
   <path d="M 0 576 
L 864 576 
L 864 0 
L 0 0 
z
" style="fill: #ffffff"/>
  </g>
  <g id="axes_1">
   <g id="patch_2">
    <path d="M 108 512.64 
L 777.6 512.64 
L 777.6 69.12 
L 108 69.12 
z
" style="fill: #ffffff"/>
   </g>
   <g id="matplotlib.axis_1">
    <g id="xtick_1">
     <g id="line2d_1">
      <path d="M 199.560217 512.64 
L 199.560217 69.12 
" clip-path="url(#pc45c901cef)" style="fill: none; stroke: #b0b0b0; stroke-width: 0.8; stroke-linecap: square"/>
     </g>
     <g id="line2d_2">
      <defs>
       <path id="mddfc1f174e" d="M 0 0 
L 0 3.5 
" style="stroke: #000000; stroke-width: 0.8"/>
      </defs>
      <g>
       <use xlink:href="#mddfc1f174e" x="199.560217" y="512.64" style="stroke: #000000; stroke-width: 0.8"/>
      </g>
     </g>
     <g id="text_1">
      <!-- 0.6 -->
      <g transform="translate(191.608654 527.238438) scale(0.1 -0.1)">
       <defs>
        <path id="DejaVuSans-30" d="M 2034 4250 
Q 1547 4250 1301 3770 
Q 1056 3291 1056 2328 
Q 1056 1369 1301 889 
Q 1547 409 2034 409 
Q 2525 409 2770 889 
Q 3016 1369 3016 2328 
Q 3016 3291 2770 3770 
Q 2525 4250 2034 4250 
z
M 2034 4750 
Q 2819 4750 3233 4129 
Q 3647 3509 3647 2328 
Q 3647 1150 3233 529 
Q 2819 -91 2034 -91 
Q 1250 -91 836 529 
Q 422 1150 422 2328 
Q 422 3509 836 4129 
Q 1250 4750 2034 4750 
z
" transform="scale(0.015625)"/>
        <path id="DejaVuSans-2e" d="M 684 794 
L 1344 794 
L 1344 0 
L 684 0 
L 684 794 
z
" transform="scale(0.015625)"/>
        <path id="DejaVuSans-36" d="M 2113 2584 
Q 1688 2584 1439 2293 
Q 1191 2003 1191 1497 
Q 1191 994 1439 701 
Q 1688 409 2113 409 
Q 2538 409 2786 701 
Q 3034 994 3034 1497 
Q 3034 2003 2786 2293 
Q 2538 2584 2113 2584 
z
M 3366 4563 
L 3366 3988 
Q 3128 4100 2886 4159 
Q 2644 4219 2406 4219 
Q 1781 4219 1451 3797 
Q 1122 3375 1075 2522 
Q 1259 2794 1537 2939 
Q 1816 3084 2150 3084 
Q 2853 3084 3261 2657 
Q 3669 2231 3669 1497 
Q 3669 778 3244 343 
Q 2819 -91 2113 -91 
Q 1303 -91 875 529 
Q 447 1150 447 2328 
Q 447 3434 972 4092 
Q 1497 4750 2381 4750 
Q 2619 4750 2861 4703 
Q 3103 4656 3366 4563 
z
" transform="scale(0.015625)"/>
       </defs>
       <use xlink:href="#DejaVuSans-30"/>
       <use xlink:href="#DejaVuSans-2e" x="63.623047"/>
       <use xlink:href="#DejaVuSans-36" x="95.410156"/>
      </g>
     </g>
    </g>
    <g id="xtick_2">
     <g id="line2d_3">
      <path d="M 322.052877 512.64 
L 322.052877 69.12 
" clip-path="url(#pc45c901cef)" style="fill: none; stroke: #b0b0b0; stroke-width: 0.8; stroke-linecap: square"/>
     </g>
     <g id="line2d_4">
      <g>
       <use xlink:href="#mddfc1f174e" x="322.052877" y="512.64" style="stroke: #000000; stroke-width: 0.8"/>
      </g>
     </g>
     <g id="text_2">
      <!-- 0.8 -->
      <g transform="translate(314.101314 527.238438) scale(0.1 -0.1)">
       <defs>
        <path id="DejaVuSans-38" d="M 2034 2216 
Q 1584 2216 1326 1975 
Q 1069 1734 1069 1313 
Q 1069 891 1326 650 
Q 1584 409 2034 409 
Q 2484 409 2743 651 
Q 3003 894 3003 1313 
Q 3003 1734 2745 1975 
Q 2488 2216 2034 2216 
z
M 1403 2484 
Q 997 2584 770 2862 
Q 544 3141 544 3541 
Q 544 4100 942 4425 
Q 1341 4750 2034 4750 
Q 2731 4750 3128 4425 
Q 3525 4100 3525 3541 
Q 3525 3141 3298 2862 
Q 3072 2584 2669 2484 
Q 3125 2378 3379 2068 
Q 3634 1759 3634 1313 
Q 3634 634 3220 271 
Q 2806 -91 2034 -91 
Q 1263 -91 848 271 
Q 434 634 434 1313 
Q 434 1759 690 2068 
Q 947 2378 1403 2484 
z
M 1172 3481 
Q 1172 3119 1398 2916 
Q 1625 2713 2034 2713 
Q 2441 2713 2670 2916 
Q 2900 3119 2900 3481 
Q 2900 3844 2670 4047 
Q 2441 4250 2034 4250 
Q 1625 4250 1398 4047 
Q 1172 3844 1172 3481 
z
" transform="scale(0.015625)"/>
       </defs>
       <use xlink:href="#DejaVuSans-30"/>
       <use xlink:href="#DejaVuSans-2e" x="63.623047"/>
       <use xlink:href="#DejaVuSans-38" x="95.410156"/>
      </g>
     </g>
    </g>
    <g id="xtick_3">
     <g id="line2d_5">
      <path d="M 444.545536 512.64 
L 444.545536 69.12 
" clip-path="url(#pc45c901cef)" style="fill: none; stroke: #b0b0b0; stroke-width: 0.8; stroke-linecap: square"/>
     </g>
     <g id="line2d_6">
      <g>
       <use xlink:href="#mddfc1f174e" x="444.545536" y="512.64" style="stroke: #000000; stroke-width: 0.8"/>
      </g>
     </g>
     <g id="text_3">
      <!-- 1.0 -->
      <g transform="translate(436.593974 527.238438) scale(0.1 -0.1)">
       <defs>
        <path id="DejaVuSans-31" d="M 794 531 
L 1825 531 
L 1825 4091 
L 703 3866 
L 703 4441 
L 1819 4666 
L 2450 4666 
L 2450 531 
L 3481 531 
L 3481 0 
L 794 0 
L 794 531 
z
" transform="scale(0.015625)"/>
       </defs>
       <use xlink:href="#DejaVuSans-31"/>
       <use xlink:href="#DejaVuSans-2e" x="63.623047"/>
       <use xlink:href="#DejaVuSans-30" x="95.410156"/>
      </g>
     </g>
    </g>
    <g id="xtick_4">
     <g id="line2d_7">
      <path d="M 567.038196 512.64 
L 567.038196 69.12 
" clip-path="url(#pc45c901cef)" style="fill: none; stroke: #b0b0b0; stroke-width: 0.8; stroke-linecap: square"/>
     </g>
     <g id="line2d_8">
      <g>
       <use xlink:href="#mddfc1f174e" x="567.038196" y="512.64" style="stroke: #000000; stroke-width: 0.8"/>
      </g>
     </g>
     <g id="text_4">
      <!-- 1.2 -->
      <g transform="translate(559.086633 527.238438) scale(0.1 -0.1)">
       <defs>
        <path id="DejaVuSans-32" d="M 1228 531 
L 3431 531 
L 3431 0 
L 469 0 
L 469 531 
Q 828 903 1448 1529 
Q 2069 2156 2228 2338 
Q 2531 2678 2651 2914 
Q 2772 3150 2772 3378 
Q 2772 3750 2511 3984 
Q 2250 4219 1831 4219 
Q 1534 4219 1204 4116 
Q 875 4013 500 3803 
L 500 4441 
Q 881 4594 1212 4672 
Q 1544 4750 1819 4750 
Q 2544 4750 2975 4387 
Q 3406 4025 3406 3419 
Q 3406 3131 3298 2873 
Q 3191 2616 2906 2266 
Q 2828 2175 2409 1742 
Q 1991 1309 1228 531 
z
" transform="scale(0.015625)"/>
       </defs>
       <use xlink:href="#DejaVuSans-31"/>
       <use xlink:href="#DejaVuSans-2e" x="63.623047"/>
       <use xlink:href="#DejaVuSans-32" x="95.410156"/>
      </g>
     </g>
    </g>
    <g id="xtick_5">
     <g id="line2d_9">
      <path d="M 689.530856 512.64 
L 689.530856 69.12 
" clip-path="url(#pc45c901cef)" style="fill: none; stroke: #b0b0b0; stroke-width: 0.8; stroke-linecap: square"/>
     </g>
     <g id="line2d_10">
      <g>
       <use xlink:href="#mddfc1f174e" x="689.530856" y="512.64" style="stroke: #000000; stroke-width: 0.8"/>
      </g>
     </g>
     <g id="text_5">
      <!-- 1.4 -->
      <g transform="translate(681.579293 527.238438) scale(0.1 -0.1)">
       <defs>
        <path id="DejaVuSans-34" d="M 2419 4116 
L 825 1625 
L 2419 1625 
L 2419 4116 
z
M 2253 4666 
L 3047 4666 
L 3047 1625 
L 3713 1625 
L 3713 1100 
L 3047 1100 
L 3047 0 
L 2419 0 
L 2419 1100 
L 313 1100 
L 313 1709 
L 2253 4666 
z
" transform="scale(0.015625)"/>
       </defs>
       <use xlink:href="#DejaVuSans-31"/>
       <use xlink:href="#DejaVuSans-2e" x="63.623047"/>
       <use xlink:href="#DejaVuSans-34" x="95.410156"/>
      </g>
     </g>
    </g>
    <g id="text_6">
     <!-- TTM -->
     <g transform="translate(424.198125 546.995312) scale(0.18 -0.18)">
      <defs>
       <path id="DejaVuSans-54" d="M -19 4666 
L 3928 4666 
L 3928 4134 
L 2272 4134 
L 2272 0 
L 1638 0 
L 1638 4134 
L -19 4134 
L -19 4666 
z
" transform="scale(0.015625)"/>
       <path id="DejaVuSans-4d" d="M 628 4666 
L 1569 4666 
L 2759 1491 
L 3956 4666 
L 4897 4666 
L 4897 0 
L 4281 0 
L 4281 4097 
L 3078 897 
L 2444 897 
L 1241 4097 
L 1241 0 
L 628 0 
L 628 4666 
z
" transform="scale(0.015625)"/>
      </defs>
      <use xlink:href="#DejaVuSans-54"/>
      <use xlink:href="#DejaVuSans-54" x="59.333984"/>
      <use xlink:href="#DejaVuSans-4d" x="120.417969"/>
     </g>
    </g>
   </g>
   <g id="matplotlib.axis_2">
    <g id="ytick_1">
     <g id="line2d_11">
      <path d="M 108 484.136646 
L 777.6 484.136646 
" clip-path="url(#pc45c901cef)" style="fill: none; stroke: #b0b0b0; stroke-width: 0.8; stroke-linecap: square"/>
     </g>
     <g id="line2d_12">
      <defs>
       <path id="m1da16ec09f" d="M 0 0 
L -3.5 0 
" style="stroke: #000000; stroke-width: 0.8"/>
      </defs>
      <g>
       <use xlink:href="#m1da16ec09f" x="108" y="484.136646" style="stroke: #000000; stroke-width: 0.8"/>
      </g>
     </g>
     <g id="text_7">
      <!-- 0.005 -->
      <g transform="translate(72.371875 487.935865) scale(0.1 -0.1)">
       <defs>
        <path id="DejaVuSans-35" d="M 691 4666 
L 3169 4666 
L 3169 4134 
L 1269 4134 
L 1269 2991 
Q 1406 3038 1543 3061 
Q 1681 3084 1819 3084 
Q 2600 3084 3056 2656 
Q 3513 2228 3513 1497 
Q 3513 744 3044 326 
Q 2575 -91 1722 -91 
Q 1428 -91 1123 -41 
Q 819 9 494 109 
L 494 744 
Q 775 591 1075 516 
Q 1375 441 1709 441 
Q 2250 441 2565 725 
Q 2881 1009 2881 1497 
Q 2881 1984 2565 2268 
Q 2250 2553 1709 2553 
Q 1456 2553 1204 2497 
Q 953 2441 691 2322 
L 691 4666 
z
" transform="scale(0.015625)"/>
       </defs>
       <use xlink:href="#DejaVuSans-30"/>
       <use xlink:href="#DejaVuSans-2e" x="63.623047"/>
       <use xlink:href="#DejaVuSans-30" x="95.410156"/>
       <use xlink:href="#DejaVuSans-30" x="159.033203"/>
       <use xlink:href="#DejaVuSans-35" x="222.65625"/>
      </g>
     </g>
    </g>
    <g id="ytick_2">
     <g id="line2d_13">
      <path d="M 108 414.340401 
L 777.6 414.340401 
" clip-path="url(#pc45c901cef)" style="fill: none; stroke: #b0b0b0; stroke-width: 0.8; stroke-linecap: square"/>
     </g>
     <g id="line2d_14">
      <g>
       <use xlink:href="#m1da16ec09f" x="108" y="414.340401" style="stroke: #000000; stroke-width: 0.8"/>
      </g>
     </g>
     <g id="text_8">
      <!-- 0.010 -->
      <g transform="translate(72.371875 418.139619) scale(0.1 -0.1)">
       <use xlink:href="#DejaVuSans-30"/>
       <use xlink:href="#DejaVuSans-2e" x="63.623047"/>
       <use xlink:href="#DejaVuSans-30" x="95.410156"/>
       <use xlink:href="#DejaVuSans-31" x="159.033203"/>
       <use xlink:href="#DejaVuSans-30" x="222.65625"/>
      </g>
     </g>
    </g>
    <g id="ytick_3">
     <g id="line2d_15">
      <path d="M 108 344.544155 
L 777.6 344.544155 
" clip-path="url(#pc45c901cef)" style="fill: none; stroke: #b0b0b0; stroke-width: 0.8; stroke-linecap: square"/>
     </g>
     <g id="line2d_16">
      <g>
       <use xlink:href="#m1da16ec09f" x="108" y="344.544155" style="stroke: #000000; stroke-width: 0.8"/>
      </g>
     </g>
     <g id="text_9">
      <!-- 0.015 -->
      <g transform="translate(72.371875 348.343374) scale(0.1 -0.1)">
       <use xlink:href="#DejaVuSans-30"/>
       <use xlink:href="#DejaVuSans-2e" x="63.623047"/>
       <use xlink:href="#DejaVuSans-30" x="95.410156"/>
       <use xlink:href="#DejaVuSans-31" x="159.033203"/>
       <use xlink:href="#DejaVuSans-35" x="222.65625"/>
      </g>
     </g>
    </g>
    <g id="ytick_4">
     <g id="line2d_17">
      <path d="M 108 274.747909 
L 777.6 274.747909 
" clip-path="url(#pc45c901cef)" style="fill: none; stroke: #b0b0b0; stroke-width: 0.8; stroke-linecap: square"/>
     </g>
     <g id="line2d_18">
      <g>
       <use xlink:href="#m1da16ec09f" x="108" y="274.747909" style="stroke: #000000; stroke-width: 0.8"/>
      </g>
     </g>
     <g id="text_10">
      <!-- 0.020 -->
      <g transform="translate(72.371875 278.547128) scale(0.1 -0.1)">
       <use xlink:href="#DejaVuSans-30"/>
       <use xlink:href="#DejaVuSans-2e" x="63.623047"/>
       <use xlink:href="#DejaVuSans-30" x="95.410156"/>
       <use xlink:href="#DejaVuSans-32" x="159.033203"/>
       <use xlink:href="#DejaVuSans-30" x="222.65625"/>
      </g>
     </g>
    </g>
    <g id="ytick_5">
     <g id="line2d_19">
      <path d="M 108 204.951664 
L 777.6 204.951664 
" clip-path="url(#pc45c901cef)" style="fill: none; stroke: #b0b0b0; stroke-width: 0.8; stroke-linecap: square"/>
     </g>
     <g id="line2d_20">
      <g>
       <use xlink:href="#m1da16ec09f" x="108" y="204.951664" style="stroke: #000000; stroke-width: 0.8"/>
      </g>
     </g>
     <g id="text_11">
      <!-- 0.025 -->
      <g transform="translate(72.371875 208.750883) scale(0.1 -0.1)">
       <use xlink:href="#DejaVuSans-30"/>
       <use xlink:href="#DejaVuSans-2e" x="63.623047"/>
       <use xlink:href="#DejaVuSans-30" x="95.410156"/>
       <use xlink:href="#DejaVuSans-32" x="159.033203"/>
       <use xlink:href="#DejaVuSans-35" x="222.65625"/>
      </g>
     </g>
    </g>
    <g id="ytick_6">
     <g id="line2d_21">
      <path d="M 108 135.155418 
L 777.6 135.155418 
" clip-path="url(#pc45c901cef)" style="fill: none; stroke: #b0b0b0; stroke-width: 0.8; stroke-linecap: square"/>
     </g>
     <g id="line2d_22">
      <g>
       <use xlink:href="#m1da16ec09f" x="108" y="135.155418" style="stroke: #000000; stroke-width: 0.8"/>
      </g>
     </g>
     <g id="text_12">
      <!-- 0.030 -->
      <g transform="translate(72.371875 138.954637) scale(0.1 -0.1)">
       <defs>
        <path id="DejaVuSans-33" d="M 2597 2516 
Q 3050 2419 3304 2112 
Q 3559 1806 3559 1356 
Q 3559 666 3084 287 
Q 2609 -91 1734 -91 
Q 1441 -91 1130 -33 
Q 819 25 488 141 
L 488 750 
Q 750 597 1062 519 
Q 1375 441 1716 441 
Q 2309 441 2620 675 
Q 2931 909 2931 1356 
Q 2931 1769 2642 2001 
Q 2353 2234 1838 2234 
L 1294 2234 
L 1294 2753 
L 1863 2753 
Q 2328 2753 2575 2939 
Q 2822 3125 2822 3475 
Q 2822 3834 2567 4026 
Q 2313 4219 1838 4219 
Q 1578 4219 1281 4162 
Q 984 4106 628 3988 
L 628 4550 
Q 988 4650 1302 4700 
Q 1616 4750 1894 4750 
Q 2613 4750 3031 4423 
Q 3450 4097 3450 3541 
Q 3450 3153 3228 2886 
Q 3006 2619 2597 2516 
z
" transform="scale(0.015625)"/>
       </defs>
       <use xlink:href="#DejaVuSans-30"/>
       <use xlink:href="#DejaVuSans-2e" x="63.623047"/>
       <use xlink:href="#DejaVuSans-30" x="95.410156"/>
       <use xlink:href="#DejaVuSans-33" x="159.033203"/>
       <use xlink:href="#DejaVuSans-30" x="222.65625"/>
      </g>
     </g>
    </g>
    <g id="text_13">
     <!-- Price/strike ratio -->
     <g transform="translate(64.628438 364.318594) rotate(-90) scale(0.18 -0.18)">
      <defs>
       <path id="DejaVuSans-50" d="M 1259 4147 
L 1259 2394 
L 2053 2394 
Q 2494 2394 2734 2622 
Q 2975 2850 2975 3272 
Q 2975 3691 2734 3919 
Q 2494 4147 2053 4147 
L 1259 4147 
z
M 628 4666 
L 2053 4666 
Q 2838 4666 3239 4311 
Q 3641 3956 3641 3272 
Q 3641 2581 3239 2228 
Q 2838 1875 2053 1875 
L 1259 1875 
L 1259 0 
L 628 0 
L 628 4666 
z
" transform="scale(0.015625)"/>
       <path id="DejaVuSans-72" d="M 2631 2963 
Q 2534 3019 2420 3045 
Q 2306 3072 2169 3072 
Q 1681 3072 1420 2755 
Q 1159 2438 1159 1844 
L 1159 0 
L 581 0 
L 581 3500 
L 1159 3500 
L 1159 2956 
Q 1341 3275 1631 3429 
Q 1922 3584 2338 3584 
Q 2397 3584 2469 3576 
Q 2541 3569 2628 3553 
L 2631 2963 
z
" transform="scale(0.015625)"/>
       <path id="DejaVuSans-69" d="M 603 3500 
L 1178 3500 
L 1178 0 
L 603 0 
L 603 3500 
z
M 603 4863 
L 1178 4863 
L 1178 4134 
L 603 4134 
L 603 4863 
z
" transform="scale(0.015625)"/>
       <path id="DejaVuSans-63" d="M 3122 3366 
L 3122 2828 
Q 2878 2963 2633 3030 
Q 2388 3097 2138 3097 
Q 1578 3097 1268 2742 
Q 959 2388 959 1747 
Q 959 1106 1268 751 
Q 1578 397 2138 397 
Q 2388 397 2633 464 
Q 2878 531 3122 666 
L 3122 134 
Q 2881 22 2623 -34 
Q 2366 -91 2075 -91 
Q 1284 -91 818 406 
Q 353 903 353 1747 
Q 353 2603 823 3093 
Q 1294 3584 2113 3584 
Q 2378 3584 2631 3529 
Q 2884 3475 3122 3366 
z
" transform="scale(0.015625)"/>
       <path id="DejaVuSans-65" d="M 3597 1894 
L 3597 1613 
L 953 1613 
Q 991 1019 1311 708 
Q 1631 397 2203 397 
Q 2534 397 2845 478 
Q 3156 559 3463 722 
L 3463 178 
Q 3153 47 2828 -22 
Q 2503 -91 2169 -91 
Q 1331 -91 842 396 
Q 353 884 353 1716 
Q 353 2575 817 3079 
Q 1281 3584 2069 3584 
Q 2775 3584 3186 3129 
Q 3597 2675 3597 1894 
z
M 3022 2063 
Q 3016 2534 2758 2815 
Q 2500 3097 2075 3097 
Q 1594 3097 1305 2825 
Q 1016 2553 972 2059 
L 3022 2063 
z
" transform="scale(0.015625)"/>
       <path id="DejaVuSans-2f" d="M 1625 4666 
L 2156 4666 
L 531 -594 
L 0 -594 
L 1625 4666 
z
" transform="scale(0.015625)"/>
       <path id="DejaVuSans-73" d="M 2834 3397 
L 2834 2853 
Q 2591 2978 2328 3040 
Q 2066 3103 1784 3103 
Q 1356 3103 1142 2972 
Q 928 2841 928 2578 
Q 928 2378 1081 2264 
Q 1234 2150 1697 2047 
L 1894 2003 
Q 2506 1872 2764 1633 
Q 3022 1394 3022 966 
Q 3022 478 2636 193 
Q 2250 -91 1575 -91 
Q 1294 -91 989 -36 
Q 684 19 347 128 
L 347 722 
Q 666 556 975 473 
Q 1284 391 1588 391 
Q 1994 391 2212 530 
Q 2431 669 2431 922 
Q 2431 1156 2273 1281 
Q 2116 1406 1581 1522 
L 1381 1569 
Q 847 1681 609 1914 
Q 372 2147 372 2553 
Q 372 3047 722 3315 
Q 1072 3584 1716 3584 
Q 2034 3584 2315 3537 
Q 2597 3491 2834 3397 
z
" transform="scale(0.015625)"/>
       <path id="DejaVuSans-74" d="M 1172 4494 
L 1172 3500 
L 2356 3500 
L 2356 3053 
L 1172 3053 
L 1172 1153 
Q 1172 725 1289 603 
Q 1406 481 1766 481 
L 2356 481 
L 2356 0 
L 1766 0 
Q 1100 0 847 248 
Q 594 497 594 1153 
L 594 3053 
L 172 3053 
L 172 3500 
L 594 3500 
L 594 4494 
L 1172 4494 
z
" transform="scale(0.015625)"/>
       <path id="DejaVuSans-6b" d="M 581 4863 
L 1159 4863 
L 1159 1991 
L 2875 3500 
L 3609 3500 
L 1753 1863 
L 3688 0 
L 2938 0 
L 1159 1709 
L 1159 0 
L 581 0 
L 581 4863 
z
" transform="scale(0.015625)"/>
       <path id="DejaVuSans-20" transform="scale(0.015625)"/>
       <path id="DejaVuSans-61" d="M 2194 1759 
Q 1497 1759 1228 1600 
Q 959 1441 959 1056 
Q 959 750 1161 570 
Q 1363 391 1709 391 
Q 2188 391 2477 730 
Q 2766 1069 2766 1631 
L 2766 1759 
L 2194 1759 
z
M 3341 1997 
L 3341 0 
L 2766 0 
L 2766 531 
Q 2569 213 2275 61 
Q 1981 -91 1556 -91 
Q 1019 -91 701 211 
Q 384 513 384 1019 
Q 384 1609 779 1909 
Q 1175 2209 1959 2209 
L 2766 2209 
L 2766 2266 
Q 2766 2663 2505 2880 
Q 2244 3097 1772 3097 
Q 1472 3097 1187 3025 
Q 903 2953 641 2809 
L 641 3341 
Q 956 3463 1253 3523 
Q 1550 3584 1831 3584 
Q 2591 3584 2966 3190 
Q 3341 2797 3341 1997 
z
" transform="scale(0.015625)"/>
       <path id="DejaVuSans-6f" d="M 1959 3097 
Q 1497 3097 1228 2736 
Q 959 2375 959 1747 
Q 959 1119 1226 758 
Q 1494 397 1959 397 
Q 2419 397 2687 759 
Q 2956 1122 2956 1747 
Q 2956 2369 2687 2733 
Q 2419 3097 1959 3097 
z
M 1959 3584 
Q 2709 3584 3137 3096 
Q 3566 2609 3566 1747 
Q 3566 888 3137 398 
Q 2709 -91 1959 -91 
Q 1206 -91 779 398 
Q 353 888 353 1747 
Q 353 2609 779 3096 
Q 1206 3584 1959 3584 
z
" transform="scale(0.015625)"/>
      </defs>
      <use xlink:href="#DejaVuSans-50"/>
      <use xlink:href="#DejaVuSans-72" x="58.552734"/>
      <use xlink:href="#DejaVuSans-69" x="99.666016"/>
      <use xlink:href="#DejaVuSans-63" x="127.449219"/>
      <use xlink:href="#DejaVuSans-65" x="182.429688"/>
      <use xlink:href="#DejaVuSans-2f" x="243.953125"/>
      <use xlink:href="#DejaVuSans-73" x="277.644531"/>
      <use xlink:href="#DejaVuSans-74" x="329.744141"/>
      <use xlink:href="#DejaVuSans-72" x="368.953125"/>
      <use xlink:href="#DejaVuSans-69" x="410.066406"/>
      <use xlink:href="#DejaVuSans-6b" x="437.849609"/>
      <use xlink:href="#DejaVuSans-65" x="492.134766"/>
      <use xlink:href="#DejaVuSans-20" x="553.658203"/>
      <use xlink:href="#DejaVuSans-72" x="585.445312"/>
      <use xlink:href="#DejaVuSans-61" x="626.558594"/>
      <use xlink:href="#DejaVuSans-74" x="687.837891"/>
      <use xlink:href="#DejaVuSans-69" x="727.046875"/>
      <use xlink:href="#DejaVuSans-6f" x="754.830078"/>
     </g>
    </g>
   </g>
   <g id="line2d_23">
    <path d="M 138.436364 478.552951 
L 138.926343 484.136622 
L 140.273766 482.740732 
L 141.927436 481.344835 
L 142.233646 482.740732 
L 143.213603 482.740732 
L 143.519813 481.344835 
L 147.194618 485.532609 
L 147.439608 475.761125 
L 147.684561 478.552951 
L 151.910565 479.948861 
L 154.727889 472.969267 
L 155.646591 479.948861 
L 156.871538 481.344835 
L 157.30026 475.761125 
L 159.321396 475.761125 
L 161.893731 472.969267 
L 162.628663 472.969267 
L 162.996165 471.573325 
L 167.344646 464.593706 
L 170.039494 471.573325 
L 171.264405 468.781454 
L 177.572801 470.177364 
L 178.491466 465.989603 
L 179.83889 465.989603 
L 179.83889 467.385564 
L 181.431303 460.405912 
L 181.860026 464.593706 
L 182.105015 464.593706 
L 184.493617 461.801809 
L 184.61613 460.405912 
L 185.84104 463.197816 
L 186.269763 461.801809 
L 186.820998 461.801809 
L 187.188464 463.197816 
L 187.55593 456.218171 
L 189.332077 457.614035 
L 189.393333 464.593706 
L 191.659458 460.405912 
L 192.455647 454.822216 
L 193.435568 456.218171 
L 193.925547 461.801809 
L 194.10928 457.614035 
L 194.721772 463.197816 
L 195.272971 463.197816 
L 196.681651 460.405912 
L 199.315242 459.00997 
L 201.458854 459.00997 
L 203.296257 445.050791 
L 204.337435 453.426261 
L 210.645795 453.426261 
L 216.525433 445.050791 
L 216.831679 450.634494 
L 217.137925 449.238474 
L 219.893992 452.030364 
L 220.93517 443.654855 
L 222.221374 446.4467 
L 222.650096 445.050791 
L 225.038698 443.654855 
L 225.896143 442.258906 
L 226.937321 440.862971 
L 227.121054 446.4467 
L 227.121054 443.654855 
L 229.448435 438.071165 
L 229.632168 449.238474 
L 231.102069 438.071165 
L 231.592048 436.675242 
L 232.265759 440.862971 
L 234.654361 438.071165 
L 235.328073 435.279229 
L 236.552984 438.071165 
L 236.797973 436.675242 
L 237.900408 436.675242 
L 238.26791 435.279229 
L 238.32913 442.258906 
L 239.921543 440.862971 
L 244.637527 433.883332 
L 246.046171 432.487449 
L 248.067306 436.675242 
L 248.618542 426.903746 
L 249.353474 432.487449 
L 251.190876 428.29959 
L 251.252133 426.903746 
L 252.477044 431.0915 
L 255.600614 431.0915 
L 259.030393 429.695513 
L 262.705199 425.50781 
L 265.15502 419.924107 
L 266.134978 426.903746 
L 266.80869 421.320042 
L 268.462323 414.340417 
L 268.707313 418.52821 
L 269.258548 418.52821 
L 271.892139 419.924107 
L 272.075872 421.320042 
L 272.443338 419.924107 
L 272.688328 419.924107 
L 273.11705 417.132249 
L 273.300783 419.924107 
L 278.384233 418.52821 
L 278.445489 417.132249 
L 278.567966 419.924107 
L 278.874211 421.320042 
L 279.057944 417.132249 
L 280.160379 422.715952 
L 280.344112 415.736261 
L 280.834091 418.52821 
L 281.201557 412.944442 
L 282.365247 418.52821 
L 282.671493 411.548507 
L 284.018917 412.944442 
L 285.060095 415.736261 
L 287.57121 419.924107 
L 287.816163 418.52821 
L 288.122409 410.152597 
L 288.367398 412.944442 
L 296.084439 408.7567 
L 298.656773 408.7567 
L 299.085496 403.172932 
L 300.310443 408.7567 
L 300.616652 404.568972 
L 300.739165 410.152597 
L 300.922898 405.964907 
L 301.290364 408.7567 
L 302.454055 397.589268 
L 303.250244 404.568972 
L 304.046468 407.360804 
L 304.903913 414.340417 
L 306.128824 404.568972 
L 306.251337 396.193307 
L 307.537504 405.964907 
L 307.721237 405.964907 
L 308.517426 404.568972 
L 309.313651 393.401553 
L 313.294666 393.401553 
L 316.908178 397.589268 
L 317.214424 398.985295 
L 317.520634 393.401553 
L 317.888136 398.985295 
L 317.888136 403.172932 
L 318.378115 393.401553 
L 318.99057 398.985295 
L 320.031748 401.777062 
L 321.685381 392.005565 
L 323.767774 390.609746 
L 324.747732 389.213681 
L 324.992685 396.193307 
L 327.993778 396.193307 
L 329.831144 397.589268 
L 330.38238 397.589268 
L 331.423558 398.985295 
L 331.913537 386.421914 
L 332.464735 394.797475 
L 333.628426 389.213681 
L 335.404573 387.817875 
L 336.62952 385.025991 
L 339.56932 393.401553 
L 339.936823 392.005565 
L 339.936823 394.797475 
L 341.28421 390.609746 
L 343.121613 379.442288 
L 343.489079 385.025991 
L 344.346524 380.838159 
L 344.40778 390.609746 
L 345.020236 393.401553 
L 346.857638 380.838159 
L 347.470094 383.630095 
L 347.898816 387.817875 
L 348.327539 376.650508 
L 350.89991 380.838159 
L 352.186077 375.25443 
L 354.697155 387.817875 
L 356.657071 379.442288 
L 357.085794 376.650508 
L 359.045673 375.25443 
L 360.821819 380.838159 
L 362.107986 378.046418 
L 364.129122 368.274856 
L 364.374075 368.274856 
L 365.354033 379.442288 
L 365.354033 365.482946 
L 366.762713 371.066727 
L 367.130179 375.25443 
L 368.906325 373.858546 
L 369.028802 372.462636 
L 371.723649 368.274856 
L 372.336105 368.274856 
L 374.112251 372.462636 
L 377.664544 379.442288 
L 379.501946 362.691192 
L 380.971847 371.066727 
L 382.135538 364.08714 
L 383.666694 380.838159 
L 386.422762 362.691192 
L 386.912741 365.482946 
L 387.647709 354.315604 
L 388.566374 372.462636 
L 388.995133 352.919734 
L 390.955012 359.899334 
L 392.731159 355.711644 
L 394.813514 358.503346 
L 394.936027 361.295256 
L 396.58966 357.107488 
L 396.650917 364.08714 
L 397.079639 355.711644 
L 397.630838 352.919734 
L 398.243294 359.899334 
L 400.01944 354.315604 
L 400.938141 355.711644 
L 401.550597 365.482946 
L 402.163089 358.503346 
L 402.714288 355.711644 
L 404.919156 358.503346 
L 405.837858 358.503346 
L 406.205324 347.335992 
L 407.430271 350.127941 
L 407.491491 348.731927 
L 408.226459 344.544147 
L 408.593925 357.107488 
L 410.247595 352.919734 
L 410.86005 359.899334 
L 416.004756 343.148289 
L 417.964635 344.544147 
L 418.699567 352.919734 
L 418.883337 350.127941 
L 419.434536 345.940095 
L 421.149426 338.960417 
L 421.271939 343.148289 
L 421.700661 347.335992 
L 423.783017 358.503346 
L 423.966786 350.127941 
L 425.13044 350.127941 
L 425.13044 355.711644 
L 425.191697 343.148289 
L 425.804152 351.52372 
L 426.84533 338.960417 
L 431.377581 345.940095 
L 432.418758 340.356301 
L 432.541271 337.564443 
L 435.726061 329.188921 
L 437.440951 320.813333 
L 437.808454 331.980922 
L 438.420909 336.168585 
L 438.604642 334.772715 
L 439.952066 331.980922 
L 442.524401 341.75225 
L 443.198112 338.960417 
L 444.23929 338.960417 
L 446.934174 347.335992 
L 448.159085 338.960417 
L 450.608907 331.980922 
L 450.792676 337.564443 
L 452.507566 330.584791 
L 452.813776 338.960417 
L 454.834948 329.188921 
L 455.692393 331.980922 
L 456.243555 326.397206 
L 457.958518 336.168585 
L 458.080958 325.001127 
L 458.938403 320.813333 
L 459.060916 336.168585 
L 459.489638 329.188921 
L 461.082015 330.584791 
L 462.306999 322.209308 
L 467.88039 340.356301 
L 469.350327 316.625696 
L 470.085259 337.564443 
L 470.207772 316.625696 
L 471.187657 323.605283 
L 471.922662 325.001127 
L 475.719907 313.833877 
L 477.373541 318.02154 
L 480.803393 315.229747 
L 482.334513 323.605283 
L 483.436984 306.854082 
L 485.029361 316.625696 
L 487.172973 308.250005 
L 490.970219 304.062419 
L 491.031475 305.458263 
L 492.807621 304.062419 
L 493.48137 304.062419 
L 494.093789 312.437876 
L 495.19626 313.833877 
L 495.502469 308.250005 
L 498.564783 299.874469 
L 498.993505 306.854082 
L 500.647138 297.082832 
L 507.445514 298.478703 
L 511.977764 311.041902 
L 512.957722 297.082832 
L 513.508885 295.686754 
L 514.917565 295.686754 
L 515.897523 298.478703 
L 519.327302 292.894701 
L 520.246004 290.103142 
L 520.490957 295.686754 
L 521.409658 291.498882 
L 521.593427 295.686754 
L 522.695825 285.915192 
L 523.859553 291.498882 
L 524.104506 297.082832 
L 525.268233 305.458263 
L 530.351646 292.894701 
L 530.596599 299.874469 
L 533.475216 305.458263 
L 537.639927 287.311244 
L 538.06865 291.498882 
L 539.661099 291.498882 
L 542.110921 287.311244 
L 542.294691 287.311244 
L 543.458345 298.478703 
L 544.928282 284.519581 
L 545.357004 295.686754 
L 549.15425 276.143968 
L 550.685443 277.539761 
L 550.746699 274.748072 
L 554.421432 280.331762 
L 554.666458 281.727762 
L 555.830112 277.539761 
L 556.258835 284.519581 
L 559.198635 263.580639 
L 559.259892 283.123399 
L 559.749871 280.331762 
L 559.872384 276.143968 
L 561.281064 278.935891 
L 561.526017 273.352097 
L 561.893483 280.331762 
L 563.240907 274.748072 
L 564.649587 276.143968 
L 565.017053 263.580639 
L 567.956926 267.768459 
L 570.345492 274.748072 
L 571.447962 257.996767 
L 571.631659 264.976172 
L 573.285292 277.539761 
L 574.020297 276.143968 
L 574.755229 263.580639 
L 576.715145 278.935891 
L 579.10371 270.560226 
L 579.593689 260.788872 
L 582.288536 262.184483 
L 582.411049 274.748072 
L 583.023468 274.748072 
L 584.309636 266.372146 
L 584.983384 257.996767 
L 585.105897 276.143968 
L 585.902085 262.184483 
L 588.596933 262.184483 
L 588.658117 256.601027 
L 591.414221 257.996767 
L 591.536734 253.809104 
L 591.659247 264.976172 
L 592.394179 256.601027 
L 592.455435 253.809104 
L 593.251623 260.788872 
L 593.925299 267.768459 
L 594.476534 269.163939 
L 597.416408 260.788872 
L 598.335036 262.184483 
L 601.152397 260.788872 
L 601.581119 252.413129 
L 601.642376 253.809104 
L 603.051056 253.809104 
L 603.479778 252.413129 
L 605.745904 248.225153 
L 606.174626 262.184483 
L 606.848302 259.392768 
L 608.011956 252.413129 
L 608.379495 264.976172 
L 608.991914 256.601027 
L 612.48295 266.372146 
L 614.442865 249.621362 
L 615.484007 244.037568 
L 615.790289 270.560226 
L 617.137713 248.225153 
L 617.260153 251.016998 
L 618.178854 249.621362 
L 618.913859 244.037568 
L 620.567493 248.225153 
L 620.812446 239.849514 
L 621.363681 241.245827 
L 622.221126 253.809104 
L 626.447167 248.225153 
L 627.549565 248.225153 
L 627.733334 238.453592 
L 631.163114 252.413129 
L 631.959302 241.245827 
L 633.367982 230.078394 
L 635.021616 238.453592 
L 635.695364 234.266292 
L 635.695364 231.474473 
L 639.798819 235.661928 
L 640.411311 225.890705 
L 643.106158 234.266292 
L 644.02486 234.266292 
L 645.923446 251.016998 
L 646.96466 237.058085 
L 649.414482 246.829569 
L 649.782021 227.286757 
L 651.374398 225.890705 
L 651.435654 232.870057 
L 653.273057 220.306963 
L 654.681664 241.245827 
L 660.377569 227.286757 
L 660.683851 232.870057 
L 660.806291 221.702703 
L 661.357527 220.306963 
L 661.786249 239.849514 
L 663.01116 216.119247 
L 664.174887 220.306963 
L 664.726123 231.474473 
L 665.338542 232.870057 
L 667.910876 223.098938 
L 668.217159 224.494314 
L 668.768321 216.119247 
L 669.319557 225.890705 
L 669.932049 231.474473 
L 673.178059 216.119247 
L 673.239315 199.367968 
L 676.607911 221.702703 
L 677.4041 202.1601 
L 680.588926 228.682472 
L 681.446371 213.327506 
L 682.793795 225.890705 
L 682.977491 220.306963 
L 683.344957 232.870057 
L 686.713553 209.139608 
L 687.570998 207.74327 
L 688.183417 209.139608 
L 688.734653 220.306963 
L 688.979606 206.347867 
L 689.102118 210.535583 
L 689.224631 220.306963 
L 689.347144 206.347867 
L 689.592097 220.306963 
L 689.959563 217.515169 
L 690.143333 207.74327 
L 693.940578 209.139608 
L 699.514043 209.139608 
L 700.003949 196.576149 
L 700.126462 217.515169 
L 700.432671 207.74327 
L 700.616441 182.617002 
L 700.92265 204.951529 
L 702.147634 200.763735 
L 703.433801 210.535583 
L 703.801267 204.951529 
L 705.94488 209.139608 
L 706.312346 197.972098 
L 706.373602 202.1601 
L 706.863581 220.306963 
L 707.108534 206.347867 
L 708.578471 189.596745 
L 709.129706 200.763735 
L 710.660826 213.327506 
L 714.335632 185.408899 
L 716.663014 207.74327 
L 717.397946 195.180227 
L 717.642898 200.763735 
L 717.765411 196.576149 
L 719.235348 206.347867 
L 719.296605 193.784356 
L 720.460259 185.408899 
L 721.746426 193.784356 
L 722.236405 206.347867 
L 722.848824 200.763735 
L 723.155107 203.55558 
L 725.053693 197.972098 
L 725.972394 197.972098 
L 726.646143 188.200744 
L 727.136122 197.972098 
L 732.77077 188.200744 
L 733.934424 185.408899 
L 737.057994 182.617002 
L 738.282905 178.429156 
L 739.262863 179.825339 
L 739.324119 197.972098 
L 739.507889 178.429156 
L 739.691585 188.200744 
L 740.120308 192.38859 
L 742.080224 189.596745 
L 742.631459 192.38859 
L 743.550087 171.44931 
L 743.611344 174.241207 
L 747.163636 199.367968 
L 747.163636 199.367968 
" clip-path="url(#pc45c901cef)" style="fill: none; stroke: #1f77b4; stroke-width: 2; stroke-linecap: square"/>
   </g>
   <g id="line2d_24">
    <path d="M 138.436364 492.48 
L 147.684561 489.202005 
L 162.996165 483.518991 
L 178.491466 477.449892 
L 192.455647 471.715363 
L 204.337435 466.645104 
L 222.221374 458.698314 
L 236.797973 451.955903 
L 252.477044 444.455222 
L 269.258548 436.162396 
L 287.57121 426.826548 
L 304.903913 417.739245 
L 323.767774 407.597414 
L 343.489079 396.738446 
L 364.129122 385.115994 
L 383.666694 373.885509 
L 405.837858 360.877418 
L 425.804152 348.919499 
L 444.23929 337.660803 
L 462.306999 326.406306 
L 483.436984 312.935772 
L 500.647138 301.688022 
L 520.490957 288.36845 
L 533.475216 279.424842 
L 549.15425 268.358971 
L 563.240907 258.141255 
L 576.715145 248.103286 
L 588.658117 238.971846 
L 601.642376 228.773034 
L 614.442865 218.423831 
L 626.447167 208.435238 
L 635.695364 200.542699 
L 635.695364 200.542699 
L 649.414482 188.499185 
L 660.806291 178.180586 
L 669.932049 169.695144 
L 681.446371 158.702335 
L 690.143333 150.180023 
L 702.147634 138.093867 
L 710.660826 129.291627 
L 723.155107 116.017636 
L 733.934424 104.214528 
L 743.611344 93.339868 
L 747.163636 89.28 
L 747.163636 89.28 
" clip-path="url(#pc45c901cef)" style="fill: none; stroke: #ff7f0e; stroke-width: 2; stroke-linecap: square"/>
   </g>
   <g id="patch_3">
    <path d="M 108 512.64 
L 108 69.12 
" style="fill: none; stroke: #000000; stroke-width: 0.8; stroke-linejoin: miter; stroke-linecap: square"/>
   </g>
   <g id="patch_4">
    <path d="M 777.6 512.64 
L 777.6 69.12 
" style="fill: none; stroke: #000000; stroke-width: 0.8; stroke-linejoin: miter; stroke-linecap: square"/>
   </g>
   <g id="patch_5">
    <path d="M 108 512.64 
L 777.6 512.64 
" style="fill: none; stroke: #000000; stroke-width: 0.8; stroke-linejoin: miter; stroke-linecap: square"/>
   </g>
   <g id="patch_6">
    <path d="M 108 69.12 
L 777.6 69.12 
" style="fill: none; stroke: #000000; stroke-width: 0.8; stroke-linejoin: miter; stroke-linecap: square"/>
   </g>
   <g id="text_14">
    <!-- Price by TTM. Moneyness=0.9 -->
    <g transform="translate(292.407812 63.12) scale(0.2 -0.2)">
     <defs>
      <path id="DejaVuSans-62" d="M 3116 1747 
Q 3116 2381 2855 2742 
Q 2594 3103 2138 3103 
Q 1681 3103 1420 2742 
Q 1159 2381 1159 1747 
Q 1159 1113 1420 752 
Q 1681 391 2138 391 
Q 2594 391 2855 752 
Q 3116 1113 3116 1747 
z
M 1159 2969 
Q 1341 3281 1617 3432 
Q 1894 3584 2278 3584 
Q 2916 3584 3314 3078 
Q 3713 2572 3713 1747 
Q 3713 922 3314 415 
Q 2916 -91 2278 -91 
Q 1894 -91 1617 61 
Q 1341 213 1159 525 
L 1159 0 
L 581 0 
L 581 4863 
L 1159 4863 
L 1159 2969 
z
" transform="scale(0.015625)"/>
      <path id="DejaVuSans-79" d="M 2059 -325 
Q 1816 -950 1584 -1140 
Q 1353 -1331 966 -1331 
L 506 -1331 
L 506 -850 
L 844 -850 
Q 1081 -850 1212 -737 
Q 1344 -625 1503 -206 
L 1606 56 
L 191 3500 
L 800 3500 
L 1894 763 
L 2988 3500 
L 3597 3500 
L 2059 -325 
z
" transform="scale(0.015625)"/>
      <path id="DejaVuSans-6e" d="M 3513 2113 
L 3513 0 
L 2938 0 
L 2938 2094 
Q 2938 2591 2744 2837 
Q 2550 3084 2163 3084 
Q 1697 3084 1428 2787 
Q 1159 2491 1159 1978 
L 1159 0 
L 581 0 
L 581 3500 
L 1159 3500 
L 1159 2956 
Q 1366 3272 1645 3428 
Q 1925 3584 2291 3584 
Q 2894 3584 3203 3211 
Q 3513 2838 3513 2113 
z
" transform="scale(0.015625)"/>
      <path id="DejaVuSans-3d" d="M 678 2906 
L 4684 2906 
L 4684 2381 
L 678 2381 
L 678 2906 
z
M 678 1631 
L 4684 1631 
L 4684 1100 
L 678 1100 
L 678 1631 
z
" transform="scale(0.015625)"/>
      <path id="DejaVuSans-39" d="M 703 97 
L 703 672 
Q 941 559 1184 500 
Q 1428 441 1663 441 
Q 2288 441 2617 861 
Q 2947 1281 2994 2138 
Q 2813 1869 2534 1725 
Q 2256 1581 1919 1581 
Q 1219 1581 811 2004 
Q 403 2428 403 3163 
Q 403 3881 828 4315 
Q 1253 4750 1959 4750 
Q 2769 4750 3195 4129 
Q 3622 3509 3622 2328 
Q 3622 1225 3098 567 
Q 2575 -91 1691 -91 
Q 1453 -91 1209 -44 
Q 966 3 703 97 
z
M 1959 2075 
Q 2384 2075 2632 2365 
Q 2881 2656 2881 3163 
Q 2881 3666 2632 3958 
Q 2384 4250 1959 4250 
Q 1534 4250 1286 3958 
Q 1038 3666 1038 3163 
Q 1038 2656 1286 2365 
Q 1534 2075 1959 2075 
z
" transform="scale(0.015625)"/>
     </defs>
     <use xlink:href="#DejaVuSans-50"/>
     <use xlink:href="#DejaVuSans-72" x="58.552734"/>
     <use xlink:href="#DejaVuSans-69" x="99.666016"/>
     <use xlink:href="#DejaVuSans-63" x="127.449219"/>
     <use xlink:href="#DejaVuSans-65" x="182.429688"/>
     <use xlink:href="#DejaVuSans-20" x="243.953125"/>
     <use xlink:href="#DejaVuSans-62" x="275.740234"/>
     <use xlink:href="#DejaVuSans-79" x="339.216797"/>
     <use xlink:href="#DejaVuSans-20" x="398.396484"/>
     <use xlink:href="#DejaVuSans-54" x="430.183594"/>
     <use xlink:href="#DejaVuSans-54" x="489.517578"/>
     <use xlink:href="#DejaVuSans-4d" x="550.601562"/>
     <use xlink:href="#DejaVuSans-2e" x="636.880859"/>
     <use xlink:href="#DejaVuSans-20" x="668.667969"/>
     <use xlink:href="#DejaVuSans-4d" x="700.455078"/>
     <use xlink:href="#DejaVuSans-6f" x="786.734375"/>
     <use xlink:href="#DejaVuSans-6e" x="847.916016"/>
     <use xlink:href="#DejaVuSans-65" x="911.294922"/>
     <use xlink:href="#DejaVuSans-79" x="972.818359"/>
     <use xlink:href="#DejaVuSans-6e" x="1031.998047"/>
     <use xlink:href="#DejaVuSans-65" x="1095.376953"/>
     <use xlink:href="#DejaVuSans-73" x="1156.900391"/>
     <use xlink:href="#DejaVuSans-73" x="1209"/>
     <use xlink:href="#DejaVuSans-3d" x="1261.099609"/>
     <use xlink:href="#DejaVuSans-30" x="1344.888672"/>
     <use xlink:href="#DejaVuSans-2e" x="1408.511719"/>
     <use xlink:href="#DejaVuSans-39" x="1440.298828"/>
    </g>
   </g>
   <g id="legend_1">
    <g id="patch_7">
     <path d="M 120.6 136.36125 
L 287.018437 136.36125 
Q 290.618437 136.36125 290.618437 132.76125 
L 290.618437 81.72 
Q 290.618437 78.12 287.018437 78.12 
L 120.6 78.12 
Q 117 78.12 117 81.72 
L 117 132.76125 
Q 117 136.36125 120.6 136.36125 
z
" style="fill: #ffffff; opacity: 0.8; stroke: #cccccc; stroke-linejoin: miter"/>
    </g>
    <g id="line2d_25">
     <path d="M 124.2 92.697188 
L 142.2 92.697188 
L 160.2 92.697188 
" style="fill: none; stroke: #1f77b4; stroke-width: 2; stroke-linecap: square"/>
    </g>
    <g id="text_15">
     <!-- Monte Carlo -->
     <g transform="translate(174.6 98.997188) scale(0.18 -0.18)">
      <defs>
       <path id="DejaVuSans-43" d="M 4122 4306 
L 4122 3641 
Q 3803 3938 3442 4084 
Q 3081 4231 2675 4231 
Q 1875 4231 1450 3742 
Q 1025 3253 1025 2328 
Q 1025 1406 1450 917 
Q 1875 428 2675 428 
Q 3081 428 3442 575 
Q 3803 722 4122 1019 
L 4122 359 
Q 3791 134 3420 21 
Q 3050 -91 2638 -91 
Q 1578 -91 968 557 
Q 359 1206 359 2328 
Q 359 3453 968 4101 
Q 1578 4750 2638 4750 
Q 3056 4750 3426 4639 
Q 3797 4528 4122 4306 
z
" transform="scale(0.015625)"/>
       <path id="DejaVuSans-6c" d="M 603 4863 
L 1178 4863 
L 1178 0 
L 603 0 
L 603 4863 
z
" transform="scale(0.015625)"/>
      </defs>
      <use xlink:href="#DejaVuSans-4d"/>
      <use xlink:href="#DejaVuSans-6f" x="86.279297"/>
      <use xlink:href="#DejaVuSans-6e" x="147.460938"/>
      <use xlink:href="#DejaVuSans-74" x="210.839844"/>
      <use xlink:href="#DejaVuSans-65" x="250.048828"/>
      <use xlink:href="#DejaVuSans-20" x="311.572266"/>
      <use xlink:href="#DejaVuSans-43" x="343.359375"/>
      <use xlink:href="#DejaVuSans-61" x="413.183594"/>
      <use xlink:href="#DejaVuSans-72" x="474.462891"/>
      <use xlink:href="#DejaVuSans-6c" x="515.576172"/>
      <use xlink:href="#DejaVuSans-6f" x="543.359375"/>
     </g>
    </g>
    <g id="line2d_26">
     <path d="M 124.2 119.117813 
L 142.2 119.117813 
L 160.2 119.117813 
" style="fill: none; stroke: #ff7f0e; stroke-width: 2; stroke-linecap: square"/>
    </g>
    <g id="text_16">
     <!-- Positive net -->
     <g transform="translate(174.6 125.417813) scale(0.18 -0.18)">
      <defs>
       <path id="DejaVuSans-76" d="M 191 3500 
L 800 3500 
L 1894 563 
L 2988 3500 
L 3597 3500 
L 2284 0 
L 1503 0 
L 191 3500 
z
" transform="scale(0.015625)"/>
      </defs>
      <use xlink:href="#DejaVuSans-50"/>
      <use xlink:href="#DejaVuSans-6f" x="56.677734"/>
      <use xlink:href="#DejaVuSans-73" x="117.859375"/>
      <use xlink:href="#DejaVuSans-69" x="169.958984"/>
      <use xlink:href="#DejaVuSans-74" x="197.742188"/>
      <use xlink:href="#DejaVuSans-69" x="236.951172"/>
      <use xlink:href="#DejaVuSans-76" x="264.734375"/>
      <use xlink:href="#DejaVuSans-65" x="323.914062"/>
      <use xlink:href="#DejaVuSans-20" x="385.4375"/>
      <use xlink:href="#DejaVuSans-6e" x="417.224609"/>
      <use xlink:href="#DejaVuSans-65" x="480.603516"/>
      <use xlink:href="#DejaVuSans-74" x="542.126953"/>
     </g>
    </g>
   </g>
  </g>
 </g>
 <defs>
  <clipPath id="pc45c901cef">
   <rect x="108" y="69.12" width="669.6" height="443.52"/>
  </clipPath>
 </defs>
</svg>
