<?xml version="1.0" encoding="utf-8" standalone="no"?>
<!DOCTYPE svg PUBLIC "-//W3C//DTD SVG 1.1//EN"
  "http://www.w3.org/Graphics/SVG/1.1/DTD/svg11.dtd">
<svg xmlns:xlink="http://www.w3.org/1999/xlink" width="864pt" height="576pt" viewBox="0 0 864 576" xmlns="http://www.w3.org/2000/svg" version="1.1">
 <metadata>
  <rdf:RDF xmlns:dc="http://purl.org/dc/elements/1.1/" xmlns:cc="http://creativecommons.org/ns#" xmlns:rdf="http://www.w3.org/1999/02/22-rdf-syntax-ns#">
   <cc:Work>
    <dc:type rdf:resource="http://purl.org/dc/dcmitype/StillImage"/>
    <dc:date>2024-03-10T20:05:31.558049</dc:date>
    <dc:format>image/svg+xml</dc:format>
    <dc:creator>
     <cc:Agent>
      <dc:title>Matplotlib v3.7.3, https://matplotlib.org/</dc:title>
     </cc:Agent>
    </dc:creator>
   </cc:Work>
  </rdf:RDF>
 </metadata>
 <defs>
  <style type="text/css">*{stroke-linejoin: round; stroke-linecap: butt}</style>
 </defs>
 <g id="figure_1">
  <g id="patch_1">
   <path d="M 0 576 
L 864 576 
L 864 0 
L 0 0 
z
" style="fill: #ffffff"/>
  </g>
  <g id="axes_1">
   <g id="patch_2">
    <path d="M 108 512.64 
L 777.6 512.64 
L 777.6 69.12 
L 108 69.12 
z
" style="fill: #ffffff"/>
   </g>
   <g id="matplotlib.axis_1">
    <g id="xtick_1">
     <g id="line2d_1">
      <path d="M 223.587528 512.64 
L 223.587528 69.12 
" clip-path="url(#p1dba10e119)" style="fill: none; stroke: #b0b0b0; stroke-width: 0.8; stroke-linecap: square"/>
     </g>
     <g id="line2d_2">
      <defs>
       <path id="mab392d344b" d="M 0 0 
L 0 3.5 
" style="stroke: #000000; stroke-width: 0.8"/>
      </defs>
      <g>
       <use xlink:href="#mab392d344b" x="223.587528" y="512.64" style="stroke: #000000; stroke-width: 0.8"/>
      </g>
     </g>
     <g id="text_1">
      <!-- 0.1 -->
      <g transform="translate(215.635966 527.238438) scale(0.1 -0.1)">
       <defs>
        <path id="DejaVuSans-30" d="M 2034 4250 
Q 1547 4250 1301 3770 
Q 1056 3291 1056 2328 
Q 1056 1369 1301 889 
Q 1547 409 2034 409 
Q 2525 409 2770 889 
Q 3016 1369 3016 2328 
Q 3016 3291 2770 3770 
Q 2525 4250 2034 4250 
z
M 2034 4750 
Q 2819 4750 3233 4129 
Q 3647 3509 3647 2328 
Q 3647 1150 3233 529 
Q 2819 -91 2034 -91 
Q 1250 -91 836 529 
Q 422 1150 422 2328 
Q 422 3509 836 4129 
Q 1250 4750 2034 4750 
z
" transform="scale(0.015625)"/>
        <path id="DejaVuSans-2e" d="M 684 794 
L 1344 794 
L 1344 0 
L 684 0 
L 684 794 
z
" transform="scale(0.015625)"/>
        <path id="DejaVuSans-31" d="M 794 531 
L 1825 531 
L 1825 4091 
L 703 3866 
L 703 4441 
L 1819 4666 
L 2450 4666 
L 2450 531 
L 3481 531 
L 3481 0 
L 794 0 
L 794 531 
z
" transform="scale(0.015625)"/>
       </defs>
       <use xlink:href="#DejaVuSans-30"/>
       <use xlink:href="#DejaVuSans-2e" x="63.623047"/>
       <use xlink:href="#DejaVuSans-31" x="95.410156"/>
      </g>
     </g>
    </g>
    <g id="xtick_2">
     <g id="line2d_3">
      <path d="M 345.406074 512.64 
L 345.406074 69.12 
" clip-path="url(#p1dba10e119)" style="fill: none; stroke: #b0b0b0; stroke-width: 0.8; stroke-linecap: square"/>
     </g>
     <g id="line2d_4">
      <g>
       <use xlink:href="#mab392d344b" x="345.406074" y="512.64" style="stroke: #000000; stroke-width: 0.8"/>
      </g>
     </g>
     <g id="text_2">
      <!-- 0.2 -->
      <g transform="translate(337.454512 527.238438) scale(0.1 -0.1)">
       <defs>
        <path id="DejaVuSans-32" d="M 1228 531 
L 3431 531 
L 3431 0 
L 469 0 
L 469 531 
Q 828 903 1448 1529 
Q 2069 2156 2228 2338 
Q 2531 2678 2651 2914 
Q 2772 3150 2772 3378 
Q 2772 3750 2511 3984 
Q 2250 4219 1831 4219 
Q 1534 4219 1204 4116 
Q 875 4013 500 3803 
L 500 4441 
Q 881 4594 1212 4672 
Q 1544 4750 1819 4750 
Q 2544 4750 2975 4387 
Q 3406 4025 3406 3419 
Q 3406 3131 3298 2873 
Q 3191 2616 2906 2266 
Q 2828 2175 2409 1742 
Q 1991 1309 1228 531 
z
" transform="scale(0.015625)"/>
       </defs>
       <use xlink:href="#DejaVuSans-30"/>
       <use xlink:href="#DejaVuSans-2e" x="63.623047"/>
       <use xlink:href="#DejaVuSans-32" x="95.410156"/>
      </g>
     </g>
    </g>
    <g id="xtick_3">
     <g id="line2d_5">
      <path d="M 467.22462 512.64 
L 467.22462 69.12 
" clip-path="url(#p1dba10e119)" style="fill: none; stroke: #b0b0b0; stroke-width: 0.8; stroke-linecap: square"/>
     </g>
     <g id="line2d_6">
      <g>
       <use xlink:href="#mab392d344b" x="467.22462" y="512.64" style="stroke: #000000; stroke-width: 0.8"/>
      </g>
     </g>
     <g id="text_3">
      <!-- 0.3 -->
      <g transform="translate(459.273058 527.238438) scale(0.1 -0.1)">
       <defs>
        <path id="DejaVuSans-33" d="M 2597 2516 
Q 3050 2419 3304 2112 
Q 3559 1806 3559 1356 
Q 3559 666 3084 287 
Q 2609 -91 1734 -91 
Q 1441 -91 1130 -33 
Q 819 25 488 141 
L 488 750 
Q 750 597 1062 519 
Q 1375 441 1716 441 
Q 2309 441 2620 675 
Q 2931 909 2931 1356 
Q 2931 1769 2642 2001 
Q 2353 2234 1838 2234 
L 1294 2234 
L 1294 2753 
L 1863 2753 
Q 2328 2753 2575 2939 
Q 2822 3125 2822 3475 
Q 2822 3834 2567 4026 
Q 2313 4219 1838 4219 
Q 1578 4219 1281 4162 
Q 984 4106 628 3988 
L 628 4550 
Q 988 4650 1302 4700 
Q 1616 4750 1894 4750 
Q 2613 4750 3031 4423 
Q 3450 4097 3450 3541 
Q 3450 3153 3228 2886 
Q 3006 2619 2597 2516 
z
" transform="scale(0.015625)"/>
       </defs>
       <use xlink:href="#DejaVuSans-30"/>
       <use xlink:href="#DejaVuSans-2e" x="63.623047"/>
       <use xlink:href="#DejaVuSans-33" x="95.410156"/>
      </g>
     </g>
    </g>
    <g id="xtick_4">
     <g id="line2d_7">
      <path d="M 589.043166 512.64 
L 589.043166 69.12 
" clip-path="url(#p1dba10e119)" style="fill: none; stroke: #b0b0b0; stroke-width: 0.8; stroke-linecap: square"/>
     </g>
     <g id="line2d_8">
      <g>
       <use xlink:href="#mab392d344b" x="589.043166" y="512.64" style="stroke: #000000; stroke-width: 0.8"/>
      </g>
     </g>
     <g id="text_4">
      <!-- 0.4 -->
      <g transform="translate(581.091604 527.238438) scale(0.1 -0.1)">
       <defs>
        <path id="DejaVuSans-34" d="M 2419 4116 
L 825 1625 
L 2419 1625 
L 2419 4116 
z
M 2253 4666 
L 3047 4666 
L 3047 1625 
L 3713 1625 
L 3713 1100 
L 3047 1100 
L 3047 0 
L 2419 0 
L 2419 1100 
L 313 1100 
L 313 1709 
L 2253 4666 
z
" transform="scale(0.015625)"/>
       </defs>
       <use xlink:href="#DejaVuSans-30"/>
       <use xlink:href="#DejaVuSans-2e" x="63.623047"/>
       <use xlink:href="#DejaVuSans-34" x="95.410156"/>
      </g>
     </g>
    </g>
    <g id="xtick_5">
     <g id="line2d_9">
      <path d="M 710.861712 512.64 
L 710.861712 69.12 
" clip-path="url(#p1dba10e119)" style="fill: none; stroke: #b0b0b0; stroke-width: 0.8; stroke-linecap: square"/>
     </g>
     <g id="line2d_10">
      <g>
       <use xlink:href="#mab392d344b" x="710.861712" y="512.64" style="stroke: #000000; stroke-width: 0.8"/>
      </g>
     </g>
     <g id="text_5">
      <!-- 0.5 -->
      <g transform="translate(702.91015 527.238438) scale(0.1 -0.1)">
       <defs>
        <path id="DejaVuSans-35" d="M 691 4666 
L 3169 4666 
L 3169 4134 
L 1269 4134 
L 1269 2991 
Q 1406 3038 1543 3061 
Q 1681 3084 1819 3084 
Q 2600 3084 3056 2656 
Q 3513 2228 3513 1497 
Q 3513 744 3044 326 
Q 2575 -91 1722 -91 
Q 1428 -91 1123 -41 
Q 819 9 494 109 
L 494 744 
Q 775 591 1075 516 
Q 1375 441 1709 441 
Q 2250 441 2565 725 
Q 2881 1009 2881 1497 
Q 2881 1984 2565 2268 
Q 2250 2553 1709 2553 
Q 1456 2553 1204 2497 
Q 953 2441 691 2322 
L 691 4666 
z
" transform="scale(0.015625)"/>
       </defs>
       <use xlink:href="#DejaVuSans-30"/>
       <use xlink:href="#DejaVuSans-2e" x="63.623047"/>
       <use xlink:href="#DejaVuSans-35" x="95.410156"/>
      </g>
     </g>
    </g>
    <g id="text_6">
     <!-- TTM -->
     <g transform="translate(424.198125 546.995312) scale(0.18 -0.18)">
      <defs>
       <path id="DejaVuSans-54" d="M -19 4666 
L 3928 4666 
L 3928 4134 
L 2272 4134 
L 2272 0 
L 1638 0 
L 1638 4134 
L -19 4134 
L -19 4666 
z
" transform="scale(0.015625)"/>
       <path id="DejaVuSans-4d" d="M 628 4666 
L 1569 4666 
L 2759 1491 
L 3956 4666 
L 4897 4666 
L 4897 0 
L 4281 0 
L 4281 4097 
L 3078 897 
L 2444 897 
L 1241 4097 
L 1241 0 
L 628 0 
L 628 4666 
z
" transform="scale(0.015625)"/>
      </defs>
      <use xlink:href="#DejaVuSans-54"/>
      <use xlink:href="#DejaVuSans-54" x="59.333984"/>
      <use xlink:href="#DejaVuSans-4d" x="120.417969"/>
     </g>
    </g>
   </g>
   <g id="matplotlib.axis_2">
    <g id="ytick_1">
     <g id="line2d_11">
      <path d="M 108 494.55234 
L 777.6 494.55234 
" clip-path="url(#p1dba10e119)" style="fill: none; stroke: #b0b0b0; stroke-width: 0.8; stroke-linecap: square"/>
     </g>
     <g id="line2d_12">
      <defs>
       <path id="m775795ec8f" d="M 0 0 
L -3.5 0 
" style="stroke: #000000; stroke-width: 0.8"/>
      </defs>
      <g>
       <use xlink:href="#m775795ec8f" x="108" y="494.55234" style="stroke: #000000; stroke-width: 0.8"/>
      </g>
     </g>
     <g id="text_7">
      <!-- 0.0000 -->
      <g transform="translate(66.009375 498.351559) scale(0.1 -0.1)">
       <use xlink:href="#DejaVuSans-30"/>
       <use xlink:href="#DejaVuSans-2e" x="63.623047"/>
       <use xlink:href="#DejaVuSans-30" x="95.410156"/>
       <use xlink:href="#DejaVuSans-30" x="159.033203"/>
       <use xlink:href="#DejaVuSans-30" x="222.65625"/>
       <use xlink:href="#DejaVuSans-30" x="286.279297"/>
      </g>
     </g>
    </g>
    <g id="ytick_2">
     <g id="line2d_13">
      <path d="M 108 442.743831 
L 777.6 442.743831 
" clip-path="url(#p1dba10e119)" style="fill: none; stroke: #b0b0b0; stroke-width: 0.8; stroke-linecap: square"/>
     </g>
     <g id="line2d_14">
      <g>
       <use xlink:href="#m775795ec8f" x="108" y="442.743831" style="stroke: #000000; stroke-width: 0.8"/>
      </g>
     </g>
     <g id="text_8">
      <!-- 0.0025 -->
      <g transform="translate(66.009375 446.54305) scale(0.1 -0.1)">
       <use xlink:href="#DejaVuSans-30"/>
       <use xlink:href="#DejaVuSans-2e" x="63.623047"/>
       <use xlink:href="#DejaVuSans-30" x="95.410156"/>
       <use xlink:href="#DejaVuSans-30" x="159.033203"/>
       <use xlink:href="#DejaVuSans-32" x="222.65625"/>
       <use xlink:href="#DejaVuSans-35" x="286.279297"/>
      </g>
     </g>
    </g>
    <g id="ytick_3">
     <g id="line2d_15">
      <path d="M 108 390.935322 
L 777.6 390.935322 
" clip-path="url(#p1dba10e119)" style="fill: none; stroke: #b0b0b0; stroke-width: 0.8; stroke-linecap: square"/>
     </g>
     <g id="line2d_16">
      <g>
       <use xlink:href="#m775795ec8f" x="108" y="390.935322" style="stroke: #000000; stroke-width: 0.8"/>
      </g>
     </g>
     <g id="text_9">
      <!-- 0.0050 -->
      <g transform="translate(66.009375 394.734541) scale(0.1 -0.1)">
       <use xlink:href="#DejaVuSans-30"/>
       <use xlink:href="#DejaVuSans-2e" x="63.623047"/>
       <use xlink:href="#DejaVuSans-30" x="95.410156"/>
       <use xlink:href="#DejaVuSans-30" x="159.033203"/>
       <use xlink:href="#DejaVuSans-35" x="222.65625"/>
       <use xlink:href="#DejaVuSans-30" x="286.279297"/>
      </g>
     </g>
    </g>
    <g id="ytick_4">
     <g id="line2d_17">
      <path d="M 108 339.126813 
L 777.6 339.126813 
" clip-path="url(#p1dba10e119)" style="fill: none; stroke: #b0b0b0; stroke-width: 0.8; stroke-linecap: square"/>
     </g>
     <g id="line2d_18">
      <g>
       <use xlink:href="#m775795ec8f" x="108" y="339.126813" style="stroke: #000000; stroke-width: 0.8"/>
      </g>
     </g>
     <g id="text_10">
      <!-- 0.0075 -->
      <g transform="translate(66.009375 342.926032) scale(0.1 -0.1)">
       <defs>
        <path id="DejaVuSans-37" d="M 525 4666 
L 3525 4666 
L 3525 4397 
L 1831 0 
L 1172 0 
L 2766 4134 
L 525 4134 
L 525 4666 
z
" transform="scale(0.015625)"/>
       </defs>
       <use xlink:href="#DejaVuSans-30"/>
       <use xlink:href="#DejaVuSans-2e" x="63.623047"/>
       <use xlink:href="#DejaVuSans-30" x="95.410156"/>
       <use xlink:href="#DejaVuSans-30" x="159.033203"/>
       <use xlink:href="#DejaVuSans-37" x="222.65625"/>
       <use xlink:href="#DejaVuSans-35" x="286.279297"/>
      </g>
     </g>
    </g>
    <g id="ytick_5">
     <g id="line2d_19">
      <path d="M 108 287.318304 
L 777.6 287.318304 
" clip-path="url(#p1dba10e119)" style="fill: none; stroke: #b0b0b0; stroke-width: 0.8; stroke-linecap: square"/>
     </g>
     <g id="line2d_20">
      <g>
       <use xlink:href="#m775795ec8f" x="108" y="287.318304" style="stroke: #000000; stroke-width: 0.8"/>
      </g>
     </g>
     <g id="text_11">
      <!-- 0.0100 -->
      <g transform="translate(66.009375 291.117523) scale(0.1 -0.1)">
       <use xlink:href="#DejaVuSans-30"/>
       <use xlink:href="#DejaVuSans-2e" x="63.623047"/>
       <use xlink:href="#DejaVuSans-30" x="95.410156"/>
       <use xlink:href="#DejaVuSans-31" x="159.033203"/>
       <use xlink:href="#DejaVuSans-30" x="222.65625"/>
       <use xlink:href="#DejaVuSans-30" x="286.279297"/>
      </g>
     </g>
    </g>
    <g id="ytick_6">
     <g id="line2d_21">
      <path d="M 108 235.509795 
L 777.6 235.509795 
" clip-path="url(#p1dba10e119)" style="fill: none; stroke: #b0b0b0; stroke-width: 0.8; stroke-linecap: square"/>
     </g>
     <g id="line2d_22">
      <g>
       <use xlink:href="#m775795ec8f" x="108" y="235.509795" style="stroke: #000000; stroke-width: 0.8"/>
      </g>
     </g>
     <g id="text_12">
      <!-- 0.0125 -->
      <g transform="translate(66.009375 239.309014) scale(0.1 -0.1)">
       <use xlink:href="#DejaVuSans-30"/>
       <use xlink:href="#DejaVuSans-2e" x="63.623047"/>
       <use xlink:href="#DejaVuSans-30" x="95.410156"/>
       <use xlink:href="#DejaVuSans-31" x="159.033203"/>
       <use xlink:href="#DejaVuSans-32" x="222.65625"/>
       <use xlink:href="#DejaVuSans-35" x="286.279297"/>
      </g>
     </g>
    </g>
    <g id="ytick_7">
     <g id="line2d_23">
      <path d="M 108 183.701287 
L 777.6 183.701287 
" clip-path="url(#p1dba10e119)" style="fill: none; stroke: #b0b0b0; stroke-width: 0.8; stroke-linecap: square"/>
     </g>
     <g id="line2d_24">
      <g>
       <use xlink:href="#m775795ec8f" x="108" y="183.701287" style="stroke: #000000; stroke-width: 0.8"/>
      </g>
     </g>
     <g id="text_13">
      <!-- 0.0150 -->
      <g transform="translate(66.009375 187.500505) scale(0.1 -0.1)">
       <use xlink:href="#DejaVuSans-30"/>
       <use xlink:href="#DejaVuSans-2e" x="63.623047"/>
       <use xlink:href="#DejaVuSans-30" x="95.410156"/>
       <use xlink:href="#DejaVuSans-31" x="159.033203"/>
       <use xlink:href="#DejaVuSans-35" x="222.65625"/>
       <use xlink:href="#DejaVuSans-30" x="286.279297"/>
      </g>
     </g>
    </g>
    <g id="ytick_8">
     <g id="line2d_25">
      <path d="M 108 131.892778 
L 777.6 131.892778 
" clip-path="url(#p1dba10e119)" style="fill: none; stroke: #b0b0b0; stroke-width: 0.8; stroke-linecap: square"/>
     </g>
     <g id="line2d_26">
      <g>
       <use xlink:href="#m775795ec8f" x="108" y="131.892778" style="stroke: #000000; stroke-width: 0.8"/>
      </g>
     </g>
     <g id="text_14">
      <!-- 0.0175 -->
      <g transform="translate(66.009375 135.691996) scale(0.1 -0.1)">
       <use xlink:href="#DejaVuSans-30"/>
       <use xlink:href="#DejaVuSans-2e" x="63.623047"/>
       <use xlink:href="#DejaVuSans-30" x="95.410156"/>
       <use xlink:href="#DejaVuSans-31" x="159.033203"/>
       <use xlink:href="#DejaVuSans-37" x="222.65625"/>
       <use xlink:href="#DejaVuSans-35" x="286.279297"/>
      </g>
     </g>
    </g>
    <g id="ytick_9">
     <g id="line2d_27">
      <path d="M 108 80.084269 
L 777.6 80.084269 
" clip-path="url(#p1dba10e119)" style="fill: none; stroke: #b0b0b0; stroke-width: 0.8; stroke-linecap: square"/>
     </g>
     <g id="line2d_28">
      <g>
       <use xlink:href="#m775795ec8f" x="108" y="80.084269" style="stroke: #000000; stroke-width: 0.8"/>
      </g>
     </g>
     <g id="text_15">
      <!-- 0.0200 -->
      <g transform="translate(66.009375 83.883487) scale(0.1 -0.1)">
       <use xlink:href="#DejaVuSans-30"/>
       <use xlink:href="#DejaVuSans-2e" x="63.623047"/>
       <use xlink:href="#DejaVuSans-30" x="95.410156"/>
       <use xlink:href="#DejaVuSans-32" x="159.033203"/>
       <use xlink:href="#DejaVuSans-30" x="222.65625"/>
       <use xlink:href="#DejaVuSans-30" x="286.279297"/>
      </g>
     </g>
    </g>
    <g id="text_16">
     <!-- Price/strike ratio -->
     <g transform="translate(58.265938 364.318594) rotate(-90) scale(0.18 -0.18)">
      <defs>
       <path id="DejaVuSans-50" d="M 1259 4147 
L 1259 2394 
L 2053 2394 
Q 2494 2394 2734 2622 
Q 2975 2850 2975 3272 
Q 2975 3691 2734 3919 
Q 2494 4147 2053 4147 
L 1259 4147 
z
M 628 4666 
L 2053 4666 
Q 2838 4666 3239 4311 
Q 3641 3956 3641 3272 
Q 3641 2581 3239 2228 
Q 2838 1875 2053 1875 
L 1259 1875 
L 1259 0 
L 628 0 
L 628 4666 
z
" transform="scale(0.015625)"/>
       <path id="DejaVuSans-72" d="M 2631 2963 
Q 2534 3019 2420 3045 
Q 2306 3072 2169 3072 
Q 1681 3072 1420 2755 
Q 1159 2438 1159 1844 
L 1159 0 
L 581 0 
L 581 3500 
L 1159 3500 
L 1159 2956 
Q 1341 3275 1631 3429 
Q 1922 3584 2338 3584 
Q 2397 3584 2469 3576 
Q 2541 3569 2628 3553 
L 2631 2963 
z
" transform="scale(0.015625)"/>
       <path id="DejaVuSans-69" d="M 603 3500 
L 1178 3500 
L 1178 0 
L 603 0 
L 603 3500 
z
M 603 4863 
L 1178 4863 
L 1178 4134 
L 603 4134 
L 603 4863 
z
" transform="scale(0.015625)"/>
       <path id="DejaVuSans-63" d="M 3122 3366 
L 3122 2828 
Q 2878 2963 2633 3030 
Q 2388 3097 2138 3097 
Q 1578 3097 1268 2742 
Q 959 2388 959 1747 
Q 959 1106 1268 751 
Q 1578 397 2138 397 
Q 2388 397 2633 464 
Q 2878 531 3122 666 
L 3122 134 
Q 2881 22 2623 -34 
Q 2366 -91 2075 -91 
Q 1284 -91 818 406 
Q 353 903 353 1747 
Q 353 2603 823 3093 
Q 1294 3584 2113 3584 
Q 2378 3584 2631 3529 
Q 2884 3475 3122 3366 
z
" transform="scale(0.015625)"/>
       <path id="DejaVuSans-65" d="M 3597 1894 
L 3597 1613 
L 953 1613 
Q 991 1019 1311 708 
Q 1631 397 2203 397 
Q 2534 397 2845 478 
Q 3156 559 3463 722 
L 3463 178 
Q 3153 47 2828 -22 
Q 2503 -91 2169 -91 
Q 1331 -91 842 396 
Q 353 884 353 1716 
Q 353 2575 817 3079 
Q 1281 3584 2069 3584 
Q 2775 3584 3186 3129 
Q 3597 2675 3597 1894 
z
M 3022 2063 
Q 3016 2534 2758 2815 
Q 2500 3097 2075 3097 
Q 1594 3097 1305 2825 
Q 1016 2553 972 2059 
L 3022 2063 
z
" transform="scale(0.015625)"/>
       <path id="DejaVuSans-2f" d="M 1625 4666 
L 2156 4666 
L 531 -594 
L 0 -594 
L 1625 4666 
z
" transform="scale(0.015625)"/>
       <path id="DejaVuSans-73" d="M 2834 3397 
L 2834 2853 
Q 2591 2978 2328 3040 
Q 2066 3103 1784 3103 
Q 1356 3103 1142 2972 
Q 928 2841 928 2578 
Q 928 2378 1081 2264 
Q 1234 2150 1697 2047 
L 1894 2003 
Q 2506 1872 2764 1633 
Q 3022 1394 3022 966 
Q 3022 478 2636 193 
Q 2250 -91 1575 -91 
Q 1294 -91 989 -36 
Q 684 19 347 128 
L 347 722 
Q 666 556 975 473 
Q 1284 391 1588 391 
Q 1994 391 2212 530 
Q 2431 669 2431 922 
Q 2431 1156 2273 1281 
Q 2116 1406 1581 1522 
L 1381 1569 
Q 847 1681 609 1914 
Q 372 2147 372 2553 
Q 372 3047 722 3315 
Q 1072 3584 1716 3584 
Q 2034 3584 2315 3537 
Q 2597 3491 2834 3397 
z
" transform="scale(0.015625)"/>
       <path id="DejaVuSans-74" d="M 1172 4494 
L 1172 3500 
L 2356 3500 
L 2356 3053 
L 1172 3053 
L 1172 1153 
Q 1172 725 1289 603 
Q 1406 481 1766 481 
L 2356 481 
L 2356 0 
L 1766 0 
Q 1100 0 847 248 
Q 594 497 594 1153 
L 594 3053 
L 172 3053 
L 172 3500 
L 594 3500 
L 594 4494 
L 1172 4494 
z
" transform="scale(0.015625)"/>
       <path id="DejaVuSans-6b" d="M 581 4863 
L 1159 4863 
L 1159 1991 
L 2875 3500 
L 3609 3500 
L 1753 1863 
L 3688 0 
L 2938 0 
L 1159 1709 
L 1159 0 
L 581 0 
L 581 4863 
z
" transform="scale(0.015625)"/>
       <path id="DejaVuSans-20" transform="scale(0.015625)"/>
       <path id="DejaVuSans-61" d="M 2194 1759 
Q 1497 1759 1228 1600 
Q 959 1441 959 1056 
Q 959 750 1161 570 
Q 1363 391 1709 391 
Q 2188 391 2477 730 
Q 2766 1069 2766 1631 
L 2766 1759 
L 2194 1759 
z
M 3341 1997 
L 3341 0 
L 2766 0 
L 2766 531 
Q 2569 213 2275 61 
Q 1981 -91 1556 -91 
Q 1019 -91 701 211 
Q 384 513 384 1019 
Q 384 1609 779 1909 
Q 1175 2209 1959 2209 
L 2766 2209 
L 2766 2266 
Q 2766 2663 2505 2880 
Q 2244 3097 1772 3097 
Q 1472 3097 1187 3025 
Q 903 2953 641 2809 
L 641 3341 
Q 956 3463 1253 3523 
Q 1550 3584 1831 3584 
Q 2591 3584 2966 3190 
Q 3341 2797 3341 1997 
z
" transform="scale(0.015625)"/>
       <path id="DejaVuSans-6f" d="M 1959 3097 
Q 1497 3097 1228 2736 
Q 959 2375 959 1747 
Q 959 1119 1226 758 
Q 1494 397 1959 397 
Q 2419 397 2687 759 
Q 2956 1122 2956 1747 
Q 2956 2369 2687 2733 
Q 2419 3097 1959 3097 
z
M 1959 3584 
Q 2709 3584 3137 3096 
Q 3566 2609 3566 1747 
Q 3566 888 3137 398 
Q 2709 -91 1959 -91 
Q 1206 -91 779 398 
Q 353 888 353 1747 
Q 353 2609 779 3096 
Q 1206 3584 1959 3584 
z
" transform="scale(0.015625)"/>
      </defs>
      <use xlink:href="#DejaVuSans-50"/>
      <use xlink:href="#DejaVuSans-72" x="58.552734"/>
      <use xlink:href="#DejaVuSans-69" x="99.666016"/>
      <use xlink:href="#DejaVuSans-63" x="127.449219"/>
      <use xlink:href="#DejaVuSans-65" x="182.429688"/>
      <use xlink:href="#DejaVuSans-2f" x="243.953125"/>
      <use xlink:href="#DejaVuSans-73" x="277.644531"/>
      <use xlink:href="#DejaVuSans-74" x="329.744141"/>
      <use xlink:href="#DejaVuSans-72" x="368.953125"/>
      <use xlink:href="#DejaVuSans-69" x="410.066406"/>
      <use xlink:href="#DejaVuSans-6b" x="437.849609"/>
      <use xlink:href="#DejaVuSans-65" x="492.134766"/>
      <use xlink:href="#DejaVuSans-20" x="553.658203"/>
      <use xlink:href="#DejaVuSans-72" x="585.445312"/>
      <use xlink:href="#DejaVuSans-61" x="626.558594"/>
      <use xlink:href="#DejaVuSans-74" x="687.837891"/>
      <use xlink:href="#DejaVuSans-69" x="727.046875"/>
      <use xlink:href="#DejaVuSans-6f" x="754.830078"/>
     </g>
    </g>
   </g>
   <g id="line2d_29">
    <path d="M 138.436364 492.48 
L 179.611035 492.48 
L 179.611035 492.48 
L 181.194676 490.407658 
L 181.803769 490.407658 
L 183.021948 492.48 
L 183.26559 490.407658 
L 185.701956 490.407658 
L 185.823777 492.48 
L 185.945598 490.407658 
L 189.2347 490.407658 
L 190.331067 488.335316 
L 190.452887 490.407658 
L 192.15834 490.407658 
L 192.15834 488.335316 
L 193.132895 488.335316 
L 193.376528 490.407658 
L 193.620169 488.335316 
L 193.74198 488.335316 
L 193.74198 488.335316 
L 193.74198 490.407658 
L 194.351074 490.407658 
L 194.351074 488.335316 
L 194.594716 488.335316 
L 194.960168 490.407658 
L 195.691083 490.407658 
L 196.300177 488.335316 
L 196.300177 490.407658 
L 196.66563 490.407658 
L 196.909271 488.335316 
L 198.858364 488.335316 
L 198.858364 488.335316 
L 198.980185 486.26298 
L 198.980185 488.335316 
L 201.051099 488.335316 
L 201.538372 486.26298 
L 202.025646 488.335316 
L 202.75656 486.26298 
L 203.000192 486.26298 
L 203.243833 488.335316 
L 203.609286 486.26298 
L 204.583833 486.26298 
L 204.583833 486.26298 
L 204.827474 488.335316 
L 204.949295 486.26298 
L 205.6802 488.335316 
L 205.802021 486.26298 
L 206.411115 486.26298 
L 206.411115 488.335316 
L 206.411115 486.26298 
L 207.263841 486.26298 
L 207.263841 486.26298 
L 207.385662 484.190639 
L 209.091123 484.190639 
L 209.091123 484.190639 
L 209.212943 486.26298 
L 209.334755 484.190639 
L 209.334755 484.190639 
L 209.456576 484.190639 
L 209.456576 486.26298 
L 209.822028 484.190639 
L 210.18749 486.26298 
L 210.796584 484.190639 
L 212.014763 484.190639 
L 212.502036 486.26298 
L 212.502036 484.190639 
L 212.502036 484.190639 
L 213.842045 482.118299 
L 214.451139 484.190639 
L 214.451139 486.26298 
L 215.182044 482.118299 
L 215.425686 486.26298 
L 215.425686 482.118299 
L 215.669327 484.190639 
L 215.912959 484.190639 
L 216.034779 482.118299 
L 216.400232 484.190639 
L 216.522053 482.118299 
L 216.765694 484.190639 
L 217.862052 484.190639 
L 217.983873 482.118299 
L 218.227514 484.190639 
L 218.471146 482.118299 
L 219.445702 484.190639 
L 220.176608 480.045957 
L 220.54206 484.190639 
L 220.54206 482.118299 
L 220.54206 482.118299 
L 221.760248 482.118299 
L 221.882069 480.045957 
L 222.12571 482.118299 
L 222.369342 482.118299 
L 222.369342 482.118299 
L 222.491163 484.190639 
L 223.100257 482.118299 
L 223.100257 477.97361 
L 223.222068 480.045957 
L 223.58753 482.118299 
L 224.440256 482.118299 
L 224.562077 480.045957 
L 224.562077 482.118299 
L 224.805718 480.045957 
L 225.171171 477.97361 
L 225.414803 482.118299 
L 226.023897 480.045957 
L 226.389359 482.118299 
L 226.389359 480.045957 
L 226.389359 480.045957 
L 226.632991 480.045957 
L 226.632991 482.118299 
L 226.754811 480.045957 
L 228.947546 480.045957 
L 229.069367 477.97361 
L 229.069367 480.045957 
L 229.800272 477.97361 
L 230.287546 477.97361 
L 230.531187 480.045957 
L 230.531187 482.118299 
L 230.653007 477.97361 
L 232.236648 477.97361 
L 232.967554 480.045957 
L 233.333015 477.97361 
L 233.698468 477.97361 
L 233.820289 480.045957 
L 234.063921 477.97361 
L 234.185742 475.90128 
L 234.429383 477.97361 
L 234.429383 477.97361 
L 234.551194 475.90128 
L 234.794835 477.97361 
L 234.794835 477.97361 
L 236.256656 477.97361 
L 236.378476 475.90128 
L 236.86575 473.828931 
L 237.353023 475.90128 
L 237.474843 477.97361 
L 237.718476 475.90128 
L 237.840296 477.97361 
L 237.962117 473.828931 
L 237.962117 477.97361 
L 238.205758 473.828931 
L 239.423937 477.97361 
L 239.423937 477.97361 
L 240.033031 475.90128 
L 241.007578 473.828931 
L 241.982124 473.828931 
L 242.347586 475.90128 
L 242.347586 477.97361 
L 242.469407 473.828931 
L 244.174859 473.828931 
L 244.29668 469.684245 
L 245.514867 471.756587 
L 245.514867 471.756587 
L 246.123961 471.756587 
L 246.489414 469.684245 
L 246.489414 473.828931 
L 246.976688 471.756587 
L 247.34214 469.684245 
L 247.463961 473.828931 
L 247.463961 473.828931 
L 247.585782 469.684245 
L 247.829423 473.828931 
L 248.073055 471.756587 
L 248.073055 471.756587 
L 248.194875 471.756587 
L 248.316696 473.828931 
L 248.438508 471.756587 
L 249.047602 471.756587 
L 249.413063 473.828931 
L 249.534875 471.756587 
L 249.778516 473.828931 
L 250.631242 471.756587 
L 250.631242 469.684245 
L 250.631242 469.684245 
L 251.118516 471.756587 
L 251.118516 471.756587 
L 251.240336 469.684245 
L 251.84943 471.756587 
L 251.971251 469.684245 
L 252.945797 467.61193 
L 253.067618 465.539588 
L 253.067618 467.61193 
L 253.798524 473.828931 
L 253.798524 471.756587 
L 253.920344 467.61193 
L 255.016712 471.756587 
L 257.087626 467.61193 
L 257.818531 469.684245 
L 258.793096 465.539588 
L 259.15854 469.684245 
L 259.524001 469.684245 
L 259.645822 465.539588 
L 259.645822 467.61193 
L 259.767643 469.684245 
L 259.889463 465.539588 
L 260.133086 469.684245 
L 260.498548 465.539588 
L 261.107633 463.467225 
L 261.351274 465.539588 
L 261.960377 467.61193 
L 262.447642 467.61193 
L 262.447642 465.539588 
L 263.544009 465.539588 
L 264.153112 467.61193 
L 264.396735 467.61193 
L 264.518556 461.394898 
L 265.371282 461.394898 
L 265.371282 465.539588 
L 265.858564 463.467225 
L 265.858564 465.539588 
L 266.102205 463.467225 
L 266.102205 465.539588 
L 266.224026 463.467225 
L 266.71129 465.539588 
L 267.807658 461.394898 
L 267.929478 461.394898 
L 268.538563 463.467225 
L 269.147666 461.394898 
L 269.391307 465.539588 
L 270.122213 463.467225 
L 270.122213 461.394898 
L 270.487675 461.394898 
L 270.853118 455.17788 
L 271.340401 461.394898 
L 271.705863 461.394898 
L 271.949486 459.322544 
L 272.071306 463.467225 
L 272.436768 459.322544 
L 272.436768 465.539588 
L 272.558589 459.322544 
L 272.558589 461.394898 
L 273.289494 461.394898 
L 273.289494 461.394898 
L 273.411315 459.322544 
L 273.654956 461.394898 
L 274.873144 463.467225 
L 275.238588 459.322544 
L 275.604049 453.105536 
L 275.969511 459.322544 
L 276.944058 459.322544 
L 276.944058 461.394898 
L 277.553143 463.467225 
L 277.674963 459.322544 
L 277.674963 459.322544 
L 277.796784 461.394898 
L 277.796784 459.322544 
L 277.918605 455.17788 
L 278.162246 461.394898 
L 278.162246 457.2502 
L 278.162246 459.322544 
L 278.284048 459.322544 
L 279.014972 457.2502 
L 279.258595 455.17788 
L 279.380416 459.322544 
L 279.624057 455.17788 
L 279.624057 457.2502 
L 280.111339 457.2502 
L 280.476783 455.17788 
L 280.842245 457.2502 
L 280.842245 455.17788 
L 280.964065 461.394898 
L 281.329527 461.394898 
L 281.57315 459.322544 
L 281.57315 459.322544 
L 281.938612 455.17788 
L 282.425895 455.17788 
L 283.034979 457.2502 
L 283.278621 457.2502 
L 283.278621 455.17788 
L 283.522262 457.2502 
L 283.765885 457.2502 
L 283.765885 455.17788 
L 283.887706 457.2502 
L 284.009526 457.2502 
L 284.253167 455.17788 
L 284.496809 457.2502 
L 284.740432 453.105536 
L 284.984073 453.105536 
L 285.714978 455.17788 
L 286.445902 459.322544 
L 286.567723 451.033209 
L 286.689543 459.322544 
L 286.811346 457.2502 
L 287.298628 453.105536 
L 287.542269 455.17788 
L 287.542269 453.105536 
L 287.66409 451.033209 
L 287.66409 455.17788 
L 288.273175 453.105536 
L 288.273175 453.105536 
L 288.638637 451.033209 
L 288.760457 451.033209 
L 288.760457 453.105536 
L 289.125901 455.17788 
L 289.247722 453.105536 
L 289.369542 453.105536 
L 289.613183 457.2502 
L 289.735004 451.033209 
L 290.465909 451.033209 
L 290.831371 455.17788 
L 291.196815 448.960853 
L 292.293182 448.960853 
L 292.658644 446.888516 
L 292.902285 455.17788 
L 292.902285 453.105536 
L 293.267729 453.105536 
L 293.51137 448.960853 
L 294.485917 448.960853 
L 294.607738 446.888516 
L 295.216841 446.888516 
L 295.216841 446.888516 
L 295.582284 448.960853 
L 295.825925 448.960853 
L 295.825925 448.960853 
L 295.947746 444.816174 
L 296.191387 448.960853 
L 296.678652 448.960853 
L 296.800472 446.888516 
L 297.044113 446.888516 
L 297.775019 451.033209 
L 297.775019 448.960853 
L 298.01866 448.960853 
L 298.262301 446.888516 
L 298.262301 446.888516 
L 298.505943 446.888516 
L 298.505943 448.960853 
L 298.627745 444.816174 
L 299.358669 448.960853 
L 299.724112 444.816174 
L 299.724112 446.888516 
L 299.845933 451.033209 
L 299.967754 444.816174 
L 299.967754 448.960853 
L 300.333215 448.960853 
L 300.9423 446.888516 
L 301.185941 446.888516 
L 301.551403 442.743837 
L 302.038668 442.743837 
L 302.282309 444.816174 
L 302.282309 442.743837 
L 302.404129 444.816174 
L 303.135035 448.960853 
L 303.378676 444.816174 
L 303.987761 448.960853 
L 304.109582 442.743837 
L 304.231402 451.033209 
L 304.231402 448.960853 
L 304.596864 444.816174 
L 304.840505 444.816174 
L 304.840505 444.816174 
L 304.962326 446.888516 
L 304.962326 444.816174 
L 305.205949 446.888516 
L 305.205949 444.816174 
L 305.32777 438.599125 
L 305.815052 446.888516 
L 305.936873 446.888516 
L 306.180496 444.816174 
L 306.424137 438.599125 
L 306.545957 442.743837 
L 306.789599 444.816174 
L 306.911419 438.599125 
L 307.520504 446.888516 
L 307.520504 442.743837 
L 307.764145 444.816174 
L 308.129607 442.743837 
L 308.37323 440.671491 
L 308.616871 448.960853 
L 309.225975 448.960853 
L 309.835059 440.671491 
L 309.95688 440.671491 
L 310.687786 446.888516 
L 310.931427 440.671491 
L 311.662332 434.454456 
L 311.905973 442.743837 
L 311.905973 442.743837 
L 312.271435 436.526807 
L 312.7587 438.599125 
L 313.245982 442.743837 
L 313.611426 440.671491 
L 313.611426 438.599125 
L 314.585991 438.599125 
L 314.829614 440.671491 
L 314.829614 442.743837 
L 314.829614 440.671491 
L 315.073255 440.671491 
L 315.925981 436.526807 
L 316.291443 438.599125 
L 316.535084 442.743837 
L 316.535084 432.382134 
L 316.900528 442.743837 
L 316.900528 436.526807 
L 316.900528 442.743837 
L 317.022348 436.526807 
L 317.38781 434.454456 
L 317.631451 436.526807 
L 317.753272 434.454456 
L 317.996895 438.599125 
L 318.362357 438.599125 
L 318.605998 440.671491 
L 318.971442 436.526807 
L 319.093262 438.599125 
L 319.093262 436.526807 
L 319.702365 436.526807 
L 320.18963 438.599125 
L 320.31145 436.526807 
L 320.433271 440.671491 
L 320.676912 434.454456 
L 321.164176 438.599125 
L 322.382364 436.526807 
L 322.747826 432.382134 
L 323.113288 438.599125 
L 323.113288 438.599125 
L 323.23509 438.599125 
L 323.722373 432.382134 
L 323.966014 434.454456 
L 324.575099 436.526807 
L 324.81874 436.526807 
L 324.940561 438.599125 
L 325.549646 436.526807 
L 326.646013 438.599125 
L 326.889654 426.165109 
L 326.889654 434.454456 
L 327.133295 430.309773 
L 327.255116 432.382134 
L 327.986021 434.454456 
L 327.986021 428.237421 
L 328.838748 432.382134 
L 329.082389 430.309773 
L 329.082389 428.237421 
L 329.204209 428.237421 
L 329.32603 432.382134 
L 329.447851 432.382134 
L 329.813294 434.454456 
L 330.056935 434.454456 
L 330.178756 432.382134 
L 330.178756 432.382134 
L 330.300577 432.382134 
L 330.422397 434.454456 
L 330.422397 434.454456 
L 330.909662 428.237421 
L 330.909662 428.237421 
L 331.275123 430.309773 
L 331.396944 432.382134 
L 331.762406 432.382134 
L 332.371491 430.309773 
L 332.493311 428.237421 
L 334.807867 428.237421 
L 334.929687 424.092782 
L 335.538772 424.092782 
L 336.269678 430.309773 
L 336.635139 422.020406 
L 338.218789 428.237421 
L 338.462412 430.309773 
L 338.827874 428.237421 
L 338.827874 430.309773 
L 338.949695 424.092782 
L 338.949695 424.092782 
L 339.802421 424.092782 
L 340.167883 426.165109 
L 340.776967 424.092782 
L 340.898788 419.948098 
L 341.26425 422.020406 
L 341.873335 428.237421 
L 341.995155 419.948098 
L 342.360617 426.165109 
L 342.482438 422.020406 
L 342.969702 426.165109 
L 343.213343 419.948098 
L 343.335164 426.165109 
L 343.335164 426.165109 
L 343.700608 426.165109 
L 343.700608 424.092782 
L 343.944249 428.237421 
L 343.944249 424.092782 
L 344.431531 422.020406 
L 344.553352 424.092782 
L 344.918796 424.092782 
L 344.918796 419.948098 
L 344.918796 422.020406 
L 345.406078 424.092782 
L 345.649719 419.948098 
L 345.649719 424.092782 
L 346.015163 424.092782 
L 346.380625 422.020406 
L 346.624266 424.092782 
L 346.746086 426.165109 
L 346.98971 415.803386 
L 347.233351 417.875742 
L 347.842454 419.948098 
L 347.842454 422.020406 
L 348.938821 424.092782 
L 349.791547 419.948098 
L 349.913368 417.875742 
L 350.03517 419.948098 
L 351.009735 415.803386 
L 351.131538 411.658683 
L 351.253358 419.948098 
L 352.715187 422.020406 
L 352.715187 419.948098 
L 353.446093 422.020406 
L 353.446093 415.803386 
L 353.811555 419.948098 
L 354.055196 415.803386 
L 354.664281 417.875742 
L 355.395186 417.875742 
L 355.882469 415.803386 
L 356.004289 419.948098 
L 356.12611 411.658683 
L 356.369751 415.803386 
L 357.100657 417.875742 
L 357.344298 415.803386 
L 357.466118 419.948098 
L 357.709742 411.658683 
L 357.831562 411.658683 
L 357.831562 411.658683 
L 357.953383 419.948098 
L 357.953383 415.803386 
L 358.197024 415.803386 
L 358.562486 413.731064 
L 358.684288 415.803386 
L 358.806109 419.948098 
L 358.806109 411.658683 
L 359.658853 415.803386 
L 359.780656 411.658683 
L 360.267938 415.803386 
L 360.389759 411.658683 
L 360.6334 411.658683 
L 360.877023 415.803386 
L 360.998844 415.803386 
L 361.607947 409.586356 
L 362.095211 419.948098 
L 362.095211 409.586356 
L 362.095211 413.731064 
L 362.338852 424.092782 
L 362.460673 411.658683 
L 362.826134 407.514029 
L 363.069758 407.514029 
L 364.044304 405.441731 
L 364.044304 413.731064 
L 364.166125 409.586356 
L 364.775228 411.658683 
L 365.018869 413.731064 
L 365.506133 411.658683 
L 365.749775 409.586356 
L 365.871595 413.731064 
L 365.993416 413.731064 
L 366.358859 409.586356 
L 367.698868 407.514029 
L 368.429774 407.514029 
L 369.038877 409.586356 
L 370.013423 411.658683 
L 370.378885 403.369326 
L 370.622508 405.441731 
L 370.98797 411.658683 
L 370.98797 405.441731 
L 371.353432 403.369326 
L 371.597055 409.586356 
L 371.718875 405.441731 
L 371.718875 405.441731 
L 371.840696 411.658683 
L 372.449799 407.514029 
L 372.693422 409.586356 
L 372.693422 401.297028 
L 372.815243 411.658683 
L 372.815243 405.441731 
L 373.424346 399.224653 
L 373.78979 405.441731 
L 374.398893 409.586356 
L 374.642534 401.297028 
L 374.886157 403.369326 
L 375.007977 403.369326 
L 375.007977 405.441731 
L 375.738901 405.441731 
L 375.738901 407.514029 
L 375.982524 397.152297 
L 376.347986 409.586356 
L 376.347986 407.514029 
L 376.347986 399.224653 
L 376.713448 411.658683 
L 376.713448 407.514029 
L 376.83525 405.441731 
L 377.809815 409.586356 
L 378.175259 399.224653 
L 379.637088 399.224653 
L 379.637088 405.441731 
L 379.758909 399.224653 
L 380.733455 399.224653 
L 380.977096 407.514029 
L 380.977096 401.297028 
L 381.22072 403.369326 
L 381.708002 399.224653 
L 381.708002 399.224653 
L 382.317087 411.658683 
L 383.413454 407.514029 
L 383.900737 403.369326 
L 383.900737 401.297028 
L 384.388001 401.297028 
L 384.509822 399.224653 
L 384.997104 403.369326 
L 385.118925 393.007719 
L 385.484368 401.297028 
L 385.484368 393.007719 
L 385.606189 397.152297 
L 386.215292 390.935286 
L 386.215292 390.935286 
L 386.337112 397.152297 
L 386.337112 403.369326 
L 386.824377 409.586356 
L 387.189839 401.297028 
L 387.43348 401.297028 
L 387.43348 393.007719 
L 387.677103 388.862997 
L 387.677103 397.152297 
L 387.798923 399.224653 
L 388.65165 397.152297 
L 389.504394 393.007719 
L 390.600761 401.297028 
L 390.844384 401.297028 
L 391.331667 390.935286 
L 391.697128 388.862997 
L 391.940752 397.152297 
L 392.184393 397.152297 
L 392.793496 388.862997 
L 393.402581 393.007719 
L 393.402581 393.007719 
L 393.524401 395.07996 
L 393.524401 401.297028 
L 393.768043 388.862997 
L 393.889863 390.935286 
L 394.011666 397.152297 
L 394.498948 399.224653 
L 394.98623 390.935286 
L 395.108033 390.935286 
L 395.229854 395.07996 
L 395.229854 388.862997 
L 395.595315 388.862997 
L 395.595315 395.07996 
L 395.717136 390.935286 
L 396.2044 386.790699 
L 396.813503 390.935286 
L 397.178965 395.07996 
L 397.178965 393.007719 
L 397.422588 390.935286 
L 397.544409 384.718285 
L 397.666229 388.862997 
L 398.275314 390.935286 
L 398.518955 388.862997 
L 398.762597 388.862997 
L 399.493502 386.790699 
L 399.615323 384.718285 
L 399.615323 386.790699 
L 399.737143 382.645968 
L 400.102605 395.07996 
L 400.224426 388.862997 
L 400.224426 382.645968 
L 400.468049 388.862997 
L 400.71169 388.862997 
L 400.833511 378.501323 
L 401.320793 388.862997 
L 401.929878 386.790699 
L 402.051699 382.645968 
L 402.051699 386.790699 
L 403.513528 388.862997 
L 404.122613 384.718285 
L 404.244433 380.573573 
L 404.366254 388.862997 
L 404.731698 378.501323 
L 404.853518 388.862997 
L 405.340801 397.152297 
L 405.949885 376.428909 
L 405.949885 386.790699 
L 406.558989 388.862997 
L 406.680791 388.862997 
L 406.680791 378.501323 
L 407.168073 386.790699 
L 407.289912 384.718285 
L 408.38628 382.645968 
L 408.751723 382.645968 
L 409.360808 388.862997 
L 409.84809 376.428909 
L 410.091732 384.718285 
L 410.335373 382.645968 
L 410.700817 386.790699 
L 411.309901 376.428909 
L 412.528108 374.35663 
L 412.771712 393.007719 
L 413.502636 380.573573 
L 413.502636 384.718285 
L 413.86808 384.718285 
L 414.111721 374.35663 
L 414.23356 388.862997 
L 414.477201 376.428909 
L 414.477201 376.428909 
L 414.964447 384.718285 
L 415.208088 378.501323 
L 415.45173 384.718285 
L 415.695371 382.645968 
L 415.939012 378.501323 
L 415.939012 376.428909 
L 416.426294 376.428909 
L 417.157182 384.718285 
L 417.400823 378.501323 
L 417.400823 380.573573 
L 417.522662 372.284264 
L 417.522662 376.428909 
L 417.888105 374.35663 
L 418.253549 382.645968 
L 418.49719 382.645968 
L 418.740832 378.501323 
L 418.740832 380.573573 
L 418.86267 380.573573 
L 418.984473 370.211869 
L 419.106311 380.573573 
L 419.471755 378.501323 
L 419.593558 370.211869 
L 419.715396 374.35663 
L 419.715396 378.501323 
L 420.08084 376.428909 
L 420.446284 376.428909 
L 421.299046 370.211869 
L 421.299046 374.35663 
L 421.786292 366.067263 
L 422.273575 378.501323 
L 422.273575 384.718285 
L 422.395413 378.501323 
L 422.517216 378.501323 
L 423.369942 374.35663 
L 423.491744 380.573573 
L 423.613583 378.501323 
L 423.613583 372.284264 
L 423.857224 374.35663 
L 424.222668 378.501323 
L 424.344507 378.501323 
L 424.466309 372.284264 
L 424.466309 378.501323 
L 424.709951 370.211869 
L 425.075394 366.067263 
L 425.319035 370.211869 
L 425.319035 361.92257 
L 425.806318 370.211869 
L 426.049959 376.428909 
L 426.902685 372.284264 
L 427.146326 368.139552 
L 428.242694 368.139552 
L 428.364496 372.284264 
L 428.851779 370.211869 
L 429.217222 368.139552 
L 429.217222 368.139552 
L 429.582702 363.994869 
L 429.704505 372.284264 
L 429.826343 363.994869 
L 430.435428 366.067263 
L 430.800872 374.35663 
L 430.800872 368.139552 
L 430.922711 363.994869 
L 431.044513 366.067263 
L 431.409957 368.139552 
L 432.506324 368.139552 
L 432.871804 363.994869 
L 432.993607 368.139552 
L 433.480889 361.92257 
L 433.602692 366.067263 
L 433.846333 361.92257 
L 434.089974 355.705521 
L 434.9427 372.284264 
L 435.429983 368.139552 
L 435.551785 363.994869 
L 435.795426 349.488549 
L 436.160906 359.850282 
L 436.769991 361.92257 
L 437.013632 361.92257 
L 437.622717 368.139552 
L 438.11 376.428909 
L 438.231802 359.850282 
L 438.231802 372.284264 
L 438.962726 357.777819 
L 439.328169 368.139552 
L 439.328169 366.067263 
L 439.693613 355.705521 
L 439.937254 361.92257 
L 440.059093 374.35663 
L 440.78998 355.705521 
L 440.911819 366.067263 
L 441.033622 366.067263 
L 441.033622 370.211869 
L 441.520904 359.850282 
L 441.520904 366.067263 
L 441.886348 370.211869 
L 441.886348 366.067263 
L 442.495469 363.994869 
L 443.348195 351.560799 
L 443.95728 359.850282 
L 443.95728 366.067263 
L 444.200921 357.777819 
L 444.444562 368.139552 
L 444.566365 363.994869 
L 444.566365 355.705521 
L 445.297288 370.211869 
L 445.419091 359.850282 
L 445.54093 361.92257 
L 445.662732 357.777819 
L 445.784571 372.284264 
L 446.393656 363.994869 
L 446.393656 361.92257 
L 446.515458 359.850282 
L 447.124543 359.850282 
L 447.124543 355.705521 
L 447.246382 357.777819 
L 447.855467 357.777819 
L 447.855467 366.067263 
L 448.58639 351.560799 
L 448.951834 355.705521 
L 449.073673 345.343779 
L 449.073673 361.92257 
L 449.073673 361.92257 
L 450.048201 351.560799 
L 450.291843 355.705521 
L 450.657286 357.777819 
L 450.779125 357.777819 
L 450.779125 353.633155 
L 451.144569 361.92257 
L 452.362775 355.705521 
L 452.60638 355.705521 
L 453.093662 351.560799 
L 453.337303 361.92257 
L 453.824586 357.777819 
L 453.946388 355.705521 
L 453.946388 353.633155 
L 454.433671 351.560799 
L 454.555509 349.488549 
L 454.799114 357.777819 
L 454.799114 339.12674 
L 454.799114 366.067263 
L 454.799114 357.777819 
L 456.01732 349.488549 
L 456.139123 353.633155 
L 456.139123 357.777819 
L 456.260962 351.560799 
L 456.260962 359.850282 
L 456.626405 349.488549 
L 457.113688 345.343779 
L 457.357329 359.850282 
L 457.357329 357.777819 
L 457.722773 353.633155 
L 458.210055 353.633155 
L 458.331858 343.271481 
L 458.575499 349.488549 
L 459.306422 351.560799 
L 459.306422 357.777819 
L 459.306422 351.560799 
L 459.793705 351.560799 
L 460.524592 345.343779 
L 461.499157 343.271481 
L 461.620959 347.416164 
L 461.742798 343.271481 
L 462.230044 349.488549 
L 462.230044 345.343779 
L 464.057335 357.777819 
L 464.179174 355.705521 
L 465.153703 347.416164 
L 465.397344 347.416164 
L 465.640985 337.054499 
L 466.128268 361.92257 
L 466.25007 347.416164 
L 466.737352 339.12674 
L 467.224635 347.416164 
L 467.46824 343.271481 
L 467.590079 345.343779 
L 467.83372 343.271481 
L 468.077361 339.12674 
L 468.321002 357.777819 
L 468.321002 339.12674 
L 468.564607 339.12674 
L 468.930087 349.488549 
L 469.05189 341.199221 
L 469.295531 343.271481 
L 469.417369 332.909855 
L 470.026454 345.343779 
L 470.148257 343.271481 
L 470.270096 345.343779 
L 470.635539 341.199221 
L 470.757342 349.488549 
L 470.757342 334.982172 
L 471.366463 341.199221 
L 472.09735 337.054499 
L 472.219189 339.12674 
L 472.340991 337.054499 
L 472.46283 347.416164 
L 472.828274 341.199221 
L 472.828274 339.12674 
L 472.950076 339.12674 
L 473.071915 334.982172 
L 473.559198 349.488549 
L 473.559198 349.488549 
L 473.802839 337.054499 
L 474.290085 341.199221 
L 475.021009 351.560799 
L 475.021009 330.837498 
L 475.142811 341.199221 
L 475.508291 353.633155 
L 475.508291 339.12674 
L 475.508291 345.343779 
L 475.630093 343.271481 
L 475.873735 334.982172 
L 475.873735 339.12674 
L 476.117376 341.199221 
L 476.239178 353.633155 
L 476.604658 337.054499 
L 477.335546 330.837498 
L 477.701026 330.837498 
L 477.701026 328.765123 
L 477.701026 339.12674 
L 478.553752 339.12674 
L 478.919195 337.054499 
L 479.041034 347.416164 
L 479.284639 332.909855 
L 479.89376 332.909855 
L 480.381006 341.199221 
L 480.868289 341.199221 
L 481.11193 326.692767 
L 481.599212 326.692767 
L 482.330136 351.560799 
L 482.573741 326.692767 
L 482.573741 341.199221 
L 482.573741 324.620449 
L 482.817382 343.271481 
L 483.061023 337.054499 
L 483.548306 345.343779 
L 483.91375 328.765123 
L 484.035588 337.054499 
L 484.766476 328.765123 
L 485.253758 326.692767 
L 485.497399 326.692767 
L 485.741041 339.12674 
L 486.715605 330.837498 
L 487.081049 341.199221 
L 487.568332 330.837498 
L 488.299219 339.12674 
L 488.664699 332.909855 
L 488.786501 332.909855 
L 489.030142 339.12674 
L 489.030142 320.475814 
L 489.882869 332.909855 
L 490.004671 328.765123 
L 490.491953 328.765123 
L 490.613792 332.909855 
L 490.735595 332.909855 
L 490.857433 322.548151 
L 490.979236 341.199221 
L 491.34468 324.620449 
L 491.588321 322.548151 
L 492.075603 328.765123 
L 492.684688 328.765123 
L 492.806527 322.548151 
L 492.806527 330.837498 
L 492.928329 328.765123 
L 493.293773 332.909855 
L 493.537414 326.692767 
L 493.659253 328.765123 
L 493.659253 337.054499 
L 494.511979 324.620449 
L 494.511979 320.475814 
L 494.75562 334.982172 
L 494.999262 328.765123 
L 495.364705 326.692767 
L 496.095629 332.909855 
L 496.217431 330.837498 
L 496.582875 318.403342 
L 496.582875 328.765123 
L 496.826516 334.982172 
L 497.191996 312.18639 
L 497.435637 322.548151 
L 498.166525 324.620449 
L 498.532005 328.765123 
L 498.653807 314.258765 
L 499.019251 326.692767 
L 499.750174 320.475814 
L 500.115618 322.548151 
L 500.359259 322.548151 
L 501.577465 326.692767 
L 501.699268 328.765123 
L 502.308353 318.403342 
L 502.917438 326.692767 
L 504.622926 330.837498 
L 504.622926 314.258765 
L 504.744729 324.620449 
L 505.110172 320.475814 
L 505.232011 320.475814 
L 505.232011 320.475814 
L 505.232011 316.331044 
L 505.353814 316.331044 
L 505.353814 324.620449 
L 505.597455 316.331044 
L 505.719294 320.475814 
L 505.841096 318.403342 
L 506.450181 330.837498 
L 507.181105 312.18639 
L 507.424746 320.475814 
L 507.424746 316.331044 
L 507.546548 316.331044 
L 508.399274 324.620449 
L 509.61748 324.620449 
L 509.61748 324.620449 
L 509.739283 322.548151 
L 509.982924 322.548151 
L 509.982924 324.620449 
L 510.470206 322.548151 
L 510.83565 314.258765 
L 511.079291 318.403342 
L 511.322933 308.041619 
L 511.322933 320.475814 
L 511.444735 312.18639 
L 511.566574 316.331044 
L 511.810215 318.403342 
L 511.932017 324.620449 
L 512.297497 314.258765 
L 512.784744 314.258765 
L 512.784744 312.18639 
L 513.759308 314.258765 
L 514.490232 314.258765 
L 515.221119 318.403342 
L 515.342958 310.113956 
L 515.342958 314.258765 
L 516.195684 314.258765 
L 516.317487 303.897042 
L 516.682967 316.331044 
L 517.04841 308.041619 
L 517.04841 308.041619 
L 517.170213 310.113956 
L 517.657495 303.897042 
L 517.779334 303.897042 
L 517.779334 305.969398 
L 518.144778 305.969398 
L 518.144778 312.18639 
L 518.388419 328.765123 
L 518.388419 308.041619 
L 518.510221 322.548151 
L 518.997504 314.258765 
L 519.362947 305.969398 
L 519.484786 312.18639 
L 519.972069 316.331044 
L 520.215674 308.041619 
L 520.581154 299.752349 
L 520.824795 312.18639 
L 521.43388 303.897042 
L 521.555682 312.18639 
L 521.677521 303.897042 
L 522.042965 310.113956 
L 522.042965 316.331044 
L 522.164767 310.113956 
L 523.139332 316.331044 
L 523.261134 312.18639 
L 523.626614 316.331044 
L 524.47934 299.752349 
L 524.601143 308.041619 
L 525.210264 310.113956 
L 525.941151 297.680032 
L 526.672075 299.752349 
L 526.793878 312.18639 
L 527.28116 305.969398 
L 527.28116 318.403342 
L 527.28116 308.041619 
L 527.402999 303.897042 
L 527.890245 303.897042 
L 528.012084 297.680032 
L 528.499366 310.113956 
L 528.986612 295.607676 
L 529.230253 308.041619 
L 529.717536 305.969398 
L 530.570262 299.752349 
L 530.570262 289.390549 
L 531.057544 308.041619 
L 531.057544 299.752349 
L 531.301186 318.403342 
L 532.275714 297.680032 
L 532.519355 297.680032 
L 533.12844 305.969398 
L 533.250279 297.680032 
L 533.615723 293.535377 
L 535.077534 312.18639 
L 535.199372 291.462983 
L 535.443014 299.752349 
L 535.808457 301.824725 
L 536.783022 291.462983 
L 537.392107 301.824725 
L 537.635748 301.824725 
L 538.732116 305.969398 
L 538.853918 308.041619 
L 538.975757 291.462983 
L 539.950285 295.607676 
L 540.072124 297.680032 
L 540.437568 291.462983 
L 540.803011 295.607676 
L 540.92485 295.607676 
L 540.92485 293.535377 
L 541.168491 308.041619 
L 541.290294 293.535377 
L 541.655738 299.752349 
L 542.386661 297.680032 
L 542.630302 295.607676 
L 542.630302 293.535377 
L 542.752105 291.462983 
L 542.752105 293.535377 
L 543.117585 303.897042 
L 543.604831 303.897042 
L 544.701198 293.535377 
L 545.066678 297.680032 
L 545.188481 301.824725 
L 545.31032 291.462983 
L 545.919404 295.607676 
L 546.528489 291.462983 
L 546.893933 285.245914 
L 547.624857 276.956644 
L 548.35578 283.173558 
L 548.477583 285.245914 
L 548.843063 283.173558 
L 548.964865 293.535377 
L 549.086668 293.535377 
L 549.452148 291.462983 
L 549.452148 295.607676 
L 549.57395 283.173558 
L 550.183035 281.101241 
L 550.304874 297.680032 
L 550.913959 295.607676 
L 551.644882 285.245914 
L 551.888523 287.318328 
L 552.132165 287.318328 
L 552.37577 289.390549 
L 552.497608 295.607676 
L 552.863052 283.173558 
L 553.228496 285.245914 
L 553.593976 283.173558 
L 553.837617 276.956644 
L 553.959419 291.462983 
L 554.203061 289.390549 
L 554.203061 285.245914 
L 554.933984 293.535377 
L 555.299428 285.245914 
L 555.543069 285.245914 
L 555.543069 276.956644 
L 555.78671 295.607676 
L 556.639436 285.245914 
L 556.883078 272.81199 
L 556.883078 289.390549 
L 557.37036 283.173558 
L 557.492163 291.462983 
L 557.492163 281.101241 
L 557.735804 281.101241 
L 558.466727 272.81199 
L 558.953973 285.245914 
L 559.197615 279.028942 
L 559.319453 285.245914 
L 559.441256 279.028942 
L 559.563095 285.245914 
L 559.684897 283.173558 
L 559.684897 287.318328 
L 559.928538 274.884346 
L 560.17218 287.318328 
L 560.415821 266.594902 
L 560.415821 283.173558 
L 560.903067 281.101241 
L 561.755829 287.318328 
L 561.877632 279.028942 
L 562.243075 281.101241 
L 562.730358 285.245914 
L 562.730358 268.66722 
L 562.973999 297.680032 
L 563.948564 276.956644 
L 564.192169 285.245914 
L 564.80129 276.956644 
L 565.410375 283.173558 
L 565.532177 276.956644 
L 565.532177 287.318328 
L 565.654016 274.884346 
L 565.775819 287.318328 
L 567.23763 276.956644 
L 567.481271 285.245914 
L 567.846751 264.522662 
L 567.968553 279.028942 
L 568.699477 274.884346 
L 568.699477 279.028942 
L 569.064921 262.45017 
L 569.064921 262.45017 
L 569.430364 274.884346 
L 570.039485 270.739479 
L 570.404929 281.101241 
L 570.404929 270.739479 
L 570.64857 279.028942 
L 570.892212 281.101241 
L 570.892212 274.884346 
L 571.257655 279.028942 
L 571.623099 279.028942 
L 571.623099 279.028942 
L 571.744938 268.66722 
L 572.23222 272.81199 
L 572.354023 276.956644 
L 572.354023 266.594902 
L 572.475861 272.81199 
L 572.719466 274.884346 
L 572.719466 272.81199 
L 573.45039 268.66722 
L 573.815834 272.81199 
L 574.181314 283.173558 
L 574.303116 283.173558 
L 574.424955 270.739479 
L 574.546757 274.884346 
L 575.155842 270.739479 
L 576.130407 287.318328 
L 577.104936 264.522662 
L 577.226774 266.594902 
L 578.566783 276.956644 
L 579.784953 262.45017 
L 579.784953 264.522662 
L 580.028594 279.028942 
L 580.028594 279.028942 
L 580.394037 266.594902 
L 580.637679 279.028942 
L 581.855885 268.66722 
L 582.46497 260.377776 
L 582.586772 245.871514 
L 582.586772 276.956644 
L 582.708611 276.956644 
L 583.195893 262.45017 
L 583.317696 264.522662 
L 583.439498 262.45017 
L 584.657704 262.45017 
L 585.023148 268.66722 
L 585.266789 268.66722 
L 585.51043 264.522662 
L 586.119515 262.45017 
L 586.119515 276.956644 
L 586.241354 258.305574 
L 586.241354 264.522662 
L 586.363157 258.305574 
L 586.7286 270.739479 
L 586.850439 270.739479 
L 586.972241 264.522662 
L 587.459524 252.088621 
L 588.190447 252.088621 
L 588.555891 264.522662 
L 588.677694 254.160804 
L 588.921335 258.305574 
L 588.921335 279.028942 
L 589.043174 256.233237 
L 589.164976 270.739479 
L 589.164976 266.594902 
L 589.8959 260.377776 
L 589.8959 256.233237 
L 590.748626 262.45017 
L 591.114069 258.305574 
L 591.479549 272.81199 
L 591.844993 264.522662 
L 591.966796 270.739479 
L 592.454078 254.160804 
L 592.697719 252.088621 
L 592.94136 264.522662 
L 592.94136 252.088621 
L 593.428643 243.799178 
L 594.646813 260.377776 
L 594.646813 266.594902 
L 594.768651 260.377776 
L 594.890454 260.377776 
L 595.74318 262.45017 
L 596.10866 266.594902 
L 596.474104 256.233237 
L 596.717745 262.45017 
L 597.570471 268.66722 
L 598.423197 245.871514 
L 598.666838 260.377776 
L 598.788641 243.799178 
L 598.788641 243.799178 
L 599.032282 254.160804 
L 599.275923 252.088621 
L 599.397726 272.81199 
L 600.006847 254.160804 
L 600.128649 245.871514 
L 600.859573 264.522662 
L 600.859573 252.088621 
L 601.103214 270.739479 
L 601.468658 258.305574 
L 601.59046 260.377776 
L 603.17411 250.016072 
L 603.17411 256.233237 
L 603.295949 264.522662 
L 603.53959 260.377776 
L 603.661392 254.160804 
L 604.148675 262.45017 
L 604.270477 256.233237 
L 605.123203 256.233237 
L 605.366845 266.594902 
L 605.488683 247.943909 
L 605.732325 264.522662 
L 605.732325 252.088621 
L 605.854127 268.66722 
L 605.97593 245.871514 
L 606.341409 254.160804 
L 606.341409 254.160804 
L 606.463212 260.377776 
L 607.315938 235.509811 
L 607.925023 254.160804 
L 608.046862 250.016072 
L 608.412305 262.45017 
L 608.534144 245.871514 
L 609.143229 250.016072 
L 609.874153 264.522662 
L 609.874153 239.654523 
L 609.995955 243.799178 
L 610.361399 237.582071 
L 610.848681 233.437551 
L 611.457766 245.871514 
L 611.457766 250.016072 
L 611.579605 237.582071 
L 611.823246 245.871514 
L 611.823246 243.799178 
L 612.797775 241.726879 
L 613.163255 264.522662 
L 613.650501 233.437551 
L 614.625066 245.871514 
L 614.746868 252.088621 
L 615.112348 241.726879 
L 615.234151 252.088621 
L 615.477792 247.943909 
L 615.477792 258.305574 
L 615.477792 245.871514 
L 615.599594 243.799178 
L 615.599594 239.654523 
L 616.208715 243.799178 
L 616.208715 239.654523 
L 616.330518 239.654523 
L 616.330518 243.799178 
L 617.183244 247.943909 
L 617.914168 243.799178 
L 617.914168 254.160804 
L 618.03597 247.943909 
L 618.279611 233.437551 
L 618.40145 245.871514 
L 618.645055 237.582071 
L 619.132337 241.726879 
L 619.375979 245.871514 
L 619.375979 237.582071 
L 619.497817 250.016072 
L 621.081431 239.654523 
L 621.325072 227.220386 
L 621.446911 233.437551 
L 622.543278 247.943909 
L 622.665081 252.088621 
L 623.761448 233.437551 
L 623.761448 243.799178 
L 624.005089 239.654523 
L 624.370533 254.160804 
L 624.492372 241.726879 
L 624.857815 241.726879 
L 625.101456 231.365234 
L 625.954183 235.509811 
L 626.319626 229.292665 
L 626.441465 233.437551 
L 626.806909 235.509811 
L 626.928747 252.088621 
L 627.415994 233.437551 
L 628.390558 250.016072 
L 628.999643 223.075751 
L 629.243284 233.437551 
L 629.486926 233.437551 
L 629.730567 243.799178 
L 630.705095 241.726879 
L 630.705095 225.148069 
L 630.826934 239.654523 
L 631.314217 243.799178 
L 631.557822 237.582071 
L 632.288745 231.365234 
L 632.288745 237.582071 
L 632.89783 225.148069 
L 633.019669 227.220386 
L 633.506951 225.148069 
L 633.628754 241.726879 
L 633.750556 237.582071 
L 633.750556 227.220386 
L 634.116036 221.003414 
L 634.48148 223.075751 
L 635.456045 235.509811 
L 635.821488 229.292665 
L 636.308771 231.365234 
L 636.308771 235.509811 
L 637.039658 229.292665 
L 637.648779 223.075751 
L 638.501505 237.582071 
L 639.232393 229.292665 
L 639.841514 218.931039 
L 640.32876 225.148069 
L 640.450599 233.437551 
L 640.937881 229.292665 
L 640.937881 227.220386 
L 641.181486 227.220386 
L 641.303325 225.148069 
L 642.765136 214.786269 
L 643.130616 243.799178 
L 643.130616 221.003414 
L 643.252418 214.786269 
L 644.105145 233.437551 
L 644.226983 227.220386 
L 645.688794 225.148069 
L 646.663323 237.582071 
L 646.663323 221.003414 
L 646.906964 216.858818 
L 648.003331 216.858818 
L 648.612453 223.075751 
L 648.612453 212.714106 
L 648.856057 216.858818 
L 648.977896 212.714106 
L 649.586981 227.220386 
L 649.70882 216.858818 
L 650.074264 235.509811 
L 650.196066 214.786269 
L 650.439707 208.569374 
L 650.561546 218.931039 
L 651.657913 223.075751 
L 651.779716 233.437551 
L 652.145159 225.148069 
L 652.876083 216.858818 
L 653.119724 221.003414 
L 653.241527 202.352364 
L 653.485168 223.075751 
L 653.97245 223.075751 
L 654.094253 233.437551 
L 654.337894 221.003414 
L 654.825177 206.497037 
L 655.434261 221.003414 
L 655.434261 225.148069 
L 655.799741 229.292665 
L 656.530629 210.64173 
L 657.505194 216.858818 
L 657.870637 223.075751 
L 657.992476 212.714106 
L 657.992476 227.220386 
L 658.236117 210.64173 
L 658.479722 225.148069 
L 658.479722 206.497037 
L 658.967005 235.509811 
L 658.967005 231.365234 
L 659.454287 202.352364 
L 660.063372 202.352364 
L 660.185211 227.220386 
L 660.307013 204.424604 
L 661.037937 212.714106 
L 661.159739 210.64173 
L 661.159739 216.858818 
L 661.281578 210.64173 
L 661.40338 216.858818 
L 661.40338 214.786269 
L 661.768824 223.075751 
L 662.499748 218.931039 
L 662.499748 218.931039 
L 662.62155 202.352364 
L 662.743389 223.075751 
L 662.865191 216.858818 
L 663.596115 216.858818 
L 663.961559 225.148069 
L 664.448841 216.858818 
L 664.448841 214.786269 
L 664.57068 225.148069 
L 664.936124 212.714106 
L 665.301567 214.786269 
L 665.78885 208.569374 
L 665.910652 223.075751 
L 665.910652 202.352364 
L 665.910652 204.424604 
L 666.276132 218.931039 
L 666.397935 212.714106 
L 666.885217 212.714106 
L 667.00702 218.931039 
L 667.372499 210.64173 
L 667.494302 214.786269 
L 667.981584 206.497037 
L 668.347028 208.569374 
L 668.956149 210.64173 
L 669.077952 202.352364 
L 669.199754 202.352364 
L 669.321593 196.135372 
L 670.174319 202.352364 
L 670.296121 183.701274 
L 670.905243 208.569374 
L 671.027045 204.424604 
L 671.148884 210.64173 
L 672.732497 171.267215 
L 673.341582 212.714106 
L 673.707062 208.569374 
L 674.194345 204.424604 
L 674.43795 196.135372 
L 674.43795 187.845948 
L 674.559788 200.280143 
L 675.168873 191.990776 
L 675.290712 194.0629 
L 675.656156 202.352364 
L 677.605249 214.786269 
L 677.605249 198.207632 
L 678.336173 200.280143 
L 678.457975 206.497037 
L 678.457975 202.352364 
L 678.701616 212.714106 
L 679.188899 202.352364 
L 679.797984 212.714106 
L 679.919786 206.497037 
L 680.041625 206.497037 
L 680.285266 218.931039 
L 680.407069 212.714106 
L 680.407069 196.135372 
L 682.478001 210.64173 
L 682.965283 202.352364 
L 683.208888 194.0629 
L 683.452529 212.714106 
L 683.696171 189.918304 
L 684.427094 187.845948 
L 684.548897 189.918304 
L 684.670735 196.135372 
L 685.157982 191.990776 
L 685.157982 194.0629 
L 685.523461 194.0629 
L 685.767103 206.497037 
L 686.010744 187.845948 
L 686.132546 194.0629 
L 686.132546 206.497037 
L 686.254349 204.424604 
L 686.254349 191.990776 
L 686.376188 191.990776 
L 686.49799 206.497037 
L 686.49799 206.497037 
L 686.86347 204.424604 
L 687.107111 189.918304 
L 687.350716 191.990776 
L 687.959837 189.918304 
L 688.325281 206.497037 
L 688.447083 189.918304 
L 690.274374 206.497037 
L 690.883459 194.0629 
L 691.736185 187.845948 
L 692.467109 206.497037 
L 692.588948 202.352364 
L 693.198033 206.497037 
L 694.903485 194.0629 
L 694.903485 200.280143 
L 695.390767 185.77365 
L 695.51257 198.207632 
L 695.999852 194.0629 
L 695.999852 200.280143 
L 696.121655 198.207632 
L 696.243493 189.918304 
L 696.365296 191.990776 
L 696.487135 202.352364 
L 696.487135 175.411869 
L 696.487135 177.484148 
L 696.974381 194.0629 
L 696.974381 179.556523 
L 697.09622 204.424604 
L 697.339861 189.918304 
L 697.461663 160.905453 
L 698.070748 198.207632 
L 699.045313 185.77365 
L 699.288954 187.845948 
L 699.532595 187.845948 
L 700.263483 173.339455 
L 700.263483 189.918304 
L 700.385322 191.990776 
L 700.385322 189.918304 
L 700.507124 187.845948 
L 700.750765 187.845948 
L 701.35985 185.77365 
L 701.603491 194.0629 
L 701.968971 202.352364 
L 702.456217 202.352364 
L 702.578056 191.990776 
L 702.821697 189.918304 
L 702.821697 175.411869 
L 703.187141 179.556523 
L 703.187141 181.629034 
L 703.674424 204.424604 
L 703.918065 189.918304 
L 704.161706 189.918304 
L 704.283508 185.77365 
L 704.405347 187.845948 
L 705.379876 169.194955 
L 705.988961 179.556523 
L 706.841687 187.845948 
L 706.963525 175.411869 
L 707.450808 175.411869 
L 707.57261 194.0629 
L 707.938054 173.339455 
L 708.059893 185.77365 
L 708.547175 196.135372 
L 708.547175 169.194955 
L 710.130789 185.77365 
L 710.252627 175.411869 
L 710.252627 191.990776 
L 710.73991 173.339455 
L 710.983551 185.77365 
L 711.105317 165.050358 
L 711.105317 173.339455 
L 711.5926 183.701274 
L 711.836277 185.77365 
L 712.201721 181.629034 
L 713.176286 169.194955 
L 713.176286 198.207632 
L 713.541729 187.845948 
L 713.907173 181.629034 
L 714.150778 173.339455 
L 714.272617 179.556523 
L 714.394456 177.484148 
L 714.63806 175.411869 
L 715.247182 181.629034 
L 715.612625 179.556523 
L 715.734464 189.918304 
L 715.978069 187.845948 
L 716.099908 173.339455 
L 716.709029 181.629034 
L 716.830795 185.77365 
L 716.830795 179.556523 
L 717.196311 162.977713 
L 717.683521 189.918304 
L 717.683521 173.339455 
L 718.292642 160.905453 
L 718.414481 171.267215 
L 718.536247 171.267215 
L 718.536247 173.339455 
L 718.901764 177.484148 
L 719.02353 183.701274 
L 719.632651 179.556523 
L 719.876256 181.629034 
L 720.241772 175.411869 
L 720.363538 183.701274 
L 720.607216 165.050358 
L 720.728982 181.629034 
L 721.216264 181.629034 
L 721.459942 165.050358 
L 722.312668 183.701274 
L 722.312668 173.339455 
L 722.678112 173.339455 
L 723.043555 181.629034 
L 723.043555 185.77365 
L 723.408999 167.122502 
L 723.408999 183.701274 
L 723.652677 185.77365 
L 724.01812 173.339455 
L 724.383564 175.411869 
L 724.505403 183.701274 
L 724.992685 185.77365 
L 726.819976 181.629034 
L 726.819976 169.194955 
L 727.063581 175.411869 
L 727.18542 189.918304 
L 727.429025 160.905453 
L 727.550863 167.122502 
L 728.281751 185.77365 
L 728.769033 175.411869 
L 729.012711 177.484148 
L 729.134477 162.977713 
L 729.49992 165.050358 
L 729.987203 165.050358 
L 730.352647 160.905453 
L 730.596324 171.267215 
L 730.596324 158.833039 
L 730.718163 158.833039 
L 731.205445 175.411869 
L 732.301776 181.629034 
L 732.423615 154.688404 
L 732.545381 160.905453 
L 732.789059 150.543769 
L 733.276341 158.833039 
L 733.398107 162.977713 
L 733.398107 183.701274 
L 733.641785 173.339455 
L 733.641785 165.050358 
L 733.763624 160.905453 
L 734.007229 171.267215 
L 734.007229 165.050358 
L 734.007229 165.050358 
L 734.738116 165.050358 
L 734.981793 152.616183 
L 735.225398 173.339455 
L 735.469076 175.411869 
L 735.469076 191.990776 
L 735.712681 167.122502 
L 735.956358 154.688404 
L 735.956358 175.411869 
L 736.078124 173.339455 
L 736.199963 152.616183 
L 736.321802 162.977713 
L 736.809084 167.122502 
L 737.539972 160.905453 
L 737.905415 187.845948 
L 737.905415 173.339455 
L 738.514537 167.122502 
L 738.758141 167.122502 
L 739.001819 154.688404 
L 739.245424 169.194955 
L 739.245424 167.122502 
L 739.489101 152.616183 
L 739.732706 158.833039 
L 740.219989 144.326758 
L 740.341828 148.471355 
L 740.341828 169.194955 
L 740.341828 148.471355 
L 740.585432 158.833039 
L 741.559997 156.760972 
L 741.681836 138.109902 
L 741.803602 187.845948 
L 742.778167 148.471355 
L 743.26545 162.977713 
L 743.26545 154.688404 
L 743.387288 152.616183 
L 743.752732 177.484148 
L 744.970902 152.616183 
L 745.09274 158.833039 
L 745.823628 158.833039 
L 745.945467 167.122502 
L 747.163636 158.833039 
L 747.163636 158.833039 
" clip-path="url(#p1dba10e119)" style="fill: none; stroke: #1f77b4; stroke-width: 2; stroke-linecap: square"/>
   </g>
   <g id="line2d_30">
    <path d="M 138.436364 490.065961 
L 158.170971 489.367741 
L 175.103745 488.548907 
L 189.2347 487.653881 
L 202.025646 486.630461 
L 213.842045 485.464966 
L 224.805718 484.161457 
L 235.038468 482.726036 
L 244.29668 481.227426 
L 253.920344 479.45417 
L 263.544009 477.450901 
L 272.558589 475.360053 
L 272.558589 475.360053 
L 282.060433 472.929147 
L 291.196815 470.372115 
L 301.185941 467.332005 
L 310.931427 464.122229 
L 320.676912 460.673206 
L 330.422397 456.984371 
L 330.422397 456.984371 
L 340.167883 453.052417 
L 349.913368 448.871334 
L 358.806109 444.831257 
L 358.806109 444.831257 
L 368.429774 440.207297 
L 376.83525 435.945356 
L 386.215292 430.932208 
L 386.215292 430.932208 
L 395.229854 425.847606 
L 395.229854 425.847606 
L 404.122613 420.565019 
L 412.771712 415.163498 
L 421.420849 409.49442 
L 429.826343 403.722124 
L 438.231802 397.685859 
L 438.231802 397.685859 
L 447.124543 391.008878 
L 447.124543 391.008878 
L 454.799114 385.00524 
L 454.799114 385.00524 
L 464.057335 377.465444 
L 472.46283 370.34201 
L 481.11193 362.740676 
L 490.613792 354.081701 
L 500.359259 344.878751 
L 510.83565 334.643358 
L 521.677521 323.704965 
L 532.519355 312.449509 
L 544.701198 299.473674 
L 558.466727 284.464759 
L 575.155842 265.907546 
L 601.59046 236.118789 
L 626.928747 207.679192 
L 643.252418 189.69336 
L 656.530629 175.371975 
L 669.321593 161.905009 
L 680.407069 150.533617 
L 680.407069 150.533617 
L 692.467109 138.514202 
L 702.578056 128.74071 
L 713.176286 118.812276 
L 713.176286 118.812276 
L 723.043555 109.86846 
L 723.043555 109.86846 
L 733.763624 100.491973 
L 743.752732 92.080108 
L 747.163636 89.28 
L 747.163636 89.28 
" clip-path="url(#p1dba10e119)" style="fill: none; stroke: #ff7f0e; stroke-width: 2; stroke-linecap: square"/>
   </g>
   <g id="patch_3">
    <path d="M 108 512.64 
L 108 69.12 
" style="fill: none; stroke: #000000; stroke-width: 0.8; stroke-linejoin: miter; stroke-linecap: square"/>
   </g>
   <g id="patch_4">
    <path d="M 777.6 512.64 
L 777.6 69.12 
" style="fill: none; stroke: #000000; stroke-width: 0.8; stroke-linejoin: miter; stroke-linecap: square"/>
   </g>
   <g id="patch_5">
    <path d="M 108 512.64 
L 777.6 512.64 
" style="fill: none; stroke: #000000; stroke-width: 0.8; stroke-linejoin: miter; stroke-linecap: square"/>
   </g>
   <g id="patch_6">
    <path d="M 108 69.12 
L 777.6 69.12 
" style="fill: none; stroke: #000000; stroke-width: 0.8; stroke-linejoin: miter; stroke-linecap: square"/>
   </g>
   <g id="text_17">
    <!-- Price by TTM. Moneyness=0.9 -->
    <g transform="translate(292.407812 63.12) scale(0.2 -0.2)">
     <defs>
      <path id="DejaVuSans-62" d="M 3116 1747 
Q 3116 2381 2855 2742 
Q 2594 3103 2138 3103 
Q 1681 3103 1420 2742 
Q 1159 2381 1159 1747 
Q 1159 1113 1420 752 
Q 1681 391 2138 391 
Q 2594 391 2855 752 
Q 3116 1113 3116 1747 
z
M 1159 2969 
Q 1341 3281 1617 3432 
Q 1894 3584 2278 3584 
Q 2916 3584 3314 3078 
Q 3713 2572 3713 1747 
Q 3713 922 3314 415 
Q 2916 -91 2278 -91 
Q 1894 -91 1617 61 
Q 1341 213 1159 525 
L 1159 0 
L 581 0 
L 581 4863 
L 1159 4863 
L 1159 2969 
z
" transform="scale(0.015625)"/>
      <path id="DejaVuSans-79" d="M 2059 -325 
Q 1816 -950 1584 -1140 
Q 1353 -1331 966 -1331 
L 506 -1331 
L 506 -850 
L 844 -850 
Q 1081 -850 1212 -737 
Q 1344 -625 1503 -206 
L 1606 56 
L 191 3500 
L 800 3500 
L 1894 763 
L 2988 3500 
L 3597 3500 
L 2059 -325 
z
" transform="scale(0.015625)"/>
      <path id="DejaVuSans-6e" d="M 3513 2113 
L 3513 0 
L 2938 0 
L 2938 2094 
Q 2938 2591 2744 2837 
Q 2550 3084 2163 3084 
Q 1697 3084 1428 2787 
Q 1159 2491 1159 1978 
L 1159 0 
L 581 0 
L 581 3500 
L 1159 3500 
L 1159 2956 
Q 1366 3272 1645 3428 
Q 1925 3584 2291 3584 
Q 2894 3584 3203 3211 
Q 3513 2838 3513 2113 
z
" transform="scale(0.015625)"/>
      <path id="DejaVuSans-3d" d="M 678 2906 
L 4684 2906 
L 4684 2381 
L 678 2381 
L 678 2906 
z
M 678 1631 
L 4684 1631 
L 4684 1100 
L 678 1100 
L 678 1631 
z
" transform="scale(0.015625)"/>
      <path id="DejaVuSans-39" d="M 703 97 
L 703 672 
Q 941 559 1184 500 
Q 1428 441 1663 441 
Q 2288 441 2617 861 
Q 2947 1281 2994 2138 
Q 2813 1869 2534 1725 
Q 2256 1581 1919 1581 
Q 1219 1581 811 2004 
Q 403 2428 403 3163 
Q 403 3881 828 4315 
Q 1253 4750 1959 4750 
Q 2769 4750 3195 4129 
Q 3622 3509 3622 2328 
Q 3622 1225 3098 567 
Q 2575 -91 1691 -91 
Q 1453 -91 1209 -44 
Q 966 3 703 97 
z
M 1959 2075 
Q 2384 2075 2632 2365 
Q 2881 2656 2881 3163 
Q 2881 3666 2632 3958 
Q 2384 4250 1959 4250 
Q 1534 4250 1286 3958 
Q 1038 3666 1038 3163 
Q 1038 2656 1286 2365 
Q 1534 2075 1959 2075 
z
" transform="scale(0.015625)"/>
     </defs>
     <use xlink:href="#DejaVuSans-50"/>
     <use xlink:href="#DejaVuSans-72" x="58.552734"/>
     <use xlink:href="#DejaVuSans-69" x="99.666016"/>
     <use xlink:href="#DejaVuSans-63" x="127.449219"/>
     <use xlink:href="#DejaVuSans-65" x="182.429688"/>
     <use xlink:href="#DejaVuSans-20" x="243.953125"/>
     <use xlink:href="#DejaVuSans-62" x="275.740234"/>
     <use xlink:href="#DejaVuSans-79" x="339.216797"/>
     <use xlink:href="#DejaVuSans-20" x="398.396484"/>
     <use xlink:href="#DejaVuSans-54" x="430.183594"/>
     <use xlink:href="#DejaVuSans-54" x="489.517578"/>
     <use xlink:href="#DejaVuSans-4d" x="550.601562"/>
     <use xlink:href="#DejaVuSans-2e" x="636.880859"/>
     <use xlink:href="#DejaVuSans-20" x="668.667969"/>
     <use xlink:href="#DejaVuSans-4d" x="700.455078"/>
     <use xlink:href="#DejaVuSans-6f" x="786.734375"/>
     <use xlink:href="#DejaVuSans-6e" x="847.916016"/>
     <use xlink:href="#DejaVuSans-65" x="911.294922"/>
     <use xlink:href="#DejaVuSans-79" x="972.818359"/>
     <use xlink:href="#DejaVuSans-6e" x="1031.998047"/>
     <use xlink:href="#DejaVuSans-65" x="1095.376953"/>
     <use xlink:href="#DejaVuSans-73" x="1156.900391"/>
     <use xlink:href="#DejaVuSans-73" x="1209"/>
     <use xlink:href="#DejaVuSans-3d" x="1261.099609"/>
     <use xlink:href="#DejaVuSans-30" x="1344.888672"/>
     <use xlink:href="#DejaVuSans-2e" x="1408.511719"/>
     <use xlink:href="#DejaVuSans-39" x="1440.298828"/>
    </g>
   </g>
   <g id="legend_1">
    <g id="patch_7">
     <path d="M 120.6 136.36125 
L 287.018437 136.36125 
Q 290.618437 136.36125 290.618437 132.76125 
L 290.618437 81.72 
Q 290.618437 78.12 287.018437 78.12 
L 120.6 78.12 
Q 117 78.12 117 81.72 
L 117 132.76125 
Q 117 136.36125 120.6 136.36125 
z
" style="fill: #ffffff; opacity: 0.8; stroke: #cccccc; stroke-linejoin: miter"/>
    </g>
    <g id="line2d_31">
     <path d="M 124.2 92.697188 
L 142.2 92.697188 
L 160.2 92.697188 
" style="fill: none; stroke: #1f77b4; stroke-width: 2; stroke-linecap: square"/>
    </g>
    <g id="text_18">
     <!-- Monte Carlo -->
     <g transform="translate(174.6 98.997188) scale(0.18 -0.18)">
      <defs>
       <path id="DejaVuSans-43" d="M 4122 4306 
L 4122 3641 
Q 3803 3938 3442 4084 
Q 3081 4231 2675 4231 
Q 1875 4231 1450 3742 
Q 1025 3253 1025 2328 
Q 1025 1406 1450 917 
Q 1875 428 2675 428 
Q 3081 428 3442 575 
Q 3803 722 4122 1019 
L 4122 359 
Q 3791 134 3420 21 
Q 3050 -91 2638 -91 
Q 1578 -91 968 557 
Q 359 1206 359 2328 
Q 359 3453 968 4101 
Q 1578 4750 2638 4750 
Q 3056 4750 3426 4639 
Q 3797 4528 4122 4306 
z
" transform="scale(0.015625)"/>
       <path id="DejaVuSans-6c" d="M 603 4863 
L 1178 4863 
L 1178 0 
L 603 0 
L 603 4863 
z
" transform="scale(0.015625)"/>
      </defs>
      <use xlink:href="#DejaVuSans-4d"/>
      <use xlink:href="#DejaVuSans-6f" x="86.279297"/>
      <use xlink:href="#DejaVuSans-6e" x="147.460938"/>
      <use xlink:href="#DejaVuSans-74" x="210.839844"/>
      <use xlink:href="#DejaVuSans-65" x="250.048828"/>
      <use xlink:href="#DejaVuSans-20" x="311.572266"/>
      <use xlink:href="#DejaVuSans-43" x="343.359375"/>
      <use xlink:href="#DejaVuSans-61" x="413.183594"/>
      <use xlink:href="#DejaVuSans-72" x="474.462891"/>
      <use xlink:href="#DejaVuSans-6c" x="515.576172"/>
      <use xlink:href="#DejaVuSans-6f" x="543.359375"/>
     </g>
    </g>
    <g id="line2d_32">
     <path d="M 124.2 119.117813 
L 142.2 119.117813 
L 160.2 119.117813 
" style="fill: none; stroke: #ff7f0e; stroke-width: 2; stroke-linecap: square"/>
    </g>
    <g id="text_19">
     <!-- Positive net -->
     <g transform="translate(174.6 125.417813) scale(0.18 -0.18)">
      <defs>
       <path id="DejaVuSans-76" d="M 191 3500 
L 800 3500 
L 1894 563 
L 2988 3500 
L 3597 3500 
L 2284 0 
L 1503 0 
L 191 3500 
z
" transform="scale(0.015625)"/>
      </defs>
      <use xlink:href="#DejaVuSans-50"/>
      <use xlink:href="#DejaVuSans-6f" x="56.677734"/>
      <use xlink:href="#DejaVuSans-73" x="117.859375"/>
      <use xlink:href="#DejaVuSans-69" x="169.958984"/>
      <use xlink:href="#DejaVuSans-74" x="197.742188"/>
      <use xlink:href="#DejaVuSans-69" x="236.951172"/>
      <use xlink:href="#DejaVuSans-76" x="264.734375"/>
      <use xlink:href="#DejaVuSans-65" x="323.914062"/>
      <use xlink:href="#DejaVuSans-20" x="385.4375"/>
      <use xlink:href="#DejaVuSans-6e" x="417.224609"/>
      <use xlink:href="#DejaVuSans-65" x="480.603516"/>
      <use xlink:href="#DejaVuSans-74" x="542.126953"/>
     </g>
    </g>
   </g>
  </g>
 </g>
 <defs>
  <clipPath id="p1dba10e119">
   <rect x="108" y="69.12" width="669.6" height="443.52"/>
  </clipPath>
 </defs>
</svg>
