<?xml version="1.0" encoding="utf-8" standalone="no"?>
<!DOCTYPE svg PUBLIC "-//W3C//DTD SVG 1.1//EN"
  "http://www.w3.org/Graphics/SVG/1.1/DTD/svg11.dtd">
<svg xmlns:xlink="http://www.w3.org/1999/xlink" width="864pt" height="576pt" viewBox="0 0 864 576" xmlns="http://www.w3.org/2000/svg" version="1.1">
 <metadata>
  <rdf:RDF xmlns:dc="http://purl.org/dc/elements/1.1/" xmlns:cc="http://creativecommons.org/ns#" xmlns:rdf="http://www.w3.org/1999/02/22-rdf-syntax-ns#">
   <cc:Work>
    <dc:type rdf:resource="http://purl.org/dc/dcmitype/StillImage"/>
    <dc:date>2024-03-10T20:05:31.861425</dc:date>
    <dc:format>image/svg+xml</dc:format>
    <dc:creator>
     <cc:Agent>
      <dc:title>Matplotlib v3.7.3, https://matplotlib.org/</dc:title>
     </cc:Agent>
    </dc:creator>
   </cc:Work>
  </rdf:RDF>
 </metadata>
 <defs>
  <style type="text/css">*{stroke-linejoin: round; stroke-linecap: butt}</style>
 </defs>
 <g id="figure_1">
  <g id="patch_1">
   <path d="M 0 576 
L 864 576 
L 864 0 
L 0 0 
z
" style="fill: #ffffff"/>
  </g>
  <g id="axes_1">
   <g id="patch_2">
    <path d="M 108 512.64 
L 777.6 512.64 
L 777.6 69.12 
L 108 69.12 
z
" style="fill: #ffffff"/>
   </g>
   <g id="matplotlib.axis_1">
    <g id="xtick_1">
     <g id="line2d_1">
      <path d="M 189.205943 512.64 
L 189.205943 69.12 
" clip-path="url(#pcba8ebbeae)" style="fill: none; stroke: #b0b0b0; stroke-width: 0.8; stroke-linecap: square"/>
     </g>
     <g id="line2d_2">
      <defs>
       <path id="m36e686f21d" d="M 0 0 
L 0 3.5 
" style="stroke: #000000; stroke-width: 0.8"/>
      </defs>
      <g>
       <use xlink:href="#m36e686f21d" x="189.205943" y="512.64" style="stroke: #000000; stroke-width: 0.8"/>
      </g>
     </g>
     <g id="text_1">
      <!-- 0.1 -->
      <g transform="translate(181.25438 527.238438) scale(0.1 -0.1)">
       <defs>
        <path id="DejaVuSans-30" d="M 2034 4250 
Q 1547 4250 1301 3770 
Q 1056 3291 1056 2328 
Q 1056 1369 1301 889 
Q 1547 409 2034 409 
Q 2525 409 2770 889 
Q 3016 1369 3016 2328 
Q 3016 3291 2770 3770 
Q 2525 4250 2034 4250 
z
M 2034 4750 
Q 2819 4750 3233 4129 
Q 3647 3509 3647 2328 
Q 3647 1150 3233 529 
Q 2819 -91 2034 -91 
Q 1250 -91 836 529 
Q 422 1150 422 2328 
Q 422 3509 836 4129 
Q 1250 4750 2034 4750 
z
" transform="scale(0.015625)"/>
        <path id="DejaVuSans-2e" d="M 684 794 
L 1344 794 
L 1344 0 
L 684 0 
L 684 794 
z
" transform="scale(0.015625)"/>
        <path id="DejaVuSans-31" d="M 794 531 
L 1825 531 
L 1825 4091 
L 703 3866 
L 703 4441 
L 1819 4666 
L 2450 4666 
L 2450 531 
L 3481 531 
L 3481 0 
L 794 0 
L 794 531 
z
" transform="scale(0.015625)"/>
       </defs>
       <use xlink:href="#DejaVuSans-30"/>
       <use xlink:href="#DejaVuSans-2e" x="63.623047"/>
       <use xlink:href="#DejaVuSans-31" x="95.410156"/>
      </g>
     </g>
    </g>
    <g id="xtick_2">
     <g id="line2d_3">
      <path d="M 290.745102 512.64 
L 290.745102 69.12 
" clip-path="url(#pcba8ebbeae)" style="fill: none; stroke: #b0b0b0; stroke-width: 0.8; stroke-linecap: square"/>
     </g>
     <g id="line2d_4">
      <g>
       <use xlink:href="#m36e686f21d" x="290.745102" y="512.64" style="stroke: #000000; stroke-width: 0.8"/>
      </g>
     </g>
     <g id="text_2">
      <!-- 0.2 -->
      <g transform="translate(282.79354 527.238438) scale(0.1 -0.1)">
       <defs>
        <path id="DejaVuSans-32" d="M 1228 531 
L 3431 531 
L 3431 0 
L 469 0 
L 469 531 
Q 828 903 1448 1529 
Q 2069 2156 2228 2338 
Q 2531 2678 2651 2914 
Q 2772 3150 2772 3378 
Q 2772 3750 2511 3984 
Q 2250 4219 1831 4219 
Q 1534 4219 1204 4116 
Q 875 4013 500 3803 
L 500 4441 
Q 881 4594 1212 4672 
Q 1544 4750 1819 4750 
Q 2544 4750 2975 4387 
Q 3406 4025 3406 3419 
Q 3406 3131 3298 2873 
Q 3191 2616 2906 2266 
Q 2828 2175 2409 1742 
Q 1991 1309 1228 531 
z
" transform="scale(0.015625)"/>
       </defs>
       <use xlink:href="#DejaVuSans-30"/>
       <use xlink:href="#DejaVuSans-2e" x="63.623047"/>
       <use xlink:href="#DejaVuSans-32" x="95.410156"/>
      </g>
     </g>
    </g>
    <g id="xtick_3">
     <g id="line2d_5">
      <path d="M 392.284262 512.64 
L 392.284262 69.12 
" clip-path="url(#pcba8ebbeae)" style="fill: none; stroke: #b0b0b0; stroke-width: 0.8; stroke-linecap: square"/>
     </g>
     <g id="line2d_6">
      <g>
       <use xlink:href="#m36e686f21d" x="392.284262" y="512.64" style="stroke: #000000; stroke-width: 0.8"/>
      </g>
     </g>
     <g id="text_3">
      <!-- 0.3 -->
      <g transform="translate(384.332699 527.238438) scale(0.1 -0.1)">
       <defs>
        <path id="DejaVuSans-33" d="M 2597 2516 
Q 3050 2419 3304 2112 
Q 3559 1806 3559 1356 
Q 3559 666 3084 287 
Q 2609 -91 1734 -91 
Q 1441 -91 1130 -33 
Q 819 25 488 141 
L 488 750 
Q 750 597 1062 519 
Q 1375 441 1716 441 
Q 2309 441 2620 675 
Q 2931 909 2931 1356 
Q 2931 1769 2642 2001 
Q 2353 2234 1838 2234 
L 1294 2234 
L 1294 2753 
L 1863 2753 
Q 2328 2753 2575 2939 
Q 2822 3125 2822 3475 
Q 2822 3834 2567 4026 
Q 2313 4219 1838 4219 
Q 1578 4219 1281 4162 
Q 984 4106 628 3988 
L 628 4550 
Q 988 4650 1302 4700 
Q 1616 4750 1894 4750 
Q 2613 4750 3031 4423 
Q 3450 4097 3450 3541 
Q 3450 3153 3228 2886 
Q 3006 2619 2597 2516 
z
" transform="scale(0.015625)"/>
       </defs>
       <use xlink:href="#DejaVuSans-30"/>
       <use xlink:href="#DejaVuSans-2e" x="63.623047"/>
       <use xlink:href="#DejaVuSans-33" x="95.410156"/>
      </g>
     </g>
    </g>
    <g id="xtick_4">
     <g id="line2d_7">
      <path d="M 493.823421 512.64 
L 493.823421 69.12 
" clip-path="url(#pcba8ebbeae)" style="fill: none; stroke: #b0b0b0; stroke-width: 0.8; stroke-linecap: square"/>
     </g>
     <g id="line2d_8">
      <g>
       <use xlink:href="#m36e686f21d" x="493.823421" y="512.64" style="stroke: #000000; stroke-width: 0.8"/>
      </g>
     </g>
     <g id="text_4">
      <!-- 0.4 -->
      <g transform="translate(485.871858 527.238438) scale(0.1 -0.1)">
       <defs>
        <path id="DejaVuSans-34" d="M 2419 4116 
L 825 1625 
L 2419 1625 
L 2419 4116 
z
M 2253 4666 
L 3047 4666 
L 3047 1625 
L 3713 1625 
L 3713 1100 
L 3047 1100 
L 3047 0 
L 2419 0 
L 2419 1100 
L 313 1100 
L 313 1709 
L 2253 4666 
z
" transform="scale(0.015625)"/>
       </defs>
       <use xlink:href="#DejaVuSans-30"/>
       <use xlink:href="#DejaVuSans-2e" x="63.623047"/>
       <use xlink:href="#DejaVuSans-34" x="95.410156"/>
      </g>
     </g>
    </g>
    <g id="xtick_5">
     <g id="line2d_9">
      <path d="M 595.36258 512.64 
L 595.36258 69.12 
" clip-path="url(#pcba8ebbeae)" style="fill: none; stroke: #b0b0b0; stroke-width: 0.8; stroke-linecap: square"/>
     </g>
     <g id="line2d_10">
      <g>
       <use xlink:href="#m36e686f21d" x="595.36258" y="512.64" style="stroke: #000000; stroke-width: 0.8"/>
      </g>
     </g>
     <g id="text_5">
      <!-- 0.5 -->
      <g transform="translate(587.411018 527.238438) scale(0.1 -0.1)">
       <defs>
        <path id="DejaVuSans-35" d="M 691 4666 
L 3169 4666 
L 3169 4134 
L 1269 4134 
L 1269 2991 
Q 1406 3038 1543 3061 
Q 1681 3084 1819 3084 
Q 2600 3084 3056 2656 
Q 3513 2228 3513 1497 
Q 3513 744 3044 326 
Q 2575 -91 1722 -91 
Q 1428 -91 1123 -41 
Q 819 9 494 109 
L 494 744 
Q 775 591 1075 516 
Q 1375 441 1709 441 
Q 2250 441 2565 725 
Q 2881 1009 2881 1497 
Q 2881 1984 2565 2268 
Q 2250 2553 1709 2553 
Q 1456 2553 1204 2497 
Q 953 2441 691 2322 
L 691 4666 
z
" transform="scale(0.015625)"/>
       </defs>
       <use xlink:href="#DejaVuSans-30"/>
       <use xlink:href="#DejaVuSans-2e" x="63.623047"/>
       <use xlink:href="#DejaVuSans-35" x="95.410156"/>
      </g>
     </g>
    </g>
    <g id="xtick_6">
     <g id="line2d_11">
      <path d="M 696.90174 512.64 
L 696.90174 69.12 
" clip-path="url(#pcba8ebbeae)" style="fill: none; stroke: #b0b0b0; stroke-width: 0.8; stroke-linecap: square"/>
     </g>
     <g id="line2d_12">
      <g>
       <use xlink:href="#m36e686f21d" x="696.90174" y="512.64" style="stroke: #000000; stroke-width: 0.8"/>
      </g>
     </g>
     <g id="text_6">
      <!-- 0.6 -->
      <g transform="translate(688.950177 527.238438) scale(0.1 -0.1)">
       <defs>
        <path id="DejaVuSans-36" d="M 2113 2584 
Q 1688 2584 1439 2293 
Q 1191 2003 1191 1497 
Q 1191 994 1439 701 
Q 1688 409 2113 409 
Q 2538 409 2786 701 
Q 3034 994 3034 1497 
Q 3034 2003 2786 2293 
Q 2538 2584 2113 2584 
z
M 3366 4563 
L 3366 3988 
Q 3128 4100 2886 4159 
Q 2644 4219 2406 4219 
Q 1781 4219 1451 3797 
Q 1122 3375 1075 2522 
Q 1259 2794 1537 2939 
Q 1816 3084 2150 3084 
Q 2853 3084 3261 2657 
Q 3669 2231 3669 1497 
Q 3669 778 3244 343 
Q 2819 -91 2113 -91 
Q 1303 -91 875 529 
Q 447 1150 447 2328 
Q 447 3434 972 4092 
Q 1497 4750 2381 4750 
Q 2619 4750 2861 4703 
Q 3103 4656 3366 4563 
z
" transform="scale(0.015625)"/>
       </defs>
       <use xlink:href="#DejaVuSans-30"/>
       <use xlink:href="#DejaVuSans-2e" x="63.623047"/>
       <use xlink:href="#DejaVuSans-36" x="95.410156"/>
      </g>
     </g>
    </g>
    <g id="text_7">
     <!-- Volatility -->
     <g transform="translate(403.934062 546.995312) scale(0.18 -0.18)">
      <defs>
       <path id="DejaVuSans-56" d="M 1831 0 
L 50 4666 
L 709 4666 
L 2188 738 
L 3669 4666 
L 4325 4666 
L 2547 0 
L 1831 0 
z
" transform="scale(0.015625)"/>
       <path id="DejaVuSans-6f" d="M 1959 3097 
Q 1497 3097 1228 2736 
Q 959 2375 959 1747 
Q 959 1119 1226 758 
Q 1494 397 1959 397 
Q 2419 397 2687 759 
Q 2956 1122 2956 1747 
Q 2956 2369 2687 2733 
Q 2419 3097 1959 3097 
z
M 1959 3584 
Q 2709 3584 3137 3096 
Q 3566 2609 3566 1747 
Q 3566 888 3137 398 
Q 2709 -91 1959 -91 
Q 1206 -91 779 398 
Q 353 888 353 1747 
Q 353 2609 779 3096 
Q 1206 3584 1959 3584 
z
" transform="scale(0.015625)"/>
       <path id="DejaVuSans-6c" d="M 603 4863 
L 1178 4863 
L 1178 0 
L 603 0 
L 603 4863 
z
" transform="scale(0.015625)"/>
       <path id="DejaVuSans-61" d="M 2194 1759 
Q 1497 1759 1228 1600 
Q 959 1441 959 1056 
Q 959 750 1161 570 
Q 1363 391 1709 391 
Q 2188 391 2477 730 
Q 2766 1069 2766 1631 
L 2766 1759 
L 2194 1759 
z
M 3341 1997 
L 3341 0 
L 2766 0 
L 2766 531 
Q 2569 213 2275 61 
Q 1981 -91 1556 -91 
Q 1019 -91 701 211 
Q 384 513 384 1019 
Q 384 1609 779 1909 
Q 1175 2209 1959 2209 
L 2766 2209 
L 2766 2266 
Q 2766 2663 2505 2880 
Q 2244 3097 1772 3097 
Q 1472 3097 1187 3025 
Q 903 2953 641 2809 
L 641 3341 
Q 956 3463 1253 3523 
Q 1550 3584 1831 3584 
Q 2591 3584 2966 3190 
Q 3341 2797 3341 1997 
z
" transform="scale(0.015625)"/>
       <path id="DejaVuSans-74" d="M 1172 4494 
L 1172 3500 
L 2356 3500 
L 2356 3053 
L 1172 3053 
L 1172 1153 
Q 1172 725 1289 603 
Q 1406 481 1766 481 
L 2356 481 
L 2356 0 
L 1766 0 
Q 1100 0 847 248 
Q 594 497 594 1153 
L 594 3053 
L 172 3053 
L 172 3500 
L 594 3500 
L 594 4494 
L 1172 4494 
z
" transform="scale(0.015625)"/>
       <path id="DejaVuSans-69" d="M 603 3500 
L 1178 3500 
L 1178 0 
L 603 0 
L 603 3500 
z
M 603 4863 
L 1178 4863 
L 1178 4134 
L 603 4134 
L 603 4863 
z
" transform="scale(0.015625)"/>
       <path id="DejaVuSans-79" d="M 2059 -325 
Q 1816 -950 1584 -1140 
Q 1353 -1331 966 -1331 
L 506 -1331 
L 506 -850 
L 844 -850 
Q 1081 -850 1212 -737 
Q 1344 -625 1503 -206 
L 1606 56 
L 191 3500 
L 800 3500 
L 1894 763 
L 2988 3500 
L 3597 3500 
L 2059 -325 
z
" transform="scale(0.015625)"/>
      </defs>
      <use xlink:href="#DejaVuSans-56"/>
      <use xlink:href="#DejaVuSans-6f" x="60.658203"/>
      <use xlink:href="#DejaVuSans-6c" x="121.839844"/>
      <use xlink:href="#DejaVuSans-61" x="149.623047"/>
      <use xlink:href="#DejaVuSans-74" x="210.902344"/>
      <use xlink:href="#DejaVuSans-69" x="250.111328"/>
      <use xlink:href="#DejaVuSans-6c" x="277.894531"/>
      <use xlink:href="#DejaVuSans-69" x="305.677734"/>
      <use xlink:href="#DejaVuSans-74" x="333.460938"/>
      <use xlink:href="#DejaVuSans-79" x="372.669922"/>
     </g>
    </g>
   </g>
   <g id="matplotlib.axis_2">
    <g id="ytick_1">
     <g id="line2d_13">
      <path d="M 108 493.935596 
L 777.6 493.935596 
" clip-path="url(#pcba8ebbeae)" style="fill: none; stroke: #b0b0b0; stroke-width: 0.8; stroke-linecap: square"/>
     </g>
     <g id="line2d_14">
      <defs>
       <path id="m8b5c8e729b" d="M 0 0 
L -3.5 0 
" style="stroke: #000000; stroke-width: 0.8"/>
      </defs>
      <g>
       <use xlink:href="#m8b5c8e729b" x="108" y="493.935596" style="stroke: #000000; stroke-width: 0.8"/>
      </g>
     </g>
     <g id="text_8">
      <!-- 0.000 -->
      <g transform="translate(72.371875 497.734815) scale(0.1 -0.1)">
       <use xlink:href="#DejaVuSans-30"/>
       <use xlink:href="#DejaVuSans-2e" x="63.623047"/>
       <use xlink:href="#DejaVuSans-30" x="95.410156"/>
       <use xlink:href="#DejaVuSans-30" x="159.033203"/>
       <use xlink:href="#DejaVuSans-30" x="222.65625"/>
      </g>
     </g>
    </g>
    <g id="ytick_2">
     <g id="line2d_15">
      <path d="M 108 421.155777 
L 777.6 421.155777 
" clip-path="url(#pcba8ebbeae)" style="fill: none; stroke: #b0b0b0; stroke-width: 0.8; stroke-linecap: square"/>
     </g>
     <g id="line2d_16">
      <g>
       <use xlink:href="#m8b5c8e729b" x="108" y="421.155777" style="stroke: #000000; stroke-width: 0.8"/>
      </g>
     </g>
     <g id="text_9">
      <!-- 0.005 -->
      <g transform="translate(72.371875 424.954996) scale(0.1 -0.1)">
       <use xlink:href="#DejaVuSans-30"/>
       <use xlink:href="#DejaVuSans-2e" x="63.623047"/>
       <use xlink:href="#DejaVuSans-30" x="95.410156"/>
       <use xlink:href="#DejaVuSans-30" x="159.033203"/>
       <use xlink:href="#DejaVuSans-35" x="222.65625"/>
      </g>
     </g>
    </g>
    <g id="ytick_3">
     <g id="line2d_17">
      <path d="M 108 348.375958 
L 777.6 348.375958 
" clip-path="url(#pcba8ebbeae)" style="fill: none; stroke: #b0b0b0; stroke-width: 0.8; stroke-linecap: square"/>
     </g>
     <g id="line2d_18">
      <g>
       <use xlink:href="#m8b5c8e729b" x="108" y="348.375958" style="stroke: #000000; stroke-width: 0.8"/>
      </g>
     </g>
     <g id="text_10">
      <!-- 0.010 -->
      <g transform="translate(72.371875 352.175176) scale(0.1 -0.1)">
       <use xlink:href="#DejaVuSans-30"/>
       <use xlink:href="#DejaVuSans-2e" x="63.623047"/>
       <use xlink:href="#DejaVuSans-30" x="95.410156"/>
       <use xlink:href="#DejaVuSans-31" x="159.033203"/>
       <use xlink:href="#DejaVuSans-30" x="222.65625"/>
      </g>
     </g>
    </g>
    <g id="ytick_4">
     <g id="line2d_19">
      <path d="M 108 275.596138 
L 777.6 275.596138 
" clip-path="url(#pcba8ebbeae)" style="fill: none; stroke: #b0b0b0; stroke-width: 0.8; stroke-linecap: square"/>
     </g>
     <g id="line2d_20">
      <g>
       <use xlink:href="#m8b5c8e729b" x="108" y="275.596138" style="stroke: #000000; stroke-width: 0.8"/>
      </g>
     </g>
     <g id="text_11">
      <!-- 0.015 -->
      <g transform="translate(72.371875 279.395357) scale(0.1 -0.1)">
       <use xlink:href="#DejaVuSans-30"/>
       <use xlink:href="#DejaVuSans-2e" x="63.623047"/>
       <use xlink:href="#DejaVuSans-30" x="95.410156"/>
       <use xlink:href="#DejaVuSans-31" x="159.033203"/>
       <use xlink:href="#DejaVuSans-35" x="222.65625"/>
      </g>
     </g>
    </g>
    <g id="ytick_5">
     <g id="line2d_21">
      <path d="M 108 202.816319 
L 777.6 202.816319 
" clip-path="url(#pcba8ebbeae)" style="fill: none; stroke: #b0b0b0; stroke-width: 0.8; stroke-linecap: square"/>
     </g>
     <g id="line2d_22">
      <g>
       <use xlink:href="#m8b5c8e729b" x="108" y="202.816319" style="stroke: #000000; stroke-width: 0.8"/>
      </g>
     </g>
     <g id="text_12">
      <!-- 0.020 -->
      <g transform="translate(72.371875 206.615538) scale(0.1 -0.1)">
       <use xlink:href="#DejaVuSans-30"/>
       <use xlink:href="#DejaVuSans-2e" x="63.623047"/>
       <use xlink:href="#DejaVuSans-30" x="95.410156"/>
       <use xlink:href="#DejaVuSans-32" x="159.033203"/>
       <use xlink:href="#DejaVuSans-30" x="222.65625"/>
      </g>
     </g>
    </g>
    <g id="ytick_6">
     <g id="line2d_23">
      <path d="M 108 130.036499 
L 777.6 130.036499 
" clip-path="url(#pcba8ebbeae)" style="fill: none; stroke: #b0b0b0; stroke-width: 0.8; stroke-linecap: square"/>
     </g>
     <g id="line2d_24">
      <g>
       <use xlink:href="#m8b5c8e729b" x="108" y="130.036499" style="stroke: #000000; stroke-width: 0.8"/>
      </g>
     </g>
     <g id="text_13">
      <!-- 0.025 -->
      <g transform="translate(72.371875 133.835718) scale(0.1 -0.1)">
       <use xlink:href="#DejaVuSans-30"/>
       <use xlink:href="#DejaVuSans-2e" x="63.623047"/>
       <use xlink:href="#DejaVuSans-30" x="95.410156"/>
       <use xlink:href="#DejaVuSans-32" x="159.033203"/>
       <use xlink:href="#DejaVuSans-35" x="222.65625"/>
      </g>
     </g>
    </g>
    <g id="text_14">
     <!-- Price/strike ratio -->
     <g transform="translate(64.628438 364.318594) rotate(-90) scale(0.18 -0.18)">
      <defs>
       <path id="DejaVuSans-50" d="M 1259 4147 
L 1259 2394 
L 2053 2394 
Q 2494 2394 2734 2622 
Q 2975 2850 2975 3272 
Q 2975 3691 2734 3919 
Q 2494 4147 2053 4147 
L 1259 4147 
z
M 628 4666 
L 2053 4666 
Q 2838 4666 3239 4311 
Q 3641 3956 3641 3272 
Q 3641 2581 3239 2228 
Q 2838 1875 2053 1875 
L 1259 1875 
L 1259 0 
L 628 0 
L 628 4666 
z
" transform="scale(0.015625)"/>
       <path id="DejaVuSans-72" d="M 2631 2963 
Q 2534 3019 2420 3045 
Q 2306 3072 2169 3072 
Q 1681 3072 1420 2755 
Q 1159 2438 1159 1844 
L 1159 0 
L 581 0 
L 581 3500 
L 1159 3500 
L 1159 2956 
Q 1341 3275 1631 3429 
Q 1922 3584 2338 3584 
Q 2397 3584 2469 3576 
Q 2541 3569 2628 3553 
L 2631 2963 
z
" transform="scale(0.015625)"/>
       <path id="DejaVuSans-63" d="M 3122 3366 
L 3122 2828 
Q 2878 2963 2633 3030 
Q 2388 3097 2138 3097 
Q 1578 3097 1268 2742 
Q 959 2388 959 1747 
Q 959 1106 1268 751 
Q 1578 397 2138 397 
Q 2388 397 2633 464 
Q 2878 531 3122 666 
L 3122 134 
Q 2881 22 2623 -34 
Q 2366 -91 2075 -91 
Q 1284 -91 818 406 
Q 353 903 353 1747 
Q 353 2603 823 3093 
Q 1294 3584 2113 3584 
Q 2378 3584 2631 3529 
Q 2884 3475 3122 3366 
z
" transform="scale(0.015625)"/>
       <path id="DejaVuSans-65" d="M 3597 1894 
L 3597 1613 
L 953 1613 
Q 991 1019 1311 708 
Q 1631 397 2203 397 
Q 2534 397 2845 478 
Q 3156 559 3463 722 
L 3463 178 
Q 3153 47 2828 -22 
Q 2503 -91 2169 -91 
Q 1331 -91 842 396 
Q 353 884 353 1716 
Q 353 2575 817 3079 
Q 1281 3584 2069 3584 
Q 2775 3584 3186 3129 
Q 3597 2675 3597 1894 
z
M 3022 2063 
Q 3016 2534 2758 2815 
Q 2500 3097 2075 3097 
Q 1594 3097 1305 2825 
Q 1016 2553 972 2059 
L 3022 2063 
z
" transform="scale(0.015625)"/>
       <path id="DejaVuSans-2f" d="M 1625 4666 
L 2156 4666 
L 531 -594 
L 0 -594 
L 1625 4666 
z
" transform="scale(0.015625)"/>
       <path id="DejaVuSans-73" d="M 2834 3397 
L 2834 2853 
Q 2591 2978 2328 3040 
Q 2066 3103 1784 3103 
Q 1356 3103 1142 2972 
Q 928 2841 928 2578 
Q 928 2378 1081 2264 
Q 1234 2150 1697 2047 
L 1894 2003 
Q 2506 1872 2764 1633 
Q 3022 1394 3022 966 
Q 3022 478 2636 193 
Q 2250 -91 1575 -91 
Q 1294 -91 989 -36 
Q 684 19 347 128 
L 347 722 
Q 666 556 975 473 
Q 1284 391 1588 391 
Q 1994 391 2212 530 
Q 2431 669 2431 922 
Q 2431 1156 2273 1281 
Q 2116 1406 1581 1522 
L 1381 1569 
Q 847 1681 609 1914 
Q 372 2147 372 2553 
Q 372 3047 722 3315 
Q 1072 3584 1716 3584 
Q 2034 3584 2315 3537 
Q 2597 3491 2834 3397 
z
" transform="scale(0.015625)"/>
       <path id="DejaVuSans-6b" d="M 581 4863 
L 1159 4863 
L 1159 1991 
L 2875 3500 
L 3609 3500 
L 1753 1863 
L 3688 0 
L 2938 0 
L 1159 1709 
L 1159 0 
L 581 0 
L 581 4863 
z
" transform="scale(0.015625)"/>
       <path id="DejaVuSans-20" transform="scale(0.015625)"/>
      </defs>
      <use xlink:href="#DejaVuSans-50"/>
      <use xlink:href="#DejaVuSans-72" x="58.552734"/>
      <use xlink:href="#DejaVuSans-69" x="99.666016"/>
      <use xlink:href="#DejaVuSans-63" x="127.449219"/>
      <use xlink:href="#DejaVuSans-65" x="182.429688"/>
      <use xlink:href="#DejaVuSans-2f" x="243.953125"/>
      <use xlink:href="#DejaVuSans-73" x="277.644531"/>
      <use xlink:href="#DejaVuSans-74" x="329.744141"/>
      <use xlink:href="#DejaVuSans-72" x="368.953125"/>
      <use xlink:href="#DejaVuSans-69" x="410.066406"/>
      <use xlink:href="#DejaVuSans-6b" x="437.849609"/>
      <use xlink:href="#DejaVuSans-65" x="492.134766"/>
      <use xlink:href="#DejaVuSans-20" x="553.658203"/>
      <use xlink:href="#DejaVuSans-72" x="585.445312"/>
      <use xlink:href="#DejaVuSans-61" x="626.558594"/>
      <use xlink:href="#DejaVuSans-74" x="687.837891"/>
      <use xlink:href="#DejaVuSans-69" x="727.046875"/>
      <use xlink:href="#DejaVuSans-6f" x="754.830078"/>
     </g>
    </g>
   </g>
   <g id="line2d_25">
    <path d="M 138.436364 492.48 
L 250.637139 492.48 
L 251.246369 491.024402 
L 251.652533 492.48 
L 253.784846 492.48 
L 255.307929 491.024402 
L 255.612551 491.024402 
L 255.714092 492.48 
L 256.729486 492.48 
L 257.135634 491.024402 
L 257.440257 492.48 
L 257.440257 492.48 
L 257.440257 491.024402 
L 257.541798 492.48 
L 258.151028 491.024402 
L 258.557191 492.48 
L 258.658732 491.024402 
L 258.861799 492.48 
L 258.861799 491.024402 
L 258.96334 492.48 
L 259.471044 492.48 
L 259.775652 491.024402 
L 261.806439 491.024402 
L 261.806439 492.48 
L 262.009521 491.024402 
L 262.212602 492.48 
L 262.51721 491.024402 
L 265.055702 491.024402 
L 265.157227 489.568805 
L 265.258768 491.024402 
L 265.258768 491.024402 
L 266.680325 491.024402 
L 266.781866 489.568805 
L 267.086474 491.024402 
L 267.898786 491.024402 
L 267.898786 489.568805 
L 269.117261 491.024402 
L 269.828032 491.024402 
L 269.828032 489.568805 
L 270.031114 491.024402 
L 270.741885 489.568805 
L 271.655738 489.568805 
L 272.061901 491.024402 
L 272.264968 489.568805 
L 274.701919 489.568805 
L 274.905 488.113211 
L 275.108067 489.568805 
L 277.951166 489.568805 
L 277.951166 488.113211 
L 278.661937 489.568805 
L 279.169642 488.113211 
L 279.474249 489.568805 
L 279.880413 488.113211 
L 279.981954 489.568805 
L 280.895806 488.113211 
L 281.098888 488.113211 
L 281.403496 486.657615 
L 281.809659 489.568805 
L 281.9112 488.113211 
L 283.637365 488.113211 
L 284.551217 486.657615 
L 284.855825 489.568805 
L 285.566611 488.113211 
L 285.566611 488.113211 
L 285.668137 486.657615 
L 286.175841 488.113211 
L 286.886612 488.113211 
L 287.191235 486.657615 
L 287.191235 488.113211 
L 287.800465 486.657615 
L 288.612777 488.113211 
L 290.440482 486.657615 
L 290.440482 485.202018 
L 290.948187 486.657615 
L 291.151253 486.657615 
L 291.354335 485.202018 
L 291.963565 486.657615 
L 292.268188 486.657615 
L 292.268188 486.657615 
L 292.369729 485.202018 
L 292.369729 485.202018 
L 292.877418 486.657615 
L 293.0805 485.202018 
L 293.486663 486.657615 
L 293.791271 485.202018 
L 294.197434 486.657615 
L 294.298975 485.202018 
L 294.603583 485.202018 
L 294.806665 486.657615 
L 296.126681 485.202018 
L 296.329763 483.746421 
L 296.431288 485.202018 
L 297.040534 485.202018 
L 297.243615 486.657615 
L 297.751305 483.746421 
L 298.157468 485.202018 
L 298.563617 485.202018 
L 299.477469 483.746421 
L 299.883633 483.746421 
L 300.594404 485.202018 
L 301.406716 483.746421 
L 302.726717 483.746421 
L 302.929799 485.202018 
L 303.13288 483.746421 
L 303.64057 482.29082 
L 304.046733 482.29082 
L 304.046733 482.29082 
L 304.249815 483.746421 
L 304.249815 483.746421 
L 304.452882 482.29082 
L 304.452882 483.746421 
L 304.554422 482.29082 
L 304.757504 485.202018 
L 305.468275 482.29082 
L 305.874439 482.29082 
L 306.07752 485.202018 
L 306.58521 480.835231 
L 306.788291 483.746421 
L 306.788291 483.746421 
L 306.991373 483.746421 
L 306.991373 483.746421 
L 306.991373 482.29082 
L 307.499063 483.746421 
L 307.499063 480.835231 
L 307.499063 482.29082 
L 307.803685 483.746421 
L 308.311374 482.29082 
L 309.123686 482.29082 
L 309.326768 479.379628 
L 309.732932 482.29082 
L 311.357555 482.29082 
L 311.459096 479.379628 
L 312.271408 479.379628 
L 312.576016 480.835231 
L 313.185261 480.835231 
L 313.185261 479.379628 
L 313.185261 480.835231 
L 315.419115 480.835231 
L 315.926819 479.379628 
L 317.043739 480.835231 
L 317.14528 479.379628 
L 317.14528 480.835231 
L 317.348361 480.835231 
L 318.262214 479.379628 
L 318.465296 477.924029 
L 318.465296 479.379628 
L 318.465296 477.924029 
L 318.769903 477.924029 
L 318.871444 476.468432 
L 319.176067 480.835231 
L 319.176067 477.924029 
L 319.277608 477.924029 
L 319.480689 479.379628 
L 319.683756 477.924029 
L 319.785297 479.379628 
L 320.08992 479.379628 
L 320.394542 477.924029 
L 321.003772 477.924029 
L 321.003772 477.924029 
L 321.409921 479.379628 
L 321.714543 477.924029 
L 322.120707 477.924029 
L 322.222248 475.012853 
L 322.526855 477.924029 
L 322.831478 477.924029 
L 322.831478 473.557256 
L 323.136101 479.379628 
L 323.542249 476.468432 
L 323.948412 476.468432 
L 324.049953 477.924029 
L 324.151479 476.468432 
L 324.25302 477.924029 
L 324.557643 476.468432 
L 324.659183 477.924029 
L 324.963806 475.012853 
L 325.573036 475.012853 
L 325.573036 476.468432 
L 325.776118 475.012853 
L 325.979185 477.924029 
L 325.979185 475.012853 
L 326.385348 476.468432 
L 326.486889 476.468432 
L 326.486889 473.557256 
L 326.58843 477.924029 
L 326.58843 476.468432 
L 327.19766 473.557256 
L 327.299201 472.101643 
L 328.009972 475.012853 
L 328.720743 475.012853 
L 328.923825 476.468432 
L 329.533055 475.012853 
L 329.939218 475.012853 
L 330.345367 473.557256 
L 330.548448 475.012853 
L 330.649989 477.924029 
L 330.853071 476.468432 
L 330.954612 473.557256 
L 330.954612 473.557256 
L 331.056153 477.924029 
L 331.157694 473.557256 
L 331.665383 472.101643 
L 332.173072 473.557256 
L 332.477695 475.012853 
L 332.782318 472.101643 
L 332.883858 475.012853 
L 333.391548 473.557256 
L 334.914631 473.557256 
L 335.219253 470.646056 
L 335.320794 473.557256 
L 335.422335 472.101643 
L 335.828483 475.012853 
L 335.930024 472.101643 
L 336.53927 472.101643 
L 337.250041 470.646056 
L 337.554648 472.101643 
L 337.656189 470.646056 
L 339.280813 470.646056 
L 339.382354 472.101643 
L 339.382354 470.646056 
L 339.788517 472.101643 
L 339.788517 470.646056 
L 340.194665 472.101643 
L 340.397747 470.646056 
L 340.803911 469.190451 
L 340.905452 472.101643 
L 341.616208 470.646056 
L 342.022371 469.190451 
L 342.327009 469.190451 
L 342.428535 466.27927 
L 342.733142 469.190451 
L 343.03778 469.190451 
L 343.342387 470.646056 
L 343.342387 470.646056 
L 343.443913 466.27927 
L 343.443913 470.646056 
L 343.646995 470.646056 
L 344.357766 467.734852 
L 344.357766 466.27927 
L 344.662404 466.27927 
L 344.662404 470.646056 
L 344.865485 466.27927 
L 345.170093 466.27927 
L 346.185471 464.823671 
L 346.997798 466.27927 
L 347.099324 467.734852 
L 348.216259 467.734852 
L 348.216259 466.27927 
L 349.130111 466.27927 
L 349.231667 469.190451 
L 349.536275 467.734852 
L 349.637801 466.27927 
L 350.043964 463.368083 
L 350.247046 467.734852 
L 350.450128 464.823671 
L 351.160899 464.823671 
L 351.262455 466.27927 
L 351.363981 464.823671 
L 352.074752 464.823671 
L 352.176308 466.27927 
L 352.582441 466.27927 
L 352.887079 463.368083 
L 353.09016 464.823671 
L 353.09016 461.912476 
L 353.800931 464.823671 
L 353.902457 466.27927 
L 354.511702 461.912476 
L 354.917866 466.27927 
L 355.323999 463.368083 
L 355.527081 464.823671 
L 355.628637 463.368083 
L 355.933244 466.27927 
L 356.136326 459.001285 
L 356.339408 463.368083 
L 356.644015 463.368083 
L 356.745541 464.823671 
L 357.050179 460.456882 
L 357.151705 461.912476 
L 357.456342 463.368083 
L 357.76095 463.368083 
L 357.964032 466.27927 
L 358.065557 461.912476 
L 358.167113 463.368083 
L 358.573247 461.912476 
L 359.080966 457.545691 
L 359.385574 459.001285 
L 359.791737 456.09009 
L 361.111754 459.001285 
L 361.213279 463.368083 
L 361.720969 459.001285 
L 361.720969 461.912476 
L 362.330214 460.456882 
L 362.330214 461.912476 
L 362.43174 460.456882 
L 362.634821 459.001285 
L 363.040985 460.456882 
L 363.548674 457.545691 
L 363.65023 459.001285 
L 364.259445 460.456882 
L 364.665609 457.545691 
L 364.86869 459.001285 
L 364.970216 457.545691 
L 365.680987 459.001285 
L 365.782543 456.09009 
L 367.81333 456.09009 
L 368.016412 453.178895 
L 368.422545 460.456882 
L 368.625627 454.634476 
L 369.336398 456.09009 
L 369.53948 459.001285 
L 369.53948 453.178895 
L 370.453333 459.001285 
L 370.554889 453.178895 
L 370.961052 454.634476 
L 371.468742 454.634476 
L 371.570267 451.723291 
L 371.671823 454.634476 
L 372.48412 454.634476 
L 373.093365 451.723291 
L 375.022597 453.178895 
L 375.225678 453.178895 
L 375.42876 456.09009 
L 375.936449 454.634476 
L 377.561073 454.634476 
L 377.967237 450.267708 
L 377.967237 454.634476 
L 378.982646 448.812097 
L 378.982646 448.812097 
L 379.998024 448.812097 
L 380.09955 456.09009 
L 380.09955 451.723291 
L 380.201106 447.356493 
L 380.201106 447.356493 
L 380.404188 450.267708 
L 380.911877 450.267708 
L 381.31804 451.723291 
L 382.536501 445.900916 
L 383.247272 448.812097 
L 383.247272 450.267708 
L 383.348828 447.356493 
L 383.958043 451.723291 
L 384.77037 447.356493 
L 384.871895 444.445329 
L 385.379585 448.812097 
L 385.379585 445.900916 
L 385.582666 451.723291 
L 386.293437 447.356493 
L 386.801157 448.812097 
L 388.628863 448.812097 
L 388.730388 442.989708 
L 389.034996 445.900916 
L 389.034996 445.900916 
L 389.339634 445.900916 
L 389.339634 444.445329 
L 389.644241 442.989708 
L 390.050405 447.356493 
L 390.65965 444.445329 
L 391.87811 442.989708 
L 392.081192 447.356493 
L 392.284274 442.989708 
L 392.893489 441.534134 
L 393.299652 444.445329 
L 393.299652 441.534134 
L 393.502734 441.534134 
L 393.60426 444.445329 
L 393.908897 447.356493 
L 394.416587 444.445329 
L 394.619668 440.078527 
L 394.82275 444.445329 
L 395.025832 438.622919 
L 395.330439 438.622919 
L 396.244292 441.534134 
L 396.447374 440.078527 
L 396.447374 438.622919 
L 396.650456 438.622919 
L 396.751981 441.534134 
L 397.665834 440.078527 
L 398.27508 434.256124 
L 398.681243 435.711711 
L 398.884295 441.534134 
L 399.188932 440.078527 
L 399.595096 440.078527 
L 399.696622 437.167335 
L 400.508918 440.078527 
L 400.610474 437.167335 
L 401.321245 438.622919 
L 401.321245 437.167335 
L 401.625853 438.622919 
L 402.43818 441.534134 
L 402.43818 435.711711 
L 402.539706 437.167335 
L 402.844343 437.167335 
L 402.844343 434.256124 
L 403.148951 428.433762 
L 403.961278 438.622919 
L 404.164329 437.167335 
L 404.164329 435.711711 
L 404.367411 435.711711 
L 405.484346 431.34497 
L 405.484346 432.800537 
L 406.093591 437.167335 
L 406.195117 431.34497 
L 406.195117 435.711711 
L 406.60128 431.34497 
L 406.804362 432.800537 
L 406.804362 434.256124 
L 407.108969 434.256124 
L 407.515133 435.711711 
L 408.32746 435.711711 
L 408.428986 431.34497 
L 408.936675 434.256124 
L 409.749002 431.34497 
L 410.459773 429.889328 
L 410.865937 431.34497 
L 411.27207 437.167335 
L 411.475152 434.256124 
L 411.779789 425.522533 
L 411.881315 428.433762 
L 412.49056 432.800537 
L 413.302857 432.800537 
L 413.607495 425.522533 
L 413.810577 428.433762 
L 414.013628 426.978141 
L 414.013628 424.066939 
L 414.318266 428.433762 
L 414.724429 422.611413 
L 414.724429 422.611413 
L 414.927481 425.522533 
L 415.029037 424.066939 
L 415.130563 429.889328 
L 415.536726 425.522533 
L 415.739808 429.889328 
L 415.841334 428.433762 
L 416.145971 426.978141 
L 417.262906 426.978141 
L 417.465988 428.433762 
L 417.465988 426.978141 
L 417.872121 422.611413 
L 418.075203 426.978141 
L 418.075203 424.066939 
L 419.192137 428.433762 
L 419.395219 428.433762 
L 420.410598 426.978141 
L 420.410598 425.522533 
L 420.512154 426.978141 
L 420.715235 424.066939 
L 421.019843 422.611413 
L 421.121369 425.522533 
L 421.222925 424.066939 
L 421.933696 419.700191 
L 422.136777 422.611413 
L 422.238303 421.155751 
L 422.441385 425.522533 
L 422.847548 418.244625 
L 422.949074 419.700191 
L 423.05063 424.066939 
L 423.152156 422.611413 
L 423.862927 431.34497 
L 424.26909 415.333396 
L 424.472172 419.700191 
L 425.081417 425.522533 
L 425.386025 421.155751 
L 426.401434 418.244625 
L 426.502959 425.522533 
L 426.604485 421.155751 
L 426.706041 422.611413 
L 427.416812 421.155751 
L 427.518338 418.244625 
L 427.619894 419.700191 
L 428.026058 421.155751 
L 428.432191 424.066939 
L 428.533747 418.244625 
L 428.533747 419.700191 
L 428.635273 421.155751 
L 428.635273 421.155751 
L 429.041436 418.244625 
L 429.142962 415.333396 
L 429.346044 418.244625 
L 430.564534 421.155751 
L 430.66606 412.422229 
L 430.66606 421.155751 
L 431.173749 416.788976 
L 431.681469 418.244625 
L 432.087602 412.422229 
L 432.493765 418.244625 
L 433.001455 412.422229 
L 433.509174 409.511027 
L 433.813782 418.244625 
L 434.118389 406.599778 
L 434.626078 413.877761 
L 435.438405 410.96658 
L 435.844569 418.244625 
L 435.844569 410.96658 
L 435.844569 410.96658 
L 436.656866 410.96658 
L 436.961504 416.788976 
L 437.367637 410.96658 
L 437.367637 408.055413 
L 438.078408 410.96658 
L 438.484571 415.333396 
L 438.992261 413.877761 
L 439.093817 410.96658 
L 440.413833 406.599778 
L 440.515359 408.055413 
L 441.327686 410.96658 
L 441.429211 406.599778 
L 441.530767 412.422229 
L 442.241538 413.877761 
L 442.546146 409.511027 
L 443.155391 406.599778 
L 443.459999 410.96658 
L 443.561524 402.233003 
L 443.967688 409.511027 
L 444.17077 403.688638 
L 444.17077 406.599778 
L 444.272326 410.96658 
L 444.475377 409.511027 
L 444.678459 410.96658 
L 444.678459 403.688638 
L 444.881541 410.96658 
L 444.881541 409.511027 
L 444.881541 400.777437 
L 445.38923 408.055413 
L 445.795393 405.144198 
L 445.998475 405.144198 
L 445.998475 402.233003 
L 446.100001 403.688638 
L 446.303083 402.233003 
L 446.709246 409.511027 
L 447.216936 409.511027 
L 447.927707 403.688638 
L 448.740034 400.777437 
L 449.044641 403.688638 
L 449.044641 403.688638 
L 449.450805 405.144198 
L 450.669265 402.233003 
L 451.27851 405.144198 
L 451.481592 400.777437 
L 452.395445 403.688638 
L 452.49697 396.410628 
L 452.903134 397.866195 
L 453.207772 394.955013 
L 453.512379 399.321877 
L 453.816987 396.410628 
L 454.020068 400.777437 
L 454.324676 399.321877 
L 454.426232 394.955013 
L 454.933921 397.866195 
L 455.137003 394.955013 
L 456.863153 389.132618 
L 457.980087 399.321877 
L 458.284725 390.588245 
L 458.386251 392.043873 
L 458.589332 397.866195 
L 458.589332 396.410628 
L 458.89394 399.321877 
L 458.89394 396.410628 
L 459.807793 393.499406 
L 460.010874 399.321877 
L 461.127809 394.955013 
L 461.229365 393.499406 
L 461.533972 386.221511 
L 462.549351 392.043873 
L 463.158596 383.310289 
L 463.260122 387.677051 
L 463.666285 387.677051 
L 463.666285 387.677051 
L 463.970893 396.410628 
L 464.072449 390.588245 
L 464.072449 393.499406 
L 464.377056 390.588245 
L 464.681694 389.132618 
L 464.681694 390.588245 
L 465.189384 390.588245 
L 465.392465 393.499406 
L 465.697073 389.132618 
L 465.900155 389.132618 
L 466.103236 387.677051 
L 466.103236 387.677051 
L 466.306318 383.310289 
L 466.814007 390.588245 
L 466.915533 383.310289 
L 467.017089 396.410628 
L 467.118615 389.132618 
L 469.047876 386.221511 
L 469.555566 387.677051 
L 469.657091 392.043873 
L 469.860173 389.132618 
L 469.961729 384.765815 
L 470.164811 387.677051 
L 470.164811 381.854702 
L 470.266337 386.221511 
L 470.367862 384.765815 
L 470.469418 378.943514 
L 470.875582 384.765815 
L 470.977108 381.854702 
L 470.977108 392.043873 
L 471.180189 377.487893 
L 471.383271 386.221511 
L 471.789435 380.399122 
L 472.094042 386.221511 
L 472.297124 386.221511 
L 472.297124 389.132618 
L 472.297124 387.677051 
L 473.210977 390.588245 
L 474.023273 381.854702 
L 474.226355 387.677051 
L 474.632519 390.588245 
L 475.038682 376.032286 
L 475.952535 383.310289 
L 476.257143 380.399122 
L 476.257143 383.310289 
L 476.663306 383.310289 
L 476.663306 380.399122 
L 477.06947 384.765815 
L 477.170995 374.576705 
L 478.491012 377.487893 
L 478.491012 376.032286 
L 479.100257 381.854702 
L 479.303308 378.943514 
L 479.404864 378.943514 
L 479.607946 380.399122 
L 479.709472 377.487893 
L 480.01411 380.399122 
L 480.01411 374.576705 
L 480.521799 376.032286 
L 480.623325 380.399122 
L 480.623325 368.754289 
L 480.927962 378.943514 
L 480.927962 376.032286 
L 481.435652 378.943514 
L 481.537177 384.765815 
L 481.638733 373.121139 
L 481.841815 381.854702 
L 481.943341 378.943514 
L 482.044867 384.765815 
L 482.146423 380.399122 
L 482.654112 376.032286 
L 482.755638 381.854702 
L 482.755638 377.487893 
L 483.161801 371.665545 
L 483.263357 380.399122 
L 483.466439 374.576705 
L 483.66949 378.943514 
L 484.075654 380.399122 
L 484.278736 365.843115 
L 484.380292 368.754289 
L 484.583343 378.943514 
L 484.989507 371.665545 
L 485.598752 378.943514 
L 485.90336 373.121139 
L 486.614131 370.209856 
L 487.020294 364.387453 
L 487.223376 370.209856 
L 487.324902 364.387453 
L 487.629539 368.754289 
L 488.137229 365.843115 
L 488.238754 368.754289 
L 488.34031 367.298736 
L 488.543392 370.209856 
L 489.152607 374.576705 
L 489.355689 365.843115 
L 489.457245 380.399122 
L 489.863408 370.209856 
L 489.863408 365.843115 
L 489.964934 367.298736 
L 490.574179 370.209856 
L 490.980313 365.843115 
L 490.980313 370.209856 
L 492.300329 365.843115 
L 492.300329 364.387453 
L 492.401885 365.843115 
L 492.808018 367.298736 
L 492.808018 361.476347 
L 492.909574 370.209856 
L 493.112656 365.843115 
L 493.721871 360.020739 
L 493.823427 362.931859 
L 493.823427 373.121139 
L 493.924953 362.931859 
L 494.331116 362.931859 
L 494.534198 370.209856 
L 494.838806 360.020739 
L 494.940362 374.576705 
L 494.940362 367.298736 
L 495.346495 364.387453 
L 495.651133 364.387453 
L 495.752658 358.565159 
L 496.260348 364.387453 
L 496.463429 357.109538 
L 497.275756 368.754289 
L 497.478838 354.19835 
L 497.478838 360.020739 
L 497.580364 365.843115 
L 497.986527 362.931859 
L 497.986527 360.020739 
L 498.798854 361.476347 
L 498.90038 370.209856 
L 499.408069 351.287149 
L 499.509625 361.476347 
L 499.814233 358.565159 
L 500.11884 360.020739 
L 500.11884 357.109538 
L 500.11884 365.843115 
L 501.032693 358.565159 
L 501.84502 364.387453 
L 502.251184 360.020739 
L 502.352709 355.653957 
L 502.758873 357.109538 
L 502.860399 352.742783 
L 503.368088 357.109538 
L 503.672726 351.287149 
L 504.180415 362.931859 
L 504.688104 348.375974 
L 505.094268 357.109538 
L 505.398875 349.831487 
L 505.601957 349.831487 
L 505.601957 358.565159 
L 505.703513 355.653957 
L 506.008121 354.19835 
L 506.109646 361.476347 
L 506.51581 355.653957 
L 506.617366 358.565159 
L 506.820448 349.831487 
L 506.820448 357.109538 
L 507.125055 360.020739 
L 507.328137 354.19835 
L 508.445071 348.375974 
L 508.749679 352.742783 
L 509.968139 346.920326 
L 510.780466 345.464719 
L 511.18663 355.653957 
L 511.389681 348.375974 
L 511.491237 357.109538 
L 511.897401 345.464719 
L 511.998926 357.109538 
L 512.202008 349.831487 
L 512.506616 346.920326 
L 512.608172 351.287149 
L 513.217387 348.375974 
L 513.217387 344.009138 
L 513.318943 354.19835 
L 513.62355 348.375974 
L 513.928188 351.287149 
L 514.435877 345.464719 
L 515.857419 345.464719 
L 515.958945 349.831487 
L 516.56819 346.920326 
L 516.974354 338.18683 
L 517.177436 344.009138 
L 517.583599 344.009138 
L 517.685125 336.731115 
L 518.091288 342.553572 
L 518.802059 345.464719 
L 519.005141 346.920326 
L 519.106667 338.18683 
L 519.51283 342.553572 
L 519.51283 345.464719 
L 519.51283 341.098005 
L 519.51283 345.464719 
L 519.918994 338.18683 
L 520.426683 348.375974 
L 520.528209 338.18683 
L 521.035928 346.920326 
L 521.137454 344.009138 
L 521.848225 342.553572 
L 521.848225 348.375974 
L 522.355914 335.275575 
L 522.355914 339.642438 
L 522.762078 330.908766 
L 522.96516 345.464719 
L 523.269767 351.287149 
L 523.472849 342.553572 
L 523.879013 341.098005 
L 523.879013 342.553572 
L 524.69134 336.731115 
L 525.097473 341.098005 
L 525.808244 342.553572 
L 526.112882 327.997632 
L 526.620571 349.831487 
L 526.722097 326.542039 
L 526.925178 339.642438 
L 527.12826 341.098005 
L 527.839031 323.630891 
L 528.042113 333.819995 
L 528.448276 327.997632 
L 528.651358 338.18683 
L 528.955966 332.364468 
L 529.159047 335.275575 
L 529.159047 329.453131 
L 529.971374 339.642438 
L 530.275982 329.453131 
L 530.275982 325.086377 
L 530.377508 325.086377 
L 530.580589 336.731115 
L 530.885227 333.819995 
L 531.189835 338.18683 
L 531.494442 325.086377 
L 531.79908 327.997632 
L 532.002131 322.175148 
L 532.002131 333.819995 
L 532.103688 330.908766 
L 532.509851 338.18683 
L 532.814459 325.086377 
L 533.931393 325.086377 
L 533.931393 342.553572 
L 533.931393 329.453131 
L 534.540638 325.086377 
L 535.048328 327.997632 
L 535.251409 325.086377 
L 535.251409 330.908766 
L 535.352935 325.086377 
L 535.96218 332.364468 
L 536.165262 326.542039 
L 536.672951 338.18683 
L 536.672951 326.542039 
L 537.079115 330.908766 
L 538.297575 325.086377 
L 538.805264 320.719676 
L 538.90682 327.997632 
L 539.516035 319.264042 
L 539.719117 325.086377 
L 539.719117 325.086377 
L 540.023725 316.352881 
L 540.328362 327.997632 
L 540.531444 325.086377 
L 541.039133 322.175148 
L 541.242215 325.086377 
L 541.445297 325.086377 
L 542.35915 313.441598 
L 542.968365 322.175148 
L 542.968365 322.175148 
L 543.069921 326.542039 
L 543.273003 319.264042 
L 543.273003 310.530519 
L 543.780692 311.986059 
L 543.983774 320.719676 
L 544.694545 323.630891 
L 546.319168 310.530519 
L 546.826858 317.808448 
L 548.045318 311.986059 
L 548.756119 317.808448 
L 549.060727 307.619182 
L 549.060727 307.619182 
L 549.060727 314.897274 
L 550.076105 316.352881 
L 550.482269 313.441598 
L 550.583825 320.719676 
L 552.208449 307.619182 
L 552.41153 313.441598 
L 552.614582 307.619182 
L 552.91922 319.264042 
L 553.020745 309.074939 
L 553.325383 319.264042 
L 553.629991 306.163629 
L 554.239236 319.264042 
L 554.746925 298.885741 
L 555.051533 310.530519 
L 556.574631 300.341253 
L 556.574631 313.441598 
L 556.879238 304.708048 
L 556.879238 306.163629 
L 557.183846 311.986059 
L 557.285402 298.885741 
L 557.386927 304.708048 
L 557.691565 297.429998 
L 557.894617 300.341253 
L 557.894617 303.252468 
L 557.996173 301.796874 
L 558.199254 314.897274 
L 558.402336 317.808448 
L 558.402336 300.341253 
L 559.113107 300.341253 
L 559.214633 309.074939 
L 559.519271 303.252468 
L 559.823878 309.074939 
L 559.925404 301.796874 
L 560.02696 319.264042 
L 561.042339 300.341253 
L 561.24542 310.530519 
L 561.24542 300.341253 
L 561.75311 298.885741 
L 561.854666 306.163629 
L 561.956191 304.708048 
L 562.057747 309.074939 
L 562.463881 301.796874 
L 562.870044 301.796874 
L 562.9716 303.252468 
L 563.580815 300.341253 
L 563.885453 301.796874 
L 564.088504 294.518905 
L 564.799306 300.341253 
L 564.900831 297.429998 
L 565.306995 300.341253 
L 565.611602 300.341253 
L 565.611602 293.063297 
L 565.814684 293.063297 
L 565.91621 301.796874 
L 566.423929 303.252468 
L 566.525455 293.063297 
L 566.830063 287.241003 
L 567.033144 290.152042 
L 567.033144 300.341253 
L 567.439308 300.341253 
L 567.743915 291.607703 
L 567.845471 293.063297 
L 568.251635 301.796874 
L 569.470095 294.518905 
L 570.180866 288.696515 
L 570.383948 301.796874 
L 570.993193 295.974526 
L 571.196275 281.418614 
L 571.297801 298.885741 
L 571.399327 295.974526 
L 571.907046 291.607703 
L 572.820899 291.607703 
L 573.227032 284.329747 
L 573.227032 298.885741 
L 573.227032 290.152042 
L 573.430114 288.696515 
L 573.734752 297.429998 
L 573.836277 284.329747 
L 574.242441 287.241003 
L 574.343967 291.607703 
L 574.648604 284.329747 
L 574.953212 285.785287 
L 575.156294 288.696515 
L 575.156294 277.051751 
L 575.460901 288.696515 
L 576.171672 303.252468 
L 576.374754 285.785287 
L 576.679361 291.607703 
L 577.187081 274.140603 
L 577.187081 288.696515 
L 577.288607 284.329747 
L 577.491688 282.874058 
L 577.593214 287.241003 
L 578.405541 290.152042 
L 578.608623 269.773713 
L 578.710149 294.518905 
L 579.217868 269.773713 
L 579.624001 284.329747 
L 579.928639 287.241003 
L 580.436329 287.241003 
L 580.436329 281.418614 
L 580.740936 287.241003 
L 581.857871 281.418614 
L 581.857871 278.507317 
L 581.959396 285.785287 
L 582.467116 282.874058 
L 582.873249 271.229266 
L 583.177887 284.329747 
L 583.279413 282.874058 
L 583.279413 269.773713 
L 583.888658 287.241003 
L 583.990184 277.051751 
L 584.294821 282.874058 
L 584.802511 279.962925 
L 584.904036 290.152042 
L 585.107118 259.584515 
L 585.614807 279.962925 
L 585.716363 265.406999 
L 586.020971 279.962925 
L 586.224053 274.140603 
L 586.934824 281.418614 
L 587.137905 277.051751 
L 587.137905 290.152042 
L 587.848676 277.051751 
L 588.457922 288.696515 
L 588.762529 278.507317 
L 589.168693 275.59613 
L 589.270218 265.406999 
L 589.879464 272.684887 
L 589.98102 266.862539 
L 590.488709 262.495866 
L 590.691791 277.051751 
L 590.894842 255.217706 
L 590.996398 268.318065 
L 591.605644 274.140603 
L 592.316415 271.229266 
L 592.316415 278.507317 
L 593.027186 263.951324 
L 593.027186 293.063297 
L 593.636401 262.495866 
L 594.14412 263.951324 
L 594.347202 256.673463 
L 595.159499 279.962925 
L 595.261055 268.318065 
L 596.377959 268.318065 
L 596.377959 272.684887 
L 597.190286 266.862539 
L 598.713384 263.951324 
L 598.81494 265.406999 
L 598.81494 263.951324 
L 599.424155 253.762194 
L 599.830319 256.673463 
L 600.337978 258.128867 
L 600.337978 272.684887 
L 600.439534 258.128867 
L 600.54109 268.318065 
L 601.251861 281.418614 
L 601.251861 252.306546 
L 601.556468 258.128867 
L 601.75952 275.59613 
L 601.75952 259.584515 
L 602.267239 263.951324 
L 602.571847 269.773713 
L 602.774959 255.217706 
L 602.97801 263.951324 
L 603.181122 246.484251 
L 603.181122 269.773713 
L 603.282618 261.040055 
L 603.384174 262.495866 
L 603.891893 259.584515 
L 603.993389 253.762194 
L 604.094945 255.217706 
L 604.298057 266.862539 
L 604.70416 262.495866 
L 605.821094 243.57309 
L 606.328814 261.040055 
L 606.938029 258.128867 
L 607.039585 256.673463 
L 607.344192 272.684887 
L 607.547304 236.294931 
L 607.547304 249.395358 
L 608.359571 262.495866 
L 608.461127 258.128867 
L 608.765734 262.495866 
L 608.765734 261.040055 
L 608.86729 247.939764 
L 611.81193 240.661767 
L 612.014982 258.128867 
L 612.31965 253.762194 
L 612.31965 246.484251 
L 612.928865 268.318065 
L 613.233472 256.673463 
L 614.553458 258.128867 
L 614.655014 237.750525 
L 614.858126 239.206173 
L 614.959622 252.306546 
L 614.959622 236.294931 
L 615.061178 259.584515 
L 616.279668 236.294931 
L 616.888883 255.217706 
L 616.990439 253.762194 
L 617.193491 247.939764 
L 618.818145 249.395358 
L 619.325804 247.939764 
L 620.036575 239.206173 
L 620.138131 247.939764 
L 620.747346 231.928258 
L 620.950458 249.395358 
L 621.356622 242.117415 
L 622.676608 242.117415 
L 622.87972 236.294931 
L 623.082771 240.661767 
L 623.184327 246.484251 
L 623.285823 233.383933 
L 624.199706 249.395358 
L 624.199706 239.206173 
L 624.402757 230.472718 
L 624.707425 240.661767 
L 625.113528 226.105991 
L 625.215084 237.750525 
L 625.621248 256.673463 
L 626.433575 242.117415 
L 626.433575 231.928258 
L 626.839738 220.283344 
L 626.941234 223.194857 
L 627.245902 236.294931 
L 627.753561 218.82794 
L 628.058168 239.206173 
L 628.26128 234.839446 
L 628.26128 230.472718 
L 628.972051 233.383933 
L 629.073607 237.750525 
L 629.885874 223.194857 
L 629.885874 240.661767 
L 630.088986 221.738829 
L 630.292037 233.383933 
L 630.292037 229.016962 
L 630.292037 224.650234 
L 630.799757 226.105991 
L 630.901313 233.383933 
L 631.307416 227.56153 
L 632.627462 226.105991 
L 632.93207 218.82794 
L 633.236677 234.839446 
L 633.338233 230.472718 
L 634.962827 231.928258 
L 635.165939 231.928258 
L 635.470546 220.283344 
L 636.282873 214.460968 
L 636.790532 221.738829 
L 636.892088 234.839446 
L 636.892088 226.105991 
L 637.0952 227.56153 
L 637.196696 234.839446 
L 638.516743 218.82794 
L 638.719794 230.472718 
L 638.82135 220.283344 
L 638.922906 226.105991 
L 639.430565 224.650234 
L 639.633677 230.472718 
L 639.633677 224.650234 
L 640.039841 224.650234 
L 640.141336 218.82794 
L 640.5475 229.016962 
L 640.649056 221.738829 
L 641.055219 218.82794 
L 641.359827 211.549835 
L 641.562878 236.294931 
L 641.969042 210.094539 
L 642.070598 223.194857 
L 642.679813 223.194857 
L 642.98442 214.460968 
L 643.289088 210.094539 
L 643.390584 218.82794 
L 643.695191 213.0057 
L 644.202911 226.105991 
L 644.609074 207.183324 
L 644.609074 202.816488 
L 645.319845 227.56153 
L 645.726009 223.194857 
L 645.827565 207.183324 
L 646.132172 211.549835 
L 646.335224 196.993651 
L 647.147551 218.82794 
L 647.553714 201.36084 
L 647.858322 217.37221 
L 648.162929 207.183324 
L 648.772205 218.82794 
L 648.975256 210.094539 
L 649.990635 220.283344 
L 650.193747 205.727513 
L 650.701406 221.738829 
L 650.802962 205.727513 
L 650.904518 213.0057 
L 650.904518 208.638864 
L 651.412177 210.094539 
L 651.615289 207.183324 
L 651.919896 217.37221 
L 652.021452 195.538518 
L 652.224504 204.272055 
L 652.529111 198.449625 
L 652.833719 208.638864 
L 652.935275 201.36084 
L 653.138387 196.993651 
L 653.849158 208.638864 
L 654.255321 210.094539 
L 654.966092 218.82794 
L 655.067588 194.082518 
L 656.083027 210.094539 
L 656.387634 199.905192 
L 656.692242 196.993651 
L 656.793798 199.905192 
L 657.809177 205.727513 
L 657.809177 189.715845 
L 658.113784 198.449625 
L 658.113784 194.082518 
L 658.418392 196.993651 
L 658.824555 207.183324 
L 659.027607 207.183324 
L 660.347653 195.538518 
L 660.449209 176.615689 
L 660.550705 205.727513 
L 661.15998 202.816488 
L 661.464588 196.993651 
L 662.073803 194.082518 
L 662.175359 182.437902 
L 662.479966 201.36084 
L 662.581522 198.449625 
L 662.784574 196.993651 
L 663.292293 182.437902 
L 663.393789 201.36084 
L 664.10462 191.171682 
L 664.10462 194.082518 
L 664.206116 178.070985 
L 664.510723 192.62687 
L 664.713835 186.804792 
L 664.713835 195.538518 
L 664.916887 201.36084 
L 665.424606 196.993651 
L 665.526162 204.272055 
L 665.627658 179.526796 
L 666.338429 207.183324 
L 666.338429 205.727513 
L 667.0492 183.893713 
L 667.455363 185.349117 
L 667.963083 195.538518 
L 668.572298 185.349117 
L 668.77541 176.615689 
L 669.486181 183.893713 
L 669.587676 182.437902 
L 669.689232 169.337828 
L 669.99384 182.437902 
L 671.313886 182.437902 
L 671.415382 176.615689 
L 672.227709 170.793205 
L 672.329265 189.715845 
L 672.329265 186.804792 
L 672.430821 176.615689 
L 673.040036 185.349117 
L 673.243087 182.437902 
L 674.15697 179.526796 
L 674.360022 191.171682 
L 674.766185 201.36084 
L 674.867741 167.882126 
L 676.289284 178.070985 
L 677.000055 180.982444 
L 677.60927 169.337828 
L 677.710826 182.437902 
L 678.015433 172.248799 
L 678.218545 182.437902 
L 678.726204 180.982444 
L 678.82776 176.615689 
L 679.233924 192.62687 
L 679.33548 170.793205 
L 679.944695 172.248799 
L 680.452414 167.882126 
L 680.960073 170.793205 
L 681.061629 166.426125 
L 681.163185 173.704555 
L 681.569349 186.804792 
L 682.584727 157.693077 
L 682.889335 166.426125 
L 682.889335 183.893713 
L 682.990891 156.23732 
L 683.092386 162.059533 
L 684.107825 169.337828 
L 684.513989 176.615689 
L 684.71704 166.426125 
L 685.021648 182.437902 
L 685.427811 150.414538 
L 685.630923 164.970531 
L 685.833975 159.148318 
L 686.138582 164.970531 
L 686.44319 157.693077 
L 686.44319 164.970531 
L 686.950909 154.781726 
L 687.052465 176.615689 
L 687.458568 166.426125 
L 687.560124 179.526796 
L 687.763236 170.793205 
L 688.1694 159.148318 
L 689.286274 178.070985 
L 689.286274 146.04819 
L 689.38783 157.693077 
L 689.590942 173.704555 
L 690.403208 159.148318 
L 691.012484 163.515371 
L 691.113979 166.426125 
L 691.113979 159.148318 
L 691.723255 163.515371 
L 692.230914 173.704555 
L 692.33247 163.515371 
L 693.246353 159.148318 
L 693.246353 170.793205 
L 693.652516 162.059533 
L 694.058619 147.503594 
L 694.160175 169.337828 
L 694.261731 160.604237 
L 694.76939 137.314301 
L 694.870946 176.615689 
L 694.870946 153.326349 
L 695.683274 160.604237 
L 695.78483 166.426125 
L 696.190993 143.137056 
L 696.292489 159.148318 
L 696.495601 143.137056 
L 696.800208 150.414538 
L 697.00326 151.87062 
L 697.510979 141.681462 
L 697.714031 163.515371 
L 697.815587 156.23732 
L 698.22175 144.59265 
L 698.627914 159.148318 
L 698.932521 150.414538 
L 699.338685 147.503594 
L 699.744848 164.970531 
L 699.846404 147.503594 
L 700.252507 163.515371 
L 700.760227 157.693077 
L 700.963278 144.59265 
L 701.369442 150.414538 
L 701.775605 153.326349 
L 701.877161 143.137056 
L 702.486376 148.959513 
L 702.486376 159.148318 
L 702.790984 151.87062 
L 702.994096 140.225814 
L 703.197147 140.225814 
L 703.400259 153.326349 
L 703.400259 132.947438 
L 703.806423 137.314301 
L 704.009474 162.059533 
L 704.821801 154.781726 
L 704.923357 138.770383 
L 705.126409 153.326349 
L 705.634128 138.770383 
L 706.040292 148.959513 
L 706.446395 167.882126 
L 706.852558 156.23732 
L 707.664885 148.959513 
L 707.867997 144.59265 
L 707.969493 151.87062 
L 708.172605 135.859114 
L 708.578768 135.859114 
L 709.187983 151.87062 
L 709.187983 140.225814 
L 709.594147 138.770383 
L 710.406474 147.503594 
L 710.507969 150.414538 
L 710.507969 146.04819 
L 710.812577 147.503594 
L 711.21874 130.036358 
L 711.523408 153.326349 
L 712.234179 140.225814 
L 712.741838 159.148318 
L 713.554165 135.859114 
L 714.6711 131.492386 
L 714.874152 114.025205 
L 715.280315 127.125604 
L 715.381871 146.04819 
L 716.39725 125.66955 
L 716.803413 135.859114 
L 717.108021 150.414538 
L 717.209577 118.391824 
L 717.209577 140.225814 
L 717.514184 143.137056 
L 717.818792 124.214118 
L 718.529563 132.947438 
L 718.83417 128.580737 
L 719.34189 135.859114 
L 720.763432 137.314301 
L 721.271151 134.403466 
L 721.271151 137.314301 
L 721.271151 118.391824 
L 721.474203 143.137056 
L 722.184974 127.125604 
L 722.997301 127.125604 
L 723.809628 108.202884 
L 724.72345 122.758579 
L 724.72345 132.947438 
L 724.926562 131.492386 
L 725.23117 124.214118 
L 725.535777 119.847364 
L 725.637333 134.403466 
L 725.840385 106.7471 
L 726.44966 130.036358 
L 726.652712 127.125604 
L 727.160431 135.859114 
L 727.261927 130.036358 
L 728.785025 119.847364 
L 728.886581 116.936393 
L 728.988137 150.414538 
L 729.089632 108.202884 
L 729.3943 134.403466 
L 730.917338 131.492386 
L 731.729665 119.847364 
L 731.729665 106.7471 
L 731.831221 111.113421 
L 731.932777 114.025205 
L 732.643548 122.758579 
L 732.643548 124.214118 
L 733.557371 124.214118 
L 734.06509 108.202884 
L 734.268142 108.202884 
L 734.572749 98.013265 
L 734.572749 124.214118 
L 734.674305 114.025205 
L 734.877357 116.936393 
L 735.689684 105.291723 
L 736.400455 100.924236 
L 736.400455 100.924236 
L 736.400455 109.658342 
L 737.212782 115.480338 
L 737.314338 135.859114 
L 737.517389 121.302958 
L 738.532768 118.391824 
L 738.938931 102.380237 
L 738.938931 93.646429 
L 739.142043 89.28 
L 739.142043 98.013265 
L 739.95437 109.658342 
L 740.969749 96.557644 
L 741.1728 99.468805 
L 741.477408 98.013265 
L 741.578964 92.190835 
L 741.68052 124.214118 
L 741.782076 122.758579 
L 742.188179 116.936393 
L 743.102062 100.924236 
L 743.102062 90.735377 
L 743.203618 98.013265 
L 743.305113 90.735377 
L 743.711277 106.7471 
L 744.320552 89.28 
L 744.523604 92.190835 
L 744.62516 108.202884 
L 745.437487 109.658342 
L 746.148258 105.291723 
L 746.554361 99.468805 
L 746.655917 105.291723 
L 746.655917 105.291723 
L 746.859029 96.557644 
L 746.960524 100.924236 
L 747.163636 93.646429 
L 747.163636 93.646429 
" clip-path="url(#pcba8ebbeae)" style="fill: none; stroke: #1f77b4; stroke-width: 2; stroke-linecap: square"/>
   </g>
   <g id="line2d_26">
    <path d="M 138.436364 492.190088 
L 183.418212 491.916279 
L 210.22455 491.548536 
L 230.329296 491.052801 
L 245.661712 490.465248 
L 259.775652 489.700917 
L 272.264968 488.805361 
L 284.551217 487.698547 
L 296.431288 486.40225 
L 307.803685 484.943731 
L 318.871444 483.305106 
L 328.923825 481.60668 
L 338.366975 479.799493 
L 347.302406 477.866757 
L 355.933244 475.757282 
L 363.548674 473.664964 
L 370.554889 471.52038 
L 375.936449 469.713109 
L 383.247272 467.010337 
L 383.247272 467.010337 
L 389.339634 464.518576 
L 389.339634 464.518576 
L 395.330439 461.836008 
L 401.321245 458.904537 
L 401.321245 458.904537 
L 407.108969 455.819113 
L 412.693642 452.591199 
L 418.075203 449.235141 
L 418.075203 449.235141 
L 423.862927 445.345128 
L 429.346044 441.381239 
L 435.438405 436.649536 
L 440.515359 432.438285 
L 446.303083 427.336617 
L 451.481592 422.500584 
L 456.863153 417.205311 
L 463.260122 410.561817 
L 469.047876 404.235472 
L 475.038682 397.387949 
L 482.146423 388.897375 
L 489.457245 379.791379 
L 497.580364 369.294982 
L 507.125055 356.56025 
L 518.091288 341.573899 
L 548.756119 299.514956 
L 558.402336 286.763021 
L 558.402336 286.763021 
L 567.033144 275.717323 
L 567.033144 275.717323 
L 574.953212 265.940548 
L 581.959396 257.611748 
L 589.270218 249.264241 
L 596.377959 241.501146 
L 596.377959 241.501146 
L 603.384174 234.199182 
L 608.86729 228.731574 
L 608.86729 228.731574 
L 616.990439 221.029238 
L 623.285823 215.386945 
L 630.088986 209.603638 
L 636.892088 204.141643 
L 636.892088 204.141643 
L 643.390584 199.215122 
L 648.975256 195.200804 
L 655.2707 190.91113 
L 662.37841 186.355157 
L 662.37841 186.355157 
L 669.486181 182.090752 
L 676.289284 178.267307 
L 683.092386 174.681531 
L 690.403208 171.07908 
L 697.815587 167.674335 
L 705.126409 164.544186 
L 712.741838 161.506436 
L 721.271151 158.353648 
L 721.271151 158.353648 
L 729.3943 155.576451 
L 738.938931 152.567332 
L 738.938931 152.567332 
L 747.163636 150.175974 
L 747.163636 150.175974 
" clip-path="url(#pcba8ebbeae)" style="fill: none; stroke: #ff7f0e; stroke-width: 2; stroke-linecap: square"/>
   </g>
   <g id="patch_3">
    <path d="M 108 512.64 
L 108 69.12 
" style="fill: none; stroke: #000000; stroke-width: 0.8; stroke-linejoin: miter; stroke-linecap: square"/>
   </g>
   <g id="patch_4">
    <path d="M 777.6 512.64 
L 777.6 69.12 
" style="fill: none; stroke: #000000; stroke-width: 0.8; stroke-linejoin: miter; stroke-linecap: square"/>
   </g>
   <g id="patch_5">
    <path d="M 108 512.64 
L 777.6 512.64 
" style="fill: none; stroke: #000000; stroke-width: 0.8; stroke-linejoin: miter; stroke-linecap: square"/>
   </g>
   <g id="patch_6">
    <path d="M 108 69.12 
L 777.6 69.12 
" style="fill: none; stroke: #000000; stroke-width: 0.8; stroke-linejoin: miter; stroke-linecap: square"/>
   </g>
   <g id="text_15">
    <!-- Price by Volatility. Moneyness=0.9 -->
    <g transform="translate(271.317187 63.12) scale(0.2 -0.2)">
     <defs>
      <path id="DejaVuSans-62" d="M 3116 1747 
Q 3116 2381 2855 2742 
Q 2594 3103 2138 3103 
Q 1681 3103 1420 2742 
Q 1159 2381 1159 1747 
Q 1159 1113 1420 752 
Q 1681 391 2138 391 
Q 2594 391 2855 752 
Q 3116 1113 3116 1747 
z
M 1159 2969 
Q 1341 3281 1617 3432 
Q 1894 3584 2278 3584 
Q 2916 3584 3314 3078 
Q 3713 2572 3713 1747 
Q 3713 922 3314 415 
Q 2916 -91 2278 -91 
Q 1894 -91 1617 61 
Q 1341 213 1159 525 
L 1159 0 
L 581 0 
L 581 4863 
L 1159 4863 
L 1159 2969 
z
" transform="scale(0.015625)"/>
      <path id="DejaVuSans-4d" d="M 628 4666 
L 1569 4666 
L 2759 1491 
L 3956 4666 
L 4897 4666 
L 4897 0 
L 4281 0 
L 4281 4097 
L 3078 897 
L 2444 897 
L 1241 4097 
L 1241 0 
L 628 0 
L 628 4666 
z
" transform="scale(0.015625)"/>
      <path id="DejaVuSans-6e" d="M 3513 2113 
L 3513 0 
L 2938 0 
L 2938 2094 
Q 2938 2591 2744 2837 
Q 2550 3084 2163 3084 
Q 1697 3084 1428 2787 
Q 1159 2491 1159 1978 
L 1159 0 
L 581 0 
L 581 3500 
L 1159 3500 
L 1159 2956 
Q 1366 3272 1645 3428 
Q 1925 3584 2291 3584 
Q 2894 3584 3203 3211 
Q 3513 2838 3513 2113 
z
" transform="scale(0.015625)"/>
      <path id="DejaVuSans-3d" d="M 678 2906 
L 4684 2906 
L 4684 2381 
L 678 2381 
L 678 2906 
z
M 678 1631 
L 4684 1631 
L 4684 1100 
L 678 1100 
L 678 1631 
z
" transform="scale(0.015625)"/>
      <path id="DejaVuSans-39" d="M 703 97 
L 703 672 
Q 941 559 1184 500 
Q 1428 441 1663 441 
Q 2288 441 2617 861 
Q 2947 1281 2994 2138 
Q 2813 1869 2534 1725 
Q 2256 1581 1919 1581 
Q 1219 1581 811 2004 
Q 403 2428 403 3163 
Q 403 3881 828 4315 
Q 1253 4750 1959 4750 
Q 2769 4750 3195 4129 
Q 3622 3509 3622 2328 
Q 3622 1225 3098 567 
Q 2575 -91 1691 -91 
Q 1453 -91 1209 -44 
Q 966 3 703 97 
z
M 1959 2075 
Q 2384 2075 2632 2365 
Q 2881 2656 2881 3163 
Q 2881 3666 2632 3958 
Q 2384 4250 1959 4250 
Q 1534 4250 1286 3958 
Q 1038 3666 1038 3163 
Q 1038 2656 1286 2365 
Q 1534 2075 1959 2075 
z
" transform="scale(0.015625)"/>
     </defs>
     <use xlink:href="#DejaVuSans-50"/>
     <use xlink:href="#DejaVuSans-72" x="58.552734"/>
     <use xlink:href="#DejaVuSans-69" x="99.666016"/>
     <use xlink:href="#DejaVuSans-63" x="127.449219"/>
     <use xlink:href="#DejaVuSans-65" x="182.429688"/>
     <use xlink:href="#DejaVuSans-20" x="243.953125"/>
     <use xlink:href="#DejaVuSans-62" x="275.740234"/>
     <use xlink:href="#DejaVuSans-79" x="339.216797"/>
     <use xlink:href="#DejaVuSans-20" x="398.396484"/>
     <use xlink:href="#DejaVuSans-56" x="430.183594"/>
     <use xlink:href="#DejaVuSans-6f" x="490.841797"/>
     <use xlink:href="#DejaVuSans-6c" x="552.023438"/>
     <use xlink:href="#DejaVuSans-61" x="579.806641"/>
     <use xlink:href="#DejaVuSans-74" x="641.085938"/>
     <use xlink:href="#DejaVuSans-69" x="680.294922"/>
     <use xlink:href="#DejaVuSans-6c" x="708.078125"/>
     <use xlink:href="#DejaVuSans-69" x="735.861328"/>
     <use xlink:href="#DejaVuSans-74" x="763.644531"/>
     <use xlink:href="#DejaVuSans-79" x="802.853516"/>
     <use xlink:href="#DejaVuSans-2e" x="847.783203"/>
     <use xlink:href="#DejaVuSans-20" x="879.570312"/>
     <use xlink:href="#DejaVuSans-4d" x="911.357422"/>
     <use xlink:href="#DejaVuSans-6f" x="997.636719"/>
     <use xlink:href="#DejaVuSans-6e" x="1058.818359"/>
     <use xlink:href="#DejaVuSans-65" x="1122.197266"/>
     <use xlink:href="#DejaVuSans-79" x="1183.720703"/>
     <use xlink:href="#DejaVuSans-6e" x="1242.900391"/>
     <use xlink:href="#DejaVuSans-65" x="1306.279297"/>
     <use xlink:href="#DejaVuSans-73" x="1367.802734"/>
     <use xlink:href="#DejaVuSans-73" x="1419.902344"/>
     <use xlink:href="#DejaVuSans-3d" x="1472.001953"/>
     <use xlink:href="#DejaVuSans-30" x="1555.791016"/>
     <use xlink:href="#DejaVuSans-2e" x="1619.414062"/>
     <use xlink:href="#DejaVuSans-39" x="1651.201172"/>
    </g>
   </g>
   <g id="legend_1">
    <g id="patch_7">
     <path d="M 120.6 136.36125 
L 287.018437 136.36125 
Q 290.618437 136.36125 290.618437 132.76125 
L 290.618437 81.72 
Q 290.618437 78.12 287.018437 78.12 
L 120.6 78.12 
Q 117 78.12 117 81.72 
L 117 132.76125 
Q 117 136.36125 120.6 136.36125 
z
" style="fill: #ffffff; opacity: 0.8; stroke: #cccccc; stroke-linejoin: miter"/>
    </g>
    <g id="line2d_27">
     <path d="M 124.2 92.697188 
L 142.2 92.697188 
L 160.2 92.697188 
" style="fill: none; stroke: #1f77b4; stroke-width: 2; stroke-linecap: square"/>
    </g>
    <g id="text_16">
     <!-- Monte Carlo -->
     <g transform="translate(174.6 98.997188) scale(0.18 -0.18)">
      <defs>
       <path id="DejaVuSans-43" d="M 4122 4306 
L 4122 3641 
Q 3803 3938 3442 4084 
Q 3081 4231 2675 4231 
Q 1875 4231 1450 3742 
Q 1025 3253 1025 2328 
Q 1025 1406 1450 917 
Q 1875 428 2675 428 
Q 3081 428 3442 575 
Q 3803 722 4122 1019 
L 4122 359 
Q 3791 134 3420 21 
Q 3050 -91 2638 -91 
Q 1578 -91 968 557 
Q 359 1206 359 2328 
Q 359 3453 968 4101 
Q 1578 4750 2638 4750 
Q 3056 4750 3426 4639 
Q 3797 4528 4122 4306 
z
" transform="scale(0.015625)"/>
      </defs>
      <use xlink:href="#DejaVuSans-4d"/>
      <use xlink:href="#DejaVuSans-6f" x="86.279297"/>
      <use xlink:href="#DejaVuSans-6e" x="147.460938"/>
      <use xlink:href="#DejaVuSans-74" x="210.839844"/>
      <use xlink:href="#DejaVuSans-65" x="250.048828"/>
      <use xlink:href="#DejaVuSans-20" x="311.572266"/>
      <use xlink:href="#DejaVuSans-43" x="343.359375"/>
      <use xlink:href="#DejaVuSans-61" x="413.183594"/>
      <use xlink:href="#DejaVuSans-72" x="474.462891"/>
      <use xlink:href="#DejaVuSans-6c" x="515.576172"/>
      <use xlink:href="#DejaVuSans-6f" x="543.359375"/>
     </g>
    </g>
    <g id="line2d_28">
     <path d="M 124.2 119.117813 
L 142.2 119.117813 
L 160.2 119.117813 
" style="fill: none; stroke: #ff7f0e; stroke-width: 2; stroke-linecap: square"/>
    </g>
    <g id="text_17">
     <!-- Positive net -->
     <g transform="translate(174.6 125.417813) scale(0.18 -0.18)">
      <defs>
       <path id="DejaVuSans-76" d="M 191 3500 
L 800 3500 
L 1894 563 
L 2988 3500 
L 3597 3500 
L 2284 0 
L 1503 0 
L 191 3500 
z
" transform="scale(0.015625)"/>
      </defs>
      <use xlink:href="#DejaVuSans-50"/>
      <use xlink:href="#DejaVuSans-6f" x="56.677734"/>
      <use xlink:href="#DejaVuSans-73" x="117.859375"/>
      <use xlink:href="#DejaVuSans-69" x="169.958984"/>
      <use xlink:href="#DejaVuSans-74" x="197.742188"/>
      <use xlink:href="#DejaVuSans-69" x="236.951172"/>
      <use xlink:href="#DejaVuSans-76" x="264.734375"/>
      <use xlink:href="#DejaVuSans-65" x="323.914062"/>
      <use xlink:href="#DejaVuSans-20" x="385.4375"/>
      <use xlink:href="#DejaVuSans-6e" x="417.224609"/>
      <use xlink:href="#DejaVuSans-65" x="480.603516"/>
      <use xlink:href="#DejaVuSans-74" x="542.126953"/>
     </g>
    </g>
   </g>
  </g>
 </g>
 <defs>
  <clipPath id="pcba8ebbeae">
   <rect x="108" y="69.12" width="669.6" height="443.52"/>
  </clipPath>
 </defs>
</svg>
