<?xml version="1.0" encoding="utf-8" standalone="no"?>
<!DOCTYPE svg PUBLIC "-//W3C//DTD SVG 1.1//EN"
  "http://www.w3.org/Graphics/SVG/1.1/DTD/svg11.dtd">
<svg xmlns:xlink="http://www.w3.org/1999/xlink" width="864pt" height="576pt" viewBox="0 0 864 576" xmlns="http://www.w3.org/2000/svg" version="1.1">
 <metadata>
  <rdf:RDF xmlns:dc="http://purl.org/dc/elements/1.1/" xmlns:cc="http://creativecommons.org/ns#" xmlns:rdf="http://www.w3.org/1999/02/22-rdf-syntax-ns#">
   <cc:Work>
    <dc:type rdf:resource="http://purl.org/dc/dcmitype/StillImage"/>
    <dc:date>2024-03-10T14:06:28.540025</dc:date>
    <dc:format>image/svg+xml</dc:format>
    <dc:creator>
     <cc:Agent>
      <dc:title>Matplotlib v3.7.3, https://matplotlib.org/</dc:title>
     </cc:Agent>
    </dc:creator>
   </cc:Work>
  </rdf:RDF>
 </metadata>
 <defs>
  <style type="text/css">*{stroke-linejoin: round; stroke-linecap: butt}</style>
 </defs>
 <g id="figure_1">
  <g id="patch_1">
   <path d="M 0 576 
L 864 576 
L 864 0 
L 0 0 
z
" style="fill: #ffffff"/>
  </g>
  <g id="axes_1">
   <g id="patch_2">
    <path d="M 108 512.64 
L 777.6 512.64 
L 777.6 69.12 
L 108 69.12 
z
" style="fill: #ffffff"/>
   </g>
   <g id="matplotlib.axis_1">
    <g id="xtick_1">
     <g id="line2d_1">
      <path d="M 138.334854 512.64 
L 138.334854 69.12 
" clip-path="url(#p36e8fb325f)" style="fill: none; stroke: #b0b0b0; stroke-width: 0.8; stroke-linecap: square"/>
     </g>
     <g id="line2d_2">
      <defs>
       <path id="m44a8efc7f0" d="M 0 0 
L 0 3.5 
" style="stroke: #000000; stroke-width: 0.8"/>
      </defs>
      <g>
       <use xlink:href="#m44a8efc7f0" x="138.334854" y="512.64" style="stroke: #000000; stroke-width: 0.8"/>
      </g>
     </g>
     <g id="text_1">
      <!-- 0.7 -->
      <g transform="translate(130.383291 527.238438) scale(0.1 -0.1)">
       <defs>
        <path id="DejaVuSans-30" d="M 2034 4250 
Q 1547 4250 1301 3770 
Q 1056 3291 1056 2328 
Q 1056 1369 1301 889 
Q 1547 409 2034 409 
Q 2525 409 2770 889 
Q 3016 1369 3016 2328 
Q 3016 3291 2770 3770 
Q 2525 4250 2034 4250 
z
M 2034 4750 
Q 2819 4750 3233 4129 
Q 3647 3509 3647 2328 
Q 3647 1150 3233 529 
Q 2819 -91 2034 -91 
Q 1250 -91 836 529 
Q 422 1150 422 2328 
Q 422 3509 836 4129 
Q 1250 4750 2034 4750 
z
" transform="scale(0.015625)"/>
        <path id="DejaVuSans-2e" d="M 684 794 
L 1344 794 
L 1344 0 
L 684 0 
L 684 794 
z
" transform="scale(0.015625)"/>
        <path id="DejaVuSans-37" d="M 525 4666 
L 3525 4666 
L 3525 4397 
L 1831 0 
L 1172 0 
L 2766 4134 
L 525 4134 
L 525 4666 
z
" transform="scale(0.015625)"/>
       </defs>
       <use xlink:href="#DejaVuSans-30"/>
       <use xlink:href="#DejaVuSans-2e" x="63.623047"/>
       <use xlink:href="#DejaVuSans-37" x="95.410156"/>
      </g>
     </g>
    </g>
    <g id="xtick_2">
     <g id="line2d_3">
      <path d="M 239.840146 512.64 
L 239.840146 69.12 
" clip-path="url(#p36e8fb325f)" style="fill: none; stroke: #b0b0b0; stroke-width: 0.8; stroke-linecap: square"/>
     </g>
     <g id="line2d_4">
      <g>
       <use xlink:href="#m44a8efc7f0" x="239.840146" y="512.64" style="stroke: #000000; stroke-width: 0.8"/>
      </g>
     </g>
     <g id="text_2">
      <!-- 0.8 -->
      <g transform="translate(231.888584 527.238438) scale(0.1 -0.1)">
       <defs>
        <path id="DejaVuSans-38" d="M 2034 2216 
Q 1584 2216 1326 1975 
Q 1069 1734 1069 1313 
Q 1069 891 1326 650 
Q 1584 409 2034 409 
Q 2484 409 2743 651 
Q 3003 894 3003 1313 
Q 3003 1734 2745 1975 
Q 2488 2216 2034 2216 
z
M 1403 2484 
Q 997 2584 770 2862 
Q 544 3141 544 3541 
Q 544 4100 942 4425 
Q 1341 4750 2034 4750 
Q 2731 4750 3128 4425 
Q 3525 4100 3525 3541 
Q 3525 3141 3298 2862 
Q 3072 2584 2669 2484 
Q 3125 2378 3379 2068 
Q 3634 1759 3634 1313 
Q 3634 634 3220 271 
Q 2806 -91 2034 -91 
Q 1263 -91 848 271 
Q 434 634 434 1313 
Q 434 1759 690 2068 
Q 947 2378 1403 2484 
z
M 1172 3481 
Q 1172 3119 1398 2916 
Q 1625 2713 2034 2713 
Q 2441 2713 2670 2916 
Q 2900 3119 2900 3481 
Q 2900 3844 2670 4047 
Q 2441 4250 2034 4250 
Q 1625 4250 1398 4047 
Q 1172 3844 1172 3481 
z
" transform="scale(0.015625)"/>
       </defs>
       <use xlink:href="#DejaVuSans-30"/>
       <use xlink:href="#DejaVuSans-2e" x="63.623047"/>
       <use xlink:href="#DejaVuSans-38" x="95.410156"/>
      </g>
     </g>
    </g>
    <g id="xtick_3">
     <g id="line2d_5">
      <path d="M 341.345438 512.64 
L 341.345438 69.12 
" clip-path="url(#p36e8fb325f)" style="fill: none; stroke: #b0b0b0; stroke-width: 0.8; stroke-linecap: square"/>
     </g>
     <g id="line2d_6">
      <g>
       <use xlink:href="#m44a8efc7f0" x="341.345438" y="512.64" style="stroke: #000000; stroke-width: 0.8"/>
      </g>
     </g>
     <g id="text_3">
      <!-- 0.9 -->
      <g transform="translate(333.393876 527.238438) scale(0.1 -0.1)">
       <defs>
        <path id="DejaVuSans-39" d="M 703 97 
L 703 672 
Q 941 559 1184 500 
Q 1428 441 1663 441 
Q 2288 441 2617 861 
Q 2947 1281 2994 2138 
Q 2813 1869 2534 1725 
Q 2256 1581 1919 1581 
Q 1219 1581 811 2004 
Q 403 2428 403 3163 
Q 403 3881 828 4315 
Q 1253 4750 1959 4750 
Q 2769 4750 3195 4129 
Q 3622 3509 3622 2328 
Q 3622 1225 3098 567 
Q 2575 -91 1691 -91 
Q 1453 -91 1209 -44 
Q 966 3 703 97 
z
M 1959 2075 
Q 2384 2075 2632 2365 
Q 2881 2656 2881 3163 
Q 2881 3666 2632 3958 
Q 2384 4250 1959 4250 
Q 1534 4250 1286 3958 
Q 1038 3666 1038 3163 
Q 1038 2656 1286 2365 
Q 1534 2075 1959 2075 
z
" transform="scale(0.015625)"/>
       </defs>
       <use xlink:href="#DejaVuSans-30"/>
       <use xlink:href="#DejaVuSans-2e" x="63.623047"/>
       <use xlink:href="#DejaVuSans-39" x="95.410156"/>
      </g>
     </g>
    </g>
    <g id="xtick_4">
     <g id="line2d_7">
      <path d="M 442.850731 512.64 
L 442.850731 69.12 
" clip-path="url(#p36e8fb325f)" style="fill: none; stroke: #b0b0b0; stroke-width: 0.8; stroke-linecap: square"/>
     </g>
     <g id="line2d_8">
      <g>
       <use xlink:href="#m44a8efc7f0" x="442.850731" y="512.64" style="stroke: #000000; stroke-width: 0.8"/>
      </g>
     </g>
     <g id="text_4">
      <!-- 1.0 -->
      <g transform="translate(434.899168 527.238438) scale(0.1 -0.1)">
       <defs>
        <path id="DejaVuSans-31" d="M 794 531 
L 1825 531 
L 1825 4091 
L 703 3866 
L 703 4441 
L 1819 4666 
L 2450 4666 
L 2450 531 
L 3481 531 
L 3481 0 
L 794 0 
L 794 531 
z
" transform="scale(0.015625)"/>
       </defs>
       <use xlink:href="#DejaVuSans-31"/>
       <use xlink:href="#DejaVuSans-2e" x="63.623047"/>
       <use xlink:href="#DejaVuSans-30" x="95.410156"/>
      </g>
     </g>
    </g>
    <g id="xtick_5">
     <g id="line2d_9">
      <path d="M 544.356023 512.64 
L 544.356023 69.12 
" clip-path="url(#p36e8fb325f)" style="fill: none; stroke: #b0b0b0; stroke-width: 0.8; stroke-linecap: square"/>
     </g>
     <g id="line2d_10">
      <g>
       <use xlink:href="#m44a8efc7f0" x="544.356023" y="512.64" style="stroke: #000000; stroke-width: 0.8"/>
      </g>
     </g>
     <g id="text_5">
      <!-- 1.1 -->
      <g transform="translate(536.404461 527.238438) scale(0.1 -0.1)">
       <use xlink:href="#DejaVuSans-31"/>
       <use xlink:href="#DejaVuSans-2e" x="63.623047"/>
       <use xlink:href="#DejaVuSans-31" x="95.410156"/>
      </g>
     </g>
    </g>
    <g id="xtick_6">
     <g id="line2d_11">
      <path d="M 645.861316 512.64 
L 645.861316 69.12 
" clip-path="url(#p36e8fb325f)" style="fill: none; stroke: #b0b0b0; stroke-width: 0.8; stroke-linecap: square"/>
     </g>
     <g id="line2d_12">
      <g>
       <use xlink:href="#m44a8efc7f0" x="645.861316" y="512.64" style="stroke: #000000; stroke-width: 0.8"/>
      </g>
     </g>
     <g id="text_6">
      <!-- 1.2 -->
      <g transform="translate(637.909753 527.238438) scale(0.1 -0.1)">
       <defs>
        <path id="DejaVuSans-32" d="M 1228 531 
L 3431 531 
L 3431 0 
L 469 0 
L 469 531 
Q 828 903 1448 1529 
Q 2069 2156 2228 2338 
Q 2531 2678 2651 2914 
Q 2772 3150 2772 3378 
Q 2772 3750 2511 3984 
Q 2250 4219 1831 4219 
Q 1534 4219 1204 4116 
Q 875 4013 500 3803 
L 500 4441 
Q 881 4594 1212 4672 
Q 1544 4750 1819 4750 
Q 2544 4750 2975 4387 
Q 3406 4025 3406 3419 
Q 3406 3131 3298 2873 
Q 3191 2616 2906 2266 
Q 2828 2175 2409 1742 
Q 1991 1309 1228 531 
z
" transform="scale(0.015625)"/>
       </defs>
       <use xlink:href="#DejaVuSans-31"/>
       <use xlink:href="#DejaVuSans-2e" x="63.623047"/>
       <use xlink:href="#DejaVuSans-32" x="95.410156"/>
      </g>
     </g>
    </g>
    <g id="xtick_7">
     <g id="line2d_13">
      <path d="M 747.366608 512.64 
L 747.366608 69.12 
" clip-path="url(#p36e8fb325f)" style="fill: none; stroke: #b0b0b0; stroke-width: 0.8; stroke-linecap: square"/>
     </g>
     <g id="line2d_14">
      <g>
       <use xlink:href="#m44a8efc7f0" x="747.366608" y="512.64" style="stroke: #000000; stroke-width: 0.8"/>
      </g>
     </g>
     <g id="text_7">
      <!-- 1.3 -->
      <g transform="translate(739.415046 527.238438) scale(0.1 -0.1)">
       <defs>
        <path id="DejaVuSans-33" d="M 2597 2516 
Q 3050 2419 3304 2112 
Q 3559 1806 3559 1356 
Q 3559 666 3084 287 
Q 2609 -91 1734 -91 
Q 1441 -91 1130 -33 
Q 819 25 488 141 
L 488 750 
Q 750 597 1062 519 
Q 1375 441 1716 441 
Q 2309 441 2620 675 
Q 2931 909 2931 1356 
Q 2931 1769 2642 2001 
Q 2353 2234 1838 2234 
L 1294 2234 
L 1294 2753 
L 1863 2753 
Q 2328 2753 2575 2939 
Q 2822 3125 2822 3475 
Q 2822 3834 2567 4026 
Q 2313 4219 1838 4219 
Q 1578 4219 1281 4162 
Q 984 4106 628 3988 
L 628 4550 
Q 988 4650 1302 4700 
Q 1616 4750 1894 4750 
Q 2613 4750 3031 4423 
Q 3450 4097 3450 3541 
Q 3450 3153 3228 2886 
Q 3006 2619 2597 2516 
z
" transform="scale(0.015625)"/>
       </defs>
       <use xlink:href="#DejaVuSans-31"/>
       <use xlink:href="#DejaVuSans-2e" x="63.623047"/>
       <use xlink:href="#DejaVuSans-33" x="95.410156"/>
      </g>
     </g>
    </g>
    <g id="text_8">
     <!-- Spot/Strike ratio -->
     <g transform="translate(369.829688 546.995312) scale(0.18 -0.18)">
      <defs>
       <path id="DejaVuSans-53" d="M 3425 4513 
L 3425 3897 
Q 3066 4069 2747 4153 
Q 2428 4238 2131 4238 
Q 1616 4238 1336 4038 
Q 1056 3838 1056 3469 
Q 1056 3159 1242 3001 
Q 1428 2844 1947 2747 
L 2328 2669 
Q 3034 2534 3370 2195 
Q 3706 1856 3706 1288 
Q 3706 609 3251 259 
Q 2797 -91 1919 -91 
Q 1588 -91 1214 -16 
Q 841 59 441 206 
L 441 856 
Q 825 641 1194 531 
Q 1563 422 1919 422 
Q 2459 422 2753 634 
Q 3047 847 3047 1241 
Q 3047 1584 2836 1778 
Q 2625 1972 2144 2069 
L 1759 2144 
Q 1053 2284 737 2584 
Q 422 2884 422 3419 
Q 422 4038 858 4394 
Q 1294 4750 2059 4750 
Q 2388 4750 2728 4690 
Q 3069 4631 3425 4513 
z
" transform="scale(0.015625)"/>
       <path id="DejaVuSans-70" d="M 1159 525 
L 1159 -1331 
L 581 -1331 
L 581 3500 
L 1159 3500 
L 1159 2969 
Q 1341 3281 1617 3432 
Q 1894 3584 2278 3584 
Q 2916 3584 3314 3078 
Q 3713 2572 3713 1747 
Q 3713 922 3314 415 
Q 2916 -91 2278 -91 
Q 1894 -91 1617 61 
Q 1341 213 1159 525 
z
M 3116 1747 
Q 3116 2381 2855 2742 
Q 2594 3103 2138 3103 
Q 1681 3103 1420 2742 
Q 1159 2381 1159 1747 
Q 1159 1113 1420 752 
Q 1681 391 2138 391 
Q 2594 391 2855 752 
Q 3116 1113 3116 1747 
z
" transform="scale(0.015625)"/>
       <path id="DejaVuSans-6f" d="M 1959 3097 
Q 1497 3097 1228 2736 
Q 959 2375 959 1747 
Q 959 1119 1226 758 
Q 1494 397 1959 397 
Q 2419 397 2687 759 
Q 2956 1122 2956 1747 
Q 2956 2369 2687 2733 
Q 2419 3097 1959 3097 
z
M 1959 3584 
Q 2709 3584 3137 3096 
Q 3566 2609 3566 1747 
Q 3566 888 3137 398 
Q 2709 -91 1959 -91 
Q 1206 -91 779 398 
Q 353 888 353 1747 
Q 353 2609 779 3096 
Q 1206 3584 1959 3584 
z
" transform="scale(0.015625)"/>
       <path id="DejaVuSans-74" d="M 1172 4494 
L 1172 3500 
L 2356 3500 
L 2356 3053 
L 1172 3053 
L 1172 1153 
Q 1172 725 1289 603 
Q 1406 481 1766 481 
L 2356 481 
L 2356 0 
L 1766 0 
Q 1100 0 847 248 
Q 594 497 594 1153 
L 594 3053 
L 172 3053 
L 172 3500 
L 594 3500 
L 594 4494 
L 1172 4494 
z
" transform="scale(0.015625)"/>
       <path id="DejaVuSans-2f" d="M 1625 4666 
L 2156 4666 
L 531 -594 
L 0 -594 
L 1625 4666 
z
" transform="scale(0.015625)"/>
       <path id="DejaVuSans-72" d="M 2631 2963 
Q 2534 3019 2420 3045 
Q 2306 3072 2169 3072 
Q 1681 3072 1420 2755 
Q 1159 2438 1159 1844 
L 1159 0 
L 581 0 
L 581 3500 
L 1159 3500 
L 1159 2956 
Q 1341 3275 1631 3429 
Q 1922 3584 2338 3584 
Q 2397 3584 2469 3576 
Q 2541 3569 2628 3553 
L 2631 2963 
z
" transform="scale(0.015625)"/>
       <path id="DejaVuSans-69" d="M 603 3500 
L 1178 3500 
L 1178 0 
L 603 0 
L 603 3500 
z
M 603 4863 
L 1178 4863 
L 1178 4134 
L 603 4134 
L 603 4863 
z
" transform="scale(0.015625)"/>
       <path id="DejaVuSans-6b" d="M 581 4863 
L 1159 4863 
L 1159 1991 
L 2875 3500 
L 3609 3500 
L 1753 1863 
L 3688 0 
L 2938 0 
L 1159 1709 
L 1159 0 
L 581 0 
L 581 4863 
z
" transform="scale(0.015625)"/>
       <path id="DejaVuSans-65" d="M 3597 1894 
L 3597 1613 
L 953 1613 
Q 991 1019 1311 708 
Q 1631 397 2203 397 
Q 2534 397 2845 478 
Q 3156 559 3463 722 
L 3463 178 
Q 3153 47 2828 -22 
Q 2503 -91 2169 -91 
Q 1331 -91 842 396 
Q 353 884 353 1716 
Q 353 2575 817 3079 
Q 1281 3584 2069 3584 
Q 2775 3584 3186 3129 
Q 3597 2675 3597 1894 
z
M 3022 2063 
Q 3016 2534 2758 2815 
Q 2500 3097 2075 3097 
Q 1594 3097 1305 2825 
Q 1016 2553 972 2059 
L 3022 2063 
z
" transform="scale(0.015625)"/>
       <path id="DejaVuSans-20" transform="scale(0.015625)"/>
       <path id="DejaVuSans-61" d="M 2194 1759 
Q 1497 1759 1228 1600 
Q 959 1441 959 1056 
Q 959 750 1161 570 
Q 1363 391 1709 391 
Q 2188 391 2477 730 
Q 2766 1069 2766 1631 
L 2766 1759 
L 2194 1759 
z
M 3341 1997 
L 3341 0 
L 2766 0 
L 2766 531 
Q 2569 213 2275 61 
Q 1981 -91 1556 -91 
Q 1019 -91 701 211 
Q 384 513 384 1019 
Q 384 1609 779 1909 
Q 1175 2209 1959 2209 
L 2766 2209 
L 2766 2266 
Q 2766 2663 2505 2880 
Q 2244 3097 1772 3097 
Q 1472 3097 1187 3025 
Q 903 2953 641 2809 
L 641 3341 
Q 956 3463 1253 3523 
Q 1550 3584 1831 3584 
Q 2591 3584 2966 3190 
Q 3341 2797 3341 1997 
z
" transform="scale(0.015625)"/>
      </defs>
      <use xlink:href="#DejaVuSans-53"/>
      <use xlink:href="#DejaVuSans-70" x="63.476562"/>
      <use xlink:href="#DejaVuSans-6f" x="126.953125"/>
      <use xlink:href="#DejaVuSans-74" x="188.134766"/>
      <use xlink:href="#DejaVuSans-2f" x="227.34375"/>
      <use xlink:href="#DejaVuSans-53" x="261.035156"/>
      <use xlink:href="#DejaVuSans-74" x="324.511719"/>
      <use xlink:href="#DejaVuSans-72" x="363.720703"/>
      <use xlink:href="#DejaVuSans-69" x="404.833984"/>
      <use xlink:href="#DejaVuSans-6b" x="432.617188"/>
      <use xlink:href="#DejaVuSans-65" x="486.902344"/>
      <use xlink:href="#DejaVuSans-20" x="548.425781"/>
      <use xlink:href="#DejaVuSans-72" x="580.212891"/>
      <use xlink:href="#DejaVuSans-61" x="621.326172"/>
      <use xlink:href="#DejaVuSans-74" x="682.605469"/>
      <use xlink:href="#DejaVuSans-69" x="721.814453"/>
      <use xlink:href="#DejaVuSans-6f" x="749.597656"/>
     </g>
    </g>
   </g>
   <g id="matplotlib.axis_2">
    <g id="ytick_1">
     <g id="line2d_15">
      <path d="M 108 492.512008 
L 777.6 492.512008 
" clip-path="url(#p36e8fb325f)" style="fill: none; stroke: #b0b0b0; stroke-width: 0.8; stroke-linecap: square"/>
     </g>
     <g id="line2d_16">
      <defs>
       <path id="md5676af660" d="M 0 0 
L -3.5 0 
" style="stroke: #000000; stroke-width: 0.8"/>
      </defs>
      <g>
       <use xlink:href="#md5676af660" x="108" y="492.512008" style="stroke: #000000; stroke-width: 0.8"/>
      </g>
     </g>
     <g id="text_9">
      <!-- 0.000 -->
      <g transform="translate(72.371875 496.311227) scale(0.1 -0.1)">
       <use xlink:href="#DejaVuSans-30"/>
       <use xlink:href="#DejaVuSans-2e" x="63.623047"/>
       <use xlink:href="#DejaVuSans-30" x="95.410156"/>
       <use xlink:href="#DejaVuSans-30" x="159.033203"/>
       <use xlink:href="#DejaVuSans-30" x="222.65625"/>
      </g>
     </g>
    </g>
    <g id="ytick_2">
     <g id="line2d_17">
      <path d="M 108 427.075156 
L 777.6 427.075156 
" clip-path="url(#p36e8fb325f)" style="fill: none; stroke: #b0b0b0; stroke-width: 0.8; stroke-linecap: square"/>
     </g>
     <g id="line2d_18">
      <g>
       <use xlink:href="#md5676af660" x="108" y="427.075156" style="stroke: #000000; stroke-width: 0.8"/>
      </g>
     </g>
     <g id="text_10">
      <!-- 0.005 -->
      <g transform="translate(72.371875 430.874374) scale(0.1 -0.1)">
       <defs>
        <path id="DejaVuSans-35" d="M 691 4666 
L 3169 4666 
L 3169 4134 
L 1269 4134 
L 1269 2991 
Q 1406 3038 1543 3061 
Q 1681 3084 1819 3084 
Q 2600 3084 3056 2656 
Q 3513 2228 3513 1497 
Q 3513 744 3044 326 
Q 2575 -91 1722 -91 
Q 1428 -91 1123 -41 
Q 819 9 494 109 
L 494 744 
Q 775 591 1075 516 
Q 1375 441 1709 441 
Q 2250 441 2565 725 
Q 2881 1009 2881 1497 
Q 2881 1984 2565 2268 
Q 2250 2553 1709 2553 
Q 1456 2553 1204 2497 
Q 953 2441 691 2322 
L 691 4666 
z
" transform="scale(0.015625)"/>
       </defs>
       <use xlink:href="#DejaVuSans-30"/>
       <use xlink:href="#DejaVuSans-2e" x="63.623047"/>
       <use xlink:href="#DejaVuSans-30" x="95.410156"/>
       <use xlink:href="#DejaVuSans-30" x="159.033203"/>
       <use xlink:href="#DejaVuSans-35" x="222.65625"/>
      </g>
     </g>
    </g>
    <g id="ytick_3">
     <g id="line2d_19">
      <path d="M 108 361.638303 
L 777.6 361.638303 
" clip-path="url(#p36e8fb325f)" style="fill: none; stroke: #b0b0b0; stroke-width: 0.8; stroke-linecap: square"/>
     </g>
     <g id="line2d_20">
      <g>
       <use xlink:href="#md5676af660" x="108" y="361.638303" style="stroke: #000000; stroke-width: 0.8"/>
      </g>
     </g>
     <g id="text_11">
      <!-- 0.010 -->
      <g transform="translate(72.371875 365.437522) scale(0.1 -0.1)">
       <use xlink:href="#DejaVuSans-30"/>
       <use xlink:href="#DejaVuSans-2e" x="63.623047"/>
       <use xlink:href="#DejaVuSans-30" x="95.410156"/>
       <use xlink:href="#DejaVuSans-31" x="159.033203"/>
       <use xlink:href="#DejaVuSans-30" x="222.65625"/>
      </g>
     </g>
    </g>
    <g id="ytick_4">
     <g id="line2d_21">
      <path d="M 108 296.20145 
L 777.6 296.20145 
" clip-path="url(#p36e8fb325f)" style="fill: none; stroke: #b0b0b0; stroke-width: 0.8; stroke-linecap: square"/>
     </g>
     <g id="line2d_22">
      <g>
       <use xlink:href="#md5676af660" x="108" y="296.20145" style="stroke: #000000; stroke-width: 0.8"/>
      </g>
     </g>
     <g id="text_12">
      <!-- 0.015 -->
      <g transform="translate(72.371875 300.000669) scale(0.1 -0.1)">
       <use xlink:href="#DejaVuSans-30"/>
       <use xlink:href="#DejaVuSans-2e" x="63.623047"/>
       <use xlink:href="#DejaVuSans-30" x="95.410156"/>
       <use xlink:href="#DejaVuSans-31" x="159.033203"/>
       <use xlink:href="#DejaVuSans-35" x="222.65625"/>
      </g>
     </g>
    </g>
    <g id="ytick_5">
     <g id="line2d_23">
      <path d="M 108 230.764597 
L 777.6 230.764597 
" clip-path="url(#p36e8fb325f)" style="fill: none; stroke: #b0b0b0; stroke-width: 0.8; stroke-linecap: square"/>
     </g>
     <g id="line2d_24">
      <g>
       <use xlink:href="#md5676af660" x="108" y="230.764597" style="stroke: #000000; stroke-width: 0.8"/>
      </g>
     </g>
     <g id="text_13">
      <!-- 0.020 -->
      <g transform="translate(72.371875 234.563816) scale(0.1 -0.1)">
       <use xlink:href="#DejaVuSans-30"/>
       <use xlink:href="#DejaVuSans-2e" x="63.623047"/>
       <use xlink:href="#DejaVuSans-30" x="95.410156"/>
       <use xlink:href="#DejaVuSans-32" x="159.033203"/>
       <use xlink:href="#DejaVuSans-30" x="222.65625"/>
      </g>
     </g>
    </g>
    <g id="ytick_6">
     <g id="line2d_25">
      <path d="M 108 165.327744 
L 777.6 165.327744 
" clip-path="url(#p36e8fb325f)" style="fill: none; stroke: #b0b0b0; stroke-width: 0.8; stroke-linecap: square"/>
     </g>
     <g id="line2d_26">
      <g>
       <use xlink:href="#md5676af660" x="108" y="165.327744" style="stroke: #000000; stroke-width: 0.8"/>
      </g>
     </g>
     <g id="text_14">
      <!-- 0.025 -->
      <g transform="translate(72.371875 169.126963) scale(0.1 -0.1)">
       <use xlink:href="#DejaVuSans-30"/>
       <use xlink:href="#DejaVuSans-2e" x="63.623047"/>
       <use xlink:href="#DejaVuSans-30" x="95.410156"/>
       <use xlink:href="#DejaVuSans-32" x="159.033203"/>
       <use xlink:href="#DejaVuSans-35" x="222.65625"/>
      </g>
     </g>
    </g>
    <g id="ytick_7">
     <g id="line2d_27">
      <path d="M 108 99.890892 
L 777.6 99.890892 
" clip-path="url(#p36e8fb325f)" style="fill: none; stroke: #b0b0b0; stroke-width: 0.8; stroke-linecap: square"/>
     </g>
     <g id="line2d_28">
      <g>
       <use xlink:href="#md5676af660" x="108" y="99.890892" style="stroke: #000000; stroke-width: 0.8"/>
      </g>
     </g>
     <g id="text_15">
      <!-- 0.030 -->
      <g transform="translate(72.371875 103.69011) scale(0.1 -0.1)">
       <use xlink:href="#DejaVuSans-30"/>
       <use xlink:href="#DejaVuSans-2e" x="63.623047"/>
       <use xlink:href="#DejaVuSans-30" x="95.410156"/>
       <use xlink:href="#DejaVuSans-33" x="159.033203"/>
       <use xlink:href="#DejaVuSans-30" x="222.65625"/>
      </g>
     </g>
    </g>
    <g id="text_16">
     <!-- Price/strike ratio -->
     <g transform="translate(64.628438 364.318594) rotate(-90) scale(0.18 -0.18)">
      <defs>
       <path id="DejaVuSans-50" d="M 1259 4147 
L 1259 2394 
L 2053 2394 
Q 2494 2394 2734 2622 
Q 2975 2850 2975 3272 
Q 2975 3691 2734 3919 
Q 2494 4147 2053 4147 
L 1259 4147 
z
M 628 4666 
L 2053 4666 
Q 2838 4666 3239 4311 
Q 3641 3956 3641 3272 
Q 3641 2581 3239 2228 
Q 2838 1875 2053 1875 
L 1259 1875 
L 1259 0 
L 628 0 
L 628 4666 
z
" transform="scale(0.015625)"/>
       <path id="DejaVuSans-63" d="M 3122 3366 
L 3122 2828 
Q 2878 2963 2633 3030 
Q 2388 3097 2138 3097 
Q 1578 3097 1268 2742 
Q 959 2388 959 1747 
Q 959 1106 1268 751 
Q 1578 397 2138 397 
Q 2388 397 2633 464 
Q 2878 531 3122 666 
L 3122 134 
Q 2881 22 2623 -34 
Q 2366 -91 2075 -91 
Q 1284 -91 818 406 
Q 353 903 353 1747 
Q 353 2603 823 3093 
Q 1294 3584 2113 3584 
Q 2378 3584 2631 3529 
Q 2884 3475 3122 3366 
z
" transform="scale(0.015625)"/>
       <path id="DejaVuSans-73" d="M 2834 3397 
L 2834 2853 
Q 2591 2978 2328 3040 
Q 2066 3103 1784 3103 
Q 1356 3103 1142 2972 
Q 928 2841 928 2578 
Q 928 2378 1081 2264 
Q 1234 2150 1697 2047 
L 1894 2003 
Q 2506 1872 2764 1633 
Q 3022 1394 3022 966 
Q 3022 478 2636 193 
Q 2250 -91 1575 -91 
Q 1294 -91 989 -36 
Q 684 19 347 128 
L 347 722 
Q 666 556 975 473 
Q 1284 391 1588 391 
Q 1994 391 2212 530 
Q 2431 669 2431 922 
Q 2431 1156 2273 1281 
Q 2116 1406 1581 1522 
L 1381 1569 
Q 847 1681 609 1914 
Q 372 2147 372 2553 
Q 372 3047 722 3315 
Q 1072 3584 1716 3584 
Q 2034 3584 2315 3537 
Q 2597 3491 2834 3397 
z
" transform="scale(0.015625)"/>
      </defs>
      <use xlink:href="#DejaVuSans-50"/>
      <use xlink:href="#DejaVuSans-72" x="58.552734"/>
      <use xlink:href="#DejaVuSans-69" x="99.666016"/>
      <use xlink:href="#DejaVuSans-63" x="127.449219"/>
      <use xlink:href="#DejaVuSans-65" x="182.429688"/>
      <use xlink:href="#DejaVuSans-2f" x="243.953125"/>
      <use xlink:href="#DejaVuSans-73" x="277.644531"/>
      <use xlink:href="#DejaVuSans-74" x="329.744141"/>
      <use xlink:href="#DejaVuSans-72" x="368.953125"/>
      <use xlink:href="#DejaVuSans-69" x="410.066406"/>
      <use xlink:href="#DejaVuSans-6b" x="437.849609"/>
      <use xlink:href="#DejaVuSans-65" x="492.134766"/>
      <use xlink:href="#DejaVuSans-20" x="553.658203"/>
      <use xlink:href="#DejaVuSans-72" x="585.445312"/>
      <use xlink:href="#DejaVuSans-61" x="626.558594"/>
      <use xlink:href="#DejaVuSans-74" x="687.837891"/>
      <use xlink:href="#DejaVuSans-69" x="727.046875"/>
      <use xlink:href="#DejaVuSans-6f" x="754.830078"/>
     </g>
    </g>
   </g>
   <g id="line2d_29">
    <path d="M 138.436364 491.203272 
L 252.934336 491.203272 
L 253.137319 489.894533 
L 253.746392 491.203272 
L 253.746392 491.203272 
L 258.415623 491.203272 
L 258.821651 489.894533 
L 259.126157 489.894533 
L 259.633708 491.203272 
L 259.633708 489.894533 
L 259.836691 491.203272 
L 259.938213 489.894533 
L 260.141197 491.203272 
L 260.445703 489.894533 
L 263.490883 489.894533 
L 264.099895 491.203272 
L 264.404401 489.894533 
L 264.505923 488.585796 
L 265.419501 489.894533 
L 265.825529 489.894533 
L 265.926991 488.585796 
L 266.028513 489.894533 
L 266.130035 488.585796 
L 266.231497 489.894533 
L 267.754087 489.894533 
L 267.957131 488.585796 
L 269.073693 488.585796 
L 269.378199 489.894533 
L 270.088733 489.894533 
L 270.088733 489.894533 
L 270.799267 487.277061 
L 271.205295 488.585796 
L 271.712785 488.585796 
L 272.017351 489.894533 
L 272.017351 488.585796 
L 272.423319 488.585796 
L 272.423319 489.894533 
L 272.524841 488.585796 
L 273.438419 488.585796 
L 273.742925 489.894533 
L 274.960949 488.585796 
L 275.163993 488.585796 
L 275.570021 485.968324 
L 275.976049 488.585796 
L 276.889567 488.585796 
L 276.991089 487.277061 
L 277.600101 488.585796 
L 277.600101 487.277061 
L 277.701623 488.585796 
L 277.803145 488.585796 
L 277.904606 487.277061 
L 278.209173 487.277061 
L 278.209173 487.277061 
L 278.310635 488.585796 
L 279.021168 487.277061 
L 279.325735 487.277061 
L 279.528719 488.585796 
L 279.630241 487.277061 
L 280.036269 487.277061 
L 280.036269 485.968324 
L 280.442236 487.277061 
L 280.848264 487.277061 
L 280.949787 488.585796 
L 281.558798 488.585796 
L 281.558798 487.277061 
L 281.863365 487.277061 
L 282.167871 485.968324 
L 283.182911 485.968324 
L 283.182911 485.968324 
L 283.588939 487.277061 
L 283.791922 485.968324 
L 283.791922 487.277061 
L 283.893444 487.277061 
L 283.994967 487.277061 
L 284.299473 485.968324 
L 285.72054 485.968324 
L 286.431074 487.277061 
L 286.634058 484.659587 
L 286.73558 485.968324 
L 286.73558 485.968324 
L 287.040086 484.659587 
L 287.24313 484.659587 
L 287.446114 485.968324 
L 287.547636 484.659587 
L 287.649158 485.968324 
L 287.75062 484.659587 
L 288.664198 484.659587 
L 288.76572 483.350849 
L 288.76572 484.659587 
L 289.070226 484.659587 
L 289.27321 485.968324 
L 289.27321 484.659587 
L 289.577716 485.968324 
L 289.679238 484.659587 
L 290.491294 483.350849 
L 290.7958 484.659587 
L 291.201828 483.350849 
L 292.724418 483.350849 
L 292.927402 484.659587 
L 292.927402 484.659587 
L 293.33343 484.659587 
L 293.536474 483.350849 
L 294.551514 483.350849 
L 294.652976 480.733377 
L 294.754498 482.042108 
L 295.160526 482.042108 
L 295.160526 483.350849 
L 295.566554 482.042108 
L 295.769538 482.042108 
L 295.87106 483.350849 
L 295.972582 482.042108 
L 296.683116 482.042108 
L 296.8861 480.733377 
L 297.089144 480.733377 
L 297.799678 483.350849 
L 297.799678 482.042108 
L 298.205706 482.042108 
L 298.205706 482.042108 
L 298.611734 479.424634 
L 299.42373 482.042108 
L 299.728296 482.042108 
L 299.728296 478.115895 
L 299.829758 482.042108 
L 300.032802 479.424634 
L 300.43883 480.733377 
L 301.149364 480.733377 
L 301.555392 479.424634 
L 302.062882 479.424634 
L 302.265926 478.115895 
L 302.265926 479.424634 
L 302.367388 479.424634 
L 303.077922 480.733377 
L 303.382488 478.115895 
L 303.9915 479.424634 
L 304.093022 478.115895 
L 304.296006 480.733377 
L 304.702034 479.424634 
L 304.803556 478.115895 
L 304.803556 478.115895 
L 305.00654 479.424634 
L 305.00654 479.424634 
L 305.209584 479.424634 
L 305.311046 475.498436 
L 305.818596 479.424634 
L 306.02158 479.424634 
L 306.427608 475.498436 
L 306.732113 476.807157 
L 306.935158 475.498436 
L 307.54417 476.807157 
L 307.54417 478.115895 
L 307.747214 478.115895 
L 308.05172 475.498436 
L 308.356226 475.498436 
L 308.660732 479.424634 
L 309.168282 479.424634 
L 309.980277 475.498436 
L 310.690811 478.115895 
L 310.995378 474.189698 
L 311.705912 471.572218 
L 311.908895 475.498436 
L 312.314923 472.880946 
L 312.822474 472.880946 
L 313.228502 475.498436 
L 313.634469 472.880946 
L 314.446525 471.572218 
L 314.852553 475.498436 
L 314.852553 472.880946 
L 315.157059 472.880946 
L 315.969115 470.263472 
L 316.273621 471.572218 
L 316.578127 474.189698 
L 316.578127 467.646009 
L 316.882633 470.263472 
L 316.984155 474.189698 
L 316.984155 471.572218 
L 317.390183 468.954733 
L 317.593227 470.263472 
L 317.694689 468.954733 
L 317.999195 471.572218 
L 318.608267 471.572218 
L 319.115757 468.954733 
L 319.318801 470.263472 
L 319.623307 468.954733 
L 319.623307 468.954733 
L 320.232319 470.263472 
L 320.333841 468.954733 
L 320.435363 470.263472 
L 320.739869 467.646009 
L 321.145897 470.263472 
L 322.363921 467.646009 
L 322.769949 466.337269 
L 323.175977 468.954733 
L 323.683527 465.02854 
L 323.988033 465.02854 
L 324.597045 466.337269 
L 324.800089 466.337269 
L 324.901611 467.646009 
L 325.612145 466.337269 
L 326.627185 466.337269 
L 326.830169 459.793586 
L 326.931691 465.02854 
L 327.134675 462.411059 
L 327.236197 463.719793 
L 327.946731 459.793586 
L 327.946731 463.719793 
L 328.758787 462.411059 
L 329.164815 459.793586 
L 329.164815 459.793586 
L 329.469321 461.102321 
L 329.773827 462.411059 
L 330.078333 461.102321 
L 330.078333 461.102321 
L 330.179855 459.793586 
L 330.382839 462.411059 
L 330.382839 461.102321 
L 330.890389 458.484845 
L 330.890389 458.484845 
L 331.296417 458.484845 
L 331.397939 459.793586 
L 331.803967 459.793586 
L 332.311457 458.484845 
L 332.514501 457.176092 
L 334.341597 454.558625 
L 334.646103 454.558625 
L 334.849087 453.2499 
L 334.849087 454.558625 
L 335.55962 451.941149 
L 336.270154 454.558625 
L 336.676182 449.323686 
L 338.198773 451.941149 
L 338.401756 453.2499 
L 338.807784 453.2499 
L 338.909306 448.014957 
L 338.909306 449.323686 
L 339.721363 448.014957 
L 340.127391 449.323686 
L 340.736402 448.014957 
L 340.939447 444.088734 
L 341.954487 448.014957 
L 341.954487 442.779987 
L 342.055948 444.088734 
L 342.360515 446.706198 
L 342.461976 444.088734 
L 342.969526 446.706198 
L 343.17251 442.779987 
L 343.375554 445.397481 
L 343.68006 445.397481 
L 343.68006 444.088734 
L 343.883044 446.706198 
L 343.984566 444.088734 
L 344.492116 441.471262 
L 344.593578 444.088734 
L 344.898144 440.162499 
L 344.898144 442.779987 
L 344.898144 441.471262 
L 345.405634 442.779987 
L 345.608678 441.471262 
L 345.71014 438.853771 
L 346.014706 441.471262 
L 346.319212 438.853771 
L 346.72524 441.471262 
L 346.928224 434.927554 
L 347.131268 436.236331 
L 347.841802 437.545042 
L 347.841802 436.236331 
L 348.958364 438.853771 
L 349.77036 434.927554 
L 349.973404 432.310084 
L 349.973404 433.618843 
L 350.988444 429.692602 
L 351.191428 432.310084 
L 351.191428 425.766428 
L 352.714018 431.001337 
L 353.526074 427.075133 
L 353.526074 431.001337 
L 353.83058 429.692602 
L 354.033624 427.075133 
L 354.642636 427.075133 
L 355.454692 424.457718 
L 355.86072 421.840212 
L 356.063704 425.766428 
L 356.063704 420.53144 
L 356.36821 423.148934 
L 357.078744 423.148934 
L 357.281788 421.840212 
L 357.484772 424.457718 
L 357.789278 417.913977 
L 357.8908 419.22276 
L 357.8908 419.22276 
L 357.992322 423.148934 
L 358.195306 419.22276 
L 358.601334 415.296525 
L 358.804378 423.148934 
L 358.804378 416.605278 
L 359.616374 417.913977 
L 359.717896 413.987754 
L 360.326908 412.679031 
L 360.326908 416.605278 
L 360.631474 413.987754 
L 360.93598 413.987754 
L 361.037442 416.605278 
L 361.646514 410.061556 
L 362.052542 417.913977 
L 362.154004 408.752845 
L 362.255526 419.22276 
L 362.357048 411.370327 
L 362.864537 404.826616 
L 363.169104 404.826616 
L 364.082622 402.209116 
L 364.082622 408.752845 
L 364.082622 406.135327 
L 364.793156 404.826616 
L 364.9962 407.444141 
L 365.503689 402.209116 
L 365.706734 403.517863 
L 365.909718 403.517863 
L 365.909718 403.517863 
L 366.417268 399.591671 
L 367.736813 398.282905 
L 368.954898 395.665509 
L 369.969937 394.356683 
L 370.375965 389.12181 
L 370.578949 390.430557 
L 370.984977 387.813051 
L 371.086499 393.048009 
L 371.289483 386.504304 
L 371.695511 391.73928 
L 371.695511 389.12181 
L 371.797033 389.12181 
L 371.898556 390.430557 
L 372.406045 387.813051 
L 372.710551 389.12181 
L 372.710551 381.269316 
L 372.812073 386.504304 
L 373.421085 377.343148 
L 373.827113 383.886871 
L 374.334663 385.195582 
L 374.639169 377.343148 
L 374.842213 377.343148 
L 375.045197 381.269316 
L 375.755731 379.960606 
L 375.755731 382.578136 
L 375.857253 376.034352 
L 375.958715 373.416956 
L 376.263281 372.108209 
L 376.364743 382.578136 
L 376.770771 378.651907 
L 376.770771 383.886871 
L 376.770771 376.034352 
L 377.785811 377.343148 
L 378.293361 366.873257 
L 379.612907 368.182004 
L 379.714429 362.94698 
L 380.120457 362.94698 
L 380.729469 360.329534 
L 380.932513 362.94698 
L 380.932513 366.873257 
L 381.643047 359.020787 
L 381.744569 359.020787 
L 382.252059 368.182004 
L 383.368621 360.329534 
L 383.876171 357.712065 
L 384.383661 352.477186 
L 384.485183 352.477186 
L 384.891211 356.403354 
L 385.094195 343.316006 
L 385.094195 348.550933 
L 385.500223 344.624655 
L 385.500223 348.550933 
L 385.601745 348.550933 
L 386.210757 338.080969 
L 386.312279 351.168342 
L 386.312279 344.624655 
L 386.819829 352.477186 
L 387.225857 348.550933 
L 387.428841 342.007271 
L 387.428841 345.933427 
L 387.428841 336.772344 
L 387.631825 334.154838 
L 387.733347 342.007271 
L 388.646925 339.389838 
L 389.560443 332.846127 
L 390.677005 338.080969 
L 391.083033 331.53738 
L 391.286016 323.684898 
L 391.692044 321.067453 
L 391.895089 327.6112 
L 392.199595 327.6112 
L 392.808606 317.141297 
L 393.417679 317.141297 
L 393.51914 327.6112 
L 393.823646 314.523803 
L 394.026691 323.684898 
L 395.04173 311.906297 
L 395.04173 314.523803 
L 395.143253 311.906297 
L 395.244775 314.523803 
L 395.549281 315.832428 
L 395.650742 307.980092 
L 395.752264 310.597562 
L 396.158292 304.0539 
L 396.767304 307.980092 
L 397.173332 306.671431 
L 397.173332 306.671431 
L 397.57936 302.74508 
L 397.57936 297.510201 
L 398.289894 304.0539 
L 398.695922 294.892768 
L 399.507978 296.201442 
L 399.609501 298.818912 
L 399.710962 285.731515 
L 400.11699 294.892768 
L 400.11699 300.127659 
L 400.320034 288.349009 
L 400.421496 293.583924 
L 400.726063 290.966466 
L 400.827524 279.187938 
L 401.233552 288.349009 
L 401.944086 285.731515 
L 402.045608 283.113972 
L 402.045608 284.422902 
L 403.466676 280.496502 
L 404.17721 272.644142 
L 404.380254 277.879057 
L 404.786222 267.4093 
L 404.887744 273.952828 
L 405.395294 280.496502 
L 405.902784 264.791709 
L 405.902784 272.644142 
L 406.004306 262.17419 
L 406.511856 270.026746 
L 406.71484 256.939348 
L 406.71484 264.791709 
L 407.120868 266.100492 
L 407.323852 258.248156 
L 408.338952 255.630662 
L 408.74498 255.630662 
L 409.353992 259.556818 
L 409.861482 242.543241 
L 410.064526 250.395626 
L 410.369032 246.469324 
L 410.77506 247.777961 
L 411.384072 230.764749 
L 412.602156 235.999689 
L 412.703678 247.777961 
L 413.515674 228.147182 
L 413.921702 237.308497 
L 414.124746 222.911975 
L 414.226268 237.308497 
L 414.429252 221.603191 
L 414.530774 228.147182 
L 415.038264 230.764749 
L 415.139786 217.677425 
L 415.444292 221.603191 
L 415.748798 222.911975 
L 415.951842 216.36852 
L 416.35787 212.442218 
L 416.35787 212.442218 
L 417.169866 215.059712 
L 417.37291 213.751148 
L 417.37291 217.677425 
L 417.474432 205.898422 
L 417.575894 209.824821 
L 417.880399 208.515892 
L 418.286427 209.824821 
L 418.590994 205.898422 
L 418.692456 211.133605 
L 418.793978 200.663848 
L 418.8955 209.824821 
L 418.8955 199.355016 
L 419.098484 207.207425 
L 419.606034 199.355016 
L 419.606034 194.119881 
L 419.707495 196.73718 
L 420.113523 196.73718 
L 420.41809 194.119881 
L 421.331608 184.958957 
L 421.331608 192.811415 
L 421.43313 191.502387 
L 422.042142 179.723969 
L 422.346647 195.428836 
L 422.346647 188.885088 
L 422.549692 184.958957 
L 423.361687 178.415283 
L 423.564732 174.48903 
L 423.564732 188.885088 
L 423.564732 182.34156 
L 423.767715 183.649783 
L 424.275266 178.415283 
L 424.478249 171.871267 
L 424.478249 179.723969 
L 424.681294 175.797813 
L 425.290305 156.16662 
L 425.290305 162.710538 
L 425.797856 164.018858 
L 426.102361 166.636742 
L 426.812895 158.784114 
L 427.117401 153.549345 
L 427.726413 149.623068 
L 428.132441 152.240196 
L 428.335485 152.240196 
L 428.944497 143.07954 
L 429.147542 144.38808 
L 429.249003 147.005598 
L 429.553509 139.152702 
L 429.756553 147.005598 
L 429.858075 133.917909 
L 430.365565 136.535427 
L 430.771593 131.300439 
L 430.873115 140.461802 
L 430.974637 132.609174 
L 431.076099 133.917909 
L 431.380605 129.991826 
L 431.583649 129.991826 
L 432.497167 128.683286 
L 433.004717 119.522191 
L 433.512267 120.831023 
L 433.613729 118.213017 
L 433.816773 116.904283 
L 434.121279 107.743114 
L 434.933335 110.360755 
L 435.440825 109.052337 
L 435.745331 92.038516 
L 436.151359 98.582531 
L 436.760431 98.582531 
L 436.963415 94.65601 
L 437.673949 95.964379 
L 438.181499 103.682543 
L 438.283021 89.28 
L 438.993555 94.469281 
L 439.298061 102.302115 
L 439.399523 102.295436 
L 439.704089 95.732869 
L 440.008595 115.34422 
L 440.719129 102.211286 
L 440.820651 115.291736 
L 441.023635 120.513974 
L 441.023635 119.204752 
L 441.531185 113.937367 
L 441.531185 116.555178 
L 441.835691 121.770591 
L 441.835691 127.004945 
L 442.546225 123.033497 
L 443.35822 125.598897 
L 443.764309 121.646097 
L 443.967232 134.720672 
L 444.068754 133.405258 
L 444.170277 128.163858 
L 444.373321 142.547265 
L 444.474843 128.144405 
L 444.576365 135.990452 
L 445.286899 150.341096 
L 445.388421 137.246971 
L 445.591344 138.542859 
L 445.692867 155.549562 
L 445.692867 137.227299 
L 446.403401 147.651494 
L 446.403401 150.269305 
L 446.504923 143.718781 
L 447.113935 142.371019 
L 447.113935 148.914742 
L 447.215457 147.599522 
L 447.722946 148.875373 
L 447.824468 155.412636 
L 447.824468 151.48648 
L 448.230557 154.077793 
L 448.535002 151.440943 
L 448.941091 156.650018 
L 449.042613 161.877888 
L 449.042613 156.642974 
L 449.144014 146.166976 
L 450.260637 163.108495 
L 450.565082 173.559018 
L 450.768126 169.619528 
L 450.768126 165.693713 
L 451.072693 176.143749 
L 452.392239 178.676411 
L 452.595283 182.589915 
L 453.102773 182.556859 
L 453.305817 189.087711 
L 453.813306 190.364024 
L 453.914829 185.122576 
L 454.016351 189.042004 
L 454.422318 182.472295 
L 454.726885 198.15766 
L 454.726885 196.848852 
L 454.828407 175.902269 
L 455.944908 188.918095 
L 456.147953 192.831404 
L 456.249475 192.824554 
L 456.249475 200.677231 
L 456.655442 196.724773 
L 457.162932 194.074906 
L 457.264454 208.464407 
L 457.264454 208.464407 
L 457.670543 201.894796 
L 458.279554 203.164161 
L 458.279554 207.090439 
L 458.584 210.997264 
L 459.294534 216.186228 
L 459.294534 213.568685 
L 459.802144 217.462419 
L 460.512678 213.490483 
L 461.527658 214.734082 
L 461.62918 218.653827 
L 461.62918 216.036503 
L 462.136791 226.473887 
L 462.238192 219.923339 
L 463.963826 243.370016 
L 464.16687 239.430672 
L 465.384894 239.35247 
L 465.587938 231.486629 
L 466.095428 257.628953 
L 466.19695 245.843904 
L 466.805962 239.261178 
L 467.21205 252.322418 
L 467.516496 243.141334 
L 467.516496 250.993865 
L 467.821062 249.665823 
L 468.023985 245.72626 
L 468.22703 265.344387 
L 468.328552 247.015444 
L 468.531596 248.311406 
L 468.937564 262.681283 
L 469.039086 253.513558 
L 469.343652 260.03773 
L 469.445174 248.252705 
L 470.054186 265.227133 
L 470.054186 258.68341 
L 470.257109 265.213921 
L 470.663198 270.422947 
L 470.663198 254.718056 
L 470.76472 258.637679 
L 471.27221 265.148882 
L 472.084266 262.479124 
L 472.185788 270.325073 
L 472.28731 265.0836 
L 472.490233 275.540315 
L 473.099366 268.95754 
L 473.505334 279.401457 
L 473.505334 279.401457 
L 473.8099 270.220788 
L 474.31739 278.040507 
L 474.926402 271.457732 
L 475.027924 288.464837 
L 475.129446 281.914569 
L 475.535413 281.888461 
L 475.535413 296.284568 
L 475.636936 287.116916 
L 475.941502 287.097341 
L 475.941502 281.862353 
L 476.144425 288.393022 
L 476.245947 297.547596 
L 476.550514 283.131962 
L 476.753558 284.427655 
L 477.36257 283.079844 
L 477.667015 288.295074 
L 477.667015 292.221303 
L 477.667015 288.295074 
L 478.580594 292.162664 
L 478.88516 292.143162 
L 478.986561 305.224039 
L 479.189605 296.049743 
L 479.798617 293.393148 
L 480.407629 307.750106 
L 480.813718 306.415337 
L 481.016762 292.006102 
L 481.524251 299.825968 
L 482.234785 323.337573 
L 482.539352 302.378241 
L 482.539352 298.452097 
L 482.539352 315.465577 
L 482.742275 316.761258 
L 483.148364 312.808994 
L 483.554331 321.944042 
L 483.96042 310.139321 
L 484.061821 315.367788 
L 484.772476 312.704599 
L 485.279966 315.28955 
L 485.48301 313.967688 
L 485.685933 324.424549 
L 486.701033 321.741883 
L 487.005479 333.500909 
L 487.614612 324.30075 
L 488.325146 330.798656 
L 488.731113 332.081307 
L 489.03568 325.51807 
L 489.03568 338.605419 
L 489.03568 325.51807 
L 489.949137 335.929273 
L 489.949137 333.311864 
L 490.659671 337.192411 
L 490.761193 339.803262 
L 490.862715 333.253091 
L 491.065759 346.327398 
L 491.268804 334.535828 
L 491.573249 335.825 
L 492.080739 341.027359 
L 492.689871 337.062005 
L 492.791394 344.907869 
L 492.994317 343.586104 
L 493.197361 346.190569 
L 493.501927 343.553427 
L 493.603329 351.399327 
L 493.704851 347.466675 
L 494.516907 343.488218 
L 494.516907 343.488218 
L 494.719951 355.253778 
L 495.024397 352.616794 
L 495.430485 352.590662 
L 496.546987 359.062655 
L 496.546987 347.283956 
L 496.851553 361.660513 
L 497.156119 344.627337 
L 497.359043 353.775476 
L 498.069577 357.656119 
L 498.475665 362.864914 
L 498.577187 352.388478 
L 498.983155 361.523563 
L 499.693689 360.169206 
L 500.099656 364.069351 
L 500.404223 365.35845 
L 501.723768 373.126173 
L 502.231379 367.858593 
L 502.941913 375.665319 
L 504.565904 383.413455 
L 504.667426 371.628199 
L 504.768949 379.474172 
L 505.175037 378.139317 
L 505.175037 379.448077 
L 505.276438 375.515339 
L 505.37796 374.200095 
L 505.37796 383.361215 
L 505.581005 376.804475 
L 505.784049 378.100155 
L 505.784049 380.717662 
L 506.393061 387.222186 
L 507.205117 378.0089 
L 507.40804 384.539508 
L 507.40804 381.922075 
L 507.509562 381.915542 
L 508.321618 388.407061 
L 509.641164 393.557217 
L 509.742686 390.93322 
L 509.94573 389.611474 
L 509.94573 393.537684 
L 510.45322 393.505019 
L 510.859309 388.244014 
L 511.062232 393.465918 
L 511.265276 385.600412 
L 511.265276 393.452882 
L 511.46832 388.204816 
L 511.569843 392.124585 
L 511.874288 397.339949 
L 512.280377 393.387668 
L 512.686344 393.361584 
L 512.787866 392.046347 
L 514.513501 398.479141 
L 515.224035 402.3597 
L 515.325557 398.426938 
L 515.325557 401.044395 
L 516.239014 403.603195 
L 516.340536 397.052976 
L 516.645102 406.194618 
L 517.05107 402.242275 
L 517.05107 399.624811 
L 517.254114 402.22927 
L 517.761604 400.887858 
L 517.761604 399.579178 
L 518.06617 400.868283 
L 518.06617 404.794499 
L 518.370616 404.77501 
L 518.370616 417.862303 
L 518.472138 413.929627 
L 518.979749 409.970769 
L 519.284194 404.716255 
L 519.487238 409.938165 
L 519.487238 408.629424 
L 519.994728 413.831759 
L 520.197772 408.58382 
L 520.60374 404.631471 
L 520.806784 412.470845 
L 521.314274 407.203331 
L 521.61884 413.727388 
L 521.720362 409.79473 
L 521.923406 416.325338 
L 522.12633 413.694851 
L 523.14143 420.173249 
L 523.242952 418.858054 
L 523.64892 420.140681 
L 524.460976 412.236081 
L 524.562498 418.773228 
L 525.17151 420.042813 
L 525.983566 416.06449 
L 526.592578 417.334057 
L 526.795622 425.173424 
L 527.20159 422.529877 
L 527.303112 423.832128 
L 527.303112 429.067055 
L 527.404634 422.51686 
L 527.912123 423.792948 
L 528.013646 419.860198 
L 528.419734 426.377807 
L 528.72418 423.740762 
L 528.927224 419.801553 
L 529.028746 425.029928 
L 529.23179 427.634381 
L 529.637758 426.29955 
L 530.551336 419.697194 
L 530.551336 424.932103 
L 530.957304 431.449748 
L 531.058826 426.208246 
L 531.26187 436.665107 
L 532.175448 426.136498 
L 532.479894 427.425719 
L 533.088905 433.930237 
L 533.190428 428.688795 
L 533.494994 427.360443 
L 535.118985 440.343469 
L 535.220507 429.867063 
L 535.423551 435.089004 
L 535.829519 436.371625 
L 536.743097 432.386738 
L 537.453631 438.884772 
L 537.656675 438.871676 
L 538.671776 442.732677 
L 538.874699 444.028389 
L 538.976221 436.169422 
L 539.889799 440.036945 
L 540.092844 440.023934 
L 540.397289 438.695624 
L 540.803378 439.978263 
L 540.803378 438.66954 
L 540.9049 441.280489 
L 541.209345 449.113326 
L 541.310867 441.254387 
L 541.716835 445.154539 
L 542.325968 443.806633 
L 542.528891 442.484869 
L 543.137903 450.298143 
L 543.645513 450.265566 
L 544.660493 446.274107 
L 545.066581 447.556768 
L 545.168104 451.476454 
L 545.371027 446.228449 
L 545.878637 448.813345 
L 546.487649 446.156713 
L 546.893617 446.130617 
L 547.604151 443.467498 
L 548.416207 446.03281 
L 548.416207 447.341548 
L 548.720773 447.321982 
L 548.923818 452.543889 
L 549.025219 451.228612 
L 549.431307 455.128754 
L 549.532829 448.578547 
L 550.243363 448.532898 
L 550.344885 456.378777 
L 550.953897 456.339649 
L 551.664431 451.059054 
L 551.867354 453.663479 
L 552.374965 453.630862 
L 552.476487 457.550582 
L 552.882455 453.598255 
L 553.491467 453.55912 
L 553.796033 452.230835 
L 553.897555 457.459272 
L 554.202001 456.130962 
L 554.202001 456.130962 
L 554.912535 457.394026 
L 555.217101 456.065744 
L 555.521546 453.428697 
L 555.521546 457.354919 
L 555.826113 462.570302 
L 556.638169 457.283162 
L 556.841213 454.652654 
L 556.942735 458.572347 
L 557.450225 461.157209 
L 557.551747 458.533197 
L 557.75467 458.520164 
L 558.363803 454.554825 
L 558.972815 462.368115 
L 559.175738 458.428851 
L 559.27726 462.348556 
L 559.480305 458.409279 
L 559.683349 462.322457 
L 559.683349 462.322457 
L 559.987794 457.067958 
L 560.190839 462.289846 
L 560.393883 455.733137 
L 560.393883 460.968079 
L 560.901373 460.93545 
L 561.814951 463.494223 
L 561.814951 460.876765 
L 562.220918 462.159407 
L 562.627007 458.207107 
L 562.728529 464.744267 
L 563.032974 469.959655 
L 563.946553 463.357275 
L 564.251119 465.955182 
L 564.860131 464.607316 
L 565.36762 465.883437 
L 565.570665 464.561664 
L 565.570665 464.561664 
L 565.570665 468.48786 
L 565.773588 469.783578 
L 567.296178 467.068269 
L 567.499222 468.363961 
L 567.803789 463.109442 
L 567.905311 467.029124 
L 568.717246 468.285693 
L 569.021812 463.031188 
L 569.021812 463.031188 
L 569.326379 465.629092 
L 570.036913 466.892178 
L 570.44288 466.866094 
L 570.44288 469.483555 
L 570.544402 468.168298 
L 570.848848 470.766211 
L 570.848848 469.45747 
L 571.254936 469.431379 
L 571.660904 470.714032 
L 571.762426 468.090026 
L 572.270037 470.674897 
L 572.371438 468.050914 
L 572.47296 469.35313 
L 572.777526 469.333552 
L 573.48806 470.596639 
L 573.792506 471.885807 
L 574.097072 474.483714 
L 574.300116 474.470676 
L 574.401639 470.537936 
L 574.50304 471.84016 
L 575.112173 470.492287 
L 576.127152 475.662022 
L 577.142252 470.361852 
L 577.142252 470.361852 
L 578.461798 474.203285 
L 579.679822 472.816288 
L 579.781344 471.501024 
L 579.984388 478.031654 
L 579.984388 478.031654 
L 580.390356 474.07937 
L 580.5934 477.992534 
L 581.811423 473.988052 
L 582.521957 473.942401 
L 582.521957 468.707465 
L 582.62348 479.170823 
L 583.13109 473.903274 
L 583.435536 476.50118 
L 584.65368 475.114178 
L 585.262692 477.692516 
L 585.465615 475.062 
L 586.074748 475.022864 
L 586.074748 480.257825 
L 586.176149 475.016342 
L 586.176149 475.016342 
L 586.277671 473.701095 
L 586.785282 478.903435 
L 586.886683 476.279432 
L 587.394294 473.629344 
L 588.20635 474.885915 
L 588.612318 478.786037 
L 588.916884 476.148997 
L 588.916884 481.383946 
L 589.018406 477.451217 
L 589.119807 481.370896 
L 589.119807 478.75343 
L 589.931863 477.392517 
L 589.931863 478.701252 
L 590.743919 478.649077 
L 591.150008 477.31425 
L 591.352931 482.536155 
L 591.352931 479.918679 
L 591.860542 479.886078 
L 591.962064 482.497025 
L 592.469554 475.920725 
L 592.672598 478.525164 
L 592.977043 477.196863 
L 592.977043 481.123072 
L 593.484533 475.855503 
L 594.601156 479.709976 
L 594.702678 482.320931 
L 594.905601 480.999149 
L 595.717657 480.946977 
L 596.123746 482.229622 
L 596.428191 479.59259 
L 596.631235 480.888284 
L 597.544813 483.447055 
L 598.458392 479.462146 
L 598.559793 482.073106 
L 598.762837 479.442582 
L 598.762837 479.442582 
L 598.965881 482.047009 
L 599.067404 480.731759 
L 599.270327 480.718708 
L 599.371849 484.638404 
L 599.87946 480.679582 
L 600.082383 480.666532 
L 600.894439 483.231839 
L 600.894439 481.923096 
L 601.097483 487.145 
L 601.40205 484.507965 
L 601.604973 484.494916 
L 603.127563 483.088348 
L 603.127563 480.470878 
L 603.330607 485.692784 
L 603.635174 483.055741 
L 604.142663 485.640611 
L 604.244185 484.325348 
L 605.056242 484.273177 
L 605.259165 486.877602 
L 605.665253 482.925303 
L 605.766775 488.153731 
L 605.868177 488.147209 
L 605.969699 482.905736 
L 606.274265 482.886175 
L 606.375787 485.497128 
L 606.375787 484.188389 
L 607.289244 480.203479 
L 607.492289 482.807912 
L 608.405867 487.984161 
L 608.507389 484.051431 
L 609.116401 485.321036 
L 609.826935 487.892854 
L 609.826935 482.657904 
L 610.334425 482.625298 
L 610.842035 481.283954 
L 611.146481 485.190597 
L 611.451047 486.479767 
L 611.451047 486.479767 
L 611.755492 482.533996 
L 611.755492 485.151461 
L 611.755492 483.842729 
L 612.872115 485.079725 
L 613.17656 490.295107 
L 613.582649 482.4166 
L 614.496227 484.975373 
L 614.69915 486.271065 
L 615.105239 483.627505 
L 615.105239 486.244977 
L 615.409684 484.916676 
L 615.409684 490.151625 
L 615.511206 486.218895 
L 615.612729 484.903634 
L 615.612729 484.903634 
L 616.22174 486.173237 
L 616.323263 484.857981 
L 616.323263 487.475452 
L 617.236841 488.725493 
L 617.845853 484.760154 
L 617.947375 488.67984 
L 618.150419 484.740583 
L 618.150419 487.358059 
L 618.353342 487.345018 
L 618.657909 486.016715 
L 619.063876 487.299364 
L 619.368443 487.279796 
L 619.368443 488.588536 
L 619.469965 487.273275 
L 621.195478 485.853666 
L 621.297 481.920936 
L 621.500044 485.834098 
L 622.616546 489.688569 
L 622.616546 489.688569 
L 623.733168 485.690617 
L 623.733168 489.61683 
L 624.037735 486.97979 
L 624.34218 489.577698 
L 624.443702 486.953702 
L 625.052714 486.914573 
L 625.966292 488.164612 
L 626.473782 488.132002 
L 626.778349 486.8037 
L 626.879871 492.032125 
L 627.38736 486.764566 
L 628.402461 490.625559 
L 629.011473 486.660217 
L 629.214396 487.955911 
L 629.518962 486.627607 
L 629.722006 490.540774 
L 630.635464 486.555864 
L 630.736986 489.166818 
L 630.838508 489.160297 
L 631.346119 490.436423 
L 631.44752 489.121166 
L 632.259576 489.06899 
L 632.361098 490.371205 
L 632.97011 487.714602 
L 632.97011 487.714602 
L 633.376198 487.688512 
L 633.579122 490.292943 
L 633.680644 487.668945 
L 633.680644 490.286419 
L 634.086732 486.33412 
L 634.4927 486.308035 
L 635.812246 490.149461 
L 636.218334 488.814636 
L 636.319856 490.116852 
L 637.03039 490.071197 
L 637.639402 487.41459 
L 638.451458 491.288628 
L 639.161992 488.625501 
L 639.771004 487.27763 
L 640.278494 488.553761 
L 640.380016 489.855975 
L 640.887505 489.823364 
L 640.887505 489.823364 
L 641.192072 488.495064 
L 642.816184 488.390712 
L 642.816184 489.699451 
L 643.120629 491.203272 
L 643.222152 487.05589 
L 644.034208 490.929924 
L 644.13573 489.614664 
L 645.759842 490.819052 
L 646.571898 492.075614 
L 646.673299 489.451616 
L 646.876343 488.129837 
L 646.977866 489.432052 
L 647.891444 488.064618 
L 648.500456 486.716748 
L 648.601978 490.636439 
L 648.906423 487.9994 
L 649.616957 490.571219 
L 650.023046 491.203272 
L 650.124568 487.921135 
L 650.530535 489.203784 
L 651.647158 490.440781 
L 651.74868 491.742997 
L 652.154647 490.408172 
L 652.763659 489.060304 
L 653.068226 491.658212 
L 653.169748 487.725478 
L 653.474193 491.632125 
L 653.880282 490.2973 
L 653.981683 491.203272 
L 654.387771 491.573428 
L 654.793739 488.929865 
L 655.402872 491.508208 
L 655.402872 491.203272 
L 655.707317 491.203272 
L 656.519373 490.127731 
L 657.432951 491.377771 
L 657.737397 491.358205 
L 657.940441 490.036424 
L 658.041963 491.203272 
L 658.245008 490.016858 
L 658.447931 491.203272 
L 658.447931 488.695079 
L 658.955542 491.203272 
L 659.463031 488.629857 
L 660.072043 491.203272 
L 660.072043 489.899464 
L 660.985621 489.840767 
L 661.188666 491.136461 
L 661.290067 489.821202 
L 661.290067 491.129939 
L 661.797677 492.406066 
L 662.406689 491.058198 
L 662.508211 492.360413 
L 662.609733 489.736417 
L 662.711135 492.347369 
L 662.812657 492.340847 
L 663.929279 492.269106 
L 664.436769 490.92776 
L 664.436769 492.236497 
L 664.538291 491.203272 
L 664.944259 490.895149 
L 665.756315 490.842975 
L 665.857837 491.203272 
L 665.857837 489.527717 
L 665.959359 490.829931 
L 666.263925 491.203272 
L 666.365326 492.112581 
L 669.004539 491.943011 
L 669.106061 490.627753 
L 669.308984 489.305971 
L 670.222563 486.629801 
L 670.222563 490.556012 
L 671.034619 491.812574 
L 671.136141 491.806051 
L 672.760253 486.466752 
L 673.267743 491.669091 
L 674.181321 491.610394 
L 674.384244 490.288613 
L 674.384244 487.671138 
L 674.485766 490.282092 
L 675.1963 490.236438 
L 675.1963 490.236438 
L 675.703911 491.512566 
L 677.530946 491.203272 
L 677.632468 491.38865 
L 678.343002 491.342997 
L 678.444525 491.203272 
L 678.444525 491.336474 
L 678.647569 491.203272 
L 682.910773 491.203272 
L 683.215218 491.029946 
L 683.418262 491.203272 
L 683.722829 490.997337 
L 684.33184 489.649468 
L 684.534885 489.636424 
L 684.636286 492.247376 
L 685.143897 490.90603 
L 685.143897 492.214767 
L 685.448342 490.886464 
L 685.752908 491.203272 
L 685.955953 492.162592 
L 686.057354 490.847332 
L 686.057354 490.847332 
L 686.158876 492.149548 
L 686.158876 491.203272 
L 686.260398 490.834289 
L 686.260398 490.834289 
L 686.463442 491.203272 
L 686.463442 492.129982 
L 687.072454 490.782113 
L 687.275498 492.077807 
L 687.88451 490.729939 
L 688.290478 491.203272 
L 688.493522 491.999544 
L 690.219156 491.203272 
L 690.828168 490.540802 
L 691.741746 491.790843 
L 692.350758 491.203272 
L 694.786926 491.203272 
L 694.888328 491.588665 
L 695.294416 491.562577 
L 695.49746 491.203272 
L 695.903428 491.523445 
L 695.903428 491.203272 
L 696.106472 491.203272 
L 696.207994 491.50388 
L 696.410918 491.203272 
L 696.51244 490.175578 
L 696.51244 491.203272 
L 696.715484 491.47127 
L 696.918528 490.14949 
L 696.918528 491.458226 
L 697.019929 491.203272 
L 697.324496 491.432139 
L 697.52754 488.80162 
L 697.831985 491.39953 
L 698.03503 491.203272 
L 700.268154 491.203272 
L 700.268154 489.934266 
L 700.369676 491.203272 
L 700.674121 491.216917 
L 701.384655 492.48 
L 701.587699 491.203272 
L 702.501278 491.203272 
L 702.805844 489.77122 
L 702.805844 492.388693 
L 703.211812 491.053869 
L 703.719301 491.203272 
L 703.922346 492.316953 
L 704.12539 492.303909 
L 704.328313 491.203272 
L 704.429835 492.284343 
L 705.343413 489.608172 
L 705.952425 490.877778 
L 706.764481 492.13434 
L 706.967526 490.812559 
L 707.373493 490.786471 
L 707.475015 491.203272 
L 707.982505 492.056077 
L 707.982505 492.056077 
L 708.490116 489.405994 
L 708.490116 491.203272 
L 710.114107 491.203272 
L 710.215629 490.603857 
L 710.215629 491.203272 
L 710.72324 491.879986 
L 710.926163 491.203272 
L 711.027685 491.86042 
L 711.129207 489.236425 
L 711.535296 491.203272 
L 711.738219 491.203272 
L 712.144308 491.788679 
L 713.057765 491.203272 
L 713.159287 491.72346 
L 713.463853 491.203272 
L 713.869821 491.203272 
L 714.174387 491.658241 
L 714.275909 491.203272 
L 714.377432 491.645197 
L 714.580355 491.203272 
L 716.813479 491.203272 
L 716.813479 491.203272 
L 717.219567 491.462584 
L 717.625535 491.203272 
L 717.625535 491.203272 
L 718.234547 488.77989 
L 718.336069 491.390843 
L 718.539113 491.203272 
L 718.539113 491.203272 
L 722.294827 491.203272 
L 722.294827 492.445226 
L 722.700795 492.419139 
L 723.005361 491.203272 
L 723.005361 491.203272 
L 723.309806 491.203272 
L 723.309806 491.07127 
L 723.614373 491.203272 
L 723.817417 492.347398 
L 724.324907 492.314788 
L 724.426429 491.203272 
L 726.761075 491.203272 
L 726.862597 492.151741 
L 727.065521 491.203272 
L 727.268565 492.125653 
L 727.370087 490.810394 
L 727.471609 492.112609 
L 728.182143 491.203272 
L 728.994199 491.203272 
L 729.0956 492.008259 
L 729.907656 491.956084 
L 730.212223 490.627781 
L 730.516789 491.203272 
L 730.61819 490.601694 
L 730.922757 491.203272 
L 732.242302 491.203272 
L 732.546869 491.786514 
L 732.749792 490.464734 
L 733.155881 491.747383 
L 733.358925 491.734339 
L 733.358925 491.203272 
L 733.66337 491.203272 
L 733.866415 491.70173 
L 733.967937 491.695208 
L 733.967937 491.203272 
L 734.069459 491.688686 
L 734.678471 491.203272 
L 734.982916 490.321252 
L 735.18596 491.203272 
L 735.69345 491.203272 
L 735.896494 490.262554 
L 735.998016 491.203272 
L 735.998016 491.203272 
L 736.302583 491.545205 
L 736.70855 491.203272 
L 737.520606 491.466941 
L 737.926574 491.203272 
L 738.73863 491.203272 
L 738.941674 491.375635 
L 739.246241 491.203272 
L 739.246241 491.203272 
L 739.75373 491.32346 
L 740.26122 489.982112 
L 740.26122 489.982112 
L 740.362742 491.203272 
L 740.565787 491.271285 
L 741.479244 491.203272 
L 741.580766 488.588592 
L 741.78381 491.203272 
L 742.697388 489.825587 
L 742.900433 492.430018 
L 743.204878 491.101715 
L 743.204878 492.410452 
L 743.3064 489.786457 
L 743.712368 491.203272 
L 745.032035 490.984321 
L 745.945492 491.203272 
L 747.163636 491.203272 
L 747.163636 491.203272 
" clip-path="url(#p36e8fb325f)" style="fill: none; stroke: #1f77b4; stroke-width: 2; stroke-linecap: square"/>
   </g>
   <g id="line2d_30">
    <path d="M 138.436364 491.330976 
L 164.929225 490.757756 
L 186.54987 490.072074 
L 204.617785 489.282394 
L 220.148131 488.388641 
L 233.85132 487.384142 
L 246.133502 486.265592 
L 257.096017 485.051618 
L 266.739047 483.780258 
L 275.976049 482.349823 
L 284.806962 480.753444 
L 292.724418 479.100507 
L 300.032802 477.360314 
L 306.935158 475.501273 
L 313.634469 473.470171 
L 320.333841 471.186875 
L 325.612145 469.189293 
L 331.803967 466.597224 
L 336.676182 464.349272 
L 342.461976 461.415987 
L 347.131268 458.819604 
L 351.191428 456.380432 
L 351.191428 456.380432 
L 356.36821 453.003919 
L 361.037442 449.679558 
L 365.706734 446.066262 
L 369.969937 442.493123 
L 374.334663 438.541018 
L 378.293361 434.678682 
L 382.252059 430.531614 
L 386.819829 425.364395 
L 390.880049 420.399865 
L 394.432719 415.747204 
L 398.5944 409.902653 
L 402.045608 404.710222 
L 402.045608 404.710222 
L 406.511856 397.489418 
L 410.064526 391.31215 
L 413.515674 384.916744 
L 417.37291 377.276245 
L 417.37291 377.276245 
L 420.41809 370.853091 
L 424.478249 361.71368 
L 424.478249 361.71368 
L 428.132441 352.887246 
L 431.583649 343.990753 
L 435.542347 333.068459 
L 437.673949 326.849537 
L 438.079977 244.969131 
L 438.181499 245.604789 
L 441.023635 262.665706 
L 441.023635 262.665706 
L 444.068754 279.470737 
L 446.504923 291.908947 
L 449.144014 304.456049 
L 452.392239 318.684869 
L 454.828407 328.548623 
L 458.279554 341.442977 
L 458.279554 341.442977 
L 460.512678 349.164956 
L 463.963826 360.222848 
L 466.805962 368.595245 
L 469.445174 375.82644 
L 472.7948 384.312935 
L 472.7948 384.312935 
L 475.941502 391.640534 
L 475.941502 391.640534 
L 478.986561 398.188852 
L 482.234785 404.63667 
L 485.48301 410.577254 
L 488.731113 416.054928 
L 492.080739 421.261602 
L 495.430485 426.058533 
L 498.983155 430.73815 
L 502.231379 434.681497 
L 505.784049 438.66035 
L 505.784049 438.66035 
L 509.742686 442.719855 
L 512.787866 445.598251 
L 517.05107 449.304327 
L 517.05107 449.304327 
L 520.806784 452.284581 
L 525.17151 455.446757 
L 529.637758 458.381004 
L 533.494994 460.694287 
L 538.976221 463.667081 
L 543.645513 465.939831 
L 549.025219 468.296759 
L 554.202001 470.330397 
L 554.202001 470.330397 
L 560.190839 472.431003 
L 565.773588 474.175032 
L 572.777526 476.109203 
L 579.984388 477.8449 
L 579.984388 477.8449 
L 587.394294 479.39961 
L 595.717657 480.910302 
L 604.244185 482.239757 
L 613.582649 483.484324 
L 624.443702 484.702432 
L 636.319856 485.805416 
L 650.023046 486.842302 
L 665.248825 487.76381 
L 682.910773 488.602095 
L 703.211812 489.33951 
L 727.471609 489.994411 
L 747.163636 490.396467 
L 747.163636 490.396467 
" clip-path="url(#p36e8fb325f)" style="fill: none; stroke: #ff7f0e; stroke-width: 2; stroke-linecap: square"/>
   </g>
   <g id="patch_3">
    <path d="M 108 512.64 
L 108 69.12 
" style="fill: none; stroke: #000000; stroke-width: 0.8; stroke-linejoin: miter; stroke-linecap: square"/>
   </g>
   <g id="patch_4">
    <path d="M 777.6 512.64 
L 777.6 69.12 
" style="fill: none; stroke: #000000; stroke-width: 0.8; stroke-linejoin: miter; stroke-linecap: square"/>
   </g>
   <g id="patch_5">
    <path d="M 108 512.64 
L 777.6 512.64 
" style="fill: none; stroke: #000000; stroke-width: 0.8; stroke-linejoin: miter; stroke-linecap: square"/>
   </g>
   <g id="patch_6">
    <path d="M 108 69.12 
L 777.6 69.12 
" style="fill: none; stroke: #000000; stroke-width: 0.8; stroke-linejoin: miter; stroke-linecap: square"/>
   </g>
   <g id="text_17">
    <!-- Price by Spot/Strike ratio. Moneyness=1.1 -->
    <g transform="translate(232.173438 63.12) scale(0.2 -0.2)">
     <defs>
      <path id="DejaVuSans-62" d="M 3116 1747 
Q 3116 2381 2855 2742 
Q 2594 3103 2138 3103 
Q 1681 3103 1420 2742 
Q 1159 2381 1159 1747 
Q 1159 1113 1420 752 
Q 1681 391 2138 391 
Q 2594 391 2855 752 
Q 3116 1113 3116 1747 
z
M 1159 2969 
Q 1341 3281 1617 3432 
Q 1894 3584 2278 3584 
Q 2916 3584 3314 3078 
Q 3713 2572 3713 1747 
Q 3713 922 3314 415 
Q 2916 -91 2278 -91 
Q 1894 -91 1617 61 
Q 1341 213 1159 525 
L 1159 0 
L 581 0 
L 581 4863 
L 1159 4863 
L 1159 2969 
z
" transform="scale(0.015625)"/>
      <path id="DejaVuSans-79" d="M 2059 -325 
Q 1816 -950 1584 -1140 
Q 1353 -1331 966 -1331 
L 506 -1331 
L 506 -850 
L 844 -850 
Q 1081 -850 1212 -737 
Q 1344 -625 1503 -206 
L 1606 56 
L 191 3500 
L 800 3500 
L 1894 763 
L 2988 3500 
L 3597 3500 
L 2059 -325 
z
" transform="scale(0.015625)"/>
      <path id="DejaVuSans-4d" d="M 628 4666 
L 1569 4666 
L 2759 1491 
L 3956 4666 
L 4897 4666 
L 4897 0 
L 4281 0 
L 4281 4097 
L 3078 897 
L 2444 897 
L 1241 4097 
L 1241 0 
L 628 0 
L 628 4666 
z
" transform="scale(0.015625)"/>
      <path id="DejaVuSans-6e" d="M 3513 2113 
L 3513 0 
L 2938 0 
L 2938 2094 
Q 2938 2591 2744 2837 
Q 2550 3084 2163 3084 
Q 1697 3084 1428 2787 
Q 1159 2491 1159 1978 
L 1159 0 
L 581 0 
L 581 3500 
L 1159 3500 
L 1159 2956 
Q 1366 3272 1645 3428 
Q 1925 3584 2291 3584 
Q 2894 3584 3203 3211 
Q 3513 2838 3513 2113 
z
" transform="scale(0.015625)"/>
      <path id="DejaVuSans-3d" d="M 678 2906 
L 4684 2906 
L 4684 2381 
L 678 2381 
L 678 2906 
z
M 678 1631 
L 4684 1631 
L 4684 1100 
L 678 1100 
L 678 1631 
z
" transform="scale(0.015625)"/>
     </defs>
     <use xlink:href="#DejaVuSans-50"/>
     <use xlink:href="#DejaVuSans-72" x="58.552734"/>
     <use xlink:href="#DejaVuSans-69" x="99.666016"/>
     <use xlink:href="#DejaVuSans-63" x="127.449219"/>
     <use xlink:href="#DejaVuSans-65" x="182.429688"/>
     <use xlink:href="#DejaVuSans-20" x="243.953125"/>
     <use xlink:href="#DejaVuSans-62" x="275.740234"/>
     <use xlink:href="#DejaVuSans-79" x="339.216797"/>
     <use xlink:href="#DejaVuSans-20" x="398.396484"/>
     <use xlink:href="#DejaVuSans-53" x="430.183594"/>
     <use xlink:href="#DejaVuSans-70" x="493.660156"/>
     <use xlink:href="#DejaVuSans-6f" x="557.136719"/>
     <use xlink:href="#DejaVuSans-74" x="618.318359"/>
     <use xlink:href="#DejaVuSans-2f" x="657.527344"/>
     <use xlink:href="#DejaVuSans-53" x="691.21875"/>
     <use xlink:href="#DejaVuSans-74" x="754.695312"/>
     <use xlink:href="#DejaVuSans-72" x="793.904297"/>
     <use xlink:href="#DejaVuSans-69" x="835.017578"/>
     <use xlink:href="#DejaVuSans-6b" x="862.800781"/>
     <use xlink:href="#DejaVuSans-65" x="917.085938"/>
     <use xlink:href="#DejaVuSans-20" x="978.609375"/>
     <use xlink:href="#DejaVuSans-72" x="1010.396484"/>
     <use xlink:href="#DejaVuSans-61" x="1051.509766"/>
     <use xlink:href="#DejaVuSans-74" x="1112.789062"/>
     <use xlink:href="#DejaVuSans-69" x="1151.998047"/>
     <use xlink:href="#DejaVuSans-6f" x="1179.78125"/>
     <use xlink:href="#DejaVuSans-2e" x="1239.212891"/>
     <use xlink:href="#DejaVuSans-20" x="1271"/>
     <use xlink:href="#DejaVuSans-4d" x="1302.787109"/>
     <use xlink:href="#DejaVuSans-6f" x="1389.066406"/>
     <use xlink:href="#DejaVuSans-6e" x="1450.248047"/>
     <use xlink:href="#DejaVuSans-65" x="1513.626953"/>
     <use xlink:href="#DejaVuSans-79" x="1575.150391"/>
     <use xlink:href="#DejaVuSans-6e" x="1634.330078"/>
     <use xlink:href="#DejaVuSans-65" x="1697.708984"/>
     <use xlink:href="#DejaVuSans-73" x="1759.232422"/>
     <use xlink:href="#DejaVuSans-73" x="1811.332031"/>
     <use xlink:href="#DejaVuSans-3d" x="1863.431641"/>
     <use xlink:href="#DejaVuSans-31" x="1947.220703"/>
     <use xlink:href="#DejaVuSans-2e" x="2010.84375"/>
     <use xlink:href="#DejaVuSans-31" x="2042.630859"/>
    </g>
   </g>
   <g id="legend_1">
    <g id="patch_7">
     <path d="M 598.581563 136.36125 
L 765 136.36125 
Q 768.6 136.36125 768.6 132.76125 
L 768.6 81.72 
Q 768.6 78.12 765 78.12 
L 598.581563 78.12 
Q 594.981563 78.12 594.981563 81.72 
L 594.981563 132.76125 
Q 594.981563 136.36125 598.581563 136.36125 
z
" style="fill: #ffffff; opacity: 0.8; stroke: #cccccc; stroke-linejoin: miter"/>
    </g>
    <g id="line2d_31">
     <path d="M 602.181563 92.697188 
L 620.181563 92.697188 
L 638.181563 92.697188 
" style="fill: none; stroke: #1f77b4; stroke-width: 2; stroke-linecap: square"/>
    </g>
    <g id="text_18">
     <!-- Monte Carlo -->
     <g transform="translate(652.581563 98.997188) scale(0.18 -0.18)">
      <defs>
       <path id="DejaVuSans-43" d="M 4122 4306 
L 4122 3641 
Q 3803 3938 3442 4084 
Q 3081 4231 2675 4231 
Q 1875 4231 1450 3742 
Q 1025 3253 1025 2328 
Q 1025 1406 1450 917 
Q 1875 428 2675 428 
Q 3081 428 3442 575 
Q 3803 722 4122 1019 
L 4122 359 
Q 3791 134 3420 21 
Q 3050 -91 2638 -91 
Q 1578 -91 968 557 
Q 359 1206 359 2328 
Q 359 3453 968 4101 
Q 1578 4750 2638 4750 
Q 3056 4750 3426 4639 
Q 3797 4528 4122 4306 
z
" transform="scale(0.015625)"/>
       <path id="DejaVuSans-6c" d="M 603 4863 
L 1178 4863 
L 1178 0 
L 603 0 
L 603 4863 
z
" transform="scale(0.015625)"/>
      </defs>
      <use xlink:href="#DejaVuSans-4d"/>
      <use xlink:href="#DejaVuSans-6f" x="86.279297"/>
      <use xlink:href="#DejaVuSans-6e" x="147.460938"/>
      <use xlink:href="#DejaVuSans-74" x="210.839844"/>
      <use xlink:href="#DejaVuSans-65" x="250.048828"/>
      <use xlink:href="#DejaVuSans-20" x="311.572266"/>
      <use xlink:href="#DejaVuSans-43" x="343.359375"/>
      <use xlink:href="#DejaVuSans-61" x="413.183594"/>
      <use xlink:href="#DejaVuSans-72" x="474.462891"/>
      <use xlink:href="#DejaVuSans-6c" x="515.576172"/>
      <use xlink:href="#DejaVuSans-6f" x="543.359375"/>
     </g>
    </g>
    <g id="line2d_32">
     <path d="M 602.181563 119.117813 
L 620.181563 119.117813 
L 638.181563 119.117813 
" style="fill: none; stroke: #ff7f0e; stroke-width: 2; stroke-linecap: square"/>
    </g>
    <g id="text_19">
     <!-- Positive net -->
     <g transform="translate(652.581563 125.417813) scale(0.18 -0.18)">
      <defs>
       <path id="DejaVuSans-76" d="M 191 3500 
L 800 3500 
L 1894 563 
L 2988 3500 
L 3597 3500 
L 2284 0 
L 1503 0 
L 191 3500 
z
" transform="scale(0.015625)"/>
      </defs>
      <use xlink:href="#DejaVuSans-50"/>
      <use xlink:href="#DejaVuSans-6f" x="56.677734"/>
      <use xlink:href="#DejaVuSans-73" x="117.859375"/>
      <use xlink:href="#DejaVuSans-69" x="169.958984"/>
      <use xlink:href="#DejaVuSans-74" x="197.742188"/>
      <use xlink:href="#DejaVuSans-69" x="236.951172"/>
      <use xlink:href="#DejaVuSans-76" x="264.734375"/>
      <use xlink:href="#DejaVuSans-65" x="323.914062"/>
      <use xlink:href="#DejaVuSans-20" x="385.4375"/>
      <use xlink:href="#DejaVuSans-6e" x="417.224609"/>
      <use xlink:href="#DejaVuSans-65" x="480.603516"/>
      <use xlink:href="#DejaVuSans-74" x="542.126953"/>
     </g>
    </g>
   </g>
  </g>
 </g>
 <defs>
  <clipPath id="p36e8fb325f">
   <rect x="108" y="69.12" width="669.6" height="443.52"/>
  </clipPath>
 </defs>
</svg>
