<?xml version="1.0" encoding="utf-8" standalone="no"?>
<!DOCTYPE svg PUBLIC "-//W3C//DTD SVG 1.1//EN"
  "http://www.w3.org/Graphics/SVG/1.1/DTD/svg11.dtd">
<svg xmlns:xlink="http://www.w3.org/1999/xlink" width="864pt" height="576pt" viewBox="0 0 864 576" xmlns="http://www.w3.org/2000/svg" version="1.1">
 <metadata>
  <rdf:RDF xmlns:dc="http://purl.org/dc/elements/1.1/" xmlns:cc="http://creativecommons.org/ns#" xmlns:rdf="http://www.w3.org/1999/02/22-rdf-syntax-ns#">
   <cc:Work>
    <dc:type rdf:resource="http://purl.org/dc/dcmitype/StillImage"/>
    <dc:date>2024-03-10T14:06:29.033030</dc:date>
    <dc:format>image/svg+xml</dc:format>
    <dc:creator>
     <cc:Agent>
      <dc:title>Matplotlib v3.7.3, https://matplotlib.org/</dc:title>
     </cc:Agent>
    </dc:creator>
   </cc:Work>
  </rdf:RDF>
 </metadata>
 <defs>
  <style type="text/css">*{stroke-linejoin: round; stroke-linecap: butt}</style>
 </defs>
 <g id="figure_1">
  <g id="patch_1">
   <path d="M 0 576 
L 864 576 
L 864 0 
L 0 0 
z
" style="fill: #ffffff"/>
  </g>
  <g id="axes_1">
   <g id="patch_2">
    <path d="M 108 512.64 
L 777.6 512.64 
L 777.6 69.12 
L 108 69.12 
z
" style="fill: #ffffff"/>
   </g>
   <g id="matplotlib.axis_1">
    <g id="xtick_1">
     <g id="line2d_1">
      <path d="M 223.570488 512.64 
L 223.570488 69.12 
" clip-path="url(#pb300d589b4)" style="fill: none; stroke: #b0b0b0; stroke-width: 0.8; stroke-linecap: square"/>
     </g>
     <g id="line2d_2">
      <defs>
       <path id="mb0a3f4e4aa" d="M 0 0 
L 0 3.5 
" style="stroke: #000000; stroke-width: 0.8"/>
      </defs>
      <g>
       <use xlink:href="#mb0a3f4e4aa" x="223.570488" y="512.64" style="stroke: #000000; stroke-width: 0.8"/>
      </g>
     </g>
     <g id="text_1">
      <!-- 0.1 -->
      <g transform="translate(215.618926 527.238438) scale(0.1 -0.1)">
       <defs>
        <path id="DejaVuSans-30" d="M 2034 4250 
Q 1547 4250 1301 3770 
Q 1056 3291 1056 2328 
Q 1056 1369 1301 889 
Q 1547 409 2034 409 
Q 2525 409 2770 889 
Q 3016 1369 3016 2328 
Q 3016 3291 2770 3770 
Q 2525 4250 2034 4250 
z
M 2034 4750 
Q 2819 4750 3233 4129 
Q 3647 3509 3647 2328 
Q 3647 1150 3233 529 
Q 2819 -91 2034 -91 
Q 1250 -91 836 529 
Q 422 1150 422 2328 
Q 422 3509 836 4129 
Q 1250 4750 2034 4750 
z
" transform="scale(0.015625)"/>
        <path id="DejaVuSans-2e" d="M 684 794 
L 1344 794 
L 1344 0 
L 684 0 
L 684 794 
z
" transform="scale(0.015625)"/>
        <path id="DejaVuSans-31" d="M 794 531 
L 1825 531 
L 1825 4091 
L 703 3866 
L 703 4441 
L 1819 4666 
L 2450 4666 
L 2450 531 
L 3481 531 
L 3481 0 
L 794 0 
L 794 531 
z
" transform="scale(0.015625)"/>
       </defs>
       <use xlink:href="#DejaVuSans-30"/>
       <use xlink:href="#DejaVuSans-2e" x="63.623047"/>
       <use xlink:href="#DejaVuSans-31" x="95.410156"/>
      </g>
     </g>
    </g>
    <g id="xtick_2">
     <g id="line2d_3">
      <path d="M 345.364657 512.64 
L 345.364657 69.12 
" clip-path="url(#pb300d589b4)" style="fill: none; stroke: #b0b0b0; stroke-width: 0.8; stroke-linecap: square"/>
     </g>
     <g id="line2d_4">
      <g>
       <use xlink:href="#mb0a3f4e4aa" x="345.364657" y="512.64" style="stroke: #000000; stroke-width: 0.8"/>
      </g>
     </g>
     <g id="text_2">
      <!-- 0.2 -->
      <g transform="translate(337.413094 527.238438) scale(0.1 -0.1)">
       <defs>
        <path id="DejaVuSans-32" d="M 1228 531 
L 3431 531 
L 3431 0 
L 469 0 
L 469 531 
Q 828 903 1448 1529 
Q 2069 2156 2228 2338 
Q 2531 2678 2651 2914 
Q 2772 3150 2772 3378 
Q 2772 3750 2511 3984 
Q 2250 4219 1831 4219 
Q 1534 4219 1204 4116 
Q 875 4013 500 3803 
L 500 4441 
Q 881 4594 1212 4672 
Q 1544 4750 1819 4750 
Q 2544 4750 2975 4387 
Q 3406 4025 3406 3419 
Q 3406 3131 3298 2873 
Q 3191 2616 2906 2266 
Q 2828 2175 2409 1742 
Q 1991 1309 1228 531 
z
" transform="scale(0.015625)"/>
       </defs>
       <use xlink:href="#DejaVuSans-30"/>
       <use xlink:href="#DejaVuSans-2e" x="63.623047"/>
       <use xlink:href="#DejaVuSans-32" x="95.410156"/>
      </g>
     </g>
    </g>
    <g id="xtick_3">
     <g id="line2d_5">
      <path d="M 467.158825 512.64 
L 467.158825 69.12 
" clip-path="url(#pb300d589b4)" style="fill: none; stroke: #b0b0b0; stroke-width: 0.8; stroke-linecap: square"/>
     </g>
     <g id="line2d_6">
      <g>
       <use xlink:href="#mb0a3f4e4aa" x="467.158825" y="512.64" style="stroke: #000000; stroke-width: 0.8"/>
      </g>
     </g>
     <g id="text_3">
      <!-- 0.3 -->
      <g transform="translate(459.207263 527.238438) scale(0.1 -0.1)">
       <defs>
        <path id="DejaVuSans-33" d="M 2597 2516 
Q 3050 2419 3304 2112 
Q 3559 1806 3559 1356 
Q 3559 666 3084 287 
Q 2609 -91 1734 -91 
Q 1441 -91 1130 -33 
Q 819 25 488 141 
L 488 750 
Q 750 597 1062 519 
Q 1375 441 1716 441 
Q 2309 441 2620 675 
Q 2931 909 2931 1356 
Q 2931 1769 2642 2001 
Q 2353 2234 1838 2234 
L 1294 2234 
L 1294 2753 
L 1863 2753 
Q 2328 2753 2575 2939 
Q 2822 3125 2822 3475 
Q 2822 3834 2567 4026 
Q 2313 4219 1838 4219 
Q 1578 4219 1281 4162 
Q 984 4106 628 3988 
L 628 4550 
Q 988 4650 1302 4700 
Q 1616 4750 1894 4750 
Q 2613 4750 3031 4423 
Q 3450 4097 3450 3541 
Q 3450 3153 3228 2886 
Q 3006 2619 2597 2516 
z
" transform="scale(0.015625)"/>
       </defs>
       <use xlink:href="#DejaVuSans-30"/>
       <use xlink:href="#DejaVuSans-2e" x="63.623047"/>
       <use xlink:href="#DejaVuSans-33" x="95.410156"/>
      </g>
     </g>
    </g>
    <g id="xtick_4">
     <g id="line2d_7">
      <path d="M 588.952994 512.64 
L 588.952994 69.12 
" clip-path="url(#pb300d589b4)" style="fill: none; stroke: #b0b0b0; stroke-width: 0.8; stroke-linecap: square"/>
     </g>
     <g id="line2d_8">
      <g>
       <use xlink:href="#mb0a3f4e4aa" x="588.952994" y="512.64" style="stroke: #000000; stroke-width: 0.8"/>
      </g>
     </g>
     <g id="text_4">
      <!-- 0.4 -->
      <g transform="translate(581.001431 527.238438) scale(0.1 -0.1)">
       <defs>
        <path id="DejaVuSans-34" d="M 2419 4116 
L 825 1625 
L 2419 1625 
L 2419 4116 
z
M 2253 4666 
L 3047 4666 
L 3047 1625 
L 3713 1625 
L 3713 1100 
L 3047 1100 
L 3047 0 
L 2419 0 
L 2419 1100 
L 313 1100 
L 313 1709 
L 2253 4666 
z
" transform="scale(0.015625)"/>
       </defs>
       <use xlink:href="#DejaVuSans-30"/>
       <use xlink:href="#DejaVuSans-2e" x="63.623047"/>
       <use xlink:href="#DejaVuSans-34" x="95.410156"/>
      </g>
     </g>
    </g>
    <g id="xtick_5">
     <g id="line2d_9">
      <path d="M 710.747162 512.64 
L 710.747162 69.12 
" clip-path="url(#pb300d589b4)" style="fill: none; stroke: #b0b0b0; stroke-width: 0.8; stroke-linecap: square"/>
     </g>
     <g id="line2d_10">
      <g>
       <use xlink:href="#mb0a3f4e4aa" x="710.747162" y="512.64" style="stroke: #000000; stroke-width: 0.8"/>
      </g>
     </g>
     <g id="text_5">
      <!-- 0.5 -->
      <g transform="translate(702.7956 527.238438) scale(0.1 -0.1)">
       <defs>
        <path id="DejaVuSans-35" d="M 691 4666 
L 3169 4666 
L 3169 4134 
L 1269 4134 
L 1269 2991 
Q 1406 3038 1543 3061 
Q 1681 3084 1819 3084 
Q 2600 3084 3056 2656 
Q 3513 2228 3513 1497 
Q 3513 744 3044 326 
Q 2575 -91 1722 -91 
Q 1428 -91 1123 -41 
Q 819 9 494 109 
L 494 744 
Q 775 591 1075 516 
Q 1375 441 1709 441 
Q 2250 441 2565 725 
Q 2881 1009 2881 1497 
Q 2881 1984 2565 2268 
Q 2250 2553 1709 2553 
Q 1456 2553 1204 2497 
Q 953 2441 691 2322 
L 691 4666 
z
" transform="scale(0.015625)"/>
       </defs>
       <use xlink:href="#DejaVuSans-30"/>
       <use xlink:href="#DejaVuSans-2e" x="63.623047"/>
       <use xlink:href="#DejaVuSans-35" x="95.410156"/>
      </g>
     </g>
    </g>
    <g id="text_6">
     <!-- TTM -->
     <g transform="translate(424.198125 546.995312) scale(0.18 -0.18)">
      <defs>
       <path id="DejaVuSans-54" d="M -19 4666 
L 3928 4666 
L 3928 4134 
L 2272 4134 
L 2272 0 
L 1638 0 
L 1638 4134 
L -19 4134 
L -19 4666 
z
" transform="scale(0.015625)"/>
       <path id="DejaVuSans-4d" d="M 628 4666 
L 1569 4666 
L 2759 1491 
L 3956 4666 
L 4897 4666 
L 4897 0 
L 4281 0 
L 4281 4097 
L 3078 897 
L 2444 897 
L 1241 4097 
L 1241 0 
L 628 0 
L 628 4666 
z
" transform="scale(0.015625)"/>
      </defs>
      <use xlink:href="#DejaVuSans-54"/>
      <use xlink:href="#DejaVuSans-54" x="59.333984"/>
      <use xlink:href="#DejaVuSans-4d" x="120.417969"/>
     </g>
    </g>
   </g>
   <g id="matplotlib.axis_2">
    <g id="ytick_1">
     <g id="line2d_11">
      <path d="M 108 492.501121 
L 777.6 492.501121 
" clip-path="url(#pb300d589b4)" style="fill: none; stroke: #b0b0b0; stroke-width: 0.8; stroke-linecap: square"/>
     </g>
     <g id="line2d_12">
      <defs>
       <path id="m5037d0384f" d="M 0 0 
L -3.5 0 
" style="stroke: #000000; stroke-width: 0.8"/>
      </defs>
      <g>
       <use xlink:href="#m5037d0384f" x="108" y="492.501121" style="stroke: #000000; stroke-width: 0.8"/>
      </g>
     </g>
     <g id="text_7">
      <!-- 0.000 -->
      <g transform="translate(72.371875 496.300339) scale(0.1 -0.1)">
       <use xlink:href="#DejaVuSans-30"/>
       <use xlink:href="#DejaVuSans-2e" x="63.623047"/>
       <use xlink:href="#DejaVuSans-30" x="95.410156"/>
       <use xlink:href="#DejaVuSans-30" x="159.033203"/>
       <use xlink:href="#DejaVuSans-30" x="222.65625"/>
      </g>
     </g>
    </g>
    <g id="ytick_2">
     <g id="line2d_13">
      <path d="M 108 436.433466 
L 777.6 436.433466 
" clip-path="url(#pb300d589b4)" style="fill: none; stroke: #b0b0b0; stroke-width: 0.8; stroke-linecap: square"/>
     </g>
     <g id="line2d_14">
      <g>
       <use xlink:href="#m5037d0384f" x="108" y="436.433466" style="stroke: #000000; stroke-width: 0.8"/>
      </g>
     </g>
     <g id="text_8">
      <!-- 0.002 -->
      <g transform="translate(72.371875 440.232685) scale(0.1 -0.1)">
       <use xlink:href="#DejaVuSans-30"/>
       <use xlink:href="#DejaVuSans-2e" x="63.623047"/>
       <use xlink:href="#DejaVuSans-30" x="95.410156"/>
       <use xlink:href="#DejaVuSans-30" x="159.033203"/>
       <use xlink:href="#DejaVuSans-32" x="222.65625"/>
      </g>
     </g>
    </g>
    <g id="ytick_3">
     <g id="line2d_15">
      <path d="M 108 380.365812 
L 777.6 380.365812 
" clip-path="url(#pb300d589b4)" style="fill: none; stroke: #b0b0b0; stroke-width: 0.8; stroke-linecap: square"/>
     </g>
     <g id="line2d_16">
      <g>
       <use xlink:href="#m5037d0384f" x="108" y="380.365812" style="stroke: #000000; stroke-width: 0.8"/>
      </g>
     </g>
     <g id="text_9">
      <!-- 0.004 -->
      <g transform="translate(72.371875 384.16503) scale(0.1 -0.1)">
       <use xlink:href="#DejaVuSans-30"/>
       <use xlink:href="#DejaVuSans-2e" x="63.623047"/>
       <use xlink:href="#DejaVuSans-30" x="95.410156"/>
       <use xlink:href="#DejaVuSans-30" x="159.033203"/>
       <use xlink:href="#DejaVuSans-34" x="222.65625"/>
      </g>
     </g>
    </g>
    <g id="ytick_4">
     <g id="line2d_17">
      <path d="M 108 324.298157 
L 777.6 324.298157 
" clip-path="url(#pb300d589b4)" style="fill: none; stroke: #b0b0b0; stroke-width: 0.8; stroke-linecap: square"/>
     </g>
     <g id="line2d_18">
      <g>
       <use xlink:href="#m5037d0384f" x="108" y="324.298157" style="stroke: #000000; stroke-width: 0.8"/>
      </g>
     </g>
     <g id="text_10">
      <!-- 0.006 -->
      <g transform="translate(72.371875 328.097376) scale(0.1 -0.1)">
       <defs>
        <path id="DejaVuSans-36" d="M 2113 2584 
Q 1688 2584 1439 2293 
Q 1191 2003 1191 1497 
Q 1191 994 1439 701 
Q 1688 409 2113 409 
Q 2538 409 2786 701 
Q 3034 994 3034 1497 
Q 3034 2003 2786 2293 
Q 2538 2584 2113 2584 
z
M 3366 4563 
L 3366 3988 
Q 3128 4100 2886 4159 
Q 2644 4219 2406 4219 
Q 1781 4219 1451 3797 
Q 1122 3375 1075 2522 
Q 1259 2794 1537 2939 
Q 1816 3084 2150 3084 
Q 2853 3084 3261 2657 
Q 3669 2231 3669 1497 
Q 3669 778 3244 343 
Q 2819 -91 2113 -91 
Q 1303 -91 875 529 
Q 447 1150 447 2328 
Q 447 3434 972 4092 
Q 1497 4750 2381 4750 
Q 2619 4750 2861 4703 
Q 3103 4656 3366 4563 
z
" transform="scale(0.015625)"/>
       </defs>
       <use xlink:href="#DejaVuSans-30"/>
       <use xlink:href="#DejaVuSans-2e" x="63.623047"/>
       <use xlink:href="#DejaVuSans-30" x="95.410156"/>
       <use xlink:href="#DejaVuSans-30" x="159.033203"/>
       <use xlink:href="#DejaVuSans-36" x="222.65625"/>
      </g>
     </g>
    </g>
    <g id="ytick_5">
     <g id="line2d_19">
      <path d="M 108 268.230502 
L 777.6 268.230502 
" clip-path="url(#pb300d589b4)" style="fill: none; stroke: #b0b0b0; stroke-width: 0.8; stroke-linecap: square"/>
     </g>
     <g id="line2d_20">
      <g>
       <use xlink:href="#m5037d0384f" x="108" y="268.230502" style="stroke: #000000; stroke-width: 0.8"/>
      </g>
     </g>
     <g id="text_11">
      <!-- 0.008 -->
      <g transform="translate(72.371875 272.029721) scale(0.1 -0.1)">
       <defs>
        <path id="DejaVuSans-38" d="M 2034 2216 
Q 1584 2216 1326 1975 
Q 1069 1734 1069 1313 
Q 1069 891 1326 650 
Q 1584 409 2034 409 
Q 2484 409 2743 651 
Q 3003 894 3003 1313 
Q 3003 1734 2745 1975 
Q 2488 2216 2034 2216 
z
M 1403 2484 
Q 997 2584 770 2862 
Q 544 3141 544 3541 
Q 544 4100 942 4425 
Q 1341 4750 2034 4750 
Q 2731 4750 3128 4425 
Q 3525 4100 3525 3541 
Q 3525 3141 3298 2862 
Q 3072 2584 2669 2484 
Q 3125 2378 3379 2068 
Q 3634 1759 3634 1313 
Q 3634 634 3220 271 
Q 2806 -91 2034 -91 
Q 1263 -91 848 271 
Q 434 634 434 1313 
Q 434 1759 690 2068 
Q 947 2378 1403 2484 
z
M 1172 3481 
Q 1172 3119 1398 2916 
Q 1625 2713 2034 2713 
Q 2441 2713 2670 2916 
Q 2900 3119 2900 3481 
Q 2900 3844 2670 4047 
Q 2441 4250 2034 4250 
Q 1625 4250 1398 4047 
Q 1172 3844 1172 3481 
z
" transform="scale(0.015625)"/>
       </defs>
       <use xlink:href="#DejaVuSans-30"/>
       <use xlink:href="#DejaVuSans-2e" x="63.623047"/>
       <use xlink:href="#DejaVuSans-30" x="95.410156"/>
       <use xlink:href="#DejaVuSans-30" x="159.033203"/>
       <use xlink:href="#DejaVuSans-38" x="222.65625"/>
      </g>
     </g>
    </g>
    <g id="ytick_6">
     <g id="line2d_21">
      <path d="M 108 212.162848 
L 777.6 212.162848 
" clip-path="url(#pb300d589b4)" style="fill: none; stroke: #b0b0b0; stroke-width: 0.8; stroke-linecap: square"/>
     </g>
     <g id="line2d_22">
      <g>
       <use xlink:href="#m5037d0384f" x="108" y="212.162848" style="stroke: #000000; stroke-width: 0.8"/>
      </g>
     </g>
     <g id="text_12">
      <!-- 0.010 -->
      <g transform="translate(72.371875 215.962067) scale(0.1 -0.1)">
       <use xlink:href="#DejaVuSans-30"/>
       <use xlink:href="#DejaVuSans-2e" x="63.623047"/>
       <use xlink:href="#DejaVuSans-30" x="95.410156"/>
       <use xlink:href="#DejaVuSans-31" x="159.033203"/>
       <use xlink:href="#DejaVuSans-30" x="222.65625"/>
      </g>
     </g>
    </g>
    <g id="ytick_7">
     <g id="line2d_23">
      <path d="M 108 156.095193 
L 777.6 156.095193 
" clip-path="url(#pb300d589b4)" style="fill: none; stroke: #b0b0b0; stroke-width: 0.8; stroke-linecap: square"/>
     </g>
     <g id="line2d_24">
      <g>
       <use xlink:href="#m5037d0384f" x="108" y="156.095193" style="stroke: #000000; stroke-width: 0.8"/>
      </g>
     </g>
     <g id="text_13">
      <!-- 0.012 -->
      <g transform="translate(72.371875 159.894412) scale(0.1 -0.1)">
       <use xlink:href="#DejaVuSans-30"/>
       <use xlink:href="#DejaVuSans-2e" x="63.623047"/>
       <use xlink:href="#DejaVuSans-30" x="95.410156"/>
       <use xlink:href="#DejaVuSans-31" x="159.033203"/>
       <use xlink:href="#DejaVuSans-32" x="222.65625"/>
      </g>
     </g>
    </g>
    <g id="ytick_8">
     <g id="line2d_25">
      <path d="M 108 100.027539 
L 777.6 100.027539 
" clip-path="url(#pb300d589b4)" style="fill: none; stroke: #b0b0b0; stroke-width: 0.8; stroke-linecap: square"/>
     </g>
     <g id="line2d_26">
      <g>
       <use xlink:href="#m5037d0384f" x="108" y="100.027539" style="stroke: #000000; stroke-width: 0.8"/>
      </g>
     </g>
     <g id="text_14">
      <!-- 0.014 -->
      <g transform="translate(72.371875 103.826758) scale(0.1 -0.1)">
       <use xlink:href="#DejaVuSans-30"/>
       <use xlink:href="#DejaVuSans-2e" x="63.623047"/>
       <use xlink:href="#DejaVuSans-30" x="95.410156"/>
       <use xlink:href="#DejaVuSans-31" x="159.033203"/>
       <use xlink:href="#DejaVuSans-34" x="222.65625"/>
      </g>
     </g>
    </g>
    <g id="text_15">
     <!-- Price/strike ratio -->
     <g transform="translate(64.628438 364.318594) rotate(-90) scale(0.18 -0.18)">
      <defs>
       <path id="DejaVuSans-50" d="M 1259 4147 
L 1259 2394 
L 2053 2394 
Q 2494 2394 2734 2622 
Q 2975 2850 2975 3272 
Q 2975 3691 2734 3919 
Q 2494 4147 2053 4147 
L 1259 4147 
z
M 628 4666 
L 2053 4666 
Q 2838 4666 3239 4311 
Q 3641 3956 3641 3272 
Q 3641 2581 3239 2228 
Q 2838 1875 2053 1875 
L 1259 1875 
L 1259 0 
L 628 0 
L 628 4666 
z
" transform="scale(0.015625)"/>
       <path id="DejaVuSans-72" d="M 2631 2963 
Q 2534 3019 2420 3045 
Q 2306 3072 2169 3072 
Q 1681 3072 1420 2755 
Q 1159 2438 1159 1844 
L 1159 0 
L 581 0 
L 581 3500 
L 1159 3500 
L 1159 2956 
Q 1341 3275 1631 3429 
Q 1922 3584 2338 3584 
Q 2397 3584 2469 3576 
Q 2541 3569 2628 3553 
L 2631 2963 
z
" transform="scale(0.015625)"/>
       <path id="DejaVuSans-69" d="M 603 3500 
L 1178 3500 
L 1178 0 
L 603 0 
L 603 3500 
z
M 603 4863 
L 1178 4863 
L 1178 4134 
L 603 4134 
L 603 4863 
z
" transform="scale(0.015625)"/>
       <path id="DejaVuSans-63" d="M 3122 3366 
L 3122 2828 
Q 2878 2963 2633 3030 
Q 2388 3097 2138 3097 
Q 1578 3097 1268 2742 
Q 959 2388 959 1747 
Q 959 1106 1268 751 
Q 1578 397 2138 397 
Q 2388 397 2633 464 
Q 2878 531 3122 666 
L 3122 134 
Q 2881 22 2623 -34 
Q 2366 -91 2075 -91 
Q 1284 -91 818 406 
Q 353 903 353 1747 
Q 353 2603 823 3093 
Q 1294 3584 2113 3584 
Q 2378 3584 2631 3529 
Q 2884 3475 3122 3366 
z
" transform="scale(0.015625)"/>
       <path id="DejaVuSans-65" d="M 3597 1894 
L 3597 1613 
L 953 1613 
Q 991 1019 1311 708 
Q 1631 397 2203 397 
Q 2534 397 2845 478 
Q 3156 559 3463 722 
L 3463 178 
Q 3153 47 2828 -22 
Q 2503 -91 2169 -91 
Q 1331 -91 842 396 
Q 353 884 353 1716 
Q 353 2575 817 3079 
Q 1281 3584 2069 3584 
Q 2775 3584 3186 3129 
Q 3597 2675 3597 1894 
z
M 3022 2063 
Q 3016 2534 2758 2815 
Q 2500 3097 2075 3097 
Q 1594 3097 1305 2825 
Q 1016 2553 972 2059 
L 3022 2063 
z
" transform="scale(0.015625)"/>
       <path id="DejaVuSans-2f" d="M 1625 4666 
L 2156 4666 
L 531 -594 
L 0 -594 
L 1625 4666 
z
" transform="scale(0.015625)"/>
       <path id="DejaVuSans-73" d="M 2834 3397 
L 2834 2853 
Q 2591 2978 2328 3040 
Q 2066 3103 1784 3103 
Q 1356 3103 1142 2972 
Q 928 2841 928 2578 
Q 928 2378 1081 2264 
Q 1234 2150 1697 2047 
L 1894 2003 
Q 2506 1872 2764 1633 
Q 3022 1394 3022 966 
Q 3022 478 2636 193 
Q 2250 -91 1575 -91 
Q 1294 -91 989 -36 
Q 684 19 347 128 
L 347 722 
Q 666 556 975 473 
Q 1284 391 1588 391 
Q 1994 391 2212 530 
Q 2431 669 2431 922 
Q 2431 1156 2273 1281 
Q 2116 1406 1581 1522 
L 1381 1569 
Q 847 1681 609 1914 
Q 372 2147 372 2553 
Q 372 3047 722 3315 
Q 1072 3584 1716 3584 
Q 2034 3584 2315 3537 
Q 2597 3491 2834 3397 
z
" transform="scale(0.015625)"/>
       <path id="DejaVuSans-74" d="M 1172 4494 
L 1172 3500 
L 2356 3500 
L 2356 3053 
L 1172 3053 
L 1172 1153 
Q 1172 725 1289 603 
Q 1406 481 1766 481 
L 2356 481 
L 2356 0 
L 1766 0 
Q 1100 0 847 248 
Q 594 497 594 1153 
L 594 3053 
L 172 3053 
L 172 3500 
L 594 3500 
L 594 4494 
L 1172 4494 
z
" transform="scale(0.015625)"/>
       <path id="DejaVuSans-6b" d="M 581 4863 
L 1159 4863 
L 1159 1991 
L 2875 3500 
L 3609 3500 
L 1753 1863 
L 3688 0 
L 2938 0 
L 1159 1709 
L 1159 0 
L 581 0 
L 581 4863 
z
" transform="scale(0.015625)"/>
       <path id="DejaVuSans-20" transform="scale(0.015625)"/>
       <path id="DejaVuSans-61" d="M 2194 1759 
Q 1497 1759 1228 1600 
Q 959 1441 959 1056 
Q 959 750 1161 570 
Q 1363 391 1709 391 
Q 2188 391 2477 730 
Q 2766 1069 2766 1631 
L 2766 1759 
L 2194 1759 
z
M 3341 1997 
L 3341 0 
L 2766 0 
L 2766 531 
Q 2569 213 2275 61 
Q 1981 -91 1556 -91 
Q 1019 -91 701 211 
Q 384 513 384 1019 
Q 384 1609 779 1909 
Q 1175 2209 1959 2209 
L 2766 2209 
L 2766 2266 
Q 2766 2663 2505 2880 
Q 2244 3097 1772 3097 
Q 1472 3097 1187 3025 
Q 903 2953 641 2809 
L 641 3341 
Q 956 3463 1253 3523 
Q 1550 3584 1831 3584 
Q 2591 3584 2966 3190 
Q 3341 2797 3341 1997 
z
" transform="scale(0.015625)"/>
       <path id="DejaVuSans-6f" d="M 1959 3097 
Q 1497 3097 1228 2736 
Q 959 2375 959 1747 
Q 959 1119 1226 758 
Q 1494 397 1959 397 
Q 2419 397 2687 759 
Q 2956 1122 2956 1747 
Q 2956 2369 2687 2733 
Q 2419 3097 1959 3097 
z
M 1959 3584 
Q 2709 3584 3137 3096 
Q 3566 2609 3566 1747 
Q 3566 888 3137 398 
Q 2709 -91 1959 -91 
Q 1206 -91 779 398 
Q 353 888 353 1747 
Q 353 2609 779 3096 
Q 1206 3584 1959 3584 
z
" transform="scale(0.015625)"/>
      </defs>
      <use xlink:href="#DejaVuSans-50"/>
      <use xlink:href="#DejaVuSans-72" x="58.552734"/>
      <use xlink:href="#DejaVuSans-69" x="99.666016"/>
      <use xlink:href="#DejaVuSans-63" x="127.449219"/>
      <use xlink:href="#DejaVuSans-65" x="182.429688"/>
      <use xlink:href="#DejaVuSans-2f" x="243.953125"/>
      <use xlink:href="#DejaVuSans-73" x="277.644531"/>
      <use xlink:href="#DejaVuSans-74" x="329.744141"/>
      <use xlink:href="#DejaVuSans-72" x="368.953125"/>
      <use xlink:href="#DejaVuSans-69" x="410.066406"/>
      <use xlink:href="#DejaVuSans-6b" x="437.849609"/>
      <use xlink:href="#DejaVuSans-65" x="492.134766"/>
      <use xlink:href="#DejaVuSans-20" x="553.658203"/>
      <use xlink:href="#DejaVuSans-72" x="585.445312"/>
      <use xlink:href="#DejaVuSans-61" x="626.558594"/>
      <use xlink:href="#DejaVuSans-74" x="687.837891"/>
      <use xlink:href="#DejaVuSans-69" x="727.046875"/>
      <use xlink:href="#DejaVuSans-6f" x="754.830078"/>
     </g>
    </g>
   </g>
   <g id="line2d_27">
    <path d="M 138.436364 491.843271 
L 139.532512 492.409738 
L 139.897896 489.697738 
L 142.090192 489.697738 
L 142.577367 491.179685 
L 142.577367 491.179685 
L 144.404279 492.12355 
L 145.378631 489.697738 
L 146.474779 489.697738 
L 146.961955 490.641412 
L 149.763222 492.088265 
L 150.250398 489.536486 
L 150.493986 492.465666 
L 150.615782 489.725183 
L 151.71193 489.697738 
L 151.71193 490.291251 
L 151.71193 489.697738 
L 151.955518 490.417039 
L 152.442694 489.697738 
L 152.686282 490.794392 
L 152.686282 490.794392 
L 152.92987 489.697738 
L 153.538842 491.234618 
L 153.538842 491.234618 
L 155.731138 492.366528 
L 156.096518 489.697738 
L 157.801638 489.697738 
L 158.045225 490.757783 
L 159.506758 491.512209 
L 159.872137 488.897422 
L 161.820845 489.903203 
L 162.064433 489.697738 
L 162.551609 490.280341 
L 164.378521 491.223119 
L 164.622113 488.545432 
L 165.231081 491.663048 
L 165.231081 488.859666 
L 165.474668 491.788737 
L 165.474668 491.788737 
L 166.083641 489.299573 
L 166.814404 492.48 
L 167.057992 489.697738 
L 167.423376 487.187427 
L 167.545173 490.053648 
L 168.884908 487.941443 
L 169.128496 485.263724 
L 169.615672 488.318429 
L 169.615672 488.318429 
L 169.737464 491.184641 
L 169.85926 488.444088 
L 169.981056 491.310299 
L 169.981056 488.506914 
L 170.346436 488.695398 
L 170.71182 491.687259 
L 171.442584 489.260821 
L 171.686172 486.583084 
L 171.686172 486.583084 
L 171.807968 489.449289 
L 172.660528 489.889028 
L 172.78232 487.148462 
L 173.025908 484.470717 
L 173.513084 487.525365 
L 173.513084 490.328746 
L 173.878468 490.517189 
L 174.731028 488.153493 
L 175.096407 485.538542 
L 175.218204 488.404736 
L 175.461791 485.726972 
L 176.801527 486.417835 
L 176.801527 489.221215 
L 176.801527 489.221215 
L 176.923324 489.284019 
L 177.166911 486.606241 
L 177.410499 489.535227 
L 177.410499 486.731846 
L 177.410499 489.535227 
L 177.532291 486.794642 
L 179.480999 487.799398 
L 180.089971 490.916746 
L 180.089971 488.113364 
L 180.211767 485.37277 
L 180.455351 488.301734 
L 180.577147 488.364524 
L 181.186119 485.875085 
L 182.52585 486.56572 
L 183.256619 484.139027 
L 183.500211 484.264586 
L 183.621998 487.130745 
L 184.352767 487.50741 
L 184.839942 482.151742 
L 185.083535 485.080674 
L 185.448914 482.465614 
L 186.179683 485.645617 
L 186.179683 482.842232 
L 186.545062 485.833922 
L 187.032238 486.084996 
L 188.250182 483.909253 
L 189.102738 484.348572 
L 189.224534 481.60795 
L 189.224534 484.411329 
L 190.807858 485.227154 
L 190.929654 482.486523 
L 191.051441 482.549274 
L 191.173237 485.415408 
L 191.295034 482.674781 
L 191.538626 482.800275 
L 191.78221 485.729161 
L 191.78221 480.122388 
L 191.904006 482.988523 
L 192.147589 483.114022 
L 192.391182 486.042901 
L 192.634774 486.168394 
L 192.756561 483.427754 
L 192.756561 480.62437 
L 193.48733 483.80422 
L 193.48733 478.197453 
L 193.609126 481.063577 
L 193.852709 483.99245 
L 195.19245 481.87919 
L 195.314246 481.94193 
L 195.314246 481.94193 
L 195.557829 479.264025 
L 196.166801 476.774303 
L 196.410385 485.309924 
L 196.532181 482.569269 
L 196.532181 482.569269 
L 196.89757 482.757467 
L 197.506533 480.267725 
L 197.506533 480.267725 
L 198.237301 480.644084 
L 198.359097 477.903427 
L 198.480893 483.572921 
L 198.480893 480.769543 
L 198.846273 483.761092 
L 199.820625 478.656108 
L 200.551393 479.03242 
L 200.794976 476.354469 
L 201.160365 476.542616 
L 201.282152 479.408706 
L 201.525745 482.337523 
L 201.769328 479.659561 
L 201.891124 476.918894 
L 201.891124 482.525661 
L 202.01292 479.784987 
L 202.987272 480.286668 
L 203.474448 483.34088 
L 204.205216 475.306969 
L 205.301364 478.674675 
L 206.397512 479.238956 
L 206.641096 476.560959 
L 206.762892 479.427035 
L 206.884688 473.882964 
L 207.006484 473.945662 
L 207.006484 479.552423 
L 207.250068 474.071053 
L 207.371864 479.7405 
L 207.371864 479.7405 
L 207.980836 477.250575 
L 207.980836 477.250575 
L 208.346216 477.438654 
L 208.711604 474.823334 
L 209.320567 480.743535 
L 209.442363 475.199442 
L 209.685956 478.128195 
L 209.807743 478.190892 
L 209.807743 480.994268 
L 210.294928 475.638231 
L 211.512863 476.265035 
L 211.512863 473.461649 
L 211.756456 476.390387 
L 211.756456 476.390387 
L 212.121835 476.578415 
L 212.609011 474.02572 
L 214.070548 477.581163 
L 214.679511 472.287739 
L 214.679511 477.894501 
L 214.801307 475.153775 
L 215.288483 472.601062 
L 215.653871 472.789039 
L 215.897455 475.717761 
L 216.141047 467.432933 
L 216.262834 473.102362 
L 216.506427 473.227682 
L 217.237195 470.800244 
L 218.089751 474.042206 
L 218.942306 474.480772 
L 218.942306 471.677398 
L 219.551278 477.597404 
L 220.038454 472.241228 
L 220.647426 475.35784 
L 220.647426 466.947694 
L 221.012815 475.545767 
L 221.256398 470.064295 
L 221.499991 472.992959 
L 221.86537 467.57411 
L 221.987166 467.636766 
L 222.596139 470.753338 
L 222.596139 470.753338 
L 222.961518 470.94124 
L 222.961518 468.137862 
L 223.205102 473.869893 
L 223.93587 463.032171 
L 224.057666 471.504948 
L 224.057666 471.504948 
L 224.301249 471.63022 
L 224.423046 468.889466 
L 225.27561 469.327866 
L 225.397397 472.193873 
L 225.397397 469.3905 
L 225.64099 466.712354 
L 226.128166 466.962875 
L 226.371758 461.481347 
L 226.371758 472.694877 
L 227.102517 473.07061 
L 228.076869 467.964803 
L 228.442258 465.349274 
L 229.660193 468.778779 
L 229.903785 466.100639 
L 230.512757 466.413685 
L 230.878137 463.798127 
L 231.730702 464.236362 
L 231.974285 467.164947 
L 232.096081 461.620783 
L 232.339665 470.156138 
L 232.461461 464.611973 
L 232.461461 467.415354 
L 233.070433 467.728362 
L 233.435812 465.11277 
L 233.801201 468.103963 
L 234.044785 465.425759 
L 234.288377 468.354347 
L 234.410173 462.810164 
L 235.262729 463.248307 
L 235.384525 466.114307 
L 235.384525 460.507538 
L 235.993497 469.230623 
L 236.23708 460.945649 
L 236.23708 466.552416 
L 236.480673 458.267442 
L 236.846052 464.061964 
L 237.089645 461.383753 
L 237.089645 458.580369 
L 237.089645 464.187151 
L 237.698608 464.500068 
L 237.698608 458.893286 
L 238.063997 464.687805 
L 238.551172 459.331364 
L 238.551172 464.938127 
L 238.672969 456.590575 
L 238.916552 462.322486 
L 238.916552 459.519111 
L 239.160145 459.644249 
L 239.64732 462.697936 
L 239.890904 457.216335 
L 240.134496 460.144857 
L 241.108848 466.252197 
L 241.474228 458.029762 
L 241.596024 463.699114 
L 241.961403 461.083414 
L 242.0832 463.949374 
L 242.813968 458.717993 
L 244.275495 459.468748 
L 244.762671 456.915574 
L 244.884468 462.584912 
L 245.371643 462.835127 
L 245.371643 454.424993 
L 245.615236 460.156858 
L 245.615236 451.746694 
L 245.615236 460.156858 
L 246.833171 460.782389 
L 247.076763 452.497321 
L 247.685735 458.416835 
L 247.685735 455.613466 
L 248.051115 458.604457 
L 248.660087 456.113804 
L 249.269059 456.426503 
L 249.756235 451.069912 
L 249.878031 459.542599 
L 249.999818 456.801774 
L 250.121615 448.454157 
L 250.121615 462.471059 
L 250.243411 454.123469 
L 250.365207 454.186005 
L 251.217763 457.427125 
L 251.217763 463.033888 
L 251.339559 451.882889 
L 252.192114 455.124006 
L 253.410058 455.74929 
L 255.358771 448.339494 
L 255.358771 453.946244 
L 255.845938 451.39292 
L 255.845938 456.999706 
L 256.08953 457.12472 
L 256.820289 451.893072 
L 256.820289 457.499838 
L 257.063882 452.018086 
L 257.551067 449.464733 
L 257.672863 452.330638 
L 258.281826 449.839818 
L 258.647215 447.223932 
L 259.012585 450.214867 
L 259.134381 453.080736 
L 259.134381 447.47398 
L 259.134381 450.277368 
L 259.377974 447.598981 
L 259.377974 450.402372 
L 259.49977 450.464879 
L 259.621566 447.723976 
L 259.621566 456.134133 
L 259.743363 442.179721 
L 259.865159 453.455749 
L 259.986937 447.911517 
L 260.717714 445.48311 
L 260.839511 453.955767 
L 260.961307 451.214867 
L 262.057455 443.367209 
L 262.301029 454.705738 
L 262.422825 451.964851 
L 262.544621 446.420566 
L 263.275381 449.598898 
L 263.762566 444.242083 
L 264.249732 455.705558 
L 264.98051 444.866955 
L 265.34588 447.857776 
L 265.34588 450.661176 
L 265.34588 439.447652 
L 266.807417 443.000779 
L 267.172806 445.991603 
L 268.268954 449.357235 
L 268.512528 432.661883 
L 268.634324 452.348029 
L 268.877917 446.866206 
L 268.999713 449.732075 
L 269.121509 444.187787 
L 269.243305 444.250225 
L 269.243305 435.840095 
L 269.486898 444.375181 
L 270.095861 441.884149 
L 270.339453 442.009065 
L 270.948416 447.928141 
L 270.948416 439.517985 
L 271.070212 445.187228 
L 271.313805 439.705366 
L 271.435601 442.571228 
L 271.557397 439.830285 
L 272.288157 443.008425 
L 272.653545 443.195783 
L 273.018916 446.186536 
L 273.140712 435.035456 
L 273.384304 443.570526 
L 273.993267 441.079399 
L 275.333008 441.766373 
L 275.454804 433.418672 
L 275.454804 436.22203 
L 275.454804 441.828799 
L 275.454804 441.828799 
L 276.429156 442.328366 
L 277.038137 431.427047 
L 278.012489 431.926543 
L 278.256063 448.87172 
L 278.256063 437.658163 
L 278.377859 440.523986 
L 278.743248 437.90791 
L 278.98684 438.032778 
L 278.98684 443.639537 
L 279.352211 435.416712 
L 279.474007 435.479125 
L 279.595803 429.93482 
L 280.448359 433.175216 
L 280.691951 438.906826 
L 280.935544 450.245222 
L 280.935544 447.441808 
L 281.300932 436.415553 
L 282.39708 434.174018 
L 282.39708 436.977396 
L 282.518858 439.843196 
L 282.640655 431.495445 
L 283.12784 440.155281 
L 283.858599 434.922993 
L 283.980395 429.378643 
L 284.954747 432.68134 
L 285.320135 430.06518 
L 285.807302 438.724974 
L 286.172691 427.698696 
L 286.416283 430.626873 
L 286.90345 425.269714 
L 287.390635 425.519364 
L 287.512431 428.385161 
L 288.486783 428.884363 
L 288.608579 440.160271 
L 289.582931 429.445912 
L 290.435486 432.686079 
L 290.557283 435.551837 
L 290.922671 435.739009 
L 291.409838 433.185176 
L 291.531634 430.444211 
L 292.38419 430.880909 
L 292.38419 433.684306 
L 292.505986 433.746647 
L 293.114967 428.451836 
L 293.236745 436.924356 
L 293.358541 431.379974 
L 295.06367 415.432945 
L 295.672633 429.761786 
L 297.499541 419.483756 
L 297.743133 428.01865 
L 297.986726 430.946748 
L 298.108522 422.598994 
L 298.47391 433.9996 
L 299.691836 426.213055 
L 299.813633 426.275422 
L 300.54441 423.846205 
L 301.396966 418.67588 
L 301.518762 424.345009 
L 302.005929 416.184309 
L 302.493113 433.253972 
L 302.858484 427.834278 
L 303.345669 422.476884 
L 303.467465 422.539232 
L 303.589261 425.404931 
L 303.832854 422.726267 
L 303.954632 422.788594 
L 304.807206 426.028389 
L 305.172576 426.215398 
L 305.294372 417.867605 
L 305.416169 417.92992 
L 305.416169 429.143438 
L 305.903353 426.58939 
L 306.025132 426.651711 
L 306.39052 421.231984 
L 306.512316 421.29435 
L 306.755909 424.222371 
L 307.121279 415.999213 
L 307.121279 418.802571 
L 307.243076 427.275098 
L 307.364872 404.910369 
L 307.608464 430.265459 
L 307.852057 419.176589 
L 308.095649 419.301231 
L 308.095649 416.497853 
L 308.339224 425.032642 
L 308.339224 416.622489 
L 308.826409 405.658287 
L 309.070001 425.406595 
L 309.678964 408.897933 
L 309.678964 400.487766 
L 309.678964 420.111457 
L 310.531519 423.351083 
L 310.531519 423.351083 
L 310.531519 412.137584 
L 310.653316 415.003264 
L 310.653316 417.806648 
L 311.018704 420.797022 
L 311.87126 418.429826 
L 312.114852 415.751051 
L 312.114852 404.537526 
L 312.236649 415.813392 
L 312.845612 418.928336 
L 312.967408 407.777126 
L 313.576371 419.30221 
L 313.576371 416.4988 
L 313.698167 419.364518 
L 313.819963 408.213288 
L 314.428944 416.934969 
L 314.550741 408.587117 
L 314.794315 417.121893 
L 315.159704 411.702015 
L 315.159704 403.291849 
L 315.646889 411.951215 
L 316.012259 409.334741 
L 316.012259 417.744934 
L 316.499444 420.797505 
L 316.499444 412.387351 
L 317.108407 409.895409 
L 318.204555 413.259442 
L 318.326351 407.714968 
L 318.813536 419.177705 
L 319.05711 402.481923 
L 320.762239 417.370851 
L 321.005832 406.281909 
L 321.492999 400.924262 
L 321.736591 412.262344 
L 321.980184 403.976793 
L 322.589147 407.091535 
L 323.319906 415.875302 
L 323.685295 413.258763 
L 324.050683 407.838833 
L 324.659646 405.346826 
L 324.781442 405.409055 
L 325.390405 411.327188 
L 325.512202 411.389405 
L 325.633998 400.238136 
L 326.364775 403.41512 
L 326.730146 412.012022 
L 326.851942 400.860746 
L 326.973738 403.726465 
L 327.339127 401.109828 
L 327.826294 401.358851 
L 328.435275 410.080258 
L 328.557053 418.552713 
L 329.28783 396.499185 
L 329.531423 402.230459 
L 330.01859 402.47943 
L 330.262182 399.800491 
L 330.383978 402.666138 
L 330.383978 399.862806 
L 330.627571 391.577138 
L 330.871145 405.718566 
L 331.114738 405.843031 
L 331.114738 403.039667 
L 331.114738 411.449807 
L 332.210885 406.403184 
L 332.210885 409.206633 
L 332.941645 398.366532 
L 333.307033 409.766746 
L 333.672422 409.953448 
L 333.672422 395.936585 
L 333.915996 398.864448 
L 334.037793 396.123261 
L 334.524978 401.978994 
L 334.890366 404.969068 
L 335.133941 396.6834 
L 335.621125 396.932273 
L 336.108292 399.984557 
L 336.83907 397.554544 
L 337.448033 400.669057 
L 337.935218 395.311207 
L 338.300588 401.1046 
L 338.422384 406.773598 
L 338.544181 401.229072 
L 338.909569 395.808953 
L 339.153162 395.933373 
L 339.883921 393.50323 
L 340.005717 390.762101 
L 340.005717 385.155352 
L 340.127513 396.431041 
L 340.127513 396.431041 
L 341.101865 394.125416 
L 341.467236 397.115379 
L 342.198013 383.471763 
L 342.441605 408.826617 
L 342.563384 386.461706 
L 342.68518 392.130685 
L 342.806976 389.38951 
L 343.050568 392.31725 
L 343.172365 397.986294 
L 344.146716 401.287294 
L 344.633883 390.322499 
L 345.121068 387.767942 
L 345.242864 393.436829 
L 345.608253 399.230209 
L 346.09542 388.265466 
L 346.339012 396.800027 
L 346.704401 377.362842 
L 346.704401 382.96965 
L 347.069771 374.746114 
L 347.43516 394.556311 
L 347.556956 380.60154 
L 347.556956 403.028662 
L 347.556956 386.208381 
L 347.678753 383.4672 
L 348.044123 394.867238 
L 348.044123 400.473987 
L 348.165919 397.732761 
L 348.165919 386.519236 
L 348.165919 397.732761 
L 348.896697 386.892346 
L 348.896697 375.678867 
L 349.50566 401.220189 
L 349.627456 387.265437 
L 349.749252 401.344505 
L 349.749252 390.131038 
L 349.992827 398.665547 
L 350.114623 387.514141 
L 350.8454 376.673733 
L 350.967196 396.359556 
L 351.332567 396.546056 
L 351.576159 385.456834 
L 352.063344 396.919055 
L 352.9159 391.747451 
L 353.037696 394.612999 
L 353.037696 386.202911 
L 353.037696 389.006289 
L 353.524863 394.861749 
L 353.646659 383.710342 
L 354.012048 386.700201 
L 355.229992 392.928581 
L 355.717159 384.767072 
L 355.960751 384.891427 
L 356.082547 387.756957 
L 356.447918 385.14 
L 356.69151 385.264322 
L 356.935103 376.978433 
L 357.056899 399.467679 
L 357.787658 394.233812 
L 357.909454 388.689175 
L 357.909454 391.492599 
L 358.883806 372.366099 
L 359.005602 383.641736 
L 359.249195 380.962726 
L 359.979954 375.728774 
L 359.979954 392.549061 
L 360.10175 378.594251 
L 362.537639 393.853907 
L 362.537639 379.836991 
L 362.659435 391.112726 
L 362.781231 382.764606 
L 362.903009 382.826758 
L 362.903009 371.613311 
L 363.268398 371.799713 
L 363.390194 377.468516 
L 363.633787 371.98605 
L 363.633787 383.199535 
L 363.633787 371.98605 
L 363.755583 377.65497 
L 364.120953 372.234498 
L 364.120953 380.64475 
L 364.364546 377.965609 
L 364.729934 392.168862 
L 364.973527 378.27617 
L 365.58249 378.586849 
L 365.947879 392.790134 
L 365.947879 370.363052 
L 367.165805 387.804494 
L 368.140174 374.284436 
L 368.140174 391.104802 
L 368.749137 374.595076 
L 369.601693 369.423079 
L 369.723489 377.895247 
L 369.845285 366.74386 
L 369.845285 377.957411 
L 370.454248 364.251043 
L 370.819637 361.63395 
L 371.185026 364.623664 
L 371.550396 384.433568 
L 371.672193 373.282234 
L 371.915785 379.01311 
L 372.524748 379.323632 
L 372.646544 376.58234 
L 373.133729 368.420616 
L 373.133729 371.223941 
L 373.620896 371.472351 
L 373.742692 365.927603 
L 373.864488 380.006631 
L 374.229877 360.569296 
L 374.351673 371.844829 
L 375.204229 361.065985 
L 375.326025 366.734866 
L 375.326025 372.34157 
L 375.447821 375.207099 
L 375.691414 366.921111 
L 376.300377 361.624707 
L 376.787544 359.069635 
L 377.396525 370.59359 
L 377.640117 381.931248 
L 378.127284 359.75249 
L 378.614469 351.590753 
L 378.736265 374.079863 
L 379.710617 374.576421 
L 380.31958 360.869805 
L 380.928561 363.983522 
L 381.050357 378.062576 
L 381.902913 367.283471 
L 382.268283 375.879785 
L 382.268283 367.469612 
L 382.99906 362.235255 
L 383.486227 351.269892 
L 383.851616 371.079744 
L 384.704171 368.710773 
L 385.06956 346.469812 
L 385.313153 371.824464 
L 385.313153 357.807483 
L 385.678523 366.403875 
L 385.800319 360.859127 
L 386.165708 369.455349 
L 386.165708 369.455349 
L 386.287504 358.303936 
L 386.531079 364.034747 
L 386.896467 358.614197 
L 387.018263 364.282961 
L 387.14006 353.131431 
L 387.261856 361.603625 
L 388.114411 359.234562 
L 388.4798 362.224068 
L 388.723374 356.741367 
L 389.088763 351.320778 
L 389.210559 362.596271 
L 389.210559 356.989581 
L 389.575948 351.568835 
L 390.184911 385.519592 
L 390.184911 360.289177 
L 390.306707 354.744481 
L 390.306707 357.547886 
L 390.428503 368.823353 
L 390.793874 360.599386 
L 390.793874 360.599386 
L 391.037466 369.133522 
L 391.402855 369.319637 
L 391.402855 355.30276 
L 391.524651 349.758038 
L 391.524651 358.168081 
L 391.646448 366.640314 
L 391.646448 363.836975 
L 392.011818 361.219568 
L 392.011818 352.809539 
L 393.229762 364.643311 
L 393.229762 347.82303 
L 393.351559 364.705214 
L 393.473355 347.947007 
L 393.595151 353.615836 
L 393.595151 353.615836 
L 394.569503 348.505233 
L 394.569503 359.718667 
L 394.813095 362.646178 
L 394.813095 354.235913 
L 395.178466 362.832175 
L 396.274614 363.390297 
L 396.883595 355.290176 
L 397.492558 352.796876 
L 397.73615 355.724191 
L 397.73615 350.117527 
L 397.857946 344.572778 
L 397.979743 350.241438 
L 398.588706 356.158272 
L 398.710502 353.416902 
L 398.832298 359.085665 
L 399.075891 353.602873 
L 399.197687 353.664841 
L 399.197687 364.878418 
L 399.319465 362.137074 
L 399.563057 362.26109 
L 399.684854 359.51972 
L 400.293835 354.222872 
L 400.781002 368.487819 
L 401.024594 351.791515 
L 401.511761 363.252927 
L 402.120742 338.332499 
L 402.242538 346.804641 
L 402.729705 358.266053 
L 402.729705 369.479643 
L 402.851501 358.328126 
L 402.851501 341.507754 
L 403.21689 352.907289 
L 403.338686 364.182769 
L 403.58226 330.666236 
L 403.58226 350.289869 
L 403.825853 350.41378 
L 404.069445 336.520867 
L 404.800205 353.713038 
L 404.800205 336.892757 
L 404.922001 356.578384 
L 404.922001 350.971628 
L 406.505334 351.777403 
L 406.627112 371.463004 
L 407.601482 338.318244 
L 407.966852 352.521092 
L 408.575815 333.207171 
L 409.184814 347.533956 
L 409.428407 333.640899 
L 409.671963 353.388508 
L 409.793777 353.450568 
L 409.915556 345.102403 
L 409.915556 353.512498 
L 410.159148 348.029692 
L 410.159148 342.422832 
L 410.524555 351.018872 
L 411.255296 334.57035 
L 411.742481 360.048652 
L 411.742481 346.031723 
L 411.864259 340.486975 
L 412.107851 351.824372 
L 412.229666 329.459317 
L 412.473258 352.010187 
L 412.716814 354.937489 
L 412.960407 346.651305 
L 412.960407 346.651305 
L 413.691184 361.039915 
L 414.178369 338.860596 
L 414.300147 341.725904 
L 415.030925 333.687399 
L 415.518109 325.525061 
L 415.639888 342.407376 
L 415.88348 342.53113 
L 417.101406 340.347164 
L 417.22322 337.60582 
L 417.588591 332.184852 
L 418.319368 329.75309 
L 418.562961 346.697191 
L 418.562961 327.073467 
L 418.562961 343.893774 
L 418.684739 332.742231 
L 419.050146 332.928006 
L 419.293702 338.658555 
L 419.293702 333.051826 
L 419.659109 358.468042 
L 420.511664 336.474446 
L 420.633442 316.912756 
L 420.998849 347.935715 
L 421.36422 348.121425 
L 421.607812 339.835084 
L 422.094997 331.672616 
L 422.460368 337.465265 
L 422.582146 317.903444 
L 423.312923 332.291845 
L 423.434701 323.943693 
L 424.165479 341.135355 
L 424.287293 341.197271 
L 424.287293 324.37699 
L 424.409071 324.438868 
L 425.139848 330.417109 
L 425.261626 358.512896 
L 425.992404 333.653928 
L 425.992404 342.064009 
L 425.992404 319.636972 
L 426.114182 344.929251 
L 426.114182 328.108931 
L 426.601367 331.159988 
L 427.088552 331.407523 
L 427.088552 337.014396 
L 427.453922 317.576461 
L 428.062885 326.296072 
L 428.671885 340.622466 
L 428.793663 321.060567 
L 429.159033 326.853085 
L 429.159033 321.246342 
L 429.280848 310.09459 
L 429.889811 324.421075 
L 430.620588 350.022857 
L 430.985959 313.764523 
L 431.229551 327.905154 
L 431.960328 333.883265 
L 432.082106 336.748598 
L 432.203885 350.827274 
L 432.447477 322.917262 
L 432.569291 314.568966 
L 432.569291 331.389247 
L 432.812884 320.299581 
L 433.300032 340.170749 
L 433.300032 320.547064 
L 433.665439 323.536021 
L 434.152588 326.587 
L 434.883365 318.547985 
L 435.614143 332.93623 
L 435.857735 327.453098 
L 436.466698 330.565888 
L 436.953883 325.206602 
L 436.953883 322.403159 
L 437.441032 319.847198 
L 437.441032 331.060854 
L 437.562846 325.515819 
L 437.684624 328.381191 
L 438.171809 309.004832 
L 438.293623 317.476844 
L 438.902586 303.769301 
L 439.024365 312.241338 
L 439.389771 329.247094 
L 439.633328 304.140434 
L 439.755142 329.432726 
L 440.120512 324.011497 
L 440.120512 326.814849 
L 440.242327 310.056484 
L 442.069216 333.411366 
L 442.19103 330.669787 
L 442.19103 313.849389 
L 442.799993 302.945159 
L 442.921771 319.827291 
L 443.043586 314.282308 
L 443.043586 336.70937 
L 443.408956 317.271239 
L 444.870475 320.816778 
L 445.114067 318.137089 
L 445.601252 326.794458 
L 446.332029 327.165565 
L 446.575622 318.878963 
L 447.306363 310.839845 
L 447.67177 327.845653 
L 448.280733 330.958143 
L 449.01151 331.329145 
L 449.133288 314.570676 
L 449.498659 314.756047 
L 449.742251 320.486544 
L 449.742251 309.272889 
L 449.985844 312.199904 
L 450.473029 306.840409 
L 450.838399 309.829288 
L 450.960214 315.49779 
L 451.447362 310.138439 
L 451.812769 301.913558 
L 451.812769 304.717093 
L 452.056361 310.447381 
L 452.421732 305.026113 
L 452.665325 288.32943 
L 453.030695 319.35205 
L 453.030695 310.941877 
L 453.274288 297.048637 
L 453.639658 305.644233 
L 454.005065 303.026108 
L 454.005065 336.666722 
L 454.614028 308.941976 
L 454.614028 314.548771 
L 454.735806 297.790211 
L 455.588361 295.419465 
L 455.710176 312.301518 
L 455.831954 301.149766 
L 455.953768 312.425207 
L 456.806324 298.840805 
L 457.293509 307.498083 
L 457.293509 315.90836 
L 457.780657 310.548748 
L 457.902472 313.413885 
L 458.02425 313.475697 
L 458.267842 327.616067 
L 458.389657 316.46442 
L 458.755027 302.632888 
L 458.755027 311.042969 
L 458.99862 294.346169 
L 459.729397 305.930578 
L 460.094768 286.492068 
L 460.581952 300.756258 
L 461.190915 306.67193 
L 461.556286 295.643776 
L 461.799878 315.390915 
L 462.165249 301.55937 
L 462.530656 318.564904 
L 462.652434 318.626755 
L 462.896026 296.323133 
L 463.017841 296.38505 
L 463.261397 307.722003 
L 463.383211 318.997313 
L 463.626804 285.480349 
L 463.870396 313.637662 
L 463.992174 296.879141 
L 465.088322 297.435017 
L 465.940878 300.670661 
L 466.062692 311.946129 
L 466.18447 289.580708 
L 466.549841 300.979604 
L 466.671655 289.827682 
L 466.793433 301.103019 
L 467.280618 284.529712 
L 467.524211 309.883815 
L 467.767803 290.383585 
L 468.011395 318.540871 
L 468.133174 324.20936 
L 468.254988 301.844136 
L 468.620358 285.209108 
L 468.620358 299.226037 
L 469.472914 308.068476 
L 469.716506 294.174897 
L 470.325469 286.073588 
L 470.447284 314.169088 
L 470.69084 289.062166 
L 470.812654 297.534165 
L 471.421617 286.62936 
L 471.66521 320.393324 
L 471.786988 284.011013 
L 472.03058 298.15141 
L 472.152395 298.213326 
L 472.152395 289.803127 
L 472.274173 315.095249 
L 472.63958 287.246683 
L 473.248543 290.358703 
L 473.492135 282.072011 
L 473.492135 298.892331 
L 473.857506 301.880857 
L 473.979284 279.515567 
L 474.710061 279.885943 
L 475.075432 299.694933 
L 475.806209 297.261761 
L 476.902357 300.620729 
L 477.145949 289.53058 
L 477.633134 278.564094 
L 477.998505 295.569393 
L 478.363875 284.541017 
L 478.48569 301.423083 
L 478.729282 301.546433 
L 479.338245 310.26517 
L 479.460023 299.113379 
L 479.947208 288.14671 
L 480.069023 302.225386 
L 480.556171 277.241801 
L 481.043356 288.702156 
L 481.165171 274.746961 
L 481.286949 300.039018 
L 481.652319 303.027557 
L 481.652319 280.600507 
L 481.774134 300.285913 
L 482.017726 286.392438 
L 482.017726 311.622788 
L 482.139504 286.454159 
L 482.383097 294.987668 
L 482.504875 275.425613 
L 482.748467 297.976182 
L 483.235652 306.633146 
L 483.235652 281.402679 
L 483.479244 284.329289 
L 483.601023 287.19444 
L 483.844615 278.9078 
L 483.966429 287.37955 
L 484.3318 281.957995 
L 484.69717 290.553121 
L 484.940763 290.676536 
L 485.184355 302.013502 
L 485.30617 293.664879 
L 485.30617 279.647977 
L 485.549762 276.967988 
L 485.549762 285.378252 
L 486.036911 308.052132 
L 486.158725 274.473082 
L 486.158725 308.113683 
L 486.158725 282.883203 
L 486.280503 271.731516 
L 486.280503 305.372104 
L 486.64591 277.523264 
L 486.64591 294.343545 
L 486.767688 263.568029 
L 487.254873 300.258786 
L 487.254873 261.011429 
L 487.376651 286.303578 
L 487.863836 286.550212 
L 488.107429 283.870197 
L 488.594614 289.723678 
L 488.594614 275.706763 
L 488.716392 306.605654 
L 488.959984 273.088481 
L 489.447169 292.958813 
L 489.934318 267.975203 
L 490.056132 287.660478 
L 490.299724 287.783906 
L 491.030466 271.333648 
L 491.274058 299.490725 
L 491.639465 285.658749 
L 491.639465 294.068961 
L 492.126613 277.49538 
L 492.126613 263.478477 
L 492.248428 297.180746 
L 493.222761 278.050343 
L 493.588168 278.235348 
L 493.709946 281.10046 
L 494.440724 287.077108 
L 494.684316 298.414061 
L 495.293279 295.91879 
L 495.902242 299.030562 
L 496.145835 287.94023 
L 496.267649 296.412176 
L 496.267649 282.395247 
L 496.511205 268.501551 
L 496.63302 288.186852 
L 497.850946 280.393271 
L 497.97276 305.685406 
L 498.216352 291.791749 
L 498.216352 280.578263 
L 498.33813 272.229745 
L 498.581723 283.566555 
L 499.068908 281.009746 
L 499.3125 261.509371 
L 499.799649 284.182951 
L 500.530426 290.159482 
L 500.530426 273.339227 
L 501.017611 281.995943 
L 501.626574 262.680548 
L 501.626574 279.500764 
L 502.357352 291.083985 
L 502.966315 280.17875 
L 502.966315 260.555078 
L 503.088093 269.02688 
L 503.209907 291.51552 
L 503.331685 280.363546 
L 503.575278 283.290209 
L 503.81887 294.626992 
L 504.306055 261.23296 
L 504.915018 267.147823 
L 505.15861 284.091336 
L 505.767573 292.809538 
L 505.767573 278.792661 
L 505.889388 273.247456 
L 505.889388 267.6407 
L 506.254758 270.6289 
L 506.620129 284.830782 
L 506.863721 284.953923 
L 506.985536 262.588463 
L 506.985536 273.802106 
L 507.472684 282.458574 
L 508.32524 260.462837 
L 509.056017 297.27646 
L 509.177832 272.107636 
L 509.421388 275.034167 
L 509.786795 275.219107 
L 510.395758 267.116884 
L 510.517536 292.409033 
L 510.761128 289.728874 
L 511.126535 301.12713 
L 511.248313 267.548067 
L 511.97909 259.507578 
L 512.100869 256.765842 
L 512.222683 270.844191 
L 513.318831 262.988498 
L 513.562387 260.308353 
L 513.684201 274.38678 
L 513.684201 263.173399 
L 513.805979 266.038289 
L 513.805979 268.841614 
L 514.049572 266.161364 
L 514.293164 285.908334 
L 515.023942 261.047407 
L 515.267534 266.777212 
L 515.632905 266.962061 
L 515.754683 258.613491 
L 515.754683 272.630381 
L 515.754683 269.827003 
L 515.998275 281.163773 
L 516.12009 278.421828 
L 516.972645 284.459688 
L 517.216238 256.549011 
L 517.946979 273.738897 
L 519.043127 254.669379 
L 519.043127 260.275978 
L 519.286719 299.646567 
L 519.530312 274.539189 
L 520.626459 255.469579 
L 520.748274 275.154867 
L 520.870052 258.396163 
L 520.870052 264.002945 
L 521.357237 264.249279 
L 521.844422 250.478567 
L 522.209792 267.483474 
L 522.209792 281.500482 
L 522.33157 267.545064 
L 522.94057 262.246154 
L 523.30594 254.020712 
L 523.671311 268.222163 
L 523.914903 257.131753 
L 524.036718 265.603555 
L 524.645681 265.911244 
L 525.254644 274.629185 
L 525.741829 258.054977 
L 525.863607 263.723401 
L 525.985421 255.374857 
L 526.107199 263.846425 
L 526.107199 249.829587 
L 526.229013 275.121487 
L 526.229013 261.104558 
L 527.081569 267.142236 
L 527.446939 278.5404 
L 527.690532 250.629683 
L 527.690532 250.629683 
L 528.543087 253.863748 
L 529.761013 271.299472 
L 529.882828 254.540742 
L 530.248198 260.332033 
L 530.978976 257.897751 
L 530.978976 260.70126 
L 532.318716 255.771185 
L 532.440494 239.012377 
L 533.171272 261.808549 
L 533.171272 253.398546 
L 533.658456 242.431107 
L 533.658456 264.858183 
L 534.511012 265.288712 
L 534.511012 256.878657 
L 535.485345 285.404517 
L 535.60716 240.611995 
L 535.728938 240.67348 
L 535.97253 277.240352 
L 535.97253 249.20669 
L 536.094308 238.054716 
L 538.043048 269.875852 
L 538.652011 250.559817 
L 538.652011 230.936093 
L 539.260974 250.86714 
L 539.748159 256.719969 
L 539.991752 226.005757 
L 540.11353 270.921316 
L 540.600715 245.937065 
L 540.844307 257.273575 
L 541.087899 248.986412 
L 541.331492 263.126142 
L 541.45327 251.974195 
L 542.184047 249.539652 
L 542.184047 241.129622 
L 543.401973 236.137827 
L 543.523751 264.232962 
L 543.523751 224.985696 
L 543.523751 250.215993 
L 543.645566 241.867397 
L 543.767344 241.928805 
L 544.619899 247.965908 
L 544.741714 222.797018 
L 544.741714 248.027472 
L 545.107084 239.801899 
L 545.350677 228.711358 
L 545.350677 248.334795 
L 545.472491 248.396281 
L 546.203232 254.372055 
L 546.325047 237.613168 
L 546.446825 254.494895 
L 546.690417 265.831509 
L 546.690417 249.011267 
L 546.93401 260.347515 
L 547.177602 235.240163 
L 547.177602 240.846841 
L 547.421195 235.363056 
L 547.421195 249.379946 
L 547.542973 269.065025 
L 547.786565 271.991374 
L 548.395528 249.8717 
L 548.639121 219.157331 
L 548.760935 238.842619 
L 549.248084 253.105373 
L 549.491676 253.228396 
L 549.491676 247.621484 
L 549.978861 242.260488 
L 549.978861 250.670726 
L 550.222453 236.776833 
L 550.831416 248.297564 
L 550.953231 234.342134 
L 551.075009 234.403672 
L 551.440379 231.784594 
L 551.927564 229.227054 
L 553.14549 246.661865 
L 553.389083 229.964437 
L 554.11986 233.13639 
L 554.11986 249.956814 
L 554.241638 230.394471 
L 554.728823 227.836931 
L 554.728823 236.247039 
L 555.216008 247.706441 
L 555.946785 259.288579 
L 555.946785 228.451343 
L 556.068564 262.153495 
L 556.555748 237.16867 
L 557.408304 248.812399 
L 558.260859 238.028738 
L 558.991637 255.217658 
L 559.113415 255.27917 
L 559.6006 235.901022 
L 559.6006 238.704427 
L 560.331377 244.679835 
L 560.331377 216.645925 
L 560.57497 222.375626 
L 560.696748 222.436929 
L 560.696748 247.667487 
L 560.94034 208.54301 
L 560.94034 239.380298 
L 561.183933 231.092953 
L 561.549303 242.490713 
L 561.671118 242.552198 
L 562.036488 220.309214 
L 562.280081 245.662482 
L 562.401859 245.723915 
L 562.401859 220.493461 
L 562.523673 231.768433 
L 563.254414 240.547141 
L 563.498007 237.866578 
L 564.228784 221.414832 
L 564.472376 238.357862 
L 564.594154 218.795519 
L 564.715969 235.677246 
L 565.081339 252.68171 
L 565.324932 238.787713 
L 565.690302 205.331399 
L 565.812117 230.623104 
L 566.299265 214.048543 
L 566.299265 244.885623 
L 566.78645 222.70415 
L 567.030043 242.450662 
L 567.273635 239.770073 
L 567.395413 214.601156 
L 567.882598 220.453489 
L 568.491561 248.794253 
L 568.613376 226.428584 
L 568.856968 220.944695 
L 569.100561 237.887699 
L 569.100561 221.067432 
L 569.465931 224.054927 
L 569.587709 232.526468 
L 569.953116 224.300582 
L 570.196708 238.440234 
L 572.023597 222.54071 
L 572.26719 225.466929 
L 572.510782 208.769319 
L 572.63256 234.061076 
L 572.754375 231.319209 
L 572.876153 239.790829 
L 572.876153 225.773887 
L 572.997967 239.852027 
L 573.728708 234.613532 
L 573.728708 226.203424 
L 573.850523 215.05132 
L 573.972301 220.7193 
L 574.5813 223.829532 
L 574.5813 226.633014 
L 574.703078 235.104477 
L 574.946671 207.193382 
L 575.433856 215.848988 
L 575.433856 232.669491 
L 575.799226 232.85353 
L 576.408189 193.912935 
L 576.651782 222.06966 
L 576.77356 205.310591 
L 576.895374 241.81599 
L 576.895374 210.978675 
L 577.017152 202.629949 
L 577.382559 236.45468 
L 577.74793 208.605018 
L 577.74793 236.638745 
L 578.235114 197.6369 
L 579.209448 228.964768 
L 579.331262 215.009259 
L 580.062003 240.607922 
L 580.062003 237.804648 
L 580.183818 218.242122 
L 580.305596 235.12385 
L 580.42741 204.347917 
L 580.549188 221.22967 
L 580.549188 212.819536 
L 581.645336 199.35479 
L 581.767151 216.236282 
L 582.254299 205.268112 
L 582.619706 233.486166 
L 582.985077 233.6701 
L 583.715854 200.397695 
L 583.715854 220.021158 
L 583.959447 225.750755 
L 584.081225 217.402028 
L 585.055594 220.695933 
L 585.90815 215.518454 
L 586.151742 215.641268 
L 586.395299 226.977386 
L 586.882483 187.975306 
L 587.126076 238.558924 
L 587.735039 233.258786 
L 588.953001 233.872206 
L 588.953001 222.658616 
L 589.196594 219.977766 
L 589.440186 234.117261 
L 589.683742 217.419625 
L 590.170927 203.647973 
L 591.023483 218.094296 
L 591.145297 201.335253 
L 591.38889 218.278231 
L 591.632482 193.170226 
L 591.876038 193.292962 
L 592.119631 227.056103 
L 592.972186 224.681923 
L 593.094 244.366976 
L 593.946556 219.565512 
L 594.677333 208.719791 
L 594.920926 200.432237 
L 595.651667 203.603614 
L 595.651667 217.620478 
L 595.773481 206.468165 
L 596.138852 215.062181 
L 596.26063 187.089678 
L 596.26063 209.516754 
L 596.991407 237.918299 
L 597.113185 207.14247 
L 597.113185 212.749356 
L 598.087555 202.026137 
L 598.209333 207.694143 
L 598.452926 196.60308 
L 598.696518 207.939302 
L 598.818333 199.590393 
L 598.940111 219.275394 
L 599.183703 227.80816 
L 600.158073 208.674597 
L 600.279851 208.73603 
L 600.401629 220.010793 
L 601.010628 203.496961 
L 601.254221 220.439756 
L 601.497777 220.562153 
L 601.497777 198.135338 
L 601.619591 198.196537 
L 601.619591 206.60667 
L 602.350369 229.401485 
L 602.593925 198.68675 
L 602.715739 223.978351 
L 602.715739 204.354783 
L 602.959332 212.887497 
L 603.202924 190.582765 
L 603.202924 224.223562 
L 603.324702 204.66101 
L 603.568295 187.963426 
L 603.690073 190.828003 
L 604.05548 207.832075 
L 604.177258 196.679813 
L 604.177258 213.50016 
L 604.664443 194.121595 
L 604.786221 196.986014 
L 604.908035 205.457634 
L 605.516998 197.353857 
L 605.516998 188.943462 
L 606.247776 194.917827 
L 606.247776 192.11471 
L 606.369554 217.406232 
L 606.613146 195.101683 
L 607.465702 201.137193 
L 607.465702 217.95767 
L 607.709294 215.276663 
L 608.318257 187.549267 
L 608.440071 212.840867 
L 608.683664 196.143022 
L 609.292627 210.466217 
L 610.023368 224.850715 
L 610.388775 191.39367 
L 610.632367 236.370428 
L 611.24133 200.232767 
L 611.24133 214.249501 
L 611.606701 186.399473 
L 612.093886 206.268121 
L 612.337478 200.78384 
L 612.946441 192.679986 
L 613.068256 212.364908 
L 614.042589 179.214038 
L 614.164403 187.685318 
L 614.286182 173.729783 
L 614.895145 193.659656 
L 614.895145 202.069895 
L 615.991292 168.980249 
L 616.113107 194.271797 
L 616.356699 208.411371 
L 616.600255 191.713369 
L 616.600255 208.533794 
L 617.696403 175.444044 
L 618.183588 195.31264 
L 618.305403 184.16017 
L 618.670773 212.377727 
L 618.914366 195.680013 
L 619.036144 176.117592 
L 619.523329 210.002921 
L 620.010514 207.444415 
L 620.619477 188.126866 
L 622.080995 211.288349 
L 622.080995 197.271381 
L 622.202809 194.529358 
L 622.324588 177.770027 
L 622.56818 180.696037 
L 622.811772 206.048862 
L 623.298957 183.866605 
L 623.420735 206.354645 
L 623.54255 175.578842 
L 623.786142 184.111373 
L 623.786142 184.111373 
L 624.029698 184.233691 
L 624.151513 150.654172 
L 624.151513 206.721992 
L 624.151513 181.491642 
L 624.273291 178.749411 
L 624.516883 187.281889 
L 624.516883 201.298883 
L 624.88229 179.055377 
L 625.125846 187.587933 
L 625.734846 185.090365 
L 625.978438 202.033029 
L 626.100216 171.257227 
L 626.587401 210.749286 
L 627.074586 174.549853 
L 627.439957 169.12677 
L 627.561735 163.581082 
L 628.292512 183.572127 
L 629.266846 192.471431 
L 629.632252 209.475476 
L 630.241215 178.944128 
L 631.824548 213.379877 
L 631.824548 207.773148 
L 632.068141 154.631337 
L 632.311733 165.967089 
L 632.555289 194.123292 
L 632.920696 188.699896 
L 633.042474 174.744152 
L 633.042474 197.171411 
L 635.112992 161.767113 
L 635.356585 173.102918 
L 635.600177 139.584805 
L 635.721955 167.679652 
L 636.087326 198.700196 
L 636.452732 142.816076 
L 636.696325 187.792598 
L 636.818103 179.443428 
L 636.818103 182.247041 
L 637.427066 165.732478 
L 637.54888 188.220595 
L 637.670658 177.068125 
L 638.157843 152.082387 
L 638.279621 194.194124 
L 638.766806 205.652456 
L 638.766806 183.225171 
L 639.132177 166.588342 
L 639.253991 208.700314 
L 639.619362 178.046673 
L 639.862954 183.775617 
L 639.984769 169.819926 
L 640.106547 189.504561 
L 640.593732 164.518614 
L 640.71551 184.203432 
L 640.837324 164.64088 
L 641.08088 159.156625 
L 641.446287 198.587251 
L 641.568065 184.631507 
L 641.811658 184.753904 
L 641.811658 176.343796 
L 642.177028 184.93729 
L 642.542435 182.317142 
L 642.664213 202.002012 
L 642.907806 162.877092 
L 643.394991 199.565538 
L 644.369324 166.413937 
L 644.369324 152.396812 
L 644.978323 172.326162 
L 644.978323 189.146639 
L 645.221916 183.661967 
L 645.221916 200.482365 
L 645.465472 180.980777 
L 645.709064 155.872798 
L 646.318064 164.588349 
L 646.56162 184.334209 
L 647.414212 162.335 
L 647.779582 173.731924 
L 647.779582 156.911683 
L 647.90136 193.416742 
L 648.266767 162.762971 
L 648.632138 160.142875 
L 648.753916 165.810699 
L 648.753916 207.861368 
L 649.119323 182.814301 
L 649.606508 174.648673 
L 650.215471 174.954091 
L 650.946212 166.910495 
L 651.068026 172.578606 
L 651.433397 169.958379 
L 651.433397 214.812531 
L 651.920581 178.612915 
L 652.529544 136.86769 
L 652.651359 221.030122 
L 653.138507 179.223881 
L 653.503914 173.800329 
L 653.991063 157.224541 
L 654.600062 182.760282 
L 654.965433 188.550398 
L 655.087211 188.611545 
L 655.452618 163.564164 
L 655.69621 177.703372 
L 655.817988 166.551059 
L 655.939803 177.825534 
L 656.183359 169.537614 
L 657.157729 153.206072 
L 657.279507 158.873896 
L 657.766692 164.724975 
L 657.766692 142.297795 
L 658.497469 176.304895 
L 658.619247 173.562532 
L 659.715395 174.1123 
L 659.837209 160.156478 
L 660.446172 146.444771 
L 660.56795 149.309347 
L 660.689765 177.404221 
L 660.689765 160.583796 
L 660.933357 146.688911 
L 660.933357 163.509231 
L 661.055135 160.767026 
L 661.298728 158.085757 
L 661.298728 155.282223 
L 661.785913 163.936942 
L 661.907691 180.818225 
L 662.638468 155.954022 
L 663.369246 153.517181 
L 663.734616 164.91374 
L 663.978209 198.676359 
L 664.221801 176.37155 
L 664.70895 159.795292 
L 665.317949 154.494032 
L 665.68332 174.300829 
L 666.414097 188.68397 
L 666.414097 132.616202 
L 666.657689 152.362114 
L 667.144838 175.033409 
L 667.753837 147.304786 
L 668.240986 181.189541 
L 668.971763 178.752387 
L 669.458948 164.979638 
L 670.067911 173.694824 
L 670.433282 187.894839 
L 670.555096 162.725532 
L 671.285837 171.50189 
L 671.285837 137.86138 
L 671.894837 180.217206 
L 672.138429 138.288307 
L 672.138429 155.108862 
L 672.747392 177.84086 
L 673.356355 169.735882 
L 673.478133 175.403784 
L 673.599947 158.644402 
L 673.721726 161.508717 
L 673.84354 141.94627 
L 674.087132 153.281787 
L 674.817873 162.058119 
L 675.18328 142.617285 
L 675.426836 173.576526 
L 675.426836 145.542642 
L 675.914021 162.60726 
L 676.279428 145.969908 
L 676.401206 151.637654 
L 676.644799 199.417163 
L 676.766577 163.034239 
L 677.497354 185.827383 
L 677.984539 174.857777 
L 678.34991 135.793297 
L 680.055021 173.091351 
L 680.055021 164.681244 
L 680.420427 142.437397 
L 680.66402 184.610072 
L 681.02939 170.776177 
L 681.516575 162.60974 
L 681.516575 145.789733 
L 682.856316 143.657136 
L 683.221686 169.070663 
L 683.343464 143.901225 
L 683.587057 135.612965 
L 683.830649 169.375558 
L 683.952427 152.615993 
L 684.19602 155.541324 
L 684.317834 135.978668 
L 684.439612 136.039892 
L 684.683205 158.58866 
L 684.926797 169.924229 
L 684.926797 155.907496 
L 685.048575 139.147983 
L 686.144723 170.533994 
L 686.144723 156.517157 
L 686.51013 165.110181 
L 687.240871 165.476222 
L 687.728056 137.686166 
L 687.84987 154.567528 
L 688.215241 129.519886 
L 688.215241 140.733293 
L 688.824204 169.072177 
L 688.946018 127.082367 
L 689.189611 149.631265 
L 689.676759 144.268389 
L 690.894722 136.467942 
L 691.381907 142.318499 
L 691.869055 142.562196 
L 692.112648 151.094335 
L 692.112648 170.71819 
L 692.35624 142.806102 
L 692.599833 131.714517 
L 692.721611 151.399283 
L 692.965203 126.290782 
L 692.965203 145.914376 
L 693.208796 134.822817 
L 693.208796 160.053166 
L 693.452388 132.141261 
L 693.695981 160.296863 
L 693.695981 143.476752 
L 694.548536 129.886293 
L 694.792129 110.384652 
L 694.913907 149.692751 
L 694.913907 144.086021 
L 695.157499 155.42146 
L 695.522906 155.604324 
L 695.644684 138.844915 
L 696.619054 91.675067 
L 696.984424 142.318812 
L 697.471609 134.152271 
L 698.324165 142.989123 
L 698.445943 154.26352 
L 698.81135 129.215826 
L 699.420313 126.717317 
L 699.663905 143.65946 
L 700.151054 107.458878 
L 700.272868 135.553725 
L 701.612609 136.224036 
L 701.734387 158.711866 
L 702.34335 133.786047 
L 702.952349 131.287251 
L 703.074127 164.988724 
L 703.561312 134.395159 
L 703.561312 173.642529 
L 703.804904 137.320516 
L 704.170275 137.50338 
L 704.292089 174.008153 
L 704.413867 129.214781 
L 705.631793 98.986684 
L 705.875386 135.552707 
L 706.240793 118.915121 
L 706.849756 113.612738 
L 707.093348 136.161532 
L 707.336941 127.873273 
L 707.580497 133.601955 
L 710.016385 132.016489 
L 710.259978 148.958683 
L 710.259978 109.711313 
L 710.747162 143.595233 
L 711.112533 101.727192 
L 711.234347 132.62547 
L 712.086903 147.068295 
L 712.208717 141.52245 
L 713.426643 142.131431 
L 713.913828 133.964916 
L 715.131754 117.753265 
L 715.862495 123.725383 
L 715.98431 118.179382 
L 715.98431 143.409836 
L 716.34968 149.199064 
L 717.567606 144.200951 
L 717.689421 124.638268 
L 717.933049 116.34967 
L 718.054791 105.197226 
L 718.176605 110.864971 
L 719.150975 167.41935 
L 719.27279 117.019171 
L 720.247087 111.899391 
L 720.490716 109.217836 
L 720.856086 137.434323 
L 721.099642 109.522183 
L 721.465086 98.490961 
L 722.195827 104.463001 
L 722.317641 110.130564 
L 722.439383 127.011613 
L 722.683012 113.116284 
L 723.170196 158.213976 
L 723.413753 141.515427 
L 723.413753 102.267926 
L 723.779123 133.287635 
L 724.144494 136.273668 
L 724.753493 119.757486 
L 724.753493 136.577937 
L 724.997049 139.502981 
L 725.484234 117.319158 
L 725.484234 108.909155 
L 726.215048 126.094446 
L 727.067603 126.520172 
L 727.189345 112.564115 
L 727.189345 120.974431 
L 727.920159 112.929217 
L 728.407344 141.206328 
L 729.01627 124.690198 
L 729.259899 122.008303 
L 729.259899 113.598274 
L 729.747084 133.465382 
L 730.112455 102.810488 
L 730.234196 130.905022 
L 730.599639 103.053872 
L 731.086824 89.28 
L 731.452195 97.872763 
L 731.817565 131.695954 
L 732.30475 123.528682 
L 732.30475 112.315509 
L 732.426492 154.427012 
L 732.426492 123.589593 
L 733.035491 137.910752 
L 733.400862 140.896628 
L 734.131676 118.83421 
L 734.253417 146.928927 
L 734.253417 118.895174 
L 734.740602 116.334971 
L 735.714972 133.64164 
L 737.176527 134.371217 
L 738.029082 123.583249 
L 738.029082 98.352716 
L 738.029082 101.156199 
L 738.394453 115.355404 
L 738.394453 104.142023 
L 739.247008 107.370761 
L 739.247008 115.781026 
L 739.734193 127.237739 
L 740.464934 99.568695 
L 741.073934 119.496114 
L 741.561119 122.542823 
L 741.68286 125.406799 
L 741.804675 119.860902 
L 742.048231 145.212918 
L 742.29186 111.693891 
L 742.779045 111.936753 
L 742.900859 128.817906 
L 743.387971 137.471241 
L 744.118785 126.622387 
L 744.484156 101.574353 
L 745.093082 118.69842 
L 745.093082 96.271161 
L 745.823896 107.849409 
L 745.823896 102.242601 
L 746.189267 102.424969 
L 746.554637 91.393643 
L 746.798266 111.138954 
L 747.163636 105.71441 
L 747.163636 105.71441 
" clip-path="url(#pb300d589b4)" style="fill: none; stroke: #1f77b4; stroke-width: 2; stroke-linecap: square"/>
   </g>
   <g id="line2d_28">
    <path d="M 138.436364 483.653369 
L 151.955518 482.308346 
L 164.622113 480.83322 
L 164.622113 480.83322 
L 177.166911 479.147312 
L 189.224534 477.302106 
L 189.224534 477.302106 
L 201.525745 475.184109 
L 212.609011 473.070017 
L 225.397397 470.39204 
L 225.397397 470.39204 
L 237.698608 467.58478 
L 237.698608 467.58478 
L 250.365207 464.473352 
L 264.249732 460.83018 
L 279.474007 456.592083 
L 295.672633 451.849872 
L 315.159704 445.894322 
L 315.159704 445.894322 
L 337.448033 438.836043 
L 364.973527 429.877695 
L 403.338686 417.136553 
L 463.992174 396.730806 
L 554.241638 366.139395 
L 620.619477 343.418233 
L 677.497354 323.70433 
L 733.400862 304.07182 
L 747.163636 299.19968 
L 747.163636 299.19968 
" clip-path="url(#pb300d589b4)" style="fill: none; stroke: #ff7f0e; stroke-width: 2; stroke-linecap: square"/>
   </g>
   <g id="patch_3">
    <path d="M 108 512.64 
L 108 69.12 
" style="fill: none; stroke: #000000; stroke-width: 0.8; stroke-linejoin: miter; stroke-linecap: square"/>
   </g>
   <g id="patch_4">
    <path d="M 777.6 512.64 
L 777.6 69.12 
" style="fill: none; stroke: #000000; stroke-width: 0.8; stroke-linejoin: miter; stroke-linecap: square"/>
   </g>
   <g id="patch_5">
    <path d="M 108 512.64 
L 777.6 512.64 
" style="fill: none; stroke: #000000; stroke-width: 0.8; stroke-linejoin: miter; stroke-linecap: square"/>
   </g>
   <g id="patch_6">
    <path d="M 108 69.12 
L 777.6 69.12 
" style="fill: none; stroke: #000000; stroke-width: 0.8; stroke-linejoin: miter; stroke-linecap: square"/>
   </g>
   <g id="text_16">
    <!-- Price by TTM. Moneyness=1.1 -->
    <g transform="translate(292.407812 63.12) scale(0.2 -0.2)">
     <defs>
      <path id="DejaVuSans-62" d="M 3116 1747 
Q 3116 2381 2855 2742 
Q 2594 3103 2138 3103 
Q 1681 3103 1420 2742 
Q 1159 2381 1159 1747 
Q 1159 1113 1420 752 
Q 1681 391 2138 391 
Q 2594 391 2855 752 
Q 3116 1113 3116 1747 
z
M 1159 2969 
Q 1341 3281 1617 3432 
Q 1894 3584 2278 3584 
Q 2916 3584 3314 3078 
Q 3713 2572 3713 1747 
Q 3713 922 3314 415 
Q 2916 -91 2278 -91 
Q 1894 -91 1617 61 
Q 1341 213 1159 525 
L 1159 0 
L 581 0 
L 581 4863 
L 1159 4863 
L 1159 2969 
z
" transform="scale(0.015625)"/>
      <path id="DejaVuSans-79" d="M 2059 -325 
Q 1816 -950 1584 -1140 
Q 1353 -1331 966 -1331 
L 506 -1331 
L 506 -850 
L 844 -850 
Q 1081 -850 1212 -737 
Q 1344 -625 1503 -206 
L 1606 56 
L 191 3500 
L 800 3500 
L 1894 763 
L 2988 3500 
L 3597 3500 
L 2059 -325 
z
" transform="scale(0.015625)"/>
      <path id="DejaVuSans-6e" d="M 3513 2113 
L 3513 0 
L 2938 0 
L 2938 2094 
Q 2938 2591 2744 2837 
Q 2550 3084 2163 3084 
Q 1697 3084 1428 2787 
Q 1159 2491 1159 1978 
L 1159 0 
L 581 0 
L 581 3500 
L 1159 3500 
L 1159 2956 
Q 1366 3272 1645 3428 
Q 1925 3584 2291 3584 
Q 2894 3584 3203 3211 
Q 3513 2838 3513 2113 
z
" transform="scale(0.015625)"/>
      <path id="DejaVuSans-3d" d="M 678 2906 
L 4684 2906 
L 4684 2381 
L 678 2381 
L 678 2906 
z
M 678 1631 
L 4684 1631 
L 4684 1100 
L 678 1100 
L 678 1631 
z
" transform="scale(0.015625)"/>
     </defs>
     <use xlink:href="#DejaVuSans-50"/>
     <use xlink:href="#DejaVuSans-72" x="58.552734"/>
     <use xlink:href="#DejaVuSans-69" x="99.666016"/>
     <use xlink:href="#DejaVuSans-63" x="127.449219"/>
     <use xlink:href="#DejaVuSans-65" x="182.429688"/>
     <use xlink:href="#DejaVuSans-20" x="243.953125"/>
     <use xlink:href="#DejaVuSans-62" x="275.740234"/>
     <use xlink:href="#DejaVuSans-79" x="339.216797"/>
     <use xlink:href="#DejaVuSans-20" x="398.396484"/>
     <use xlink:href="#DejaVuSans-54" x="430.183594"/>
     <use xlink:href="#DejaVuSans-54" x="489.517578"/>
     <use xlink:href="#DejaVuSans-4d" x="550.601562"/>
     <use xlink:href="#DejaVuSans-2e" x="636.880859"/>
     <use xlink:href="#DejaVuSans-20" x="668.667969"/>
     <use xlink:href="#DejaVuSans-4d" x="700.455078"/>
     <use xlink:href="#DejaVuSans-6f" x="786.734375"/>
     <use xlink:href="#DejaVuSans-6e" x="847.916016"/>
     <use xlink:href="#DejaVuSans-65" x="911.294922"/>
     <use xlink:href="#DejaVuSans-79" x="972.818359"/>
     <use xlink:href="#DejaVuSans-6e" x="1031.998047"/>
     <use xlink:href="#DejaVuSans-65" x="1095.376953"/>
     <use xlink:href="#DejaVuSans-73" x="1156.900391"/>
     <use xlink:href="#DejaVuSans-73" x="1209"/>
     <use xlink:href="#DejaVuSans-3d" x="1261.099609"/>
     <use xlink:href="#DejaVuSans-31" x="1344.888672"/>
     <use xlink:href="#DejaVuSans-2e" x="1408.511719"/>
     <use xlink:href="#DejaVuSans-31" x="1440.298828"/>
    </g>
   </g>
   <g id="legend_1">
    <g id="patch_7">
     <path d="M 120.6 136.36125 
L 287.018437 136.36125 
Q 290.618437 136.36125 290.618437 132.76125 
L 290.618437 81.72 
Q 290.618437 78.12 287.018437 78.12 
L 120.6 78.12 
Q 117 78.12 117 81.72 
L 117 132.76125 
Q 117 136.36125 120.6 136.36125 
z
" style="fill: #ffffff; opacity: 0.8; stroke: #cccccc; stroke-linejoin: miter"/>
    </g>
    <g id="line2d_29">
     <path d="M 124.2 92.697188 
L 142.2 92.697188 
L 160.2 92.697188 
" style="fill: none; stroke: #1f77b4; stroke-width: 2; stroke-linecap: square"/>
    </g>
    <g id="text_17">
     <!-- Monte Carlo -->
     <g transform="translate(174.6 98.997188) scale(0.18 -0.18)">
      <defs>
       <path id="DejaVuSans-43" d="M 4122 4306 
L 4122 3641 
Q 3803 3938 3442 4084 
Q 3081 4231 2675 4231 
Q 1875 4231 1450 3742 
Q 1025 3253 1025 2328 
Q 1025 1406 1450 917 
Q 1875 428 2675 428 
Q 3081 428 3442 575 
Q 3803 722 4122 1019 
L 4122 359 
Q 3791 134 3420 21 
Q 3050 -91 2638 -91 
Q 1578 -91 968 557 
Q 359 1206 359 2328 
Q 359 3453 968 4101 
Q 1578 4750 2638 4750 
Q 3056 4750 3426 4639 
Q 3797 4528 4122 4306 
z
" transform="scale(0.015625)"/>
       <path id="DejaVuSans-6c" d="M 603 4863 
L 1178 4863 
L 1178 0 
L 603 0 
L 603 4863 
z
" transform="scale(0.015625)"/>
      </defs>
      <use xlink:href="#DejaVuSans-4d"/>
      <use xlink:href="#DejaVuSans-6f" x="86.279297"/>
      <use xlink:href="#DejaVuSans-6e" x="147.460938"/>
      <use xlink:href="#DejaVuSans-74" x="210.839844"/>
      <use xlink:href="#DejaVuSans-65" x="250.048828"/>
      <use xlink:href="#DejaVuSans-20" x="311.572266"/>
      <use xlink:href="#DejaVuSans-43" x="343.359375"/>
      <use xlink:href="#DejaVuSans-61" x="413.183594"/>
      <use xlink:href="#DejaVuSans-72" x="474.462891"/>
      <use xlink:href="#DejaVuSans-6c" x="515.576172"/>
      <use xlink:href="#DejaVuSans-6f" x="543.359375"/>
     </g>
    </g>
    <g id="line2d_30">
     <path d="M 124.2 119.117813 
L 142.2 119.117813 
L 160.2 119.117813 
" style="fill: none; stroke: #ff7f0e; stroke-width: 2; stroke-linecap: square"/>
    </g>
    <g id="text_18">
     <!-- Positive net -->
     <g transform="translate(174.6 125.417813) scale(0.18 -0.18)">
      <defs>
       <path id="DejaVuSans-76" d="M 191 3500 
L 800 3500 
L 1894 563 
L 2988 3500 
L 3597 3500 
L 2284 0 
L 1503 0 
L 191 3500 
z
" transform="scale(0.015625)"/>
      </defs>
      <use xlink:href="#DejaVuSans-50"/>
      <use xlink:href="#DejaVuSans-6f" x="56.677734"/>
      <use xlink:href="#DejaVuSans-73" x="117.859375"/>
      <use xlink:href="#DejaVuSans-69" x="169.958984"/>
      <use xlink:href="#DejaVuSans-74" x="197.742188"/>
      <use xlink:href="#DejaVuSans-69" x="236.951172"/>
      <use xlink:href="#DejaVuSans-76" x="264.734375"/>
      <use xlink:href="#DejaVuSans-65" x="323.914062"/>
      <use xlink:href="#DejaVuSans-20" x="385.4375"/>
      <use xlink:href="#DejaVuSans-6e" x="417.224609"/>
      <use xlink:href="#DejaVuSans-65" x="480.603516"/>
      <use xlink:href="#DejaVuSans-74" x="542.126953"/>
     </g>
    </g>
   </g>
  </g>
 </g>
 <defs>
  <clipPath id="pb300d589b4">
   <rect x="108" y="69.12" width="669.6" height="443.52"/>
  </clipPath>
 </defs>
</svg>
