<?xml version="1.0" encoding="utf-8" standalone="no"?>
<!DOCTYPE svg PUBLIC "-//W3C//DTD SVG 1.1//EN"
  "http://www.w3.org/Graphics/SVG/1.1/DTD/svg11.dtd">
<svg xmlns:xlink="http://www.w3.org/1999/xlink" width="864pt" height="576pt" viewBox="0 0 864 576" xmlns="http://www.w3.org/2000/svg" version="1.1">
 <metadata>
  <rdf:RDF xmlns:dc="http://purl.org/dc/elements/1.1/" xmlns:cc="http://creativecommons.org/ns#" xmlns:rdf="http://www.w3.org/1999/02/22-rdf-syntax-ns#">
   <cc:Work>
    <dc:type rdf:resource="http://purl.org/dc/dcmitype/StillImage"/>
    <dc:date>2024-03-10T14:06:29.482832</dc:date>
    <dc:format>image/svg+xml</dc:format>
    <dc:creator>
     <cc:Agent>
      <dc:title>Matplotlib v3.7.3, https://matplotlib.org/</dc:title>
     </cc:Agent>
    </dc:creator>
   </cc:Work>
  </rdf:RDF>
 </metadata>
 <defs>
  <style type="text/css">*{stroke-linejoin: round; stroke-linecap: butt}</style>
 </defs>
 <g id="figure_1">
  <g id="patch_1">
   <path d="M 0 576 
L 864 576 
L 864 0 
L 0 0 
z
" style="fill: #ffffff"/>
  </g>
  <g id="axes_1">
   <g id="patch_2">
    <path d="M 108 512.64 
L 777.6 512.64 
L 777.6 69.12 
L 108 69.12 
z
" style="fill: #ffffff"/>
   </g>
   <g id="matplotlib.axis_1">
    <g id="xtick_1">
     <g id="line2d_1">
      <path d="M 138.436364 512.64 
L 138.436364 69.12 
" clip-path="url(#p3c392c141c)" style="fill: none; stroke: #b0b0b0; stroke-width: 0.8; stroke-linecap: square"/>
     </g>
     <g id="line2d_2">
      <defs>
       <path id="m48c3a72f81" d="M 0 0 
L 0 3.5 
" style="stroke: #000000; stroke-width: 0.8"/>
      </defs>
      <g>
       <use xlink:href="#m48c3a72f81" x="138.436364" y="512.64" style="stroke: #000000; stroke-width: 0.8"/>
      </g>
     </g>
     <g id="text_1">
      <!-- 0.00 -->
      <g transform="translate(127.303551 527.238438) scale(0.1 -0.1)">
       <defs>
        <path id="DejaVuSans-30" d="M 2034 4250 
Q 1547 4250 1301 3770 
Q 1056 3291 1056 2328 
Q 1056 1369 1301 889 
Q 1547 409 2034 409 
Q 2525 409 2770 889 
Q 3016 1369 3016 2328 
Q 3016 3291 2770 3770 
Q 2525 4250 2034 4250 
z
M 2034 4750 
Q 2819 4750 3233 4129 
Q 3647 3509 3647 2328 
Q 3647 1150 3233 529 
Q 2819 -91 2034 -91 
Q 1250 -91 836 529 
Q 422 1150 422 2328 
Q 422 3509 836 4129 
Q 1250 4750 2034 4750 
z
" transform="scale(0.015625)"/>
        <path id="DejaVuSans-2e" d="M 684 794 
L 1344 794 
L 1344 0 
L 684 0 
L 684 794 
z
" transform="scale(0.015625)"/>
       </defs>
       <use xlink:href="#DejaVuSans-30"/>
       <use xlink:href="#DejaVuSans-2e" x="63.623047"/>
       <use xlink:href="#DejaVuSans-30" x="95.410156"/>
       <use xlink:href="#DejaVuSans-30" x="159.033203"/>
      </g>
     </g>
    </g>
    <g id="xtick_2">
     <g id="line2d_3">
      <path d="M 219.654143 512.64 
L 219.654143 69.12 
" clip-path="url(#p3c392c141c)" style="fill: none; stroke: #b0b0b0; stroke-width: 0.8; stroke-linecap: square"/>
     </g>
     <g id="line2d_4">
      <g>
       <use xlink:href="#m48c3a72f81" x="219.654143" y="512.64" style="stroke: #000000; stroke-width: 0.8"/>
      </g>
     </g>
     <g id="text_2">
      <!-- 0.02 -->
      <g transform="translate(208.52133 527.238438) scale(0.1 -0.1)">
       <defs>
        <path id="DejaVuSans-32" d="M 1228 531 
L 3431 531 
L 3431 0 
L 469 0 
L 469 531 
Q 828 903 1448 1529 
Q 2069 2156 2228 2338 
Q 2531 2678 2651 2914 
Q 2772 3150 2772 3378 
Q 2772 3750 2511 3984 
Q 2250 4219 1831 4219 
Q 1534 4219 1204 4116 
Q 875 4013 500 3803 
L 500 4441 
Q 881 4594 1212 4672 
Q 1544 4750 1819 4750 
Q 2544 4750 2975 4387 
Q 3406 4025 3406 3419 
Q 3406 3131 3298 2873 
Q 3191 2616 2906 2266 
Q 2828 2175 2409 1742 
Q 1991 1309 1228 531 
z
" transform="scale(0.015625)"/>
       </defs>
       <use xlink:href="#DejaVuSans-30"/>
       <use xlink:href="#DejaVuSans-2e" x="63.623047"/>
       <use xlink:href="#DejaVuSans-30" x="95.410156"/>
       <use xlink:href="#DejaVuSans-32" x="159.033203"/>
      </g>
     </g>
    </g>
    <g id="xtick_3">
     <g id="line2d_5">
      <path d="M 300.871922 512.64 
L 300.871922 69.12 
" clip-path="url(#p3c392c141c)" style="fill: none; stroke: #b0b0b0; stroke-width: 0.8; stroke-linecap: square"/>
     </g>
     <g id="line2d_6">
      <g>
       <use xlink:href="#m48c3a72f81" x="300.871922" y="512.64" style="stroke: #000000; stroke-width: 0.8"/>
      </g>
     </g>
     <g id="text_3">
      <!-- 0.04 -->
      <g transform="translate(289.73911 527.238438) scale(0.1 -0.1)">
       <defs>
        <path id="DejaVuSans-34" d="M 2419 4116 
L 825 1625 
L 2419 1625 
L 2419 4116 
z
M 2253 4666 
L 3047 4666 
L 3047 1625 
L 3713 1625 
L 3713 1100 
L 3047 1100 
L 3047 0 
L 2419 0 
L 2419 1100 
L 313 1100 
L 313 1709 
L 2253 4666 
z
" transform="scale(0.015625)"/>
       </defs>
       <use xlink:href="#DejaVuSans-30"/>
       <use xlink:href="#DejaVuSans-2e" x="63.623047"/>
       <use xlink:href="#DejaVuSans-30" x="95.410156"/>
       <use xlink:href="#DejaVuSans-34" x="159.033203"/>
      </g>
     </g>
    </g>
    <g id="xtick_4">
     <g id="line2d_7">
      <path d="M 382.089701 512.64 
L 382.089701 69.12 
" clip-path="url(#p3c392c141c)" style="fill: none; stroke: #b0b0b0; stroke-width: 0.8; stroke-linecap: square"/>
     </g>
     <g id="line2d_8">
      <g>
       <use xlink:href="#m48c3a72f81" x="382.089701" y="512.64" style="stroke: #000000; stroke-width: 0.8"/>
      </g>
     </g>
     <g id="text_4">
      <!-- 0.06 -->
      <g transform="translate(370.956889 527.238438) scale(0.1 -0.1)">
       <defs>
        <path id="DejaVuSans-36" d="M 2113 2584 
Q 1688 2584 1439 2293 
Q 1191 2003 1191 1497 
Q 1191 994 1439 701 
Q 1688 409 2113 409 
Q 2538 409 2786 701 
Q 3034 994 3034 1497 
Q 3034 2003 2786 2293 
Q 2538 2584 2113 2584 
z
M 3366 4563 
L 3366 3988 
Q 3128 4100 2886 4159 
Q 2644 4219 2406 4219 
Q 1781 4219 1451 3797 
Q 1122 3375 1075 2522 
Q 1259 2794 1537 2939 
Q 1816 3084 2150 3084 
Q 2853 3084 3261 2657 
Q 3669 2231 3669 1497 
Q 3669 778 3244 343 
Q 2819 -91 2113 -91 
Q 1303 -91 875 529 
Q 447 1150 447 2328 
Q 447 3434 972 4092 
Q 1497 4750 2381 4750 
Q 2619 4750 2861 4703 
Q 3103 4656 3366 4563 
z
" transform="scale(0.015625)"/>
       </defs>
       <use xlink:href="#DejaVuSans-30"/>
       <use xlink:href="#DejaVuSans-2e" x="63.623047"/>
       <use xlink:href="#DejaVuSans-30" x="95.410156"/>
       <use xlink:href="#DejaVuSans-36" x="159.033203"/>
      </g>
     </g>
    </g>
    <g id="xtick_5">
     <g id="line2d_9">
      <path d="M 463.307481 512.64 
L 463.307481 69.12 
" clip-path="url(#p3c392c141c)" style="fill: none; stroke: #b0b0b0; stroke-width: 0.8; stroke-linecap: square"/>
     </g>
     <g id="line2d_10">
      <g>
       <use xlink:href="#m48c3a72f81" x="463.307481" y="512.64" style="stroke: #000000; stroke-width: 0.8"/>
      </g>
     </g>
     <g id="text_5">
      <!-- 0.08 -->
      <g transform="translate(452.174668 527.238438) scale(0.1 -0.1)">
       <defs>
        <path id="DejaVuSans-38" d="M 2034 2216 
Q 1584 2216 1326 1975 
Q 1069 1734 1069 1313 
Q 1069 891 1326 650 
Q 1584 409 2034 409 
Q 2484 409 2743 651 
Q 3003 894 3003 1313 
Q 3003 1734 2745 1975 
Q 2488 2216 2034 2216 
z
M 1403 2484 
Q 997 2584 770 2862 
Q 544 3141 544 3541 
Q 544 4100 942 4425 
Q 1341 4750 2034 4750 
Q 2731 4750 3128 4425 
Q 3525 4100 3525 3541 
Q 3525 3141 3298 2862 
Q 3072 2584 2669 2484 
Q 3125 2378 3379 2068 
Q 3634 1759 3634 1313 
Q 3634 634 3220 271 
Q 2806 -91 2034 -91 
Q 1263 -91 848 271 
Q 434 634 434 1313 
Q 434 1759 690 2068 
Q 947 2378 1403 2484 
z
M 1172 3481 
Q 1172 3119 1398 2916 
Q 1625 2713 2034 2713 
Q 2441 2713 2670 2916 
Q 2900 3119 2900 3481 
Q 2900 3844 2670 4047 
Q 2441 4250 2034 4250 
Q 1625 4250 1398 4047 
Q 1172 3844 1172 3481 
z
" transform="scale(0.015625)"/>
       </defs>
       <use xlink:href="#DejaVuSans-30"/>
       <use xlink:href="#DejaVuSans-2e" x="63.623047"/>
       <use xlink:href="#DejaVuSans-30" x="95.410156"/>
       <use xlink:href="#DejaVuSans-38" x="159.033203"/>
      </g>
     </g>
    </g>
    <g id="xtick_6">
     <g id="line2d_11">
      <path d="M 544.52526 512.64 
L 544.52526 69.12 
" clip-path="url(#p3c392c141c)" style="fill: none; stroke: #b0b0b0; stroke-width: 0.8; stroke-linecap: square"/>
     </g>
     <g id="line2d_12">
      <g>
       <use xlink:href="#m48c3a72f81" x="544.52526" y="512.64" style="stroke: #000000; stroke-width: 0.8"/>
      </g>
     </g>
     <g id="text_6">
      <!-- 0.10 -->
      <g transform="translate(533.392447 527.238438) scale(0.1 -0.1)">
       <defs>
        <path id="DejaVuSans-31" d="M 794 531 
L 1825 531 
L 1825 4091 
L 703 3866 
L 703 4441 
L 1819 4666 
L 2450 4666 
L 2450 531 
L 3481 531 
L 3481 0 
L 794 0 
L 794 531 
z
" transform="scale(0.015625)"/>
       </defs>
       <use xlink:href="#DejaVuSans-30"/>
       <use xlink:href="#DejaVuSans-2e" x="63.623047"/>
       <use xlink:href="#DejaVuSans-31" x="95.410156"/>
       <use xlink:href="#DejaVuSans-30" x="159.033203"/>
      </g>
     </g>
    </g>
    <g id="xtick_7">
     <g id="line2d_13">
      <path d="M 625.743039 512.64 
L 625.743039 69.12 
" clip-path="url(#p3c392c141c)" style="fill: none; stroke: #b0b0b0; stroke-width: 0.8; stroke-linecap: square"/>
     </g>
     <g id="line2d_14">
      <g>
       <use xlink:href="#m48c3a72f81" x="625.743039" y="512.64" style="stroke: #000000; stroke-width: 0.8"/>
      </g>
     </g>
     <g id="text_7">
      <!-- 0.12 -->
      <g transform="translate(614.610227 527.238438) scale(0.1 -0.1)">
       <use xlink:href="#DejaVuSans-30"/>
       <use xlink:href="#DejaVuSans-2e" x="63.623047"/>
       <use xlink:href="#DejaVuSans-31" x="95.410156"/>
       <use xlink:href="#DejaVuSans-32" x="159.033203"/>
      </g>
     </g>
    </g>
    <g id="xtick_8">
     <g id="line2d_15">
      <path d="M 706.960818 512.64 
L 706.960818 69.12 
" clip-path="url(#p3c392c141c)" style="fill: none; stroke: #b0b0b0; stroke-width: 0.8; stroke-linecap: square"/>
     </g>
     <g id="line2d_16">
      <g>
       <use xlink:href="#m48c3a72f81" x="706.960818" y="512.64" style="stroke: #000000; stroke-width: 0.8"/>
      </g>
     </g>
     <g id="text_8">
      <!-- 0.14 -->
      <g transform="translate(695.828006 527.238438) scale(0.1 -0.1)">
       <use xlink:href="#DejaVuSans-30"/>
       <use xlink:href="#DejaVuSans-2e" x="63.623047"/>
       <use xlink:href="#DejaVuSans-31" x="95.410156"/>
       <use xlink:href="#DejaVuSans-34" x="159.033203"/>
      </g>
     </g>
    </g>
    <g id="text_9">
     <!-- Risk-free rate -->
     <g transform="translate(382.01625 546.995312) scale(0.18 -0.18)">
      <defs>
       <path id="DejaVuSans-52" d="M 2841 2188 
Q 3044 2119 3236 1894 
Q 3428 1669 3622 1275 
L 4263 0 
L 3584 0 
L 2988 1197 
Q 2756 1666 2539 1819 
Q 2322 1972 1947 1972 
L 1259 1972 
L 1259 0 
L 628 0 
L 628 4666 
L 2053 4666 
Q 2853 4666 3247 4331 
Q 3641 3997 3641 3322 
Q 3641 2881 3436 2590 
Q 3231 2300 2841 2188 
z
M 1259 4147 
L 1259 2491 
L 2053 2491 
Q 2509 2491 2742 2702 
Q 2975 2913 2975 3322 
Q 2975 3731 2742 3939 
Q 2509 4147 2053 4147 
L 1259 4147 
z
" transform="scale(0.015625)"/>
       <path id="DejaVuSans-69" d="M 603 3500 
L 1178 3500 
L 1178 0 
L 603 0 
L 603 3500 
z
M 603 4863 
L 1178 4863 
L 1178 4134 
L 603 4134 
L 603 4863 
z
" transform="scale(0.015625)"/>
       <path id="DejaVuSans-73" d="M 2834 3397 
L 2834 2853 
Q 2591 2978 2328 3040 
Q 2066 3103 1784 3103 
Q 1356 3103 1142 2972 
Q 928 2841 928 2578 
Q 928 2378 1081 2264 
Q 1234 2150 1697 2047 
L 1894 2003 
Q 2506 1872 2764 1633 
Q 3022 1394 3022 966 
Q 3022 478 2636 193 
Q 2250 -91 1575 -91 
Q 1294 -91 989 -36 
Q 684 19 347 128 
L 347 722 
Q 666 556 975 473 
Q 1284 391 1588 391 
Q 1994 391 2212 530 
Q 2431 669 2431 922 
Q 2431 1156 2273 1281 
Q 2116 1406 1581 1522 
L 1381 1569 
Q 847 1681 609 1914 
Q 372 2147 372 2553 
Q 372 3047 722 3315 
Q 1072 3584 1716 3584 
Q 2034 3584 2315 3537 
Q 2597 3491 2834 3397 
z
" transform="scale(0.015625)"/>
       <path id="DejaVuSans-6b" d="M 581 4863 
L 1159 4863 
L 1159 1991 
L 2875 3500 
L 3609 3500 
L 1753 1863 
L 3688 0 
L 2938 0 
L 1159 1709 
L 1159 0 
L 581 0 
L 581 4863 
z
" transform="scale(0.015625)"/>
       <path id="DejaVuSans-2d" d="M 313 2009 
L 1997 2009 
L 1997 1497 
L 313 1497 
L 313 2009 
z
" transform="scale(0.015625)"/>
       <path id="DejaVuSans-66" d="M 2375 4863 
L 2375 4384 
L 1825 4384 
Q 1516 4384 1395 4259 
Q 1275 4134 1275 3809 
L 1275 3500 
L 2222 3500 
L 2222 3053 
L 1275 3053 
L 1275 0 
L 697 0 
L 697 3053 
L 147 3053 
L 147 3500 
L 697 3500 
L 697 3744 
Q 697 4328 969 4595 
Q 1241 4863 1831 4863 
L 2375 4863 
z
" transform="scale(0.015625)"/>
       <path id="DejaVuSans-72" d="M 2631 2963 
Q 2534 3019 2420 3045 
Q 2306 3072 2169 3072 
Q 1681 3072 1420 2755 
Q 1159 2438 1159 1844 
L 1159 0 
L 581 0 
L 581 3500 
L 1159 3500 
L 1159 2956 
Q 1341 3275 1631 3429 
Q 1922 3584 2338 3584 
Q 2397 3584 2469 3576 
Q 2541 3569 2628 3553 
L 2631 2963 
z
" transform="scale(0.015625)"/>
       <path id="DejaVuSans-65" d="M 3597 1894 
L 3597 1613 
L 953 1613 
Q 991 1019 1311 708 
Q 1631 397 2203 397 
Q 2534 397 2845 478 
Q 3156 559 3463 722 
L 3463 178 
Q 3153 47 2828 -22 
Q 2503 -91 2169 -91 
Q 1331 -91 842 396 
Q 353 884 353 1716 
Q 353 2575 817 3079 
Q 1281 3584 2069 3584 
Q 2775 3584 3186 3129 
Q 3597 2675 3597 1894 
z
M 3022 2063 
Q 3016 2534 2758 2815 
Q 2500 3097 2075 3097 
Q 1594 3097 1305 2825 
Q 1016 2553 972 2059 
L 3022 2063 
z
" transform="scale(0.015625)"/>
       <path id="DejaVuSans-20" transform="scale(0.015625)"/>
       <path id="DejaVuSans-61" d="M 2194 1759 
Q 1497 1759 1228 1600 
Q 959 1441 959 1056 
Q 959 750 1161 570 
Q 1363 391 1709 391 
Q 2188 391 2477 730 
Q 2766 1069 2766 1631 
L 2766 1759 
L 2194 1759 
z
M 3341 1997 
L 3341 0 
L 2766 0 
L 2766 531 
Q 2569 213 2275 61 
Q 1981 -91 1556 -91 
Q 1019 -91 701 211 
Q 384 513 384 1019 
Q 384 1609 779 1909 
Q 1175 2209 1959 2209 
L 2766 2209 
L 2766 2266 
Q 2766 2663 2505 2880 
Q 2244 3097 1772 3097 
Q 1472 3097 1187 3025 
Q 903 2953 641 2809 
L 641 3341 
Q 956 3463 1253 3523 
Q 1550 3584 1831 3584 
Q 2591 3584 2966 3190 
Q 3341 2797 3341 1997 
z
" transform="scale(0.015625)"/>
       <path id="DejaVuSans-74" d="M 1172 4494 
L 1172 3500 
L 2356 3500 
L 2356 3053 
L 1172 3053 
L 1172 1153 
Q 1172 725 1289 603 
Q 1406 481 1766 481 
L 2356 481 
L 2356 0 
L 1766 0 
Q 1100 0 847 248 
Q 594 497 594 1153 
L 594 3053 
L 172 3053 
L 172 3500 
L 594 3500 
L 594 4494 
L 1172 4494 
z
" transform="scale(0.015625)"/>
      </defs>
      <use xlink:href="#DejaVuSans-52"/>
      <use xlink:href="#DejaVuSans-69" x="69.482422"/>
      <use xlink:href="#DejaVuSans-73" x="97.265625"/>
      <use xlink:href="#DejaVuSans-6b" x="149.365234"/>
      <use xlink:href="#DejaVuSans-2d" x="207.275391"/>
      <use xlink:href="#DejaVuSans-66" x="243.359375"/>
      <use xlink:href="#DejaVuSans-72" x="278.564453"/>
      <use xlink:href="#DejaVuSans-65" x="317.427734"/>
      <use xlink:href="#DejaVuSans-65" x="378.951172"/>
      <use xlink:href="#DejaVuSans-20" x="440.474609"/>
      <use xlink:href="#DejaVuSans-72" x="472.261719"/>
      <use xlink:href="#DejaVuSans-61" x="513.375"/>
      <use xlink:href="#DejaVuSans-74" x="574.654297"/>
      <use xlink:href="#DejaVuSans-65" x="613.863281"/>
     </g>
    </g>
   </g>
   <g id="matplotlib.axis_2">
    <g id="ytick_1">
     <g id="line2d_17">
      <path d="M 108 490.657565 
L 777.6 490.657565 
" clip-path="url(#p3c392c141c)" style="fill: none; stroke: #b0b0b0; stroke-width: 0.8; stroke-linecap: square"/>
     </g>
     <g id="line2d_18">
      <defs>
       <path id="m258c5d6753" d="M 0 0 
L -3.5 0 
" style="stroke: #000000; stroke-width: 0.8"/>
      </defs>
      <g>
       <use xlink:href="#m258c5d6753" x="108" y="490.657565" style="stroke: #000000; stroke-width: 0.8"/>
      </g>
     </g>
     <g id="text_10">
      <!-- 0.0015 -->
      <g transform="translate(66.009375 494.456784) scale(0.1 -0.1)">
       <defs>
        <path id="DejaVuSans-35" d="M 691 4666 
L 3169 4666 
L 3169 4134 
L 1269 4134 
L 1269 2991 
Q 1406 3038 1543 3061 
Q 1681 3084 1819 3084 
Q 2600 3084 3056 2656 
Q 3513 2228 3513 1497 
Q 3513 744 3044 326 
Q 2575 -91 1722 -91 
Q 1428 -91 1123 -41 
Q 819 9 494 109 
L 494 744 
Q 775 591 1075 516 
Q 1375 441 1709 441 
Q 2250 441 2565 725 
Q 2881 1009 2881 1497 
Q 2881 1984 2565 2268 
Q 2250 2553 1709 2553 
Q 1456 2553 1204 2497 
Q 953 2441 691 2322 
L 691 4666 
z
" transform="scale(0.015625)"/>
       </defs>
       <use xlink:href="#DejaVuSans-30"/>
       <use xlink:href="#DejaVuSans-2e" x="63.623047"/>
       <use xlink:href="#DejaVuSans-30" x="95.410156"/>
       <use xlink:href="#DejaVuSans-30" x="159.033203"/>
       <use xlink:href="#DejaVuSans-31" x="222.65625"/>
       <use xlink:href="#DejaVuSans-35" x="286.279297"/>
      </g>
     </g>
    </g>
    <g id="ytick_2">
     <g id="line2d_19">
      <path d="M 108 431.804769 
L 777.6 431.804769 
" clip-path="url(#p3c392c141c)" style="fill: none; stroke: #b0b0b0; stroke-width: 0.8; stroke-linecap: square"/>
     </g>
     <g id="line2d_20">
      <g>
       <use xlink:href="#m258c5d6753" x="108" y="431.804769" style="stroke: #000000; stroke-width: 0.8"/>
      </g>
     </g>
     <g id="text_11">
      <!-- 0.0020 -->
      <g transform="translate(66.009375 435.603988) scale(0.1 -0.1)">
       <use xlink:href="#DejaVuSans-30"/>
       <use xlink:href="#DejaVuSans-2e" x="63.623047"/>
       <use xlink:href="#DejaVuSans-30" x="95.410156"/>
       <use xlink:href="#DejaVuSans-30" x="159.033203"/>
       <use xlink:href="#DejaVuSans-32" x="222.65625"/>
       <use xlink:href="#DejaVuSans-30" x="286.279297"/>
      </g>
     </g>
    </g>
    <g id="ytick_3">
     <g id="line2d_21">
      <path d="M 108 372.951973 
L 777.6 372.951973 
" clip-path="url(#p3c392c141c)" style="fill: none; stroke: #b0b0b0; stroke-width: 0.8; stroke-linecap: square"/>
     </g>
     <g id="line2d_22">
      <g>
       <use xlink:href="#m258c5d6753" x="108" y="372.951973" style="stroke: #000000; stroke-width: 0.8"/>
      </g>
     </g>
     <g id="text_12">
      <!-- 0.0025 -->
      <g transform="translate(66.009375 376.751192) scale(0.1 -0.1)">
       <use xlink:href="#DejaVuSans-30"/>
       <use xlink:href="#DejaVuSans-2e" x="63.623047"/>
       <use xlink:href="#DejaVuSans-30" x="95.410156"/>
       <use xlink:href="#DejaVuSans-30" x="159.033203"/>
       <use xlink:href="#DejaVuSans-32" x="222.65625"/>
       <use xlink:href="#DejaVuSans-35" x="286.279297"/>
      </g>
     </g>
    </g>
    <g id="ytick_4">
     <g id="line2d_23">
      <path d="M 108 314.099177 
L 777.6 314.099177 
" clip-path="url(#p3c392c141c)" style="fill: none; stroke: #b0b0b0; stroke-width: 0.8; stroke-linecap: square"/>
     </g>
     <g id="line2d_24">
      <g>
       <use xlink:href="#m258c5d6753" x="108" y="314.099177" style="stroke: #000000; stroke-width: 0.8"/>
      </g>
     </g>
     <g id="text_13">
      <!-- 0.0030 -->
      <g transform="translate(66.009375 317.898396) scale(0.1 -0.1)">
       <defs>
        <path id="DejaVuSans-33" d="M 2597 2516 
Q 3050 2419 3304 2112 
Q 3559 1806 3559 1356 
Q 3559 666 3084 287 
Q 2609 -91 1734 -91 
Q 1441 -91 1130 -33 
Q 819 25 488 141 
L 488 750 
Q 750 597 1062 519 
Q 1375 441 1716 441 
Q 2309 441 2620 675 
Q 2931 909 2931 1356 
Q 2931 1769 2642 2001 
Q 2353 2234 1838 2234 
L 1294 2234 
L 1294 2753 
L 1863 2753 
Q 2328 2753 2575 2939 
Q 2822 3125 2822 3475 
Q 2822 3834 2567 4026 
Q 2313 4219 1838 4219 
Q 1578 4219 1281 4162 
Q 984 4106 628 3988 
L 628 4550 
Q 988 4650 1302 4700 
Q 1616 4750 1894 4750 
Q 2613 4750 3031 4423 
Q 3450 4097 3450 3541 
Q 3450 3153 3228 2886 
Q 3006 2619 2597 2516 
z
" transform="scale(0.015625)"/>
       </defs>
       <use xlink:href="#DejaVuSans-30"/>
       <use xlink:href="#DejaVuSans-2e" x="63.623047"/>
       <use xlink:href="#DejaVuSans-30" x="95.410156"/>
       <use xlink:href="#DejaVuSans-30" x="159.033203"/>
       <use xlink:href="#DejaVuSans-33" x="222.65625"/>
       <use xlink:href="#DejaVuSans-30" x="286.279297"/>
      </g>
     </g>
    </g>
    <g id="ytick_5">
     <g id="line2d_25">
      <path d="M 108 255.246381 
L 777.6 255.246381 
" clip-path="url(#p3c392c141c)" style="fill: none; stroke: #b0b0b0; stroke-width: 0.8; stroke-linecap: square"/>
     </g>
     <g id="line2d_26">
      <g>
       <use xlink:href="#m258c5d6753" x="108" y="255.246381" style="stroke: #000000; stroke-width: 0.8"/>
      </g>
     </g>
     <g id="text_14">
      <!-- 0.0035 -->
      <g transform="translate(66.009375 259.0456) scale(0.1 -0.1)">
       <use xlink:href="#DejaVuSans-30"/>
       <use xlink:href="#DejaVuSans-2e" x="63.623047"/>
       <use xlink:href="#DejaVuSans-30" x="95.410156"/>
       <use xlink:href="#DejaVuSans-30" x="159.033203"/>
       <use xlink:href="#DejaVuSans-33" x="222.65625"/>
       <use xlink:href="#DejaVuSans-35" x="286.279297"/>
      </g>
     </g>
    </g>
    <g id="ytick_6">
     <g id="line2d_27">
      <path d="M 108 196.393585 
L 777.6 196.393585 
" clip-path="url(#p3c392c141c)" style="fill: none; stroke: #b0b0b0; stroke-width: 0.8; stroke-linecap: square"/>
     </g>
     <g id="line2d_28">
      <g>
       <use xlink:href="#m258c5d6753" x="108" y="196.393585" style="stroke: #000000; stroke-width: 0.8"/>
      </g>
     </g>
     <g id="text_15">
      <!-- 0.0040 -->
      <g transform="translate(66.009375 200.192803) scale(0.1 -0.1)">
       <use xlink:href="#DejaVuSans-30"/>
       <use xlink:href="#DejaVuSans-2e" x="63.623047"/>
       <use xlink:href="#DejaVuSans-30" x="95.410156"/>
       <use xlink:href="#DejaVuSans-30" x="159.033203"/>
       <use xlink:href="#DejaVuSans-34" x="222.65625"/>
       <use xlink:href="#DejaVuSans-30" x="286.279297"/>
      </g>
     </g>
    </g>
    <g id="ytick_7">
     <g id="line2d_29">
      <path d="M 108 137.540789 
L 777.6 137.540789 
" clip-path="url(#p3c392c141c)" style="fill: none; stroke: #b0b0b0; stroke-width: 0.8; stroke-linecap: square"/>
     </g>
     <g id="line2d_30">
      <g>
       <use xlink:href="#m258c5d6753" x="108" y="137.540789" style="stroke: #000000; stroke-width: 0.8"/>
      </g>
     </g>
     <g id="text_16">
      <!-- 0.0045 -->
      <g transform="translate(66.009375 141.340007) scale(0.1 -0.1)">
       <use xlink:href="#DejaVuSans-30"/>
       <use xlink:href="#DejaVuSans-2e" x="63.623047"/>
       <use xlink:href="#DejaVuSans-30" x="95.410156"/>
       <use xlink:href="#DejaVuSans-30" x="159.033203"/>
       <use xlink:href="#DejaVuSans-34" x="222.65625"/>
       <use xlink:href="#DejaVuSans-35" x="286.279297"/>
      </g>
     </g>
    </g>
    <g id="ytick_8">
     <g id="line2d_31">
      <path d="M 108 78.687992 
L 777.6 78.687992 
" clip-path="url(#p3c392c141c)" style="fill: none; stroke: #b0b0b0; stroke-width: 0.8; stroke-linecap: square"/>
     </g>
     <g id="line2d_32">
      <g>
       <use xlink:href="#m258c5d6753" x="108" y="78.687992" style="stroke: #000000; stroke-width: 0.8"/>
      </g>
     </g>
     <g id="text_17">
      <!-- 0.0050 -->
      <g transform="translate(66.009375 82.487211) scale(0.1 -0.1)">
       <use xlink:href="#DejaVuSans-30"/>
       <use xlink:href="#DejaVuSans-2e" x="63.623047"/>
       <use xlink:href="#DejaVuSans-30" x="95.410156"/>
       <use xlink:href="#DejaVuSans-30" x="159.033203"/>
       <use xlink:href="#DejaVuSans-35" x="222.65625"/>
       <use xlink:href="#DejaVuSans-30" x="286.279297"/>
      </g>
     </g>
    </g>
    <g id="text_18">
     <!-- Price/strike ratio -->
     <g transform="translate(58.265938 364.318594) rotate(-90) scale(0.18 -0.18)">
      <defs>
       <path id="DejaVuSans-50" d="M 1259 4147 
L 1259 2394 
L 2053 2394 
Q 2494 2394 2734 2622 
Q 2975 2850 2975 3272 
Q 2975 3691 2734 3919 
Q 2494 4147 2053 4147 
L 1259 4147 
z
M 628 4666 
L 2053 4666 
Q 2838 4666 3239 4311 
Q 3641 3956 3641 3272 
Q 3641 2581 3239 2228 
Q 2838 1875 2053 1875 
L 1259 1875 
L 1259 0 
L 628 0 
L 628 4666 
z
" transform="scale(0.015625)"/>
       <path id="DejaVuSans-63" d="M 3122 3366 
L 3122 2828 
Q 2878 2963 2633 3030 
Q 2388 3097 2138 3097 
Q 1578 3097 1268 2742 
Q 959 2388 959 1747 
Q 959 1106 1268 751 
Q 1578 397 2138 397 
Q 2388 397 2633 464 
Q 2878 531 3122 666 
L 3122 134 
Q 2881 22 2623 -34 
Q 2366 -91 2075 -91 
Q 1284 -91 818 406 
Q 353 903 353 1747 
Q 353 2603 823 3093 
Q 1294 3584 2113 3584 
Q 2378 3584 2631 3529 
Q 2884 3475 3122 3366 
z
" transform="scale(0.015625)"/>
       <path id="DejaVuSans-2f" d="M 1625 4666 
L 2156 4666 
L 531 -594 
L 0 -594 
L 1625 4666 
z
" transform="scale(0.015625)"/>
       <path id="DejaVuSans-6f" d="M 1959 3097 
Q 1497 3097 1228 2736 
Q 959 2375 959 1747 
Q 959 1119 1226 758 
Q 1494 397 1959 397 
Q 2419 397 2687 759 
Q 2956 1122 2956 1747 
Q 2956 2369 2687 2733 
Q 2419 3097 1959 3097 
z
M 1959 3584 
Q 2709 3584 3137 3096 
Q 3566 2609 3566 1747 
Q 3566 888 3137 398 
Q 2709 -91 1959 -91 
Q 1206 -91 779 398 
Q 353 888 353 1747 
Q 353 2609 779 3096 
Q 1206 3584 1959 3584 
z
" transform="scale(0.015625)"/>
      </defs>
      <use xlink:href="#DejaVuSans-50"/>
      <use xlink:href="#DejaVuSans-72" x="58.552734"/>
      <use xlink:href="#DejaVuSans-69" x="99.666016"/>
      <use xlink:href="#DejaVuSans-63" x="127.449219"/>
      <use xlink:href="#DejaVuSans-65" x="182.429688"/>
      <use xlink:href="#DejaVuSans-2f" x="243.953125"/>
      <use xlink:href="#DejaVuSans-73" x="277.644531"/>
      <use xlink:href="#DejaVuSans-74" x="329.744141"/>
      <use xlink:href="#DejaVuSans-72" x="368.953125"/>
      <use xlink:href="#DejaVuSans-69" x="410.066406"/>
      <use xlink:href="#DejaVuSans-6b" x="437.849609"/>
      <use xlink:href="#DejaVuSans-65" x="492.134766"/>
      <use xlink:href="#DejaVuSans-20" x="553.658203"/>
      <use xlink:href="#DejaVuSans-72" x="585.445312"/>
      <use xlink:href="#DejaVuSans-61" x="626.558594"/>
      <use xlink:href="#DejaVuSans-74" x="687.837891"/>
      <use xlink:href="#DejaVuSans-69" x="727.046875"/>
      <use xlink:href="#DejaVuSans-6f" x="754.830078"/>
     </g>
    </g>
   </g>
   <g id="line2d_33">
    <path d="M 138.436364 137.540811 
L 139.248541 210.282928 
L 139.248541 163.200497 
L 139.65463 164.259718 
L 139.65463 176.030586 
L 140.060719 165.319104 
L 140.060719 200.630831 
L 140.060719 165.319104 
L 140.466808 189.919459 
L 140.466808 189.919459 
L 140.466808 201.689998 
L 140.466808 142.837302 
L 140.872897 190.978406 
L 140.872897 167.437382 
L 140.872897 214.519676 
L 140.872897 179.207922 
L 141.685075 193.096904 
L 142.091164 194.15607 
L 142.497253 159.9034 
L 142.497253 171.673775 
L 142.497253 89.28 
L 142.903341 149.192082 
L 142.903341 184.503645 
L 143.715519 221.933185 
L 143.715519 186.621649 
L 144.933786 142.716279 
L 145.339875 190.857109 
L 145.339875 155.545492 
L 145.745964 191.915783 
L 145.745964 238.998269 
L 146.152053 181.204136 
L 146.558142 194.033294 
L 147.776408 161.898079 
L 147.776408 197.209423 
L 148.994675 176.844529 
L 149.806852 202.502625 
L 149.806852 120.108631 
L 150.212941 191.790704 
L 150.212941 180.019836 
L 150.212941 156.479086 
L 150.619031 181.078509 
L 150.619031 169.30797 
L 151.02512 182.136744 
L 151.02512 229.219065 
L 151.837297 184.253652 
L 152.649475 186.370505 
L 152.649475 221.68215 
L 152.649475 127.5177 
L 153.055564 199.199444 
L 153.055564 222.740193 
L 153.055564 163.887388 
L 153.461653 176.716381 
L 153.461653 164.945622 
L 153.461653 212.027862 
L 153.461653 176.716381 
L 153.867742 213.086288 
L 154.27383 178.832741 
L 154.27383 249.456113 
L 154.27383 225.91509 
L 154.67992 168.120436 
L 155.086008 145.637319 
L 155.086008 192.719695 
L 155.086008 169.178342 
L 155.492097 134.924795 
L 155.492097 217.318926 
L 156.304275 172.352827 
L 156.304275 172.352827 
L 156.710363 185.181272 
L 156.710363 185.181272 
L 157.116453 221.550878 
L 157.928632 188.355155 
L 157.928632 153.043427 
L 158.33472 165.872092 
L 158.33472 224.725007 
L 158.33472 154.101552 
L 158.740808 190.471295 
L 158.740808 237.553425 
L 158.740808 166.930052 
L 159.146898 156.217474 
L 159.552986 192.586614 
L 159.552986 192.586614 
L 160.365165 230.014071 
L 160.771253 266.38332 
L 160.771253 242.842132 
L 161.989519 198.932898 
L 161.989519 210.703711 
L 161.989519 198.932898 
L 162.395609 176.449671 
L 162.395609 152.908592 
L 162.395609 152.908592 
L 162.801698 201.048052 
L 162.801698 177.507193 
L 162.801698 189.277677 
L 163.613876 203.163426 
L 163.613876 191.392886 
L 164.019964 215.99124 
L 165.238231 207.392966 
L 165.644319 220.22111 
L 165.644319 149.597518 
L 166.050409 233.048898 
L 166.050409 221.278331 
L 166.456497 210.565204 
L 166.456497 128.170991 
L 166.456497 198.794446 
L 167.268675 165.597598 
L 167.268675 224.450212 
L 168.486942 215.851308 
L 168.486942 156.99853 
L 168.89303 193.367231 
L 168.89303 205.13788 
L 170.111297 184.767834 
L 171.329565 152.626974 
L 171.735653 188.995894 
L 172.54783 132.256653 
L 172.54783 191.109678 
L 172.54783 179.338701 
L 173.36001 181.452484 
L 173.36001 252.075747 
L 173.36001 122.599624 
L 173.36001 169.682 
L 174.172186 230.648178 
L 175.390455 174.96561 
L 175.390455 198.506579 
L 175.390455 163.19518 
L 175.390455 174.96561 
L 175.796543 164.251551 
L 176.202631 188.849494 
L 176.202631 188.849494 
L 176.202631 177.078791 
L 177.014808 143.880464 
L 177.4209 203.789641 
L 177.4209 168.477749 
L 177.826988 204.846067 
L 178.639164 148.106058 
L 178.639164 242.270701 
L 178.639164 195.188489 
L 179.045252 208.015262 
L 179.451341 209.071606 
L 179.451341 209.071606 
L 179.451341 197.300903 
L 179.451341 220.842255 
L 179.857433 151.275172 
L 179.857433 186.586789 
L 180.669609 188.699367 
L 181.075697 177.985199 
L 181.075697 248.608599 
L 181.481785 214.353051 
L 181.481785 155.500108 
L 181.887877 227.17966 
L 181.887877 180.097448 
L 181.887877 227.17966 
L 183.106142 183.266069 
L 183.106142 195.036389 
L 183.106142 183.266069 
L 183.51223 254.945237 
L 183.918318 197.148473 
L 184.730499 211.030933 
L 184.730499 152.178182 
L 185.136587 188.546006 
L 185.948763 190.657652 
L 186.760943 169.22822 
L 187.57312 159.569492 
L 187.57312 218.422023 
L 187.979208 243.01898 
L 188.385296 185.221723 
L 189.197476 175.562391 
L 189.197476 246.18601 
L 189.603565 235.470938 
L 189.603565 188.388918 
L 190.009653 224.755811 
L 190.415741 190.499907 
L 190.821833 215.096561 
L 190.821833 203.325776 
L 191.227921 216.152138 
L 191.634009 193.666334 
L 191.634009 170.125475 
L 192.040098 206.492258 
L 192.040098 218.26277 
L 192.040098 194.721938 
L 193.258366 221.428842 
L 193.258366 115.494153 
L 193.664454 175.402069 
L 193.664454 222.4845 
L 194.070542 247.080826 
L 194.070542 176.457618 
L 194.476631 201.053862 
L 194.882719 237.420645 
L 194.882719 225.650353 
L 194.882719 225.650353 
L 195.288811 191.393818 
L 195.694899 180.67828 
L 195.694899 180.67828 
L 195.694899 215.989925 
L 196.913164 230.925796 
L 197.319252 173.128073 
L 198.131432 234.091018 
L 198.53752 188.063725 
L 198.53752 235.145964 
L 199.349697 190.173343 
L 199.755789 191.228563 
L 200.974053 229.704553 
L 200.974053 147.310368 
L 201.380142 195.447745 
L 201.78623 149.420315 
L 201.78623 243.584546 
L 202.192318 232.868734 
L 202.598406 198.611651 
L 203.004502 234.977777 
L 203.41059 165.409049 
L 203.41059 212.491261 
L 203.41059 188.950292 
L 203.816678 142.922807 
L 204.222767 214.60044 
L 205.034943 240.250561 
L 205.441031 182.452126 
L 205.441031 217.764045 
L 205.441031 194.22283 
L 207.877568 153.466951 
L 207.877568 153.466951 
L 208.283656 213.373744 
L 208.283656 248.685663 
L 209.095833 227.252668 
L 209.095833 133.088135 
L 209.095833 168.400246 
L 209.501921 228.307066 
L 209.908009 182.278759 
L 209.908009 241.131592 
L 210.314097 206.873907 
L 211.126274 173.670647 
L 211.532362 162.953793 
L 212.344546 188.603064 
L 212.750634 236.739318 
L 212.750634 177.886266 
L 213.156722 202.481303 
L 213.156722 214.251952 
L 213.56281 215.306049 
L 213.56281 215.306049 
L 213.56281 179.994294 
L 213.968899 216.359817 
L 214.781075 206.696484 
L 214.781075 171.384866 
L 214.781075 218.467352 
L 215.187163 207.75069 
L 215.187163 207.75069 
L 215.593251 220.574832 
L 215.593251 173.492621 
L 215.593251 173.492621 
L 216.405435 199.140961 
L 216.405435 222.682121 
L 217.217612 213.018706 
L 217.217612 177.707089 
L 217.217612 201.248057 
L 217.6237 166.990125 
L 218.029788 226.896315 
L 218.435876 216.179215 
L 218.435876 180.867542 
L 219.248053 182.974694 
L 219.248053 112.351404 
L 219.654141 113.404486 
L 219.654141 219.339504 
L 220.060229 185.081517 
L 220.466317 197.905522 
L 221.278501 176.470718 
L 221.68459 177.52402 
L 221.68459 201.065373 
L 222.090678 190.348025 
L 222.090678 213.88894 
L 222.496766 214.942186 
L 222.496766 226.712781 
L 222.496766 191.401053 
L 223.308942 217.048543 
L 223.715031 182.789981 
L 224.121119 219.154983 
L 224.527207 267.290167 
L 224.933295 256.572491 
L 225.745479 199.825659 
L 226.963744 191.214093 
L 226.963744 226.525793 
L 226.963744 202.984578 
L 227.369832 239.348921 
L 227.369832 192.267011 
L 227.77592 252.172351 
L 228.182009 229.684136 
L 228.588097 195.425217 
L 228.994185 243.560292 
L 229.400273 221.071611 
L 229.400273 150.448349 
L 229.400273 232.842205 
L 229.806369 233.895206 
L 229.806369 186.81272 
L 230.212457 223.177009 
L 230.212457 176.09477 
L 231.024634 272.364673 
L 231.430722 226.334941 
L 231.430722 179.252647 
L 231.83681 227.387339 
L 232.242898 204.898959 
L 232.648986 241.262865 
L 233.461163 266.908957 
L 233.461163 231.597257 
L 233.867251 244.420029 
L 233.867251 209.10833 
L 233.867251 232.649545 
L 234.273347 186.61984 
L 234.679435 222.983828 
L 234.679435 234.754312 
L 235.491611 236.858751 
L 235.8977 202.599257 
L 236.303788 227.192678 
L 236.303788 238.963135 
L 236.303788 191.880923 
L 236.709876 169.39205 
L 236.709876 181.162425 
L 237.115964 241.067436 
L 237.115964 229.297171 
L 237.928141 196.0898 
L 238.334229 197.141732 
L 238.740325 221.734879 
L 238.740325 198.193663 
L 239.146413 234.55713 
L 239.146413 152.163493 
L 240.364677 225.942468 
L 240.770766 179.912078 
L 241.176854 192.734658 
L 241.582942 217.327504 
L 241.582942 205.557184 
L 241.582942 276.180172 
L 241.98903 253.69108 
L 242.395118 219.430956 
L 243.613391 199.044932 
L 244.831655 237.511631 
L 245.643832 227.844325 
L 246.456008 229.946927 
L 246.862096 183.9164 
L 247.268184 232.049859 
L 247.268184 220.279511 
L 248.486457 258.744923 
L 248.486457 188.12177 
L 248.892545 177.402614 
L 249.298633 225.53577 
L 249.298633 296.15939 
L 249.704721 191.275372 
L 250.110809 192.326755 
L 250.516898 252.230533 
L 251.329074 195.480083 
L 251.329074 148.398091 
L 251.735162 196.531247 
L 252.953434 211.454923 
L 252.953434 234.995946 
L 253.359523 200.735411 
L 253.765611 260.638805 
L 253.765611 213.556785 
L 255.389964 158.907211 
L 255.796052 265.892982 
L 255.796052 183.499015 
L 255.796052 230.581583 
L 256.20214 255.173223 
L 256.608236 244.453464 
L 257.014324 186.651466 
L 257.420412 199.472512 
L 257.420412 246.554888 
L 257.420412 234.784404 
L 258.232589 201.573689 
L 258.638677 190.85393 
L 258.638677 261.477385 
L 259.044765 203.675141 
L 259.044765 203.675141 
L 259.450853 263.57848 
L 259.856942 205.775934 
L 259.856942 264.628713 
L 259.856942 194.00534 
L 260.26303 230.367464 
L 260.26303 183.285417 
L 260.669118 184.335594 
L 260.669118 254.958994 
L 260.669118 243.188455 
L 261.075214 244.238934 
L 261.88739 199.257434 
L 261.88739 269.880614 
L 261.88739 234.569079 
L 262.293478 247.390042 
L 262.293478 294.472199 
L 263.105655 237.719803 
L 264.730008 289.002945 
L 264.730008 218.379627 
L 264.730008 253.69108 
L 265.136096 160.576917 
L 265.136096 242.970856 
L 265.542192 220.479818 
L 266.760449 211.858934 
L 266.760449 188.318157 
L 267.166544 248.220839 
L 267.978721 215.009028 
L 267.978721 179.697329 
L 267.978721 226.779568 
L 269.196993 253.470192 
L 269.196993 206.388118 
L 269.603074 207.437692 
L 269.603074 207.437692 
L 270.009169 196.717056 
L 270.009169 255.569506 
L 270.821346 234.127823 
L 271.227426 211.636566 
L 271.227426 246.948211 
L 271.633522 177.374605 
L 271.633522 224.456598 
L 272.039618 225.50631 
L 272.039618 190.194719 
L 273.257875 193.343334 
L 274.070051 242.524311 
L 274.476147 255.34448 
L 274.882228 209.311431 
L 275.288324 198.590165 
L 275.288324 257.442944 
L 276.506596 178.196989 
L 276.912676 238.09926 
L 277.724853 193.115485 
L 277.724853 240.197641 
L 278.537029 242.295804 
L 278.537029 218.754863 
L 278.537029 265.837102 
L 279.349206 267.93499 
L 279.349206 256.164643 
L 279.755301 198.360891 
L 279.755301 257.213478 
L 280.973574 213.278126 
L 280.973574 236.819342 
L 281.379654 214.327126 
L 281.78575 297.769872 
L 281.78575 203.60575 
L 282.191831 251.736687 
L 283.004007 253.834219 
L 283.004007 253.834219 
L 284.62836 210.946935 
L 285.034456 270.848329 
L 285.440552 271.897027 
L 285.440552 224.81487 
L 285.846632 155.239976 
L 286.252728 273.994038 
L 287.064904 287.861781 
L 287.064904 170.156279 
L 287.877081 242.876553 
L 288.689257 280.284881 
L 290.31361 272.707516 
L 290.31361 190.313933 
L 291.125786 239.492526 
L 291.531882 169.917358 
L 291.937963 241.588935 
L 292.344059 219.095595 
L 292.344059 289.71894 
L 292.344059 219.095595 
L 292.750139 243.685152 
L 293.156235 221.192031 
L 293.562316 269.322063 
L 293.968411 223.287919 
L 294.374507 247.877037 
L 294.374507 283.18871 
L 294.780588 237.154566 
L 294.780588 237.154566 
L 295.99886 287.380322 
L 296.404941 229.5752 
L 296.404941 241.345739 
L 296.811036 218.85281 
L 296.811036 254.164455 
L 296.811036 207.081969 
L 296.811036 242.393888 
L 297.217117 255.212111 
L 297.623213 244.489338 
L 298.029293 245.537022 
L 298.435389 199.502384 
L 299.247566 189.827048 
L 300.059742 227.233813 
L 300.465838 240.051817 
L 301.278014 253.917367 
L 301.684095 207.882538 
L 302.496271 245.289276 
L 302.902367 246.336521 
L 302.902367 258.107143 
L 303.308463 223.842578 
L 303.714543 213.119613 
L 304.120639 214.166858 
L 304.120639 261.249015 
L 304.120639 237.707855 
L 304.52672 215.213802 
L 304.52672 238.755209 
L 304.52672 226.984506 
L 304.932816 310.425745 
L 305.338896 229.079133 
L 305.744992 206.584944 
L 305.744992 230.126214 
L 306.151073 242.943724 
L 306.151073 313.567069 
L 306.557169 255.761454 
L 306.557169 173.367378 
L 306.557169 267.531938 
L 306.963249 268.579101 
L 306.963249 268.579101 
L 306.963249 256.808589 
L 307.369345 187.232243 
L 307.369345 257.855423 
L 307.775441 282.443473 
L 308.181521 248.178854 
L 308.181521 224.637638 
L 308.181521 248.178854 
L 308.993698 226.73169 
L 308.993698 250.272878 
L 309.399794 192.466687 
L 310.21197 241.642896 
L 311.024146 279.047826 
L 311.024146 302.589069 
L 311.430227 174.159889 
L 311.430227 256.553691 
L 312.242419 211.564901 
L 313.054595 260.740342 
L 313.054595 260.740342 
L 313.054595 225.428341 
L 315.491124 243.478295 
L 315.897205 256.295148 
L 317.115477 271.204627 
L 317.115477 271.204627 
L 317.115477 259.434225 
L 318.333749 215.490926 
L 318.333749 262.572864 
L 318.333749 250.802544 
L 318.73983 251.848446 
L 318.73983 192.995668 
L 319.145926 229.353544 
L 319.145926 217.583169 
L 319.145926 276.435948 
L 319.552006 230.399995 
L 319.552006 265.711503 
L 319.552006 253.941046 
L 320.364183 256.033289 
L 320.364183 220.721315 
L 320.770278 257.079328 
L 320.770278 209.997007 
L 321.176374 258.125093 
L 321.582455 259.17127 
L 321.988551 166.052803 
L 321.988551 260.21709 
L 322.394631 237.722215 
L 322.800727 262.309223 
L 322.800727 168.144718 
L 323.206808 263.355126 
L 323.612903 217.318515 
L 324.018984 288.987762 
L 324.018984 206.593713 
L 324.018984 253.676062 
L 324.42508 219.410018 
L 324.83116 208.685244 
L 324.83116 255.76773 
L 325.643352 234.317743 
L 325.643352 199.006126 
L 325.643352 257.858904 
L 325.643352 222.547231 
L 326.049433 258.904614 
L 326.049433 211.822485 
L 326.049433 223.593106 
L 326.455528 271.720946 
L 326.455528 259.95038 
L 326.455528 212.867949 
L 326.455528 224.638543 
L 326.861609 202.143065 
L 326.861609 249.225387 
L 327.267705 179.64756 
L 327.267705 191.418319 
L 328.079881 228.820837 
L 328.485962 265.178137 
L 328.485962 241.63684 
L 328.892058 266.223492 
L 328.892058 230.912066 
L 329.704234 280.084849 
L 330.11033 257.589042 
L 330.51641 223.323053 
L 330.51641 305.716663 
L 330.922506 318.532858 
L 330.922506 247.909431 
L 330.922506 247.909431 
L 331.328587 248.954621 
L 331.734683 214.688028 
L 332.140763 239.274653 
L 332.546859 275.631241 
L 332.95294 217.823707 
L 332.95294 288.44708 
L 333.359036 242.410112 
L 333.765116 266.996408 
L 334.577308 245.54549 
L 334.983388 270.131374 
L 335.389484 271.176317 
L 335.389484 224.094106 
L 335.795565 319.303774 
L 335.795565 225.139241 
L 336.607741 262.540882 
L 337.419918 229.318849 
L 337.419918 252.859681 
L 337.419918 241.089388 
L 338.232094 243.178699 
L 339.450366 258.083738 
L 339.450366 246.313254 
L 339.450366 258.083738 
L 339.856462 270.899002 
L 339.856462 247.357622 
L 340.262543 248.40262 
L 340.262543 283.714292 
L 340.668638 249.44696 
L 340.668638 202.364775 
L 341.074719 297.573923 
L 341.480815 251.536188 
L 341.886895 240.810071 
L 342.292991 241.854713 
L 342.292991 194.772364 
L 342.699072 242.89919 
L 343.105168 267.484609 
L 343.105168 291.025687 
L 343.511263 280.299653 
L 343.511263 280.299653 
L 343.511263 221.44671 
L 344.32344 235.306231 
L 344.32344 211.765153 
L 344.72952 283.432536 
L 344.72952 201.03868 
L 344.72952 224.57984 
L 345.135616 213.853504 
L 346.353873 205.215821 
L 346.759969 218.030618 
L 347.16605 277.927518 
L 347.16605 242.615845 
L 348.384322 245.748098 
L 348.384322 233.977422 
L 348.790418 235.021488 
L 348.790418 223.250675 
L 348.790418 258.562594 
L 349.196498 294.918086 
L 349.196498 224.294796 
L 349.602594 213.568076 
L 349.602594 260.650425 
L 350.008675 226.382873 
L 350.41477 215.65588 
L 350.41477 215.65588 
L 350.41477 262.73842 
L 350.820851 228.470266 
L 351.226947 229.514277 
L 351.226947 264.826032 
L 351.226947 264.826032 
L 352.039123 255.14294 
L 352.039123 266.913561 
L 352.445219 279.72803 
L 352.8513 210.148203 
L 353.257395 270.044663 
L 353.663476 259.317971 
L 353.663476 282.85894 
L 354.475652 202.552229 
L 354.881748 297.76039 
L 355.287829 263.492208 
L 355.287829 251.721696 
L 355.287829 263.492208 
L 355.693925 252.765241 
L 356.100005 277.34981 
L 356.100005 194.956145 
L 356.506101 266.622926 
L 356.506101 266.622926 
L 356.912197 302.97798 
L 356.912197 208.813337 
L 357.318277 221.627367 
L 357.318277 304.021361 
L 357.724373 281.523499 
L 358.130454 306.108068 
L 358.130454 235.484531 
L 358.130454 270.796176 
L 358.53655 248.298753 
L 358.94263 190.488999 
L 358.94263 225.800644 
L 359.348726 215.073267 
L 359.754807 192.575323 
L 360.973079 231.016481 
L 361.379175 302.683261 
L 361.379175 255.60094 
L 361.785255 256.644184 
L 361.785255 221.332374 
L 362.191351 234.145966 
L 362.191351 269.457529 
L 362.191351 257.687099 
L 362.597432 235.188771 
L 363.003528 259.773176 
L 363.409608 237.275122 
L 363.409608 249.045524 
L 363.409608 237.275122 
L 364.221785 274.67257 
L 364.62788 240.403648 
L 364.62788 263.944754 
L 365.033961 217.905512 
L 365.440057 254.259771 
L 365.846153 208.220584 
L 367.470505 224.161715 
L 367.470505 259.473525 
L 367.876586 225.204575 
L 367.876586 213.433899 
L 368.282682 226.247079 
L 368.282682 308.641018 
L 368.282682 261.558642 
L 368.688762 227.289638 
L 369.094858 251.873385 
L 369.500939 205.833595 
L 369.500939 288.227397 
L 370.31313 219.689252 
L 370.31313 302.083109 
L 371.125307 245.31501 
L 371.531387 246.357432 
L 371.531387 211.045732 
L 372.343564 248.442111 
L 373.15574 215.21509 
L 374.780108 242.924705 
L 375.186189 255.737529 
L 375.592285 292.09113 
L 375.998365 269.592117 
L 377.622718 285.53059 
L 377.622718 261.989374 
L 378.028814 239.490498 
L 378.028814 286.572381 
L 378.84099 241.573889 
L 378.84099 229.80346 
L 380.059262 256.469885 
L 380.059262 327.093422 
L 380.059262 221.158377 
L 380.059262 221.158377 
L 380.465343 269.282216 
L 380.871439 270.324062 
L 380.871439 258.553222 
L 381.277519 271.365497 
L 382.089696 261.678158 
L 382.495792 203.866979 
L 383.307968 241.261631 
L 383.307968 276.573441 
L 383.307968 253.032362 
L 384.120145 313.968203 
L 384.52624 244.386129 
L 384.932321 221.886513 
L 385.338417 281.780507 
L 385.338417 258.239347 
L 385.744497 306.363213 
L 386.150593 272.092674 
L 386.96277 297.716322 
L 388.587122 301.881048 
L 388.587122 219.487301 
L 388.993218 267.610811 
L 388.993218 255.839916 
L 389.399299 256.880995 
L 389.399299 268.651726 
L 389.805395 281.463152 
L 389.805395 246.15148 
L 389.805395 257.922128 
L 390.617571 260.004369 
L 391.835828 251.356573 
L 391.835828 298.43873 
L 391.835828 263.127057 
L 392.241924 299.479617 
L 392.241924 252.397515 
L 392.64802 241.667643 
L 393.054115 266.249527 
L 393.054115 278.019956 
L 393.460181 255.519655 
L 393.460181 279.060789 
L 393.460181 243.749335 
L 393.866277 327.183915 
L 394.272372 292.913075 
L 394.678468 293.953551 
L 394.678468 235.101074 
L 394.678468 235.101074 
L 395.084534 236.141577 
L 395.896725 261.764019 
L 396.302821 251.033983 
L 396.302821 262.804358 
L 396.302821 239.263225 
L 396.708917 240.303892 
L 396.708917 275.615565 
L 397.521078 265.925896 
L 397.521078 254.155384 
L 398.33327 220.924773 
L 398.739335 292.58843 
L 398.739335 221.965085 
L 399.145431 281.858421 
L 399.551527 282.898541 
L 399.551527 259.357627 
L 399.551527 282.898541 
L 400.363688 273.208734 
L 400.363688 284.979082 
L 400.769784 250.707639 
L 401.175879 275.289029 
L 401.175879 251.748224 
L 401.581975 264.558856 
L 402.394136 266.638958 
L 402.394136 243.097853 
L 402.394136 313.721526 
L 402.800232 267.67938 
L 402.800232 244.138055 
L 403.206328 186.325506 
L 404.018489 294.34068 
L 404.018489 259.028816 
L 404.018489 282.570032 
L 404.424585 260.068826 
L 405.236777 226.837119 
L 405.642872 239.647531 
L 406.048938 275.99894 
L 406.048938 240.687268 
L 406.048938 287.769534 
L 406.048938 252.458026 
L 406.455034 241.727333 
L 406.861129 278.078604 
L 406.861129 266.307983 
L 406.861129 266.307983 
L 407.673291 280.158295 
L 408.079386 292.968735 
L 408.485482 258.696634 
L 408.485482 282.237905 
L 408.891578 283.277312 
L 409.703739 261.815404 
L 409.703739 273.586163 
L 410.515931 252.124036 
L 410.922027 264.934229 
L 411.328092 324.826387 
L 411.328092 289.514797 
L 411.734188 255.242751 
L 411.734188 231.70148 
L 412.546379 292.6331 
L 412.546379 292.6331 
L 413.358541 235.858999 
L 413.358541 306.482235 
L 413.764637 248.668946 
L 413.764637 213.357301 
L 413.764637 260.43943 
L 414.170732 261.478947 
L 414.576828 203.665439 
L 414.982894 240.015971 
L 414.982894 275.327917 
L 414.982894 240.015971 
L 415.388989 241.055213 
L 415.795085 265.635672 
L 415.795085 289.17675 
L 416.201181 254.904348 
L 416.201181 254.904348 
L 417.419438 293.33331 
L 417.419438 269.79193 
L 417.419438 281.562497 
L 417.825534 247.289958 
L 417.825534 247.289958 
L 417.825534 235.519473 
L 418.231599 283.640763 
L 419.043791 297.488938 
L 419.449887 286.757478 
L 420.262048 277.064519 
L 420.262048 288.835196 
L 420.262048 288.835196 
L 420.668144 266.332839 
L 420.668144 266.332839 
L 421.074239 290.91264 
L 421.074239 267.371781 
L 421.886401 257.678494 
L 421.886401 245.908064 
L 422.292496 258.717271 
L 422.292496 294.029053 
L 422.698592 236.214695 
L 422.698592 271.526669 
L 423.104688 249.024011 
L 423.104688 272.565281 
L 423.104688 260.79466 
L 423.916849 357.036336 
L 424.322945 216.828258 
L 424.322945 252.139903 
L 425.135137 313.069605 
L 425.541202 267.025759 
L 426.353394 257.332308 
L 426.353394 316.184977 
L 426.759489 305.452858 
L 427.571651 295.758968 
L 427.571651 260.447213 
L 427.571651 260.447213 
L 427.977746 296.797224 
L 428.383842 262.523863 
L 428.383842 321.376641 
L 428.383842 286.064941 
L 429.196003 241.059269 
L 429.196003 276.370723 
L 429.196003 276.370723 
L 430.414291 220.632274 
L 430.414291 303.026268 
L 430.820356 315.834954 
L 431.226452 269.790779 
L 431.632548 282.599355 
L 432.038644 236.555345 
L 432.444739 296.445941 
L 432.850805 250.401657 
L 433.662996 228.936214 
L 433.662996 299.559586 
L 434.069092 194.662414 
L 434.475158 266.323686 
L 435.287349 244.858078 
L 435.287349 256.628481 
L 435.693445 316.519241 
L 435.693445 257.666408 
L 435.693445 257.666408 
L 436.505606 259.741715 
L 436.911702 296.091095 
L 437.317798 238.276025 
L 437.317798 261.816966 
L 438.129959 263.892026 
L 438.536055 312.011891 
L 438.942151 277.73779 
L 438.942151 277.73779 
L 438.942151 301.278896 
L 439.754312 268.04231 
L 440.566504 258.346228 
L 440.566504 246.575689 
L 441.378695 283.962175 
L 441.378695 307.503226 
L 441.378695 260.421206 
L 442.190856 321.348578 
L 442.596952 275.303609 
L 443.003048 276.340549 
L 443.409113 300.918897 
L 443.409113 230.295415 
L 443.815209 290.1856 
L 444.221305 314.763702 
L 444.221305 255.910896 
L 444.221305 267.681682 
L 444.627401 292.259619 
L 444.627401 292.259619 
L 444.627401 315.800779 
L 444.627401 233.406895 
L 444.627401 256.948302 
L 445.033466 246.214512 
L 445.033466 305.06729 
L 445.439562 282.563399 
L 445.439562 282.563399 
L 445.845658 271.829911 
L 445.845658 248.288722 
L 445.845658 271.829911 
L 446.251754 249.325444 
L 446.251754 249.325444 
L 446.251754 261.096093 
L 446.657849 309.21541 
L 447.063915 322.022807 
L 447.876106 265.243691 
L 448.688268 255.546759 
L 449.500459 304.702688 
L 450.718716 284.27161 
L 451.124812 308.849245 
L 451.530908 286.344724 
L 451.530908 274.57413 
L 452.343069 253.106248 
L 452.343069 300.188405 
L 452.749165 265.913262 
L 453.155261 243.408795 
L 453.561356 256.21559 
L 453.561356 279.75686 
L 453.561356 256.21559 
L 453.967422 292.563792 
L 454.373518 270.059024 
L 454.373518 246.517973 
L 454.779613 271.095471 
L 455.185709 248.590648 
L 456.810062 217.424081 
L 458.028319 302.926211 
L 458.434415 292.191626 
L 458.434415 245.10977 
L 458.840511 304.99853 
L 459.652672 271.758684 
L 460.058768 319.877014 
L 460.058768 308.106475 
L 460.870959 286.637359 
L 461.277025 287.673286 
L 461.277025 228.820343 
L 462.495312 279.010089 
L 462.901378 221.192853 
L 463.307473 257.540644 
L 463.713569 246.805511 
L 463.713569 305.658426 
L 463.713569 293.887695 
L 464.119665 271.382489 
L 464.119665 271.382489 
L 464.119665 294.923403 
L 464.525761 260.647712 
L 464.525761 284.188736 
L 464.931826 273.453657 
L 465.337922 309.801147 
L 465.744018 275.524798 
L 465.744018 275.524798 
L 466.150113 264.789939 
L 466.150113 241.248641 
L 466.150113 264.789939 
L 466.962275 337.484315 
L 466.962275 243.319837 
L 466.962275 290.401994 
L 468.992723 272.037671 
L 469.398819 320.155454 
L 469.398819 296.614183 
L 469.804915 297.64937 
L 469.804915 274.108374 
L 470.21098 228.061294 
L 470.21098 298.684831 
L 470.21098 275.143615 
L 470.617076 276.178693 
L 471.023172 253.67291 
L 471.023172 230.13164 
L 471.023172 324.296338 
L 471.429268 290.019797 
L 471.835333 302.825414 
L 471.835333 255.743394 
L 472.241429 315.631167 
L 472.241429 292.090034 
L 473.053621 329.471751 
L 473.865782 272.689099 
L 474.271878 309.035794 
L 474.677973 333.61184 
L 475.084069 252.252677 
L 475.89623 301.404495 
L 476.302326 302.439517 
L 476.302326 290.668868 
L 476.708422 315.244695 
L 476.708422 279.933077 
L 477.114518 316.27969 
L 477.114518 245.656071 
L 478.332775 272.301367 
L 478.332775 272.301367 
L 478.738871 296.877029 
L 479.144936 286.141266 
L 479.144936 286.141266 
L 479.144936 309.68218 
L 479.551032 298.946224 
L 479.551032 287.175575 
L 479.957128 299.980808 
L 479.957128 264.669053 
L 479.957128 299.980808 
L 480.363223 277.474368 
L 480.769289 231.426494 
L 480.769289 313.820268 
L 480.769289 278.50887 
L 481.175385 291.313664 
L 481.58148 268.80717 
L 481.58148 339.430378 
L 481.987576 316.923691 
L 481.987576 340.464715 
L 481.987576 293.38253 
L 481.987576 316.923691 
L 482.393672 282.646301 
L 482.799737 295.451314 
L 482.799737 330.763151 
L 483.205833 261.173897 
L 483.205833 320.026703 
L 483.611929 297.519989 
L 483.611929 285.749285 
L 483.611929 309.290528 
L 483.611929 285.749285 
L 484.018025 227.930625 
L 484.018025 322.095185 
L 484.42409 323.12944 
L 484.42409 264.276909 
L 485.236282 289.886305 
L 485.642378 290.920231 
L 485.642378 326.232123 
L 486.454539 281.218092 
L 486.860635 235.169807 
L 487.26673 271.515323 
L 487.26673 247.974245 
L 487.672826 272.549496 
L 488.078892 285.354016 
L 488.078892 261.812746 
L 488.484988 286.387942 
L 488.484988 262.846809 
L 489.297179 311.996681 
L 489.297179 359.078975 
L 489.297179 253.144122 
L 489.703245 289.489556 
L 489.703245 265.948478 
L 490.515436 303.327591 
L 490.921532 304.361298 
L 490.921532 269.049872 
L 492.139789 272.151075 
L 492.139789 283.921587 
L 492.139789 283.921587 
L 492.545885 284.95502 
L 492.545885 261.413914 
L 492.545885 296.725504 
L 492.95198 297.759321 
L 492.95198 285.98859 
L 492.95198 309.529696 
L 492.95198 285.98859 
L 493.764142 264.514651 
L 493.764142 323.367621 
L 493.764142 252.744276 
L 493.764142 276.285355 
L 494.170238 277.318952 
L 494.576333 266.581654 
L 494.576333 313.663865 
L 494.982429 350.009053 
L 494.982429 302.926923 
L 494.982429 302.926923 
L 495.388495 292.189872 
L 495.79459 293.223113 
L 495.79459 257.911632 
L 496.200686 306.02714 
L 496.606782 271.748845 
L 496.606782 248.207602 
L 497.012847 331.634782 
L 497.012847 284.552708 
L 497.418943 273.815519 
L 497.418943 297.356351 
L 497.418943 238.503846 
L 497.825039 298.389811 
L 497.825039 274.848513 
L 498.6372 288.685781 
L 499.043296 301.48926 
L 499.043296 301.48926 
L 499.043296 336.80096 
L 499.449392 267.210856 
L 499.449392 231.899183 
L 499.449392 290.751825 
L 499.855488 291.78512 
L 499.855488 280.014691 
L 500.261583 328.129787 
L 500.261583 269.276872 
L 500.667649 293.851054 
L 501.073745 283.113619 
L 501.885936 320.491253 
L 502.292002 286.212465 
L 502.292002 297.983306 
L 502.698097 251.933951 
L 502.698097 287.245569 
L 503.510289 265.770095 
L 503.510289 289.311229 
L 503.916385 325.655731 
L 504.728546 245.327479 
L 505.134642 293.442384 
L 505.540738 270.934108 
L 505.540738 306.245479 
L 505.540738 270.934108 
L 505.946803 295.507715 
L 505.946803 319.048903 
L 506.352899 320.081651 
L 506.352899 296.540298 
L 506.758995 274.031913 
L 506.758995 309.343421 
L 507.16509 286.835117 
L 507.16509 333.917165 
L 508.383347 278.162109 
L 508.789443 290.965039 
L 510.0077 270.521245 
L 510.819892 260.815187 
L 510.819892 296.127188 
L 511.225957 285.388958 
L 511.225957 332.470923 
L 511.225957 332.470923 
L 511.632053 274.650481 
L 512.038149 299.223896 
L 512.038149 346.306026 
L 512.444245 312.026498 
L 512.444245 288.485365 
L 513.256406 314.091144 
L 513.256406 278.779389 
L 513.662502 291.582073 
L 513.662502 303.352585 
L 514.474693 281.875714 
L 515.69295 284.971436 
L 516.099046 321.315308 
L 516.911207 299.837916 
L 516.911207 299.837916 
L 516.911207 252.755786 
L 516.911207 288.067212 
L 517.317303 300.869622 
L 517.723399 243.048906 
L 518.129495 291.162687 
L 518.53556 315.735746 
L 518.941656 269.685378 
L 518.941656 328.537992 
L 519.347752 282.487459 
L 519.347752 317.799214 
L 519.347752 306.028537 
L 519.753847 271.748461 
L 520.159913 331.633193 
L 520.566009 273.812093 
L 520.972105 333.696468 
L 520.972105 310.155116 
L 521.784296 300.447715 
L 521.784296 335.759442 
L 522.190362 277.938315 
L 522.190362 289.708882 
L 522.596457 243.658075 
L 523.002553 350.62436 
L 523.002553 338.853766 
L 523.408649 316.344285 
L 523.814714 329.146256 
L 523.814714 317.375717 
L 524.22081 318.40682 
L 524.22081 294.865906 
L 525.033002 320.469438 
L 525.845163 334.302814 
L 526.251259 241.169412 
L 526.657355 371.676858 
L 526.657355 242.200625 
L 526.657355 312.82397 
L 527.06345 313.854964 
L 527.06345 325.62575 
L 527.875612 292.376174 
L 527.875612 245.294045 
L 528.281707 305.177762 
L 528.281707 269.866199 
L 528.687803 317.979432 
L 529.093869 307.239996 
L 529.093869 307.239996 
L 529.093869 283.698918 
L 529.499964 320.041611 
L 529.90606 332.842952 
L 530.312156 263.250711 
L 530.312156 333.873891 
L 530.718252 299.59324 
L 530.718252 299.59324 
L 531.124317 335.935769 
L 531.124317 300.62396 
L 531.530413 278.113875 
L 531.936509 243.832922 
L 531.936509 314.456349 
L 531.936509 302.685728 
L 532.342605 327.257526 
L 532.74867 269.435467 
L 533.966957 272.527626 
L 533.966957 366.69194 
L 534.373023 285.328885 
L 534.779119 309.900656 
L 535.185214 287.390105 
L 535.185214 310.930992 
L 535.185214 299.160371 
L 535.997406 324.762697 
L 535.997406 301.221645 
L 536.403471 302.251954 
L 536.403471 361.104924 
L 536.809567 315.052966 
L 538.027824 306.373846 
L 538.840016 284.89344 
L 538.840016 308.434436 
L 539.246112 285.923529 
L 539.652207 322.265675 
L 539.652207 310.495135 
L 540.058273 276.213415 
L 540.464369 312.555506 
L 540.464369 336.096557 
L 540.464369 300.78472 
L 540.870464 301.814864 
L 541.27656 314.615767 
L 542.088722 269.593624 
L 542.900913 306.965229 
L 542.900913 306.965229 
L 542.900913 330.506664 
L 543.306979 296.224861 
L 543.306979 260.913216 
L 543.713074 261.943031 
L 544.11917 310.05536 
L 544.525266 334.6265 
L 546.149619 279.892791 
L 546.96178 317.263957 
L 547.773972 295.782345 
L 548.586163 309.612241 
L 548.992229 298.871051 
L 548.992229 263.559598 
L 548.992229 310.641727 
L 549.80442 300.930435 
L 550.210516 301.959784 
L 550.210516 301.959784 
L 550.616581 338.300889 
L 552.240934 318.877537 
L 552.240934 295.336458 
L 553.053126 297.394773 
L 553.053126 344.477122 
L 553.053126 332.706446 
L 553.459222 286.653693 
L 554.271383 312.253333 
L 554.271383 359.335408 
L 554.677479 266.200142 
L 555.083574 314.311648 
L 555.48967 303.570075 
L 556.707927 306.657301 
L 556.707927 330.19827 
L 556.707927 283.116195 
L 557.114023 295.915865 
L 557.114023 284.145216 
L 557.114023 331.227482 
L 557.520119 273.403697 
L 557.926184 297.973823 
L 557.926184 286.203038 
L 557.926184 286.203038 
L 558.33228 369.625778 
L 558.33228 287.23214 
L 558.33228 346.084699 
L 559.144472 336.372092 
L 559.144472 289.289606 
L 559.144472 312.830712 
L 559.550537 337.400975 
L 559.550537 302.089056 
L 559.956633 373.741202 
L 559.956633 303.117912 
L 560.768824 293.404975 
L 561.17489 341.515961 
L 561.17489 294.433475 
L 561.17489 341.515961 
L 561.580986 283.6916 
L 561.987081 343.573153 
L 561.987081 320.032019 
L 561.987081 320.032019 
L 562.393177 321.060875 
L 562.799273 310.318863 
L 562.799273 322.089293 
L 563.611434 324.146485 
L 563.611434 312.375863 
L 564.01753 278.09269 
L 565.235787 316.489835 
L 565.641883 305.747686 
L 565.641883 305.747686 
L 565.641883 329.288765 
L 565.641883 293.977092 
L 566.454074 331.345353 
L 566.454074 296.033735 
L 566.86014 273.520855 
L 566.86014 320.603012 
L 566.86014 285.291367 
L 567.266236 321.631485 
L 567.672331 287.348065 
L 567.672331 299.118605 
L 568.078427 335.458366 
L 569.296684 315.00191 
L 570.108846 293.516927 
L 570.514941 353.397712 
L 570.921037 260.26135 
L 570.921037 319.113964 
L 570.921037 307.343342 
L 571.327133 320.141888 
L 571.327133 308.371486 
L 571.733229 321.170114 
L 572.54539 311.455259 
L 572.951486 312.483156 
L 572.951486 288.941967 
L 572.951486 347.794828 
L 573.357581 301.740321 
L 573.357581 313.51108 
L 573.763647 338.08 
L 573.763647 290.997679 
L 574.169743 315.566463 
L 574.169743 292.025329 
L 574.169743 315.566463 
L 574.575839 281.282495 
L 574.575839 304.823683 
L 574.981934 305.851471 
L 574.981934 282.3102 
L 574.981934 305.851471 
L 575.38803 318.649907 
L 576.200191 308.934668 
L 576.200191 379.558013 
L 576.606287 333.503369 
L 577.012383 322.760426 
L 577.012383 263.907428 
L 577.418448 300.246559 
L 577.418448 323.78772 
L 577.418448 300.246559 
L 578.23064 337.613532 
L 578.636736 256.246942 
L 578.636736 350.411447 
L 579.042801 257.274428 
L 579.448897 317.154445 
L 579.854993 329.952635 
L 580.261089 330.979956 
L 580.261089 295.668256 
L 580.667184 320.236574 
L 581.885441 323.318428 
L 581.885441 299.777268 
L 582.291537 312.575156 
L 582.697603 301.831609 
L 582.697603 278.290448 
L 583.103698 314.629196 
L 583.103698 291.088117 
L 583.103698 326.399872 
L 583.91589 351.995155 
L 583.91589 304.912833 
L 584.321986 329.481096 
L 584.728051 318.737632 
L 584.728051 354.049469 
L 585.134147 237.370658 
L 585.540243 261.938756 
L 585.540243 320.791726 
L 585.946339 321.818664 
L 586.352404 311.075063 
L 586.7585 335.643079 
L 587.164596 313.128691 
L 587.164596 371.981388 
L 587.570691 325.925976 
L 588.382853 363.291223 
L 588.788948 340.776808 
L 589.195044 306.491882 
L 589.195044 282.95094 
L 589.195044 330.033015 
L 589.60114 319.289222 
L 590.413301 274.2602 
L 590.819397 298.827833 
L 590.819397 322.368938 
L 590.819397 251.745868 
L 591.631558 324.422184 
L 592.037654 301.90755 
L 592.037654 348.989761 
L 592.849846 303.960356 
L 592.849846 398.124807 
L 593.662007 282.47203 
L 594.068103 295.269068 
L 594.068103 259.957341 
L 594.880294 367.944946 
L 595.28636 345.430147 
L 595.28636 298.347963 
L 596.098551 347.482735 
L 596.504647 324.967717 
L 597.316808 327.02014 
L 598.535096 318.327618 
L 598.535096 318.327618 
L 599.347257 285.068013 
L 599.753353 309.635124 
L 600.159448 369.513689 
L 600.159448 298.890344 
L 600.565514 311.68689 
L 600.565514 346.99848 
L 601.377706 384.361863 
L 601.377706 290.197467 
L 601.783801 314.764359 
L 601.783801 373.617193 
L 602.189897 315.790064 
L 602.595963 305.045503 
L 602.595963 352.127687 
L 603.002058 353.153419 
L 603.002058 270.75948 
L 603.002058 317.8415 
L 603.408154 342.408338 
L 603.81425 296.351858 
L 603.81425 319.892937 
L 604.220315 356.230396 
L 604.220315 309.148157 
L 604.626411 321.944126 
L 605.438603 312.224886 
L 605.844668 266.16805 
L 605.844668 266.16805 
L 605.844668 325.020911 
L 606.250764 337.816853 
L 606.65686 315.301397 
L 607.062956 328.097147 
L 607.469051 258.499452 
L 607.469051 376.204954 
L 608.281213 354.714462 
L 608.281213 331.173302 
L 608.687308 355.739756 
L 608.687308 296.886977 
L 608.687308 343.969216 
L 611.529918 292.292862 
L 611.936014 340.400175 
L 612.34211 306.113604 
L 612.34211 329.654655 
L 612.748206 365.991237 
L 612.748206 377.761859 
L 613.154271 343.47526 
L 614.372558 370.091178 
L 614.778624 359.345384 
L 614.778624 288.72223 
L 614.778624 288.72223 
L 615.18472 360.37043 
L 615.996911 291.796603 
L 616.403007 304.592052 
L 616.809073 352.698982 
L 616.809073 340.928388 
L 617.215168 330.182539 
L 618.839521 346.051594 
L 619.245617 323.535123 
L 620.057808 337.354715 
L 620.057808 325.584066 
L 620.463874 291.29681 
L 620.86997 351.174005 
L 620.86997 315.862469 
L 621.276065 316.886968 
L 622.494323 331.730455 
L 623.306514 310.237853 
L 623.306514 357.320174 
L 624.118675 324.056869 
L 624.118675 359.368569 
L 624.524771 301.540179 
L 624.524771 336.85166 
L 624.930867 290.793481 
L 625.336963 315.358811 
L 625.336963 397.752696 
L 626.149124 329.177581 
L 626.55522 283.119484 
L 626.55522 341.972235 
L 626.961315 295.914083 
L 627.367381 332.249624 
L 627.773477 274.420933 
L 627.773477 345.044169 
L 628.179573 310.75631 
L 628.179573 334.297388 
L 628.991764 336.345289 
L 628.991764 359.88634 
L 629.803925 303.081107 
L 629.803925 361.934077 
L 630.210021 304.105167 
L 630.210021 315.875514 
L 630.210021 339.41662 
L 630.210021 292.334353 
L 630.616117 328.669785 
L 631.022182 341.464083 
L 631.022182 317.923141 
L 631.022182 341.464083 
L 632.646535 298.476714 
L 632.646535 310.247034 
L 633.052631 334.811679 
L 633.458727 335.835301 
L 635.08308 351.699806 
L 635.08308 339.929239 
L 635.489175 305.640805 
L 636.301337 307.687774 
L 636.707432 320.481661 
L 636.707432 367.563681 
L 637.113528 345.046032 
L 637.113528 368.586974 
L 638.331785 312.804019 
L 638.737881 349.138737 
L 638.737881 313.827038 
L 638.737881 360.909277 
L 639.143977 326.620815 
L 639.550073 362.955698 
L 639.550073 339.414428 
L 639.956138 340.437611 
L 639.956138 328.667154 
L 640.362234 329.690035 
L 640.362234 353.231251 
L 640.76833 318.942625 
L 641.174425 308.194857 
L 641.580491 391.611815 
L 641.986587 345.552567 
L 641.986587 298.470356 
L 642.798778 335.827682 
L 642.798778 324.057198 
L 643.204874 301.53911 
L 643.204874 336.850701 
L 643.61094 314.332477 
L 644.017035 350.666949 
L 644.017035 362.437296 
L 644.423131 316.377774 
L 644.423131 281.066376 
L 645.235292 365.505667 
L 645.641388 366.528275 
L 645.641388 307.675414 
L 646.047484 320.46878 
L 646.047484 273.386459 
L 646.047484 320.46878 
L 647.265771 358.848194 
L 647.671867 348.100235 
L 647.671867 277.476561 
L 647.671867 336.329504 
L 648.077902 360.89319 
L 648.077902 325.581435 
L 648.483998 338.374609 
L 648.890094 327.626267 
L 648.890094 351.167372 
L 648.890094 351.167372 
L 650.108381 354.234565 
L 650.108381 318.92303 
L 650.514477 367.027657 
L 650.920573 332.738373 
L 650.920573 356.279342 
L 650.920573 332.738373 
L 651.326668 333.760378 
L 651.326668 333.760378 
L 651.732704 287.70039 
L 651.732704 370.094274 
L 651.732704 346.553223 
L 652.138799 335.804935 
L 652.544895 301.515432 
L 652.950991 326.07857 
L 652.950991 349.619786 
L 652.950991 302.537574 
L 653.763182 351.664014 
L 654.169278 340.915617 
L 654.98147 307.647954 
L 654.98147 378.271244 
L 655.793601 356.774148 
L 656.199697 322.484343 
L 656.605792 311.735726 
L 656.605792 323.506293 
L 657.82408 303.03079 
L 657.82408 350.112783 
L 658.230175 304.052521 
L 658.230175 339.364111 
L 659.042306 364.948678 
L 660.260594 356.243167 
L 660.260594 285.61974 
L 660.260594 332.701979 
L 661.072785 346.515924 
L 661.478881 347.537326 
L 661.884977 313.24722 
L 661.884977 289.706005 
L 662.291012 326.039243 
L 662.291012 361.350943 
L 662.697108 338.831239 
L 662.697108 350.601751 
L 663.103204 292.770621 
L 663.509299 340.874235 
L 663.915395 283.042529 
L 663.915395 341.895636 
L 664.727587 320.397005 
L 664.727587 355.708568 
L 665.539778 298.898429 
L 665.539778 369.521939 
L 665.539778 345.980531 
L 665.945814 347.001823 
L 666.351909 383.334678 
L 666.351909 371.564084 
L 667.164101 302.983187 
L 667.976292 352.107572 
L 668.382388 329.587703 
L 668.788484 295.297076 
L 669.600615 285.568464 
L 669.600615 320.879917 
L 670.006711 321.90099 
L 671.224998 313.193204 
L 671.224998 324.963469 
L 672.03719 291.693477 
L 672.03719 350.546474 
L 672.443285 339.796569 
L 672.443285 316.255244 
L 672.443285 351.567081 
L 672.849381 352.587716 
L 673.255416 341.837921 
L 674.067608 332.108732 
L 674.473704 368.441149 
L 674.473704 368.441149 
L 674.879799 310.608759 
L 676.098087 348.98217 
L 676.910218 339.252461 
L 677.722409 341.293511 
L 677.722409 305.981647 
L 678.128505 342.31357 
L 678.534601 343.334122 
L 678.534601 331.563418 
L 679.346792 380.686296 
L 679.346792 321.833463 
L 679.752888 334.624253 
L 680.158923 312.103371 
L 680.971115 325.914302 
L 680.971115 314.14368 
L 680.971115 314.14368 
L 681.377211 374.016737 
L 682.595498 306.453678 
L 682.595498 294.68292 
L 683.001594 307.473737 
L 683.001594 378.097055 
L 683.001594 283.932577 
L 684.219821 345.845121 
L 684.219821 357.615578 
L 684.625916 335.094641 
L 685.032012 383.196582 
L 685.438108 290.051834 
L 685.438108 337.134155 
L 685.844204 314.612725 
L 685.844204 326.383593 
L 686.2503 315.632811 
L 686.2503 303.861998 
L 687.062491 364.754319 
L 687.062491 294.131166 
L 687.468526 342.232998 
L 687.468526 330.462376 
L 687.468526 377.544533 
L 687.874622 343.252591 
L 688.280718 332.501562 
L 689.092909 369.852503 
L 689.092909 287.458537 
L 689.499005 323.790022 
L 689.499005 370.872206 
L 690.311197 325.828989 
L 690.717292 326.848445 
L 691.123328 363.179655 
L 691.123328 339.638522 
L 691.529424 352.428353 
L 691.935519 376.988997 
L 692.341615 342.696616 
L 693.153807 380.046707 
L 693.153807 332.96477 
L 693.559902 357.524948 
L 693.965998 358.544267 
L 693.965998 323.232485 
L 694.372033 347.792992 
L 694.778129 395.894249 
L 694.778129 278.188774 
L 695.590321 362.62094 
L 695.590321 374.391479 
L 695.996416 281.246046 
L 695.996416 328.328312 
L 695.996416 328.328312 
L 696.402512 305.806279 
L 696.808608 318.595699 
L 696.808608 318.595699 
L 697.6208 308.863222 
L 697.6208 379.486677 
L 698.026835 309.882294 
L 698.432931 369.754063 
L 698.839026 323.690458 
L 699.245122 324.709448 
L 699.651218 313.957762 
L 699.651218 361.039836 
L 700.463409 363.077543 
L 700.869505 328.784668 
L 701.275601 318.032708 
L 701.681636 319.051561 
L 701.681636 342.592612 
L 702.493828 344.62977 
L 702.493828 356.40031 
L 702.493828 344.62977 
L 702.899924 310.336924 
L 702.899924 310.336924 
L 703.306019 299.584854 
L 703.306019 358.43766 
L 703.712115 359.456074 
L 703.712115 312.373835 
L 703.712115 347.685453 
L 704.524307 361.493232 
L 704.930402 362.511702 
L 704.930402 327.19981 
L 705.336438 328.218389 
L 705.742533 352.777882 
L 706.554725 366.585031 
L 706.554725 401.896923 
L 707.366917 356.85113 
L 707.773012 346.098786 
L 707.773012 357.869435 
L 708.179108 323.576095 
L 708.991239 349.153619 
L 708.991239 372.694533 
L 709.397335 338.400946 
L 710.209526 363.978251 
L 710.209526 375.748845 
L 710.615622 353.225852 
L 710.615622 364.996528 
L 710.615622 364.996528 
L 711.021718 318.932347 
L 711.427814 367.032535 
L 712.239945 345.527135 
L 712.64604 405.397807 
L 713.458232 325.039848 
L 714.676519 316.322552 
L 714.676519 316.322552 
L 714.676519 292.781309 
L 715.082615 329.110793 
L 715.082615 364.422411 
L 716.300842 320.393388 
L 716.706938 344.952004 
L 717.113033 310.658061 
L 717.113033 393.051836 
L 717.519129 323.445946 
L 717.519129 370.52835 
L 718.331321 337.251862 
L 718.737417 338.269208 
L 719.143512 362.827687 
L 720.767835 366.897372 
L 721.173931 356.144096 
L 721.173931 379.684983 
L 721.173931 320.832341 
L 721.986122 369.949162 
L 722.392218 347.425101 
L 722.798314 360.212959 
L 723.610445 315.16511 
L 723.610445 291.624004 
L 724.828732 365.2984 
L 724.828732 365.2984 
L 725.234828 354.54485 
L 725.234828 331.003717 
L 725.640924 379.103082 
L 725.640924 308.479573 
L 726.453115 345.825197 
L 726.453115 369.366303 
L 726.85915 370.383183 
L 727.265246 359.629469 
L 727.671342 372.416888 
L 728.483533 339.13892 
L 728.889629 316.614557 
L 728.889629 422.54963 
L 728.889629 351.926312 
L 729.295725 388.25459 
L 729.295725 341.172269 
L 730.920048 392.321124 
L 731.732239 323.731072 
L 731.732239 311.960396 
L 731.732239 347.271987 
L 732.544431 361.075737 
L 732.544431 361.075737 
L 733.356622 386.649754 
L 733.762657 340.584011 
L 733.762657 352.354495 
L 734.168753 329.829748 
L 734.574849 366.157835 
L 734.574849 319.075459 
L 734.574849 354.387077 
L 734.980945 367.174194 
L 735.387041 332.878662 
L 736.199232 346.681618 
L 736.199232 311.370082 
L 736.199232 334.911216 
L 737.011424 407.566813 
L 737.011424 372.255196 
L 737.417459 385.041902 
L 739.041842 342.024004 
L 739.041842 306.712331 
L 739.854034 355.826521 
L 740.260129 345.071848 
L 740.260129 356.842552 
L 740.666225 334.317394 
L 741.07226 335.33337 
L 741.478356 383.43131 
L 741.478356 312.808075 
L 741.478356 324.578422 
L 741.884452 384.447094 
L 743.102739 340.41237 
L 743.102739 352.182663 
L 743.102739 316.871237 
L 743.508835 376.739772 
L 744.321026 319.918095 
L 744.321026 378.770983 
L 744.321026 331.688881 
L 745.133158 369.031764 
L 745.945349 371.062893 
L 746.351445 348.537242 
L 746.757541 361.323209 
L 746.757541 373.093666 
L 746.757541 349.552834 
L 746.757541 373.093666 
L 747.163636 327.026936 
L 747.163636 327.026936 
" clip-path="url(#p3c392c141c)" style="fill: none; stroke: #1f77b4; stroke-width: 2; stroke-linecap: square"/>
   </g>
   <g id="line2d_34">
    <path d="M 138.436364 391.055375 
L 171.735653 398.146622 
L 208.283656 405.689265 
L 208.283656 405.689265 
L 243.613391 412.748119 
L 279.755301 419.740624 
L 279.755301 419.740624 
L 315.897205 426.508843 
L 353.257395 433.277637 
L 388.587122 439.472644 
L 388.587122 439.472644 
L 425.541202 445.745975 
L 464.931826 452.208732 
L 505.946803 458.700965 
L 505.946803 458.700965 
L 544.525266 464.595223 
L 585.134147 470.587086 
L 633.458727 477.44325 
L 676.910218 483.365599 
L 722.392218 489.329412 
L 747.163636 492.48 
L 747.163636 492.48 
" clip-path="url(#p3c392c141c)" style="fill: none; stroke: #ff7f0e; stroke-width: 2; stroke-linecap: square"/>
   </g>
   <g id="patch_3">
    <path d="M 108 512.64 
L 108 69.12 
" style="fill: none; stroke: #000000; stroke-width: 0.8; stroke-linejoin: miter; stroke-linecap: square"/>
   </g>
   <g id="patch_4">
    <path d="M 777.6 512.64 
L 777.6 69.12 
" style="fill: none; stroke: #000000; stroke-width: 0.8; stroke-linejoin: miter; stroke-linecap: square"/>
   </g>
   <g id="patch_5">
    <path d="M 108 512.64 
L 777.6 512.64 
" style="fill: none; stroke: #000000; stroke-width: 0.8; stroke-linejoin: miter; stroke-linecap: square"/>
   </g>
   <g id="patch_6">
    <path d="M 108 69.12 
L 777.6 69.12 
" style="fill: none; stroke: #000000; stroke-width: 0.8; stroke-linejoin: miter; stroke-linecap: square"/>
   </g>
   <g id="text_19">
    <!-- Price by Risk-free rate. Moneyness=1.1 -->
    <g transform="translate(245.539062 63.12) scale(0.2 -0.2)">
     <defs>
      <path id="DejaVuSans-62" d="M 3116 1747 
Q 3116 2381 2855 2742 
Q 2594 3103 2138 3103 
Q 1681 3103 1420 2742 
Q 1159 2381 1159 1747 
Q 1159 1113 1420 752 
Q 1681 391 2138 391 
Q 2594 391 2855 752 
Q 3116 1113 3116 1747 
z
M 1159 2969 
Q 1341 3281 1617 3432 
Q 1894 3584 2278 3584 
Q 2916 3584 3314 3078 
Q 3713 2572 3713 1747 
Q 3713 922 3314 415 
Q 2916 -91 2278 -91 
Q 1894 -91 1617 61 
Q 1341 213 1159 525 
L 1159 0 
L 581 0 
L 581 4863 
L 1159 4863 
L 1159 2969 
z
" transform="scale(0.015625)"/>
      <path id="DejaVuSans-79" d="M 2059 -325 
Q 1816 -950 1584 -1140 
Q 1353 -1331 966 -1331 
L 506 -1331 
L 506 -850 
L 844 -850 
Q 1081 -850 1212 -737 
Q 1344 -625 1503 -206 
L 1606 56 
L 191 3500 
L 800 3500 
L 1894 763 
L 2988 3500 
L 3597 3500 
L 2059 -325 
z
" transform="scale(0.015625)"/>
      <path id="DejaVuSans-4d" d="M 628 4666 
L 1569 4666 
L 2759 1491 
L 3956 4666 
L 4897 4666 
L 4897 0 
L 4281 0 
L 4281 4097 
L 3078 897 
L 2444 897 
L 1241 4097 
L 1241 0 
L 628 0 
L 628 4666 
z
" transform="scale(0.015625)"/>
      <path id="DejaVuSans-6e" d="M 3513 2113 
L 3513 0 
L 2938 0 
L 2938 2094 
Q 2938 2591 2744 2837 
Q 2550 3084 2163 3084 
Q 1697 3084 1428 2787 
Q 1159 2491 1159 1978 
L 1159 0 
L 581 0 
L 581 3500 
L 1159 3500 
L 1159 2956 
Q 1366 3272 1645 3428 
Q 1925 3584 2291 3584 
Q 2894 3584 3203 3211 
Q 3513 2838 3513 2113 
z
" transform="scale(0.015625)"/>
      <path id="DejaVuSans-3d" d="M 678 2906 
L 4684 2906 
L 4684 2381 
L 678 2381 
L 678 2906 
z
M 678 1631 
L 4684 1631 
L 4684 1100 
L 678 1100 
L 678 1631 
z
" transform="scale(0.015625)"/>
     </defs>
     <use xlink:href="#DejaVuSans-50"/>
     <use xlink:href="#DejaVuSans-72" x="58.552734"/>
     <use xlink:href="#DejaVuSans-69" x="99.666016"/>
     <use xlink:href="#DejaVuSans-63" x="127.449219"/>
     <use xlink:href="#DejaVuSans-65" x="182.429688"/>
     <use xlink:href="#DejaVuSans-20" x="243.953125"/>
     <use xlink:href="#DejaVuSans-62" x="275.740234"/>
     <use xlink:href="#DejaVuSans-79" x="339.216797"/>
     <use xlink:href="#DejaVuSans-20" x="398.396484"/>
     <use xlink:href="#DejaVuSans-52" x="430.183594"/>
     <use xlink:href="#DejaVuSans-69" x="499.666016"/>
     <use xlink:href="#DejaVuSans-73" x="527.449219"/>
     <use xlink:href="#DejaVuSans-6b" x="579.548828"/>
     <use xlink:href="#DejaVuSans-2d" x="637.458984"/>
     <use xlink:href="#DejaVuSans-66" x="673.542969"/>
     <use xlink:href="#DejaVuSans-72" x="708.748047"/>
     <use xlink:href="#DejaVuSans-65" x="747.611328"/>
     <use xlink:href="#DejaVuSans-65" x="809.134766"/>
     <use xlink:href="#DejaVuSans-20" x="870.658203"/>
     <use xlink:href="#DejaVuSans-72" x="902.445312"/>
     <use xlink:href="#DejaVuSans-61" x="943.558594"/>
     <use xlink:href="#DejaVuSans-74" x="1004.837891"/>
     <use xlink:href="#DejaVuSans-65" x="1044.046875"/>
     <use xlink:href="#DejaVuSans-2e" x="1105.570312"/>
     <use xlink:href="#DejaVuSans-20" x="1137.357422"/>
     <use xlink:href="#DejaVuSans-4d" x="1169.144531"/>
     <use xlink:href="#DejaVuSans-6f" x="1255.423828"/>
     <use xlink:href="#DejaVuSans-6e" x="1316.605469"/>
     <use xlink:href="#DejaVuSans-65" x="1379.984375"/>
     <use xlink:href="#DejaVuSans-79" x="1441.507812"/>
     <use xlink:href="#DejaVuSans-6e" x="1500.6875"/>
     <use xlink:href="#DejaVuSans-65" x="1564.066406"/>
     <use xlink:href="#DejaVuSans-73" x="1625.589844"/>
     <use xlink:href="#DejaVuSans-73" x="1677.689453"/>
     <use xlink:href="#DejaVuSans-3d" x="1729.789062"/>
     <use xlink:href="#DejaVuSans-31" x="1813.578125"/>
     <use xlink:href="#DejaVuSans-2e" x="1877.201172"/>
     <use xlink:href="#DejaVuSans-31" x="1908.988281"/>
    </g>
   </g>
   <g id="legend_1">
    <g id="patch_7">
     <path d="M 598.581563 136.36125 
L 765 136.36125 
Q 768.6 136.36125 768.6 132.76125 
L 768.6 81.72 
Q 768.6 78.12 765 78.12 
L 598.581563 78.12 
Q 594.981563 78.12 594.981563 81.72 
L 594.981563 132.76125 
Q 594.981563 136.36125 598.581563 136.36125 
z
" style="fill: #ffffff; opacity: 0.8; stroke: #cccccc; stroke-linejoin: miter"/>
    </g>
    <g id="line2d_35">
     <path d="M 602.181563 92.697188 
L 620.181563 92.697188 
L 638.181563 92.697188 
" style="fill: none; stroke: #1f77b4; stroke-width: 2; stroke-linecap: square"/>
    </g>
    <g id="text_20">
     <!-- Monte Carlo -->
     <g transform="translate(652.581563 98.997188) scale(0.18 -0.18)">
      <defs>
       <path id="DejaVuSans-43" d="M 4122 4306 
L 4122 3641 
Q 3803 3938 3442 4084 
Q 3081 4231 2675 4231 
Q 1875 4231 1450 3742 
Q 1025 3253 1025 2328 
Q 1025 1406 1450 917 
Q 1875 428 2675 428 
Q 3081 428 3442 575 
Q 3803 722 4122 1019 
L 4122 359 
Q 3791 134 3420 21 
Q 3050 -91 2638 -91 
Q 1578 -91 968 557 
Q 359 1206 359 2328 
Q 359 3453 968 4101 
Q 1578 4750 2638 4750 
Q 3056 4750 3426 4639 
Q 3797 4528 4122 4306 
z
" transform="scale(0.015625)"/>
       <path id="DejaVuSans-6c" d="M 603 4863 
L 1178 4863 
L 1178 0 
L 603 0 
L 603 4863 
z
" transform="scale(0.015625)"/>
      </defs>
      <use xlink:href="#DejaVuSans-4d"/>
      <use xlink:href="#DejaVuSans-6f" x="86.279297"/>
      <use xlink:href="#DejaVuSans-6e" x="147.460938"/>
      <use xlink:href="#DejaVuSans-74" x="210.839844"/>
      <use xlink:href="#DejaVuSans-65" x="250.048828"/>
      <use xlink:href="#DejaVuSans-20" x="311.572266"/>
      <use xlink:href="#DejaVuSans-43" x="343.359375"/>
      <use xlink:href="#DejaVuSans-61" x="413.183594"/>
      <use xlink:href="#DejaVuSans-72" x="474.462891"/>
      <use xlink:href="#DejaVuSans-6c" x="515.576172"/>
      <use xlink:href="#DejaVuSans-6f" x="543.359375"/>
     </g>
    </g>
    <g id="line2d_36">
     <path d="M 602.181563 119.117813 
L 620.181563 119.117813 
L 638.181563 119.117813 
" style="fill: none; stroke: #ff7f0e; stroke-width: 2; stroke-linecap: square"/>
    </g>
    <g id="text_21">
     <!-- Positive net -->
     <g transform="translate(652.581563 125.417813) scale(0.18 -0.18)">
      <defs>
       <path id="DejaVuSans-76" d="M 191 3500 
L 800 3500 
L 1894 563 
L 2988 3500 
L 3597 3500 
L 2284 0 
L 1503 0 
L 191 3500 
z
" transform="scale(0.015625)"/>
      </defs>
      <use xlink:href="#DejaVuSans-50"/>
      <use xlink:href="#DejaVuSans-6f" x="56.677734"/>
      <use xlink:href="#DejaVuSans-73" x="117.859375"/>
      <use xlink:href="#DejaVuSans-69" x="169.958984"/>
      <use xlink:href="#DejaVuSans-74" x="197.742188"/>
      <use xlink:href="#DejaVuSans-69" x="236.951172"/>
      <use xlink:href="#DejaVuSans-76" x="264.734375"/>
      <use xlink:href="#DejaVuSans-65" x="323.914062"/>
      <use xlink:href="#DejaVuSans-20" x="385.4375"/>
      <use xlink:href="#DejaVuSans-6e" x="417.224609"/>
      <use xlink:href="#DejaVuSans-65" x="480.603516"/>
      <use xlink:href="#DejaVuSans-74" x="542.126953"/>
     </g>
    </g>
   </g>
  </g>
 </g>
 <defs>
  <clipPath id="p3c392c141c">
   <rect x="108" y="69.12" width="669.6" height="443.52"/>
  </clipPath>
 </defs>
</svg>
