<?xml version="1.0" encoding="utf-8" standalone="no"?>
<!DOCTYPE svg PUBLIC "-//W3C//DTD SVG 1.1//EN"
  "http://www.w3.org/Graphics/SVG/1.1/DTD/svg11.dtd">
<svg xmlns:xlink="http://www.w3.org/1999/xlink" width="864pt" height="576pt" viewBox="0 0 864 576" xmlns="http://www.w3.org/2000/svg" version="1.1">
 <metadata>
  <rdf:RDF xmlns:dc="http://purl.org/dc/elements/1.1/" xmlns:cc="http://creativecommons.org/ns#" xmlns:rdf="http://www.w3.org/1999/02/22-rdf-syntax-ns#">
   <cc:Work>
    <dc:type rdf:resource="http://purl.org/dc/dcmitype/StillImage"/>
    <dc:date>2024-03-10T14:06:30.298560</dc:date>
    <dc:format>image/svg+xml</dc:format>
    <dc:creator>
     <cc:Agent>
      <dc:title>Matplotlib v3.7.3, https://matplotlib.org/</dc:title>
     </cc:Agent>
    </dc:creator>
   </cc:Work>
  </rdf:RDF>
 </metadata>
 <defs>
  <style type="text/css">*{stroke-linejoin: round; stroke-linecap: butt}</style>
 </defs>
 <g id="figure_1">
  <g id="patch_1">
   <path d="M 0 576 
L 864 576 
L 864 0 
L 0 0 
z
" style="fill: #ffffff"/>
  </g>
  <g id="axes_1">
   <g id="patch_2">
    <path d="M 108 512.64 
L 777.6 512.64 
L 777.6 69.12 
L 108 69.12 
z
" style="fill: #ffffff"/>
   </g>
   <g id="matplotlib.axis_1">
    <g id="xtick_1">
     <g id="line2d_1">
      <path d="M 138.436364 512.64 
L 138.436364 69.12 
" clip-path="url(#pa7f92587c5)" style="fill: none; stroke: #b0b0b0; stroke-width: 0.8; stroke-linecap: square"/>
     </g>
     <g id="line2d_2">
      <defs>
       <path id="md69e394bcd" d="M 0 0 
L 0 3.5 
" style="stroke: #000000; stroke-width: 0.8"/>
      </defs>
      <g>
       <use xlink:href="#md69e394bcd" x="138.436364" y="512.64" style="stroke: #000000; stroke-width: 0.8"/>
      </g>
     </g>
     <g id="text_1">
      <!-- 0.00 -->
      <g transform="translate(127.303551 527.238438) scale(0.1 -0.1)">
       <defs>
        <path id="DejaVuSans-30" d="M 2034 4250 
Q 1547 4250 1301 3770 
Q 1056 3291 1056 2328 
Q 1056 1369 1301 889 
Q 1547 409 2034 409 
Q 2525 409 2770 889 
Q 3016 1369 3016 2328 
Q 3016 3291 2770 3770 
Q 2525 4250 2034 4250 
z
M 2034 4750 
Q 2819 4750 3233 4129 
Q 3647 3509 3647 2328 
Q 3647 1150 3233 529 
Q 2819 -91 2034 -91 
Q 1250 -91 836 529 
Q 422 1150 422 2328 
Q 422 3509 836 4129 
Q 1250 4750 2034 4750 
z
" transform="scale(0.015625)"/>
        <path id="DejaVuSans-2e" d="M 684 794 
L 1344 794 
L 1344 0 
L 684 0 
L 684 794 
z
" transform="scale(0.015625)"/>
       </defs>
       <use xlink:href="#DejaVuSans-30"/>
       <use xlink:href="#DejaVuSans-2e" x="63.623047"/>
       <use xlink:href="#DejaVuSans-30" x="95.410156"/>
       <use xlink:href="#DejaVuSans-30" x="159.033203"/>
      </g>
     </g>
    </g>
    <g id="xtick_2">
     <g id="line2d_3">
      <path d="M 219.599997 512.64 
L 219.599997 69.12 
" clip-path="url(#pa7f92587c5)" style="fill: none; stroke: #b0b0b0; stroke-width: 0.8; stroke-linecap: square"/>
     </g>
     <g id="line2d_4">
      <g>
       <use xlink:href="#md69e394bcd" x="219.599997" y="512.64" style="stroke: #000000; stroke-width: 0.8"/>
      </g>
     </g>
     <g id="text_2">
      <!-- 0.02 -->
      <g transform="translate(208.467184 527.238438) scale(0.1 -0.1)">
       <defs>
        <path id="DejaVuSans-32" d="M 1228 531 
L 3431 531 
L 3431 0 
L 469 0 
L 469 531 
Q 828 903 1448 1529 
Q 2069 2156 2228 2338 
Q 2531 2678 2651 2914 
Q 2772 3150 2772 3378 
Q 2772 3750 2511 3984 
Q 2250 4219 1831 4219 
Q 1534 4219 1204 4116 
Q 875 4013 500 3803 
L 500 4441 
Q 881 4594 1212 4672 
Q 1544 4750 1819 4750 
Q 2544 4750 2975 4387 
Q 3406 4025 3406 3419 
Q 3406 3131 3298 2873 
Q 3191 2616 2906 2266 
Q 2828 2175 2409 1742 
Q 1991 1309 1228 531 
z
" transform="scale(0.015625)"/>
       </defs>
       <use xlink:href="#DejaVuSans-30"/>
       <use xlink:href="#DejaVuSans-2e" x="63.623047"/>
       <use xlink:href="#DejaVuSans-30" x="95.410156"/>
       <use xlink:href="#DejaVuSans-32" x="159.033203"/>
      </g>
     </g>
    </g>
    <g id="xtick_3">
     <g id="line2d_5">
      <path d="M 300.76363 512.64 
L 300.76363 69.12 
" clip-path="url(#pa7f92587c5)" style="fill: none; stroke: #b0b0b0; stroke-width: 0.8; stroke-linecap: square"/>
     </g>
     <g id="line2d_6">
      <g>
       <use xlink:href="#md69e394bcd" x="300.76363" y="512.64" style="stroke: #000000; stroke-width: 0.8"/>
      </g>
     </g>
     <g id="text_3">
      <!-- 0.04 -->
      <g transform="translate(289.630817 527.238438) scale(0.1 -0.1)">
       <defs>
        <path id="DejaVuSans-34" d="M 2419 4116 
L 825 1625 
L 2419 1625 
L 2419 4116 
z
M 2253 4666 
L 3047 4666 
L 3047 1625 
L 3713 1625 
L 3713 1100 
L 3047 1100 
L 3047 0 
L 2419 0 
L 2419 1100 
L 313 1100 
L 313 1709 
L 2253 4666 
z
" transform="scale(0.015625)"/>
       </defs>
       <use xlink:href="#DejaVuSans-30"/>
       <use xlink:href="#DejaVuSans-2e" x="63.623047"/>
       <use xlink:href="#DejaVuSans-30" x="95.410156"/>
       <use xlink:href="#DejaVuSans-34" x="159.033203"/>
      </g>
     </g>
    </g>
    <g id="xtick_4">
     <g id="line2d_7">
      <path d="M 381.927263 512.64 
L 381.927263 69.12 
" clip-path="url(#pa7f92587c5)" style="fill: none; stroke: #b0b0b0; stroke-width: 0.8; stroke-linecap: square"/>
     </g>
     <g id="line2d_8">
      <g>
       <use xlink:href="#md69e394bcd" x="381.927263" y="512.64" style="stroke: #000000; stroke-width: 0.8"/>
      </g>
     </g>
     <g id="text_4">
      <!-- 0.06 -->
      <g transform="translate(370.794451 527.238438) scale(0.1 -0.1)">
       <defs>
        <path id="DejaVuSans-36" d="M 2113 2584 
Q 1688 2584 1439 2293 
Q 1191 2003 1191 1497 
Q 1191 994 1439 701 
Q 1688 409 2113 409 
Q 2538 409 2786 701 
Q 3034 994 3034 1497 
Q 3034 2003 2786 2293 
Q 2538 2584 2113 2584 
z
M 3366 4563 
L 3366 3988 
Q 3128 4100 2886 4159 
Q 2644 4219 2406 4219 
Q 1781 4219 1451 3797 
Q 1122 3375 1075 2522 
Q 1259 2794 1537 2939 
Q 1816 3084 2150 3084 
Q 2853 3084 3261 2657 
Q 3669 2231 3669 1497 
Q 3669 778 3244 343 
Q 2819 -91 2113 -91 
Q 1303 -91 875 529 
Q 447 1150 447 2328 
Q 447 3434 972 4092 
Q 1497 4750 2381 4750 
Q 2619 4750 2861 4703 
Q 3103 4656 3366 4563 
z
" transform="scale(0.015625)"/>
       </defs>
       <use xlink:href="#DejaVuSans-30"/>
       <use xlink:href="#DejaVuSans-2e" x="63.623047"/>
       <use xlink:href="#DejaVuSans-30" x="95.410156"/>
       <use xlink:href="#DejaVuSans-36" x="159.033203"/>
      </g>
     </g>
    </g>
    <g id="xtick_5">
     <g id="line2d_9">
      <path d="M 463.090896 512.64 
L 463.090896 69.12 
" clip-path="url(#pa7f92587c5)" style="fill: none; stroke: #b0b0b0; stroke-width: 0.8; stroke-linecap: square"/>
     </g>
     <g id="line2d_10">
      <g>
       <use xlink:href="#md69e394bcd" x="463.090896" y="512.64" style="stroke: #000000; stroke-width: 0.8"/>
      </g>
     </g>
     <g id="text_5">
      <!-- 0.08 -->
      <g transform="translate(451.958084 527.238438) scale(0.1 -0.1)">
       <defs>
        <path id="DejaVuSans-38" d="M 2034 2216 
Q 1584 2216 1326 1975 
Q 1069 1734 1069 1313 
Q 1069 891 1326 650 
Q 1584 409 2034 409 
Q 2484 409 2743 651 
Q 3003 894 3003 1313 
Q 3003 1734 2745 1975 
Q 2488 2216 2034 2216 
z
M 1403 2484 
Q 997 2584 770 2862 
Q 544 3141 544 3541 
Q 544 4100 942 4425 
Q 1341 4750 2034 4750 
Q 2731 4750 3128 4425 
Q 3525 4100 3525 3541 
Q 3525 3141 3298 2862 
Q 3072 2584 2669 2484 
Q 3125 2378 3379 2068 
Q 3634 1759 3634 1313 
Q 3634 634 3220 271 
Q 2806 -91 2034 -91 
Q 1263 -91 848 271 
Q 434 634 434 1313 
Q 434 1759 690 2068 
Q 947 2378 1403 2484 
z
M 1172 3481 
Q 1172 3119 1398 2916 
Q 1625 2713 2034 2713 
Q 2441 2713 2670 2916 
Q 2900 3119 2900 3481 
Q 2900 3844 2670 4047 
Q 2441 4250 2034 4250 
Q 1625 4250 1398 4047 
Q 1172 3844 1172 3481 
z
" transform="scale(0.015625)"/>
       </defs>
       <use xlink:href="#DejaVuSans-30"/>
       <use xlink:href="#DejaVuSans-2e" x="63.623047"/>
       <use xlink:href="#DejaVuSans-30" x="95.410156"/>
       <use xlink:href="#DejaVuSans-38" x="159.033203"/>
      </g>
     </g>
    </g>
    <g id="xtick_6">
     <g id="line2d_11">
      <path d="M 544.254529 512.64 
L 544.254529 69.12 
" clip-path="url(#pa7f92587c5)" style="fill: none; stroke: #b0b0b0; stroke-width: 0.8; stroke-linecap: square"/>
     </g>
     <g id="line2d_12">
      <g>
       <use xlink:href="#md69e394bcd" x="544.254529" y="512.64" style="stroke: #000000; stroke-width: 0.8"/>
      </g>
     </g>
     <g id="text_6">
      <!-- 0.10 -->
      <g transform="translate(533.121717 527.238438) scale(0.1 -0.1)">
       <defs>
        <path id="DejaVuSans-31" d="M 794 531 
L 1825 531 
L 1825 4091 
L 703 3866 
L 703 4441 
L 1819 4666 
L 2450 4666 
L 2450 531 
L 3481 531 
L 3481 0 
L 794 0 
L 794 531 
z
" transform="scale(0.015625)"/>
       </defs>
       <use xlink:href="#DejaVuSans-30"/>
       <use xlink:href="#DejaVuSans-2e" x="63.623047"/>
       <use xlink:href="#DejaVuSans-31" x="95.410156"/>
       <use xlink:href="#DejaVuSans-30" x="159.033203"/>
      </g>
     </g>
    </g>
    <g id="xtick_7">
     <g id="line2d_13">
      <path d="M 625.418162 512.64 
L 625.418162 69.12 
" clip-path="url(#pa7f92587c5)" style="fill: none; stroke: #b0b0b0; stroke-width: 0.8; stroke-linecap: square"/>
     </g>
     <g id="line2d_14">
      <g>
       <use xlink:href="#md69e394bcd" x="625.418162" y="512.64" style="stroke: #000000; stroke-width: 0.8"/>
      </g>
     </g>
     <g id="text_7">
      <!-- 0.12 -->
      <g transform="translate(614.28535 527.238438) scale(0.1 -0.1)">
       <use xlink:href="#DejaVuSans-30"/>
       <use xlink:href="#DejaVuSans-2e" x="63.623047"/>
       <use xlink:href="#DejaVuSans-31" x="95.410156"/>
       <use xlink:href="#DejaVuSans-32" x="159.033203"/>
      </g>
     </g>
    </g>
    <g id="xtick_8">
     <g id="line2d_15">
      <path d="M 706.581796 512.64 
L 706.581796 69.12 
" clip-path="url(#pa7f92587c5)" style="fill: none; stroke: #b0b0b0; stroke-width: 0.8; stroke-linecap: square"/>
     </g>
     <g id="line2d_16">
      <g>
       <use xlink:href="#md69e394bcd" x="706.581796" y="512.64" style="stroke: #000000; stroke-width: 0.8"/>
      </g>
     </g>
     <g id="text_8">
      <!-- 0.14 -->
      <g transform="translate(695.448983 527.238438) scale(0.1 -0.1)">
       <use xlink:href="#DejaVuSans-30"/>
       <use xlink:href="#DejaVuSans-2e" x="63.623047"/>
       <use xlink:href="#DejaVuSans-31" x="95.410156"/>
       <use xlink:href="#DejaVuSans-34" x="159.033203"/>
      </g>
     </g>
    </g>
    <g id="text_9">
     <!-- Risk-free rate -->
     <g transform="translate(382.01625 546.995312) scale(0.18 -0.18)">
      <defs>
       <path id="DejaVuSans-52" d="M 2841 2188 
Q 3044 2119 3236 1894 
Q 3428 1669 3622 1275 
L 4263 0 
L 3584 0 
L 2988 1197 
Q 2756 1666 2539 1819 
Q 2322 1972 1947 1972 
L 1259 1972 
L 1259 0 
L 628 0 
L 628 4666 
L 2053 4666 
Q 2853 4666 3247 4331 
Q 3641 3997 3641 3322 
Q 3641 2881 3436 2590 
Q 3231 2300 2841 2188 
z
M 1259 4147 
L 1259 2491 
L 2053 2491 
Q 2509 2491 2742 2702 
Q 2975 2913 2975 3322 
Q 2975 3731 2742 3939 
Q 2509 4147 2053 4147 
L 1259 4147 
z
" transform="scale(0.015625)"/>
       <path id="DejaVuSans-69" d="M 603 3500 
L 1178 3500 
L 1178 0 
L 603 0 
L 603 3500 
z
M 603 4863 
L 1178 4863 
L 1178 4134 
L 603 4134 
L 603 4863 
z
" transform="scale(0.015625)"/>
       <path id="DejaVuSans-73" d="M 2834 3397 
L 2834 2853 
Q 2591 2978 2328 3040 
Q 2066 3103 1784 3103 
Q 1356 3103 1142 2972 
Q 928 2841 928 2578 
Q 928 2378 1081 2264 
Q 1234 2150 1697 2047 
L 1894 2003 
Q 2506 1872 2764 1633 
Q 3022 1394 3022 966 
Q 3022 478 2636 193 
Q 2250 -91 1575 -91 
Q 1294 -91 989 -36 
Q 684 19 347 128 
L 347 722 
Q 666 556 975 473 
Q 1284 391 1588 391 
Q 1994 391 2212 530 
Q 2431 669 2431 922 
Q 2431 1156 2273 1281 
Q 2116 1406 1581 1522 
L 1381 1569 
Q 847 1681 609 1914 
Q 372 2147 372 2553 
Q 372 3047 722 3315 
Q 1072 3584 1716 3584 
Q 2034 3584 2315 3537 
Q 2597 3491 2834 3397 
z
" transform="scale(0.015625)"/>
       <path id="DejaVuSans-6b" d="M 581 4863 
L 1159 4863 
L 1159 1991 
L 2875 3500 
L 3609 3500 
L 1753 1863 
L 3688 0 
L 2938 0 
L 1159 1709 
L 1159 0 
L 581 0 
L 581 4863 
z
" transform="scale(0.015625)"/>
       <path id="DejaVuSans-2d" d="M 313 2009 
L 1997 2009 
L 1997 1497 
L 313 1497 
L 313 2009 
z
" transform="scale(0.015625)"/>
       <path id="DejaVuSans-66" d="M 2375 4863 
L 2375 4384 
L 1825 4384 
Q 1516 4384 1395 4259 
Q 1275 4134 1275 3809 
L 1275 3500 
L 2222 3500 
L 2222 3053 
L 1275 3053 
L 1275 0 
L 697 0 
L 697 3053 
L 147 3053 
L 147 3500 
L 697 3500 
L 697 3744 
Q 697 4328 969 4595 
Q 1241 4863 1831 4863 
L 2375 4863 
z
" transform="scale(0.015625)"/>
       <path id="DejaVuSans-72" d="M 2631 2963 
Q 2534 3019 2420 3045 
Q 2306 3072 2169 3072 
Q 1681 3072 1420 2755 
Q 1159 2438 1159 1844 
L 1159 0 
L 581 0 
L 581 3500 
L 1159 3500 
L 1159 2956 
Q 1341 3275 1631 3429 
Q 1922 3584 2338 3584 
Q 2397 3584 2469 3576 
Q 2541 3569 2628 3553 
L 2631 2963 
z
" transform="scale(0.015625)"/>
       <path id="DejaVuSans-65" d="M 3597 1894 
L 3597 1613 
L 953 1613 
Q 991 1019 1311 708 
Q 1631 397 2203 397 
Q 2534 397 2845 478 
Q 3156 559 3463 722 
L 3463 178 
Q 3153 47 2828 -22 
Q 2503 -91 2169 -91 
Q 1331 -91 842 396 
Q 353 884 353 1716 
Q 353 2575 817 3079 
Q 1281 3584 2069 3584 
Q 2775 3584 3186 3129 
Q 3597 2675 3597 1894 
z
M 3022 2063 
Q 3016 2534 2758 2815 
Q 2500 3097 2075 3097 
Q 1594 3097 1305 2825 
Q 1016 2553 972 2059 
L 3022 2063 
z
" transform="scale(0.015625)"/>
       <path id="DejaVuSans-20" transform="scale(0.015625)"/>
       <path id="DejaVuSans-61" d="M 2194 1759 
Q 1497 1759 1228 1600 
Q 959 1441 959 1056 
Q 959 750 1161 570 
Q 1363 391 1709 391 
Q 2188 391 2477 730 
Q 2766 1069 2766 1631 
L 2766 1759 
L 2194 1759 
z
M 3341 1997 
L 3341 0 
L 2766 0 
L 2766 531 
Q 2569 213 2275 61 
Q 1981 -91 1556 -91 
Q 1019 -91 701 211 
Q 384 513 384 1019 
Q 384 1609 779 1909 
Q 1175 2209 1959 2209 
L 2766 2209 
L 2766 2266 
Q 2766 2663 2505 2880 
Q 2244 3097 1772 3097 
Q 1472 3097 1187 3025 
Q 903 2953 641 2809 
L 641 3341 
Q 956 3463 1253 3523 
Q 1550 3584 1831 3584 
Q 2591 3584 2966 3190 
Q 3341 2797 3341 1997 
z
" transform="scale(0.015625)"/>
       <path id="DejaVuSans-74" d="M 1172 4494 
L 1172 3500 
L 2356 3500 
L 2356 3053 
L 1172 3053 
L 1172 1153 
Q 1172 725 1289 603 
Q 1406 481 1766 481 
L 2356 481 
L 2356 0 
L 1766 0 
Q 1100 0 847 248 
Q 594 497 594 1153 
L 594 3053 
L 172 3053 
L 172 3500 
L 594 3500 
L 594 4494 
L 1172 4494 
z
" transform="scale(0.015625)"/>
      </defs>
      <use xlink:href="#DejaVuSans-52"/>
      <use xlink:href="#DejaVuSans-69" x="69.482422"/>
      <use xlink:href="#DejaVuSans-73" x="97.265625"/>
      <use xlink:href="#DejaVuSans-6b" x="149.365234"/>
      <use xlink:href="#DejaVuSans-2d" x="207.275391"/>
      <use xlink:href="#DejaVuSans-66" x="243.359375"/>
      <use xlink:href="#DejaVuSans-72" x="278.564453"/>
      <use xlink:href="#DejaVuSans-65" x="317.427734"/>
      <use xlink:href="#DejaVuSans-65" x="378.951172"/>
      <use xlink:href="#DejaVuSans-20" x="440.474609"/>
      <use xlink:href="#DejaVuSans-72" x="472.261719"/>
      <use xlink:href="#DejaVuSans-61" x="513.375"/>
      <use xlink:href="#DejaVuSans-74" x="574.654297"/>
      <use xlink:href="#DejaVuSans-65" x="613.863281"/>
     </g>
    </g>
   </g>
   <g id="matplotlib.axis_2">
    <g id="ytick_1">
     <g id="line2d_17">
      <path d="M 108 494.196049 
L 777.6 494.196049 
" clip-path="url(#pa7f92587c5)" style="fill: none; stroke: #b0b0b0; stroke-width: 0.8; stroke-linecap: square"/>
     </g>
     <g id="line2d_18">
      <defs>
       <path id="m7ea3ec7fb9" d="M 0 0 
L -3.5 0 
" style="stroke: #000000; stroke-width: 0.8"/>
      </defs>
      <g>
       <use xlink:href="#m7ea3ec7fb9" x="108" y="494.196049" style="stroke: #000000; stroke-width: 0.8"/>
      </g>
     </g>
     <g id="text_10">
      <!-- 0.0020 -->
      <g transform="translate(66.009375 497.995268) scale(0.1 -0.1)">
       <use xlink:href="#DejaVuSans-30"/>
       <use xlink:href="#DejaVuSans-2e" x="63.623047"/>
       <use xlink:href="#DejaVuSans-30" x="95.410156"/>
       <use xlink:href="#DejaVuSans-30" x="159.033203"/>
       <use xlink:href="#DejaVuSans-32" x="222.65625"/>
       <use xlink:href="#DejaVuSans-30" x="286.279297"/>
      </g>
     </g>
    </g>
    <g id="ytick_2">
     <g id="line2d_19">
      <path d="M 108 424.382871 
L 777.6 424.382871 
" clip-path="url(#pa7f92587c5)" style="fill: none; stroke: #b0b0b0; stroke-width: 0.8; stroke-linecap: square"/>
     </g>
     <g id="line2d_20">
      <g>
       <use xlink:href="#m7ea3ec7fb9" x="108" y="424.382871" style="stroke: #000000; stroke-width: 0.8"/>
      </g>
     </g>
     <g id="text_11">
      <!-- 0.0025 -->
      <g transform="translate(66.009375 428.18209) scale(0.1 -0.1)">
       <defs>
        <path id="DejaVuSans-35" d="M 691 4666 
L 3169 4666 
L 3169 4134 
L 1269 4134 
L 1269 2991 
Q 1406 3038 1543 3061 
Q 1681 3084 1819 3084 
Q 2600 3084 3056 2656 
Q 3513 2228 3513 1497 
Q 3513 744 3044 326 
Q 2575 -91 1722 -91 
Q 1428 -91 1123 -41 
Q 819 9 494 109 
L 494 744 
Q 775 591 1075 516 
Q 1375 441 1709 441 
Q 2250 441 2565 725 
Q 2881 1009 2881 1497 
Q 2881 1984 2565 2268 
Q 2250 2553 1709 2553 
Q 1456 2553 1204 2497 
Q 953 2441 691 2322 
L 691 4666 
z
" transform="scale(0.015625)"/>
       </defs>
       <use xlink:href="#DejaVuSans-30"/>
       <use xlink:href="#DejaVuSans-2e" x="63.623047"/>
       <use xlink:href="#DejaVuSans-30" x="95.410156"/>
       <use xlink:href="#DejaVuSans-30" x="159.033203"/>
       <use xlink:href="#DejaVuSans-32" x="222.65625"/>
       <use xlink:href="#DejaVuSans-35" x="286.279297"/>
      </g>
     </g>
    </g>
    <g id="ytick_3">
     <g id="line2d_21">
      <path d="M 108 354.569693 
L 777.6 354.569693 
" clip-path="url(#pa7f92587c5)" style="fill: none; stroke: #b0b0b0; stroke-width: 0.8; stroke-linecap: square"/>
     </g>
     <g id="line2d_22">
      <g>
       <use xlink:href="#m7ea3ec7fb9" x="108" y="354.569693" style="stroke: #000000; stroke-width: 0.8"/>
      </g>
     </g>
     <g id="text_12">
      <!-- 0.0030 -->
      <g transform="translate(66.009375 358.368912) scale(0.1 -0.1)">
       <defs>
        <path id="DejaVuSans-33" d="M 2597 2516 
Q 3050 2419 3304 2112 
Q 3559 1806 3559 1356 
Q 3559 666 3084 287 
Q 2609 -91 1734 -91 
Q 1441 -91 1130 -33 
Q 819 25 488 141 
L 488 750 
Q 750 597 1062 519 
Q 1375 441 1716 441 
Q 2309 441 2620 675 
Q 2931 909 2931 1356 
Q 2931 1769 2642 2001 
Q 2353 2234 1838 2234 
L 1294 2234 
L 1294 2753 
L 1863 2753 
Q 2328 2753 2575 2939 
Q 2822 3125 2822 3475 
Q 2822 3834 2567 4026 
Q 2313 4219 1838 4219 
Q 1578 4219 1281 4162 
Q 984 4106 628 3988 
L 628 4550 
Q 988 4650 1302 4700 
Q 1616 4750 1894 4750 
Q 2613 4750 3031 4423 
Q 3450 4097 3450 3541 
Q 3450 3153 3228 2886 
Q 3006 2619 2597 2516 
z
" transform="scale(0.015625)"/>
       </defs>
       <use xlink:href="#DejaVuSans-30"/>
       <use xlink:href="#DejaVuSans-2e" x="63.623047"/>
       <use xlink:href="#DejaVuSans-30" x="95.410156"/>
       <use xlink:href="#DejaVuSans-30" x="159.033203"/>
       <use xlink:href="#DejaVuSans-33" x="222.65625"/>
       <use xlink:href="#DejaVuSans-30" x="286.279297"/>
      </g>
     </g>
    </g>
    <g id="ytick_4">
     <g id="line2d_23">
      <path d="M 108 284.756516 
L 777.6 284.756516 
" clip-path="url(#pa7f92587c5)" style="fill: none; stroke: #b0b0b0; stroke-width: 0.8; stroke-linecap: square"/>
     </g>
     <g id="line2d_24">
      <g>
       <use xlink:href="#m7ea3ec7fb9" x="108" y="284.756516" style="stroke: #000000; stroke-width: 0.8"/>
      </g>
     </g>
     <g id="text_13">
      <!-- 0.0035 -->
      <g transform="translate(66.009375 288.555734) scale(0.1 -0.1)">
       <use xlink:href="#DejaVuSans-30"/>
       <use xlink:href="#DejaVuSans-2e" x="63.623047"/>
       <use xlink:href="#DejaVuSans-30" x="95.410156"/>
       <use xlink:href="#DejaVuSans-30" x="159.033203"/>
       <use xlink:href="#DejaVuSans-33" x="222.65625"/>
       <use xlink:href="#DejaVuSans-35" x="286.279297"/>
      </g>
     </g>
    </g>
    <g id="ytick_5">
     <g id="line2d_25">
      <path d="M 108 214.943338 
L 777.6 214.943338 
" clip-path="url(#pa7f92587c5)" style="fill: none; stroke: #b0b0b0; stroke-width: 0.8; stroke-linecap: square"/>
     </g>
     <g id="line2d_26">
      <g>
       <use xlink:href="#m7ea3ec7fb9" x="108" y="214.943338" style="stroke: #000000; stroke-width: 0.8"/>
      </g>
     </g>
     <g id="text_14">
      <!-- 0.0040 -->
      <g transform="translate(66.009375 218.742557) scale(0.1 -0.1)">
       <use xlink:href="#DejaVuSans-30"/>
       <use xlink:href="#DejaVuSans-2e" x="63.623047"/>
       <use xlink:href="#DejaVuSans-30" x="95.410156"/>
       <use xlink:href="#DejaVuSans-30" x="159.033203"/>
       <use xlink:href="#DejaVuSans-34" x="222.65625"/>
       <use xlink:href="#DejaVuSans-30" x="286.279297"/>
      </g>
     </g>
    </g>
    <g id="ytick_6">
     <g id="line2d_27">
      <path d="M 108 145.13016 
L 777.6 145.13016 
" clip-path="url(#pa7f92587c5)" style="fill: none; stroke: #b0b0b0; stroke-width: 0.8; stroke-linecap: square"/>
     </g>
     <g id="line2d_28">
      <g>
       <use xlink:href="#m7ea3ec7fb9" x="108" y="145.13016" style="stroke: #000000; stroke-width: 0.8"/>
      </g>
     </g>
     <g id="text_15">
      <!-- 0.0045 -->
      <g transform="translate(66.009375 148.929379) scale(0.1 -0.1)">
       <use xlink:href="#DejaVuSans-30"/>
       <use xlink:href="#DejaVuSans-2e" x="63.623047"/>
       <use xlink:href="#DejaVuSans-30" x="95.410156"/>
       <use xlink:href="#DejaVuSans-30" x="159.033203"/>
       <use xlink:href="#DejaVuSans-34" x="222.65625"/>
       <use xlink:href="#DejaVuSans-35" x="286.279297"/>
      </g>
     </g>
    </g>
    <g id="ytick_7">
     <g id="line2d_29">
      <path d="M 108 75.316982 
L 777.6 75.316982 
" clip-path="url(#pa7f92587c5)" style="fill: none; stroke: #b0b0b0; stroke-width: 0.8; stroke-linecap: square"/>
     </g>
     <g id="line2d_30">
      <g>
       <use xlink:href="#m7ea3ec7fb9" x="108" y="75.316982" style="stroke: #000000; stroke-width: 0.8"/>
      </g>
     </g>
     <g id="text_16">
      <!-- 0.0050 -->
      <g transform="translate(66.009375 79.116201) scale(0.1 -0.1)">
       <use xlink:href="#DejaVuSans-30"/>
       <use xlink:href="#DejaVuSans-2e" x="63.623047"/>
       <use xlink:href="#DejaVuSans-30" x="95.410156"/>
       <use xlink:href="#DejaVuSans-30" x="159.033203"/>
       <use xlink:href="#DejaVuSans-35" x="222.65625"/>
       <use xlink:href="#DejaVuSans-30" x="286.279297"/>
      </g>
     </g>
    </g>
    <g id="text_17">
     <!-- Price/strike ratio -->
     <g transform="translate(58.265938 364.318594) rotate(-90) scale(0.18 -0.18)">
      <defs>
       <path id="DejaVuSans-50" d="M 1259 4147 
L 1259 2394 
L 2053 2394 
Q 2494 2394 2734 2622 
Q 2975 2850 2975 3272 
Q 2975 3691 2734 3919 
Q 2494 4147 2053 4147 
L 1259 4147 
z
M 628 4666 
L 2053 4666 
Q 2838 4666 3239 4311 
Q 3641 3956 3641 3272 
Q 3641 2581 3239 2228 
Q 2838 1875 2053 1875 
L 1259 1875 
L 1259 0 
L 628 0 
L 628 4666 
z
" transform="scale(0.015625)"/>
       <path id="DejaVuSans-63" d="M 3122 3366 
L 3122 2828 
Q 2878 2963 2633 3030 
Q 2388 3097 2138 3097 
Q 1578 3097 1268 2742 
Q 959 2388 959 1747 
Q 959 1106 1268 751 
Q 1578 397 2138 397 
Q 2388 397 2633 464 
Q 2878 531 3122 666 
L 3122 134 
Q 2881 22 2623 -34 
Q 2366 -91 2075 -91 
Q 1284 -91 818 406 
Q 353 903 353 1747 
Q 353 2603 823 3093 
Q 1294 3584 2113 3584 
Q 2378 3584 2631 3529 
Q 2884 3475 3122 3366 
z
" transform="scale(0.015625)"/>
       <path id="DejaVuSans-2f" d="M 1625 4666 
L 2156 4666 
L 531 -594 
L 0 -594 
L 1625 4666 
z
" transform="scale(0.015625)"/>
       <path id="DejaVuSans-6f" d="M 1959 3097 
Q 1497 3097 1228 2736 
Q 959 2375 959 1747 
Q 959 1119 1226 758 
Q 1494 397 1959 397 
Q 2419 397 2687 759 
Q 2956 1122 2956 1747 
Q 2956 2369 2687 2733 
Q 2419 3097 1959 3097 
z
M 1959 3584 
Q 2709 3584 3137 3096 
Q 3566 2609 3566 1747 
Q 3566 888 3137 398 
Q 2709 -91 1959 -91 
Q 1206 -91 779 398 
Q 353 888 353 1747 
Q 353 2609 779 3096 
Q 1206 3584 1959 3584 
z
" transform="scale(0.015625)"/>
      </defs>
      <use xlink:href="#DejaVuSans-50"/>
      <use xlink:href="#DejaVuSans-72" x="58.552734"/>
      <use xlink:href="#DejaVuSans-69" x="99.666016"/>
      <use xlink:href="#DejaVuSans-63" x="127.449219"/>
      <use xlink:href="#DejaVuSans-65" x="182.429688"/>
      <use xlink:href="#DejaVuSans-2f" x="243.953125"/>
      <use xlink:href="#DejaVuSans-73" x="277.644531"/>
      <use xlink:href="#DejaVuSans-74" x="329.744141"/>
      <use xlink:href="#DejaVuSans-72" x="368.953125"/>
      <use xlink:href="#DejaVuSans-69" x="410.066406"/>
      <use xlink:href="#DejaVuSans-6b" x="437.849609"/>
      <use xlink:href="#DejaVuSans-65" x="492.134766"/>
      <use xlink:href="#DejaVuSans-20" x="553.658203"/>
      <use xlink:href="#DejaVuSans-72" x="585.445312"/>
      <use xlink:href="#DejaVuSans-61" x="626.558594"/>
      <use xlink:href="#DejaVuSans-74" x="687.837891"/>
      <use xlink:href="#DejaVuSans-69" x="727.046875"/>
      <use xlink:href="#DejaVuSans-6f" x="754.830078"/>
     </g>
    </g>
   </g>
   <g id="line2d_31">
    <path d="M 138.436364 354.569722 
L 138.842182 354.569722 
L 139.653818 298.719242 
L 139.653818 326.644239 
L 139.653818 312.681789 
L 140.059636 368.532237 
L 140.465455 340.606948 
L 140.465455 396.457428 
L 140.465455 382.494946 
L 140.871273 354.569722 
L 140.871273 326.644239 
L 140.871273 340.606948 
L 141.277091 368.532237 
L 141.277091 368.532237 
L 141.277091 326.644239 
L 142.088727 382.494946 
L 142.900363 340.606948 
L 142.900363 340.606948 
L 145.335273 340.606948 
L 146.146909 326.644239 
L 146.552727 382.494946 
L 147.364363 326.644239 
L 147.770182 312.681789 
L 147.770182 340.606948 
L 147.770182 340.606948 
L 148.176 326.644239 
L 149.393454 368.532237 
L 149.393454 354.569722 
L 149.799272 312.681789 
L 150.610909 326.644239 
L 150.610909 340.606948 
L 150.610909 312.681789 
L 151.422545 354.569722 
L 151.422545 354.569722 
L 151.422545 368.532237 
L 151.828363 354.569722 
L 151.828363 340.606948 
L 151.828363 368.532237 
L 151.828363 340.606948 
L 152.234181 298.719242 
L 152.64 354.569722 
L 152.64 340.606948 
L 153.045817 354.569722 
L 153.451636 354.569722 
L 153.451636 340.606948 
L 153.857454 326.644239 
L 153.857454 340.606948 
L 155.074909 340.606948 
L 155.074909 354.569722 
L 155.480726 340.606948 
L 155.886545 340.606948 
L 156.292363 354.569722 
L 156.292363 340.606948 
L 157.915637 368.532237 
L 158.321454 340.606948 
L 158.727271 354.569722 
L 159.133091 326.644239 
L 159.538908 382.494946 
L 159.538908 326.644239 
L 159.944726 298.719242 
L 161.16218 340.606948 
L 161.16218 326.644239 
L 161.973817 354.569722 
L 161.973817 354.569722 
L 162.785454 340.606948 
L 163.191271 354.569722 
L 163.597091 354.569722 
L 163.597091 354.569722 
L 164.002908 340.606948 
L 164.002908 354.569722 
L 164.002908 326.644239 
L 164.408726 354.569722 
L 164.408726 368.532237 
L 164.814545 340.606948 
L 164.814545 326.644239 
L 165.220362 368.532237 
L 165.220362 326.644239 
L 165.220362 382.494946 
L 165.220362 326.644239 
L 165.62618 340.606948 
L 165.62618 354.569722 
L 166.031999 340.606948 
L 166.843636 368.532237 
L 167.249454 368.532237 
L 167.655271 326.644239 
L 167.655271 312.681789 
L 168.872725 298.719242 
L 169.278545 270.793954 
L 169.684362 354.569722 
L 169.684362 312.681789 
L 169.684362 368.532237 
L 170.09018 340.606948 
L 170.09018 382.494946 
L 170.09018 340.606948 
L 170.495997 326.644239 
L 170.495997 354.569722 
L 170.901818 368.532237 
L 171.713453 298.719242 
L 171.713453 326.644239 
L 171.713453 326.644239 
L 172.525088 354.569722 
L 172.93091 298.719242 
L 172.93091 340.606948 
L 172.93091 298.719242 
L 173.742545 368.532237 
L 173.742545 340.606948 
L 173.742545 368.532237 
L 175.365818 298.719242 
L 175.365818 340.606948 
L 175.771636 312.681789 
L 176.583271 298.719242 
L 176.989088 368.532237 
L 176.989088 326.644239 
L 176.989088 368.532237 
L 177.394909 340.606948 
L 177.394909 382.494946 
L 177.394909 340.606948 
L 178.206544 340.606948 
L 179.018179 354.569722 
L 179.423997 340.606948 
L 179.423997 368.532237 
L 179.423997 354.569722 
L 180.235636 354.569722 
L 180.235636 354.569722 
L 180.235636 382.494946 
L 180.641453 382.494946 
L 180.641453 368.532237 
L 181.453088 326.644239 
L 182.264727 326.644239 
L 182.264727 340.606948 
L 182.264727 340.606948 
L 182.670544 340.606948 
L 182.670544 340.606948 
L 183.482179 312.681789 
L 183.482179 340.606948 
L 183.482179 340.606948 
L 183.887997 340.606948 
L 183.887997 354.569722 
L 184.699635 354.569722 
L 185.105453 298.719242 
L 185.105453 312.681789 
L 185.51127 312.681789 
L 186.322909 340.606948 
L 186.322909 326.644239 
L 186.728726 326.644239 
L 187.134544 368.532237 
L 188.351996 340.606948 
L 188.757818 340.606948 
L 189.163635 312.681789 
L 189.163635 354.569722 
L 189.163635 326.644239 
L 190.381088 340.606948 
L 190.381088 326.644239 
L 190.786909 326.644239 
L 190.786909 340.606948 
L 191.192726 340.606948 
L 191.192726 326.644239 
L 191.598544 326.644239 
L 191.598544 340.606948 
L 192.004361 326.644239 
L 192.004361 298.719242 
L 192.004361 298.719242 
L 192.410179 340.606948 
L 192.410179 354.569722 
L 192.410179 326.644239 
L 192.815996 326.644239 
L 192.815996 340.606948 
L 192.815996 326.644239 
L 193.221817 340.606948 
L 193.627635 284.756371 
L 193.627635 368.532237 
L 194.033452 340.606948 
L 195.250909 326.644239 
L 195.250909 340.606948 
L 195.250909 312.681789 
L 195.656726 298.719242 
L 196.468361 298.719242 
L 196.468361 382.494946 
L 196.468361 312.681789 
L 196.874178 354.569722 
L 196.874178 354.569722 
L 197.685817 340.606948 
L 197.685817 312.681789 
L 197.685817 312.681789 
L 198.091635 312.681789 
L 198.091635 312.681789 
L 198.497452 354.569722 
L 198.497452 298.719242 
L 198.497452 326.644239 
L 198.90327 354.569722 
L 199.714908 312.681789 
L 200.526543 298.719242 
L 200.526543 340.606948 
L 200.932361 312.681789 
L 201.338178 312.681789 
L 201.338178 298.719242 
L 201.743996 340.606948 
L 201.743996 340.606948 
L 202.149813 340.606948 
L 202.149813 354.569722 
L 202.149813 298.719242 
L 202.555631 340.606948 
L 202.961456 326.644239 
L 203.367273 354.569722 
L 204.178908 298.719242 
L 205.396361 326.644239 
L 205.396361 340.606948 
L 206.613813 312.681789 
L 206.613813 340.606948 
L 206.613813 340.606948 
L 207.019631 340.606948 
L 207.019631 298.719242 
L 207.425456 298.719242 
L 207.425456 368.532237 
L 208.237091 326.644239 
L 208.237091 354.569722 
L 208.642908 340.606948 
L 208.642908 298.719242 
L 209.454543 298.719242 
L 209.454543 340.606948 
L 209.86036 354.569722 
L 209.86036 368.532237 
L 209.86036 368.532237 
L 210.266178 312.681789 
L 210.671995 312.681789 
L 211.077813 326.644239 
L 211.48363 326.644239 
L 211.48363 326.644239 
L 211.48363 340.606948 
L 211.889455 354.569722 
L 211.889455 340.606948 
L 212.295273 312.681789 
L 212.70109 298.719242 
L 214.32436 340.606948 
L 214.730178 354.569722 
L 214.730178 298.719242 
L 215.541813 312.681789 
L 215.94763 312.681789 
L 215.94763 354.569722 
L 216.353455 312.681789 
L 216.353455 270.793954 
L 216.759273 326.644239 
L 217.16509 312.681789 
L 217.976725 326.644239 
L 218.382543 340.606948 
L 218.382543 340.606948 
L 219.194177 340.606948 
L 219.194177 312.681789 
L 219.599995 368.532237 
L 220.005812 312.681789 
L 220.817455 340.606948 
L 220.817455 354.569722 
L 220.817455 298.719242 
L 221.223272 354.569722 
L 221.223272 326.644239 
L 221.62909 340.606948 
L 222.034907 298.719242 
L 222.034907 298.719242 
L 222.440725 312.681789 
L 222.440725 326.644239 
L 222.846542 340.606948 
L 222.846542 312.681789 
L 223.25236 340.606948 
L 223.25236 312.681789 
L 224.063995 326.644239 
L 224.063995 340.606948 
L 224.063995 270.793954 
L 224.469812 326.644239 
L 224.469812 326.644239 
L 225.281455 326.644239 
L 225.687272 340.606948 
L 225.687272 298.719242 
L 225.687272 312.681789 
L 226.09309 312.681789 
L 226.09309 312.681789 
L 226.498907 284.756371 
L 226.498907 354.569722 
L 227.310542 368.532237 
L 228.122177 326.644239 
L 228.527995 312.681789 
L 229.745455 326.644239 
L 230.151272 312.681789 
L 230.151272 326.644239 
L 230.151272 312.681789 
L 230.557089 312.681789 
L 230.962907 298.719242 
L 231.774542 298.719242 
L 232.180359 340.606948 
L 232.180359 298.719242 
L 232.586177 354.569722 
L 232.586177 326.644239 
L 232.586177 326.644239 
L 232.991994 340.606948 
L 232.991994 326.644239 
L 233.397812 326.644239 
L 233.803629 340.606948 
L 234.209454 340.606948 
L 234.209454 326.644239 
L 234.615272 298.719242 
L 235.021089 312.681789 
L 235.426907 312.681789 
L 235.426907 284.756371 
L 235.426907 340.606948 
L 236.238542 354.569722 
L 236.238542 312.681789 
L 236.238542 340.606948 
L 236.644359 284.756371 
L 237.050177 312.681789 
L 237.050177 284.756371 
L 237.050177 326.644239 
L 237.050177 326.644239 
L 237.861812 340.606948 
L 237.861812 298.719242 
L 238.267629 340.606948 
L 238.673454 298.719242 
L 238.673454 284.756371 
L 238.673454 326.644239 
L 239.079272 326.644239 
L 239.079272 298.719242 
L 239.079272 298.719242 
L 239.890907 284.756371 
L 239.890907 326.644239 
L 240.296724 298.719242 
L 241.108359 354.569722 
L 241.514176 298.719242 
L 241.514176 340.606948 
L 241.919994 340.606948 
L 241.919994 312.681789 
L 244.354906 312.681789 
L 244.760724 298.719242 
L 245.166541 354.569722 
L 245.572359 340.606948 
L 245.572359 284.756371 
L 245.572359 326.644239 
L 246.789811 326.644239 
L 247.195629 284.756371 
L 247.601454 312.681789 
L 247.601454 298.719242 
L 248.007271 326.644239 
L 248.818906 298.719242 
L 249.224724 326.644239 
L 250.036359 298.719242 
L 250.036359 270.793954 
L 250.036359 354.569722 
L 250.036359 340.606948 
L 250.442176 298.719242 
L 250.442176 326.644239 
L 251.253811 298.719242 
L 251.253811 354.569722 
L 251.253811 312.681789 
L 252.471271 312.681789 
L 253.282906 326.644239 
L 255.311993 312.681789 
L 255.311993 284.756371 
L 255.717811 298.719242 
L 256.123628 354.569722 
L 256.123628 326.644239 
L 256.935271 354.569722 
L 256.935271 298.719242 
L 257.746906 298.719242 
L 257.746906 312.681789 
L 258.152723 298.719242 
L 258.964358 284.756371 
L 258.964358 298.719242 
L 259.370176 312.681789 
L 259.370176 284.756371 
L 259.370176 312.681789 
L 259.775993 270.793954 
L 259.775993 340.606948 
L 259.775993 326.644239 
L 260.181811 298.719242 
L 260.587628 284.756371 
L 260.993453 326.644239 
L 260.993453 340.606948 
L 262.210906 284.756371 
L 262.616723 298.719242 
L 262.616723 340.606948 
L 262.616723 326.644239 
L 263.428358 312.681789 
L 263.834175 298.719242 
L 264.239993 354.569722 
L 265.051628 284.756371 
L 265.457453 340.606948 
L 265.457453 270.793954 
L 267.080723 298.719242 
L 267.080723 312.681789 
L 268.298183 326.644239 
L 268.703993 242.86847 
L 268.703993 354.569722 
L 268.703993 340.606948 
L 269.109818 312.681789 
L 269.109818 270.793954 
L 269.109818 340.606948 
L 269.515628 312.681789 
L 269.515628 312.681789 
L 270.327263 298.719242 
L 270.327263 298.719242 
L 271.138898 312.681789 
L 271.138898 298.719242 
L 271.138898 326.644239 
L 271.544723 312.681789 
L 271.544723 284.756371 
L 271.544723 284.756371 
L 272.356358 312.681789 
L 272.762183 312.681789 
L 273.167993 298.719242 
L 273.167993 284.756371 
L 273.167993 326.644239 
L 273.573818 326.644239 
L 273.979627 312.681789 
L 275.602897 312.681789 
L 275.602897 270.793954 
L 275.602897 312.681789 
L 276.414547 312.681789 
L 277.226182 270.793954 
L 278.037817 270.793954 
L 278.443627 326.644239 
L 278.443627 354.569722 
L 278.443627 298.719242 
L 278.849452 298.719242 
L 278.849452 298.719242 
L 278.849452 340.606948 
L 279.255262 298.719242 
L 279.661087 270.793954 
L 279.661087 298.719242 
L 280.472722 284.756371 
L 280.878547 326.644239 
L 280.878547 368.532237 
L 280.878547 354.569722 
L 281.284357 312.681789 
L 282.501817 298.719242 
L 282.501817 326.644239 
L 282.501817 298.719242 
L 282.907627 298.719242 
L 282.907627 284.756371 
L 283.313452 326.644239 
L 284.125087 270.793954 
L 284.125087 298.719242 
L 284.936722 298.719242 
L 285.342547 284.756371 
L 285.748357 326.644239 
L 286.154182 284.756371 
L 286.559992 284.756371 
L 286.965817 270.793954 
L 287.371627 270.793954 
L 288.183262 298.719242 
L 288.589087 298.719242 
L 288.589087 340.606948 
L 289.806547 298.719242 
L 290.618182 326.644239 
L 290.618182 298.719242 
L 291.023992 340.606948 
L 291.429817 298.719242 
L 291.429817 312.681789 
L 292.647262 326.644239 
L 292.647262 312.681789 
L 292.647262 326.644239 
L 293.053087 298.719242 
L 293.458897 326.644239 
L 293.458897 326.644239 
L 295.082182 256.831212 
L 295.893817 312.681789 
L 297.517086 270.793954 
L 297.922896 312.681789 
L 297.922896 312.681789 
L 297.922896 284.756371 
L 298.328721 340.606948 
L 299.546181 312.681789 
L 299.951991 312.681789 
L 301.575261 284.756371 
L 301.575261 312.681789 
L 301.981086 284.756371 
L 301.981086 270.793954 
L 302.386896 326.644239 
L 302.792721 326.644239 
L 303.604356 312.681789 
L 303.604356 312.681789 
L 304.010181 312.681789 
L 304.010181 312.681789 
L 304.821816 326.644239 
L 305.227626 312.681789 
L 305.227626 284.756371 
L 305.633451 284.756371 
L 305.633451 326.644239 
L 306.039261 340.606948 
L 306.039261 326.644239 
L 306.445086 312.681789 
L 306.445086 298.719242 
L 306.850896 312.681789 
L 307.256721 284.756371 
L 307.256721 326.644239 
L 307.256721 228.905956 
L 307.662546 340.606948 
L 307.662546 326.644239 
L 308.068356 298.719242 
L 308.068356 298.719242 
L 308.068356 284.756371 
L 308.068356 312.681789 
L 308.474181 312.681789 
L 308.474181 298.719242 
L 308.879991 298.719242 
L 308.879991 256.831212 
L 309.285816 326.644239 
L 309.691626 228.905956 
L 309.691626 298.719242 
L 310.503261 312.681789 
L 310.503261 312.681789 
L 310.503261 284.756371 
L 310.909086 284.756371 
L 310.909086 312.681789 
L 310.909086 298.719242 
L 312.126546 298.719242 
L 312.126546 256.831212 
L 312.126546 284.756371 
L 312.938181 326.644239 
L 312.938181 270.793954 
L 313.749816 270.793954 
L 313.749816 312.681789 
L 313.749816 312.681789 
L 314.561451 284.756371 
L 314.561451 298.719242 
L 314.967261 256.831212 
L 314.967261 298.719242 
L 315.373086 284.756371 
L 315.778896 284.756371 
L 316.184721 312.681789 
L 316.184721 284.756371 
L 316.590546 326.644239 
L 316.590546 284.756371 
L 316.996356 284.756371 
L 318.213816 270.793954 
L 318.213816 298.719242 
L 319.025451 326.644239 
L 319.025451 256.831212 
L 320.64872 312.681789 
L 321.054545 270.793954 
L 321.460355 256.831212 
L 321.86618 298.719242 
L 321.86618 270.793954 
L 322.677815 284.756371 
L 323.48945 326.644239 
L 323.48945 312.681789 
L 323.89526 298.719242 
L 324.706895 284.756371 
L 324.706895 298.719242 
L 325.518545 312.681789 
L 325.518545 270.793954 
L 325.518545 312.681789 
L 326.33018 284.756371 
L 326.73599 312.681789 
L 326.73599 270.793954 
L 327.141815 284.756371 
L 327.547625 284.756371 
L 327.95345 270.793954 
L 328.35926 312.681789 
L 328.765085 340.606948 
L 329.170895 256.831212 
L 329.170895 284.756371 
L 330.388355 284.756371 
L 330.388355 270.793954 
L 330.388355 284.756371 
L 330.79418 256.831212 
L 330.79418 298.719242 
L 331.19999 326.644239 
L 331.19999 284.756371 
L 331.19999 298.719242 
L 332.41745 312.681789 
L 332.41745 312.681789 
L 332.82326 284.756371 
L 333.229085 312.681789 
L 333.634895 270.793954 
L 333.634895 326.644239 
L 334.04072 270.793954 
L 334.04072 298.719242 
L 334.446545 284.756371 
L 334.852355 298.719242 
L 335.25818 270.793954 
L 335.66399 270.793954 
L 336.069815 298.719242 
L 336.88145 284.756371 
L 337.28726 298.719242 
L 338.098895 284.756371 
L 338.098895 312.681789 
L 338.50472 298.719242 
L 338.50472 312.681789 
L 338.910545 270.793954 
L 339.316355 298.719242 
L 340.12799 256.831212 
L 340.12799 284.756371 
L 340.12799 284.756371 
L 341.34545 284.756371 
L 341.34545 284.756371 
L 342.157084 256.831212 
L 342.562894 340.606948 
L 342.562894 270.793954 
L 342.562894 270.793954 
L 342.968719 284.756371 
L 342.968719 270.793954 
L 343.374544 298.719242 
L 344.186179 326.644239 
L 344.591989 284.756371 
L 345.403624 256.831212 
L 345.403624 284.756371 
L 345.809449 312.681789 
L 346.621084 228.905956 
L 346.621084 298.719242 
L 347.026894 228.905956 
L 347.432719 256.831212 
L 347.432719 326.644239 
L 347.432719 284.756371 
L 347.838544 270.793954 
L 348.244354 326.644239 
L 348.244354 270.793954 
L 348.244354 312.681789 
L 349.055989 256.831212 
L 349.055989 242.86847 
L 349.461814 312.681789 
L 349.867624 284.756371 
L 349.867624 312.681789 
L 349.867624 298.719242 
L 350.273449 284.756371 
L 350.679259 256.831212 
L 351.085084 312.681789 
L 351.490894 284.756371 
L 351.490894 312.681789 
L 353.114179 312.681789 
L 353.114179 270.793954 
L 353.114179 284.756371 
L 353.519989 312.681789 
L 353.519989 270.793954 
L 353.925814 284.756371 
L 355.143259 298.719242 
L 355.549084 298.719242 
L 355.954894 270.793954 
L 355.954894 298.719242 
L 356.360719 284.756371 
L 356.360719 298.719242 
L 356.766544 270.793954 
L 356.766544 284.756371 
L 357.172354 270.793954 
L 357.172354 326.644239 
L 357.983989 298.719242 
L 357.983989 312.681789 
L 357.983989 298.719242 
L 358.795624 256.831212 
L 359.201449 270.793954 
L 359.201449 284.756371 
L 360.013084 312.681789 
L 360.013084 256.831212 
L 360.824719 284.756371 
L 362.447989 270.793954 
L 362.447989 312.681789 
L 362.447989 312.681789 
L 362.853814 270.793954 
L 362.853814 298.719242 
L 363.259623 270.793954 
L 363.259623 256.831212 
L 363.665448 270.793954 
L 363.665448 284.756371 
L 363.665448 242.86847 
L 363.665448 256.831212 
L 364.071258 270.793954 
L 364.071258 284.756371 
L 364.477083 270.793954 
L 364.882893 284.756371 
L 364.882893 312.681789 
L 365.694543 284.756371 
L 366.100353 326.644239 
L 366.100353 256.831212 
L 367.317813 312.681789 
L 368.129448 326.644239 
L 368.129448 270.793954 
L 368.941083 270.793954 
L 369.752718 256.831212 
L 369.752718 298.719242 
L 369.752718 298.719242 
L 370.564353 242.86847 
L 370.970178 242.86847 
L 371.375988 256.831212 
L 371.375988 284.756371 
L 371.375988 256.831212 
L 371.781813 284.756371 
L 371.781813 270.793954 
L 371.781813 312.681789 
L 372.593448 284.756371 
L 372.593448 298.719242 
L 372.999258 284.756371 
L 372.999258 270.793954 
L 373.810893 270.793954 
L 373.810893 312.681789 
L 373.810893 256.831212 
L 373.810893 284.756371 
L 374.216718 242.86847 
L 374.216718 270.793954 
L 375.434178 284.756371 
L 375.434178 298.719242 
L 375.434178 242.86847 
L 375.434178 256.831212 
L 375.839988 270.793954 
L 376.245813 256.831212 
L 376.651623 256.831212 
L 377.463258 270.793954 
L 377.463258 312.681789 
L 378.680718 228.905956 
L 378.680718 284.756371 
L 379.492353 298.719242 
L 380.303988 256.831212 
L 381.115623 312.681789 
L 381.115623 256.831212 
L 381.927258 270.793954 
L 382.333083 270.793954 
L 382.333083 298.719242 
L 383.144718 270.793954 
L 383.550543 228.905956 
L 383.956353 298.719242 
L 384.767988 284.756371 
L 385.173813 270.793954 
L 385.173813 228.905956 
L 385.173813 284.756371 
L 385.579622 284.756371 
L 385.985447 298.719242 
L 385.985447 270.793954 
L 385.985447 298.719242 
L 386.391257 256.831212 
L 386.391257 270.793954 
L 387.202892 242.86847 
L 387.202892 284.756371 
L 388.014542 256.831212 
L 388.420352 270.793954 
L 388.826177 256.831212 
L 389.231987 270.793954 
L 389.231987 228.905956 
L 389.637812 242.86847 
L 390.043622 340.606948 
L 390.043622 284.756371 
L 390.449447 256.831212 
L 390.449447 298.719242 
L 390.449447 256.831212 
L 390.855257 298.719242 
L 390.855257 270.793954 
L 391.261082 298.719242 
L 391.666892 270.793954 
L 391.666892 284.756371 
L 391.666892 256.831212 
L 391.666892 270.793954 
L 392.072717 256.831212 
L 392.072717 284.756371 
L 393.290162 284.756371 
L 393.290162 284.756371 
L 393.290162 256.831212 
L 393.695987 256.831212 
L 393.695987 242.86847 
L 393.695987 256.831212 
L 394.507637 256.831212 
L 394.507637 298.719242 
L 394.913432 284.756371 
L 394.913432 284.756371 
L 395.319257 298.719242 
L 396.942527 270.793954 
L 397.348352 256.831212 
L 397.754177 284.756371 
L 397.754177 242.86847 
L 398.565797 270.793954 
L 398.565797 284.756371 
L 398.971622 312.681789 
L 398.971622 270.793954 
L 399.377447 270.793954 
L 399.377447 298.719242 
L 399.783272 298.719242 
L 400.189067 270.793954 
L 400.594892 312.681789 
L 401.000717 256.831212 
L 401.406542 298.719242 
L 402.218162 228.905956 
L 402.218162 256.831212 
L 402.623987 326.644239 
L 402.623987 298.719242 
L 403.029812 270.793954 
L 403.029812 270.793954 
L 403.029812 242.86847 
L 403.435637 270.793954 
L 403.435637 298.719242 
L 403.435637 270.793954 
L 403.841432 214.943051 
L 403.841432 270.793954 
L 404.247257 242.86847 
L 404.653082 242.86847 
L 404.653082 284.756371 
L 405.058907 270.793954 
L 405.058907 298.719242 
L 405.464732 284.756371 
L 406.682177 270.793954 
L 406.682177 326.644239 
L 407.493796 242.86847 
L 407.899621 270.793954 
L 408.711272 228.905956 
L 409.117066 270.793954 
L 409.522891 228.905956 
L 409.522891 284.756371 
L 409.928716 298.719242 
L 409.928716 256.831212 
L 409.928716 298.719242 
L 410.740366 270.793954 
L 411.146161 228.905956 
L 411.551986 298.719242 
L 411.957811 270.793954 
L 411.957811 298.719242 
L 411.957811 256.831212 
L 412.363636 284.756371 
L 412.363636 228.905956 
L 412.363636 284.756371 
L 412.769431 298.719242 
L 412.769431 270.793954 
L 413.175256 284.756371 
L 413.581081 312.681789 
L 413.986906 256.831212 
L 414.392731 270.793954 
L 415.204351 242.86847 
L 415.610176 214.943051 
L 415.610176 270.793954 
L 416.016001 256.831212 
L 417.233446 242.86847 
L 417.233446 256.831212 
L 417.639271 228.905956 
L 418.450891 228.905956 
L 418.450891 284.756371 
L 418.450891 270.793954 
L 419.262541 242.86847 
L 419.262541 270.793954 
L 419.262541 270.793954 
L 419.668366 312.681789 
L 420.074161 270.793954 
L 420.479986 200.980505 
L 420.479986 256.831212 
L 420.885811 284.756371 
L 421.291636 284.756371 
L 421.697431 270.793954 
L 422.103256 242.86847 
L 422.509081 270.793954 
L 422.509081 214.943051 
L 423.320731 256.831212 
L 423.320731 228.905956 
L 424.132351 284.756371 
L 424.132351 242.86847 
L 424.538176 242.86847 
L 424.538176 284.756371 
L 425.349796 256.831212 
L 425.349796 312.681789 
L 426.161446 298.719242 
L 426.161446 228.905956 
L 426.567271 256.831212 
L 426.973066 256.831212 
L 426.973066 270.793954 
L 427.378891 242.86847 
L 427.378891 214.943051 
L 427.378891 242.86847 
L 428.190541 242.86847 
L 428.596366 228.905956 
L 428.596366 270.793954 
L 429.00216 256.831212 
L 429.407985 228.905956 
L 429.407985 214.943051 
L 429.813811 242.86847 
L 430.62543 284.756371 
L 430.62543 298.719242 
L 430.62543 256.831212 
L 431.031255 256.831212 
L 431.031255 214.943051 
L 431.43708 270.793954 
L 431.43708 270.793954 
L 431.842905 270.793954 
L 432.24873 284.756371 
L 432.24873 312.681789 
L 432.24873 242.86847 
L 432.654525 256.831212 
L 432.654525 228.905956 
L 433.466175 228.905956 
L 433.466175 312.681789 
L 433.872 256.831212 
L 434.277795 256.831212 
L 434.68362 242.86847 
L 435.49527 284.756371 
L 436.30689 256.831212 
L 437.11854 242.86847 
L 437.11854 256.831212 
L 437.524365 256.831212 
L 437.524365 270.793954 
L 437.524365 256.831212 
L 437.93016 256.831212 
L 438.335985 242.86847 
L 438.335985 228.905956 
L 438.74181 200.980505 
L 439.147635 214.943051 
L 439.55343 270.793954 
L 439.55343 200.980505 
L 439.959255 270.793954 
L 439.959255 270.793954 
L 440.36508 228.905956 
L 441.98835 284.756371 
L 442.394175 284.756371 
L 442.394175 242.86847 
L 442.8 214.943051 
L 442.8 256.831212 
L 443.205795 242.86847 
L 443.205795 298.719242 
L 444.829065 256.831212 
L 445.23489 256.831212 
L 445.640715 284.756371 
L 446.452365 256.831212 
L 446.452365 284.756371 
L 447.263985 228.905956 
L 447.66981 284.756371 
L 448.887255 284.756371 
L 449.29308 242.86847 
L 449.29308 242.86847 
L 449.698905 270.793954 
L 449.698905 242.86847 
L 450.10473 256.831212 
L 450.510524 228.905956 
L 450.91635 256.831212 
L 450.91635 228.905956 
L 451.322175 242.86847 
L 451.322175 242.86847 
L 451.728 228.905956 
L 451.728 228.905956 
L 452.133794 242.86847 
L 452.539619 228.905956 
L 452.539619 187.017958 
L 452.945444 270.793954 
L 452.945444 270.793954 
L 453.35127 228.905956 
L 453.757064 228.905956 
L 454.162889 312.681789 
L 454.162889 214.943051 
L 454.568714 200.980505 
L 454.568714 242.86847 
L 454.568714 242.86847 
L 455.786159 228.905956 
L 455.786159 256.831212 
L 455.786159 214.943051 
L 455.786159 242.86847 
L 456.597809 228.905956 
L 457.409429 284.756371 
L 457.409429 242.86847 
L 457.815254 270.793954 
L 457.815254 242.86847 
L 457.815254 256.831212 
L 458.221079 256.831212 
L 458.221079 298.719242 
L 458.626904 214.943051 
L 458.626904 256.831212 
L 459.032729 214.943051 
L 459.844349 242.86847 
L 460.250174 200.980505 
L 461.061794 256.831212 
L 461.467619 214.943051 
L 461.873444 256.831212 
L 461.873444 228.905956 
L 461.873444 270.793954 
L 462.279269 242.86847 
L 462.685064 284.756371 
L 462.685064 270.793954 
L 463.090889 242.86847 
L 463.090889 214.943051 
L 463.090889 242.86847 
L 463.496714 214.943051 
L 463.496714 214.943051 
L 463.496714 284.756371 
L 463.902539 242.86847 
L 463.902539 256.831212 
L 463.902539 214.943051 
L 465.119984 228.905956 
L 465.931634 228.905956 
L 465.931634 270.793954 
L 466.337429 242.86847 
L 466.337429 214.943051 
L 466.743254 242.86847 
L 466.743254 214.943051 
L 467.149079 200.980505 
L 467.554904 256.831212 
L 467.960729 284.756371 
L 467.960729 214.943051 
L 467.960729 270.793954 
L 468.772349 214.943051 
L 468.772349 242.86847 
L 469.583999 256.831212 
L 469.583999 228.905956 
L 470.395619 270.793954 
L 470.395619 200.980505 
L 470.801444 242.86847 
L 470.801444 228.905956 
L 471.613063 214.943051 
L 471.613063 298.719242 
L 471.613063 214.943051 
L 472.018889 228.905956 
L 472.018889 242.86847 
L 472.018889 228.905956 
L 472.424714 284.756371 
L 472.424714 214.943051 
L 473.642158 214.943051 
L 473.642158 256.831212 
L 474.047983 200.980505 
L 474.859634 200.980505 
L 474.859634 242.86847 
L 475.671253 242.86847 
L 476.888728 256.831212 
L 477.294523 228.905956 
L 477.700348 214.943051 
L 478.106173 228.905956 
L 478.511998 256.831212 
L 478.511998 256.831212 
L 478.511998 228.905956 
L 479.323618 270.793954 
L 479.323618 256.831212 
L 480.135268 228.905956 
L 480.135268 256.831212 
L 480.946888 200.980505 
L 480.946888 228.905956 
L 481.352713 256.831212 
L 481.758538 270.793954 
L 481.758538 228.905956 
L 482.164363 228.905956 
L 482.164363 228.905956 
L 482.164363 270.793954 
L 482.570158 242.86847 
L 482.570158 214.943051 
L 482.570158 242.86847 
L 483.381808 284.756371 
L 483.381808 228.905956 
L 483.381808 228.905956 
L 483.787633 228.905956 
L 483.787633 228.905956 
L 483.787633 200.980505 
L 484.599253 228.905956 
L 485.005078 228.905956 
L 485.005078 270.793954 
L 485.410903 214.943051 
L 485.410903 256.831212 
L 485.410903 228.905956 
L 486.222523 200.980505 
L 486.222523 284.756371 
L 486.628348 214.943051 
L 486.628348 256.831212 
L 486.628348 187.017958 
L 487.034173 187.017958 
L 487.439998 228.905956 
L 487.439998 270.793954 
L 488.251618 214.943051 
L 488.657443 256.831212 
L 488.657443 284.756371 
L 488.657443 228.905956 
L 489.063268 214.943051 
L 489.063268 256.831212 
L 489.469063 256.831212 
L 489.874888 200.980505 
L 489.874888 242.86847 
L 490.280713 242.86847 
L 491.092363 200.980505 
L 491.092363 256.831212 
L 491.498158 256.831212 
L 491.498158 270.793954 
L 491.903983 214.943051 
L 492.309808 200.980505 
L 492.309808 270.793954 
L 493.121428 214.943051 
L 493.527253 228.905956 
L 493.527253 214.943051 
L 494.338903 228.905956 
L 494.744728 284.756371 
L 495.150522 270.793954 
L 495.962173 284.756371 
L 496.367998 242.86847 
L 496.367998 214.943051 
L 496.367998 270.793954 
L 496.773792 270.793954 
L 497.991267 298.719242 
L 497.991267 242.86847 
L 497.991267 256.831212 
L 498.397062 200.980505 
L 498.802887 256.831212 
L 498.802887 256.831212 
L 499.208712 200.980505 
L 499.614537 256.831212 
L 499.614537 228.905956 
L 500.426157 228.905956 
L 500.426157 256.831212 
L 501.643632 214.943051 
L 501.643632 242.86847 
L 502.455252 270.793954 
L 502.861077 242.86847 
L 502.861077 200.980505 
L 503.266902 270.793954 
L 503.266902 214.943051 
L 503.672727 270.793954 
L 503.672727 256.831212 
L 504.078522 200.980505 
L 504.890172 228.905956 
L 505.295997 256.831212 
L 505.701792 270.793954 
L 505.701792 228.905956 
L 505.701792 256.831212 
L 506.107617 214.943051 
L 506.107617 242.86847 
L 506.513442 256.831212 
L 506.919267 214.943051 
L 506.919267 242.86847 
L 507.325062 242.86847 
L 508.136712 214.943051 
L 508.136712 214.943051 
L 508.948362 284.756371 
L 509.354157 242.86847 
L 509.354157 228.905956 
L 510.571632 228.905956 
L 510.571632 270.793954 
L 510.571632 270.793954 
L 510.977427 298.719242 
L 510.977427 200.980505 
L 511.789077 200.980505 
L 512.194902 242.86847 
L 512.194902 214.943051 
L 513.412347 214.943051 
L 513.412347 228.905956 
L 513.818172 214.943051 
L 513.818172 214.943051 
L 513.818172 242.86847 
L 513.818172 228.905956 
L 514.223997 214.943051 
L 514.223997 284.756371 
L 515.035617 200.980505 
L 515.441442 228.905956 
L 515.441442 214.943051 
L 515.441442 228.905956 
L 515.847267 228.905956 
L 515.847267 214.943051 
L 515.847267 270.793954 
L 516.253061 242.86847 
L 517.064712 256.831212 
L 517.064712 214.943051 
L 517.876362 242.86847 
L 519.093806 298.719242 
L 519.093806 214.943051 
L 519.093806 228.905956 
L 519.499632 256.831212 
L 520.717076 214.943051 
L 520.717076 256.831212 
L 521.528726 214.943051 
L 521.934521 256.831212 
L 521.934521 200.980505 
L 522.340346 256.831212 
L 522.340346 228.905956 
L 522.340346 242.86847 
L 523.151996 228.905956 
L 523.151996 214.943051 
L 523.557791 228.905956 
L 523.963616 228.905956 
L 523.963616 228.905956 
L 524.775266 242.86847 
L 525.181061 256.831212 
L 525.586886 228.905956 
L 525.992711 228.905956 
L 525.992711 200.980505 
L 525.992711 256.831212 
L 525.992711 228.905956 
L 527.210156 256.831212 
L 527.210156 242.86847 
L 527.615981 214.943051 
L 527.615981 187.017958 
L 529.645076 256.831212 
L 530.050901 214.943051 
L 530.050901 242.86847 
L 530.862521 214.943051 
L 530.862521 228.905956 
L 532.485791 187.017958 
L 532.485791 228.905956 
L 533.297441 228.905956 
L 533.297441 214.943051 
L 533.703266 242.86847 
L 533.703266 187.017958 
L 534.514886 242.86847 
L 534.514886 214.943051 
L 535.326536 298.719242 
L 535.732361 187.017958 
L 535.732361 214.943051 
L 535.732361 270.793954 
L 536.138156 187.017958 
L 538.167251 256.831212 
L 538.573076 214.943051 
L 538.573076 173.055606 
L 539.384726 214.943051 
L 539.79052 242.86847 
L 540.196345 256.831212 
L 540.196345 256.831212 
L 540.196345 173.055606 
L 540.602171 214.943051 
L 540.602171 228.905956 
L 541.007996 214.943051 
L 541.41379 256.831212 
L 541.41379 214.943051 
L 542.22544 228.905956 
L 542.22544 214.943051 
L 543.442885 256.831212 
L 543.442885 187.017958 
L 543.442885 228.905956 
L 543.84871 214.943051 
L 544.66036 228.905956 
L 544.66036 187.017958 
L 544.66036 214.943051 
L 545.066155 214.943051 
L 545.47198 228.905956 
L 545.47198 228.905956 
L 545.47198 187.017958 
L 546.28363 228.905956 
L 546.28363 242.86847 
L 546.28363 200.980505 
L 546.689425 256.831212 
L 546.689425 242.86847 
L 546.689425 228.905956 
L 547.09525 187.017958 
L 547.09525 200.980505 
L 547.501075 228.905956 
L 547.501075 256.831212 
L 547.501075 214.943051 
L 547.9069 270.793954 
L 548.312725 228.905956 
L 548.71852 214.943051 
L 548.71852 173.055606 
L 549.124345 242.86847 
L 549.53017 228.905956 
L 549.53017 242.86847 
L 549.935995 228.905956 
L 549.935995 214.943051 
L 550.34179 200.980505 
L 550.747615 228.905956 
L 551.15344 200.980505 
L 551.15344 200.980505 
L 551.96506 200.980505 
L 553.182535 187.017958 
L 553.182535 242.86847 
L 553.994155 228.905956 
L 553.994155 214.943051 
L 554.39998 187.017958 
L 554.805805 214.943051 
L 554.805805 187.017958 
L 555.21163 228.905956 
L 556.02325 242.86847 
L 556.02325 200.980505 
L 556.02325 256.831212 
L 556.429075 228.905956 
L 557.240725 228.905956 
L 558.052345 214.943051 
L 558.863995 242.86847 
L 558.863995 242.86847 
L 559.675615 228.905956 
L 559.675615 214.943051 
L 560.08144 173.055606 
L 560.487265 187.017958 
L 560.487265 242.86847 
L 560.487265 228.905956 
L 560.893059 228.905956 
L 560.893059 173.055606 
L 561.70471 228.905956 
L 561.70471 228.905956 
L 562.110535 214.943051 
L 562.110535 242.86847 
L 562.110535 187.017958 
L 562.51636 187.017958 
L 562.51636 242.86847 
L 562.51636 214.943051 
L 563.327979 214.943051 
L 563.327979 214.943051 
L 564.13963 200.980505 
L 564.545424 214.943051 
L 564.545424 214.943051 
L 564.545424 200.980505 
L 564.951249 256.831212 
L 565.357074 228.905956 
L 565.762899 214.943051 
L 565.762899 159.092539 
L 566.168724 228.905956 
L 566.168724 159.092539 
L 566.980344 242.86847 
L 566.980344 228.905956 
L 567.386169 187.017958 
L 567.791994 200.980505 
L 568.603614 200.980505 
L 568.603614 256.831212 
L 569.009439 228.905956 
L 569.009439 173.055606 
L 569.415264 214.943051 
L 569.415264 214.943051 
L 569.821059 200.980505 
L 570.226884 242.86847 
L 571.850154 214.943051 
L 572.255979 214.943051 
L 572.255979 187.017958 
L 572.661804 214.943051 
L 572.661804 214.943051 
L 572.661804 242.86847 
L 572.661804 214.943051 
L 573.067629 228.905956 
L 573.473424 200.980505 
L 573.879249 214.943051 
L 573.879249 173.055606 
L 573.879249 214.943051 
L 574.690899 200.980505 
L 574.690899 200.980505 
L 574.690899 228.905956 
L 575.096724 173.055606 
L 575.502519 187.017958 
L 575.502519 242.86847 
L 575.502519 214.943051 
L 576.314169 159.092539 
L 576.719994 173.055606 
L 576.719994 242.86847 
L 576.719994 173.055606 
L 577.531614 228.905956 
L 577.531614 242.86847 
L 577.937439 187.017958 
L 577.937439 159.092539 
L 577.937439 187.017958 
L 579.154884 200.980505 
L 579.154884 228.905956 
L 579.966534 187.017958 
L 579.966534 242.86847 
L 579.966534 200.980505 
L 580.372359 228.905956 
L 580.372359 173.055606 
L 580.372359 200.980505 
L 581.589804 187.017958 
L 581.589804 200.980505 
L 582.401424 228.905956 
L 582.401424 173.055606 
L 582.807249 228.905956 
L 583.618899 214.943051 
L 583.618899 187.017958 
L 584.024724 214.943051 
L 584.024724 214.943051 
L 584.836343 214.943051 
L 585.647994 200.980505 
L 586.053788 200.980505 
L 586.459613 228.905956 
L 586.865438 145.130187 
L 587.271263 242.86847 
L 587.677058 228.905956 
L 588.894533 214.943051 
L 588.894533 256.831212 
L 589.300358 228.905956 
L 589.300358 228.905956 
L 589.706153 228.905956 
L 589.706153 187.017958 
L 590.111978 187.017958 
L 590.923628 200.980505 
L 590.923628 187.017958 
L 591.329423 214.943051 
L 591.735248 173.055606 
L 591.735248 173.055606 
L 592.141073 228.905956 
L 592.952723 228.905956 
L 592.952723 256.831212 
L 593.764343 228.905956 
L 594.575993 187.017958 
L 594.981788 187.017958 
L 595.387613 200.980505 
L 595.793438 187.017958 
L 595.793438 200.980505 
L 596.199263 200.980505 
L 596.199263 200.980505 
L 596.199263 159.092539 
L 596.199263 200.980505 
L 597.010883 242.86847 
L 597.010883 187.017958 
L 598.228358 187.017958 
L 598.228358 214.943051 
L 598.228358 200.980505 
L 598.634153 173.055606 
L 598.634153 200.980505 
L 599.039978 228.905956 
L 599.039978 228.905956 
L 599.851628 200.980505 
L 600.257423 214.943051 
L 600.257423 200.980505 
L 601.069073 228.905956 
L 601.069073 187.017958 
L 601.474898 200.980505 
L 601.474898 214.943051 
L 601.474898 187.017958 
L 601.474898 187.017958 
L 602.286518 256.831212 
L 602.692343 200.980505 
L 602.692343 200.980505 
L 603.098168 200.980505 
L 603.098168 242.86847 
L 603.098168 159.092539 
L 603.503993 173.055606 
L 603.503993 173.055606 
L 603.503993 187.017958 
L 603.909788 173.055606 
L 603.909788 214.943051 
L 604.721438 187.017958 
L 604.721438 173.055606 
L 604.721438 173.055606 
L 605.533057 173.055606 
L 605.533057 159.092539 
L 606.344708 173.055606 
L 606.344708 173.055606 
L 606.344708 214.943051 
L 607.156358 200.980505 
L 607.562152 228.905956 
L 607.562152 242.86847 
L 607.967977 173.055606 
L 608.373802 159.092539 
L 608.373802 228.905956 
L 608.779627 187.017958 
L 609.185422 214.943051 
L 609.997072 242.86847 
L 610.402897 187.017958 
L 610.402897 270.793954 
L 610.808722 256.831212 
L 611.620342 173.055606 
L 612.026167 214.943051 
L 612.837787 187.017958 
L 613.243612 214.943051 
L 613.649437 200.980505 
L 614.055262 173.055606 
L 614.055262 159.092539 
L 614.461057 159.092539 
L 614.866882 187.017958 
L 614.866882 214.943051 
L 615.678532 159.092539 
L 616.084357 187.017958 
L 616.084357 131.167315 
L 616.490152 214.943051 
L 616.490152 187.017958 
L 616.490152 214.943051 
L 617.707627 159.092539 
L 618.113422 173.055606 
L 618.113422 214.943051 
L 618.519247 214.943051 
L 618.519247 214.943051 
L 618.925072 159.092539 
L 618.925072 214.943051 
L 619.736722 214.943051 
L 620.548342 187.017958 
L 622.171612 187.017958 
L 622.171612 159.092539 
L 622.171612 228.905956 
L 622.577437 214.943051 
L 622.577437 173.055606 
L 623.389057 228.905956 
L 623.389057 173.055606 
L 623.389057 173.055606 
L 623.794882 187.017958 
L 623.794882 173.055606 
L 623.794882 200.980505 
L 624.200707 131.167315 
L 624.200707 200.980505 
L 624.606532 214.943051 
L 624.606532 173.055606 
L 624.606532 214.943051 
L 625.012357 187.017958 
L 625.823977 214.943051 
L 625.823977 200.980505 
L 626.229802 159.092539 
L 626.635627 228.905956 
L 627.041421 173.055606 
L 627.447247 145.130187 
L 627.447247 145.130187 
L 628.258897 173.055606 
L 629.070516 187.017958 
L 629.476341 242.86847 
L 630.287992 173.055606 
L 631.911261 117.204573 
L 631.911261 242.86847 
L 631.911261 228.905956 
L 632.317056 159.092539 
L 632.317056 200.980505 
L 632.722881 200.980505 
L 633.128706 214.943051 
L 633.128706 173.055606 
L 635.157801 173.055606 
L 635.157801 145.130187 
L 635.563626 103.241962 
L 635.563626 173.055606 
L 635.969421 214.943051 
L 636.375246 117.204573 
L 636.375246 187.017958 
L 636.375246 173.055606 
L 636.781071 200.980505 
L 636.781071 173.055606 
L 637.186896 159.092539 
L 637.592721 173.055606 
L 637.592721 200.980505 
L 637.998516 117.204573 
L 638.404341 214.943051 
L 638.810166 187.017958 
L 638.810166 173.055606 
L 638.810166 228.905956 
L 639.215991 228.905956 
L 639.621786 187.017958 
L 640.027611 200.980505 
L 640.027611 173.055606 
L 640.433436 200.980505 
L 640.433436 159.092539 
L 640.839261 145.130187 
L 640.839261 159.092539 
L 641.245056 200.980505 
L 641.650881 187.017958 
L 641.650881 173.055606 
L 641.650881 173.055606 
L 642.056706 173.055606 
L 642.462531 214.943051 
L 642.462531 214.943051 
L 642.868356 159.092539 
L 643.274151 187.017958 
L 643.274151 228.905956 
L 644.085801 159.092539 
L 644.491626 145.130187 
L 644.897421 200.980505 
L 644.897421 173.055606 
L 644.897421 187.017958 
L 645.303246 200.980505 
L 645.303246 200.980505 
L 645.709071 159.092539 
L 646.114896 187.017958 
L 646.520721 200.980505 
L 647.332371 173.055606 
L 647.738135 200.980505 
L 647.738135 159.092539 
L 647.738135 200.980505 
L 648.14396 159.092539 
L 648.549786 159.092539 
L 648.549786 242.86847 
L 648.549786 159.092539 
L 648.955611 187.017958 
L 649.361436 200.980505 
L 650.173086 187.017958 
L 651.3905 187.017958 
L 651.3905 256.831212 
L 651.796325 187.017958 
L 651.796325 200.980505 
L 651.796325 214.943051 
L 652.607975 145.130187 
L 652.607975 256.831212 
L 653.0138 200.980505 
L 653.825451 173.055606 
L 654.637101 187.017958 
L 655.042865 214.943051 
L 655.042865 187.017958 
L 655.042865 214.943051 
L 655.44869 187.017958 
L 655.44869 159.092539 
L 655.854515 200.980505 
L 655.854515 173.055606 
L 655.854515 173.055606 
L 657.07199 173.055606 
L 657.07199 159.092539 
L 657.88364 145.130187 
L 657.88364 145.130187 
L 658.289405 214.943051 
L 658.69523 187.017958 
L 659.50688 200.980505 
L 659.912705 159.092539 
L 660.31853 131.167315 
L 660.31853 131.167315 
L 660.724355 173.055606 
L 660.724355 173.055606 
L 660.724355 200.980505 
L 660.724355 145.130187 
L 661.13018 159.092539 
L 661.13018 173.055606 
L 661.94177 173.055606 
L 661.94177 214.943051 
L 662.75342 145.130187 
L 663.56507 173.055606 
L 663.970895 228.905956 
L 663.970895 187.017958 
L 664.37672 200.980505 
L 664.782545 173.055606 
L 665.18837 173.055606 
L 665.594135 187.017958 
L 666.405785 131.167315 
L 666.405785 228.905956 
L 666.81161 159.092539 
L 666.81161 187.017958 
L 667.217435 200.980505 
L 667.62326 159.092539 
L 668.029085 200.980505 
L 668.840735 200.980505 
L 669.246499 187.017958 
L 670.05815 187.017958 
L 670.463975 228.905956 
L 670.463975 173.055606 
L 671.275625 200.980505 
L 671.275625 145.130187 
L 671.68145 214.943051 
L 672.087275 173.055606 
L 672.087275 145.130187 
L 672.898864 200.980505 
L 673.304689 159.092539 
L 673.304689 200.980505 
L 673.304689 173.055606 
L 673.710514 159.092539 
L 673.710514 173.055606 
L 674.116339 159.092539 
L 674.92799 145.130187 
L 674.92799 173.055606 
L 674.92799 173.055606 
L 675.333815 187.017958 
L 675.333815 145.130187 
L 675.73964 187.017958 
L 676.145404 173.055606 
L 676.145404 145.130187 
L 676.551229 187.017958 
L 676.551229 242.86847 
L 677.362879 228.905956 
L 677.768704 214.943051 
L 678.174529 131.167315 
L 679.797769 200.980505 
L 679.797769 200.980505 
L 680.203594 173.055606 
L 680.203594 145.130187 
L 680.609419 228.905956 
L 680.609419 214.943051 
L 681.015244 187.017958 
L 681.421069 187.017958 
L 681.421069 159.092539 
L 682.638544 159.092539 
L 683.044369 187.017958 
L 683.044369 173.055606 
L 683.450134 145.130187 
L 683.450134 145.130187 
L 683.855959 187.017958 
L 683.855959 159.092539 
L 683.855959 187.017958 
L 684.261784 159.092539 
L 684.261784 145.130187 
L 684.261784 159.092539 
L 684.667609 187.017958 
L 684.667609 159.092539 
L 684.667609 214.943051 
L 685.073434 145.130187 
L 685.885084 200.980505 
L 685.885084 200.980505 
L 686.290909 200.980505 
L 687.102499 187.017958 
L 687.508324 173.055606 
L 687.508324 145.130187 
L 687.914149 145.130187 
L 687.914149 159.092539 
L 688.725799 200.980505 
L 688.725799 145.130187 
L 689.131624 173.055606 
L 689.537449 159.092539 
L 690.754864 159.092539 
L 691.160689 173.055606 
L 691.160689 159.092539 
L 691.566514 173.055606 
L 691.972339 200.980505 
L 691.972339 173.055606 
L 692.378164 159.092539 
L 692.378164 131.167315 
L 692.783989 131.167315 
L 692.783989 187.017958 
L 692.783989 187.017958 
L 693.189814 159.092539 
L 693.189814 187.017958 
L 693.189814 145.130187 
L 693.595639 159.092539 
L 693.595639 187.017958 
L 694.407228 159.092539 
L 694.813053 131.167315 
L 694.813053 173.055606 
L 694.813053 173.055606 
L 695.218878 173.055606 
L 695.624703 187.017958 
L 695.624703 159.092539 
L 696.436354 89.28 
L 696.842179 173.055606 
L 697.248004 159.092539 
L 698.059593 159.092539 
L 698.465418 187.017958 
L 698.465418 159.092539 
L 698.871243 131.167315 
L 699.277068 145.130187 
L 699.682893 173.055606 
L 699.682893 145.130187 
L 700.088718 145.130187 
L 700.088718 117.204573 
L 701.306133 159.092539 
L 701.306133 159.092539 
L 701.711958 159.092539 
L 701.711958 187.017958 
L 702.117783 159.092539 
L 702.929433 214.943051 
L 702.929433 173.055606 
L 703.335258 214.943051 
L 703.335258 173.055606 
L 703.741083 145.130187 
L 704.146908 214.943051 
L 704.146908 145.130187 
L 705.364323 103.241962 
L 705.770148 173.055606 
L 706.175973 131.167315 
L 706.581798 117.204573 
L 706.987623 145.130187 
L 706.987623 159.092539 
L 707.393448 145.130187 
L 709.828338 131.167315 
L 710.234163 187.017958 
L 710.234163 117.204573 
L 710.639988 145.130187 
L 710.639988 187.017958 
L 711.045813 117.204573 
L 711.045813 117.204573 
L 711.045813 145.130187 
L 711.857403 173.055606 
L 712.263228 159.092539 
L 713.480703 173.055606 
L 713.886528 159.092539 
L 714.292353 159.092539 
L 715.104003 131.167315 
L 715.915592 145.130187 
L 715.915592 173.055606 
L 715.915592 145.130187 
L 716.321417 200.980505 
L 717.538893 173.055606 
L 717.538893 145.130187 
L 717.944718 117.204573 
L 717.944718 131.167315 
L 719.162132 145.130187 
L 719.162132 200.980505 
L 719.973782 117.204573 
L 720.379607 145.130187 
L 720.379607 131.167315 
L 720.785432 159.092539 
L 721.191257 117.204573 
L 721.191257 103.241962 
L 722.408733 145.130187 
L 722.408733 159.092539 
L 723.220322 200.980505 
L 723.220322 131.167315 
L 723.626147 159.092539 
L 724.031972 159.092539 
L 724.437797 173.055606 
L 724.437797 131.167315 
L 724.843622 187.017958 
L 725.249447 131.167315 
L 725.249447 131.167315 
L 726.061097 173.055606 
L 726.872687 159.092539 
L 726.872687 145.130187 
L 727.684337 145.130187 
L 728.090162 187.017958 
L 728.901812 145.130187 
L 729.307637 145.130187 
L 729.307637 159.092539 
L 729.713402 145.130187 
L 729.713402 173.055606 
L 730.119227 187.017958 
L 730.119227 103.241962 
L 730.525052 131.167315 
L 730.930877 103.241962 
L 730.930877 117.204573 
L 731.336702 103.241962 
L 731.742527 159.092539 
L 732.148352 145.130187 
L 732.148352 131.167315 
L 732.148352 200.980505 
L 732.554177 173.055606 
L 732.960002 173.055606 
L 733.365767 200.980505 
L 734.177417 159.092539 
L 734.177417 187.017958 
L 734.177417 145.130187 
L 734.583242 131.167315 
L 735.800717 187.017958 
L 737.018131 187.017958 
L 737.829781 159.092539 
L 737.829781 117.204573 
L 738.235607 131.167315 
L 738.235607 145.130187 
L 739.047257 159.092539 
L 739.047257 159.092539 
L 739.453082 173.055606 
L 740.264732 131.167315 
L 741.076321 159.092539 
L 741.482146 145.130187 
L 741.482146 173.055606 
L 741.887971 159.092539 
L 741.887971 187.017958 
L 741.887971 159.092539 
L 742.293796 145.130187 
L 742.699621 173.055606 
L 742.699621 131.167315 
L 743.105446 200.980505 
L 743.917097 159.092539 
L 744.322861 131.167315 
L 745.134511 173.055606 
L 745.134511 145.130187 
L 745.540336 145.130187 
L 745.540336 145.130187 
L 745.946161 131.167315 
L 746.351986 103.241962 
L 746.351986 117.204573 
L 746.757811 145.130187 
L 747.163636 159.092539 
L 747.163636 159.092539 
" clip-path="url(#pa7f92587c5)" style="fill: none; stroke: #1f77b4; stroke-width: 2; stroke-linecap: square"/>
   </g>
   <g id="line2d_32">
    <path d="M 138.436364 492.48 
L 187.134544 482.402639 
L 226.498907 473.986048 
L 226.498907 473.986048 
L 265.457453 465.412144 
L 265.457453 465.412144 
L 304.010181 456.680083 
L 304.010181 456.680083 
L 342.562894 447.695196 
L 342.562894 447.695196 
L 375.434178 439.830223 
L 375.434178 439.830223 
L 416.016001 429.852015 
L 449.698905 421.341017 
L 449.698905 421.341017 
L 483.381808 412.615815 
L 483.381808 412.615815 
L 525.992711 401.261846 
L 525.992711 401.261846 
L 561.298884 391.580806 
L 596.199263 381.760106 
L 596.199263 381.760106 
L 630.287992 371.921168 
L 664.782545 361.711104 
L 698.465418 351.488134 
L 698.465418 351.488134 
L 734.583242 340.241023 
L 747.163636 336.253368 
L 747.163636 336.253368 
" clip-path="url(#pa7f92587c5)" style="fill: none; stroke: #ff7f0e; stroke-width: 2; stroke-linecap: square"/>
   </g>
   <g id="patch_3">
    <path d="M 108 512.64 
L 108 69.12 
" style="fill: none; stroke: #000000; stroke-width: 0.8; stroke-linejoin: miter; stroke-linecap: square"/>
   </g>
   <g id="patch_4">
    <path d="M 777.6 512.64 
L 777.6 69.12 
" style="fill: none; stroke: #000000; stroke-width: 0.8; stroke-linejoin: miter; stroke-linecap: square"/>
   </g>
   <g id="patch_5">
    <path d="M 108 512.64 
L 777.6 512.64 
" style="fill: none; stroke: #000000; stroke-width: 0.8; stroke-linejoin: miter; stroke-linecap: square"/>
   </g>
   <g id="patch_6">
    <path d="M 108 69.12 
L 777.6 69.12 
" style="fill: none; stroke: #000000; stroke-width: 0.8; stroke-linejoin: miter; stroke-linecap: square"/>
   </g>
   <g id="text_18">
    <!-- Price by Risk-free rate. Moneyness=0.9 -->
    <g transform="translate(245.539062 63.12) scale(0.2 -0.2)">
     <defs>
      <path id="DejaVuSans-62" d="M 3116 1747 
Q 3116 2381 2855 2742 
Q 2594 3103 2138 3103 
Q 1681 3103 1420 2742 
Q 1159 2381 1159 1747 
Q 1159 1113 1420 752 
Q 1681 391 2138 391 
Q 2594 391 2855 752 
Q 3116 1113 3116 1747 
z
M 1159 2969 
Q 1341 3281 1617 3432 
Q 1894 3584 2278 3584 
Q 2916 3584 3314 3078 
Q 3713 2572 3713 1747 
Q 3713 922 3314 415 
Q 2916 -91 2278 -91 
Q 1894 -91 1617 61 
Q 1341 213 1159 525 
L 1159 0 
L 581 0 
L 581 4863 
L 1159 4863 
L 1159 2969 
z
" transform="scale(0.015625)"/>
      <path id="DejaVuSans-79" d="M 2059 -325 
Q 1816 -950 1584 -1140 
Q 1353 -1331 966 -1331 
L 506 -1331 
L 506 -850 
L 844 -850 
Q 1081 -850 1212 -737 
Q 1344 -625 1503 -206 
L 1606 56 
L 191 3500 
L 800 3500 
L 1894 763 
L 2988 3500 
L 3597 3500 
L 2059 -325 
z
" transform="scale(0.015625)"/>
      <path id="DejaVuSans-4d" d="M 628 4666 
L 1569 4666 
L 2759 1491 
L 3956 4666 
L 4897 4666 
L 4897 0 
L 4281 0 
L 4281 4097 
L 3078 897 
L 2444 897 
L 1241 4097 
L 1241 0 
L 628 0 
L 628 4666 
z
" transform="scale(0.015625)"/>
      <path id="DejaVuSans-6e" d="M 3513 2113 
L 3513 0 
L 2938 0 
L 2938 2094 
Q 2938 2591 2744 2837 
Q 2550 3084 2163 3084 
Q 1697 3084 1428 2787 
Q 1159 2491 1159 1978 
L 1159 0 
L 581 0 
L 581 3500 
L 1159 3500 
L 1159 2956 
Q 1366 3272 1645 3428 
Q 1925 3584 2291 3584 
Q 2894 3584 3203 3211 
Q 3513 2838 3513 2113 
z
" transform="scale(0.015625)"/>
      <path id="DejaVuSans-3d" d="M 678 2906 
L 4684 2906 
L 4684 2381 
L 678 2381 
L 678 2906 
z
M 678 1631 
L 4684 1631 
L 4684 1100 
L 678 1100 
L 678 1631 
z
" transform="scale(0.015625)"/>
      <path id="DejaVuSans-39" d="M 703 97 
L 703 672 
Q 941 559 1184 500 
Q 1428 441 1663 441 
Q 2288 441 2617 861 
Q 2947 1281 2994 2138 
Q 2813 1869 2534 1725 
Q 2256 1581 1919 1581 
Q 1219 1581 811 2004 
Q 403 2428 403 3163 
Q 403 3881 828 4315 
Q 1253 4750 1959 4750 
Q 2769 4750 3195 4129 
Q 3622 3509 3622 2328 
Q 3622 1225 3098 567 
Q 2575 -91 1691 -91 
Q 1453 -91 1209 -44 
Q 966 3 703 97 
z
M 1959 2075 
Q 2384 2075 2632 2365 
Q 2881 2656 2881 3163 
Q 2881 3666 2632 3958 
Q 2384 4250 1959 4250 
Q 1534 4250 1286 3958 
Q 1038 3666 1038 3163 
Q 1038 2656 1286 2365 
Q 1534 2075 1959 2075 
z
" transform="scale(0.015625)"/>
     </defs>
     <use xlink:href="#DejaVuSans-50"/>
     <use xlink:href="#DejaVuSans-72" x="58.552734"/>
     <use xlink:href="#DejaVuSans-69" x="99.666016"/>
     <use xlink:href="#DejaVuSans-63" x="127.449219"/>
     <use xlink:href="#DejaVuSans-65" x="182.429688"/>
     <use xlink:href="#DejaVuSans-20" x="243.953125"/>
     <use xlink:href="#DejaVuSans-62" x="275.740234"/>
     <use xlink:href="#DejaVuSans-79" x="339.216797"/>
     <use xlink:href="#DejaVuSans-20" x="398.396484"/>
     <use xlink:href="#DejaVuSans-52" x="430.183594"/>
     <use xlink:href="#DejaVuSans-69" x="499.666016"/>
     <use xlink:href="#DejaVuSans-73" x="527.449219"/>
     <use xlink:href="#DejaVuSans-6b" x="579.548828"/>
     <use xlink:href="#DejaVuSans-2d" x="637.458984"/>
     <use xlink:href="#DejaVuSans-66" x="673.542969"/>
     <use xlink:href="#DejaVuSans-72" x="708.748047"/>
     <use xlink:href="#DejaVuSans-65" x="747.611328"/>
     <use xlink:href="#DejaVuSans-65" x="809.134766"/>
     <use xlink:href="#DejaVuSans-20" x="870.658203"/>
     <use xlink:href="#DejaVuSans-72" x="902.445312"/>
     <use xlink:href="#DejaVuSans-61" x="943.558594"/>
     <use xlink:href="#DejaVuSans-74" x="1004.837891"/>
     <use xlink:href="#DejaVuSans-65" x="1044.046875"/>
     <use xlink:href="#DejaVuSans-2e" x="1105.570312"/>
     <use xlink:href="#DejaVuSans-20" x="1137.357422"/>
     <use xlink:href="#DejaVuSans-4d" x="1169.144531"/>
     <use xlink:href="#DejaVuSans-6f" x="1255.423828"/>
     <use xlink:href="#DejaVuSans-6e" x="1316.605469"/>
     <use xlink:href="#DejaVuSans-65" x="1379.984375"/>
     <use xlink:href="#DejaVuSans-79" x="1441.507812"/>
     <use xlink:href="#DejaVuSans-6e" x="1500.6875"/>
     <use xlink:href="#DejaVuSans-65" x="1564.066406"/>
     <use xlink:href="#DejaVuSans-73" x="1625.589844"/>
     <use xlink:href="#DejaVuSans-73" x="1677.689453"/>
     <use xlink:href="#DejaVuSans-3d" x="1729.789062"/>
     <use xlink:href="#DejaVuSans-30" x="1813.578125"/>
     <use xlink:href="#DejaVuSans-2e" x="1877.201172"/>
     <use xlink:href="#DejaVuSans-39" x="1908.988281"/>
    </g>
   </g>
   <g id="legend_1">
    <g id="patch_7">
     <path d="M 120.6 136.36125 
L 287.018437 136.36125 
Q 290.618437 136.36125 290.618437 132.76125 
L 290.618437 81.72 
Q 290.618437 78.12 287.018437 78.12 
L 120.6 78.12 
Q 117 78.12 117 81.72 
L 117 132.76125 
Q 117 136.36125 120.6 136.36125 
z
" style="fill: #ffffff; opacity: 0.8; stroke: #cccccc; stroke-linejoin: miter"/>
    </g>
    <g id="line2d_33">
     <path d="M 124.2 92.697188 
L 142.2 92.697188 
L 160.2 92.697188 
" style="fill: none; stroke: #1f77b4; stroke-width: 2; stroke-linecap: square"/>
    </g>
    <g id="text_19">
     <!-- Monte Carlo -->
     <g transform="translate(174.6 98.997188) scale(0.18 -0.18)">
      <defs>
       <path id="DejaVuSans-43" d="M 4122 4306 
L 4122 3641 
Q 3803 3938 3442 4084 
Q 3081 4231 2675 4231 
Q 1875 4231 1450 3742 
Q 1025 3253 1025 2328 
Q 1025 1406 1450 917 
Q 1875 428 2675 428 
Q 3081 428 3442 575 
Q 3803 722 4122 1019 
L 4122 359 
Q 3791 134 3420 21 
Q 3050 -91 2638 -91 
Q 1578 -91 968 557 
Q 359 1206 359 2328 
Q 359 3453 968 4101 
Q 1578 4750 2638 4750 
Q 3056 4750 3426 4639 
Q 3797 4528 4122 4306 
z
" transform="scale(0.015625)"/>
       <path id="DejaVuSans-6c" d="M 603 4863 
L 1178 4863 
L 1178 0 
L 603 0 
L 603 4863 
z
" transform="scale(0.015625)"/>
      </defs>
      <use xlink:href="#DejaVuSans-4d"/>
      <use xlink:href="#DejaVuSans-6f" x="86.279297"/>
      <use xlink:href="#DejaVuSans-6e" x="147.460938"/>
      <use xlink:href="#DejaVuSans-74" x="210.839844"/>
      <use xlink:href="#DejaVuSans-65" x="250.048828"/>
      <use xlink:href="#DejaVuSans-20" x="311.572266"/>
      <use xlink:href="#DejaVuSans-43" x="343.359375"/>
      <use xlink:href="#DejaVuSans-61" x="413.183594"/>
      <use xlink:href="#DejaVuSans-72" x="474.462891"/>
      <use xlink:href="#DejaVuSans-6c" x="515.576172"/>
      <use xlink:href="#DejaVuSans-6f" x="543.359375"/>
     </g>
    </g>
    <g id="line2d_34">
     <path d="M 124.2 119.117813 
L 142.2 119.117813 
L 160.2 119.117813 
" style="fill: none; stroke: #ff7f0e; stroke-width: 2; stroke-linecap: square"/>
    </g>
    <g id="text_20">
     <!-- Positive net -->
     <g transform="translate(174.6 125.417813) scale(0.18 -0.18)">
      <defs>
       <path id="DejaVuSans-76" d="M 191 3500 
L 800 3500 
L 1894 563 
L 2988 3500 
L 3597 3500 
L 2284 0 
L 1503 0 
L 191 3500 
z
" transform="scale(0.015625)"/>
      </defs>
      <use xlink:href="#DejaVuSans-50"/>
      <use xlink:href="#DejaVuSans-6f" x="56.677734"/>
      <use xlink:href="#DejaVuSans-73" x="117.859375"/>
      <use xlink:href="#DejaVuSans-69" x="169.958984"/>
      <use xlink:href="#DejaVuSans-74" x="197.742188"/>
      <use xlink:href="#DejaVuSans-69" x="236.951172"/>
      <use xlink:href="#DejaVuSans-76" x="264.734375"/>
      <use xlink:href="#DejaVuSans-65" x="323.914062"/>
      <use xlink:href="#DejaVuSans-20" x="385.4375"/>
      <use xlink:href="#DejaVuSans-6e" x="417.224609"/>
      <use xlink:href="#DejaVuSans-65" x="480.603516"/>
      <use xlink:href="#DejaVuSans-74" x="542.126953"/>
     </g>
    </g>
   </g>
  </g>
 </g>
 <defs>
  <clipPath id="pa7f92587c5">
   <rect x="108" y="69.12" width="669.6" height="443.52"/>
  </clipPath>
 </defs>
</svg>
