<?xml version="1.0" encoding="utf-8" standalone="no"?>
<!DOCTYPE svg PUBLIC "-//W3C//DTD SVG 1.1//EN"
  "http://www.w3.org/Graphics/SVG/1.1/DTD/svg11.dtd">
<svg xmlns:xlink="http://www.w3.org/1999/xlink" width="864pt" height="576pt" viewBox="0 0 864 576" xmlns="http://www.w3.org/2000/svg" version="1.1">
 <metadata>
  <rdf:RDF xmlns:dc="http://purl.org/dc/elements/1.1/" xmlns:cc="http://creativecommons.org/ns#" xmlns:rdf="http://www.w3.org/1999/02/22-rdf-syntax-ns#">
   <cc:Work>
    <dc:type rdf:resource="http://purl.org/dc/dcmitype/StillImage"/>
    <dc:date>2024-03-10T14:06:30.652611</dc:date>
    <dc:format>image/svg+xml</dc:format>
    <dc:creator>
     <cc:Agent>
      <dc:title>Matplotlib v3.7.3, https://matplotlib.org/</dc:title>
     </cc:Agent>
    </dc:creator>
   </cc:Work>
  </rdf:RDF>
 </metadata>
 <defs>
  <style type="text/css">*{stroke-linejoin: round; stroke-linecap: butt}</style>
 </defs>
 <g id="figure_1">
  <g id="patch_1">
   <path d="M 0 576 
L 864 576 
L 864 0 
L 0 0 
z
" style="fill: #ffffff"/>
  </g>
  <g id="axes_1">
   <g id="patch_2">
    <path d="M 108 512.64 
L 777.6 512.64 
L 777.6 69.12 
L 108 69.12 
z
" style="fill: #ffffff"/>
   </g>
   <g id="matplotlib.axis_1">
    <g id="xtick_1">
     <g id="line2d_1">
      <path d="M 223.587528 512.64 
L 223.587528 69.12 
" clip-path="url(#p86e2976520)" style="fill: none; stroke: #b0b0b0; stroke-width: 0.8; stroke-linecap: square"/>
     </g>
     <g id="line2d_2">
      <defs>
       <path id="m7268b82e10" d="M 0 0 
L 0 3.5 
" style="stroke: #000000; stroke-width: 0.8"/>
      </defs>
      <g>
       <use xlink:href="#m7268b82e10" x="223.587528" y="512.64" style="stroke: #000000; stroke-width: 0.8"/>
      </g>
     </g>
     <g id="text_1">
      <!-- 0.1 -->
      <g transform="translate(215.635966 527.238438) scale(0.1 -0.1)">
       <defs>
        <path id="DejaVuSans-30" d="M 2034 4250 
Q 1547 4250 1301 3770 
Q 1056 3291 1056 2328 
Q 1056 1369 1301 889 
Q 1547 409 2034 409 
Q 2525 409 2770 889 
Q 3016 1369 3016 2328 
Q 3016 3291 2770 3770 
Q 2525 4250 2034 4250 
z
M 2034 4750 
Q 2819 4750 3233 4129 
Q 3647 3509 3647 2328 
Q 3647 1150 3233 529 
Q 2819 -91 2034 -91 
Q 1250 -91 836 529 
Q 422 1150 422 2328 
Q 422 3509 836 4129 
Q 1250 4750 2034 4750 
z
" transform="scale(0.015625)"/>
        <path id="DejaVuSans-2e" d="M 684 794 
L 1344 794 
L 1344 0 
L 684 0 
L 684 794 
z
" transform="scale(0.015625)"/>
        <path id="DejaVuSans-31" d="M 794 531 
L 1825 531 
L 1825 4091 
L 703 3866 
L 703 4441 
L 1819 4666 
L 2450 4666 
L 2450 531 
L 3481 531 
L 3481 0 
L 794 0 
L 794 531 
z
" transform="scale(0.015625)"/>
       </defs>
       <use xlink:href="#DejaVuSans-30"/>
       <use xlink:href="#DejaVuSans-2e" x="63.623047"/>
       <use xlink:href="#DejaVuSans-31" x="95.410156"/>
      </g>
     </g>
    </g>
    <g id="xtick_2">
     <g id="line2d_3">
      <path d="M 345.406074 512.64 
L 345.406074 69.12 
" clip-path="url(#p86e2976520)" style="fill: none; stroke: #b0b0b0; stroke-width: 0.8; stroke-linecap: square"/>
     </g>
     <g id="line2d_4">
      <g>
       <use xlink:href="#m7268b82e10" x="345.406074" y="512.64" style="stroke: #000000; stroke-width: 0.8"/>
      </g>
     </g>
     <g id="text_2">
      <!-- 0.2 -->
      <g transform="translate(337.454512 527.238438) scale(0.1 -0.1)">
       <defs>
        <path id="DejaVuSans-32" d="M 1228 531 
L 3431 531 
L 3431 0 
L 469 0 
L 469 531 
Q 828 903 1448 1529 
Q 2069 2156 2228 2338 
Q 2531 2678 2651 2914 
Q 2772 3150 2772 3378 
Q 2772 3750 2511 3984 
Q 2250 4219 1831 4219 
Q 1534 4219 1204 4116 
Q 875 4013 500 3803 
L 500 4441 
Q 881 4594 1212 4672 
Q 1544 4750 1819 4750 
Q 2544 4750 2975 4387 
Q 3406 4025 3406 3419 
Q 3406 3131 3298 2873 
Q 3191 2616 2906 2266 
Q 2828 2175 2409 1742 
Q 1991 1309 1228 531 
z
" transform="scale(0.015625)"/>
       </defs>
       <use xlink:href="#DejaVuSans-30"/>
       <use xlink:href="#DejaVuSans-2e" x="63.623047"/>
       <use xlink:href="#DejaVuSans-32" x="95.410156"/>
      </g>
     </g>
    </g>
    <g id="xtick_3">
     <g id="line2d_5">
      <path d="M 467.22462 512.64 
L 467.22462 69.12 
" clip-path="url(#p86e2976520)" style="fill: none; stroke: #b0b0b0; stroke-width: 0.8; stroke-linecap: square"/>
     </g>
     <g id="line2d_6">
      <g>
       <use xlink:href="#m7268b82e10" x="467.22462" y="512.64" style="stroke: #000000; stroke-width: 0.8"/>
      </g>
     </g>
     <g id="text_3">
      <!-- 0.3 -->
      <g transform="translate(459.273058 527.238438) scale(0.1 -0.1)">
       <defs>
        <path id="DejaVuSans-33" d="M 2597 2516 
Q 3050 2419 3304 2112 
Q 3559 1806 3559 1356 
Q 3559 666 3084 287 
Q 2609 -91 1734 -91 
Q 1441 -91 1130 -33 
Q 819 25 488 141 
L 488 750 
Q 750 597 1062 519 
Q 1375 441 1716 441 
Q 2309 441 2620 675 
Q 2931 909 2931 1356 
Q 2931 1769 2642 2001 
Q 2353 2234 1838 2234 
L 1294 2234 
L 1294 2753 
L 1863 2753 
Q 2328 2753 2575 2939 
Q 2822 3125 2822 3475 
Q 2822 3834 2567 4026 
Q 2313 4219 1838 4219 
Q 1578 4219 1281 4162 
Q 984 4106 628 3988 
L 628 4550 
Q 988 4650 1302 4700 
Q 1616 4750 1894 4750 
Q 2613 4750 3031 4423 
Q 3450 4097 3450 3541 
Q 3450 3153 3228 2886 
Q 3006 2619 2597 2516 
z
" transform="scale(0.015625)"/>
       </defs>
       <use xlink:href="#DejaVuSans-30"/>
       <use xlink:href="#DejaVuSans-2e" x="63.623047"/>
       <use xlink:href="#DejaVuSans-33" x="95.410156"/>
      </g>
     </g>
    </g>
    <g id="xtick_4">
     <g id="line2d_7">
      <path d="M 589.043166 512.64 
L 589.043166 69.12 
" clip-path="url(#p86e2976520)" style="fill: none; stroke: #b0b0b0; stroke-width: 0.8; stroke-linecap: square"/>
     </g>
     <g id="line2d_8">
      <g>
       <use xlink:href="#m7268b82e10" x="589.043166" y="512.64" style="stroke: #000000; stroke-width: 0.8"/>
      </g>
     </g>
     <g id="text_4">
      <!-- 0.4 -->
      <g transform="translate(581.091604 527.238438) scale(0.1 -0.1)">
       <defs>
        <path id="DejaVuSans-34" d="M 2419 4116 
L 825 1625 
L 2419 1625 
L 2419 4116 
z
M 2253 4666 
L 3047 4666 
L 3047 1625 
L 3713 1625 
L 3713 1100 
L 3047 1100 
L 3047 0 
L 2419 0 
L 2419 1100 
L 313 1100 
L 313 1709 
L 2253 4666 
z
" transform="scale(0.015625)"/>
       </defs>
       <use xlink:href="#DejaVuSans-30"/>
       <use xlink:href="#DejaVuSans-2e" x="63.623047"/>
       <use xlink:href="#DejaVuSans-34" x="95.410156"/>
      </g>
     </g>
    </g>
    <g id="xtick_5">
     <g id="line2d_9">
      <path d="M 710.861712 512.64 
L 710.861712 69.12 
" clip-path="url(#p86e2976520)" style="fill: none; stroke: #b0b0b0; stroke-width: 0.8; stroke-linecap: square"/>
     </g>
     <g id="line2d_10">
      <g>
       <use xlink:href="#m7268b82e10" x="710.861712" y="512.64" style="stroke: #000000; stroke-width: 0.8"/>
      </g>
     </g>
     <g id="text_5">
      <!-- 0.5 -->
      <g transform="translate(702.91015 527.238438) scale(0.1 -0.1)">
       <defs>
        <path id="DejaVuSans-35" d="M 691 4666 
L 3169 4666 
L 3169 4134 
L 1269 4134 
L 1269 2991 
Q 1406 3038 1543 3061 
Q 1681 3084 1819 3084 
Q 2600 3084 3056 2656 
Q 3513 2228 3513 1497 
Q 3513 744 3044 326 
Q 2575 -91 1722 -91 
Q 1428 -91 1123 -41 
Q 819 9 494 109 
L 494 744 
Q 775 591 1075 516 
Q 1375 441 1709 441 
Q 2250 441 2565 725 
Q 2881 1009 2881 1497 
Q 2881 1984 2565 2268 
Q 2250 2553 1709 2553 
Q 1456 2553 1204 2497 
Q 953 2441 691 2322 
L 691 4666 
z
" transform="scale(0.015625)"/>
       </defs>
       <use xlink:href="#DejaVuSans-30"/>
       <use xlink:href="#DejaVuSans-2e" x="63.623047"/>
       <use xlink:href="#DejaVuSans-35" x="95.410156"/>
      </g>
     </g>
    </g>
    <g id="text_6">
     <!-- TTM -->
     <g transform="translate(424.198125 546.995312) scale(0.18 -0.18)">
      <defs>
       <path id="DejaVuSans-54" d="M -19 4666 
L 3928 4666 
L 3928 4134 
L 2272 4134 
L 2272 0 
L 1638 0 
L 1638 4134 
L -19 4134 
L -19 4666 
z
" transform="scale(0.015625)"/>
       <path id="DejaVuSans-4d" d="M 628 4666 
L 1569 4666 
L 2759 1491 
L 3956 4666 
L 4897 4666 
L 4897 0 
L 4281 0 
L 4281 4097 
L 3078 897 
L 2444 897 
L 1241 4097 
L 1241 0 
L 628 0 
L 628 4666 
z
" transform="scale(0.015625)"/>
      </defs>
      <use xlink:href="#DejaVuSans-54"/>
      <use xlink:href="#DejaVuSans-54" x="59.333984"/>
      <use xlink:href="#DejaVuSans-4d" x="120.417969"/>
     </g>
    </g>
   </g>
   <g id="matplotlib.axis_2">
    <g id="ytick_1">
     <g id="line2d_11">
      <path d="M 108 494.837895 
L 777.6 494.837895 
" clip-path="url(#p86e2976520)" style="fill: none; stroke: #b0b0b0; stroke-width: 0.8; stroke-linecap: square"/>
     </g>
     <g id="line2d_12">
      <defs>
       <path id="mc0609fc6cf" d="M 0 0 
L -3.5 0 
" style="stroke: #000000; stroke-width: 0.8"/>
      </defs>
      <g>
       <use xlink:href="#mc0609fc6cf" x="108" y="494.837895" style="stroke: #000000; stroke-width: 0.8"/>
      </g>
     </g>
     <g id="text_7">
      <!-- 0.0000 -->
      <g transform="translate(66.009375 498.637114) scale(0.1 -0.1)">
       <use xlink:href="#DejaVuSans-30"/>
       <use xlink:href="#DejaVuSans-2e" x="63.623047"/>
       <use xlink:href="#DejaVuSans-30" x="95.410156"/>
       <use xlink:href="#DejaVuSans-30" x="159.033203"/>
       <use xlink:href="#DejaVuSans-30" x="222.65625"/>
       <use xlink:href="#DejaVuSans-30" x="286.279297"/>
      </g>
     </g>
    </g>
    <g id="ytick_2">
     <g id="line2d_13">
      <path d="M 108 435.89051 
L 777.6 435.89051 
" clip-path="url(#p86e2976520)" style="fill: none; stroke: #b0b0b0; stroke-width: 0.8; stroke-linecap: square"/>
     </g>
     <g id="line2d_14">
      <g>
       <use xlink:href="#mc0609fc6cf" x="108" y="435.89051" style="stroke: #000000; stroke-width: 0.8"/>
      </g>
     </g>
     <g id="text_8">
      <!-- 0.0025 -->
      <g transform="translate(66.009375 439.689728) scale(0.1 -0.1)">
       <use xlink:href="#DejaVuSans-30"/>
       <use xlink:href="#DejaVuSans-2e" x="63.623047"/>
       <use xlink:href="#DejaVuSans-30" x="95.410156"/>
       <use xlink:href="#DejaVuSans-30" x="159.033203"/>
       <use xlink:href="#DejaVuSans-32" x="222.65625"/>
       <use xlink:href="#DejaVuSans-35" x="286.279297"/>
      </g>
     </g>
    </g>
    <g id="ytick_3">
     <g id="line2d_15">
      <path d="M 108 376.943124 
L 777.6 376.943124 
" clip-path="url(#p86e2976520)" style="fill: none; stroke: #b0b0b0; stroke-width: 0.8; stroke-linecap: square"/>
     </g>
     <g id="line2d_16">
      <g>
       <use xlink:href="#mc0609fc6cf" x="108" y="376.943124" style="stroke: #000000; stroke-width: 0.8"/>
      </g>
     </g>
     <g id="text_9">
      <!-- 0.0050 -->
      <g transform="translate(66.009375 380.742343) scale(0.1 -0.1)">
       <use xlink:href="#DejaVuSans-30"/>
       <use xlink:href="#DejaVuSans-2e" x="63.623047"/>
       <use xlink:href="#DejaVuSans-30" x="95.410156"/>
       <use xlink:href="#DejaVuSans-30" x="159.033203"/>
       <use xlink:href="#DejaVuSans-35" x="222.65625"/>
       <use xlink:href="#DejaVuSans-30" x="286.279297"/>
      </g>
     </g>
    </g>
    <g id="ytick_4">
     <g id="line2d_17">
      <path d="M 108 317.995738 
L 777.6 317.995738 
" clip-path="url(#p86e2976520)" style="fill: none; stroke: #b0b0b0; stroke-width: 0.8; stroke-linecap: square"/>
     </g>
     <g id="line2d_18">
      <g>
       <use xlink:href="#mc0609fc6cf" x="108" y="317.995738" style="stroke: #000000; stroke-width: 0.8"/>
      </g>
     </g>
     <g id="text_10">
      <!-- 0.0075 -->
      <g transform="translate(66.009375 321.794957) scale(0.1 -0.1)">
       <defs>
        <path id="DejaVuSans-37" d="M 525 4666 
L 3525 4666 
L 3525 4397 
L 1831 0 
L 1172 0 
L 2766 4134 
L 525 4134 
L 525 4666 
z
" transform="scale(0.015625)"/>
       </defs>
       <use xlink:href="#DejaVuSans-30"/>
       <use xlink:href="#DejaVuSans-2e" x="63.623047"/>
       <use xlink:href="#DejaVuSans-30" x="95.410156"/>
       <use xlink:href="#DejaVuSans-30" x="159.033203"/>
       <use xlink:href="#DejaVuSans-37" x="222.65625"/>
       <use xlink:href="#DejaVuSans-35" x="286.279297"/>
      </g>
     </g>
    </g>
    <g id="ytick_5">
     <g id="line2d_19">
      <path d="M 108 259.048353 
L 777.6 259.048353 
" clip-path="url(#p86e2976520)" style="fill: none; stroke: #b0b0b0; stroke-width: 0.8; stroke-linecap: square"/>
     </g>
     <g id="line2d_20">
      <g>
       <use xlink:href="#mc0609fc6cf" x="108" y="259.048353" style="stroke: #000000; stroke-width: 0.8"/>
      </g>
     </g>
     <g id="text_11">
      <!-- 0.0100 -->
      <g transform="translate(66.009375 262.847571) scale(0.1 -0.1)">
       <use xlink:href="#DejaVuSans-30"/>
       <use xlink:href="#DejaVuSans-2e" x="63.623047"/>
       <use xlink:href="#DejaVuSans-30" x="95.410156"/>
       <use xlink:href="#DejaVuSans-31" x="159.033203"/>
       <use xlink:href="#DejaVuSans-30" x="222.65625"/>
       <use xlink:href="#DejaVuSans-30" x="286.279297"/>
      </g>
     </g>
    </g>
    <g id="ytick_6">
     <g id="line2d_21">
      <path d="M 108 200.100967 
L 777.6 200.100967 
" clip-path="url(#p86e2976520)" style="fill: none; stroke: #b0b0b0; stroke-width: 0.8; stroke-linecap: square"/>
     </g>
     <g id="line2d_22">
      <g>
       <use xlink:href="#mc0609fc6cf" x="108" y="200.100967" style="stroke: #000000; stroke-width: 0.8"/>
      </g>
     </g>
     <g id="text_12">
      <!-- 0.0125 -->
      <g transform="translate(66.009375 203.900186) scale(0.1 -0.1)">
       <use xlink:href="#DejaVuSans-30"/>
       <use xlink:href="#DejaVuSans-2e" x="63.623047"/>
       <use xlink:href="#DejaVuSans-30" x="95.410156"/>
       <use xlink:href="#DejaVuSans-31" x="159.033203"/>
       <use xlink:href="#DejaVuSans-32" x="222.65625"/>
       <use xlink:href="#DejaVuSans-35" x="286.279297"/>
      </g>
     </g>
    </g>
    <g id="ytick_7">
     <g id="line2d_23">
      <path d="M 108 141.153581 
L 777.6 141.153581 
" clip-path="url(#p86e2976520)" style="fill: none; stroke: #b0b0b0; stroke-width: 0.8; stroke-linecap: square"/>
     </g>
     <g id="line2d_24">
      <g>
       <use xlink:href="#mc0609fc6cf" x="108" y="141.153581" style="stroke: #000000; stroke-width: 0.8"/>
      </g>
     </g>
     <g id="text_13">
      <!-- 0.0150 -->
      <g transform="translate(66.009375 144.9528) scale(0.1 -0.1)">
       <use xlink:href="#DejaVuSans-30"/>
       <use xlink:href="#DejaVuSans-2e" x="63.623047"/>
       <use xlink:href="#DejaVuSans-30" x="95.410156"/>
       <use xlink:href="#DejaVuSans-31" x="159.033203"/>
       <use xlink:href="#DejaVuSans-35" x="222.65625"/>
       <use xlink:href="#DejaVuSans-30" x="286.279297"/>
      </g>
     </g>
    </g>
    <g id="ytick_8">
     <g id="line2d_25">
      <path d="M 108 82.206196 
L 777.6 82.206196 
" clip-path="url(#p86e2976520)" style="fill: none; stroke: #b0b0b0; stroke-width: 0.8; stroke-linecap: square"/>
     </g>
     <g id="line2d_26">
      <g>
       <use xlink:href="#mc0609fc6cf" x="108" y="82.206196" style="stroke: #000000; stroke-width: 0.8"/>
      </g>
     </g>
     <g id="text_14">
      <!-- 0.0175 -->
      <g transform="translate(66.009375 86.005414) scale(0.1 -0.1)">
       <use xlink:href="#DejaVuSans-30"/>
       <use xlink:href="#DejaVuSans-2e" x="63.623047"/>
       <use xlink:href="#DejaVuSans-30" x="95.410156"/>
       <use xlink:href="#DejaVuSans-31" x="159.033203"/>
       <use xlink:href="#DejaVuSans-37" x="222.65625"/>
       <use xlink:href="#DejaVuSans-35" x="286.279297"/>
      </g>
     </g>
    </g>
    <g id="text_15">
     <!-- Price/strike ratio -->
     <g transform="translate(58.265938 364.318594) rotate(-90) scale(0.18 -0.18)">
      <defs>
       <path id="DejaVuSans-50" d="M 1259 4147 
L 1259 2394 
L 2053 2394 
Q 2494 2394 2734 2622 
Q 2975 2850 2975 3272 
Q 2975 3691 2734 3919 
Q 2494 4147 2053 4147 
L 1259 4147 
z
M 628 4666 
L 2053 4666 
Q 2838 4666 3239 4311 
Q 3641 3956 3641 3272 
Q 3641 2581 3239 2228 
Q 2838 1875 2053 1875 
L 1259 1875 
L 1259 0 
L 628 0 
L 628 4666 
z
" transform="scale(0.015625)"/>
       <path id="DejaVuSans-72" d="M 2631 2963 
Q 2534 3019 2420 3045 
Q 2306 3072 2169 3072 
Q 1681 3072 1420 2755 
Q 1159 2438 1159 1844 
L 1159 0 
L 581 0 
L 581 3500 
L 1159 3500 
L 1159 2956 
Q 1341 3275 1631 3429 
Q 1922 3584 2338 3584 
Q 2397 3584 2469 3576 
Q 2541 3569 2628 3553 
L 2631 2963 
z
" transform="scale(0.015625)"/>
       <path id="DejaVuSans-69" d="M 603 3500 
L 1178 3500 
L 1178 0 
L 603 0 
L 603 3500 
z
M 603 4863 
L 1178 4863 
L 1178 4134 
L 603 4134 
L 603 4863 
z
" transform="scale(0.015625)"/>
       <path id="DejaVuSans-63" d="M 3122 3366 
L 3122 2828 
Q 2878 2963 2633 3030 
Q 2388 3097 2138 3097 
Q 1578 3097 1268 2742 
Q 959 2388 959 1747 
Q 959 1106 1268 751 
Q 1578 397 2138 397 
Q 2388 397 2633 464 
Q 2878 531 3122 666 
L 3122 134 
Q 2881 22 2623 -34 
Q 2366 -91 2075 -91 
Q 1284 -91 818 406 
Q 353 903 353 1747 
Q 353 2603 823 3093 
Q 1294 3584 2113 3584 
Q 2378 3584 2631 3529 
Q 2884 3475 3122 3366 
z
" transform="scale(0.015625)"/>
       <path id="DejaVuSans-65" d="M 3597 1894 
L 3597 1613 
L 953 1613 
Q 991 1019 1311 708 
Q 1631 397 2203 397 
Q 2534 397 2845 478 
Q 3156 559 3463 722 
L 3463 178 
Q 3153 47 2828 -22 
Q 2503 -91 2169 -91 
Q 1331 -91 842 396 
Q 353 884 353 1716 
Q 353 2575 817 3079 
Q 1281 3584 2069 3584 
Q 2775 3584 3186 3129 
Q 3597 2675 3597 1894 
z
M 3022 2063 
Q 3016 2534 2758 2815 
Q 2500 3097 2075 3097 
Q 1594 3097 1305 2825 
Q 1016 2553 972 2059 
L 3022 2063 
z
" transform="scale(0.015625)"/>
       <path id="DejaVuSans-2f" d="M 1625 4666 
L 2156 4666 
L 531 -594 
L 0 -594 
L 1625 4666 
z
" transform="scale(0.015625)"/>
       <path id="DejaVuSans-73" d="M 2834 3397 
L 2834 2853 
Q 2591 2978 2328 3040 
Q 2066 3103 1784 3103 
Q 1356 3103 1142 2972 
Q 928 2841 928 2578 
Q 928 2378 1081 2264 
Q 1234 2150 1697 2047 
L 1894 2003 
Q 2506 1872 2764 1633 
Q 3022 1394 3022 966 
Q 3022 478 2636 193 
Q 2250 -91 1575 -91 
Q 1294 -91 989 -36 
Q 684 19 347 128 
L 347 722 
Q 666 556 975 473 
Q 1284 391 1588 391 
Q 1994 391 2212 530 
Q 2431 669 2431 922 
Q 2431 1156 2273 1281 
Q 2116 1406 1581 1522 
L 1381 1569 
Q 847 1681 609 1914 
Q 372 2147 372 2553 
Q 372 3047 722 3315 
Q 1072 3584 1716 3584 
Q 2034 3584 2315 3537 
Q 2597 3491 2834 3397 
z
" transform="scale(0.015625)"/>
       <path id="DejaVuSans-74" d="M 1172 4494 
L 1172 3500 
L 2356 3500 
L 2356 3053 
L 1172 3053 
L 1172 1153 
Q 1172 725 1289 603 
Q 1406 481 1766 481 
L 2356 481 
L 2356 0 
L 1766 0 
Q 1100 0 847 248 
Q 594 497 594 1153 
L 594 3053 
L 172 3053 
L 172 3500 
L 594 3500 
L 594 4494 
L 1172 4494 
z
" transform="scale(0.015625)"/>
       <path id="DejaVuSans-6b" d="M 581 4863 
L 1159 4863 
L 1159 1991 
L 2875 3500 
L 3609 3500 
L 1753 1863 
L 3688 0 
L 2938 0 
L 1159 1709 
L 1159 0 
L 581 0 
L 581 4863 
z
" transform="scale(0.015625)"/>
       <path id="DejaVuSans-20" transform="scale(0.015625)"/>
       <path id="DejaVuSans-61" d="M 2194 1759 
Q 1497 1759 1228 1600 
Q 959 1441 959 1056 
Q 959 750 1161 570 
Q 1363 391 1709 391 
Q 2188 391 2477 730 
Q 2766 1069 2766 1631 
L 2766 1759 
L 2194 1759 
z
M 3341 1997 
L 3341 0 
L 2766 0 
L 2766 531 
Q 2569 213 2275 61 
Q 1981 -91 1556 -91 
Q 1019 -91 701 211 
Q 384 513 384 1019 
Q 384 1609 779 1909 
Q 1175 2209 1959 2209 
L 2766 2209 
L 2766 2266 
Q 2766 2663 2505 2880 
Q 2244 3097 1772 3097 
Q 1472 3097 1187 3025 
Q 903 2953 641 2809 
L 641 3341 
Q 956 3463 1253 3523 
Q 1550 3584 1831 3584 
Q 2591 3584 2966 3190 
Q 3341 2797 3341 1997 
z
" transform="scale(0.015625)"/>
       <path id="DejaVuSans-6f" d="M 1959 3097 
Q 1497 3097 1228 2736 
Q 959 2375 959 1747 
Q 959 1119 1226 758 
Q 1494 397 1959 397 
Q 2419 397 2687 759 
Q 2956 1122 2956 1747 
Q 2956 2369 2687 2733 
Q 2419 3097 1959 3097 
z
M 1959 3584 
Q 2709 3584 3137 3096 
Q 3566 2609 3566 1747 
Q 3566 888 3137 398 
Q 2709 -91 1959 -91 
Q 1206 -91 779 398 
Q 353 888 353 1747 
Q 353 2609 779 3096 
Q 1206 3584 1959 3584 
z
" transform="scale(0.015625)"/>
      </defs>
      <use xlink:href="#DejaVuSans-50"/>
      <use xlink:href="#DejaVuSans-72" x="58.552734"/>
      <use xlink:href="#DejaVuSans-69" x="99.666016"/>
      <use xlink:href="#DejaVuSans-63" x="127.449219"/>
      <use xlink:href="#DejaVuSans-65" x="182.429688"/>
      <use xlink:href="#DejaVuSans-2f" x="243.953125"/>
      <use xlink:href="#DejaVuSans-73" x="277.644531"/>
      <use xlink:href="#DejaVuSans-74" x="329.744141"/>
      <use xlink:href="#DejaVuSans-72" x="368.953125"/>
      <use xlink:href="#DejaVuSans-69" x="410.066406"/>
      <use xlink:href="#DejaVuSans-6b" x="437.849609"/>
      <use xlink:href="#DejaVuSans-65" x="492.134766"/>
      <use xlink:href="#DejaVuSans-20" x="553.658203"/>
      <use xlink:href="#DejaVuSans-72" x="585.445312"/>
      <use xlink:href="#DejaVuSans-61" x="626.558594"/>
      <use xlink:href="#DejaVuSans-74" x="687.837891"/>
      <use xlink:href="#DejaVuSans-69" x="727.046875"/>
      <use xlink:href="#DejaVuSans-6f" x="754.830078"/>
     </g>
    </g>
   </g>
   <g id="line2d_27">
    <path d="M 138.436364 492.48 
L 179.611035 492.48 
L 179.611035 492.48 
L 181.194676 490.122102 
L 181.803769 490.122102 
L 183.021948 492.48 
L 183.26559 490.122102 
L 185.701956 490.122102 
L 185.823777 492.48 
L 185.945598 490.122102 
L 189.2347 490.122102 
L 190.331067 487.764206 
L 190.452887 490.122102 
L 192.15834 490.122102 
L 192.15834 487.764206 
L 193.132895 487.764206 
L 193.376528 490.122102 
L 193.620169 487.764206 
L 193.74198 487.764206 
L 193.74198 487.764206 
L 193.74198 490.122102 
L 194.351074 490.122102 
L 194.351074 487.764206 
L 194.594716 487.764206 
L 194.960168 490.122102 
L 195.691083 490.122102 
L 196.300177 487.764206 
L 196.300177 490.122102 
L 196.66563 490.122102 
L 196.909271 487.764206 
L 198.858364 487.764206 
L 198.858364 487.764206 
L 198.980185 485.406314 
L 198.980185 487.764206 
L 201.051099 487.764206 
L 201.538372 485.406314 
L 202.025646 487.764206 
L 202.75656 485.406314 
L 203.000192 485.406314 
L 203.243833 487.764206 
L 203.609286 485.406314 
L 204.583833 485.406314 
L 204.583833 485.406314 
L 204.827474 487.764206 
L 204.949295 485.406314 
L 205.6802 487.764206 
L 205.802021 485.406314 
L 206.411115 485.406314 
L 206.411115 487.764206 
L 206.411115 485.406314 
L 207.263841 485.406314 
L 207.263841 485.406314 
L 207.385662 483.048419 
L 209.091123 483.048419 
L 209.091123 483.048419 
L 209.212943 485.406314 
L 209.334755 483.048419 
L 209.334755 483.048419 
L 209.456576 483.048419 
L 209.456576 485.406314 
L 209.822028 483.048419 
L 210.18749 485.406314 
L 210.796584 483.048419 
L 212.014763 483.048419 
L 212.502036 485.406314 
L 212.502036 483.048419 
L 212.502036 483.048419 
L 213.842045 480.690523 
L 214.451139 483.048419 
L 214.451139 485.406314 
L 215.182044 480.690523 
L 215.425686 485.406314 
L 215.425686 480.690523 
L 215.669327 483.048419 
L 215.912959 483.048419 
L 216.034779 480.690523 
L 216.400232 483.048419 
L 216.522053 480.690523 
L 216.765694 483.048419 
L 217.862052 483.048419 
L 217.983873 480.690523 
L 218.227514 483.048419 
L 218.471146 480.690523 
L 219.445702 483.048419 
L 220.176608 478.332626 
L 220.54206 483.048419 
L 220.54206 480.690523 
L 220.54206 480.690523 
L 221.760248 480.690523 
L 221.882069 478.332626 
L 222.12571 480.690523 
L 222.369342 480.690523 
L 222.369342 480.690523 
L 222.491163 483.048419 
L 223.100257 480.690523 
L 223.100257 475.974724 
L 223.222068 478.332626 
L 223.58753 480.690523 
L 224.440256 480.690523 
L 224.562077 478.332626 
L 224.562077 480.690523 
L 224.805718 478.332626 
L 225.171171 475.974724 
L 225.414803 480.690523 
L 226.023897 478.332626 
L 226.389359 480.690523 
L 226.389359 478.332626 
L 226.389359 478.332626 
L 226.632991 478.332626 
L 226.632991 480.690523 
L 226.754811 478.332626 
L 228.947546 478.332626 
L 229.069367 475.974724 
L 229.069367 478.332626 
L 229.800272 475.974724 
L 230.287546 475.974724 
L 230.531187 478.332626 
L 230.531187 480.690523 
L 230.653007 475.974724 
L 232.236648 475.974724 
L 232.967554 478.332626 
L 233.333015 475.974724 
L 233.698468 475.974724 
L 233.820289 478.332626 
L 234.063921 475.974724 
L 234.185742 473.616839 
L 234.429383 475.974724 
L 234.429383 475.974724 
L 234.551194 473.616839 
L 234.794835 475.974724 
L 234.794835 475.974724 
L 236.256656 475.974724 
L 236.378476 473.616839 
L 236.86575 471.258934 
L 237.353023 473.616839 
L 237.474843 475.974724 
L 237.718476 473.616839 
L 237.840296 475.974724 
L 237.962117 471.258934 
L 237.962117 475.974724 
L 238.205758 471.258934 
L 239.423937 475.974724 
L 239.423937 475.974724 
L 240.033031 473.616839 
L 241.007578 471.258934 
L 241.982124 471.258934 
L 242.347586 473.616839 
L 242.347586 475.974724 
L 242.469407 471.258934 
L 244.174859 471.258934 
L 244.29668 466.543138 
L 245.514867 468.901035 
L 245.514867 468.901035 
L 246.123961 468.901035 
L 246.489414 466.543138 
L 246.489414 471.258934 
L 246.976688 468.901035 
L 247.34214 466.543138 
L 247.463961 471.258934 
L 247.463961 471.258934 
L 247.585782 466.543138 
L 247.829423 471.258934 
L 248.073055 468.901035 
L 248.073055 468.901035 
L 248.194875 468.901035 
L 248.316696 471.258934 
L 248.438508 468.901035 
L 249.047602 468.901035 
L 249.413063 471.258934 
L 249.534875 468.901035 
L 249.778516 471.258934 
L 250.631242 468.901035 
L 250.631242 466.543138 
L 250.631242 466.543138 
L 251.118516 468.901035 
L 251.118516 468.901035 
L 251.240336 466.543138 
L 251.84943 468.901035 
L 251.971251 466.543138 
L 252.945797 464.185271 
L 253.067618 461.827374 
L 253.067618 464.185271 
L 253.798524 471.258934 
L 253.798524 468.901035 
L 253.920344 464.185271 
L 255.016712 468.901035 
L 255.991258 466.543138 
L 257.087626 464.185271 
L 257.818531 466.543138 
L 258.793096 461.827374 
L 259.15854 466.543138 
L 259.524001 466.543138 
L 259.645822 461.827374 
L 259.645822 464.185271 
L 259.767643 466.543138 
L 259.889463 461.827374 
L 260.133086 466.543138 
L 260.498548 461.827374 
L 261.107633 459.469453 
L 261.351274 461.827374 
L 261.960377 464.185271 
L 262.447642 464.185271 
L 262.447642 461.827374 
L 263.544009 461.827374 
L 264.153112 464.185271 
L 264.396735 464.185271 
L 264.518556 457.111572 
L 265.371282 457.111572 
L 265.371282 461.827374 
L 265.858564 459.469453 
L 265.858564 461.827374 
L 266.102205 459.469453 
L 266.102205 461.827374 
L 266.224026 459.469453 
L 266.71129 461.827374 
L 267.807658 457.111572 
L 267.929478 457.111572 
L 268.538563 459.469453 
L 269.147666 457.111572 
L 269.391307 461.827374 
L 270.122213 459.469453 
L 270.122213 457.111572 
L 270.487675 457.111572 
L 270.853118 450.03789 
L 271.340401 457.111572 
L 271.705863 457.111572 
L 271.949486 454.753661 
L 272.071306 459.469453 
L 272.436768 454.753661 
L 272.436768 461.827374 
L 272.558589 454.753661 
L 272.558589 457.111572 
L 273.289494 457.111572 
L 273.289494 457.111572 
L 273.411315 454.753661 
L 273.654956 457.111572 
L 274.873144 459.469453 
L 275.238588 454.753661 
L 275.604049 447.67999 
L 275.969511 454.753661 
L 276.944058 454.753661 
L 276.944058 457.111572 
L 277.553143 459.469453 
L 277.674963 454.753661 
L 277.674963 454.753661 
L 277.796784 457.111572 
L 277.796784 454.753661 
L 277.918605 450.03789 
L 278.162246 457.111572 
L 278.162246 452.395762 
L 278.162246 454.753661 
L 278.284048 454.753661 
L 279.014972 452.395762 
L 279.258595 450.03789 
L 279.380416 454.753661 
L 279.624057 450.03789 
L 279.624057 452.395762 
L 280.111339 452.395762 
L 280.476783 450.03789 
L 280.842245 452.395762 
L 280.842245 450.03789 
L 280.964065 457.111572 
L 281.329527 457.111572 
L 281.57315 454.753661 
L 281.57315 454.753661 
L 281.938612 450.03789 
L 282.425895 450.03789 
L 283.034979 452.395762 
L 283.278621 452.395762 
L 283.278621 450.03789 
L 283.522262 452.395762 
L 283.765885 452.395762 
L 283.765885 450.03789 
L 283.887706 452.395762 
L 284.009526 452.395762 
L 284.253167 450.03789 
L 284.496809 452.395762 
L 284.740432 447.67999 
L 284.984073 447.67999 
L 285.714978 450.03789 
L 286.445902 454.753661 
L 286.567723 445.322109 
L 286.689543 454.753661 
L 286.811346 452.395762 
L 287.298628 447.67999 
L 287.542269 450.03789 
L 287.542269 447.67999 
L 287.66409 445.322109 
L 287.66409 450.03789 
L 288.273175 447.67999 
L 288.273175 447.67999 
L 288.638637 445.322109 
L 288.760457 445.322109 
L 288.760457 447.67999 
L 289.125901 450.03789 
L 289.247722 447.67999 
L 289.369542 447.67999 
L 289.613183 452.395762 
L 289.735004 445.322109 
L 290.465909 445.322109 
L 290.831371 450.03789 
L 291.196815 442.964196 
L 292.293182 442.964196 
L 292.658644 440.606305 
L 292.902285 450.03789 
L 292.902285 447.67999 
L 293.267729 447.67999 
L 293.51137 442.964196 
L 294.485917 442.964196 
L 294.607738 440.606305 
L 295.216841 440.606305 
L 295.216841 440.606305 
L 295.582284 442.964196 
L 295.825925 442.964196 
L 295.825925 442.964196 
L 295.947746 438.248408 
L 296.191387 442.964196 
L 296.678652 442.964196 
L 296.800472 440.606305 
L 297.044113 440.606305 
L 297.775019 445.322109 
L 297.775019 442.964196 
L 298.01866 442.964196 
L 298.262301 440.606305 
L 298.262301 440.606305 
L 298.505943 440.606305 
L 298.505943 442.964196 
L 298.627745 438.248408 
L 299.358669 442.964196 
L 299.724112 438.248408 
L 299.724112 440.606305 
L 299.845933 445.322109 
L 299.967754 438.248408 
L 299.967754 442.964196 
L 300.333215 442.964196 
L 300.9423 440.606305 
L 301.185941 440.606305 
L 301.551403 435.890516 
L 302.038668 435.890516 
L 302.282309 438.248408 
L 302.282309 435.890516 
L 302.404129 438.248408 
L 303.135035 442.964196 
L 303.378676 438.248408 
L 303.987761 442.964196 
L 304.109582 435.890516 
L 304.231402 445.322109 
L 304.231402 442.964196 
L 304.596864 438.248408 
L 304.840505 438.248408 
L 304.840505 438.248408 
L 304.962326 440.606305 
L 304.962326 438.248408 
L 305.205949 440.606305 
L 305.205949 438.248408 
L 305.32777 431.17469 
L 305.815052 440.606305 
L 305.936873 440.606305 
L 306.180496 438.248408 
L 306.424137 431.17469 
L 306.545957 435.890516 
L 306.789599 438.248408 
L 306.911419 431.17469 
L 307.520504 440.606305 
L 307.520504 435.890516 
L 307.764145 438.248408 
L 308.129607 435.890516 
L 308.37323 433.532614 
L 308.616871 442.964196 
L 309.225975 442.964196 
L 309.835059 433.532614 
L 309.95688 433.532614 
L 310.687786 440.606305 
L 310.931427 433.532614 
L 311.662332 426.458912 
L 311.905973 435.890516 
L 311.905973 435.890516 
L 312.271435 428.81682 
L 312.7587 431.17469 
L 313.245982 435.890516 
L 313.611426 433.532614 
L 313.611426 431.17469 
L 314.585991 431.17469 
L 314.829614 433.532614 
L 314.829614 435.890516 
L 314.829614 433.532614 
L 315.073255 433.532614 
L 315.925981 428.81682 
L 316.291443 431.17469 
L 316.535084 435.890516 
L 316.535084 424.101037 
L 316.900528 435.890516 
L 316.900528 428.81682 
L 316.900528 435.890516 
L 317.022348 428.81682 
L 317.38781 426.458912 
L 317.631451 428.81682 
L 317.753272 426.458912 
L 317.996895 431.17469 
L 318.362357 431.17469 
L 318.605998 433.532614 
L 318.971442 428.81682 
L 319.093262 431.17469 
L 319.093262 428.81682 
L 319.702365 428.81682 
L 320.18963 431.17469 
L 320.31145 428.81682 
L 320.433271 433.532614 
L 320.676912 426.458912 
L 321.164176 431.17469 
L 322.382364 428.81682 
L 322.747826 424.101037 
L 323.113288 431.17469 
L 323.113288 431.17469 
L 323.23509 431.17469 
L 323.722373 424.101037 
L 323.966014 426.458912 
L 324.575099 428.81682 
L 324.81874 428.81682 
L 324.940561 431.17469 
L 325.549646 428.81682 
L 326.646013 431.17469 
L 326.889654 417.027347 
L 326.889654 426.458912 
L 327.133295 421.743118 
L 327.255116 424.101037 
L 327.986021 426.458912 
L 327.986021 419.385211 
L 328.838748 424.101037 
L 329.082389 421.743118 
L 329.082389 419.385211 
L 329.204209 419.385211 
L 329.32603 424.101037 
L 329.447851 424.101037 
L 329.813294 426.458912 
L 330.056935 426.458912 
L 330.178756 424.101037 
L 330.178756 424.101037 
L 330.300577 424.101037 
L 330.422397 426.458912 
L 330.422397 426.458912 
L 330.909662 419.385211 
L 330.909662 419.385211 
L 331.275123 421.743118 
L 331.396944 424.101037 
L 331.762406 424.101037 
L 332.371491 421.743118 
L 332.493311 419.385211 
L 334.807867 419.385211 
L 334.929687 414.669466 
L 335.538772 414.669466 
L 336.269678 421.743118 
L 336.635139 412.311531 
L 338.218789 419.385211 
L 338.462412 421.743118 
L 338.827874 419.385211 
L 338.827874 421.743118 
L 338.949695 414.669466 
L 338.949695 414.669466 
L 339.802421 414.669466 
L 340.167883 417.027347 
L 340.776967 414.669466 
L 340.898788 409.953672 
L 341.26425 412.311531 
L 341.873335 419.385211 
L 341.995155 409.953672 
L 342.360617 417.027347 
L 342.482438 412.311531 
L 342.969702 417.027347 
L 343.213343 409.953672 
L 343.335164 417.027347 
L 343.335164 417.027347 
L 343.700608 417.027347 
L 343.700608 414.669466 
L 343.944249 419.385211 
L 343.944249 414.669466 
L 344.431531 412.311531 
L 344.553352 414.669466 
L 344.918796 414.669466 
L 344.918796 409.953672 
L 344.918796 412.311531 
L 345.406078 414.669466 
L 345.649719 409.953672 
L 345.649719 414.669466 
L 346.015163 414.669466 
L 346.380625 412.311531 
L 346.624266 414.669466 
L 346.746086 417.027347 
L 346.98971 405.237846 
L 347.233351 407.595759 
L 347.842454 409.953672 
L 347.842454 412.311531 
L 348.938821 414.669466 
L 349.791547 409.953672 
L 349.913368 407.595759 
L 350.03517 409.953672 
L 351.009735 405.237846 
L 351.131538 400.52203 
L 351.253358 409.953672 
L 352.715187 412.311531 
L 352.715187 409.953672 
L 353.446093 412.311531 
L 353.446093 405.237846 
L 353.811555 409.953672 
L 354.055196 405.237846 
L 354.664281 407.595759 
L 355.395186 407.595759 
L 355.882469 405.237846 
L 356.004289 409.953672 
L 356.12611 400.52203 
L 356.369751 405.237846 
L 357.100657 407.595759 
L 357.344298 405.237846 
L 357.466118 409.953672 
L 357.709742 400.52203 
L 357.831562 400.52203 
L 357.831562 400.52203 
L 357.953383 409.953672 
L 357.953383 405.237846 
L 358.197024 405.237846 
L 358.562486 402.879971 
L 358.684288 405.237846 
L 358.806109 409.953672 
L 358.806109 400.52203 
L 359.658853 405.237846 
L 359.780656 400.52203 
L 360.267938 405.237846 
L 360.389759 400.52203 
L 360.6334 400.52203 
L 360.877023 405.237846 
L 360.998844 405.237846 
L 361.607947 398.164149 
L 362.095211 409.953672 
L 362.095211 398.164149 
L 362.095211 402.879971 
L 362.338852 414.669466 
L 362.460673 400.52203 
L 362.826134 395.806269 
L 363.069758 395.806269 
L 364.044304 393.448421 
L 364.044304 402.879971 
L 364.166125 398.164149 
L 364.775228 400.52203 
L 365.018869 402.879971 
L 365.506133 400.52203 
L 365.749775 398.164149 
L 365.871595 402.879971 
L 365.993416 402.879971 
L 366.358859 398.164149 
L 367.698868 395.806269 
L 368.429774 395.806269 
L 369.038877 398.164149 
L 370.013423 400.52203 
L 370.378885 391.090453 
L 370.622508 393.448421 
L 370.98797 400.52203 
L 370.98797 393.448421 
L 371.353432 391.090453 
L 371.597055 398.164149 
L 371.718875 393.448421 
L 371.718875 393.448421 
L 371.840696 400.52203 
L 372.449799 395.806269 
L 372.693422 398.164149 
L 372.693422 388.732606 
L 372.815243 400.52203 
L 372.815243 393.448421 
L 373.424346 386.37467 
L 373.78979 393.448421 
L 374.398893 398.164149 
L 374.642534 388.732606 
L 374.886157 391.090453 
L 375.007977 391.090453 
L 375.007977 393.448421 
L 375.738901 393.448421 
L 375.738901 395.806269 
L 375.982524 384.016757 
L 376.347986 398.164149 
L 376.347986 395.806269 
L 376.347986 386.37467 
L 376.713448 400.52203 
L 376.713448 395.806269 
L 376.83525 393.448421 
L 377.809815 398.164149 
L 378.175259 386.37467 
L 379.637088 386.37467 
L 379.637088 393.448421 
L 379.758909 386.37467 
L 380.733455 386.37467 
L 380.977096 395.806269 
L 380.977096 388.732606 
L 381.22072 391.090453 
L 381.708002 386.37467 
L 381.708002 386.37467 
L 382.317087 400.52203 
L 383.413454 395.806269 
L 383.900737 391.090453 
L 383.900737 388.732606 
L 384.388001 388.732606 
L 384.509822 386.37467 
L 384.997104 391.090453 
L 385.118925 379.301084 
L 385.484368 388.732606 
L 385.484368 379.301084 
L 385.606189 384.016757 
L 386.215292 376.943083 
L 386.337112 384.016757 
L 386.337112 391.090453 
L 386.824377 398.164149 
L 387.189839 388.732606 
L 387.43348 388.732606 
L 387.43348 379.301084 
L 387.677103 374.585246 
L 387.677103 384.016757 
L 387.798923 386.37467 
L 388.65165 384.016757 
L 389.504394 379.301084 
L 390.600761 388.732606 
L 390.844384 388.732606 
L 391.331667 376.943083 
L 391.697128 374.585246 
L 391.940752 384.016757 
L 392.184393 384.016757 
L 392.793496 374.585246 
L 393.402581 379.301084 
L 393.402581 379.301084 
L 393.524401 381.658865 
L 393.524401 388.732606 
L 393.768043 374.585246 
L 393.889863 376.943083 
L 394.011666 384.016757 
L 394.498948 386.37467 
L 394.98623 376.943083 
L 395.108033 376.943083 
L 395.229854 381.658865 
L 395.229854 374.585246 
L 395.595315 374.585246 
L 395.595315 381.658865 
L 395.717136 376.943083 
L 396.2044 372.227399 
L 396.813503 376.943083 
L 397.178965 381.658865 
L 397.178965 379.301084 
L 397.422588 376.943083 
L 397.544409 369.869419 
L 397.666229 374.585246 
L 398.275314 376.943083 
L 398.518955 374.585246 
L 398.762597 374.585246 
L 399.493502 372.227399 
L 399.615323 369.869419 
L 399.615323 372.227399 
L 399.737143 367.51155 
L 400.102605 381.658865 
L 400.224426 374.585246 
L 400.224426 367.51155 
L 400.468049 374.585246 
L 400.71169 374.585246 
L 400.833511 362.7958 
L 401.320793 374.585246 
L 401.929878 372.227399 
L 402.051699 367.51155 
L 402.051699 372.227399 
L 403.513528 374.585246 
L 404.122613 369.869419 
L 404.244433 365.153593 
L 404.366254 374.585246 
L 404.731698 362.7958 
L 404.853518 374.585246 
L 405.340801 384.016757 
L 405.949885 360.437821 
L 405.949885 372.227399 
L 406.558989 374.585246 
L 406.680791 374.585246 
L 406.680791 362.7958 
L 407.168073 372.227399 
L 407.289912 369.869419 
L 408.38628 367.51155 
L 408.751723 367.51155 
L 409.360808 374.585246 
L 409.84809 360.437821 
L 410.091732 369.869419 
L 410.335373 367.51155 
L 410.700817 372.227399 
L 411.309901 360.437821 
L 412.528108 358.079995 
L 412.771712 379.301084 
L 413.502636 365.153593 
L 413.502636 369.869419 
L 413.86808 369.869419 
L 414.111721 358.079995 
L 414.23356 374.585246 
L 414.477201 360.437821 
L 414.477201 360.437821 
L 414.964447 369.869419 
L 415.208088 362.7958 
L 415.45173 369.869419 
L 415.695371 367.51155 
L 415.939012 362.7958 
L 415.939012 360.437821 
L 416.426294 360.437821 
L 417.157182 369.869419 
L 417.400823 362.7958 
L 417.400823 365.153593 
L 417.522662 355.722071 
L 417.522662 360.437821 
L 417.888105 358.079995 
L 418.253549 367.51155 
L 418.49719 367.51155 
L 418.740832 362.7958 
L 418.740832 365.153593 
L 418.86267 365.153593 
L 418.984473 353.364114 
L 419.106311 365.153593 
L 419.471755 362.7958 
L 419.593558 353.364114 
L 419.715396 358.079995 
L 419.715396 362.7958 
L 420.08084 360.437821 
L 420.446284 360.437821 
L 421.299046 353.364114 
L 421.299046 358.079995 
L 421.786292 348.648408 
L 422.273575 362.7958 
L 422.273575 369.869419 
L 422.395413 362.7958 
L 422.517216 362.7958 
L 423.369942 358.079995 
L 423.491744 365.153593 
L 423.613583 362.7958 
L 423.613583 355.722071 
L 423.857224 358.079995 
L 424.222668 362.7958 
L 424.344507 362.7958 
L 424.466309 355.722071 
L 424.466309 362.7958 
L 424.709951 353.364114 
L 425.075394 348.648408 
L 425.319035 353.364114 
L 425.319035 343.932603 
L 425.806318 353.364114 
L 426.049959 360.437821 
L 426.902685 355.722071 
L 427.146326 351.006244 
L 428.242694 351.006244 
L 428.364496 355.722071 
L 428.851779 353.364114 
L 429.217222 351.006244 
L 429.217222 351.006244 
L 429.582702 346.29045 
L 429.704505 355.722071 
L 429.826343 346.29045 
L 430.435428 348.648408 
L 430.800872 358.079995 
L 430.800872 351.006244 
L 430.922711 346.29045 
L 431.044513 348.648408 
L 431.409957 351.006244 
L 432.506324 351.006244 
L 432.871804 346.29045 
L 432.993607 351.006244 
L 433.480889 343.932603 
L 433.602692 348.648408 
L 433.846333 343.932603 
L 434.089974 336.858885 
L 434.9427 355.722071 
L 435.429983 351.006244 
L 435.551785 346.29045 
L 435.795426 329.785254 
L 436.160906 341.574766 
L 436.769991 343.932603 
L 437.013632 343.932603 
L 437.622717 351.006244 
L 438.11 360.437821 
L 438.231802 341.574766 
L 438.231802 355.722071 
L 438.962726 339.216732 
L 439.328169 351.006244 
L 439.328169 348.648408 
L 439.693613 336.858885 
L 439.937254 343.932603 
L 440.059093 358.079995 
L 440.78998 336.858885 
L 440.911819 348.648408 
L 441.033622 348.648408 
L 441.033622 353.364114 
L 441.520904 341.574766 
L 441.520904 348.648408 
L 441.886348 353.364114 
L 441.886348 348.648408 
L 442.495469 346.29045 
L 443.348195 332.143047 
L 443.95728 341.574766 
L 443.95728 348.648408 
L 444.200921 339.216732 
L 444.444562 351.006244 
L 444.566365 346.29045 
L 444.566365 336.858885 
L 445.297288 353.364114 
L 445.419091 341.574766 
L 445.54093 343.932603 
L 445.662732 339.216732 
L 445.784571 355.722071 
L 446.393656 346.29045 
L 446.393656 343.932603 
L 446.515458 341.574766 
L 447.124543 341.574766 
L 447.124543 336.858885 
L 447.246382 339.216732 
L 447.855467 339.216732 
L 447.855467 348.648408 
L 448.58639 332.143047 
L 448.951834 336.858885 
L 449.073673 325.069362 
L 449.073673 343.932603 
L 449.073673 343.932603 
L 450.048201 332.143047 
L 450.291843 336.858885 
L 450.657286 339.216732 
L 450.779125 339.216732 
L 450.779125 334.50096 
L 451.144569 343.932603 
L 452.362775 336.858885 
L 452.60638 336.858885 
L 453.093662 332.143047 
L 453.337303 343.932603 
L 453.824586 339.216732 
L 453.946388 336.858885 
L 453.946388 334.50096 
L 454.433671 332.143047 
L 454.555509 329.785254 
L 454.799114 339.216732 
L 454.799114 317.995654 
L 454.799114 348.648408 
L 454.799114 339.216732 
L 456.01732 329.785254 
L 456.139123 334.50096 
L 456.139123 339.216732 
L 456.260962 332.143047 
L 456.260962 341.574766 
L 456.626405 329.785254 
L 457.113688 325.069362 
L 457.357329 341.574766 
L 457.357329 339.216732 
L 457.722773 334.50096 
L 458.210055 334.50096 
L 458.331858 322.711514 
L 458.575499 329.785254 
L 459.306422 332.143047 
L 459.306422 339.216732 
L 459.306422 332.143047 
L 459.793705 332.143047 
L 460.524592 325.069362 
L 461.499157 322.711514 
L 461.620959 327.427308 
L 461.742798 322.711514 
L 462.230044 329.785254 
L 462.230044 325.069362 
L 464.057335 339.216732 
L 464.179174 336.858885 
L 465.153703 327.427308 
L 465.397344 327.427308 
L 465.640985 315.637873 
L 466.128268 343.932603 
L 466.25007 327.427308 
L 466.737352 317.995654 
L 467.224635 327.427308 
L 467.46824 322.711514 
L 467.590079 325.069362 
L 467.83372 322.711514 
L 468.077361 317.995654 
L 468.321002 339.216732 
L 468.321002 317.995654 
L 468.564607 317.995654 
L 468.930087 329.785254 
L 469.05189 320.353711 
L 469.295531 322.711514 
L 469.417369 310.922123 
L 470.026454 325.069362 
L 470.148257 322.711514 
L 470.270096 325.069362 
L 470.635539 320.353711 
L 470.757342 329.785254 
L 470.757342 313.279992 
L 471.366463 320.353711 
L 472.09735 315.637873 
L 472.219189 317.995654 
L 472.340991 315.637873 
L 472.46283 327.427308 
L 472.828274 320.353711 
L 472.828274 317.995654 
L 472.950076 317.995654 
L 473.071915 313.279992 
L 473.559198 329.785254 
L 473.559198 329.785254 
L 473.802839 315.637873 
L 474.290085 320.353711 
L 475.021009 332.143047 
L 475.021009 308.564209 
L 475.142811 320.353711 
L 475.508291 334.50096 
L 475.508291 317.995654 
L 475.508291 325.069362 
L 475.630093 322.711514 
L 475.873735 313.279992 
L 475.873735 317.995654 
L 476.117376 320.353711 
L 476.239178 334.50096 
L 476.604658 315.637873 
L 477.335546 308.564209 
L 477.701026 308.564209 
L 477.701026 306.206274 
L 477.701026 317.995654 
L 478.553752 317.995654 
L 478.919195 315.637873 
L 479.041034 327.427308 
L 479.284639 310.922123 
L 479.89376 310.922123 
L 480.381006 320.353711 
L 480.868289 320.353711 
L 481.11193 303.848361 
L 481.599212 303.848361 
L 482.330136 332.143047 
L 482.573741 303.848361 
L 482.573741 320.353711 
L 482.573741 301.490491 
L 482.817382 322.711514 
L 483.061023 315.637873 
L 483.548306 325.069362 
L 483.91375 306.206274 
L 484.035588 315.637873 
L 484.766476 306.206274 
L 485.253758 303.848361 
L 485.497399 303.848361 
L 485.741041 317.995654 
L 486.715605 308.564209 
L 487.081049 320.353711 
L 487.568332 308.564209 
L 488.299219 317.995654 
L 488.664699 310.922123 
L 488.786501 310.922123 
L 489.030142 317.995654 
L 489.030142 296.774752 
L 489.882869 310.922123 
L 490.004671 306.206274 
L 490.491953 306.206274 
L 490.613792 310.922123 
L 490.735595 310.922123 
L 490.857433 299.132644 
L 490.979236 320.353711 
L 491.34468 301.490491 
L 491.588321 299.132644 
L 492.075603 306.206274 
L 492.684688 306.206274 
L 492.806527 299.132644 
L 492.806527 308.564209 
L 492.928329 306.206274 
L 493.293773 310.922123 
L 493.537414 303.848361 
L 493.659253 306.206274 
L 493.659253 315.637873 
L 494.511979 301.490491 
L 494.511979 296.774752 
L 494.75562 313.279992 
L 494.999262 306.206274 
L 495.364705 303.848361 
L 496.095629 310.922123 
L 496.217431 308.564209 
L 496.582875 294.416707 
L 496.582875 306.206274 
L 496.826516 313.279992 
L 497.191996 287.343099 
L 497.435637 299.132644 
L 498.166525 301.490491 
L 498.532005 306.206274 
L 498.653807 289.701034 
L 499.019251 303.848361 
L 499.750174 296.774752 
L 500.115618 299.132644 
L 500.359259 299.132644 
L 501.577465 303.848361 
L 501.699268 306.206274 
L 502.308353 294.416707 
L 502.917438 303.848361 
L 504.622926 308.564209 
L 504.622926 289.701034 
L 504.744729 301.490491 
L 505.110172 296.774752 
L 505.232011 296.774752 
L 505.232011 296.774752 
L 505.232011 292.05886 
L 505.353814 292.05886 
L 505.353814 301.490491 
L 505.597455 292.05886 
L 505.719294 296.774752 
L 505.841096 294.416707 
L 506.450181 308.564209 
L 507.181105 287.343099 
L 507.424746 296.774752 
L 507.424746 292.05886 
L 507.546548 292.05886 
L 508.399274 301.490491 
L 509.61748 301.490491 
L 509.61748 301.490491 
L 509.739283 299.132644 
L 509.982924 299.132644 
L 509.982924 301.490491 
L 510.470206 299.132644 
L 510.83565 289.701034 
L 511.079291 294.416707 
L 511.322933 282.627206 
L 511.322933 296.774752 
L 511.444735 287.343099 
L 511.566574 292.05886 
L 511.810215 294.416707 
L 511.932017 301.490491 
L 512.297497 289.701034 
L 512.784744 289.701034 
L 512.784744 287.343099 
L 513.759308 289.701034 
L 514.490232 289.701034 
L 515.221119 294.416707 
L 515.342958 284.985098 
L 515.342958 289.701034 
L 516.195684 289.701034 
L 516.317487 277.911533 
L 516.682967 292.05886 
L 517.04841 282.627206 
L 517.04841 282.627206 
L 517.170213 284.985098 
L 517.657495 277.911533 
L 517.779334 277.911533 
L 517.779334 280.269447 
L 518.144778 280.269447 
L 518.144778 287.343099 
L 518.388419 306.206274 
L 518.388419 282.627206 
L 518.510221 299.132644 
L 518.997504 289.701034 
L 519.362947 280.269447 
L 519.484786 287.343099 
L 519.972069 292.05886 
L 520.215674 282.627206 
L 520.581154 273.195728 
L 520.824795 287.343099 
L 521.43388 277.911533 
L 521.555682 287.343099 
L 521.677521 277.911533 
L 522.042965 284.985098 
L 522.042965 292.05886 
L 522.164767 284.985098 
L 523.139332 292.05886 
L 523.261134 287.343099 
L 523.626614 292.05886 
L 524.47934 273.195728 
L 524.601143 282.627206 
L 525.210264 284.985098 
L 525.941151 270.837859 
L 526.672075 273.195728 
L 526.793878 287.343099 
L 527.28116 280.269447 
L 527.28116 294.416707 
L 527.28116 282.627206 
L 527.402999 277.911533 
L 527.890245 277.911533 
L 528.012084 270.837859 
L 528.499366 284.985098 
L 528.986612 268.479946 
L 529.230253 282.627206 
L 529.717536 280.269447 
L 530.570262 273.195728 
L 530.570262 261.40614 
L 531.057544 282.627206 
L 531.057544 273.195728 
L 531.301186 294.416707 
L 532.275714 270.837859 
L 532.519355 270.837859 
L 533.12844 280.269447 
L 533.250279 270.837859 
L 533.615723 266.122098 
L 535.077534 287.343099 
L 535.199372 263.764141 
L 535.443014 273.195728 
L 535.808457 275.553664 
L 536.783022 263.764141 
L 537.392107 275.553664 
L 537.635748 275.553664 
L 538.732116 280.269447 
L 538.853918 282.627206 
L 538.975757 263.764141 
L 539.950285 268.479946 
L 540.072124 270.837859 
L 540.437568 263.764141 
L 540.803011 268.479946 
L 540.92485 268.479946 
L 540.92485 266.122098 
L 541.168491 282.627206 
L 541.290294 266.122098 
L 541.655738 273.195728 
L 542.386661 270.837859 
L 542.630302 268.479946 
L 542.630302 266.122098 
L 542.752105 263.764141 
L 542.752105 266.122098 
L 543.117585 277.911533 
L 543.604831 277.911533 
L 544.701198 266.122098 
L 545.066678 270.837859 
L 545.188481 275.553664 
L 545.31032 263.764141 
L 545.919404 268.479946 
L 546.528489 263.764141 
L 546.893933 256.690401 
L 547.624857 247.258923 
L 548.35578 254.332487 
L 548.477583 256.690401 
L 548.843063 254.332487 
L 548.964865 266.122098 
L 549.086668 266.122098 
L 549.452148 263.764141 
L 549.452148 268.479946 
L 549.57395 254.332487 
L 550.183035 251.974618 
L 550.304874 270.837859 
L 550.913959 268.479946 
L 551.644882 256.690401 
L 551.888523 259.04838 
L 552.132165 259.04838 
L 552.37577 261.40614 
L 552.497608 268.479946 
L 552.863052 254.332487 
L 553.228496 256.690401 
L 553.593976 254.332487 
L 553.837617 247.258923 
L 553.959419 263.764141 
L 554.203061 261.40614 
L 554.203061 256.690401 
L 554.933984 266.122098 
L 555.299428 256.690401 
L 555.543069 256.690401 
L 555.543069 247.258923 
L 555.78671 268.479946 
L 556.639436 256.690401 
L 556.883078 242.543162 
L 556.883078 261.40614 
L 557.37036 254.332487 
L 557.492163 263.764141 
L 557.492163 251.974618 
L 557.735804 251.974618 
L 558.466727 242.543162 
L 558.953973 256.690401 
L 559.197615 249.61677 
L 559.319453 256.690401 
L 559.441256 249.61677 
L 559.563095 256.690401 
L 559.684897 254.332487 
L 559.684897 259.04838 
L 559.928538 244.901075 
L 560.17218 259.04838 
L 560.415821 235.4694 
L 560.415821 254.332487 
L 560.903067 251.974618 
L 561.755829 259.04838 
L 561.877632 249.61677 
L 562.243075 251.974618 
L 562.730358 256.690401 
L 562.730358 237.827269 
L 562.973999 270.837859 
L 563.948564 247.258923 
L 564.192169 256.690401 
L 564.80129 247.258923 
L 565.410375 254.332487 
L 565.532177 247.258923 
L 565.532177 259.04838 
L 565.654016 244.901075 
L 565.775819 259.04838 
L 567.23763 247.258923 
L 567.481271 256.690401 
L 567.846751 233.111618 
L 567.968553 249.61677 
L 568.699477 244.901075 
L 568.699477 249.61677 
L 569.064921 230.753551 
L 569.064921 230.753551 
L 569.430364 244.901075 
L 570.039485 240.185073 
L 570.404929 251.974618 
L 570.404929 240.185073 
L 570.64857 249.61677 
L 570.892212 251.974618 
L 570.892212 244.901075 
L 571.257655 249.61677 
L 571.623099 249.61677 
L 571.623099 249.61677 
L 571.744938 237.827269 
L 572.23222 242.543162 
L 572.354023 247.258923 
L 572.354023 235.4694 
L 572.475861 242.543162 
L 572.719466 244.901075 
L 572.719466 242.543162 
L 573.45039 237.827269 
L 573.815834 242.543162 
L 574.181314 254.332487 
L 574.303116 254.332487 
L 574.424955 240.185073 
L 574.546757 244.901075 
L 575.155842 240.185073 
L 576.130407 259.04838 
L 577.104936 233.111618 
L 577.226774 235.4694 
L 578.566783 247.258923 
L 579.784953 230.753551 
L 579.784953 233.111618 
L 580.028594 249.61677 
L 580.028594 249.61677 
L 580.394037 235.4694 
L 580.637679 249.61677 
L 581.855885 237.827269 
L 582.46497 228.395594 
L 582.586772 211.890464 
L 582.586772 247.258923 
L 582.708611 247.258923 
L 583.195893 230.753551 
L 583.317696 233.111618 
L 583.439498 230.753551 
L 584.657704 230.753551 
L 585.023148 237.827269 
L 585.266789 237.827269 
L 585.51043 233.111618 
L 586.119515 230.753551 
L 586.119515 247.258923 
L 586.241354 226.037856 
L 586.241354 233.111618 
L 586.363157 226.037856 
L 586.7286 240.185073 
L 586.850439 240.185073 
L 586.972241 233.111618 
L 587.459524 218.964248 
L 588.190447 218.964248 
L 588.555891 233.111618 
L 588.677694 221.321963 
L 588.921335 226.037856 
L 588.921335 249.61677 
L 589.043174 223.679965 
L 589.164976 240.185073 
L 589.164976 235.4694 
L 589.8959 228.395594 
L 589.8959 223.679965 
L 590.748626 230.753551 
L 591.114069 226.037856 
L 591.479549 242.543162 
L 591.844993 233.111618 
L 591.966796 240.185073 
L 592.454078 221.321963 
L 592.697719 218.964248 
L 592.94136 233.111618 
L 592.94136 218.964248 
L 593.428643 209.532572 
L 594.646813 228.395594 
L 594.646813 235.4694 
L 594.768651 228.395594 
L 594.890454 228.395594 
L 595.74318 230.753551 
L 596.10866 235.4694 
L 596.474104 223.679965 
L 596.717745 230.753551 
L 597.570471 237.827269 
L 598.423197 211.890464 
L 598.666838 228.395594 
L 598.788641 209.532572 
L 598.788641 209.532572 
L 599.032282 221.321963 
L 599.275923 218.964248 
L 599.397726 242.543162 
L 600.006847 221.321963 
L 600.128649 211.890464 
L 600.859573 233.111618 
L 600.859573 218.964248 
L 601.103214 240.185073 
L 601.468658 226.037856 
L 601.59046 228.395594 
L 603.17411 216.606115 
L 603.17411 223.679965 
L 603.295949 233.111618 
L 603.53959 228.395594 
L 603.661392 221.321963 
L 604.148675 230.753551 
L 604.270477 223.679965 
L 605.123203 223.679965 
L 605.366845 235.4694 
L 605.488683 214.248421 
L 605.732325 233.111618 
L 605.732325 218.964248 
L 605.854127 237.827269 
L 605.97593 211.890464 
L 606.341409 221.321963 
L 606.341409 221.321963 
L 606.463212 228.395594 
L 607.315938 200.100985 
L 607.925023 221.321963 
L 608.046862 216.606115 
L 608.412305 230.753551 
L 608.534144 211.890464 
L 609.143229 216.606115 
L 609.874153 233.111618 
L 609.874153 204.816811 
L 609.995955 209.532572 
L 610.361399 202.458788 
L 610.848681 197.743181 
L 611.457766 211.890464 
L 611.457766 216.606115 
L 611.579605 202.458788 
L 611.823246 211.890464 
L 611.823246 209.532572 
L 612.797775 207.174725 
L 613.163255 233.111618 
L 613.650501 197.743181 
L 614.625066 211.890464 
L 614.746868 218.964248 
L 615.112348 207.174725 
L 615.234151 218.964248 
L 615.477792 214.248421 
L 615.477792 226.037856 
L 615.477792 211.890464 
L 615.599594 209.532572 
L 615.599594 204.816811 
L 616.208715 209.532572 
L 616.208715 204.816811 
L 616.330518 204.816811 
L 616.330518 209.532572 
L 617.183244 214.248421 
L 617.914168 209.532572 
L 617.914168 221.321963 
L 618.03597 214.248421 
L 618.279611 197.743181 
L 618.40145 211.890464 
L 618.645055 202.458788 
L 619.132337 207.174725 
L 619.375979 211.890464 
L 619.375979 202.458788 
L 619.497817 216.606115 
L 621.081431 204.816811 
L 621.325072 190.669331 
L 621.446911 197.743181 
L 622.543278 214.248421 
L 622.665081 218.964248 
L 623.761448 197.743181 
L 623.761448 209.532572 
L 624.005089 204.816811 
L 624.370533 221.321963 
L 624.492372 207.174725 
L 624.857815 207.174725 
L 625.101456 195.385312 
L 625.954183 200.100985 
L 626.319626 193.027157 
L 626.441465 197.743181 
L 626.806909 200.100985 
L 626.928747 218.964248 
L 627.415994 197.743181 
L 628.390558 216.606115 
L 628.999643 185.953592 
L 629.243284 197.743181 
L 629.486926 197.743181 
L 629.730567 209.532572 
L 630.705095 207.174725 
L 630.705095 188.311462 
L 630.826934 204.816811 
L 631.314217 209.532572 
L 631.557822 202.458788 
L 632.288745 195.385312 
L 632.288745 202.458788 
L 632.89783 188.311462 
L 633.019669 190.669331 
L 633.506951 188.311462 
L 633.628754 207.174725 
L 633.750556 202.458788 
L 633.750556 190.669331 
L 634.116036 183.595701 
L 634.48148 185.953592 
L 635.456045 200.100985 
L 635.821488 193.027157 
L 636.308771 195.385312 
L 636.308771 200.100985 
L 637.039658 193.027157 
L 637.648779 185.953592 
L 638.501505 202.458788 
L 639.232393 193.027157 
L 639.841514 181.237765 
L 640.32876 188.311462 
L 640.450599 197.743181 
L 640.937881 193.027157 
L 640.937881 190.669331 
L 641.181486 190.669331 
L 641.303325 188.311462 
L 642.765136 176.521873 
L 643.130616 209.532572 
L 643.130616 183.595701 
L 643.252418 176.521873 
L 644.105145 197.743181 
L 644.226983 190.669331 
L 645.688794 188.311462 
L 646.663323 202.458788 
L 646.663323 183.595701 
L 646.906964 178.880006 
L 648.003331 178.880006 
L 648.612453 185.953592 
L 648.612453 174.164179 
L 648.856057 178.880006 
L 648.977896 174.164179 
L 649.586981 190.669331 
L 649.70882 178.880006 
L 650.074264 200.100985 
L 650.196066 176.521873 
L 650.439707 169.44833 
L 650.561546 181.237765 
L 651.657913 185.953592 
L 651.779716 197.743181 
L 652.145159 188.311462 
L 652.876083 178.880006 
L 653.119724 183.595701 
L 653.241527 162.374656 
L 653.485168 185.953592 
L 653.97245 185.953592 
L 654.094253 197.743181 
L 654.337894 183.595701 
L 654.825177 167.090439 
L 655.434261 183.595701 
L 655.434261 188.311462 
L 655.799741 193.027157 
L 656.530629 171.806244 
L 657.505194 178.880006 
L 657.870637 185.953592 
L 657.992476 174.164179 
L 657.992476 190.669331 
L 658.236117 171.806244 
L 658.479722 188.311462 
L 658.479722 167.090439 
L 658.967005 200.100985 
L 658.967005 195.385312 
L 659.454287 162.374656 
L 660.063372 162.374656 
L 660.185211 190.669331 
L 660.307013 164.732438 
L 661.037937 174.164179 
L 661.159739 171.806244 
L 661.159739 178.880006 
L 661.281578 171.806244 
L 661.40338 178.880006 
L 661.40338 176.521873 
L 661.768824 185.953592 
L 662.499748 181.237765 
L 662.499748 181.237765 
L 662.62155 162.374656 
L 662.743389 185.953592 
L 662.865191 178.880006 
L 663.596115 178.880006 
L 663.961559 188.311462 
L 664.448841 178.880006 
L 664.448841 176.521873 
L 664.57068 188.311462 
L 664.936124 174.164179 
L 665.301567 176.521873 
L 665.78885 169.44833 
L 665.910652 185.953592 
L 665.910652 162.374656 
L 665.910652 164.732438 
L 666.276132 181.237765 
L 666.397935 174.164179 
L 666.885217 174.164179 
L 667.00702 181.237765 
L 667.372499 171.806244 
L 667.494302 176.521873 
L 667.981584 167.090439 
L 668.347028 169.44833 
L 668.956149 171.806244 
L 669.077952 162.374656 
L 669.199754 162.374656 
L 669.321593 155.301004 
L 670.174319 162.374656 
L 670.296121 141.153567 
L 670.905243 169.44833 
L 671.027045 164.732438 
L 671.148884 171.806244 
L 672.732497 127.006175 
L 673.341582 174.164179 
L 673.707062 169.44833 
L 674.194345 164.732438 
L 674.43795 155.301004 
L 674.43795 145.86935 
L 674.559788 160.016896 
L 675.168873 150.585309 
L 675.290712 152.942959 
L 675.656156 162.374656 
L 677.605249 176.521873 
L 677.605249 157.658807 
L 678.336173 160.016896 
L 678.457975 167.090439 
L 678.457975 162.374656 
L 678.701616 174.164179 
L 679.188899 162.374656 
L 679.797984 174.164179 
L 679.919786 167.090439 
L 680.041625 167.090439 
L 680.285266 181.237765 
L 680.407069 174.164179 
L 680.407069 155.301004 
L 682.478001 171.806244 
L 682.965283 162.374656 
L 683.208888 152.942959 
L 683.452529 174.164179 
L 683.696171 148.227264 
L 684.427094 145.86935 
L 684.548897 148.227264 
L 684.670735 155.301004 
L 685.157982 150.585309 
L 685.157982 152.942959 
L 685.523461 152.942959 
L 685.767103 167.090439 
L 686.010744 145.86935 
L 686.132546 152.942959 
L 686.132546 167.090439 
L 686.254349 164.732438 
L 686.254349 150.585309 
L 686.376188 150.585309 
L 686.49799 167.090439 
L 686.49799 167.090439 
L 686.86347 164.732438 
L 687.107111 148.227264 
L 687.350716 150.585309 
L 687.959837 148.227264 
L 688.325281 167.090439 
L 688.447083 148.227264 
L 690.274374 167.090439 
L 690.883459 152.942959 
L 691.736185 145.86935 
L 692.467109 167.090439 
L 692.588948 162.374656 
L 693.198033 167.090439 
L 694.903485 152.942959 
L 694.903485 160.016896 
L 695.390767 143.511503 
L 695.51257 157.658807 
L 695.999852 152.942959 
L 695.999852 160.016896 
L 696.121655 157.658807 
L 696.243493 148.227264 
L 696.365296 150.585309 
L 696.487135 162.374656 
L 696.487135 131.721936 
L 696.487135 134.079761 
L 696.974381 152.942959 
L 696.974381 136.437697 
L 697.09622 164.732438 
L 697.339861 148.227264 
L 697.461663 115.21663 
L 698.070748 157.658807 
L 699.045313 143.511503 
L 699.288954 145.86935 
L 699.532595 145.86935 
L 700.263483 129.363957 
L 700.263483 148.227264 
L 700.385322 150.585309 
L 700.385322 148.227264 
L 700.507124 145.86935 
L 700.750765 145.86935 
L 701.35985 143.511503 
L 701.603491 152.942959 
L 701.968971 162.374656 
L 702.456217 162.374656 
L 702.578056 150.585309 
L 702.821697 148.227264 
L 702.821697 131.721936 
L 703.187141 136.437697 
L 703.187141 138.795786 
L 703.674424 164.732438 
L 703.918065 148.227264 
L 704.161706 148.227264 
L 704.283508 143.511503 
L 704.405347 145.86935 
L 705.379876 124.648371 
L 705.988961 136.437697 
L 706.841687 145.86935 
L 706.963525 131.721936 
L 707.450808 131.721936 
L 707.57261 152.942959 
L 707.938054 129.363957 
L 708.059893 143.511503 
L 708.547175 155.301004 
L 708.547175 124.648371 
L 710.130789 143.511503 
L 710.252627 131.721936 
L 710.252627 150.585309 
L 710.73991 129.363957 
L 710.983551 143.511503 
L 711.105317 119.932676 
L 711.105317 129.363957 
L 711.5926 141.153567 
L 711.836277 143.511503 
L 712.201721 138.795786 
L 713.176286 124.648371 
L 713.176286 157.658807 
L 713.541729 145.86935 
L 713.907173 138.795786 
L 714.150778 129.363957 
L 714.272617 136.437697 
L 714.394456 134.079761 
L 714.63806 131.721936 
L 715.247182 138.795786 
L 715.612625 136.437697 
L 715.734464 148.227264 
L 715.978069 145.86935 
L 716.099908 129.363957 
L 716.709029 138.795786 
L 716.830795 143.511503 
L 716.830795 136.437697 
L 717.196311 117.574434 
L 717.683521 148.227264 
L 717.683521 129.363957 
L 718.292642 115.21663 
L 718.414481 127.006175 
L 718.536247 127.006175 
L 718.536247 129.363957 
L 718.901764 134.079761 
L 719.02353 141.153567 
L 719.632651 136.437697 
L 719.876256 138.795786 
L 720.241772 131.721936 
L 720.363538 141.153567 
L 720.607216 119.932676 
L 720.728982 138.795786 
L 721.216264 138.795786 
L 721.459942 119.932676 
L 722.312668 141.153567 
L 722.312668 129.363957 
L 722.678112 129.363957 
L 723.043555 138.795786 
L 723.043555 143.511503 
L 723.408999 122.290348 
L 723.408999 141.153567 
L 723.652677 143.511503 
L 724.01812 129.363957 
L 724.383564 131.721936 
L 724.505403 141.153567 
L 724.992685 143.511503 
L 726.819976 138.795786 
L 726.819976 124.648371 
L 727.063581 131.721936 
L 727.18542 148.227264 
L 727.429025 115.21663 
L 727.550863 122.290348 
L 728.281751 143.511503 
L 728.769033 131.721936 
L 729.012711 134.079761 
L 729.134477 117.574434 
L 729.49992 119.932676 
L 729.987203 119.932676 
L 730.352647 115.21663 
L 730.596324 127.006175 
L 730.596324 112.858651 
L 730.718163 112.858651 
L 731.205445 131.721936 
L 732.301776 138.795786 
L 732.423615 108.142912 
L 732.545381 115.21663 
L 732.789059 103.427173 
L 733.276341 112.858651 
L 733.398107 117.574434 
L 733.398107 141.153567 
L 733.641785 129.363957 
L 733.641785 119.932676 
L 733.763624 115.21663 
L 734.007229 127.006175 
L 734.007229 119.932676 
L 734.007229 119.932676 
L 734.738116 119.932676 
L 734.981793 105.785152 
L 735.225398 129.363957 
L 735.469076 131.721936 
L 735.469076 150.585309 
L 735.712681 122.290348 
L 735.956358 108.142912 
L 735.956358 131.721936 
L 736.078124 129.363957 
L 736.199963 105.785152 
L 736.321802 117.574434 
L 736.809084 122.290348 
L 737.539972 115.21663 
L 737.905415 145.86935 
L 737.905415 129.363957 
L 738.514537 122.290348 
L 738.758141 122.290348 
L 739.001819 108.142912 
L 739.245424 124.648371 
L 739.245424 122.290348 
L 739.489101 105.785152 
L 739.732706 112.858651 
L 740.219989 96.353499 
L 740.341828 101.069194 
L 740.341828 124.648371 
L 740.341828 101.069194 
L 740.585432 112.858651 
L 741.559997 110.501067 
L 741.681836 89.28 
L 741.803602 145.86935 
L 742.778167 101.069194 
L 743.26545 117.574434 
L 743.26545 108.142912 
L 743.387288 105.785152 
L 743.752732 134.079761 
L 744.970902 105.785152 
L 745.09274 112.858651 
L 745.823628 112.858651 
L 745.945467 122.290348 
L 747.163636 112.858651 
L 747.163636 112.858651 
" clip-path="url(#p86e2976520)" style="fill: none; stroke: #1f77b4; stroke-width: 2; stroke-linecap: square"/>
   </g>
   <g id="line2d_28">
    <path d="M 138.436364 486.761885 
L 150.374584 485.597607 
L 162.312799 484.205533 
L 173.398288 482.690098 
L 184.361957 480.970945 
L 184.361957 480.970945 
L 195.691083 478.964978 
L 207.385662 476.66214 
L 219.445702 474.065301 
L 233.333015 470.839215 
L 249.047602 466.949459 
L 266.71129 462.353436 
L 288.273175 456.505517 
L 288.273175 456.505517 
L 309.95688 450.397588 
L 330.909662 444.266945 
L 330.909662 444.266945 
L 350.03517 438.445539 
L 368.429774 432.61653 
L 386.337112 426.705359 
L 386.337112 426.705359 
L 403.513528 420.803878 
L 420.446284 414.758024 
L 437.622717 408.392415 
L 454.799114 401.79493 
L 454.799114 401.79493 
L 473.071915 394.527528 
L 491.588321 386.910188 
L 509.982924 379.100911 
L 509.982924 379.100911 
L 528.986612 370.790493 
L 548.477583 362.021372 
L 568.699477 352.670135 
L 568.699477 352.670135 
L 588.190447 343.419978 
L 608.534144 333.520727 
L 628.390558 323.618369 
L 648.612453 313.287426 
L 648.612453 313.287426 
L 669.199754 302.507309 
L 688.447083 292.180472 
L 708.059893 281.400081 
L 728.281751 269.998036 
L 747.163636 259.073985 
L 747.163636 259.073985 
" clip-path="url(#p86e2976520)" style="fill: none; stroke: #ff7f0e; stroke-width: 2; stroke-linecap: square"/>
   </g>
   <g id="patch_3">
    <path d="M 108 512.64 
L 108 69.12 
" style="fill: none; stroke: #000000; stroke-width: 0.8; stroke-linejoin: miter; stroke-linecap: square"/>
   </g>
   <g id="patch_4">
    <path d="M 777.6 512.64 
L 777.6 69.12 
" style="fill: none; stroke: #000000; stroke-width: 0.8; stroke-linejoin: miter; stroke-linecap: square"/>
   </g>
   <g id="patch_5">
    <path d="M 108 512.64 
L 777.6 512.64 
" style="fill: none; stroke: #000000; stroke-width: 0.8; stroke-linejoin: miter; stroke-linecap: square"/>
   </g>
   <g id="patch_6">
    <path d="M 108 69.12 
L 777.6 69.12 
" style="fill: none; stroke: #000000; stroke-width: 0.8; stroke-linejoin: miter; stroke-linecap: square"/>
   </g>
   <g id="text_16">
    <!-- Price by TTM. Moneyness=0.9 -->
    <g transform="translate(292.407812 63.12) scale(0.2 -0.2)">
     <defs>
      <path id="DejaVuSans-62" d="M 3116 1747 
Q 3116 2381 2855 2742 
Q 2594 3103 2138 3103 
Q 1681 3103 1420 2742 
Q 1159 2381 1159 1747 
Q 1159 1113 1420 752 
Q 1681 391 2138 391 
Q 2594 391 2855 752 
Q 3116 1113 3116 1747 
z
M 1159 2969 
Q 1341 3281 1617 3432 
Q 1894 3584 2278 3584 
Q 2916 3584 3314 3078 
Q 3713 2572 3713 1747 
Q 3713 922 3314 415 
Q 2916 -91 2278 -91 
Q 1894 -91 1617 61 
Q 1341 213 1159 525 
L 1159 0 
L 581 0 
L 581 4863 
L 1159 4863 
L 1159 2969 
z
" transform="scale(0.015625)"/>
      <path id="DejaVuSans-79" d="M 2059 -325 
Q 1816 -950 1584 -1140 
Q 1353 -1331 966 -1331 
L 506 -1331 
L 506 -850 
L 844 -850 
Q 1081 -850 1212 -737 
Q 1344 -625 1503 -206 
L 1606 56 
L 191 3500 
L 800 3500 
L 1894 763 
L 2988 3500 
L 3597 3500 
L 2059 -325 
z
" transform="scale(0.015625)"/>
      <path id="DejaVuSans-6e" d="M 3513 2113 
L 3513 0 
L 2938 0 
L 2938 2094 
Q 2938 2591 2744 2837 
Q 2550 3084 2163 3084 
Q 1697 3084 1428 2787 
Q 1159 2491 1159 1978 
L 1159 0 
L 581 0 
L 581 3500 
L 1159 3500 
L 1159 2956 
Q 1366 3272 1645 3428 
Q 1925 3584 2291 3584 
Q 2894 3584 3203 3211 
Q 3513 2838 3513 2113 
z
" transform="scale(0.015625)"/>
      <path id="DejaVuSans-3d" d="M 678 2906 
L 4684 2906 
L 4684 2381 
L 678 2381 
L 678 2906 
z
M 678 1631 
L 4684 1631 
L 4684 1100 
L 678 1100 
L 678 1631 
z
" transform="scale(0.015625)"/>
      <path id="DejaVuSans-39" d="M 703 97 
L 703 672 
Q 941 559 1184 500 
Q 1428 441 1663 441 
Q 2288 441 2617 861 
Q 2947 1281 2994 2138 
Q 2813 1869 2534 1725 
Q 2256 1581 1919 1581 
Q 1219 1581 811 2004 
Q 403 2428 403 3163 
Q 403 3881 828 4315 
Q 1253 4750 1959 4750 
Q 2769 4750 3195 4129 
Q 3622 3509 3622 2328 
Q 3622 1225 3098 567 
Q 2575 -91 1691 -91 
Q 1453 -91 1209 -44 
Q 966 3 703 97 
z
M 1959 2075 
Q 2384 2075 2632 2365 
Q 2881 2656 2881 3163 
Q 2881 3666 2632 3958 
Q 2384 4250 1959 4250 
Q 1534 4250 1286 3958 
Q 1038 3666 1038 3163 
Q 1038 2656 1286 2365 
Q 1534 2075 1959 2075 
z
" transform="scale(0.015625)"/>
     </defs>
     <use xlink:href="#DejaVuSans-50"/>
     <use xlink:href="#DejaVuSans-72" x="58.552734"/>
     <use xlink:href="#DejaVuSans-69" x="99.666016"/>
     <use xlink:href="#DejaVuSans-63" x="127.449219"/>
     <use xlink:href="#DejaVuSans-65" x="182.429688"/>
     <use xlink:href="#DejaVuSans-20" x="243.953125"/>
     <use xlink:href="#DejaVuSans-62" x="275.740234"/>
     <use xlink:href="#DejaVuSans-79" x="339.216797"/>
     <use xlink:href="#DejaVuSans-20" x="398.396484"/>
     <use xlink:href="#DejaVuSans-54" x="430.183594"/>
     <use xlink:href="#DejaVuSans-54" x="489.517578"/>
     <use xlink:href="#DejaVuSans-4d" x="550.601562"/>
     <use xlink:href="#DejaVuSans-2e" x="636.880859"/>
     <use xlink:href="#DejaVuSans-20" x="668.667969"/>
     <use xlink:href="#DejaVuSans-4d" x="700.455078"/>
     <use xlink:href="#DejaVuSans-6f" x="786.734375"/>
     <use xlink:href="#DejaVuSans-6e" x="847.916016"/>
     <use xlink:href="#DejaVuSans-65" x="911.294922"/>
     <use xlink:href="#DejaVuSans-79" x="972.818359"/>
     <use xlink:href="#DejaVuSans-6e" x="1031.998047"/>
     <use xlink:href="#DejaVuSans-65" x="1095.376953"/>
     <use xlink:href="#DejaVuSans-73" x="1156.900391"/>
     <use xlink:href="#DejaVuSans-73" x="1209"/>
     <use xlink:href="#DejaVuSans-3d" x="1261.099609"/>
     <use xlink:href="#DejaVuSans-30" x="1344.888672"/>
     <use xlink:href="#DejaVuSans-2e" x="1408.511719"/>
     <use xlink:href="#DejaVuSans-39" x="1440.298828"/>
    </g>
   </g>
   <g id="legend_1">
    <g id="patch_7">
     <path d="M 120.6 136.36125 
L 287.018437 136.36125 
Q 290.618437 136.36125 290.618437 132.76125 
L 290.618437 81.72 
Q 290.618437 78.12 287.018437 78.12 
L 120.6 78.12 
Q 117 78.12 117 81.72 
L 117 132.76125 
Q 117 136.36125 120.6 136.36125 
z
" style="fill: #ffffff; opacity: 0.8; stroke: #cccccc; stroke-linejoin: miter"/>
    </g>
    <g id="line2d_29">
     <path d="M 124.2 92.697188 
L 142.2 92.697188 
L 160.2 92.697188 
" style="fill: none; stroke: #1f77b4; stroke-width: 2; stroke-linecap: square"/>
    </g>
    <g id="text_17">
     <!-- Monte Carlo -->
     <g transform="translate(174.6 98.997188) scale(0.18 -0.18)">
      <defs>
       <path id="DejaVuSans-43" d="M 4122 4306 
L 4122 3641 
Q 3803 3938 3442 4084 
Q 3081 4231 2675 4231 
Q 1875 4231 1450 3742 
Q 1025 3253 1025 2328 
Q 1025 1406 1450 917 
Q 1875 428 2675 428 
Q 3081 428 3442 575 
Q 3803 722 4122 1019 
L 4122 359 
Q 3791 134 3420 21 
Q 3050 -91 2638 -91 
Q 1578 -91 968 557 
Q 359 1206 359 2328 
Q 359 3453 968 4101 
Q 1578 4750 2638 4750 
Q 3056 4750 3426 4639 
Q 3797 4528 4122 4306 
z
" transform="scale(0.015625)"/>
       <path id="DejaVuSans-6c" d="M 603 4863 
L 1178 4863 
L 1178 0 
L 603 0 
L 603 4863 
z
" transform="scale(0.015625)"/>
      </defs>
      <use xlink:href="#DejaVuSans-4d"/>
      <use xlink:href="#DejaVuSans-6f" x="86.279297"/>
      <use xlink:href="#DejaVuSans-6e" x="147.460938"/>
      <use xlink:href="#DejaVuSans-74" x="210.839844"/>
      <use xlink:href="#DejaVuSans-65" x="250.048828"/>
      <use xlink:href="#DejaVuSans-20" x="311.572266"/>
      <use xlink:href="#DejaVuSans-43" x="343.359375"/>
      <use xlink:href="#DejaVuSans-61" x="413.183594"/>
      <use xlink:href="#DejaVuSans-72" x="474.462891"/>
      <use xlink:href="#DejaVuSans-6c" x="515.576172"/>
      <use xlink:href="#DejaVuSans-6f" x="543.359375"/>
     </g>
    </g>
    <g id="line2d_30">
     <path d="M 124.2 119.117813 
L 142.2 119.117813 
L 160.2 119.117813 
" style="fill: none; stroke: #ff7f0e; stroke-width: 2; stroke-linecap: square"/>
    </g>
    <g id="text_18">
     <!-- Positive net -->
     <g transform="translate(174.6 125.417813) scale(0.18 -0.18)">
      <defs>
       <path id="DejaVuSans-76" d="M 191 3500 
L 800 3500 
L 1894 563 
L 2988 3500 
L 3597 3500 
L 2284 0 
L 1503 0 
L 191 3500 
z
" transform="scale(0.015625)"/>
      </defs>
      <use xlink:href="#DejaVuSans-50"/>
      <use xlink:href="#DejaVuSans-6f" x="56.677734"/>
      <use xlink:href="#DejaVuSans-73" x="117.859375"/>
      <use xlink:href="#DejaVuSans-69" x="169.958984"/>
      <use xlink:href="#DejaVuSans-74" x="197.742188"/>
      <use xlink:href="#DejaVuSans-69" x="236.951172"/>
      <use xlink:href="#DejaVuSans-76" x="264.734375"/>
      <use xlink:href="#DejaVuSans-65" x="323.914062"/>
      <use xlink:href="#DejaVuSans-20" x="385.4375"/>
      <use xlink:href="#DejaVuSans-6e" x="417.224609"/>
      <use xlink:href="#DejaVuSans-65" x="480.603516"/>
      <use xlink:href="#DejaVuSans-74" x="542.126953"/>
     </g>
    </g>
   </g>
  </g>
 </g>
 <defs>
  <clipPath id="p86e2976520">
   <rect x="108" y="69.12" width="669.6" height="443.52"/>
  </clipPath>
 </defs>
</svg>
