<?xml version="1.0" encoding="utf-8" standalone="no"?>
<!DOCTYPE svg PUBLIC "-//W3C//DTD SVG 1.1//EN"
  "http://www.w3.org/Graphics/SVG/1.1/DTD/svg11.dtd">
<svg xmlns:xlink="http://www.w3.org/1999/xlink" width="864pt" height="576pt" viewBox="0 0 864 576" xmlns="http://www.w3.org/2000/svg" version="1.1">
 <metadata>
  <rdf:RDF xmlns:dc="http://purl.org/dc/elements/1.1/" xmlns:cc="http://creativecommons.org/ns#" xmlns:rdf="http://www.w3.org/1999/02/22-rdf-syntax-ns#">
   <cc:Work>
    <dc:type rdf:resource="http://purl.org/dc/dcmitype/StillImage"/>
    <dc:date>2024-02-24T19:31:09.165518</dc:date>
    <dc:format>image/svg+xml</dc:format>
    <dc:creator>
     <cc:Agent>
      <dc:title>Matplotlib v3.7.3, https://matplotlib.org/</dc:title>
     </cc:Agent>
    </dc:creator>
   </cc:Work>
  </rdf:RDF>
 </metadata>
 <defs>
  <style type="text/css">*{stroke-linejoin: round; stroke-linecap: butt}</style>
 </defs>
 <g id="figure_1">
  <g id="patch_1">
   <path d="M 0 576 
L 864 576 
L 864 0 
L 0 0 
z
" style="fill: #ffffff"/>
  </g>
  <g id="axes_1">
   <g id="patch_2">
    <path d="M 108 512.64 
L 777.6 512.64 
L 777.6 69.12 
L 108 69.12 
z
" style="fill: #ffffff"/>
   </g>
   <g id="matplotlib.axis_1">
    <g id="xtick_1">
     <g id="line2d_1">
      <path d="M 199.180886 512.64 
L 199.180886 69.12 
" clip-path="url(#p8a13e6eb30)" style="fill: none; stroke: #b0b0b0; stroke-width: 0.8; stroke-linecap: square"/>
     </g>
     <g id="line2d_2">
      <defs>
       <path id="mc0dfdf8ad7" d="M 0 0 
L 0 3.5 
" style="stroke: #000000; stroke-width: 0.8"/>
      </defs>
      <g>
       <use xlink:href="#mc0dfdf8ad7" x="199.180886" y="512.64" style="stroke: #000000; stroke-width: 0.8"/>
      </g>
     </g>
     <g id="text_1">
      <!-- 0.6 -->
      <g transform="translate(191.229324 527.238438) scale(0.1 -0.1)">
       <defs>
        <path id="DejaVuSans-30" d="M 2034 4250 
Q 1547 4250 1301 3770 
Q 1056 3291 1056 2328 
Q 1056 1369 1301 889 
Q 1547 409 2034 409 
Q 2525 409 2770 889 
Q 3016 1369 3016 2328 
Q 3016 3291 2770 3770 
Q 2525 4250 2034 4250 
z
M 2034 4750 
Q 2819 4750 3233 4129 
Q 3647 3509 3647 2328 
Q 3647 1150 3233 529 
Q 2819 -91 2034 -91 
Q 1250 -91 836 529 
Q 422 1150 422 2328 
Q 422 3509 836 4129 
Q 1250 4750 2034 4750 
z
" transform="scale(0.015625)"/>
        <path id="DejaVuSans-2e" d="M 684 794 
L 1344 794 
L 1344 0 
L 684 0 
L 684 794 
z
" transform="scale(0.015625)"/>
        <path id="DejaVuSans-36" d="M 2113 2584 
Q 1688 2584 1439 2293 
Q 1191 2003 1191 1497 
Q 1191 994 1439 701 
Q 1688 409 2113 409 
Q 2538 409 2786 701 
Q 3034 994 3034 1497 
Q 3034 2003 2786 2293 
Q 2538 2584 2113 2584 
z
M 3366 4563 
L 3366 3988 
Q 3128 4100 2886 4159 
Q 2644 4219 2406 4219 
Q 1781 4219 1451 3797 
Q 1122 3375 1075 2522 
Q 1259 2794 1537 2939 
Q 1816 3084 2150 3084 
Q 2853 3084 3261 2657 
Q 3669 2231 3669 1497 
Q 3669 778 3244 343 
Q 2819 -91 2113 -91 
Q 1303 -91 875 529 
Q 447 1150 447 2328 
Q 447 3434 972 4092 
Q 1497 4750 2381 4750 
Q 2619 4750 2861 4703 
Q 3103 4656 3366 4563 
z
" transform="scale(0.015625)"/>
       </defs>
       <use xlink:href="#DejaVuSans-30"/>
       <use xlink:href="#DejaVuSans-2e" x="63.623047"/>
       <use xlink:href="#DejaVuSans-36" x="95.410156"/>
      </g>
     </g>
    </g>
    <g id="xtick_2">
     <g id="line2d_3">
      <path d="M 321.28043 512.64 
L 321.28043 69.12 
" clip-path="url(#p8a13e6eb30)" style="fill: none; stroke: #b0b0b0; stroke-width: 0.8; stroke-linecap: square"/>
     </g>
     <g id="line2d_4">
      <g>
       <use xlink:href="#mc0dfdf8ad7" x="321.28043" y="512.64" style="stroke: #000000; stroke-width: 0.8"/>
      </g>
     </g>
     <g id="text_2">
      <!-- 0.8 -->
      <g transform="translate(313.328867 527.238438) scale(0.1 -0.1)">
       <defs>
        <path id="DejaVuSans-38" d="M 2034 2216 
Q 1584 2216 1326 1975 
Q 1069 1734 1069 1313 
Q 1069 891 1326 650 
Q 1584 409 2034 409 
Q 2484 409 2743 651 
Q 3003 894 3003 1313 
Q 3003 1734 2745 1975 
Q 2488 2216 2034 2216 
z
M 1403 2484 
Q 997 2584 770 2862 
Q 544 3141 544 3541 
Q 544 4100 942 4425 
Q 1341 4750 2034 4750 
Q 2731 4750 3128 4425 
Q 3525 4100 3525 3541 
Q 3525 3141 3298 2862 
Q 3072 2584 2669 2484 
Q 3125 2378 3379 2068 
Q 3634 1759 3634 1313 
Q 3634 634 3220 271 
Q 2806 -91 2034 -91 
Q 1263 -91 848 271 
Q 434 634 434 1313 
Q 434 1759 690 2068 
Q 947 2378 1403 2484 
z
M 1172 3481 
Q 1172 3119 1398 2916 
Q 1625 2713 2034 2713 
Q 2441 2713 2670 2916 
Q 2900 3119 2900 3481 
Q 2900 3844 2670 4047 
Q 2441 4250 2034 4250 
Q 1625 4250 1398 4047 
Q 1172 3844 1172 3481 
z
" transform="scale(0.015625)"/>
       </defs>
       <use xlink:href="#DejaVuSans-30"/>
       <use xlink:href="#DejaVuSans-2e" x="63.623047"/>
       <use xlink:href="#DejaVuSans-38" x="95.410156"/>
      </g>
     </g>
    </g>
    <g id="xtick_3">
     <g id="line2d_5">
      <path d="M 443.379973 512.64 
L 443.379973 69.12 
" clip-path="url(#p8a13e6eb30)" style="fill: none; stroke: #b0b0b0; stroke-width: 0.8; stroke-linecap: square"/>
     </g>
     <g id="line2d_6">
      <g>
       <use xlink:href="#mc0dfdf8ad7" x="443.379973" y="512.64" style="stroke: #000000; stroke-width: 0.8"/>
      </g>
     </g>
     <g id="text_3">
      <!-- 1.0 -->
      <g transform="translate(435.42841 527.238438) scale(0.1 -0.1)">
       <defs>
        <path id="DejaVuSans-31" d="M 794 531 
L 1825 531 
L 1825 4091 
L 703 3866 
L 703 4441 
L 1819 4666 
L 2450 4666 
L 2450 531 
L 3481 531 
L 3481 0 
L 794 0 
L 794 531 
z
" transform="scale(0.015625)"/>
       </defs>
       <use xlink:href="#DejaVuSans-31"/>
       <use xlink:href="#DejaVuSans-2e" x="63.623047"/>
       <use xlink:href="#DejaVuSans-30" x="95.410156"/>
      </g>
     </g>
    </g>
    <g id="xtick_4">
     <g id="line2d_7">
      <path d="M 565.479516 512.64 
L 565.479516 69.12 
" clip-path="url(#p8a13e6eb30)" style="fill: none; stroke: #b0b0b0; stroke-width: 0.8; stroke-linecap: square"/>
     </g>
     <g id="line2d_8">
      <g>
       <use xlink:href="#mc0dfdf8ad7" x="565.479516" y="512.64" style="stroke: #000000; stroke-width: 0.8"/>
      </g>
     </g>
     <g id="text_4">
      <!-- 1.2 -->
      <g transform="translate(557.527954 527.238438) scale(0.1 -0.1)">
       <defs>
        <path id="DejaVuSans-32" d="M 1228 531 
L 3431 531 
L 3431 0 
L 469 0 
L 469 531 
Q 828 903 1448 1529 
Q 2069 2156 2228 2338 
Q 2531 2678 2651 2914 
Q 2772 3150 2772 3378 
Q 2772 3750 2511 3984 
Q 2250 4219 1831 4219 
Q 1534 4219 1204 4116 
Q 875 4013 500 3803 
L 500 4441 
Q 881 4594 1212 4672 
Q 1544 4750 1819 4750 
Q 2544 4750 2975 4387 
Q 3406 4025 3406 3419 
Q 3406 3131 3298 2873 
Q 3191 2616 2906 2266 
Q 2828 2175 2409 1742 
Q 1991 1309 1228 531 
z
" transform="scale(0.015625)"/>
       </defs>
       <use xlink:href="#DejaVuSans-31"/>
       <use xlink:href="#DejaVuSans-2e" x="63.623047"/>
       <use xlink:href="#DejaVuSans-32" x="95.410156"/>
      </g>
     </g>
    </g>
    <g id="xtick_5">
     <g id="line2d_9">
      <path d="M 687.579059 512.64 
L 687.579059 69.12 
" clip-path="url(#p8a13e6eb30)" style="fill: none; stroke: #b0b0b0; stroke-width: 0.8; stroke-linecap: square"/>
     </g>
     <g id="line2d_10">
      <g>
       <use xlink:href="#mc0dfdf8ad7" x="687.579059" y="512.64" style="stroke: #000000; stroke-width: 0.8"/>
      </g>
     </g>
     <g id="text_5">
      <!-- 1.4 -->
      <g transform="translate(679.627497 527.238438) scale(0.1 -0.1)">
       <defs>
        <path id="DejaVuSans-34" d="M 2419 4116 
L 825 1625 
L 2419 1625 
L 2419 4116 
z
M 2253 4666 
L 3047 4666 
L 3047 1625 
L 3713 1625 
L 3713 1100 
L 3047 1100 
L 3047 0 
L 2419 0 
L 2419 1100 
L 313 1100 
L 313 1709 
L 2253 4666 
z
" transform="scale(0.015625)"/>
       </defs>
       <use xlink:href="#DejaVuSans-31"/>
       <use xlink:href="#DejaVuSans-2e" x="63.623047"/>
       <use xlink:href="#DejaVuSans-34" x="95.410156"/>
      </g>
     </g>
    </g>
    <g id="text_6">
     <!-- TTM -->
     <g transform="translate(424.198125 546.995312) scale(0.18 -0.18)">
      <defs>
       <path id="DejaVuSans-54" d="M -19 4666 
L 3928 4666 
L 3928 4134 
L 2272 4134 
L 2272 0 
L 1638 0 
L 1638 4134 
L -19 4134 
L -19 4666 
z
" transform="scale(0.015625)"/>
       <path id="DejaVuSans-4d" d="M 628 4666 
L 1569 4666 
L 2759 1491 
L 3956 4666 
L 4897 4666 
L 4897 0 
L 4281 0 
L 4281 4097 
L 3078 897 
L 2444 897 
L 1241 4097 
L 1241 0 
L 628 0 
L 628 4666 
z
" transform="scale(0.015625)"/>
      </defs>
      <use xlink:href="#DejaVuSans-54"/>
      <use xlink:href="#DejaVuSans-54" x="59.333984"/>
      <use xlink:href="#DejaVuSans-4d" x="120.417969"/>
     </g>
    </g>
   </g>
   <g id="matplotlib.axis_2">
    <g id="ytick_1">
     <g id="line2d_11">
      <path d="M 108 501.520359 
L 777.6 501.520359 
" clip-path="url(#p8a13e6eb30)" style="fill: none; stroke: #b0b0b0; stroke-width: 0.8; stroke-linecap: square"/>
     </g>
     <g id="line2d_12">
      <defs>
       <path id="m01dabe7530" d="M 0 0 
L -3.5 0 
" style="stroke: #000000; stroke-width: 0.8"/>
      </defs>
      <g>
       <use xlink:href="#m01dabe7530" x="108" y="501.520359" style="stroke: #000000; stroke-width: 0.8"/>
      </g>
     </g>
     <g id="text_7">
      <!-- 0.020 -->
      <g transform="translate(72.371875 505.319577) scale(0.1 -0.1)">
       <use xlink:href="#DejaVuSans-30"/>
       <use xlink:href="#DejaVuSans-2e" x="63.623047"/>
       <use xlink:href="#DejaVuSans-30" x="95.410156"/>
       <use xlink:href="#DejaVuSans-32" x="159.033203"/>
       <use xlink:href="#DejaVuSans-30" x="222.65625"/>
      </g>
     </g>
    </g>
    <g id="ytick_2">
     <g id="line2d_13">
      <path d="M 108 411.116771 
L 777.6 411.116771 
" clip-path="url(#p8a13e6eb30)" style="fill: none; stroke: #b0b0b0; stroke-width: 0.8; stroke-linecap: square"/>
     </g>
     <g id="line2d_14">
      <g>
       <use xlink:href="#m01dabe7530" x="108" y="411.116771" style="stroke: #000000; stroke-width: 0.8"/>
      </g>
     </g>
     <g id="text_8">
      <!-- 0.025 -->
      <g transform="translate(72.371875 414.91599) scale(0.1 -0.1)">
       <defs>
        <path id="DejaVuSans-35" d="M 691 4666 
L 3169 4666 
L 3169 4134 
L 1269 4134 
L 1269 2991 
Q 1406 3038 1543 3061 
Q 1681 3084 1819 3084 
Q 2600 3084 3056 2656 
Q 3513 2228 3513 1497 
Q 3513 744 3044 326 
Q 2575 -91 1722 -91 
Q 1428 -91 1123 -41 
Q 819 9 494 109 
L 494 744 
Q 775 591 1075 516 
Q 1375 441 1709 441 
Q 2250 441 2565 725 
Q 2881 1009 2881 1497 
Q 2881 1984 2565 2268 
Q 2250 2553 1709 2553 
Q 1456 2553 1204 2497 
Q 953 2441 691 2322 
L 691 4666 
z
" transform="scale(0.015625)"/>
       </defs>
       <use xlink:href="#DejaVuSans-30"/>
       <use xlink:href="#DejaVuSans-2e" x="63.623047"/>
       <use xlink:href="#DejaVuSans-30" x="95.410156"/>
       <use xlink:href="#DejaVuSans-32" x="159.033203"/>
       <use xlink:href="#DejaVuSans-35" x="222.65625"/>
      </g>
     </g>
    </g>
    <g id="ytick_3">
     <g id="line2d_15">
      <path d="M 108 320.713184 
L 777.6 320.713184 
" clip-path="url(#p8a13e6eb30)" style="fill: none; stroke: #b0b0b0; stroke-width: 0.8; stroke-linecap: square"/>
     </g>
     <g id="line2d_16">
      <g>
       <use xlink:href="#m01dabe7530" x="108" y="320.713184" style="stroke: #000000; stroke-width: 0.8"/>
      </g>
     </g>
     <g id="text_9">
      <!-- 0.030 -->
      <g transform="translate(72.371875 324.512403) scale(0.1 -0.1)">
       <defs>
        <path id="DejaVuSans-33" d="M 2597 2516 
Q 3050 2419 3304 2112 
Q 3559 1806 3559 1356 
Q 3559 666 3084 287 
Q 2609 -91 1734 -91 
Q 1441 -91 1130 -33 
Q 819 25 488 141 
L 488 750 
Q 750 597 1062 519 
Q 1375 441 1716 441 
Q 2309 441 2620 675 
Q 2931 909 2931 1356 
Q 2931 1769 2642 2001 
Q 2353 2234 1838 2234 
L 1294 2234 
L 1294 2753 
L 1863 2753 
Q 2328 2753 2575 2939 
Q 2822 3125 2822 3475 
Q 2822 3834 2567 4026 
Q 2313 4219 1838 4219 
Q 1578 4219 1281 4162 
Q 984 4106 628 3988 
L 628 4550 
Q 988 4650 1302 4700 
Q 1616 4750 1894 4750 
Q 2613 4750 3031 4423 
Q 3450 4097 3450 3541 
Q 3450 3153 3228 2886 
Q 3006 2619 2597 2516 
z
" transform="scale(0.015625)"/>
       </defs>
       <use xlink:href="#DejaVuSans-30"/>
       <use xlink:href="#DejaVuSans-2e" x="63.623047"/>
       <use xlink:href="#DejaVuSans-30" x="95.410156"/>
       <use xlink:href="#DejaVuSans-33" x="159.033203"/>
       <use xlink:href="#DejaVuSans-30" x="222.65625"/>
      </g>
     </g>
    </g>
    <g id="ytick_4">
     <g id="line2d_17">
      <path d="M 108 230.309596 
L 777.6 230.309596 
" clip-path="url(#p8a13e6eb30)" style="fill: none; stroke: #b0b0b0; stroke-width: 0.8; stroke-linecap: square"/>
     </g>
     <g id="line2d_18">
      <g>
       <use xlink:href="#m01dabe7530" x="108" y="230.309596" style="stroke: #000000; stroke-width: 0.8"/>
      </g>
     </g>
     <g id="text_10">
      <!-- 0.035 -->
      <g transform="translate(72.371875 234.108815) scale(0.1 -0.1)">
       <use xlink:href="#DejaVuSans-30"/>
       <use xlink:href="#DejaVuSans-2e" x="63.623047"/>
       <use xlink:href="#DejaVuSans-30" x="95.410156"/>
       <use xlink:href="#DejaVuSans-33" x="159.033203"/>
       <use xlink:href="#DejaVuSans-35" x="222.65625"/>
      </g>
     </g>
    </g>
    <g id="ytick_5">
     <g id="line2d_19">
      <path d="M 108 139.906009 
L 777.6 139.906009 
" clip-path="url(#p8a13e6eb30)" style="fill: none; stroke: #b0b0b0; stroke-width: 0.8; stroke-linecap: square"/>
     </g>
     <g id="line2d_20">
      <g>
       <use xlink:href="#m01dabe7530" x="108" y="139.906009" style="stroke: #000000; stroke-width: 0.8"/>
      </g>
     </g>
     <g id="text_11">
      <!-- 0.040 -->
      <g transform="translate(72.371875 143.705228) scale(0.1 -0.1)">
       <use xlink:href="#DejaVuSans-30"/>
       <use xlink:href="#DejaVuSans-2e" x="63.623047"/>
       <use xlink:href="#DejaVuSans-30" x="95.410156"/>
       <use xlink:href="#DejaVuSans-34" x="159.033203"/>
       <use xlink:href="#DejaVuSans-30" x="222.65625"/>
      </g>
     </g>
    </g>
    <g id="text_12">
     <!-- Price/strike ratio -->
     <g transform="translate(64.628438 364.318594) rotate(-90) scale(0.18 -0.18)">
      <defs>
       <path id="DejaVuSans-50" d="M 1259 4147 
L 1259 2394 
L 2053 2394 
Q 2494 2394 2734 2622 
Q 2975 2850 2975 3272 
Q 2975 3691 2734 3919 
Q 2494 4147 2053 4147 
L 1259 4147 
z
M 628 4666 
L 2053 4666 
Q 2838 4666 3239 4311 
Q 3641 3956 3641 3272 
Q 3641 2581 3239 2228 
Q 2838 1875 2053 1875 
L 1259 1875 
L 1259 0 
L 628 0 
L 628 4666 
z
" transform="scale(0.015625)"/>
       <path id="DejaVuSans-72" d="M 2631 2963 
Q 2534 3019 2420 3045 
Q 2306 3072 2169 3072 
Q 1681 3072 1420 2755 
Q 1159 2438 1159 1844 
L 1159 0 
L 581 0 
L 581 3500 
L 1159 3500 
L 1159 2956 
Q 1341 3275 1631 3429 
Q 1922 3584 2338 3584 
Q 2397 3584 2469 3576 
Q 2541 3569 2628 3553 
L 2631 2963 
z
" transform="scale(0.015625)"/>
       <path id="DejaVuSans-69" d="M 603 3500 
L 1178 3500 
L 1178 0 
L 603 0 
L 603 3500 
z
M 603 4863 
L 1178 4863 
L 1178 4134 
L 603 4134 
L 603 4863 
z
" transform="scale(0.015625)"/>
       <path id="DejaVuSans-63" d="M 3122 3366 
L 3122 2828 
Q 2878 2963 2633 3030 
Q 2388 3097 2138 3097 
Q 1578 3097 1268 2742 
Q 959 2388 959 1747 
Q 959 1106 1268 751 
Q 1578 397 2138 397 
Q 2388 397 2633 464 
Q 2878 531 3122 666 
L 3122 134 
Q 2881 22 2623 -34 
Q 2366 -91 2075 -91 
Q 1284 -91 818 406 
Q 353 903 353 1747 
Q 353 2603 823 3093 
Q 1294 3584 2113 3584 
Q 2378 3584 2631 3529 
Q 2884 3475 3122 3366 
z
" transform="scale(0.015625)"/>
       <path id="DejaVuSans-65" d="M 3597 1894 
L 3597 1613 
L 953 1613 
Q 991 1019 1311 708 
Q 1631 397 2203 397 
Q 2534 397 2845 478 
Q 3156 559 3463 722 
L 3463 178 
Q 3153 47 2828 -22 
Q 2503 -91 2169 -91 
Q 1331 -91 842 396 
Q 353 884 353 1716 
Q 353 2575 817 3079 
Q 1281 3584 2069 3584 
Q 2775 3584 3186 3129 
Q 3597 2675 3597 1894 
z
M 3022 2063 
Q 3016 2534 2758 2815 
Q 2500 3097 2075 3097 
Q 1594 3097 1305 2825 
Q 1016 2553 972 2059 
L 3022 2063 
z
" transform="scale(0.015625)"/>
       <path id="DejaVuSans-2f" d="M 1625 4666 
L 2156 4666 
L 531 -594 
L 0 -594 
L 1625 4666 
z
" transform="scale(0.015625)"/>
       <path id="DejaVuSans-73" d="M 2834 3397 
L 2834 2853 
Q 2591 2978 2328 3040 
Q 2066 3103 1784 3103 
Q 1356 3103 1142 2972 
Q 928 2841 928 2578 
Q 928 2378 1081 2264 
Q 1234 2150 1697 2047 
L 1894 2003 
Q 2506 1872 2764 1633 
Q 3022 1394 3022 966 
Q 3022 478 2636 193 
Q 2250 -91 1575 -91 
Q 1294 -91 989 -36 
Q 684 19 347 128 
L 347 722 
Q 666 556 975 473 
Q 1284 391 1588 391 
Q 1994 391 2212 530 
Q 2431 669 2431 922 
Q 2431 1156 2273 1281 
Q 2116 1406 1581 1522 
L 1381 1569 
Q 847 1681 609 1914 
Q 372 2147 372 2553 
Q 372 3047 722 3315 
Q 1072 3584 1716 3584 
Q 2034 3584 2315 3537 
Q 2597 3491 2834 3397 
z
" transform="scale(0.015625)"/>
       <path id="DejaVuSans-74" d="M 1172 4494 
L 1172 3500 
L 2356 3500 
L 2356 3053 
L 1172 3053 
L 1172 1153 
Q 1172 725 1289 603 
Q 1406 481 1766 481 
L 2356 481 
L 2356 0 
L 1766 0 
Q 1100 0 847 248 
Q 594 497 594 1153 
L 594 3053 
L 172 3053 
L 172 3500 
L 594 3500 
L 594 4494 
L 1172 4494 
z
" transform="scale(0.015625)"/>
       <path id="DejaVuSans-6b" d="M 581 4863 
L 1159 4863 
L 1159 1991 
L 2875 3500 
L 3609 3500 
L 1753 1863 
L 3688 0 
L 2938 0 
L 1159 1709 
L 1159 0 
L 581 0 
L 581 4863 
z
" transform="scale(0.015625)"/>
       <path id="DejaVuSans-20" transform="scale(0.015625)"/>
       <path id="DejaVuSans-61" d="M 2194 1759 
Q 1497 1759 1228 1600 
Q 959 1441 959 1056 
Q 959 750 1161 570 
Q 1363 391 1709 391 
Q 2188 391 2477 730 
Q 2766 1069 2766 1631 
L 2766 1759 
L 2194 1759 
z
M 3341 1997 
L 3341 0 
L 2766 0 
L 2766 531 
Q 2569 213 2275 61 
Q 1981 -91 1556 -91 
Q 1019 -91 701 211 
Q 384 513 384 1019 
Q 384 1609 779 1909 
Q 1175 2209 1959 2209 
L 2766 2209 
L 2766 2266 
Q 2766 2663 2505 2880 
Q 2244 3097 1772 3097 
Q 1472 3097 1187 3025 
Q 903 2953 641 2809 
L 641 3341 
Q 956 3463 1253 3523 
Q 1550 3584 1831 3584 
Q 2591 3584 2966 3190 
Q 3341 2797 3341 1997 
z
" transform="scale(0.015625)"/>
       <path id="DejaVuSans-6f" d="M 1959 3097 
Q 1497 3097 1228 2736 
Q 959 2375 959 1747 
Q 959 1119 1226 758 
Q 1494 397 1959 397 
Q 2419 397 2687 759 
Q 2956 1122 2956 1747 
Q 2956 2369 2687 2733 
Q 2419 3097 1959 3097 
z
M 1959 3584 
Q 2709 3584 3137 3096 
Q 3566 2609 3566 1747 
Q 3566 888 3137 398 
Q 2709 -91 1959 -91 
Q 1206 -91 779 398 
Q 353 888 353 1747 
Q 353 2609 779 3096 
Q 1206 3584 1959 3584 
z
" transform="scale(0.015625)"/>
      </defs>
      <use xlink:href="#DejaVuSans-50"/>
      <use xlink:href="#DejaVuSans-72" x="58.552734"/>
      <use xlink:href="#DejaVuSans-69" x="99.666016"/>
      <use xlink:href="#DejaVuSans-63" x="127.449219"/>
      <use xlink:href="#DejaVuSans-65" x="182.429688"/>
      <use xlink:href="#DejaVuSans-2f" x="243.953125"/>
      <use xlink:href="#DejaVuSans-73" x="277.644531"/>
      <use xlink:href="#DejaVuSans-74" x="329.744141"/>
      <use xlink:href="#DejaVuSans-72" x="368.953125"/>
      <use xlink:href="#DejaVuSans-69" x="410.066406"/>
      <use xlink:href="#DejaVuSans-6b" x="437.849609"/>
      <use xlink:href="#DejaVuSans-65" x="492.134766"/>
      <use xlink:href="#DejaVuSans-20" x="553.658203"/>
      <use xlink:href="#DejaVuSans-72" x="585.445312"/>
      <use xlink:href="#DejaVuSans-61" x="626.558594"/>
      <use xlink:href="#DejaVuSans-74" x="687.837891"/>
      <use xlink:href="#DejaVuSans-69" x="727.046875"/>
      <use xlink:href="#DejaVuSans-6f" x="754.830078"/>
     </g>
    </g>
   </g>
   <g id="line2d_21">
    <path d="M 138.436364 389.41991 
L 139.41316 398.460269 
L 140.023658 380.379552 
L 140.756255 387.611839 
L 141.488852 391.227982 
L 141.610952 376.763408 
L 141.672002 398.460269 
L 141.733051 391.227982 
L 143.137196 376.763408 
L 143.625594 378.57148 
L 143.686644 391.227982 
L 143.808744 382.187623 
L 144.72449 385.803767 
L 145.151839 383.995695 
L 145.334988 383.995695 
L 145.457087 380.379552 
L 146.372834 374.955336 
L 146.494933 394.844126 
L 146.678083 373.147265 
L 148.631675 371.339193 
L 149.669522 374.955336 
L 150.21897 373.147265 
L 151.012617 376.763408 
L 151.928363 385.803767 
L 151.989413 382.187623 
L 152.599911 371.339193 
L 152.599911 371.339193 
L 152.78306 394.844126 
L 153.210408 393.036054 
L 154.370354 385.803767 
L 154.492454 376.763408 
L 156.446046 365.914978 
L 156.690245 376.763408 
L 159.254336 369.531121 
L 159.315386 378.57148 
L 160.90268 380.379552 
L 161.207928 376.763408 
L 161.330028 382.187623 
L 162.062625 385.803767 
L 162.062625 365.914978 
L 162.184725 378.57148 
L 162.367874 376.763408 
L 163.52782 367.723049 
L 164.748815 374.955336 
L 166.763458 362.298834 
L 167.129756 346.026188 
L 167.984453 373.147265 
L 168.594951 378.57148 
L 168.7781 369.531121 
L 170.426444 373.147265 
L 171.647439 349.642332 
L 173.295783 376.763408 
L 174.27258 382.187623 
L 174.333629 356.874619 
L 174.699928 376.763408 
L 175.005177 362.298834 
L 175.615675 358.682691 
L 175.859874 371.339193 
L 175.920923 364.106906 
L 176.104073 374.955336 
L 176.531421 367.723049 
L 176.531421 367.723049 
L 177.019819 373.147265 
L 177.691367 356.874619 
L 179.095512 364.106906 
L 183.979493 356.874619 
L 184.284742 365.914978 
L 185.139439 358.682691 
L 185.627837 360.490762 
L 186.909882 351.450404 
L 187.39828 365.914978 
L 187.886679 358.682691 
L 188.436127 360.490762 
L 188.436127 355.066547 
L 188.558226 365.914978 
L 189.168724 351.450404 
L 190.20657 349.642332 
L 190.450769 369.531121 
L 191.244416 356.874619 
L 192.099113 373.147265 
L 193.625357 362.298834 
L 193.747457 356.874619 
L 194.357954 344.218117 
L 194.541104 358.682691 
L 196.311547 362.298834 
L 196.555746 356.874619 
L 197.715692 355.066547 
L 197.898841 342.410045 
L 198.936687 342.410045 
L 200.401882 351.450404 
L 202.782823 355.066547 
L 202.904922 342.410045 
L 203.210171 351.450404 
L 203.63752 355.066547 
L 204.492217 355.066547 
L 204.553266 338.793901 
L 204.858515 340.601973 
L 205.652162 349.642332 
L 205.835311 342.410045 
L 206.32371 364.106906 
L 206.445809 344.218117 
L 206.445809 344.218117 
L 206.995257 367.723049 
L 206.995257 355.066547 
L 207.178406 367.723049 
L 207.300506 356.874619 
L 208.033103 338.793901 
L 209.070949 358.682691 
L 209.131999 342.410045 
L 209.315148 335.177758 
L 209.437248 356.874619 
L 209.803547 342.410045 
L 210.841393 351.450404 
L 212.001338 347.83426 
L 212.428687 369.531121 
L 212.550786 353.258475 
L 214.443329 347.83426 
L 214.504379 340.601973 
L 215.114877 338.793901 
L 216.580071 344.218117 
L 217.434768 353.258475 
L 217.923166 356.874619 
L 217.984216 340.601973 
L 220.182008 336.98583 
L 220.487257 347.83426 
L 220.548306 371.339193 
L 221.708252 335.177758 
L 221.891401 338.793901 
L 222.31875 360.490762 
L 222.3798 358.682691 
L 222.440849 333.369686 
L 222.440849 346.026188 
L 223.173447 333.369686 
L 224.638641 349.642332 
L 225.249139 340.601973 
L 226.409085 327.945471 
L 226.775383 351.450404 
L 227.996379 336.98583 
L 228.240578 338.793901 
L 229.034225 331.561614 
L 230.865718 338.793901 
L 230.926768 342.410045 
L 233.00246 335.177758 
L 233.368758 336.98583 
L 233.735057 344.218117 
L 233.918206 342.410045 
L 234.101356 331.561614 
L 234.528704 327.945471 
L 234.528704 342.410045 
L 234.956053 333.369686 
L 235.017102 353.258475 
L 236.421247 336.98583 
L 236.848595 338.793901 
L 237.459093 342.410045 
L 237.947491 336.98583 
L 238.25274 322.521256 
L 239.473736 342.410045 
L 240.084233 347.83426 
L 242.343075 347.83426 
L 242.404125 364.106906 
L 242.465174 331.561614 
L 243.503021 331.561614 
L 243.991419 340.601973 
L 244.235618 333.369686 
L 244.357717 322.521256 
L 245.578713 326.137399 
L 246.555509 329.753543 
L 246.616559 327.945471 
L 247.837554 342.410045 
L 248.325953 333.369686 
L 248.570152 322.521256 
L 248.753301 331.561614 
L 248.93645 329.753543 
L 249.913247 340.601973 
L 250.767943 347.83426 
L 251.317391 327.945471 
L 251.988939 333.369686 
L 252.965735 320.713184 
L 253.148884 326.137399 
L 253.148884 309.864753 
L 253.820432 344.218117 
L 254.003581 324.329327 
L 256.140323 324.329327 
L 257.178169 308.056682 
L 258.887563 320.713184 
L 259.864359 338.793901 
L 259.986459 324.329327 
L 260.291708 342.410045 
L 260.535907 320.713184 
L 261.207454 300.824395 
L 261.512703 326.137399 
L 262.550549 327.945471 
L 262.550549 317.09704 
L 262.977898 318.905112 
L 263.588395 329.753543 
L 264.198893 331.561614 
L 265.480938 315.288969 
L 265.969337 322.521256 
L 266.152486 336.98583 
L 266.335635 326.137399 
L 266.824033 318.905112 
L 269.449174 331.561614 
L 270.181771 317.09704 
L 270.914368 309.864753 
L 272.562712 336.98583 
L 272.684811 322.521256 
L 273.539508 331.561614 
L 275.309952 324.329327 
L 276.164648 322.521256 
L 276.653047 322.521256 
L 277.080395 333.369686 
L 277.996142 304.440538 
L 279.095037 308.056682 
L 279.400286 300.824395 
L 279.705535 313.480897 
L 280.132884 320.713184 
L 280.926531 317.09704 
L 280.98758 308.056682 
L 281.10968 326.137399 
L 282.513825 306.24861 
L 283.185372 322.521256 
L 283.73482 322.521256 
L 283.917969 320.713184 
L 283.979019 327.945471 
L 284.162168 308.056682 
L 284.711616 322.521256 
L 284.955816 306.24861 
L 285.138965 315.288969 
L 285.810512 315.288969 
L 286.604159 329.753543 
L 286.848358 338.793901 
L 287.825155 322.521256 
L 287.886205 313.480897 
L 288.496702 309.864753 
L 288.496702 320.713184 
L 288.863001 320.713184 
L 289.290349 329.753543 
L 289.473499 313.480897 
L 289.717698 329.753543 
L 289.839797 302.632466 
L 290.999743 326.137399 
L 292.831236 302.632466 
L 293.075435 327.945471 
L 293.075435 315.288969 
L 293.685933 295.400179 
L 294.235381 306.24861 
L 294.235381 306.24861 
L 294.662729 306.24861 
L 294.784829 299.016323 
L 294.967978 295.400179 
L 295.334277 302.632466 
L 295.761625 315.288969 
L 295.944774 306.24861 
L 296.005824 309.864753 
L 296.127924 291.784036 
L 296.311073 313.480897 
L 296.799471 311.672825 
L 297.959417 304.440538 
L 298.203616 309.864753 
L 298.630964 311.672825 
L 298.753064 300.824395 
L 300.157209 315.288969 
L 301.378204 308.056682 
L 302.232901 295.400179 
L 302.4771 297.208251 
L 302.4771 295.400179 
L 303.575996 302.632466 
L 304.369643 309.864753 
L 304.491742 326.137399 
L 304.858041 302.632466 
L 305.04119 304.440538 
L 305.04119 302.632466 
L 305.16329 306.24861 
L 305.22434 297.208251 
L 305.468539 315.288969 
L 306.017987 295.400179 
L 306.201136 317.09704 
L 306.384285 309.864753 
L 306.628484 289.975964 
L 307.177932 300.824395 
L 307.78843 309.864753 
L 310.047272 311.672825 
L 310.230421 297.208251 
L 310.840919 302.632466 
L 311.207217 311.672825 
L 311.939815 284.551749 
L 313.03871 300.824395 
L 313.771308 306.24861 
L 313.893407 300.824395 
L 314.809154 308.056682 
L 315.053353 304.440538 
L 315.114403 313.480897 
L 316.762747 317.09704 
L 317.067995 317.09704 
L 317.190095 327.945471 
L 317.251145 300.824395 
L 317.800593 297.208251 
L 318.41109 295.400179 
L 318.838439 317.09704 
L 319.326837 295.400179 
L 319.509986 311.672825 
L 319.876285 299.016323 
L 320.425733 313.480897 
L 320.730982 315.288969 
L 321.402529 304.440538 
L 323.356122 295.400179 
L 323.417172 315.288969 
L 324.821316 297.208251 
L 325.065515 309.864753 
L 325.187615 309.864753 
L 325.798113 317.09704 
L 326.897009 311.672825 
L 327.324357 280.935605 
L 327.507506 289.975964 
L 328.240104 279.127534 
L 329.400049 277.319462 
L 329.400049 293.592108 
L 330.010547 300.824395 
L 330.376846 308.056682 
L 330.376846 295.400179 
L 330.498945 308.056682 
L 330.498945 299.016323 
L 330.621045 308.056682 
L 331.170493 299.016323 
L 331.536791 299.016323 
L 332.025189 302.632466 
L 334.955578 284.551749 
L 336.909171 282.743677 
L 338.496465 295.400179 
L 339.229062 284.551749 
L 339.229062 293.592108 
L 340.022709 295.400179 
L 340.999506 286.359821 
L 341.243705 282.743677 
L 341.487904 288.167892 
L 342.708899 277.319462 
L 343.624646 293.592108 
L 343.990945 295.400179 
L 344.235144 297.208251 
L 344.784592 295.400179 
L 345.21194 286.359821 
L 345.700338 297.208251 
L 345.883488 291.784036 
L 346.249786 291.784036 
L 346.860284 302.632466 
L 347.226583 286.359821 
L 348.142329 293.592108 
L 348.142329 282.743677 
L 350.279071 280.935605 
L 354.369406 295.400179 
L 354.979904 300.824395 
L 356.384048 293.592108 
L 356.628247 289.975964 
L 357.360845 291.784036 
L 358.215541 288.167892 
L 358.215541 268.279103 
L 358.337641 302.632466 
L 358.52079 289.975964 
L 358.887089 279.127534 
L 359.009188 288.167892 
L 359.131288 313.480897 
L 359.192338 289.975964 
L 360.047035 282.743677 
L 360.962781 295.400179 
L 361.39013 297.208251 
L 361.939578 286.359821 
L 362.427976 293.592108 
L 362.489025 270.087175 
L 362.611125 309.864753 
L 364.442618 289.975964 
L 366.090962 293.592108 
L 366.70146 275.51139 
L 368.716102 284.551749 
L 371.402292 284.551749 
L 371.707541 270.087175 
L 372.01279 289.975964 
L 372.07384 282.743677 
L 372.134889 288.167892 
L 372.256989 288.167892 
L 372.806437 280.935605 
L 373.050636 289.975964 
L 374.210582 289.975964 
L 374.69898 286.359821 
L 376.103125 286.359821 
L 376.103125 291.784036 
L 376.286274 270.087175 
L 376.652572 295.400179 
L 376.652572 270.087175 
L 377.140971 308.056682 
L 377.20202 286.359821 
L 378.667215 264.66296 
L 380.498708 277.319462 
L 381.536554 288.167892 
L 382.086002 273.703318 
L 382.147052 277.319462 
L 383.734346 288.167892 
L 384.711142 282.743677 
L 385.32164 304.440538 
L 385.44374 262.854888 
L 385.871088 275.51139 
L 386.664735 273.703318 
L 387.214183 302.632466 
L 387.824681 293.592108 
L 387.824681 279.127534 
L 388.12993 282.743677 
L 388.984626 288.167892 
L 391.548717 286.359821 
L 392.037115 259.238744 
L 392.220264 268.279103 
L 392.281314 277.319462 
L 392.586563 280.935605 
L 394.295956 270.087175 
L 394.418056 289.975964 
L 395.455902 270.087175 
L 395.9443 284.551749 
L 397.653694 275.51139 
L 399.179938 261.046816 
L 400.584083 275.51139 
L 400.706182 264.66296 
L 400.889332 277.319462 
L 402.354526 270.087175 
L 402.537676 266.471031 
L 404.491268 262.854888 
L 404.613368 266.471031 
L 405.284915 273.703318 
L 405.773314 297.208251 
L 406.322761 279.127534 
L 406.994309 280.935605 
L 407.177458 270.087175 
L 407.787956 259.238744 
L 408.764752 264.66296 
L 410.290997 253.814529 
L 410.474146 270.087175 
L 411.206743 270.087175 
L 411.817241 242.966099 
L 413.038236 268.279103 
L 413.160336 295.400179 
L 413.892933 266.471031 
L 414.68658 284.551749 
L 415.480227 280.935605 
L 415.602327 253.814529 
L 416.212824 271.895247 
L 416.457024 259.238744 
L 416.762272 253.814529 
L 417.861168 280.935605 
L 417.983268 253.814529 
L 417.983268 264.66296 
L 418.715865 270.087175 
L 419.021114 264.66296 
L 419.143214 279.127534 
L 419.265313 259.238744 
L 419.326363 277.319462 
L 419.875811 270.087175 
L 420.12001 262.854888 
L 420.913657 262.854888 
L 421.829403 268.279103 
L 421.829403 250.198386 
L 422.317802 250.198386 
L 422.8062 286.359821 
L 423.050399 266.471031 
L 423.844046 261.046816 
L 424.271394 279.127534 
L 424.820842 273.703318 
L 424.942942 259.238744 
L 425.187141 270.087175 
L 425.614489 250.198386 
L 425.797639 235.733812 
L 426.530236 268.279103 
L 427.323883 261.046816 
L 427.629132 253.814529 
L 428.17858 252.006457 
L 428.666978 264.66296 
L 429.399575 253.814529 
L 429.704824 264.66296 
L 430.071123 252.006457 
L 431.353168 273.703318 
L 431.536317 259.238744 
L 431.902616 257.430673 
L 432.085765 257.430673 
L 433.48991 253.814529 
L 434.161457 261.046816 
L 435.443503 262.854888 
L 435.931901 266.471031 
L 438.67914 279.127534 
L 439.900136 261.046816 
L 440.205385 241.158027 
L 440.510634 279.127534 
L 441.243231 242.966099 
L 441.48743 277.319462 
L 441.54848 275.51139 
L 442.342127 280.935605 
L 444.356769 246.582242 
L 444.600968 264.66296 
L 444.723068 253.814529 
L 444.906217 279.127534 
L 446.188262 253.814529 
L 446.249312 293.592108 
L 446.981909 257.430673 
L 446.981909 273.703318 
L 447.592407 244.77417 
L 447.653457 259.238744 
L 447.775556 257.430673 
L 448.325004 257.430673 
L 448.386054 266.471031 
L 449.668099 230.309596 
L 450.766995 252.006457 
L 452.903737 259.238744 
L 453.086887 266.471031 
L 453.880534 271.895247 
L 454.368932 268.279103 
L 454.979429 244.77417 
L 455.284678 271.895247 
L 456.566723 241.158027 
L 456.688823 248.390314 
L 456.688823 255.622601 
L 457.848769 270.087175 
L 458.825565 246.582242 
L 459.802361 262.854888 
L 459.802361 257.430673 
L 460.412859 261.046816 
L 462.061203 235.733812 
L 462.244352 237.541883 
L 462.85485 241.158027 
L 464.747393 261.046816 
L 465.724189 253.814529 
L 466.823085 255.622601 
L 467.372533 237.541883 
L 467.860931 261.046816 
L 468.410379 248.390314 
L 469.142976 237.541883 
L 469.997673 226.693453 
L 470.608171 242.966099 
L 470.85237 257.430673 
L 471.218669 228.501525 
L 471.340768 241.158027 
L 471.890216 250.198386 
L 472.683863 233.92574 
L 472.805963 250.198386 
L 472.867013 235.733812 
L 473.050162 261.046816 
L 473.294361 255.622601 
L 473.355411 248.390314 
L 473.59961 242.966099 
L 474.149058 259.238744 
L 475.614252 264.66296 
L 475.736352 250.198386 
L 476.10265 261.046816 
L 476.10265 279.127534 
L 476.529999 241.158027 
L 476.774198 259.238744 
L 476.835248 275.51139 
L 477.384696 242.966099 
L 477.995193 232.117668 
L 478.239392 250.198386 
L 478.300442 242.966099 
L 479.216189 239.349955 
L 480.437184 233.92574 
L 482.879175 286.359821 
L 483.062324 255.622601 
L 483.123374 261.046816 
L 483.184424 228.501525 
L 483.367573 261.046816 
L 484.16122 264.66296 
L 484.649618 246.582242 
L 486.114813 230.309596 
L 486.297962 255.622601 
L 487.335808 241.158027 
L 488.251555 241.158027 
L 489.228351 252.006457 
L 490.571446 252.006457 
L 491.242994 242.966099 
L 491.365093 252.006457 
L 491.914541 235.733812 
L 493.318686 235.733812 
L 493.379736 230.309596 
L 493.440786 244.77417 
L 493.623935 244.77417 
L 494.295482 253.814529 
L 495.699627 250.198386 
L 496.065926 246.582242 
L 497.53112 255.622601 
L 497.836369 208.612735 
L 498.019518 241.158027 
L 500.766758 241.158027 
L 502.415102 253.814529 
L 502.96455 239.349955 
L 503.575048 246.582242 
L 505.223391 246.582242 
L 505.284441 270.087175 
L 505.284441 224.885381 
L 505.894939 244.77417 
L 506.017039 257.430673 
L 506.261238 239.349955 
L 506.444387 244.77417 
L 506.505437 237.541883 
L 507.726432 241.158027 
L 508.092731 246.582242 
L 508.21483 244.77417 
L 509.008477 248.390314 
L 510.290523 255.622601 
L 511.206269 252.006457 
L 511.694667 244.77417 
L 511.999916 242.966099 
L 512.488314 241.158027 
L 512.610414 257.430673 
L 513.404061 226.693453 
L 513.404061 239.349955 
L 515.235554 235.733812 
L 516.029201 235.733812 
L 516.029201 237.541883 
L 517.005997 219.461166 
L 517.372296 250.198386 
L 517.738595 232.117668 
L 518.349092 226.693453 
L 518.532242 223.077309 
L 518.837491 232.117668 
L 519.203789 261.046816 
L 519.753237 246.582242 
L 520.730033 253.814529 
L 522.073128 224.885381 
L 522.866775 233.92574 
L 523.965671 250.198386 
L 525.308766 248.390314 
L 527.384459 219.461166 
L 527.567608 250.198386 
L 527.933907 228.501525 
L 527.994956 257.430673 
L 527.994956 235.733812 
L 528.605454 237.541883 
L 528.727554 221.269238 
L 529.460151 233.92574 
L 531.718992 239.349955 
L 532.939988 232.117668 
L 533.794685 237.541883 
L 533.916784 217.653094 
L 535.809327 246.582242 
L 535.992476 217.653094 
L 536.053526 221.269238 
L 537.518721 214.036951 
L 539.472313 237.541883 
L 541.181707 221.269238 
L 541.548006 221.269238 
L 541.609055 230.309596 
L 541.609055 230.309596 
L 542.097454 221.269238 
L 542.463752 244.77417 
L 543.318449 233.92574 
L 543.440548 239.349955 
L 544.356295 248.390314 
L 545.82149 242.966099 
L 545.882539 241.158027 
L 546.676186 235.733812 
L 547.286684 228.501525 
L 548.38558 204.996592 
L 549.789725 235.733812 
L 550.217073 232.117668 
L 550.217073 239.349955 
L 551.13282 237.541883 
L 551.743317 232.117668 
L 552.414865 221.269238 
L 552.659064 228.501525 
L 553.269562 241.158027 
L 553.69691 214.036951 
L 554.002159 226.693453 
L 554.612657 206.804664 
L 555.711553 235.733812 
L 556.016801 221.269238 
L 556.261001 221.269238 
L 557.420946 224.885381 
L 558.275643 239.349955 
L 559.19139 199.572377 
L 560.107136 221.269238 
L 560.473435 217.653094 
L 560.778684 206.804664 
L 561.022883 233.92574 
L 561.206032 195.956233 
L 562.610177 226.693453 
L 563.525923 233.92574 
L 564.746919 217.653094 
L 565.662665 210.420807 
L 566.212113 226.693453 
L 566.334213 221.269238 
L 566.334213 232.117668 
L 566.639462 228.501525 
L 568.104656 214.036951 
L 568.654104 197.764305 
L 569.569851 221.269238 
L 570.851896 212.228879 
L 571.279244 230.309596 
L 571.279244 223.077309 
L 571.401344 228.501525 
L 572.072891 221.269238 
L 572.37814 237.541883 
L 572.622339 214.036951 
L 572.988638 214.036951 
L 573.110738 223.077309 
L 573.599136 219.461166 
L 574.331733 223.077309 
L 574.636982 215.845022 
L 575.980077 230.309596 
L 576.956873 246.582242 
L 578.055769 212.228879 
L 579.337814 226.693453 
L 580.803009 223.077309 
L 581.291407 206.804664 
L 583.428149 188.723946 
L 585.503841 219.461166 
L 587.518484 214.036951 
L 587.701633 228.501525 
L 588.312131 192.34009 
L 589.044728 204.996592 
L 589.594176 197.764305 
L 589.777325 244.77417 
L 589.960474 217.653094 
L 590.021524 223.077309 
L 592.280366 233.92574 
L 592.707714 221.269238 
L 593.379262 206.804664 
L 593.562411 199.572377 
L 593.86766 204.996592 
L 594.356058 199.572377 
L 595.516004 214.036951 
L 595.577053 233.92574 
L 595.699153 223.077309 
L 597.347497 204.996592 
L 597.530646 224.885381 
L 598.507442 223.077309 
L 599.728438 199.572377 
L 600.155786 203.18852 
L 600.277886 244.77417 
L 600.949433 192.34009 
L 601.80413 233.92574 
L 602.292528 223.077309 
L 604.062972 214.036951 
L 604.185071 226.693453 
L 605.039768 230.309596 
L 606.016564 224.885381 
L 606.199714 241.158027 
L 606.627062 210.420807 
L 606.688112 233.92574 
L 606.871261 204.996592 
L 607.23756 215.845022 
L 607.359659 228.501525 
L 608.153306 188.723946 
L 608.458555 197.764305 
L 608.946953 208.612735 
L 609.313252 244.77417 
L 609.435352 208.612735 
L 610.045849 219.461166 
L 610.778447 188.723946 
L 610.900546 197.764305 
L 611.205795 194.148161 
L 612.060492 199.572377 
L 612.365741 210.420807 
L 612.67099 212.228879 
L 612.732039 197.764305 
L 615.662428 224.885381 
L 616.089777 219.461166 
L 616.089777 201.380448 
L 616.333976 232.117668 
L 616.517125 208.612735 
L 617.188673 203.18852 
L 617.249722 199.572377 
L 622.011605 215.845022 
L 622.438953 190.532018 
L 623.537849 221.269238 
L 624.697795 201.380448 
L 625.308292 223.077309 
L 625.369342 210.420807 
L 626.895586 201.380448 
L 627.445034 199.572377 
L 628.360781 204.996592 
L 629.948075 194.148161 
L 630.497523 206.804664 
L 630.680672 217.653094 
L 631.779568 214.036951 
L 633.305812 215.845022 
L 634.404708 190.532018 
L 634.587858 223.077309 
L 634.709957 215.845022 
L 634.709957 195.956233 
L 635.076256 197.764305 
L 636.419351 208.612735 
L 637.212998 212.228879 
L 639.471839 219.461166 
L 640.204437 206.804664 
L 641.425432 221.269238 
L 641.91383 206.804664 
L 641.91383 212.228879 
L 642.096979 206.804664 
L 643.806373 204.996592 
L 643.806373 188.723946 
L 644.111622 204.996592 
L 644.233721 185.107803 
L 645.088418 219.461166 
L 647.713558 204.996592 
L 647.957757 192.34009 
L 649.9724 186.915874 
L 650.582898 206.804664 
L 650.643947 197.764305 
L 651.010246 232.117668 
L 651.193395 185.107803 
L 652.71964 215.845022 
L 653.818536 194.148161 
L 654.062735 204.996592 
L 654.245884 174.259372 
L 654.490083 204.996592 
L 654.978481 208.612735 
L 655.039531 226.693453 
L 655.40583 210.420807 
L 656.382626 223.077309 
L 656.809974 219.461166 
L 659.068816 210.420807 
L 659.251965 195.956233 
L 659.496164 214.036951 
L 659.862463 206.804664 
L 659.984563 233.92574 
L 660.53401 181.491659 
L 661.144508 215.845022 
L 662.121305 201.380448 
L 662.365504 203.18852 
L 663.586499 208.612735 
L 663.647549 185.107803 
L 663.830698 215.845022 
L 665.540092 197.764305 
L 665.601141 214.036951 
L 666.822137 192.34009 
L 666.883187 224.885381 
L 667.921033 201.380448 
L 670.179874 188.723946 
L 670.363024 177.875516 
L 672.011368 201.380448 
L 672.072417 195.956233 
L 672.255567 204.996592 
L 674.270209 192.34009 
L 675.247005 197.764305 
L 675.613304 194.148161 
L 676.284852 188.723946 
L 676.77325 195.956233 
L 678.726842 186.915874 
L 679.45944 194.148161 
L 680.253087 197.764305 
L 681.168833 201.380448 
L 684.526571 210.420807 
L 685.503367 183.299731 
L 685.747566 194.148161 
L 686.297014 179.683587 
L 686.602263 190.532018 
L 686.907512 212.228879 
L 687.27381 203.18852 
L 689.349503 204.996592 
L 689.593702 190.532018 
L 691.364145 212.228879 
L 692.890389 192.34009 
L 693.500887 215.845022 
L 693.745086 212.228879 
L 696.064978 194.148161 
L 696.492326 185.107803 
L 696.614425 206.804664 
L 697.041774 204.996592 
L 697.041774 199.572377 
L 697.530172 168.835157 
L 697.652272 219.461166 
L 697.652272 176.067444 
L 698.07962 203.18852 
L 699.178516 208.612735 
L 700.460561 192.34009 
L 700.70476 194.148161 
L 701.315258 192.34009 
L 701.376308 168.835157 
L 701.559457 201.380448 
L 702.536253 188.723946 
L 702.780452 203.18852 
L 703.024651 201.380448 
L 703.635149 201.380448 
L 704.001448 179.683587 
L 705.283493 199.572377 
L 705.466642 192.34009 
L 705.588742 201.380448 
L 707.969683 201.380448 
L 708.152832 183.299731 
L 709.190678 192.34009 
L 709.679077 214.036951 
L 709.679077 165.219013 
L 711.266371 194.148161 
L 711.38847 183.299731 
L 711.38847 203.18852 
L 711.876868 174.259372 
L 712.182117 183.299731 
L 714.318859 181.491659 
L 714.990407 194.148161 
L 716.455601 188.723946 
L 716.76085 197.764305 
L 717.981846 199.572377 
L 718.042895 185.107803 
L 718.775493 185.107803 
L 719.44704 179.683587 
L 719.50809 177.875516 
L 721.522732 197.764305 
L 721.766931 177.875516 
L 721.950081 201.380448 
L 722.316379 194.148161 
L 722.560578 174.259372 
L 723.476325 185.107803 
L 723.476325 204.996592 
L 724.269972 199.572377 
L 724.81942 206.804664 
L 725.185719 185.107803 
L 725.552017 190.532018 
L 727.932958 194.148161 
L 728.177157 195.956233 
L 728.299257 215.845022 
L 728.543456 186.915874 
L 728.604506 165.219013 
L 728.665556 194.148161 
L 729.886551 204.996592 
L 731.779094 179.683587 
L 732.084343 185.107803 
L 733.610587 170.643229 
L 733.732687 177.875516 
L 733.976886 159.794798 
L 734.770533 190.532018 
L 734.892632 186.915874 
L 735.136831 192.34009 
L 735.197881 177.875516 
L 735.258931 190.532018 
L 735.319981 185.107803 
L 736.479926 195.956233 
L 736.724125 224.885381 
L 736.968325 188.723946 
L 739.105067 197.764305 
L 739.715564 190.532018 
L 740.203962 176.067444 
L 740.448161 186.915874 
L 740.75341 170.643229 
L 741.791256 181.491659 
L 742.707003 179.683587 
L 743.073302 223.077309 
L 743.989048 170.643229 
L 744.416397 183.299731 
L 744.599546 168.835157 
L 746.18684 174.259372 
L 746.30894 186.915874 
L 747.163636 194.148161 
L 747.163636 194.148161 
" clip-path="url(#p8a13e6eb30)" style="fill: none; stroke: #1f77b4; stroke-width: 2; stroke-linecap: square"/>
   </g>
   <g id="line2d_22">
    <path d="M 138.436364 492.48 
L 139.41316 492.48 
L 139.840508 490.671928 
L 143.625594 490.671928 
L 143.686644 488.863857 
L 146.678083 488.863857 
L 148.631675 487.055785 
L 151.012617 487.055785 
L 151.989413 485.247713 
L 154.492454 485.247713 
L 156.446046 483.439641 
L 156.690245 483.439641 
L 159.315386 481.63157 
L 162.367874 481.63157 
L 163.52782 479.823498 
L 165.359313 479.823498 
L 166.763458 478.015426 
L 168.7781 478.015426 
L 170.426444 476.207354 
L 173.295783 476.207354 
L 174.333629 474.399283 
L 177.019819 474.399283 
L 177.691367 472.591211 
L 179.095512 472.591211 
L 184.284742 470.783139 
L 185.139439 468.975067 
L 188.558226 468.975067 
L 189.168724 467.166996 
L 192.099113 467.166996 
L 193.747457 465.358924 
L 194.541104 465.358924 
L 196.311547 463.550852 
L 198.936687 463.550852 
L 200.401882 461.74278 
L 202.904922 461.74278 
L 203.210171 459.934709 
L 206.445809 459.934709 
L 206.445809 459.934709 
L 206.995257 458.126637 
L 206.995257 458.126637 
L 209.803547 458.126637 
L 210.841393 456.318565 
L 212.550786 456.318565 
L 212.550786 456.318565 
L 214.504379 454.510493 
L 216.580071 454.510493 
L 217.434768 452.702422 
L 220.548306 452.702422 
L 221.158804 450.89435 
L 223.173447 450.89435 
L 224.455492 449.086278 
L 226.775383 449.086278 
L 227.996379 447.278206 
L 230.926768 447.278206 
L 233.00246 445.470135 
L 234.528704 445.470135 
L 234.528704 445.470135 
L 235.017102 443.662063 
L 238.25274 443.662063 
L 239.473736 441.853991 
L 240.084233 441.853991 
L 242.465174 440.045919 
L 244.357717 440.045919 
L 245.578713 438.237848 
L 248.325953 438.237848 
L 248.570152 436.429776 
L 251.317391 436.429776 
L 251.988939 434.621704 
L 254.003581 434.621704 
L 256.140323 432.813632 
L 257.178169 432.813632 
L 258.887563 431.005561 
L 261.512703 431.005561 
L 262.550549 429.197489 
L 262.550549 429.197489 
L 264.198893 429.197489 
L 265.480938 427.389417 
L 266.824033 427.389417 
L 269.449174 425.581345 
L 270.914368 425.581345 
L 272.684811 423.773274 
L 275.309952 423.773274 
L 276.164648 421.965202 
L 277.996142 421.965202 
L 279.095037 420.15713 
L 281.10968 420.15713 
L 282.513825 418.349058 
L 285.138965 418.349058 
L 285.810512 416.540987 
L 288.496702 416.540987 
L 288.496702 416.540987 
L 288.863001 414.732915 
L 290.999743 414.732915 
L 292.525987 412.924843 
L 294.967978 412.924843 
L 295.334277 411.116771 
L 298.203616 411.116771 
L 298.630964 409.3087 
L 301.378204 409.3087 
L 302.232901 407.500628 
L 304.491742 407.500628 
L 304.858041 405.692556 
L 307.78843 405.692556 
L 310.047272 403.884484 
L 310.840919 403.884484 
L 311.207217 402.076413 
L 313.893407 402.076413 
L 314.626005 400.268341 
L 317.251145 400.268341 
L 317.800593 398.460269 
L 320.425733 398.460269 
L 320.730982 396.652197 
L 323.417172 396.652197 
L 324.821316 394.844126 
L 326.897009 394.844126 
L 327.324357 393.036054 
L 330.010547 393.036054 
L 330.376846 391.227982 
L 332.025189 391.227982 
L 334.955578 389.41991 
L 336.909171 387.611839 
L 339.229062 387.611839 
L 339.229062 387.611839 
L 340.022709 385.803767 
L 341.487904 385.803767 
L 342.708899 383.995695 
L 345.21194 383.995695 
L 345.700338 382.187623 
L 348.142329 382.187623 
L 348.142329 382.187623 
L 350.279071 380.379552 
L 354.369406 378.57148 
L 354.979904 376.763408 
L 357.360845 376.763408 
L 358.337641 374.955336 
L 360.047035 374.955336 
L 360.962781 373.147265 
L 362.611125 373.147265 
L 364.442618 371.339193 
L 366.70146 371.339193 
L 368.716102 369.531121 
L 371.402292 367.723049 
L 372.256989 367.723049 
L 372.806437 365.914978 
L 375.370527 365.914978 
L 376.103125 364.106906 
L 376.103125 364.106906 
L 377.20202 364.106906 
L 378.667215 362.298834 
L 381.536554 362.298834 
L 382.147052 360.490762 
L 383.734346 360.490762 
L 384.711142 358.682691 
L 387.214183 358.682691 
L 387.824681 356.874619 
L 387.824681 356.874619 
L 388.984626 356.874619 
L 391.548717 355.066547 
L 392.586563 355.066547 
L 394.418056 353.258475 
L 395.9443 353.258475 
L 397.653694 351.450404 
L 397.836843 351.450404 
L 399.179938 349.642332 
L 400.889332 349.642332 
L 402.354526 347.83426 
L 404.613368 347.83426 
L 405.284915 346.026188 
L 407.177458 346.026188 
L 407.787956 344.218117 
L 410.474146 344.218117 
L 411.206743 342.410045 
L 413.160336 342.410045 
L 413.892933 340.601973 
L 416.212824 340.601973 
L 416.334924 338.793901 
L 419.021114 338.793901 
L 419.143214 336.98583 
L 421.829403 336.98583 
L 421.829403 336.98583 
L 422.317802 335.177758 
L 424.271394 335.177758 
L 424.820842 333.369686 
L 427.323883 333.369686 
L 427.629132 331.561614 
L 430.071123 331.561614 
L 431.353168 329.753543 
L 432.085765 329.753543 
L 433.48991 327.945471 
L 435.931901 327.945471 
L 438.67914 326.137399 
L 439.900136 324.329327 
L 441.48743 324.329327 
L 441.54848 322.521256 
L 442.342127 322.521256 
L 444.356769 320.713184 
L 446.981909 320.713184 
L 446.981909 320.713184 
L 447.653457 318.905112 
L 449.668099 318.905112 
L 450.522796 317.09704 
L 450.766995 317.09704 
L 452.903737 315.288969 
L 454.979429 315.288969 
L 455.284678 313.480897 
L 457.848769 313.480897 
L 458.825565 311.672825 
L 460.412859 311.672825 
L 462.061203 309.864753 
L 462.85485 309.864753 
L 464.747393 308.056682 
L 465.724189 308.056682 
L 466.823085 306.24861 
L 468.410379 306.24861 
L 469.142976 304.440538 
L 471.340768 304.440538 
L 471.890216 302.632466 
L 474.088008 302.632466 
L 474.149058 300.824395 
L 476.774198 300.824395 
L 476.835248 299.016323 
L 479.216189 299.016323 
L 480.437184 297.208251 
L 483.062324 295.400179 
L 483.062324 295.400179 
L 484.649618 295.400179 
L 486.114813 293.592108 
L 487.335808 293.592108 
L 488.251555 291.784036 
L 489.411501 291.784036 
L 490.571446 289.975964 
L 491.914541 289.975964 
L 493.440786 288.167892 
L 494.295482 288.167892 
L 495.699627 286.359821 
L 497.836369 286.359821 
L 498.019518 284.551749 
L 499.667862 284.551749 
L 500.766758 282.743677 
L 502.96455 282.743677 
L 503.575048 280.935605 
L 505.284441 280.935605 
L 505.284441 280.935605 
L 505.894939 279.127534 
L 508.21483 279.127534 
L 509.008477 277.319462 
L 510.290523 277.319462 
L 511.206269 275.51139 
L 513.404061 275.51139 
L 513.404061 275.51139 
L 515.235554 273.703318 
L 516.029201 271.895247 
L 516.029201 271.895247 
L 518.349092 271.895247 
L 518.532242 270.087175 
L 520.730033 270.087175 
L 522.073128 268.279103 
L 522.866775 268.279103 
L 523.965671 266.471031 
L 525.308766 266.471031 
L 527.384459 264.66296 
L 528.605454 264.66296 
L 528.727554 262.854888 
L 529.460151 262.854888 
L 531.718992 261.046816 
L 532.939988 261.046816 
L 533.916784 259.238744 
L 536.053526 259.238744 
L 537.518721 257.430673 
L 539.472313 255.622601 
L 541.181707 255.622601 
L 541.609055 253.814529 
L 541.609055 253.814529 
L 543.440548 253.814529 
L 544.356295 252.006457 
L 545.882539 252.006457 
L 546.676186 250.198386 
L 548.38558 250.198386 
L 549.789725 248.390314 
L 551.13282 248.390314 
L 551.743317 246.582242 
L 553.269562 246.582242 
L 553.69691 244.77417 
L 556.016801 244.77417 
L 556.261001 242.966099 
L 558.519842 242.966099 
L 559.19139 241.158027 
L 560.778684 241.158027 
L 561.022883 239.349955 
L 562.610177 239.349955 
L 563.525923 237.541883 
L 565.662665 237.541883 
L 566.212113 235.733812 
L 568.104656 235.733812 
L 568.654104 233.92574 
L 569.569851 233.92574 
L 570.851896 232.117668 
L 573.110738 232.117668 
L 573.599136 230.309596 
L 574.636982 230.309596 
L 575.980077 228.501525 
L 576.956873 228.501525 
L 578.055769 226.693453 
L 579.337814 226.693453 
L 580.803009 224.885381 
L 581.291407 224.885381 
L 585.503841 221.269238 
L 587.518484 221.269238 
L 587.701633 219.461166 
L 589.777325 219.461166 
L 590.021524 217.653094 
L 592.280366 215.845022 
L 594.356058 215.845022 
L 595.577053 214.036951 
L 595.699153 214.036951 
L 597.347497 212.228879 
L 598.507442 212.228879 
L 599.728438 210.420807 
L 600.949433 210.420807 
L 601.80413 208.612735 
L 602.292528 208.612735 
L 604.185071 206.804664 
L 606.199714 206.804664 
L 606.688112 204.996592 
L 608.458555 204.996592 
L 608.946953 203.18852 
L 610.900546 203.18852 
L 611.205795 201.380448 
L 612.732039 201.380448 
L 615.662428 199.572377 
L 616.089777 197.764305 
L 616.089777 197.764305 
L 617.249722 197.764305 
L 622.011605 194.148161 
L 622.438953 194.148161 
L 623.537849 192.34009 
L 624.697795 192.34009 
L 624.941994 190.532018 
L 626.895586 190.532018 
L 627.445034 188.723946 
L 628.360781 188.723946 
L 629.948075 186.915874 
L 630.680672 186.915874 
L 631.779568 185.107803 
L 633.305812 185.107803 
L 634.404708 183.299731 
L 635.076256 183.299731 
L 636.419351 181.491659 
L 637.212998 181.491659 
L 639.471839 179.683587 
L 640.204437 179.683587 
L 641.425432 177.875516 
L 642.096979 177.875516 
L 643.806373 176.067444 
L 643.806373 176.067444 
L 645.088418 176.067444 
L 647.713558 172.4513 
L 647.957757 172.4513 
L 649.9724 170.643229 
L 651.193395 170.643229 
L 652.71964 168.835157 
L 654.245884 168.835157 
L 654.490083 167.027085 
L 656.382626 167.027085 
L 656.809974 165.219013 
L 659.068816 163.410942 
L 660.53401 163.410942 
L 661.144508 161.60287 
L 662.365504 161.60287 
L 663.647549 159.794798 
L 663.830698 159.794798 
L 665.601141 157.986726 
L 667.310535 157.986726 
L 667.921033 156.178655 
L 670.179874 154.370583 
L 670.363024 154.370583 
L 672.072417 152.562511 
L 672.255567 152.562511 
L 674.270209 150.754439 
L 676.284852 150.754439 
L 676.77325 148.946368 
L 678.726842 147.138296 
L 680.253087 147.138296 
L 681.168833 145.330224 
L 684.526571 143.522152 
L 685.503367 141.714081 
L 686.907512 141.714081 
L 687.27381 139.906009 
L 689.349503 139.906009 
L 689.593702 138.097937 
L 691.364145 138.097937 
L 692.890389 136.289865 
L 693.500887 136.289865 
L 693.745086 134.481794 
L 696.064978 132.673722 
L 697.896471 132.673722 
L 698.07962 130.86565 
L 699.178516 130.86565 
L 700.460561 129.057578 
L 701.559457 129.057578 
L 702.536253 127.249507 
L 704.001448 127.249507 
L 705.283493 125.441435 
L 705.588742 125.441435 
L 708.152832 123.633363 
L 709.190678 121.825291 
L 709.679077 121.825291 
L 709.679077 121.825291 
L 711.38847 120.01722 
L 711.38847 120.01722 
L 712.182117 120.01722 
L 714.318859 118.209148 
L 714.990407 116.401076 
L 716.76085 116.401076 
L 718.042895 114.593004 
L 718.775493 114.593004 
L 719.50809 112.784933 
L 721.522732 110.976861 
L 722.560578 110.976861 
L 723.476325 109.168789 
L 723.476325 109.168789 
L 725.185719 109.168789 
L 725.552017 107.360717 
L 727.932958 105.552646 
L 728.665556 105.552646 
L 729.886551 103.744574 
L 731.779094 101.936502 
L 733.732687 101.936502 
L 733.976886 100.12843 
L 735.319981 100.12843 
L 736.602026 98.320359 
L 736.968325 98.320359 
L 739.105067 96.512287 
L 739.715564 96.512287 
L 740.203962 94.704215 
L 741.791256 94.704215 
L 742.707003 92.896143 
L 743.989048 92.896143 
L 744.416397 91.088072 
L 744.599546 91.088072 
L 746.30894 89.28 
L 747.163636 89.28 
L 747.163636 89.28 
" clip-path="url(#p8a13e6eb30)" style="fill: none; stroke: #ff7f0e; stroke-width: 2; stroke-linecap: square"/>
   </g>
   <g id="patch_3">
    <path d="M 108 512.64 
L 108 69.12 
" style="fill: none; stroke: #000000; stroke-width: 0.8; stroke-linejoin: miter; stroke-linecap: square"/>
   </g>
   <g id="patch_4">
    <path d="M 777.6 512.64 
L 777.6 69.12 
" style="fill: none; stroke: #000000; stroke-width: 0.8; stroke-linejoin: miter; stroke-linecap: square"/>
   </g>
   <g id="patch_5">
    <path d="M 108 512.64 
L 777.6 512.64 
" style="fill: none; stroke: #000000; stroke-width: 0.8; stroke-linejoin: miter; stroke-linecap: square"/>
   </g>
   <g id="patch_6">
    <path d="M 108 69.12 
L 777.6 69.12 
" style="fill: none; stroke: #000000; stroke-width: 0.8; stroke-linejoin: miter; stroke-linecap: square"/>
   </g>
   <g id="text_13">
    <!-- Price by ttm -->
    <g transform="translate(382.2 63.12) scale(0.2 -0.2)">
     <defs>
      <path id="DejaVuSans-62" d="M 3116 1747 
Q 3116 2381 2855 2742 
Q 2594 3103 2138 3103 
Q 1681 3103 1420 2742 
Q 1159 2381 1159 1747 
Q 1159 1113 1420 752 
Q 1681 391 2138 391 
Q 2594 391 2855 752 
Q 3116 1113 3116 1747 
z
M 1159 2969 
Q 1341 3281 1617 3432 
Q 1894 3584 2278 3584 
Q 2916 3584 3314 3078 
Q 3713 2572 3713 1747 
Q 3713 922 3314 415 
Q 2916 -91 2278 -91 
Q 1894 -91 1617 61 
Q 1341 213 1159 525 
L 1159 0 
L 581 0 
L 581 4863 
L 1159 4863 
L 1159 2969 
z
" transform="scale(0.015625)"/>
      <path id="DejaVuSans-79" d="M 2059 -325 
Q 1816 -950 1584 -1140 
Q 1353 -1331 966 -1331 
L 506 -1331 
L 506 -850 
L 844 -850 
Q 1081 -850 1212 -737 
Q 1344 -625 1503 -206 
L 1606 56 
L 191 3500 
L 800 3500 
L 1894 763 
L 2988 3500 
L 3597 3500 
L 2059 -325 
z
" transform="scale(0.015625)"/>
      <path id="DejaVuSans-6d" d="M 3328 2828 
Q 3544 3216 3844 3400 
Q 4144 3584 4550 3584 
Q 5097 3584 5394 3201 
Q 5691 2819 5691 2113 
L 5691 0 
L 5113 0 
L 5113 2094 
Q 5113 2597 4934 2840 
Q 4756 3084 4391 3084 
Q 3944 3084 3684 2787 
Q 3425 2491 3425 1978 
L 3425 0 
L 2847 0 
L 2847 2094 
Q 2847 2600 2669 2842 
Q 2491 3084 2119 3084 
Q 1678 3084 1418 2786 
Q 1159 2488 1159 1978 
L 1159 0 
L 581 0 
L 581 3500 
L 1159 3500 
L 1159 2956 
Q 1356 3278 1631 3431 
Q 1906 3584 2284 3584 
Q 2666 3584 2933 3390 
Q 3200 3197 3328 2828 
z
" transform="scale(0.015625)"/>
     </defs>
     <use xlink:href="#DejaVuSans-50"/>
     <use xlink:href="#DejaVuSans-72" x="58.552734"/>
     <use xlink:href="#DejaVuSans-69" x="99.666016"/>
     <use xlink:href="#DejaVuSans-63" x="127.449219"/>
     <use xlink:href="#DejaVuSans-65" x="182.429688"/>
     <use xlink:href="#DejaVuSans-20" x="243.953125"/>
     <use xlink:href="#DejaVuSans-62" x="275.740234"/>
     <use xlink:href="#DejaVuSans-79" x="339.216797"/>
     <use xlink:href="#DejaVuSans-20" x="398.396484"/>
     <use xlink:href="#DejaVuSans-74" x="430.183594"/>
     <use xlink:href="#DejaVuSans-74" x="469.392578"/>
     <use xlink:href="#DejaVuSans-6d" x="508.601562"/>
    </g>
   </g>
   <g id="legend_1">
    <g id="patch_7">
     <path d="M 120.6 136.36125 
L 282.839062 136.36125 
Q 286.439062 136.36125 286.439062 132.76125 
L 286.439062 81.72 
Q 286.439062 78.12 282.839062 78.12 
L 120.6 78.12 
Q 117 78.12 117 81.72 
L 117 132.76125 
Q 117 136.36125 120.6 136.36125 
z
" style="fill: #ffffff; opacity: 0.8; stroke: #cccccc; stroke-linejoin: miter"/>
    </g>
    <g id="line2d_23">
     <path d="M 124.2 92.697188 
L 142.2 92.697188 
L 160.2 92.697188 
" style="fill: none; stroke: #1f77b4; stroke-width: 2; stroke-linecap: square"/>
    </g>
    <g id="text_14">
     <!-- MC -->
     <g transform="translate(174.6 98.997188) scale(0.18 -0.18)">
      <defs>
       <path id="DejaVuSans-43" d="M 4122 4306 
L 4122 3641 
Q 3803 3938 3442 4084 
Q 3081 4231 2675 4231 
Q 1875 4231 1450 3742 
Q 1025 3253 1025 2328 
Q 1025 1406 1450 917 
Q 1875 428 2675 428 
Q 3081 428 3442 575 
Q 3803 722 4122 1019 
L 4122 359 
Q 3791 134 3420 21 
Q 3050 -91 2638 -91 
Q 1578 -91 968 557 
Q 359 1206 359 2328 
Q 359 3453 968 4101 
Q 1578 4750 2638 4750 
Q 3056 4750 3426 4639 
Q 3797 4528 4122 4306 
z
" transform="scale(0.015625)"/>
      </defs>
      <use xlink:href="#DejaVuSans-4d"/>
      <use xlink:href="#DejaVuSans-43" x="86.279297"/>
     </g>
    </g>
    <g id="line2d_24">
     <path d="M 124.2 119.117813 
L 142.2 119.117813 
L 160.2 119.117813 
" style="fill: none; stroke: #ff7f0e; stroke-width: 2; stroke-linecap: square"/>
    </g>
    <g id="text_15">
     <!-- Positive net -->
     <g transform="translate(174.6 125.417813) scale(0.18 -0.18)">
      <defs>
       <path id="DejaVuSans-76" d="M 191 3500 
L 800 3500 
L 1894 563 
L 2988 3500 
L 3597 3500 
L 2284 0 
L 1503 0 
L 191 3500 
z
" transform="scale(0.015625)"/>
       <path id="DejaVuSans-6e" d="M 3513 2113 
L 3513 0 
L 2938 0 
L 2938 2094 
Q 2938 2591 2744 2837 
Q 2550 3084 2163 3084 
Q 1697 3084 1428 2787 
Q 1159 2491 1159 1978 
L 1159 0 
L 581 0 
L 581 3500 
L 1159 3500 
L 1159 2956 
Q 1366 3272 1645 3428 
Q 1925 3584 2291 3584 
Q 2894 3584 3203 3211 
Q 3513 2838 3513 2113 
z
" transform="scale(0.015625)"/>
      </defs>
      <use xlink:href="#DejaVuSans-50"/>
      <use xlink:href="#DejaVuSans-6f" x="56.677734"/>
      <use xlink:href="#DejaVuSans-73" x="117.859375"/>
      <use xlink:href="#DejaVuSans-69" x="169.958984"/>
      <use xlink:href="#DejaVuSans-74" x="197.742188"/>
      <use xlink:href="#DejaVuSans-69" x="236.951172"/>
      <use xlink:href="#DejaVuSans-76" x="264.734375"/>
      <use xlink:href="#DejaVuSans-65" x="323.914062"/>
      <use xlink:href="#DejaVuSans-20" x="385.4375"/>
      <use xlink:href="#DejaVuSans-6e" x="417.224609"/>
      <use xlink:href="#DejaVuSans-65" x="480.603516"/>
      <use xlink:href="#DejaVuSans-74" x="542.126953"/>
     </g>
    </g>
   </g>
  </g>
 </g>
 <defs>
  <clipPath id="p8a13e6eb30">
   <rect x="108" y="69.12" width="669.6" height="443.52"/>
  </clipPath>
 </defs>
</svg>
