<?xml version="1.0" encoding="utf-8" standalone="no"?>
<!DOCTYPE svg PUBLIC "-//W3C//DTD SVG 1.1//EN"
  "http://www.w3.org/Graphics/SVG/1.1/DTD/svg11.dtd">
<svg xmlns:xlink="http://www.w3.org/1999/xlink" width="864pt" height="576pt" viewBox="0 0 864 576" xmlns="http://www.w3.org/2000/svg" version="1.1">
 <metadata>
  <rdf:RDF xmlns:dc="http://purl.org/dc/elements/1.1/" xmlns:cc="http://creativecommons.org/ns#" xmlns:rdf="http://www.w3.org/1999/02/22-rdf-syntax-ns#">
   <cc:Work>
    <dc:type rdf:resource="http://purl.org/dc/dcmitype/StillImage"/>
    <dc:date>2024-02-24T15:13:32.496517</dc:date>
    <dc:format>image/svg+xml</dc:format>
    <dc:creator>
     <cc:Agent>
      <dc:title>Matplotlib v3.7.3, https://matplotlib.org/</dc:title>
     </cc:Agent>
    </dc:creator>
   </cc:Work>
  </rdf:RDF>
 </metadata>
 <defs>
  <style type="text/css">*{stroke-linejoin: round; stroke-linecap: butt}</style>
 </defs>
 <g id="figure_1">
  <g id="patch_1">
   <path d="M 0 576 
L 864 576 
L 864 0 
L 0 0 
z
" style="fill: #ffffff"/>
  </g>
  <g id="axes_1">
   <g id="patch_2">
    <path d="M 108 512.64 
L 777.6 512.64 
L 777.6 69.12 
L 108 69.12 
z
" style="fill: #ffffff"/>
   </g>
   <g id="matplotlib.axis_1">
    <g id="xtick_1">
     <g id="line2d_1">
      <path d="M 199.223818 512.64 
L 199.223818 69.12 
" clip-path="url(#p4cc9a0d718)" style="fill: none; stroke: #b0b0b0; stroke-width: 0.8; stroke-linecap: square"/>
     </g>
     <g id="line2d_2">
      <defs>
       <path id="m4a90dd199e" d="M 0 0 
L 0 3.5 
" style="stroke: #000000; stroke-width: 0.8"/>
      </defs>
      <g>
       <use xlink:href="#m4a90dd199e" x="199.223818" y="512.64" style="stroke: #000000; stroke-width: 0.8"/>
      </g>
     </g>
     <g id="text_1">
      <!-- 0.6 -->
      <g transform="translate(191.272255 527.238438) scale(0.1 -0.1)">
       <defs>
        <path id="DejaVuSans-30" d="M 2034 4250 
Q 1547 4250 1301 3770 
Q 1056 3291 1056 2328 
Q 1056 1369 1301 889 
Q 1547 409 2034 409 
Q 2525 409 2770 889 
Q 3016 1369 3016 2328 
Q 3016 3291 2770 3770 
Q 2525 4250 2034 4250 
z
M 2034 4750 
Q 2819 4750 3233 4129 
Q 3647 3509 3647 2328 
Q 3647 1150 3233 529 
Q 2819 -91 2034 -91 
Q 1250 -91 836 529 
Q 422 1150 422 2328 
Q 422 3509 836 4129 
Q 1250 4750 2034 4750 
z
" transform="scale(0.015625)"/>
        <path id="DejaVuSans-2e" d="M 684 794 
L 1344 794 
L 1344 0 
L 684 0 
L 684 794 
z
" transform="scale(0.015625)"/>
        <path id="DejaVuSans-36" d="M 2113 2584 
Q 1688 2584 1439 2293 
Q 1191 2003 1191 1497 
Q 1191 994 1439 701 
Q 1688 409 2113 409 
Q 2538 409 2786 701 
Q 3034 994 3034 1497 
Q 3034 2003 2786 2293 
Q 2538 2584 2113 2584 
z
M 3366 4563 
L 3366 3988 
Q 3128 4100 2886 4159 
Q 2644 4219 2406 4219 
Q 1781 4219 1451 3797 
Q 1122 3375 1075 2522 
Q 1259 2794 1537 2939 
Q 1816 3084 2150 3084 
Q 2853 3084 3261 2657 
Q 3669 2231 3669 1497 
Q 3669 778 3244 343 
Q 2819 -91 2113 -91 
Q 1303 -91 875 529 
Q 447 1150 447 2328 
Q 447 3434 972 4092 
Q 1497 4750 2381 4750 
Q 2619 4750 2861 4703 
Q 3103 4656 3366 4563 
z
" transform="scale(0.015625)"/>
       </defs>
       <use xlink:href="#DejaVuSans-30"/>
       <use xlink:href="#DejaVuSans-2e" x="63.623047"/>
       <use xlink:href="#DejaVuSans-36" x="95.410156"/>
      </g>
     </g>
    </g>
    <g id="xtick_2">
     <g id="line2d_3">
      <path d="M 321.042364 512.64 
L 321.042364 69.12 
" clip-path="url(#p4cc9a0d718)" style="fill: none; stroke: #b0b0b0; stroke-width: 0.8; stroke-linecap: square"/>
     </g>
     <g id="line2d_4">
      <g>
       <use xlink:href="#m4a90dd199e" x="321.042364" y="512.64" style="stroke: #000000; stroke-width: 0.8"/>
      </g>
     </g>
     <g id="text_2">
      <!-- 0.8 -->
      <g transform="translate(313.090801 527.238438) scale(0.1 -0.1)">
       <defs>
        <path id="DejaVuSans-38" d="M 2034 2216 
Q 1584 2216 1326 1975 
Q 1069 1734 1069 1313 
Q 1069 891 1326 650 
Q 1584 409 2034 409 
Q 2484 409 2743 651 
Q 3003 894 3003 1313 
Q 3003 1734 2745 1975 
Q 2488 2216 2034 2216 
z
M 1403 2484 
Q 997 2584 770 2862 
Q 544 3141 544 3541 
Q 544 4100 942 4425 
Q 1341 4750 2034 4750 
Q 2731 4750 3128 4425 
Q 3525 4100 3525 3541 
Q 3525 3141 3298 2862 
Q 3072 2584 2669 2484 
Q 3125 2378 3379 2068 
Q 3634 1759 3634 1313 
Q 3634 634 3220 271 
Q 2806 -91 2034 -91 
Q 1263 -91 848 271 
Q 434 634 434 1313 
Q 434 1759 690 2068 
Q 947 2378 1403 2484 
z
M 1172 3481 
Q 1172 3119 1398 2916 
Q 1625 2713 2034 2713 
Q 2441 2713 2670 2916 
Q 2900 3119 2900 3481 
Q 2900 3844 2670 4047 
Q 2441 4250 2034 4250 
Q 1625 4250 1398 4047 
Q 1172 3844 1172 3481 
z
" transform="scale(0.015625)"/>
       </defs>
       <use xlink:href="#DejaVuSans-30"/>
       <use xlink:href="#DejaVuSans-2e" x="63.623047"/>
       <use xlink:href="#DejaVuSans-38" x="95.410156"/>
      </g>
     </g>
    </g>
    <g id="xtick_3">
     <g id="line2d_5">
      <path d="M 442.860909 512.64 
L 442.860909 69.12 
" clip-path="url(#p4cc9a0d718)" style="fill: none; stroke: #b0b0b0; stroke-width: 0.8; stroke-linecap: square"/>
     </g>
     <g id="line2d_6">
      <g>
       <use xlink:href="#m4a90dd199e" x="442.860909" y="512.64" style="stroke: #000000; stroke-width: 0.8"/>
      </g>
     </g>
     <g id="text_3">
      <!-- 1.0 -->
      <g transform="translate(434.909347 527.238438) scale(0.1 -0.1)">
       <defs>
        <path id="DejaVuSans-31" d="M 794 531 
L 1825 531 
L 1825 4091 
L 703 3866 
L 703 4441 
L 1819 4666 
L 2450 4666 
L 2450 531 
L 3481 531 
L 3481 0 
L 794 0 
L 794 531 
z
" transform="scale(0.015625)"/>
       </defs>
       <use xlink:href="#DejaVuSans-31"/>
       <use xlink:href="#DejaVuSans-2e" x="63.623047"/>
       <use xlink:href="#DejaVuSans-30" x="95.410156"/>
      </g>
     </g>
    </g>
    <g id="xtick_4">
     <g id="line2d_7">
      <path d="M 564.679455 512.64 
L 564.679455 69.12 
" clip-path="url(#p4cc9a0d718)" style="fill: none; stroke: #b0b0b0; stroke-width: 0.8; stroke-linecap: square"/>
     </g>
     <g id="line2d_8">
      <g>
       <use xlink:href="#m4a90dd199e" x="564.679455" y="512.64" style="stroke: #000000; stroke-width: 0.8"/>
      </g>
     </g>
     <g id="text_4">
      <!-- 1.2 -->
      <g transform="translate(556.727892 527.238438) scale(0.1 -0.1)">
       <defs>
        <path id="DejaVuSans-32" d="M 1228 531 
L 3431 531 
L 3431 0 
L 469 0 
L 469 531 
Q 828 903 1448 1529 
Q 2069 2156 2228 2338 
Q 2531 2678 2651 2914 
Q 2772 3150 2772 3378 
Q 2772 3750 2511 3984 
Q 2250 4219 1831 4219 
Q 1534 4219 1204 4116 
Q 875 4013 500 3803 
L 500 4441 
Q 881 4594 1212 4672 
Q 1544 4750 1819 4750 
Q 2544 4750 2975 4387 
Q 3406 4025 3406 3419 
Q 3406 3131 3298 2873 
Q 3191 2616 2906 2266 
Q 2828 2175 2409 1742 
Q 1991 1309 1228 531 
z
" transform="scale(0.015625)"/>
       </defs>
       <use xlink:href="#DejaVuSans-31"/>
       <use xlink:href="#DejaVuSans-2e" x="63.623047"/>
       <use xlink:href="#DejaVuSans-32" x="95.410156"/>
      </g>
     </g>
    </g>
    <g id="xtick_5">
     <g id="line2d_9">
      <path d="M 686.498001 512.64 
L 686.498001 69.12 
" clip-path="url(#p4cc9a0d718)" style="fill: none; stroke: #b0b0b0; stroke-width: 0.8; stroke-linecap: square"/>
     </g>
     <g id="line2d_10">
      <g>
       <use xlink:href="#m4a90dd199e" x="686.498001" y="512.64" style="stroke: #000000; stroke-width: 0.8"/>
      </g>
     </g>
     <g id="text_5">
      <!-- 1.4 -->
      <g transform="translate(678.546438 527.238438) scale(0.1 -0.1)">
       <defs>
        <path id="DejaVuSans-34" d="M 2419 4116 
L 825 1625 
L 2419 1625 
L 2419 4116 
z
M 2253 4666 
L 3047 4666 
L 3047 1625 
L 3713 1625 
L 3713 1100 
L 3047 1100 
L 3047 0 
L 2419 0 
L 2419 1100 
L 313 1100 
L 313 1709 
L 2253 4666 
z
" transform="scale(0.015625)"/>
       </defs>
       <use xlink:href="#DejaVuSans-31"/>
       <use xlink:href="#DejaVuSans-2e" x="63.623047"/>
       <use xlink:href="#DejaVuSans-34" x="95.410156"/>
      </g>
     </g>
    </g>
    <g id="text_6">
     <!-- Spot/strike ratio -->
     <g transform="translate(370.854844 546.995312) scale(0.18 -0.18)">
      <defs>
       <path id="DejaVuSans-53" d="M 3425 4513 
L 3425 3897 
Q 3066 4069 2747 4153 
Q 2428 4238 2131 4238 
Q 1616 4238 1336 4038 
Q 1056 3838 1056 3469 
Q 1056 3159 1242 3001 
Q 1428 2844 1947 2747 
L 2328 2669 
Q 3034 2534 3370 2195 
Q 3706 1856 3706 1288 
Q 3706 609 3251 259 
Q 2797 -91 1919 -91 
Q 1588 -91 1214 -16 
Q 841 59 441 206 
L 441 856 
Q 825 641 1194 531 
Q 1563 422 1919 422 
Q 2459 422 2753 634 
Q 3047 847 3047 1241 
Q 3047 1584 2836 1778 
Q 2625 1972 2144 2069 
L 1759 2144 
Q 1053 2284 737 2584 
Q 422 2884 422 3419 
Q 422 4038 858 4394 
Q 1294 4750 2059 4750 
Q 2388 4750 2728 4690 
Q 3069 4631 3425 4513 
z
" transform="scale(0.015625)"/>
       <path id="DejaVuSans-70" d="M 1159 525 
L 1159 -1331 
L 581 -1331 
L 581 3500 
L 1159 3500 
L 1159 2969 
Q 1341 3281 1617 3432 
Q 1894 3584 2278 3584 
Q 2916 3584 3314 3078 
Q 3713 2572 3713 1747 
Q 3713 922 3314 415 
Q 2916 -91 2278 -91 
Q 1894 -91 1617 61 
Q 1341 213 1159 525 
z
M 3116 1747 
Q 3116 2381 2855 2742 
Q 2594 3103 2138 3103 
Q 1681 3103 1420 2742 
Q 1159 2381 1159 1747 
Q 1159 1113 1420 752 
Q 1681 391 2138 391 
Q 2594 391 2855 752 
Q 3116 1113 3116 1747 
z
" transform="scale(0.015625)"/>
       <path id="DejaVuSans-6f" d="M 1959 3097 
Q 1497 3097 1228 2736 
Q 959 2375 959 1747 
Q 959 1119 1226 758 
Q 1494 397 1959 397 
Q 2419 397 2687 759 
Q 2956 1122 2956 1747 
Q 2956 2369 2687 2733 
Q 2419 3097 1959 3097 
z
M 1959 3584 
Q 2709 3584 3137 3096 
Q 3566 2609 3566 1747 
Q 3566 888 3137 398 
Q 2709 -91 1959 -91 
Q 1206 -91 779 398 
Q 353 888 353 1747 
Q 353 2609 779 3096 
Q 1206 3584 1959 3584 
z
" transform="scale(0.015625)"/>
       <path id="DejaVuSans-74" d="M 1172 4494 
L 1172 3500 
L 2356 3500 
L 2356 3053 
L 1172 3053 
L 1172 1153 
Q 1172 725 1289 603 
Q 1406 481 1766 481 
L 2356 481 
L 2356 0 
L 1766 0 
Q 1100 0 847 248 
Q 594 497 594 1153 
L 594 3053 
L 172 3053 
L 172 3500 
L 594 3500 
L 594 4494 
L 1172 4494 
z
" transform="scale(0.015625)"/>
       <path id="DejaVuSans-2f" d="M 1625 4666 
L 2156 4666 
L 531 -594 
L 0 -594 
L 1625 4666 
z
" transform="scale(0.015625)"/>
       <path id="DejaVuSans-73" d="M 2834 3397 
L 2834 2853 
Q 2591 2978 2328 3040 
Q 2066 3103 1784 3103 
Q 1356 3103 1142 2972 
Q 928 2841 928 2578 
Q 928 2378 1081 2264 
Q 1234 2150 1697 2047 
L 1894 2003 
Q 2506 1872 2764 1633 
Q 3022 1394 3022 966 
Q 3022 478 2636 193 
Q 2250 -91 1575 -91 
Q 1294 -91 989 -36 
Q 684 19 347 128 
L 347 722 
Q 666 556 975 473 
Q 1284 391 1588 391 
Q 1994 391 2212 530 
Q 2431 669 2431 922 
Q 2431 1156 2273 1281 
Q 2116 1406 1581 1522 
L 1381 1569 
Q 847 1681 609 1914 
Q 372 2147 372 2553 
Q 372 3047 722 3315 
Q 1072 3584 1716 3584 
Q 2034 3584 2315 3537 
Q 2597 3491 2834 3397 
z
" transform="scale(0.015625)"/>
       <path id="DejaVuSans-72" d="M 2631 2963 
Q 2534 3019 2420 3045 
Q 2306 3072 2169 3072 
Q 1681 3072 1420 2755 
Q 1159 2438 1159 1844 
L 1159 0 
L 581 0 
L 581 3500 
L 1159 3500 
L 1159 2956 
Q 1341 3275 1631 3429 
Q 1922 3584 2338 3584 
Q 2397 3584 2469 3576 
Q 2541 3569 2628 3553 
L 2631 2963 
z
" transform="scale(0.015625)"/>
       <path id="DejaVuSans-69" d="M 603 3500 
L 1178 3500 
L 1178 0 
L 603 0 
L 603 3500 
z
M 603 4863 
L 1178 4863 
L 1178 4134 
L 603 4134 
L 603 4863 
z
" transform="scale(0.015625)"/>
       <path id="DejaVuSans-6b" d="M 581 4863 
L 1159 4863 
L 1159 1991 
L 2875 3500 
L 3609 3500 
L 1753 1863 
L 3688 0 
L 2938 0 
L 1159 1709 
L 1159 0 
L 581 0 
L 581 4863 
z
" transform="scale(0.015625)"/>
       <path id="DejaVuSans-65" d="M 3597 1894 
L 3597 1613 
L 953 1613 
Q 991 1019 1311 708 
Q 1631 397 2203 397 
Q 2534 397 2845 478 
Q 3156 559 3463 722 
L 3463 178 
Q 3153 47 2828 -22 
Q 2503 -91 2169 -91 
Q 1331 -91 842 396 
Q 353 884 353 1716 
Q 353 2575 817 3079 
Q 1281 3584 2069 3584 
Q 2775 3584 3186 3129 
Q 3597 2675 3597 1894 
z
M 3022 2063 
Q 3016 2534 2758 2815 
Q 2500 3097 2075 3097 
Q 1594 3097 1305 2825 
Q 1016 2553 972 2059 
L 3022 2063 
z
" transform="scale(0.015625)"/>
       <path id="DejaVuSans-20" transform="scale(0.015625)"/>
       <path id="DejaVuSans-61" d="M 2194 1759 
Q 1497 1759 1228 1600 
Q 959 1441 959 1056 
Q 959 750 1161 570 
Q 1363 391 1709 391 
Q 2188 391 2477 730 
Q 2766 1069 2766 1631 
L 2766 1759 
L 2194 1759 
z
M 3341 1997 
L 3341 0 
L 2766 0 
L 2766 531 
Q 2569 213 2275 61 
Q 1981 -91 1556 -91 
Q 1019 -91 701 211 
Q 384 513 384 1019 
Q 384 1609 779 1909 
Q 1175 2209 1959 2209 
L 2766 2209 
L 2766 2266 
Q 2766 2663 2505 2880 
Q 2244 3097 1772 3097 
Q 1472 3097 1187 3025 
Q 903 2953 641 2809 
L 641 3341 
Q 956 3463 1253 3523 
Q 1550 3584 1831 3584 
Q 2591 3584 2966 3190 
Q 3341 2797 3341 1997 
z
" transform="scale(0.015625)"/>
      </defs>
      <use xlink:href="#DejaVuSans-53"/>
      <use xlink:href="#DejaVuSans-70" x="63.476562"/>
      <use xlink:href="#DejaVuSans-6f" x="126.953125"/>
      <use xlink:href="#DejaVuSans-74" x="188.134766"/>
      <use xlink:href="#DejaVuSans-2f" x="227.34375"/>
      <use xlink:href="#DejaVuSans-73" x="261.035156"/>
      <use xlink:href="#DejaVuSans-74" x="313.134766"/>
      <use xlink:href="#DejaVuSans-72" x="352.34375"/>
      <use xlink:href="#DejaVuSans-69" x="393.457031"/>
      <use xlink:href="#DejaVuSans-6b" x="421.240234"/>
      <use xlink:href="#DejaVuSans-65" x="475.525391"/>
      <use xlink:href="#DejaVuSans-20" x="537.048828"/>
      <use xlink:href="#DejaVuSans-72" x="568.835938"/>
      <use xlink:href="#DejaVuSans-61" x="609.949219"/>
      <use xlink:href="#DejaVuSans-74" x="671.228516"/>
      <use xlink:href="#DejaVuSans-69" x="710.4375"/>
      <use xlink:href="#DejaVuSans-6f" x="738.220703"/>
     </g>
    </g>
   </g>
   <g id="matplotlib.axis_2">
    <g id="ytick_1">
     <g id="line2d_11">
      <path d="M 108 486.981818 
L 777.6 486.981818 
" clip-path="url(#p4cc9a0d718)" style="fill: none; stroke: #b0b0b0; stroke-width: 0.8; stroke-linecap: square"/>
     </g>
     <g id="line2d_12">
      <defs>
       <path id="mf9333c7fee" d="M 0 0 
L -3.5 0 
" style="stroke: #000000; stroke-width: 0.8"/>
      </defs>
      <g>
       <use xlink:href="#mf9333c7fee" x="108" y="486.981818" style="stroke: #000000; stroke-width: 0.8"/>
      </g>
     </g>
     <g id="text_7">
      <!-- 0.00 -->
      <g transform="translate(78.734375 490.781037) scale(0.1 -0.1)">
       <use xlink:href="#DejaVuSans-30"/>
       <use xlink:href="#DejaVuSans-2e" x="63.623047"/>
       <use xlink:href="#DejaVuSans-30" x="95.410156"/>
       <use xlink:href="#DejaVuSans-30" x="159.033203"/>
      </g>
     </g>
    </g>
    <g id="ytick_2">
     <g id="line2d_13">
      <path d="M 108 395.345455 
L 777.6 395.345455 
" clip-path="url(#p4cc9a0d718)" style="fill: none; stroke: #b0b0b0; stroke-width: 0.8; stroke-linecap: square"/>
     </g>
     <g id="line2d_14">
      <g>
       <use xlink:href="#mf9333c7fee" x="108" y="395.345455" style="stroke: #000000; stroke-width: 0.8"/>
      </g>
     </g>
     <g id="text_8">
      <!-- 0.01 -->
      <g transform="translate(78.734375 399.144673) scale(0.1 -0.1)">
       <use xlink:href="#DejaVuSans-30"/>
       <use xlink:href="#DejaVuSans-2e" x="63.623047"/>
       <use xlink:href="#DejaVuSans-30" x="95.410156"/>
       <use xlink:href="#DejaVuSans-31" x="159.033203"/>
      </g>
     </g>
    </g>
    <g id="ytick_3">
     <g id="line2d_15">
      <path d="M 108 303.709091 
L 777.6 303.709091 
" clip-path="url(#p4cc9a0d718)" style="fill: none; stroke: #b0b0b0; stroke-width: 0.8; stroke-linecap: square"/>
     </g>
     <g id="line2d_16">
      <g>
       <use xlink:href="#mf9333c7fee" x="108" y="303.709091" style="stroke: #000000; stroke-width: 0.8"/>
      </g>
     </g>
     <g id="text_9">
      <!-- 0.02 -->
      <g transform="translate(78.734375 307.50831) scale(0.1 -0.1)">
       <use xlink:href="#DejaVuSans-30"/>
       <use xlink:href="#DejaVuSans-2e" x="63.623047"/>
       <use xlink:href="#DejaVuSans-30" x="95.410156"/>
       <use xlink:href="#DejaVuSans-32" x="159.033203"/>
      </g>
     </g>
    </g>
    <g id="ytick_4">
     <g id="line2d_17">
      <path d="M 108 212.072727 
L 777.6 212.072727 
" clip-path="url(#p4cc9a0d718)" style="fill: none; stroke: #b0b0b0; stroke-width: 0.8; stroke-linecap: square"/>
     </g>
     <g id="line2d_18">
      <g>
       <use xlink:href="#mf9333c7fee" x="108" y="212.072727" style="stroke: #000000; stroke-width: 0.8"/>
      </g>
     </g>
     <g id="text_10">
      <!-- 0.03 -->
      <g transform="translate(78.734375 215.871946) scale(0.1 -0.1)">
       <defs>
        <path id="DejaVuSans-33" d="M 2597 2516 
Q 3050 2419 3304 2112 
Q 3559 1806 3559 1356 
Q 3559 666 3084 287 
Q 2609 -91 1734 -91 
Q 1441 -91 1130 -33 
Q 819 25 488 141 
L 488 750 
Q 750 597 1062 519 
Q 1375 441 1716 441 
Q 2309 441 2620 675 
Q 2931 909 2931 1356 
Q 2931 1769 2642 2001 
Q 2353 2234 1838 2234 
L 1294 2234 
L 1294 2753 
L 1863 2753 
Q 2328 2753 2575 2939 
Q 2822 3125 2822 3475 
Q 2822 3834 2567 4026 
Q 2313 4219 1838 4219 
Q 1578 4219 1281 4162 
Q 984 4106 628 3988 
L 628 4550 
Q 988 4650 1302 4700 
Q 1616 4750 1894 4750 
Q 2613 4750 3031 4423 
Q 3450 4097 3450 3541 
Q 3450 3153 3228 2886 
Q 3006 2619 2597 2516 
z
" transform="scale(0.015625)"/>
       </defs>
       <use xlink:href="#DejaVuSans-30"/>
       <use xlink:href="#DejaVuSans-2e" x="63.623047"/>
       <use xlink:href="#DejaVuSans-30" x="95.410156"/>
       <use xlink:href="#DejaVuSans-33" x="159.033203"/>
      </g>
     </g>
    </g>
    <g id="ytick_5">
     <g id="line2d_19">
      <path d="M 108 120.436364 
L 777.6 120.436364 
" clip-path="url(#p4cc9a0d718)" style="fill: none; stroke: #b0b0b0; stroke-width: 0.8; stroke-linecap: square"/>
     </g>
     <g id="line2d_20">
      <g>
       <use xlink:href="#mf9333c7fee" x="108" y="120.436364" style="stroke: #000000; stroke-width: 0.8"/>
      </g>
     </g>
     <g id="text_11">
      <!-- 0.04 -->
      <g transform="translate(78.734375 124.235582) scale(0.1 -0.1)">
       <use xlink:href="#DejaVuSans-30"/>
       <use xlink:href="#DejaVuSans-2e" x="63.623047"/>
       <use xlink:href="#DejaVuSans-30" x="95.410156"/>
       <use xlink:href="#DejaVuSans-34" x="159.033203"/>
      </g>
     </g>
    </g>
    <g id="text_12">
     <!-- Price/strike ratio -->
     <g transform="translate(70.990938 364.318594) rotate(-90) scale(0.18 -0.18)">
      <defs>
       <path id="DejaVuSans-50" d="M 1259 4147 
L 1259 2394 
L 2053 2394 
Q 2494 2394 2734 2622 
Q 2975 2850 2975 3272 
Q 2975 3691 2734 3919 
Q 2494 4147 2053 4147 
L 1259 4147 
z
M 628 4666 
L 2053 4666 
Q 2838 4666 3239 4311 
Q 3641 3956 3641 3272 
Q 3641 2581 3239 2228 
Q 2838 1875 2053 1875 
L 1259 1875 
L 1259 0 
L 628 0 
L 628 4666 
z
" transform="scale(0.015625)"/>
       <path id="DejaVuSans-63" d="M 3122 3366 
L 3122 2828 
Q 2878 2963 2633 3030 
Q 2388 3097 2138 3097 
Q 1578 3097 1268 2742 
Q 959 2388 959 1747 
Q 959 1106 1268 751 
Q 1578 397 2138 397 
Q 2388 397 2633 464 
Q 2878 531 3122 666 
L 3122 134 
Q 2881 22 2623 -34 
Q 2366 -91 2075 -91 
Q 1284 -91 818 406 
Q 353 903 353 1747 
Q 353 2603 823 3093 
Q 1294 3584 2113 3584 
Q 2378 3584 2631 3529 
Q 2884 3475 3122 3366 
z
" transform="scale(0.015625)"/>
      </defs>
      <use xlink:href="#DejaVuSans-50"/>
      <use xlink:href="#DejaVuSans-72" x="58.552734"/>
      <use xlink:href="#DejaVuSans-69" x="99.666016"/>
      <use xlink:href="#DejaVuSans-63" x="127.449219"/>
      <use xlink:href="#DejaVuSans-65" x="182.429688"/>
      <use xlink:href="#DejaVuSans-2f" x="243.953125"/>
      <use xlink:href="#DejaVuSans-73" x="277.644531"/>
      <use xlink:href="#DejaVuSans-74" x="329.744141"/>
      <use xlink:href="#DejaVuSans-72" x="368.953125"/>
      <use xlink:href="#DejaVuSans-69" x="410.066406"/>
      <use xlink:href="#DejaVuSans-6b" x="437.849609"/>
      <use xlink:href="#DejaVuSans-65" x="492.134766"/>
      <use xlink:href="#DejaVuSans-20" x="553.658203"/>
      <use xlink:href="#DejaVuSans-72" x="585.445312"/>
      <use xlink:href="#DejaVuSans-61" x="626.558594"/>
      <use xlink:href="#DejaVuSans-74" x="687.837891"/>
      <use xlink:href="#DejaVuSans-69" x="727.046875"/>
      <use xlink:href="#DejaVuSans-6f" x="754.830078"/>
     </g>
    </g>
   </g>
   <g id="line2d_21">
    <path d="M 138.436364 486.981818 
L 247.585781 486.981818 
L 248.012145 486.065455 
L 248.073055 486.981818 
L 254.955803 486.981818 
L 257.879448 486.065455 
L 262.021278 486.065455 
L 264.457649 485.149091 
L 264.457649 486.065455 
L 265.432198 486.065455 
L 266.1022 485.149091 
L 267.74675 486.065455 
L 267.990387 485.149091 
L 268.53857 486.065455 
L 270.487667 486.065455 
L 271.157669 485.149091 
L 271.340397 485.149091 
L 271.705853 486.065455 
L 271.94949 485.149091 
L 272.010399 486.065455 
L 272.375855 485.149091 
L 273.350403 485.149091 
L 273.715859 486.065455 
L 274.934044 485.149091 
L 275.604046 483.316364 
L 277.004959 484.232727 
L 277.614052 485.149091 
L 277.674961 484.232727 
L 277.79678 485.149091 
L 278.162236 484.232727 
L 278.284054 485.149091 
L 279.380421 484.232727 
L 279.563149 485.149091 
L 280.050423 484.232727 
L 280.415879 484.232727 
L 281.390427 485.149091 
L 281.573155 485.149091 
L 281.573155 485.149091 
L 281.877701 484.232727 
L 283.217705 484.232727 
L 283.217705 483.316364 
L 283.765889 484.232727 
L 284.253163 484.232727 
L 286.628624 483.316364 
L 286.750443 484.232727 
L 287.298626 482.4 
L 287.481354 483.316364 
L 287.542264 482.4 
L 288.69954 483.316364 
L 289.247723 483.316364 
L 290.465909 481.483636 
L 291.257729 482.4 
L 293.267735 482.4 
L 295.216832 480.567273 
L 296.861382 480.567273 
L 297.04411 479.650909 
L 297.775021 481.483636 
L 298.566842 479.650909 
L 299.419572 481.483636 
L 299.724118 477.818182 
L 299.724118 480.567273 
L 299.845937 481.483636 
L 300.028664 477.818182 
L 300.39412 479.650909 
L 301.003213 478.734545 
L 302.343217 478.734545 
L 303.135037 479.650909 
L 303.987767 478.734545 
L 304.048676 477.818182 
L 305.205953 478.734545 
L 305.327771 475.069091 
L 306.606866 475.985455 
L 306.789594 476.901818 
L 307.764142 476.901818 
L 308.068688 475.069091 
L 308.373235 475.985455 
L 308.616872 478.734545 
L 309.165055 478.734545 
L 311.905973 475.069091 
L 312.332338 473.236364 
L 313.245977 475.069091 
L 314.768708 475.069091 
L 315.134164 473.236364 
L 315.925985 470.487273 
L 316.230531 472.32 
L 316.535077 467.738182 
L 316.900533 472.32 
L 316.900533 471.403636 
L 317.387807 470.487273 
L 317.692354 469.570909 
L 317.9969 472.32 
L 319.032358 470.487273 
L 320.311452 468.654545 
L 320.676908 468.654545 
L 322.321458 467.738182 
L 322.747823 466.821818 
L 323.113279 468.654545 
L 323.722372 465.905455 
L 323.966009 465.905455 
L 326.889654 460.407273 
L 326.950563 464.989091 
L 327.925111 464.072727 
L 328.777841 462.24 
L 329.082388 460.407273 
L 329.326025 460.407273 
L 329.508753 461.323636 
L 330.361482 462.24 
L 330.848757 459.490909 
L 330.848757 458.574545 
L 331.39694 460.407273 
L 332.371488 458.574545 
L 332.554216 457.658182 
L 334.320585 454.909091 
L 334.868769 453.076364 
L 334.868769 454.909091 
L 335.538771 452.16 
L 336.269682 454.909091 
L 338.462416 453.992727 
L 338.827871 453.076364 
L 338.827871 451.243636 
L 340.167875 449.410909 
L 341.934244 447.578182 
L 341.995153 442.996364 
L 342.056063 444.829091 
L 342.360609 445.745455 
L 342.969702 445.745455 
L 343.213339 442.08 
L 343.274248 445.745455 
L 343.700613 443.912727 
L 343.883341 445.745455 
L 344.857889 442.08 
L 344.918799 439.330909 
L 345.710619 438.414545 
L 346.319712 438.414545 
L 346.746077 441.163636 
L 347.172442 435.665455 
L 348.938811 437.498182 
L 349.730631 432.916364 
L 349.974268 432.916364 
L 351.009726 428.334545 
L 351.131544 424.669091 
L 351.253363 430.167273 
L 352.654276 428.334545 
L 352.715185 429.250909 
L 353.507006 429.250909 
L 353.507006 424.669091 
L 353.872462 427.418182 
L 355.456103 422.836364 
L 356.065195 417.338182 
L 357.34429 419.170909 
L 357.466109 421.003636 
L 357.648837 414.589091 
L 357.831564 414.589091 
L 359.597933 413.672727 
L 360.267935 412.756364 
L 360.328845 409.090909 
L 360.877028 410.007273 
L 362.034304 413.672727 
L 362.39976 406.341818 
L 362.887034 399.927273 
L 363.130671 399.927273 
L 364.105219 396.261818 
L 364.105219 402.676364 
L 364.775221 399.010909 
L 365.018859 401.76 
L 365.506133 396.261818 
L 365.871588 398.094545 
L 365.932498 397.178182 
L 367.637957 390.763636 
L 367.759776 390.763636 
L 368.977961 388.930909 
L 370.013419 387.098182 
L 370.439784 380.683636 
L 370.561602 381.6 
L 371.048877 378.850909 
L 372.754336 370.603636 
L 372.815246 379.767273 
L 372.815246 376.101818 
L 373.363429 366.938182 
L 374.642524 366.021818 
L 374.886161 366.938182 
L 374.94707 368.770909 
L 376.347983 370.603636 
L 377.809806 365.105455 
L 378.175262 353.192727 
L 379.637084 355.025455 
L 379.697993 348.610909 
L 379.697993 349.527273 
L 380.79436 345.861818 
L 380.916179 348.610909 
L 382.317092 353.192727 
L 383.839824 340.363636 
L 383.961642 340.363636 
L 385.058009 330.283636 
L 385.545284 330.283636 
L 386.276195 318.370909 
L 386.337104 333.032727 
L 387.189834 328.450909 
L 387.616199 312.872727 
L 387.738017 319.287273 
L 389.565296 310.123636 
L 390.661662 315.621818 
L 390.9053 311.04 
L 391.331664 300.043636 
L 392.854396 291.796364 
L 393.40258 291.796364 
L 393.40258 298.210909 
L 393.524398 301.876364 
L 393.524398 294.545455 
L 393.828945 289.047273 
L 394.438037 293.629091 
L 395.04713 287.214545 
L 395.168949 284.465455 
L 395.229858 287.214545 
L 395.656223 280.8 
L 395.717132 282.632727 
L 396.204406 275.301818 
L 396.813499 278.967273 
L 397.178955 278.050909 
L 397.60532 273.469091 
L 397.60532 267.970909 
L 398.336231 274.385455 
L 398.579868 267.054545 
L 399.493507 265.221818 
L 399.615326 267.970909 
L 399.737144 254.225455 
L 400.1026 268.887273 
L 400.711692 257.890909 
L 400.772602 245.978182 
L 401.259876 255.141818 
L 402.051696 249.643636 
L 403.45261 244.145455 
L 404.366249 241.396364 
L 404.731704 229.483636 
L 405.94989 225.818182 
L 405.94989 223.069091 
L 406.010799 223.069091 
L 406.74171 216.654545 
L 407.107166 224.901818 
L 408.751716 212.989091 
L 409.360809 216.654545 
L 409.726265 201.992727 
L 410.335358 201.992727 
L 413.50264 179.083636 
L 413.929005 187.330909 
L 414.111732 172.669091 
L 414.477188 169.92 
L 414.538097 178.167273 
L 416.426285 158.923636 
L 417.157196 159.84 
L 417.339924 158.923636 
L 417.888107 153.425455 
L 418.923565 140.596364 
L 419.106293 150.676364 
L 419.593567 135.098182 
L 419.715386 138.763636 
L 420.141751 137.847273 
L 421.420845 130.516364 
L 422.029938 116.770909 
L 422.212666 125.934545 
L 422.212666 135.098182 
L 422.395394 127.767273 
L 423.55267 118.603636 
L 423.55267 125.934545 
L 423.613579 110.356364 
L 424.222672 114.938182 
L 424.527218 114.938182 
L 425.258129 95.694545 
L 425.867222 95.694545 
L 428.364502 89.28 
L 429.156323 92.029091 
L 429.765416 102.109091 
L 429.887234 89.28 
L 430.374508 100.276364 
L 430.800873 99.36 
L 430.922692 101.192727 
L 432.445424 118.603636 
L 432.871789 115.854545 
L 433.541791 123.185455 
L 433.785428 123.185455 
L 434.089974 118.603636 
L 435.490887 133.265455 
L 435.795434 123.185455 
L 436.160889 136.014545 
L 436.769982 143.345455 
L 436.95271 142.429091 
L 438.109986 159.84 
L 438.292714 147.010909 
L 438.962716 151.592727 
L 439.876355 164.421818 
L 440.850903 174.501818 
L 441.520905 174.501818 
L 441.520905 169.92 
L 441.886361 180.916364 
L 442.556363 181.832727 
L 443.348183 181.832727 
L 443.957276 190.996364 
L 443.957276 192.829091 
L 444.50546 185.498182 
L 444.627278 194.661818 
L 445.236371 207.490909 
L 445.419099 194.661818 
L 446.454556 205.658182 
L 447.733651 206.574545 
L 448.220925 210.24 
L 448.890927 212.989091 
L 449.073655 219.403636 
L 449.073655 214.821818 
L 450.596387 229.483636 
L 450.779115 222.152727 
L 450.779115 226.734545 
L 451.083661 233.149091 
L 453.093667 236.814545 
L 453.946397 240.48 
L 454.007306 243.229091 
L 454.49458 241.396364 
L 454.738217 245.978182 
L 454.738217 256.058182 
L 454.860036 230.4 
L 456.20004 256.974545 
L 456.321859 246.894545 
L 456.626405 250.56 
L 457.174588 247.810909 
L 457.296407 263.389091 
L 457.722772 256.974545 
L 458.636411 266.138182 
L 459.306413 269.803636 
L 460.524598 267.054545 
L 461.620965 272.552727 
L 462.169149 278.967273 
L 463.996427 295.461818 
L 465.39734 291.796364 
L 465.580068 282.632727 
L 466.067342 310.123636 
L 467.529165 294.545455 
L 467.590074 301.876364 
L 468.016439 296.378182 
L 468.260076 316.538182 
L 468.381895 298.210909 
L 468.990987 312.872727 
L 469.051897 303.709091 
L 469.356443 309.207273 
L 470.087354 315.621818 
L 470.696447 322.036364 
L 472.828272 321.12 
L 473.132818 317.454545 
L 473.863729 320.203636 
L 474.351003 325.701818 
L 474.960096 320.203636 
L 475.50828 330.283636 
L 475.630098 334.865455 
L 475.934644 333.032727 
L 476.543737 331.2 
L 477.640104 333.032727 
L 478.919199 340.363636 
L 479.041017 351.36 
L 479.223745 341.28 
L 480.441931 352.276364 
L 480.868296 352.276364 
L 481.051023 337.614545 
L 481.538298 344.029091 
L 482.573755 343.112727 
L 483.121939 356.858182 
L 483.974668 353.192727 
L 484.827398 355.941818 
L 485.253763 356.858182 
L 485.619219 363.272727 
L 487.081041 376.101818 
L 488.360136 373.352727 
L 489.030138 366.021818 
L 489.091047 379.767273 
L 489.091047 366.938182 
L 489.943777 374.269091 
L 490.491961 376.101818 
L 490.857416 371.52 
L 491.040144 386.181818 
L 491.527418 374.269091 
L 492.136511 381.6 
L 493.232878 386.181818 
L 493.537424 382.516364 
L 493.598334 389.847273 
L 494.572882 382.516364 
L 494.572882 381.6 
L 494.75561 393.512727 
L 496.095614 395.345455 
L 496.278342 394.429091 
L 496.582888 384.349091 
L 496.582888 395.345455 
L 497.009253 391.68 
L 497.070162 386.181818 
L 498.531985 399.010909 
L 498.653803 388.014545 
L 499.75017 396.261818 
L 500.359263 399.927273 
L 504.80564 411.84 
L 505.171095 410.923636 
L 505.232005 407.258182 
L 505.414732 407.258182 
L 506.389281 419.170909 
L 507.059283 410.007273 
L 507.242011 409.090909 
L 507.424738 415.505455 
L 509.678382 423.752727 
L 509.8002 421.003636 
L 509.922019 423.752727 
L 509.982928 421.92 
L 510.896567 418.254545 
L 511.262023 415.505455 
L 511.627478 421.92 
L 512.29748 421.92 
L 512.845664 421.003636 
L 515.282035 430.167273 
L 516.256583 430.167273 
L 517.109313 427.418182 
L 517.231131 428.334545 
L 517.779315 427.418182 
L 518.14477 428.334545 
L 518.388408 430.167273 
L 518.388408 442.996364 
L 519.302047 430.167273 
L 519.484775 432.916364 
L 519.484775 434.749091 
L 520.215686 432 
L 520.581141 428.334545 
L 520.763869 436.581818 
L 521.616599 438.414545 
L 521.738418 433.832727 
L 521.982055 438.414545 
L 521.982055 441.163636 
L 523.139331 443.912727 
L 523.626605 443.912727 
L 524.479335 434.749091 
L 525.210246 442.996364 
L 526.002067 437.498182 
L 527.463889 443.912727 
L 528.194801 443.912727 
L 528.438438 447.578182 
L 528.986621 440.247273 
L 529.10844 445.745455 
L 529.291167 448.494545 
L 529.717532 447.578182 
L 530.631171 439.330909 
L 530.631171 445.745455 
L 531.118446 445.745455 
L 531.301173 456.741818 
L 532.519359 448.494545 
L 533.554817 445.745455 
L 535.443004 453.076364 
L 535.869369 453.076364 
L 537.45301 454.909091 
L 538.853923 460.407273 
L 538.975742 452.16 
L 540.072109 456.741818 
L 541.229385 464.072727 
L 542.691207 458.574545 
L 542.691207 457.658182 
L 543.117572 464.989091 
L 544.640304 459.490909 
L 545.371215 459.490909 
L 546.893947 458.574545 
L 548.416679 459.490909 
L 548.477588 461.323636 
L 548.782135 460.407273 
L 549.573955 461.323636 
L 550.243957 459.490909 
L 552.132145 464.072727 
L 552.375782 464.989091 
L 553.533058 464.989091 
L 553.959423 468.654545 
L 554.263969 466.821818 
L 555.543064 467.738182 
L 555.786701 473.236364 
L 556.883068 463.156364 
L 556.943977 468.654545 
L 557.431251 468.654545 
L 557.55307 467.738182 
L 558.953983 471.403636 
L 559.19762 466.821818 
L 559.441257 466.821818 
L 559.684895 471.403636 
L 560.415806 469.570909 
L 560.90308 469.570909 
L 561.816719 471.403636 
L 562.303993 470.487273 
L 562.669449 465.905455 
L 563.034905 478.734545 
L 564.25309 473.236364 
L 565.593094 472.32 
L 567.542191 475.985455 
L 567.968556 474.152727 
L 568.699467 475.985455 
L 569.064923 468.654545 
L 569.064923 468.654545 
L 569.24765 472.32 
L 569.369469 471.403636 
L 570.892201 474.152727 
L 570.892201 476.901818 
L 572.293114 475.069091 
L 572.354023 473.236364 
L 572.536751 475.985455 
L 574.120392 480.567273 
L 574.30312 479.650909 
L 574.424939 475.069091 
L 574.546757 476.901818 
L 576.678582 476.901818 
L 577.165856 474.152727 
L 579.724045 476.901818 
L 579.845864 475.985455 
L 579.967682 481.483636 
L 580.576775 482.4 
L 581.85587 478.734545 
L 582.525872 475.985455 
L 582.586781 482.4 
L 582.64769 481.483636 
L 583.134965 475.985455 
L 583.317692 477.818182 
L 583.439511 477.818182 
L 585.023152 480.567273 
L 585.266789 479.650909 
L 585.510426 477.818182 
L 586.119519 483.316364 
L 586.180428 476.901818 
L 586.241338 478.734545 
L 586.363156 476.901818 
L 586.972249 479.650909 
L 588.616799 479.650909 
L 588.921346 477.818182 
L 589.043164 478.734545 
L 589.164983 482.4 
L 589.895894 478.734545 
L 589.956803 477.818182 
L 590.748624 480.567273 
L 591.114079 478.734545 
L 591.418626 482.4 
L 591.966809 484.232727 
L 592.941358 481.483636 
L 594.646817 481.483636 
L 594.890454 482.4 
L 595.804093 482.4 
L 596.10864 483.316364 
L 598.423192 478.734545 
L 598.60592 483.316364 
L 599.032285 482.4 
L 599.093194 480.567273 
L 599.945924 480.567273 
L 600.920472 482.4 
L 601.1032 486.981818 
L 601.590474 484.232727 
L 603.174115 479.650909 
L 603.60048 484.232727 
L 603.722299 482.4 
L 604.270482 484.232727 
L 605.427758 482.4 
L 605.854123 487.898182 
L 606.402307 482.4 
L 607.925039 485.149091 
L 609.874135 487.898182 
L 610.909593 478.734545 
L 611.640504 480.567273 
L 611.823232 483.316364 
L 612.85869 482.4 
L 613.163236 489.730909 
L 613.65051 480.567273 
L 614.50324 483.316364 
L 614.625059 484.232727 
L 615.538698 484.232727 
L 615.599607 482.4 
L 616.269609 482.4 
L 616.330518 485.149091 
L 617.244157 486.065455 
L 617.914159 484.232727 
L 617.975069 487.898182 
L 618.096887 486.065455 
L 618.218706 482.4 
L 618.401434 485.149091 
L 618.70598 483.316364 
L 619.375982 486.065455 
L 619.375982 483.316364 
L 619.55871 486.065455 
L 621.264169 482.4 
L 621.385988 477.818182 
L 622.604173 486.981818 
L 623.76145 486.981818 
L 624.857817 485.149091 
L 625.040544 482.4 
L 626.380548 484.232727 
L 626.806913 484.232727 
L 626.928732 490.647273 
L 628.451464 488.814545 
L 629.243284 484.232727 
L 630.644197 481.483636 
L 630.766016 486.065455 
L 631.375109 487.898182 
L 631.496927 486.065455 
L 632.288748 486.065455 
L 632.95875 483.316364 
L 632.95875 482.4 
L 634.481482 482.4 
L 636.369669 486.065455 
L 637.039671 485.149091 
L 637.648764 482.4 
L 639.780588 481.483636 
L 640.328772 484.232727 
L 641.242411 485.149091 
L 643.130598 491.563636 
L 644.166056 486.981818 
L 645.749697 486.981818 
L 646.602427 489.730909 
L 646.967883 484.232727 
L 647.942431 483.316364 
L 648.551524 482.4 
L 648.612433 486.065455 
L 648.795161 484.232727 
L 650.439711 483.316364 
L 650.622439 485.149091 
L 651.840624 488.814545 
L 652.20608 486.065455 
L 654.825179 483.316364 
L 655.495181 487.898182 
L 656.530638 484.232727 
L 657.809733 487.898182 
L 657.931552 485.149091 
L 658.479735 484.232727 
L 658.9061 488.814545 
L 660.124285 484.232727 
L 660.307013 484.232727 
L 661.220652 486.065455 
L 661.281562 484.232727 
L 661.342471 486.981818 
L 661.829745 487.898182 
L 662.438838 487.898182 
L 662.865203 486.981818 
L 663.596114 487.898182 
L 663.96157 489.730909 
L 664.997027 486.065455 
L 665.301574 486.065455 
L 665.849757 484.232727 
L 666.397941 487.898182 
L 667.007033 488.814545 
L 667.433398 486.981818 
L 667.555217 487.898182 
L 667.981582 486.065455 
L 668.286128 486.981818 
L 669.017039 486.981818 
L 670.235225 484.232727 
L 670.296134 480.567273 
L 672.732505 476.901818 
L 673.341598 488.814545 
L 673.646144 486.981818 
L 674.377055 484.232727 
L 674.437965 479.650909 
L 675.168876 483.316364 
L 677.605247 489.730909 
L 678.457977 488.814545 
L 678.457977 485.149091 
L 678.701614 487.898182 
L 679.797981 489.730909 
L 679.980708 487.898182 
L 680.346164 491.563636 
L 680.407073 485.149091 
L 682.417079 490.647273 
L 682.904354 488.814545 
L 683.2089 486.065455 
L 683.696174 484.232727 
L 684.548904 484.232727 
L 685.157997 486.065455 
L 685.70618 488.814545 
L 686.071636 484.232727 
L 686.071636 485.149091 
L 686.193454 489.730909 
L 686.315273 484.232727 
L 686.55891 489.730909 
L 686.924366 488.814545 
L 687.107093 485.149091 
L 687.289821 486.065455 
L 687.898914 485.149091 
L 690.883468 486.065455 
L 693.198021 489.730909 
L 694.842571 487.898182 
L 696.182575 487.898182 
L 696.243484 486.065455 
L 696.426212 486.981818 
L 696.487121 488.814545 
L 696.913486 483.316364 
L 697.035305 490.647273 
L 697.339851 486.065455 
L 697.522579 479.650909 
L 697.827125 485.149091 
L 699.045311 486.065455 
L 700.324406 487.898182 
L 700.568043 487.898182 
L 700.689861 485.149091 
L 702.45623 489.730909 
L 702.821686 486.981818 
L 703.248051 485.149091 
L 703.735325 492.48 
L 703.978962 487.898182 
L 705.440784 482.4 
L 705.988968 486.065455 
L 707.389881 484.232727 
L 707.5117 490.647273 
L 707.998974 485.149091 
L 710.983528 488.814545 
L 711.166256 482.4 
L 711.531712 487.898182 
L 711.775349 487.898182 
L 712.201714 486.981818 
L 713.115353 491.563636 
L 714.21172 486.065455 
L 714.272629 488.814545 
L 714.577175 486.065455 
L 715.734452 488.814545 
L 716.038998 488.814545 
L 716.099907 486.981818 
L 716.769909 487.898182 
L 717.257183 484.232727 
L 717.683548 489.730909 
L 718.536278 486.981818 
L 718.536278 486.981818 
L 718.962643 486.981818 
L 719.023552 490.647273 
L 719.632645 487.898182 
L 719.937191 488.814545 
L 720.241738 486.981818 
L 721.825379 487.898182 
L 722.739018 486.981818 
L 723.104474 488.814545 
L 723.348111 491.563636 
L 723.40902 485.149091 
L 723.896294 486.981818 
L 724.444478 489.730909 
L 724.931752 490.647273 
L 726.880849 486.981818 
L 728.281762 490.647273 
L 729.073582 487.898182 
L 729.134492 485.149091 
L 729.926312 486.981818 
L 730.291768 485.149091 
L 730.535405 488.814545 
L 730.657223 484.232727 
L 731.266316 489.730909 
L 732.301774 489.730909 
L 733.398141 492.48 
L 733.763596 485.149091 
L 734.738145 487.898182 
L 734.981782 483.316364 
L 735.95633 485.149091 
L 736.017239 489.730909 
L 736.078149 488.814545 
L 736.199967 484.232727 
L 736.382695 486.981818 
L 736.80906 488.814545 
L 737.539971 486.065455 
L 737.905427 492.48 
L 738.758157 486.981818 
L 739.30634 488.814545 
L 739.732705 485.149091 
L 740.280889 483.316364 
L 740.280889 483.316364 
L 740.341798 488.814545 
L 741.681802 481.483636 
L 742.960897 486.981818 
L 743.265443 485.149091 
L 743.813626 491.563636 
L 745.823632 487.898182 
L 747.163636 488.814545 
L 747.163636 488.814545 
" clip-path="url(#p4cc9a0d718)" style="fill: none; stroke: #1f77b4; stroke-width: 2; stroke-linecap: square"/>
   </g>
   <g id="patch_3">
    <path d="M 108 512.64 
L 108 69.12 
" style="fill: none; stroke: #000000; stroke-width: 0.8; stroke-linejoin: miter; stroke-linecap: square"/>
   </g>
   <g id="patch_4">
    <path d="M 777.6 512.64 
L 777.6 69.12 
" style="fill: none; stroke: #000000; stroke-width: 0.8; stroke-linejoin: miter; stroke-linecap: square"/>
   </g>
   <g id="patch_5">
    <path d="M 108 512.64 
L 777.6 512.64 
" style="fill: none; stroke: #000000; stroke-width: 0.8; stroke-linejoin: miter; stroke-linecap: square"/>
   </g>
   <g id="patch_6">
    <path d="M 108 69.12 
L 777.6 69.12 
" style="fill: none; stroke: #000000; stroke-width: 0.8; stroke-linejoin: miter; stroke-linecap: square"/>
   </g>
   <g id="text_13">
    <!-- Price by spot/strike ratio -->
    <g transform="translate(320.98125 63.12) scale(0.2 -0.2)">
     <defs>
      <path id="DejaVuSans-62" d="M 3116 1747 
Q 3116 2381 2855 2742 
Q 2594 3103 2138 3103 
Q 1681 3103 1420 2742 
Q 1159 2381 1159 1747 
Q 1159 1113 1420 752 
Q 1681 391 2138 391 
Q 2594 391 2855 752 
Q 3116 1113 3116 1747 
z
M 1159 2969 
Q 1341 3281 1617 3432 
Q 1894 3584 2278 3584 
Q 2916 3584 3314 3078 
Q 3713 2572 3713 1747 
Q 3713 922 3314 415 
Q 2916 -91 2278 -91 
Q 1894 -91 1617 61 
Q 1341 213 1159 525 
L 1159 0 
L 581 0 
L 581 4863 
L 1159 4863 
L 1159 2969 
z
" transform="scale(0.015625)"/>
      <path id="DejaVuSans-79" d="M 2059 -325 
Q 1816 -950 1584 -1140 
Q 1353 -1331 966 -1331 
L 506 -1331 
L 506 -850 
L 844 -850 
Q 1081 -850 1212 -737 
Q 1344 -625 1503 -206 
L 1606 56 
L 191 3500 
L 800 3500 
L 1894 763 
L 2988 3500 
L 3597 3500 
L 2059 -325 
z
" transform="scale(0.015625)"/>
     </defs>
     <use xlink:href="#DejaVuSans-50"/>
     <use xlink:href="#DejaVuSans-72" x="58.552734"/>
     <use xlink:href="#DejaVuSans-69" x="99.666016"/>
     <use xlink:href="#DejaVuSans-63" x="127.449219"/>
     <use xlink:href="#DejaVuSans-65" x="182.429688"/>
     <use xlink:href="#DejaVuSans-20" x="243.953125"/>
     <use xlink:href="#DejaVuSans-62" x="275.740234"/>
     <use xlink:href="#DejaVuSans-79" x="339.216797"/>
     <use xlink:href="#DejaVuSans-20" x="398.396484"/>
     <use xlink:href="#DejaVuSans-73" x="430.183594"/>
     <use xlink:href="#DejaVuSans-70" x="482.283203"/>
     <use xlink:href="#DejaVuSans-6f" x="545.759766"/>
     <use xlink:href="#DejaVuSans-74" x="606.941406"/>
     <use xlink:href="#DejaVuSans-2f" x="646.150391"/>
     <use xlink:href="#DejaVuSans-73" x="679.841797"/>
     <use xlink:href="#DejaVuSans-74" x="731.941406"/>
     <use xlink:href="#DejaVuSans-72" x="771.150391"/>
     <use xlink:href="#DejaVuSans-69" x="812.263672"/>
     <use xlink:href="#DejaVuSans-6b" x="840.046875"/>
     <use xlink:href="#DejaVuSans-65" x="894.332031"/>
     <use xlink:href="#DejaVuSans-20" x="955.855469"/>
     <use xlink:href="#DejaVuSans-72" x="987.642578"/>
     <use xlink:href="#DejaVuSans-61" x="1028.755859"/>
     <use xlink:href="#DejaVuSans-74" x="1090.035156"/>
     <use xlink:href="#DejaVuSans-69" x="1129.244141"/>
     <use xlink:href="#DejaVuSans-6f" x="1157.027344"/>
    </g>
   </g>
   <g id="legend_1">
    <g id="patch_7">
     <path d="M 679.300313 109.940625 
L 765 109.940625 
Q 768.6 109.940625 768.6 106.340625 
L 768.6 81.72 
Q 768.6 78.12 765 78.12 
L 679.300313 78.12 
Q 675.700312 78.12 675.700312 81.72 
L 675.700312 106.340625 
Q 675.700312 109.940625 679.300313 109.940625 
z
" style="fill: #ffffff; opacity: 0.8; stroke: #cccccc; stroke-linejoin: miter"/>
    </g>
    <g id="line2d_22">
     <path d="M 682.900313 92.697188 
L 700.900313 92.697188 
L 718.900313 92.697188 
" style="fill: none; stroke: #1f77b4; stroke-width: 2; stroke-linecap: square"/>
    </g>
    <g id="text_14">
     <!-- MC -->
     <g transform="translate(733.300313 98.997188) scale(0.18 -0.18)">
      <defs>
       <path id="DejaVuSans-4d" d="M 628 4666 
L 1569 4666 
L 2759 1491 
L 3956 4666 
L 4897 4666 
L 4897 0 
L 4281 0 
L 4281 4097 
L 3078 897 
L 2444 897 
L 1241 4097 
L 1241 0 
L 628 0 
L 628 4666 
z
" transform="scale(0.015625)"/>
       <path id="DejaVuSans-43" d="M 4122 4306 
L 4122 3641 
Q 3803 3938 3442 4084 
Q 3081 4231 2675 4231 
Q 1875 4231 1450 3742 
Q 1025 3253 1025 2328 
Q 1025 1406 1450 917 
Q 1875 428 2675 428 
Q 3081 428 3442 575 
Q 3803 722 4122 1019 
L 4122 359 
Q 3791 134 3420 21 
Q 3050 -91 2638 -91 
Q 1578 -91 968 557 
Q 359 1206 359 2328 
Q 359 3453 968 4101 
Q 1578 4750 2638 4750 
Q 3056 4750 3426 4639 
Q 3797 4528 4122 4306 
z
" transform="scale(0.015625)"/>
      </defs>
      <use xlink:href="#DejaVuSans-4d"/>
      <use xlink:href="#DejaVuSans-43" x="86.279297"/>
     </g>
    </g>
   </g>
  </g>
 </g>
 <defs>
  <clipPath id="p4cc9a0d718">
   <rect x="108" y="69.12" width="669.6" height="443.52"/>
  </clipPath>
 </defs>
</svg>
