<?xml version="1.0" encoding="utf-8" standalone="no"?>
<!DOCTYPE svg PUBLIC "-//W3C//DTD SVG 1.1//EN"
  "http://www.w3.org/Graphics/SVG/1.1/DTD/svg11.dtd">
<svg xmlns:xlink="http://www.w3.org/1999/xlink" width="864pt" height="576pt" viewBox="0 0 864 576" xmlns="http://www.w3.org/2000/svg" version="1.1">
 <metadata>
  <rdf:RDF xmlns:dc="http://purl.org/dc/elements/1.1/" xmlns:cc="http://creativecommons.org/ns#" xmlns:rdf="http://www.w3.org/1999/02/22-rdf-syntax-ns#">
   <cc:Work>
    <dc:type rdf:resource="http://purl.org/dc/dcmitype/StillImage"/>
    <dc:date>2024-02-24T19:31:09.319049</dc:date>
    <dc:format>image/svg+xml</dc:format>
    <dc:creator>
     <cc:Agent>
      <dc:title>Matplotlib v3.7.3, https://matplotlib.org/</dc:title>
     </cc:Agent>
    </dc:creator>
   </cc:Work>
  </rdf:RDF>
 </metadata>
 <defs>
  <style type="text/css">*{stroke-linejoin: round; stroke-linecap: butt}</style>
 </defs>
 <g id="figure_1">
  <g id="patch_1">
   <path d="M 0 576 
L 864 576 
L 864 0 
L 0 0 
z
" style="fill: #ffffff"/>
  </g>
  <g id="axes_1">
   <g id="patch_2">
    <path d="M 108 512.64 
L 777.6 512.64 
L 777.6 69.12 
L 108 69.12 
z
" style="fill: #ffffff"/>
   </g>
   <g id="matplotlib.axis_1">
    <g id="xtick_1">
     <g id="line2d_1">
      <path d="M 137.827027 512.64 
L 137.827027 69.12 
" clip-path="url(#p5d3c22a494)" style="fill: none; stroke: #b0b0b0; stroke-width: 0.8; stroke-linecap: square"/>
     </g>
     <g id="line2d_2">
      <defs>
       <path id="m61bc1c3758" d="M 0 0 
L 0 3.5 
" style="stroke: #000000; stroke-width: 0.8"/>
      </defs>
      <g>
       <use xlink:href="#m61bc1c3758" x="137.827027" y="512.64" style="stroke: #000000; stroke-width: 0.8"/>
      </g>
     </g>
     <g id="text_1">
      <!-- 0.000 -->
      <g transform="translate(123.512965 527.238438) scale(0.1 -0.1)">
       <defs>
        <path id="DejaVuSans-30" d="M 2034 4250 
Q 1547 4250 1301 3770 
Q 1056 3291 1056 2328 
Q 1056 1369 1301 889 
Q 1547 409 2034 409 
Q 2525 409 2770 889 
Q 3016 1369 3016 2328 
Q 3016 3291 2770 3770 
Q 2525 4250 2034 4250 
z
M 2034 4750 
Q 2819 4750 3233 4129 
Q 3647 3509 3647 2328 
Q 3647 1150 3233 529 
Q 2819 -91 2034 -91 
Q 1250 -91 836 529 
Q 422 1150 422 2328 
Q 422 3509 836 4129 
Q 1250 4750 2034 4750 
z
" transform="scale(0.015625)"/>
        <path id="DejaVuSans-2e" d="M 684 794 
L 1344 794 
L 1344 0 
L 684 0 
L 684 794 
z
" transform="scale(0.015625)"/>
       </defs>
       <use xlink:href="#DejaVuSans-30"/>
       <use xlink:href="#DejaVuSans-2e" x="63.623047"/>
       <use xlink:href="#DejaVuSans-30" x="95.410156"/>
       <use xlink:href="#DejaVuSans-30" x="159.033203"/>
       <use xlink:href="#DejaVuSans-30" x="222.65625"/>
      </g>
     </g>
    </g>
    <g id="xtick_2">
     <g id="line2d_3">
      <path d="M 213.994103 512.64 
L 213.994103 69.12 
" clip-path="url(#p5d3c22a494)" style="fill: none; stroke: #b0b0b0; stroke-width: 0.8; stroke-linecap: square"/>
     </g>
     <g id="line2d_4">
      <g>
       <use xlink:href="#m61bc1c3758" x="213.994103" y="512.64" style="stroke: #000000; stroke-width: 0.8"/>
      </g>
     </g>
     <g id="text_2">
      <!-- 0.025 -->
      <g transform="translate(199.680041 527.238438) scale(0.1 -0.1)">
       <defs>
        <path id="DejaVuSans-32" d="M 1228 531 
L 3431 531 
L 3431 0 
L 469 0 
L 469 531 
Q 828 903 1448 1529 
Q 2069 2156 2228 2338 
Q 2531 2678 2651 2914 
Q 2772 3150 2772 3378 
Q 2772 3750 2511 3984 
Q 2250 4219 1831 4219 
Q 1534 4219 1204 4116 
Q 875 4013 500 3803 
L 500 4441 
Q 881 4594 1212 4672 
Q 1544 4750 1819 4750 
Q 2544 4750 2975 4387 
Q 3406 4025 3406 3419 
Q 3406 3131 3298 2873 
Q 3191 2616 2906 2266 
Q 2828 2175 2409 1742 
Q 1991 1309 1228 531 
z
" transform="scale(0.015625)"/>
        <path id="DejaVuSans-35" d="M 691 4666 
L 3169 4666 
L 3169 4134 
L 1269 4134 
L 1269 2991 
Q 1406 3038 1543 3061 
Q 1681 3084 1819 3084 
Q 2600 3084 3056 2656 
Q 3513 2228 3513 1497 
Q 3513 744 3044 326 
Q 2575 -91 1722 -91 
Q 1428 -91 1123 -41 
Q 819 9 494 109 
L 494 744 
Q 775 591 1075 516 
Q 1375 441 1709 441 
Q 2250 441 2565 725 
Q 2881 1009 2881 1497 
Q 2881 1984 2565 2268 
Q 2250 2553 1709 2553 
Q 1456 2553 1204 2497 
Q 953 2441 691 2322 
L 691 4666 
z
" transform="scale(0.015625)"/>
       </defs>
       <use xlink:href="#DejaVuSans-30"/>
       <use xlink:href="#DejaVuSans-2e" x="63.623047"/>
       <use xlink:href="#DejaVuSans-30" x="95.410156"/>
       <use xlink:href="#DejaVuSans-32" x="159.033203"/>
       <use xlink:href="#DejaVuSans-35" x="222.65625"/>
      </g>
     </g>
    </g>
    <g id="xtick_3">
     <g id="line2d_5">
      <path d="M 290.161179 512.64 
L 290.161179 69.12 
" clip-path="url(#p5d3c22a494)" style="fill: none; stroke: #b0b0b0; stroke-width: 0.8; stroke-linecap: square"/>
     </g>
     <g id="line2d_6">
      <g>
       <use xlink:href="#m61bc1c3758" x="290.161179" y="512.64" style="stroke: #000000; stroke-width: 0.8"/>
      </g>
     </g>
     <g id="text_3">
      <!-- 0.050 -->
      <g transform="translate(275.847117 527.238438) scale(0.1 -0.1)">
       <use xlink:href="#DejaVuSans-30"/>
       <use xlink:href="#DejaVuSans-2e" x="63.623047"/>
       <use xlink:href="#DejaVuSans-30" x="95.410156"/>
       <use xlink:href="#DejaVuSans-35" x="159.033203"/>
       <use xlink:href="#DejaVuSans-30" x="222.65625"/>
      </g>
     </g>
    </g>
    <g id="xtick_4">
     <g id="line2d_7">
      <path d="M 366.328256 512.64 
L 366.328256 69.12 
" clip-path="url(#p5d3c22a494)" style="fill: none; stroke: #b0b0b0; stroke-width: 0.8; stroke-linecap: square"/>
     </g>
     <g id="line2d_8">
      <g>
       <use xlink:href="#m61bc1c3758" x="366.328256" y="512.64" style="stroke: #000000; stroke-width: 0.8"/>
      </g>
     </g>
     <g id="text_4">
      <!-- 0.075 -->
      <g transform="translate(352.014193 527.238438) scale(0.1 -0.1)">
       <defs>
        <path id="DejaVuSans-37" d="M 525 4666 
L 3525 4666 
L 3525 4397 
L 1831 0 
L 1172 0 
L 2766 4134 
L 525 4134 
L 525 4666 
z
" transform="scale(0.015625)"/>
       </defs>
       <use xlink:href="#DejaVuSans-30"/>
       <use xlink:href="#DejaVuSans-2e" x="63.623047"/>
       <use xlink:href="#DejaVuSans-30" x="95.410156"/>
       <use xlink:href="#DejaVuSans-37" x="159.033203"/>
       <use xlink:href="#DejaVuSans-35" x="222.65625"/>
      </g>
     </g>
    </g>
    <g id="xtick_5">
     <g id="line2d_9">
      <path d="M 442.495332 512.64 
L 442.495332 69.12 
" clip-path="url(#p5d3c22a494)" style="fill: none; stroke: #b0b0b0; stroke-width: 0.8; stroke-linecap: square"/>
     </g>
     <g id="line2d_10">
      <g>
       <use xlink:href="#m61bc1c3758" x="442.495332" y="512.64" style="stroke: #000000; stroke-width: 0.8"/>
      </g>
     </g>
     <g id="text_5">
      <!-- 0.100 -->
      <g transform="translate(428.181269 527.238438) scale(0.1 -0.1)">
       <defs>
        <path id="DejaVuSans-31" d="M 794 531 
L 1825 531 
L 1825 4091 
L 703 3866 
L 703 4441 
L 1819 4666 
L 2450 4666 
L 2450 531 
L 3481 531 
L 3481 0 
L 794 0 
L 794 531 
z
" transform="scale(0.015625)"/>
       </defs>
       <use xlink:href="#DejaVuSans-30"/>
       <use xlink:href="#DejaVuSans-2e" x="63.623047"/>
       <use xlink:href="#DejaVuSans-31" x="95.410156"/>
       <use xlink:href="#DejaVuSans-30" x="159.033203"/>
       <use xlink:href="#DejaVuSans-30" x="222.65625"/>
      </g>
     </g>
    </g>
    <g id="xtick_6">
     <g id="line2d_11">
      <path d="M 518.662408 512.64 
L 518.662408 69.12 
" clip-path="url(#p5d3c22a494)" style="fill: none; stroke: #b0b0b0; stroke-width: 0.8; stroke-linecap: square"/>
     </g>
     <g id="line2d_12">
      <g>
       <use xlink:href="#m61bc1c3758" x="518.662408" y="512.64" style="stroke: #000000; stroke-width: 0.8"/>
      </g>
     </g>
     <g id="text_6">
      <!-- 0.125 -->
      <g transform="translate(504.348345 527.238438) scale(0.1 -0.1)">
       <use xlink:href="#DejaVuSans-30"/>
       <use xlink:href="#DejaVuSans-2e" x="63.623047"/>
       <use xlink:href="#DejaVuSans-31" x="95.410156"/>
       <use xlink:href="#DejaVuSans-32" x="159.033203"/>
       <use xlink:href="#DejaVuSans-35" x="222.65625"/>
      </g>
     </g>
    </g>
    <g id="xtick_7">
     <g id="line2d_13">
      <path d="M 594.829484 512.64 
L 594.829484 69.12 
" clip-path="url(#p5d3c22a494)" style="fill: none; stroke: #b0b0b0; stroke-width: 0.8; stroke-linecap: square"/>
     </g>
     <g id="line2d_14">
      <g>
       <use xlink:href="#m61bc1c3758" x="594.829484" y="512.64" style="stroke: #000000; stroke-width: 0.8"/>
      </g>
     </g>
     <g id="text_7">
      <!-- 0.150 -->
      <g transform="translate(580.515422 527.238438) scale(0.1 -0.1)">
       <use xlink:href="#DejaVuSans-30"/>
       <use xlink:href="#DejaVuSans-2e" x="63.623047"/>
       <use xlink:href="#DejaVuSans-31" x="95.410156"/>
       <use xlink:href="#DejaVuSans-35" x="159.033203"/>
       <use xlink:href="#DejaVuSans-30" x="222.65625"/>
      </g>
     </g>
    </g>
    <g id="xtick_8">
     <g id="line2d_15">
      <path d="M 670.99656 512.64 
L 670.99656 69.12 
" clip-path="url(#p5d3c22a494)" style="fill: none; stroke: #b0b0b0; stroke-width: 0.8; stroke-linecap: square"/>
     </g>
     <g id="line2d_16">
      <g>
       <use xlink:href="#m61bc1c3758" x="670.99656" y="512.64" style="stroke: #000000; stroke-width: 0.8"/>
      </g>
     </g>
     <g id="text_8">
      <!-- 0.175 -->
      <g transform="translate(656.682498 527.238438) scale(0.1 -0.1)">
       <use xlink:href="#DejaVuSans-30"/>
       <use xlink:href="#DejaVuSans-2e" x="63.623047"/>
       <use xlink:href="#DejaVuSans-31" x="95.410156"/>
       <use xlink:href="#DejaVuSans-37" x="159.033203"/>
       <use xlink:href="#DejaVuSans-35" x="222.65625"/>
      </g>
     </g>
    </g>
    <g id="xtick_9">
     <g id="line2d_17">
      <path d="M 747.163636 512.64 
L 747.163636 69.12 
" clip-path="url(#p5d3c22a494)" style="fill: none; stroke: #b0b0b0; stroke-width: 0.8; stroke-linecap: square"/>
     </g>
     <g id="line2d_18">
      <g>
       <use xlink:href="#m61bc1c3758" x="747.163636" y="512.64" style="stroke: #000000; stroke-width: 0.8"/>
      </g>
     </g>
     <g id="text_9">
      <!-- 0.200 -->
      <g transform="translate(732.849574 527.238438) scale(0.1 -0.1)">
       <use xlink:href="#DejaVuSans-30"/>
       <use xlink:href="#DejaVuSans-2e" x="63.623047"/>
       <use xlink:href="#DejaVuSans-32" x="95.410156"/>
       <use xlink:href="#DejaVuSans-30" x="159.033203"/>
       <use xlink:href="#DejaVuSans-30" x="222.65625"/>
      </g>
     </g>
    </g>
    <g id="text_10">
     <!-- Risk-free rate -->
     <g transform="translate(382.01625 546.995312) scale(0.18 -0.18)">
      <defs>
       <path id="DejaVuSans-52" d="M 2841 2188 
Q 3044 2119 3236 1894 
Q 3428 1669 3622 1275 
L 4263 0 
L 3584 0 
L 2988 1197 
Q 2756 1666 2539 1819 
Q 2322 1972 1947 1972 
L 1259 1972 
L 1259 0 
L 628 0 
L 628 4666 
L 2053 4666 
Q 2853 4666 3247 4331 
Q 3641 3997 3641 3322 
Q 3641 2881 3436 2590 
Q 3231 2300 2841 2188 
z
M 1259 4147 
L 1259 2491 
L 2053 2491 
Q 2509 2491 2742 2702 
Q 2975 2913 2975 3322 
Q 2975 3731 2742 3939 
Q 2509 4147 2053 4147 
L 1259 4147 
z
" transform="scale(0.015625)"/>
       <path id="DejaVuSans-69" d="M 603 3500 
L 1178 3500 
L 1178 0 
L 603 0 
L 603 3500 
z
M 603 4863 
L 1178 4863 
L 1178 4134 
L 603 4134 
L 603 4863 
z
" transform="scale(0.015625)"/>
       <path id="DejaVuSans-73" d="M 2834 3397 
L 2834 2853 
Q 2591 2978 2328 3040 
Q 2066 3103 1784 3103 
Q 1356 3103 1142 2972 
Q 928 2841 928 2578 
Q 928 2378 1081 2264 
Q 1234 2150 1697 2047 
L 1894 2003 
Q 2506 1872 2764 1633 
Q 3022 1394 3022 966 
Q 3022 478 2636 193 
Q 2250 -91 1575 -91 
Q 1294 -91 989 -36 
Q 684 19 347 128 
L 347 722 
Q 666 556 975 473 
Q 1284 391 1588 391 
Q 1994 391 2212 530 
Q 2431 669 2431 922 
Q 2431 1156 2273 1281 
Q 2116 1406 1581 1522 
L 1381 1569 
Q 847 1681 609 1914 
Q 372 2147 372 2553 
Q 372 3047 722 3315 
Q 1072 3584 1716 3584 
Q 2034 3584 2315 3537 
Q 2597 3491 2834 3397 
z
" transform="scale(0.015625)"/>
       <path id="DejaVuSans-6b" d="M 581 4863 
L 1159 4863 
L 1159 1991 
L 2875 3500 
L 3609 3500 
L 1753 1863 
L 3688 0 
L 2938 0 
L 1159 1709 
L 1159 0 
L 581 0 
L 581 4863 
z
" transform="scale(0.015625)"/>
       <path id="DejaVuSans-2d" d="M 313 2009 
L 1997 2009 
L 1997 1497 
L 313 1497 
L 313 2009 
z
" transform="scale(0.015625)"/>
       <path id="DejaVuSans-66" d="M 2375 4863 
L 2375 4384 
L 1825 4384 
Q 1516 4384 1395 4259 
Q 1275 4134 1275 3809 
L 1275 3500 
L 2222 3500 
L 2222 3053 
L 1275 3053 
L 1275 0 
L 697 0 
L 697 3053 
L 147 3053 
L 147 3500 
L 697 3500 
L 697 3744 
Q 697 4328 969 4595 
Q 1241 4863 1831 4863 
L 2375 4863 
z
" transform="scale(0.015625)"/>
       <path id="DejaVuSans-72" d="M 2631 2963 
Q 2534 3019 2420 3045 
Q 2306 3072 2169 3072 
Q 1681 3072 1420 2755 
Q 1159 2438 1159 1844 
L 1159 0 
L 581 0 
L 581 3500 
L 1159 3500 
L 1159 2956 
Q 1341 3275 1631 3429 
Q 1922 3584 2338 3584 
Q 2397 3584 2469 3576 
Q 2541 3569 2628 3553 
L 2631 2963 
z
" transform="scale(0.015625)"/>
       <path id="DejaVuSans-65" d="M 3597 1894 
L 3597 1613 
L 953 1613 
Q 991 1019 1311 708 
Q 1631 397 2203 397 
Q 2534 397 2845 478 
Q 3156 559 3463 722 
L 3463 178 
Q 3153 47 2828 -22 
Q 2503 -91 2169 -91 
Q 1331 -91 842 396 
Q 353 884 353 1716 
Q 353 2575 817 3079 
Q 1281 3584 2069 3584 
Q 2775 3584 3186 3129 
Q 3597 2675 3597 1894 
z
M 3022 2063 
Q 3016 2534 2758 2815 
Q 2500 3097 2075 3097 
Q 1594 3097 1305 2825 
Q 1016 2553 972 2059 
L 3022 2063 
z
" transform="scale(0.015625)"/>
       <path id="DejaVuSans-20" transform="scale(0.015625)"/>
       <path id="DejaVuSans-61" d="M 2194 1759 
Q 1497 1759 1228 1600 
Q 959 1441 959 1056 
Q 959 750 1161 570 
Q 1363 391 1709 391 
Q 2188 391 2477 730 
Q 2766 1069 2766 1631 
L 2766 1759 
L 2194 1759 
z
M 3341 1997 
L 3341 0 
L 2766 0 
L 2766 531 
Q 2569 213 2275 61 
Q 1981 -91 1556 -91 
Q 1019 -91 701 211 
Q 384 513 384 1019 
Q 384 1609 779 1909 
Q 1175 2209 1959 2209 
L 2766 2209 
L 2766 2266 
Q 2766 2663 2505 2880 
Q 2244 3097 1772 3097 
Q 1472 3097 1187 3025 
Q 903 2953 641 2809 
L 641 3341 
Q 956 3463 1253 3523 
Q 1550 3584 1831 3584 
Q 2591 3584 2966 3190 
Q 3341 2797 3341 1997 
z
" transform="scale(0.015625)"/>
       <path id="DejaVuSans-74" d="M 1172 4494 
L 1172 3500 
L 2356 3500 
L 2356 3053 
L 1172 3053 
L 1172 1153 
Q 1172 725 1289 603 
Q 1406 481 1766 481 
L 2356 481 
L 2356 0 
L 1766 0 
Q 1100 0 847 248 
Q 594 497 594 1153 
L 594 3053 
L 172 3053 
L 172 3500 
L 594 3500 
L 594 4494 
L 1172 4494 
z
" transform="scale(0.015625)"/>
      </defs>
      <use xlink:href="#DejaVuSans-52"/>
      <use xlink:href="#DejaVuSans-69" x="69.482422"/>
      <use xlink:href="#DejaVuSans-73" x="97.265625"/>
      <use xlink:href="#DejaVuSans-6b" x="149.365234"/>
      <use xlink:href="#DejaVuSans-2d" x="207.275391"/>
      <use xlink:href="#DejaVuSans-66" x="243.359375"/>
      <use xlink:href="#DejaVuSans-72" x="278.564453"/>
      <use xlink:href="#DejaVuSans-65" x="317.427734"/>
      <use xlink:href="#DejaVuSans-65" x="378.951172"/>
      <use xlink:href="#DejaVuSans-20" x="440.474609"/>
      <use xlink:href="#DejaVuSans-72" x="472.261719"/>
      <use xlink:href="#DejaVuSans-61" x="513.375"/>
      <use xlink:href="#DejaVuSans-74" x="574.654297"/>
      <use xlink:href="#DejaVuSans-65" x="613.863281"/>
     </g>
    </g>
   </g>
   <g id="matplotlib.axis_2">
    <g id="ytick_1">
     <g id="line2d_19">
      <path d="M 108 493.5552 
L 777.6 493.5552 
" clip-path="url(#p5d3c22a494)" style="fill: none; stroke: #b0b0b0; stroke-width: 0.8; stroke-linecap: square"/>
     </g>
     <g id="line2d_20">
      <defs>
       <path id="m1aad4bafd0" d="M 0 0 
L -3.5 0 
" style="stroke: #000000; stroke-width: 0.8"/>
      </defs>
      <g>
       <use xlink:href="#m1aad4bafd0" x="108" y="493.5552" style="stroke: #000000; stroke-width: 0.8"/>
      </g>
     </g>
     <g id="text_11">
      <!-- 0.010 -->
      <g transform="translate(72.371875 497.354419) scale(0.1 -0.1)">
       <use xlink:href="#DejaVuSans-30"/>
       <use xlink:href="#DejaVuSans-2e" x="63.623047"/>
       <use xlink:href="#DejaVuSans-30" x="95.410156"/>
       <use xlink:href="#DejaVuSans-31" x="159.033203"/>
       <use xlink:href="#DejaVuSans-30" x="222.65625"/>
      </g>
     </g>
    </g>
    <g id="ytick_2">
     <g id="line2d_21">
      <path d="M 108 439.7952 
L 777.6 439.7952 
" clip-path="url(#p5d3c22a494)" style="fill: none; stroke: #b0b0b0; stroke-width: 0.8; stroke-linecap: square"/>
     </g>
     <g id="line2d_22">
      <g>
       <use xlink:href="#m1aad4bafd0" x="108" y="439.7952" style="stroke: #000000; stroke-width: 0.8"/>
      </g>
     </g>
     <g id="text_12">
      <!-- 0.015 -->
      <g transform="translate(72.371875 443.594419) scale(0.1 -0.1)">
       <use xlink:href="#DejaVuSans-30"/>
       <use xlink:href="#DejaVuSans-2e" x="63.623047"/>
       <use xlink:href="#DejaVuSans-30" x="95.410156"/>
       <use xlink:href="#DejaVuSans-31" x="159.033203"/>
       <use xlink:href="#DejaVuSans-35" x="222.65625"/>
      </g>
     </g>
    </g>
    <g id="ytick_3">
     <g id="line2d_23">
      <path d="M 108 386.0352 
L 777.6 386.0352 
" clip-path="url(#p5d3c22a494)" style="fill: none; stroke: #b0b0b0; stroke-width: 0.8; stroke-linecap: square"/>
     </g>
     <g id="line2d_24">
      <g>
       <use xlink:href="#m1aad4bafd0" x="108" y="386.0352" style="stroke: #000000; stroke-width: 0.8"/>
      </g>
     </g>
     <g id="text_13">
      <!-- 0.020 -->
      <g transform="translate(72.371875 389.834419) scale(0.1 -0.1)">
       <use xlink:href="#DejaVuSans-30"/>
       <use xlink:href="#DejaVuSans-2e" x="63.623047"/>
       <use xlink:href="#DejaVuSans-30" x="95.410156"/>
       <use xlink:href="#DejaVuSans-32" x="159.033203"/>
       <use xlink:href="#DejaVuSans-30" x="222.65625"/>
      </g>
     </g>
    </g>
    <g id="ytick_4">
     <g id="line2d_25">
      <path d="M 108 332.2752 
L 777.6 332.2752 
" clip-path="url(#p5d3c22a494)" style="fill: none; stroke: #b0b0b0; stroke-width: 0.8; stroke-linecap: square"/>
     </g>
     <g id="line2d_26">
      <g>
       <use xlink:href="#m1aad4bafd0" x="108" y="332.2752" style="stroke: #000000; stroke-width: 0.8"/>
      </g>
     </g>
     <g id="text_14">
      <!-- 0.025 -->
      <g transform="translate(72.371875 336.074419) scale(0.1 -0.1)">
       <use xlink:href="#DejaVuSans-30"/>
       <use xlink:href="#DejaVuSans-2e" x="63.623047"/>
       <use xlink:href="#DejaVuSans-30" x="95.410156"/>
       <use xlink:href="#DejaVuSans-32" x="159.033203"/>
       <use xlink:href="#DejaVuSans-35" x="222.65625"/>
      </g>
     </g>
    </g>
    <g id="ytick_5">
     <g id="line2d_27">
      <path d="M 108 278.5152 
L 777.6 278.5152 
" clip-path="url(#p5d3c22a494)" style="fill: none; stroke: #b0b0b0; stroke-width: 0.8; stroke-linecap: square"/>
     </g>
     <g id="line2d_28">
      <g>
       <use xlink:href="#m1aad4bafd0" x="108" y="278.5152" style="stroke: #000000; stroke-width: 0.8"/>
      </g>
     </g>
     <g id="text_15">
      <!-- 0.030 -->
      <g transform="translate(72.371875 282.314419) scale(0.1 -0.1)">
       <defs>
        <path id="DejaVuSans-33" d="M 2597 2516 
Q 3050 2419 3304 2112 
Q 3559 1806 3559 1356 
Q 3559 666 3084 287 
Q 2609 -91 1734 -91 
Q 1441 -91 1130 -33 
Q 819 25 488 141 
L 488 750 
Q 750 597 1062 519 
Q 1375 441 1716 441 
Q 2309 441 2620 675 
Q 2931 909 2931 1356 
Q 2931 1769 2642 2001 
Q 2353 2234 1838 2234 
L 1294 2234 
L 1294 2753 
L 1863 2753 
Q 2328 2753 2575 2939 
Q 2822 3125 2822 3475 
Q 2822 3834 2567 4026 
Q 2313 4219 1838 4219 
Q 1578 4219 1281 4162 
Q 984 4106 628 3988 
L 628 4550 
Q 988 4650 1302 4700 
Q 1616 4750 1894 4750 
Q 2613 4750 3031 4423 
Q 3450 4097 3450 3541 
Q 3450 3153 3228 2886 
Q 3006 2619 2597 2516 
z
" transform="scale(0.015625)"/>
       </defs>
       <use xlink:href="#DejaVuSans-30"/>
       <use xlink:href="#DejaVuSans-2e" x="63.623047"/>
       <use xlink:href="#DejaVuSans-30" x="95.410156"/>
       <use xlink:href="#DejaVuSans-33" x="159.033203"/>
       <use xlink:href="#DejaVuSans-30" x="222.65625"/>
      </g>
     </g>
    </g>
    <g id="ytick_6">
     <g id="line2d_29">
      <path d="M 108 224.7552 
L 777.6 224.7552 
" clip-path="url(#p5d3c22a494)" style="fill: none; stroke: #b0b0b0; stroke-width: 0.8; stroke-linecap: square"/>
     </g>
     <g id="line2d_30">
      <g>
       <use xlink:href="#m1aad4bafd0" x="108" y="224.7552" style="stroke: #000000; stroke-width: 0.8"/>
      </g>
     </g>
     <g id="text_16">
      <!-- 0.035 -->
      <g transform="translate(72.371875 228.554419) scale(0.1 -0.1)">
       <use xlink:href="#DejaVuSans-30"/>
       <use xlink:href="#DejaVuSans-2e" x="63.623047"/>
       <use xlink:href="#DejaVuSans-30" x="95.410156"/>
       <use xlink:href="#DejaVuSans-33" x="159.033203"/>
       <use xlink:href="#DejaVuSans-35" x="222.65625"/>
      </g>
     </g>
    </g>
    <g id="ytick_7">
     <g id="line2d_31">
      <path d="M 108 170.9952 
L 777.6 170.9952 
" clip-path="url(#p5d3c22a494)" style="fill: none; stroke: #b0b0b0; stroke-width: 0.8; stroke-linecap: square"/>
     </g>
     <g id="line2d_32">
      <g>
       <use xlink:href="#m1aad4bafd0" x="108" y="170.9952" style="stroke: #000000; stroke-width: 0.8"/>
      </g>
     </g>
     <g id="text_17">
      <!-- 0.040 -->
      <g transform="translate(72.371875 174.794419) scale(0.1 -0.1)">
       <defs>
        <path id="DejaVuSans-34" d="M 2419 4116 
L 825 1625 
L 2419 1625 
L 2419 4116 
z
M 2253 4666 
L 3047 4666 
L 3047 1625 
L 3713 1625 
L 3713 1100 
L 3047 1100 
L 3047 0 
L 2419 0 
L 2419 1100 
L 313 1100 
L 313 1709 
L 2253 4666 
z
" transform="scale(0.015625)"/>
       </defs>
       <use xlink:href="#DejaVuSans-30"/>
       <use xlink:href="#DejaVuSans-2e" x="63.623047"/>
       <use xlink:href="#DejaVuSans-30" x="95.410156"/>
       <use xlink:href="#DejaVuSans-34" x="159.033203"/>
       <use xlink:href="#DejaVuSans-30" x="222.65625"/>
      </g>
     </g>
    </g>
    <g id="ytick_8">
     <g id="line2d_33">
      <path d="M 108 117.2352 
L 777.6 117.2352 
" clip-path="url(#p5d3c22a494)" style="fill: none; stroke: #b0b0b0; stroke-width: 0.8; stroke-linecap: square"/>
     </g>
     <g id="line2d_34">
      <g>
       <use xlink:href="#m1aad4bafd0" x="108" y="117.2352" style="stroke: #000000; stroke-width: 0.8"/>
      </g>
     </g>
     <g id="text_18">
      <!-- 0.045 -->
      <g transform="translate(72.371875 121.034419) scale(0.1 -0.1)">
       <use xlink:href="#DejaVuSans-30"/>
       <use xlink:href="#DejaVuSans-2e" x="63.623047"/>
       <use xlink:href="#DejaVuSans-30" x="95.410156"/>
       <use xlink:href="#DejaVuSans-34" x="159.033203"/>
       <use xlink:href="#DejaVuSans-35" x="222.65625"/>
      </g>
     </g>
    </g>
    <g id="text_19">
     <!-- Price/strike ratio -->
     <g transform="translate(64.628438 364.318594) rotate(-90) scale(0.18 -0.18)">
      <defs>
       <path id="DejaVuSans-50" d="M 1259 4147 
L 1259 2394 
L 2053 2394 
Q 2494 2394 2734 2622 
Q 2975 2850 2975 3272 
Q 2975 3691 2734 3919 
Q 2494 4147 2053 4147 
L 1259 4147 
z
M 628 4666 
L 2053 4666 
Q 2838 4666 3239 4311 
Q 3641 3956 3641 3272 
Q 3641 2581 3239 2228 
Q 2838 1875 2053 1875 
L 1259 1875 
L 1259 0 
L 628 0 
L 628 4666 
z
" transform="scale(0.015625)"/>
       <path id="DejaVuSans-63" d="M 3122 3366 
L 3122 2828 
Q 2878 2963 2633 3030 
Q 2388 3097 2138 3097 
Q 1578 3097 1268 2742 
Q 959 2388 959 1747 
Q 959 1106 1268 751 
Q 1578 397 2138 397 
Q 2388 397 2633 464 
Q 2878 531 3122 666 
L 3122 134 
Q 2881 22 2623 -34 
Q 2366 -91 2075 -91 
Q 1284 -91 818 406 
Q 353 903 353 1747 
Q 353 2603 823 3093 
Q 1294 3584 2113 3584 
Q 2378 3584 2631 3529 
Q 2884 3475 3122 3366 
z
" transform="scale(0.015625)"/>
       <path id="DejaVuSans-2f" d="M 1625 4666 
L 2156 4666 
L 531 -594 
L 0 -594 
L 1625 4666 
z
" transform="scale(0.015625)"/>
       <path id="DejaVuSans-6f" d="M 1959 3097 
Q 1497 3097 1228 2736 
Q 959 2375 959 1747 
Q 959 1119 1226 758 
Q 1494 397 1959 397 
Q 2419 397 2687 759 
Q 2956 1122 2956 1747 
Q 2956 2369 2687 2733 
Q 2419 3097 1959 3097 
z
M 1959 3584 
Q 2709 3584 3137 3096 
Q 3566 2609 3566 1747 
Q 3566 888 3137 398 
Q 2709 -91 1959 -91 
Q 1206 -91 779 398 
Q 353 888 353 1747 
Q 353 2609 779 3096 
Q 1206 3584 1959 3584 
z
" transform="scale(0.015625)"/>
      </defs>
      <use xlink:href="#DejaVuSans-50"/>
      <use xlink:href="#DejaVuSans-72" x="58.552734"/>
      <use xlink:href="#DejaVuSans-69" x="99.666016"/>
      <use xlink:href="#DejaVuSans-63" x="127.449219"/>
      <use xlink:href="#DejaVuSans-65" x="182.429688"/>
      <use xlink:href="#DejaVuSans-2f" x="243.953125"/>
      <use xlink:href="#DejaVuSans-73" x="277.644531"/>
      <use xlink:href="#DejaVuSans-74" x="329.744141"/>
      <use xlink:href="#DejaVuSans-72" x="368.953125"/>
      <use xlink:href="#DejaVuSans-69" x="410.066406"/>
      <use xlink:href="#DejaVuSans-6b" x="437.849609"/>
      <use xlink:href="#DejaVuSans-65" x="492.134766"/>
      <use xlink:href="#DejaVuSans-20" x="553.658203"/>
      <use xlink:href="#DejaVuSans-72" x="585.445312"/>
      <use xlink:href="#DejaVuSans-61" x="626.558594"/>
      <use xlink:href="#DejaVuSans-74" x="687.837891"/>
      <use xlink:href="#DejaVuSans-69" x="727.046875"/>
      <use xlink:href="#DejaVuSans-6f" x="754.830078"/>
     </g>
    </g>
   </g>
   <g id="line2d_35">
    <path d="M 138.436364 107.5584 
L 139.0457 104.3328 
L 139.0457 89.28 
L 139.350369 119.3856 
L 139.655037 117.2352 
L 140.264373 118.3104 
L 140.569042 105.408 
L 142.397052 110.784 
L 145.443735 116.16 
L 146.967076 115.0848 
L 147.271744 116.16 
L 147.271744 115.0848 
L 148.795086 117.2352 
L 149.099754 105.408 
L 149.709091 107.5584 
L 150.318428 112.9344 
L 150.623096 136.5888 
L 151.232432 118.3104 
L 151.232432 119.3856 
L 151.841769 122.6112 
L 152.146437 121.536 
L 153.060442 124.7616 
L 153.365111 111.8592 
L 154.583784 119.3856 
L 154.888452 126.912 
L 155.497789 127.9872 
L 158.239803 129.0624 
L 161.591155 133.3632 
L 162.200491 123.6864 
L 163.114496 137.664 
L 163.419165 130.1376 
L 164.028501 127.9872 
L 164.028501 127.9872 
L 164.637838 141.9648 
L 164.637838 151.6416 
L 164.637838 125.8368 
L 164.942506 129.0624 
L 166.770516 143.04 
L 166.770516 125.8368 
L 167.075184 137.664 
L 168.598526 129.0624 
L 168.598526 121.536 
L 169.207862 130.1376 
L 169.207862 143.04 
L 169.512531 151.6416 
L 169.512531 133.3632 
L 171.035872 144.1152 
L 171.340541 139.8144 
L 171.340541 130.1376 
L 171.949877 143.04 
L 172.254545 134.4384 
L 172.254545 144.1152 
L 173.473219 148.416 
L 174.691892 135.5136 
L 174.99656 139.8144 
L 176.215233 150.5664 
L 176.215233 145.1904 
L 176.215233 150.5664 
L 176.82457 140.8896 
L 176.82457 148.416 
L 176.82457 143.04 
L 178.957248 153.792 
L 179.566585 143.04 
L 179.566585 153.792 
L 180.175921 158.0928 
L 182.003931 144.1152 
L 182.003931 150.5664 
L 182.917936 140.8896 
L 182.917936 154.8672 
L 183.222604 147.3408 
L 183.222604 150.5664 
L 183.831941 155.9424 
L 184.441278 146.2656 
L 184.441278 139.8144 
L 185.050614 140.8896 
L 188.706634 146.2656 
L 188.706634 160.2432 
L 189.620639 157.0176 
L 189.620639 155.9424 
L 190.229975 164.544 
L 190.534644 154.8672 
L 190.534644 155.9424 
L 191.448649 148.416 
L 192.057985 166.6944 
L 192.362654 157.0176 
L 192.97199 168.8448 
L 193.581327 163.4688 
L 194.8 151.6416 
L 194.8 163.4688 
L 195.104668 154.8672 
L 195.714005 153.792 
L 196.018673 168.8448 
L 196.018673 166.6944 
L 196.323342 160.2432 
L 196.932678 158.0928 
L 197.237346 160.2432 
L 197.237346 167.7696 
L 197.846683 152.7168 
L 198.45602 163.4688 
L 200.893366 159.168 
L 201.502703 162.3936 
L 204.854054 183.8976 
L 206.072727 165.6192 
L 206.682064 183.8976 
L 206.682064 166.6944 
L 206.986732 184.9728 
L 207.596069 173.1456 
L 209.11941 169.92 
L 209.728747 172.0704 
L 210.033415 166.6944 
L 210.94742 174.2208 
L 210.94742 177.4464 
L 211.252088 174.2208 
L 211.252088 182.8224 
L 214.298771 190.3488 
L 214.298771 174.2208 
L 214.908108 166.6944 
L 215.212776 180.672 
L 215.822113 162.3936 
L 216.736118 179.5968 
L 217.650123 183.8976 
L 217.650123 179.5968 
L 218.564128 187.1232 
L 219.173464 190.3488 
L 219.478133 180.672 
L 220.087469 174.2208 
L 220.696806 177.4464 
L 220.696806 197.8752 
L 221.001474 195.7248 
L 221.306143 179.5968 
L 221.915479 186.048 
L 222.524816 179.5968 
L 222.524816 182.8224 
L 222.829484 190.3488 
L 223.438821 166.6944 
L 223.743489 194.6496 
L 223.743489 188.1984 
L 224.962162 188.1984 
L 224.962162 181.7472 
L 225.26683 180.672 
L 225.876167 175.296 
L 226.790172 192.4992 
L 229.532187 191.424 
L 229.532187 190.3488 
L 230.141523 186.048 
L 230.446192 194.6496 
L 231.664865 195.7248 
L 231.664865 182.8224 
L 231.969533 193.5744 
L 231.969533 192.4992 
L 232.883538 198.9504 
L 233.492875 195.7248 
L 233.797543 197.8752 
L 234.102211 192.4992 
L 234.40688 189.2736 
L 234.711548 201.1008 
L 234.711548 201.1008 
L 235.625553 193.5744 
L 235.625553 209.7024 
L 235.930221 188.1984 
L 236.539558 202.176 
L 236.539558 192.4992 
L 237.758231 206.4768 
L 238.062899 203.2512 
L 238.062899 187.1232 
L 238.367568 191.424 
L 239.586241 191.424 
L 239.890909 197.8752 
L 241.109582 205.4016 
L 241.414251 203.2512 
L 242.328256 208.6272 
L 243.24226 204.3264 
L 245.07027 184.9728 
L 245.07027 216.1536 
L 246.593612 198.9504 
L 247.202948 204.3264 
L 247.202948 214.0032 
L 248.116953 202.176 
L 249.640295 211.8528 
L 249.640295 225.8304 
L 249.944963 204.3264 
L 249.944963 206.4768 
L 251.772973 212.928 
L 255.124324 204.3264 
L 255.733661 216.1536 
L 256.342998 223.68 
L 256.342998 212.928 
L 257.257002 217.2288 
L 257.257002 211.8528 
L 258.780344 215.0784 
L 258.780344 215.0784 
L 258.780344 212.928 
L 259.085012 212.928 
L 259.085012 222.6048 
L 260.608354 222.6048 
L 261.827027 230.1312 
L 262.741032 222.6048 
L 263.959705 230.1312 
L 264.569042 219.3792 
L 264.87371 225.8304 
L 266.397052 219.3792 
L 266.70172 229.056 
L 267.920393 227.9808 
L 268.225061 208.6272 
L 268.225061 234.432 
L 268.52973 230.1312 
L 268.52973 224.7552 
L 268.834398 222.6048 
L 268.834398 227.9808 
L 269.139066 219.3792 
L 269.748403 220.4544 
L 270.35774 229.056 
L 270.967076 217.2288 
L 270.967076 224.7552 
L 271.271744 224.7552 
L 271.881081 220.4544 
L 272.185749 230.1312 
L 272.490418 232.2816 
L 273.099754 225.8304 
L 273.709091 227.9808 
L 274.318428 227.9808 
L 274.318428 235.5072 
L 274.927764 221.5296 
L 274.927764 227.9808 
L 275.841769 234.432 
L 276.451106 219.3792 
L 277.669779 221.5296 
L 277.974447 229.056 
L 277.974447 237.6576 
L 278.279115 231.2064 
L 278.583784 236.5824 
L 278.583784 232.2816 
L 280.411794 244.1088 
L 280.411794 241.9584 
L 281.935135 235.5072 
L 282.239803 225.8304 
L 282.239803 230.1312 
L 282.544472 246.2592 
L 283.458477 235.5072 
L 284.981818 235.5072 
L 285.895823 231.2064 
L 287.114496 230.1312 
L 287.114496 233.3568 
L 287.723833 234.432 
L 288.028501 237.6576 
L 288.33317 254.8608 
L 289.247174 243.0336 
L 289.856511 245.184 
L 291.989189 250.56 
L 291.989189 238.7328 
L 291.989189 246.2592 
L 292.598526 243.0336 
L 292.903194 259.1616 
L 292.903194 248.4096 
L 295.035872 238.7328 
L 295.340541 247.3344 
L 297.16855 257.0112 
L 297.16855 237.6576 
L 297.777887 260.2368 
L 297.777887 241.9584 
L 299.301229 248.4096 
L 299.605897 253.7856 
L 301.129238 255.936 
L 301.433907 245.184 
L 303.261916 252.7104 
L 303.261916 252.7104 
L 303.566585 248.4096 
L 305.089926 248.4096 
L 305.394595 257.0112 
L 306.003931 252.7104 
L 306.917936 250.56 
L 306.917936 266.688 
L 306.917936 243.0336 
L 307.222604 262.3872 
L 307.222604 257.0112 
L 307.527273 257.0112 
L 307.831941 261.312 
L 307.831941 253.7856 
L 308.136609 253.7856 
L 308.441278 246.2592 
L 309.355283 238.7328 
L 309.355283 260.2368 
L 310.269287 250.56 
L 310.573956 259.1616 
L 311.792629 260.2368 
L 312.401966 250.56 
L 313.315971 258.0864 
L 313.315971 261.312 
L 314.229975 247.3344 
L 314.839312 261.312 
L 315.753317 261.312 
L 315.753317 266.688 
L 316.057985 268.8384 
L 317.885995 257.0112 
L 318.495332 272.064 
L 320.323342 273.1392 
L 321.237346 261.312 
L 322.151351 263.4624 
L 324.284029 260.2368 
L 324.284029 260.2368 
L 324.893366 270.9888 
L 325.198034 265.6128 
L 326.112039 265.6128 
L 326.416708 273.1392 
L 326.416708 266.688 
L 327.940049 276.3648 
L 328.244717 279.5904 
L 328.854054 264.5376 
L 329.768059 269.9136 
L 330.072727 265.6128 
L 330.072727 268.8384 
L 331.900737 277.44 
L 333.424079 267.7632 
L 333.728747 270.9888 
L 334.033415 279.5904 
L 334.642752 275.2896 
L 335.252088 278.5152 
L 337.080098 279.5904 
L 337.689435 270.9888 
L 337.994103 287.1168 
L 338.908108 274.2144 
L 339.517445 270.9888 
L 339.517445 276.3648 
L 339.822113 281.7408 
L 339.822113 278.5152 
L 341.040786 283.8912 
L 341.650123 270.9888 
L 341.954791 296.7936 
L 342.259459 267.7632 
L 342.564128 278.5152 
L 344.392138 278.5152 
L 344.696806 279.5904 
L 345.915479 274.2144 
L 347.134152 295.7184 
L 347.134152 269.9136 
L 347.134152 287.1168 
L 347.438821 278.5152 
L 347.743489 295.7184 
L 347.743489 290.3424 
L 347.743489 278.5152 
L 347.743489 288.192 
L 348.657494 277.44 
L 349.26683 301.0944 
L 349.571499 296.7936 
L 349.571499 287.1168 
L 350.485504 277.44 
L 350.485504 292.4928 
L 352.618182 292.4928 
L 352.618182 291.4176 
L 352.618182 295.7184 
L 353.227518 292.4928 
L 354.75086 298.944 
L 355.664865 291.4176 
L 356.57887 302.1696 
L 357.492875 297.8688 
L 360.234889 293.568 
L 362.367568 303.2448 
L 362.367568 298.944 
L 362.672236 297.8688 
L 362.976904 292.4928 
L 363.281572 295.7184 
L 363.281572 301.0944 
L 363.890909 293.568 
L 364.500246 296.7936 
L 365.109582 297.8688 
L 366.937592 304.32 
L 367.851597 313.9968 
L 369.374939 305.3952 
L 369.374939 300.0192 
L 369.679607 296.7936 
L 370.89828 295.7184 
L 370.89828 292.4928 
L 372.421622 302.1696 
L 373.640295 310.7712 
L 373.640295 300.0192 
L 374.858968 298.944 
L 375.163636 306.4704 
L 376.077641 300.0192 
L 377.296314 316.1472 
L 378.210319 294.6432 
L 380.038329 298.944 
L 380.647666 309.696 
L 383.389681 313.9968 
L 384.913022 304.32 
L 385.522359 308.6208 
L 385.827027 316.1472 
L 386.436364 307.5456 
L 386.741032 305.3952 
L 387.0457 316.1472 
L 388.264373 310.7712 
L 388.87371 308.6208 
L 389.178378 308.6208 
L 389.787715 313.9968 
L 390.092383 318.2976 
L 390.70172 324.7488 
L 391.006388 321.5232 
L 391.311057 323.6736 
L 391.311057 308.6208 
L 391.615725 317.2224 
L 392.834398 321.5232 
L 393.139066 311.8464 
L 393.139066 318.2976 
L 394.053071 315.072 
L 394.35774 307.5456 
L 394.35774 323.6736 
L 394.662408 318.2976 
L 395.881081 324.7488 
L 396.490418 313.9968 
L 397.099754 318.2976 
L 397.404423 313.9968 
L 397.709091 317.2224 
L 398.318428 317.2224 
L 398.623096 321.5232 
L 398.927764 321.5232 
L 398.927764 324.7488 
L 400.451106 331.2 
L 401.060442 326.8992 
L 402.279115 333.3504 
L 402.583784 318.2976 
L 402.583784 334.4256 
L 402.888452 333.3504 
L 403.19312 323.6736 
L 403.19312 312.9216 
L 404.411794 317.2224 
L 404.716462 326.8992 
L 406.239803 339.8016 
L 407.153808 319.3728 
L 408.981818 319.3728 
L 409.591155 329.0496 
L 409.591155 332.2752 
L 409.895823 331.2 
L 410.200491 331.2 
L 411.419165 340.8768 
L 411.419165 327.9744 
L 411.419165 332.2752 
L 411.723833 332.2752 
L 412.028501 318.2976 
L 412.028501 330.1248 
L 412.637838 327.9744 
L 412.637838 336.576 
L 413.247174 341.952 
L 415.075184 319.3728 
L 415.379853 333.3504 
L 416.903194 333.3504 
L 417.207862 329.0496 
L 418.426536 334.4256 
L 419.035872 334.4256 
L 419.035872 331.2 
L 419.340541 344.1024 
L 419.645209 341.952 
L 420.254545 331.2 
L 420.254545 320.448 
L 421.16855 338.7264 
L 421.777887 335.5008 
L 422.082555 323.6736 
L 423.910565 339.8016 
L 423.910565 343.0272 
L 424.82457 353.7792 
L 425.738575 331.2 
L 425.738575 341.952 
L 426.65258 337.6512 
L 426.957248 335.5008 
L 426.957248 336.576 
L 427.871253 331.2 
L 428.48059 333.3504 
L 428.48059 348.4032 
L 428.785258 322.5984 
L 429.699263 336.576 
L 430.613268 337.6512 
L 430.613268 336.576 
L 431.831941 345.1776 
L 431.831941 343.0272 
L 432.136609 334.4256 
L 432.136609 344.1024 
L 432.136609 331.2 
L 432.441278 341.952 
L 432.441278 337.6512 
L 433.050614 337.6512 
L 433.050614 341.952 
L 433.355283 336.576 
L 435.487961 345.1776 
L 436.706634 344.1024 
L 437.315971 346.2528 
L 437.315971 349.4784 
L 437.925307 337.6512 
L 439.448649 351.6288 
L 441.885995 345.1776 
L 442.495332 345.1776 
L 442.495332 346.2528 
L 442.8 353.7792 
L 444.62801 348.4032 
L 446.45602 351.6288 
L 447.065356 348.4032 
L 447.370025 353.7792 
L 447.979361 359.1552 
L 449.502703 353.7792 
L 449.807371 346.2528 
L 450.112039 348.4032 
L 450.721376 354.8544 
L 451.026044 350.5536 
L 452.244717 350.5536 
L 452.244717 338.7264 
L 452.549386 353.7792 
L 452.854054 341.952 
L 452.854054 347.328 
L 453.463391 351.6288 
L 453.768059 350.5536 
L 453.768059 368.832 
L 454.377396 350.5536 
L 454.377396 357.0048 
L 455.596069 357.0048 
L 456.510074 349.4784 
L 456.814742 355.9296 
L 458.338084 352.704 
L 458.642752 348.4032 
L 458.642752 345.1776 
L 459.252088 357.0048 
L 459.556757 359.1552 
L 459.861425 345.1776 
L 461.994103 357.0048 
L 462.298771 366.6816 
L 462.60344 352.704 
L 463.212776 365.6064 
L 463.212776 346.2528 
L 463.517445 361.3056 
L 463.517445 367.7568 
L 463.822113 352.704 
L 464.736118 357.0048 
L 465.650123 365.6064 
L 466.259459 360.2304 
L 466.259459 351.6288 
L 466.259459 358.08 
L 466.868796 352.704 
L 467.478133 357.0048 
L 467.782801 377.4336 
L 467.782801 369.9072 
L 468.087469 364.5312 
L 469.306143 359.1552 
L 470.220147 369.9072 
L 471.438821 377.4336 
L 471.438821 354.8544 
L 471.743489 367.7568 
L 471.743489 364.5312 
L 472.962162 362.3808 
L 473.26683 355.9296 
L 473.571499 368.832 
L 473.571499 353.7792 
L 474.790172 370.9824 
L 476.92285 362.3808 
L 477.227518 358.08 
L 477.532187 369.9072 
L 478.141523 373.1328 
L 479.055528 370.9824 
L 479.664865 374.208 
L 480.274201 354.8544 
L 480.883538 359.1552 
L 480.883538 367.7568 
L 481.188206 376.3584 
L 481.797543 365.6064 
L 483.016216 378.5088 
L 483.320885 369.9072 
L 483.320885 369.9072 
L 484.539558 373.1328 
L 485.453563 374.208 
L 485.758231 369.9072 
L 485.758231 381.7344 
L 486.367568 367.7568 
L 486.672236 358.08 
L 487.586241 370.9824 
L 488.195577 366.6816 
L 488.500246 383.8848 
L 489.109582 377.4336 
L 489.718919 361.3056 
L 490.632924 368.832 
L 490.937592 387.1104 
L 491.24226 374.208 
L 491.851597 364.5312 
L 492.156265 381.7344 
L 493.374939 376.3584 
L 494.288943 378.5088 
L 496.116953 372.0576 
L 496.116953 377.4336 
L 496.421622 382.8096 
L 497.640295 376.3584 
L 497.640295 392.4864 
L 497.944963 384.96 
L 497.944963 376.3584 
L 498.249631 379.584 
L 500.686978 383.8848 
L 501.296314 372.0576 
L 501.296314 382.8096 
L 502.819656 391.4112 
L 502.819656 373.1328 
L 503.124324 386.0352 
L 504.038329 375.2832 
L 504.647666 377.4336 
L 504.952334 389.2608 
L 505.561671 382.8096 
L 506.475676 390.336 
L 506.780344 383.8848 
L 507.999017 377.4336 
L 509.21769 384.96 
L 510.436364 396.7872 
L 510.741032 403.2384 
L 511.655037 383.8848 
L 513.178378 382.8096 
L 513.483047 390.336 
L 514.092383 395.712 
L 514.70172 386.0352 
L 515.006388 389.2608 
L 515.311057 390.336 
L 515.615725 389.2608 
L 515.615725 392.4864 
L 515.615725 392.4864 
L 515.920393 395.712 
L 516.834398 400.0128 
L 516.834398 382.8096 
L 517.748403 393.5616 
L 518.662408 384.96 
L 518.967076 389.2608 
L 519.271744 396.7872 
L 520.490418 388.1856 
L 520.490418 395.712 
L 521.404423 386.0352 
L 522.013759 393.5616 
L 522.013759 393.5616 
L 522.623096 392.4864 
L 524.451106 395.712 
L 525.669779 390.336 
L 525.974447 393.5616 
L 527.19312 404.3136 
L 527.497789 390.336 
L 527.497789 391.4112 
L 529.630467 395.712 
L 529.935135 397.8624 
L 530.84914 396.7872 
L 530.84914 397.8624 
L 532.981818 397.8624 
L 535.723833 409.6896 
L 535.723833 393.5616 
L 537.856511 408.6144 
L 538.465848 401.088 
L 538.465848 391.4112 
L 539.379853 403.2384 
L 539.684521 389.2608 
L 540.903194 401.088 
L 541.207862 406.464 
L 541.207862 405.3888 
L 541.817199 404.3136 
L 543.035872 400.0128 
L 543.340541 405.3888 
L 543.340541 411.84 
L 544.254545 402.1632 
L 544.559214 404.3136 
L 544.863882 401.088 
L 545.16855 404.3136 
L 546.082555 408.6144 
L 546.387224 405.3888 
L 546.691892 412.9152 
L 546.99656 405.3888 
L 547.605897 417.216 
L 548.215233 407.5392 
L 548.519902 405.3888 
L 549.129238 411.84 
L 550.043243 403.2384 
L 550.65258 403.2384 
L 551.566585 401.088 
L 552.785258 411.84 
L 553.089926 404.3136 
L 554.003931 403.2384 
L 554.003931 413.9904 
L 554.613268 407.5392 
L 555.831941 404.3136 
L 556.441278 408.6144 
L 558.878624 419.3664 
L 559.487961 411.84 
L 559.487961 411.84 
L 560.401966 406.464 
L 560.401966 404.3136 
L 560.401966 415.0656 
L 561.011302 410.7648 
L 561.925307 410.7648 
L 562.229975 417.216 
L 562.229975 406.464 
L 563.14398 418.2912 
L 564.362654 415.0656 
L 565.276658 416.1408 
L 567.104668 417.216 
L 567.104668 408.6144 
L 567.714005 409.6896 
L 568.323342 422.592 
L 568.932678 418.2912 
L 569.542015 417.216 
L 569.846683 418.2912 
L 571.979361 412.9152 
L 572.284029 407.5392 
L 572.588698 422.592 
L 573.502703 417.216 
L 573.807371 413.9904 
L 574.721376 409.6896 
L 575.330713 421.5168 
L 576.854054 413.9904 
L 576.854054 425.8176 
L 577.768059 416.1408 
L 578.986732 421.5168 
L 578.986732 417.216 
L 579.900737 422.592 
L 580.205405 417.216 
L 581.424079 419.3664 
L 582.033415 415.0656 
L 582.642752 425.8176 
L 583.556757 415.0656 
L 583.861425 424.7424 
L 585.994103 421.5168 
L 586.60344 412.9152 
L 587.517445 430.1184 
L 588.736118 430.1184 
L 589.650123 425.8176 
L 589.650123 422.592 
L 589.954791 419.3664 
L 590.868796 420.4416 
L 591.173464 425.8176 
L 591.478133 416.1408 
L 591.782801 417.216 
L 593.001474 439.7952 
L 593.610811 430.1184 
L 594.524816 426.8928 
L 595.438821 424.7424 
L 595.438821 430.1184 
L 596.048157 418.2912 
L 596.048157 427.968 
L 596.962162 431.1936 
L 597.876167 425.8176 
L 598.790172 432.2688 
L 599.704177 432.2688 
L 600.008845 430.1184 
L 600.008845 430.1184 
L 600.92285 435.4944 
L 600.92285 429.0432 
L 601.227518 438.72 
L 601.532187 426.8928 
L 601.532187 430.1184 
L 602.141523 437.6448 
L 602.446192 439.7952 
L 602.446192 429.0432 
L 602.75086 435.4944 
L 603.055528 425.8176 
L 603.969533 430.1184 
L 603.969533 434.4192 
L 604.57887 433.344 
L 604.57887 429.0432 
L 605.188206 426.8928 
L 605.188206 429.0432 
L 606.102211 429.0432 
L 606.102211 427.968 
L 606.40688 430.1184 
L 607.320885 438.72 
L 607.320885 438.72 
L 607.320885 432.2688 
L 607.930221 425.8176 
L 609.148894 436.5696 
L 609.758231 444.096 
L 610.062899 431.1936 
L 610.367568 449.472 
L 611.890909 436.5696 
L 612.804914 439.7952 
L 612.804914 431.1936 
L 613.414251 433.344 
L 614.023587 425.8176 
L 614.023587 432.2688 
L 614.632924 436.5696 
L 615.851597 435.4944 
L 615.851597 426.8928 
L 616.156265 441.9456 
L 616.460934 434.4192 
L 616.460934 440.8704 
L 617.984275 435.4944 
L 618.89828 430.1184 
L 619.202948 445.1712 
L 619.812285 444.096 
L 622.249631 433.344 
L 622.5543 444.096 
L 623.163636 445.1712 
L 623.163636 437.6448 
L 623.468305 433.344 
L 623.772973 437.6448 
L 624.38231 436.5696 
L 624.38231 443.0208 
L 625.905651 433.344 
L 626.819656 435.4944 
L 628.038329 441.9456 
L 628.952334 444.096 
L 631.694349 451.6224 
L 631.999017 436.5696 
L 632.303686 447.3216 
L 632.913022 438.72 
L 635.0457 436.5696 
L 635.655037 438.72 
L 635.959705 450.5472 
L 636.569042 448.3968 
L 639.006388 455.9232 
L 639.006388 440.8704 
L 639.615725 445.1712 
L 639.920393 449.472 
L 640.52973 440.8704 
L 640.834398 438.72 
L 641.443735 453.7728 
L 642.662408 443.0208 
L 643.271744 455.9232 
L 644.185749 444.096 
L 644.185749 439.7952 
L 645.099754 456.9984 
L 645.404423 440.8704 
L 645.404423 451.6224 
L 647.841769 455.9232 
L 648.146437 446.2464 
L 648.451106 447.3216 
L 648.451106 462.3744 
L 648.451106 445.1712 
L 649.060442 453.7728 
L 650.888452 449.472 
L 650.888452 448.3968 
L 651.19312 466.6752 
L 651.497789 456.9984 
L 651.802457 453.7728 
L 652.411794 468.8256 
L 654.544472 456.9984 
L 654.84914 460.224 
L 655.153808 450.5472 
L 655.153808 455.9232 
L 656.067813 453.7728 
L 657.286486 450.5472 
L 657.591155 444.096 
L 658.50516 456.9984 
L 660.637838 452.6976 
L 660.942506 452.6976 
L 660.942506 452.6976 
L 660.942506 447.3216 
L 661.551843 454.848 
L 661.856511 461.2992 
L 663.684521 467.7504 
L 663.989189 460.224 
L 664.293857 455.9232 
L 665.207862 452.6976 
L 665.512531 461.2992 
L 667.949877 465.6 
L 669.777887 463.4496 
L 670.082555 467.7504 
L 671.910565 451.6224 
L 673.129238 464.5248 
L 673.433907 465.6 
L 673.433907 460.224 
L 674.65258 463.4496 
L 674.957248 455.9232 
L 676.48059 476.352 
L 677.394595 472.0512 
L 682.573956 460.224 
L 683.487961 463.4496 
L 683.792629 469.9008 
L 683.792629 464.5248 
L 684.097297 465.6 
L 684.401966 467.7504 
L 684.401966 459.1488 
L 684.706634 469.9008 
L 685.925307 470.976 
L 685.925307 466.6752 
L 686.534644 469.9008 
L 688.057985 459.1488 
L 688.667322 473.1264 
L 689.581327 464.5248 
L 690.8 462.3744 
L 691.409337 464.5248 
L 691.409337 464.5248 
L 692.018673 468.8256 
L 692.323342 466.6752 
L 692.62801 466.6752 
L 692.62801 468.8256 
L 693.542015 473.1264 
L 694.760688 469.9008 
L 694.760688 467.7504 
L 695.065356 472.0512 
L 697.198034 465.6 
L 698.112039 469.9008 
L 698.721376 467.7504 
L 698.721376 465.6 
L 699.330713 467.7504 
L 699.330713 465.6 
L 699.940049 459.1488 
L 700.244717 468.8256 
L 701.463391 476.352 
L 702.072727 468.8256 
L 702.986732 479.5776 
L 702.986732 468.8256 
L 703.596069 470.976 
L 703.596069 469.9008 
L 704.205405 468.8256 
L 705.424079 459.1488 
L 705.728747 470.976 
L 707.252088 469.9008 
L 707.556757 472.0512 
L 709.994103 473.1264 
L 709.994103 465.6 
L 711.212776 469.9008 
L 711.822113 478.5024 
L 713.650123 475.2768 
L 714.259459 472.0512 
L 714.868796 472.0512 
L 715.173464 470.976 
L 715.782801 479.5776 
L 717.915479 472.0512 
L 720.352826 474.2016 
L 721.26683 468.8256 
L 722.180835 472.0512 
L 722.180835 477.4272 
L 723.704177 480.6528 
L 724.008845 481.728 
L 724.618182 477.4272 
L 724.92285 482.8032 
L 725.227518 474.2016 
L 726.141523 478.5024 
L 727.055528 479.5776 
L 727.969533 476.352 
L 728.274201 484.9536 
L 728.883538 480.6528 
L 729.188206 477.4272 
L 729.492875 483.8784 
L 729.797543 480.6528 
L 730.102211 474.2016 
L 730.40688 474.2016 
L 730.711548 472.0512 
L 731.016216 470.976 
L 732.234889 482.8032 
L 732.234889 481.728 
L 732.234889 478.5024 
L 732.844226 487.104 
L 734.062899 481.728 
L 734.062899 490.3296 
L 735.586241 486.0288 
L 737.109582 488.1792 
L 738.023587 486.0288 
L 738.328256 479.5776 
L 739.546929 487.104 
L 741.679607 487.104 
L 741.679607 486.0288 
L 741.984275 486.0288 
L 742.593612 483.8784 
L 742.593612 488.1792 
L 743.202948 492.48 
L 744.116953 489.2544 
L 745.030958 480.6528 
L 745.640295 482.8032 
L 745.640295 483.8784 
L 745.640295 482.8032 
L 746.249631 480.6528 
L 747.163636 483.8784 
L 747.163636 483.8784 
" clip-path="url(#p5d3c22a494)" style="fill: none; stroke: #1f77b4; stroke-width: 2; stroke-linecap: square"/>
   </g>
   <g id="line2d_36">
    <path d="M 138.436364 279.5904 
L 747.163636 279.5904 
L 747.163636 279.5904 
" clip-path="url(#p5d3c22a494)" style="fill: none; stroke: #ff7f0e; stroke-width: 2; stroke-linecap: square"/>
   </g>
   <g id="patch_3">
    <path d="M 108 512.64 
L 108 69.12 
" style="fill: none; stroke: #000000; stroke-width: 0.8; stroke-linejoin: miter; stroke-linecap: square"/>
   </g>
   <g id="patch_4">
    <path d="M 777.6 512.64 
L 777.6 69.12 
" style="fill: none; stroke: #000000; stroke-width: 0.8; stroke-linejoin: miter; stroke-linecap: square"/>
   </g>
   <g id="patch_5">
    <path d="M 108 512.64 
L 777.6 512.64 
" style="fill: none; stroke: #000000; stroke-width: 0.8; stroke-linejoin: miter; stroke-linecap: square"/>
   </g>
   <g id="patch_6">
    <path d="M 108 69.12 
L 777.6 69.12 
" style="fill: none; stroke: #000000; stroke-width: 0.8; stroke-linejoin: miter; stroke-linecap: square"/>
   </g>
   <g id="text_20">
    <!-- Price by risk-free rate -->
    <g transform="translate(335.08125 63.12) scale(0.2 -0.2)">
     <defs>
      <path id="DejaVuSans-62" d="M 3116 1747 
Q 3116 2381 2855 2742 
Q 2594 3103 2138 3103 
Q 1681 3103 1420 2742 
Q 1159 2381 1159 1747 
Q 1159 1113 1420 752 
Q 1681 391 2138 391 
Q 2594 391 2855 752 
Q 3116 1113 3116 1747 
z
M 1159 2969 
Q 1341 3281 1617 3432 
Q 1894 3584 2278 3584 
Q 2916 3584 3314 3078 
Q 3713 2572 3713 1747 
Q 3713 922 3314 415 
Q 2916 -91 2278 -91 
Q 1894 -91 1617 61 
Q 1341 213 1159 525 
L 1159 0 
L 581 0 
L 581 4863 
L 1159 4863 
L 1159 2969 
z
" transform="scale(0.015625)"/>
      <path id="DejaVuSans-79" d="M 2059 -325 
Q 1816 -950 1584 -1140 
Q 1353 -1331 966 -1331 
L 506 -1331 
L 506 -850 
L 844 -850 
Q 1081 -850 1212 -737 
Q 1344 -625 1503 -206 
L 1606 56 
L 191 3500 
L 800 3500 
L 1894 763 
L 2988 3500 
L 3597 3500 
L 2059 -325 
z
" transform="scale(0.015625)"/>
     </defs>
     <use xlink:href="#DejaVuSans-50"/>
     <use xlink:href="#DejaVuSans-72" x="58.552734"/>
     <use xlink:href="#DejaVuSans-69" x="99.666016"/>
     <use xlink:href="#DejaVuSans-63" x="127.449219"/>
     <use xlink:href="#DejaVuSans-65" x="182.429688"/>
     <use xlink:href="#DejaVuSans-20" x="243.953125"/>
     <use xlink:href="#DejaVuSans-62" x="275.740234"/>
     <use xlink:href="#DejaVuSans-79" x="339.216797"/>
     <use xlink:href="#DejaVuSans-20" x="398.396484"/>
     <use xlink:href="#DejaVuSans-72" x="430.183594"/>
     <use xlink:href="#DejaVuSans-69" x="471.296875"/>
     <use xlink:href="#DejaVuSans-73" x="499.080078"/>
     <use xlink:href="#DejaVuSans-6b" x="551.179688"/>
     <use xlink:href="#DejaVuSans-2d" x="609.089844"/>
     <use xlink:href="#DejaVuSans-66" x="645.173828"/>
     <use xlink:href="#DejaVuSans-72" x="680.378906"/>
     <use xlink:href="#DejaVuSans-65" x="719.242188"/>
     <use xlink:href="#DejaVuSans-65" x="780.765625"/>
     <use xlink:href="#DejaVuSans-20" x="842.289062"/>
     <use xlink:href="#DejaVuSans-72" x="874.076172"/>
     <use xlink:href="#DejaVuSans-61" x="915.189453"/>
     <use xlink:href="#DejaVuSans-74" x="976.46875"/>
     <use xlink:href="#DejaVuSans-65" x="1015.677734"/>
    </g>
   </g>
   <g id="legend_1">
    <g id="patch_7">
     <path d="M 602.760938 136.36125 
L 765 136.36125 
Q 768.6 136.36125 768.6 132.76125 
L 768.6 81.72 
Q 768.6 78.12 765 78.12 
L 602.760938 78.12 
Q 599.160938 78.12 599.160938 81.72 
L 599.160938 132.76125 
Q 599.160938 136.36125 602.760938 136.36125 
z
" style="fill: #ffffff; opacity: 0.8; stroke: #cccccc; stroke-linejoin: miter"/>
    </g>
    <g id="line2d_37">
     <path d="M 606.360938 92.697188 
L 624.360938 92.697188 
L 642.360938 92.697188 
" style="fill: none; stroke: #1f77b4; stroke-width: 2; stroke-linecap: square"/>
    </g>
    <g id="text_21">
     <!-- MC -->
     <g transform="translate(656.760938 98.997188) scale(0.18 -0.18)">
      <defs>
       <path id="DejaVuSans-4d" d="M 628 4666 
L 1569 4666 
L 2759 1491 
L 3956 4666 
L 4897 4666 
L 4897 0 
L 4281 0 
L 4281 4097 
L 3078 897 
L 2444 897 
L 1241 4097 
L 1241 0 
L 628 0 
L 628 4666 
z
" transform="scale(0.015625)"/>
       <path id="DejaVuSans-43" d="M 4122 4306 
L 4122 3641 
Q 3803 3938 3442 4084 
Q 3081 4231 2675 4231 
Q 1875 4231 1450 3742 
Q 1025 3253 1025 2328 
Q 1025 1406 1450 917 
Q 1875 428 2675 428 
Q 3081 428 3442 575 
Q 3803 722 4122 1019 
L 4122 359 
Q 3791 134 3420 21 
Q 3050 -91 2638 -91 
Q 1578 -91 968 557 
Q 359 1206 359 2328 
Q 359 3453 968 4101 
Q 1578 4750 2638 4750 
Q 3056 4750 3426 4639 
Q 3797 4528 4122 4306 
z
" transform="scale(0.015625)"/>
      </defs>
      <use xlink:href="#DejaVuSans-4d"/>
      <use xlink:href="#DejaVuSans-43" x="86.279297"/>
     </g>
    </g>
    <g id="line2d_38">
     <path d="M 606.360938 119.117813 
L 624.360938 119.117813 
L 642.360938 119.117813 
" style="fill: none; stroke: #ff7f0e; stroke-width: 2; stroke-linecap: square"/>
    </g>
    <g id="text_22">
     <!-- Positive net -->
     <g transform="translate(656.760938 125.417813) scale(0.18 -0.18)">
      <defs>
       <path id="DejaVuSans-76" d="M 191 3500 
L 800 3500 
L 1894 563 
L 2988 3500 
L 3597 3500 
L 2284 0 
L 1503 0 
L 191 3500 
z
" transform="scale(0.015625)"/>
       <path id="DejaVuSans-6e" d="M 3513 2113 
L 3513 0 
L 2938 0 
L 2938 2094 
Q 2938 2591 2744 2837 
Q 2550 3084 2163 3084 
Q 1697 3084 1428 2787 
Q 1159 2491 1159 1978 
L 1159 0 
L 581 0 
L 581 3500 
L 1159 3500 
L 1159 2956 
Q 1366 3272 1645 3428 
Q 1925 3584 2291 3584 
Q 2894 3584 3203 3211 
Q 3513 2838 3513 2113 
z
" transform="scale(0.015625)"/>
      </defs>
      <use xlink:href="#DejaVuSans-50"/>
      <use xlink:href="#DejaVuSans-6f" x="56.677734"/>
      <use xlink:href="#DejaVuSans-73" x="117.859375"/>
      <use xlink:href="#DejaVuSans-69" x="169.958984"/>
      <use xlink:href="#DejaVuSans-74" x="197.742188"/>
      <use xlink:href="#DejaVuSans-69" x="236.951172"/>
      <use xlink:href="#DejaVuSans-76" x="264.734375"/>
      <use xlink:href="#DejaVuSans-65" x="323.914062"/>
      <use xlink:href="#DejaVuSans-20" x="385.4375"/>
      <use xlink:href="#DejaVuSans-6e" x="417.224609"/>
      <use xlink:href="#DejaVuSans-65" x="480.603516"/>
      <use xlink:href="#DejaVuSans-74" x="542.126953"/>
     </g>
    </g>
   </g>
  </g>
 </g>
 <defs>
  <clipPath id="p5d3c22a494">
   <rect x="108" y="69.12" width="669.6" height="443.52"/>
  </clipPath>
 </defs>
</svg>
