<?xml version="1.0" encoding="utf-8" standalone="no"?>
<!DOCTYPE svg PUBLIC "-//W3C//DTD SVG 1.1//EN"
  "http://www.w3.org/Graphics/SVG/1.1/DTD/svg11.dtd">
<svg xmlns:xlink="http://www.w3.org/1999/xlink" width="864pt" height="576pt" viewBox="0 0 864 576" xmlns="http://www.w3.org/2000/svg" version="1.1">
 <metadata>
  <rdf:RDF xmlns:dc="http://purl.org/dc/elements/1.1/" xmlns:cc="http://creativecommons.org/ns#" xmlns:rdf="http://www.w3.org/1999/02/22-rdf-syntax-ns#">
   <cc:Work>
    <dc:type rdf:resource="http://purl.org/dc/dcmitype/StillImage"/>
    <dc:date>2024-02-24T19:31:09.000337</dc:date>
    <dc:format>image/svg+xml</dc:format>
    <dc:creator>
     <cc:Agent>
      <dc:title>Matplotlib v3.7.3, https://matplotlib.org/</dc:title>
     </cc:Agent>
    </dc:creator>
   </cc:Work>
  </rdf:RDF>
 </metadata>
 <defs>
  <style type="text/css">*{stroke-linejoin: round; stroke-linecap: butt}</style>
 </defs>
 <g id="figure_1">
  <g id="patch_1">
   <path d="M 0 576 
L 864 576 
L 864 0 
L 0 0 
z
" style="fill: #ffffff"/>
  </g>
  <g id="axes_1">
   <g id="patch_2">
    <path d="M 108 512.64 
L 777.6 512.64 
L 777.6 69.12 
L 108 69.12 
z
" style="fill: #ffffff"/>
   </g>
   <g id="matplotlib.axis_1">
    <g id="xtick_1">
     <g id="line2d_1">
      <path d="M 199.223818 512.64 
L 199.223818 69.12 
" clip-path="url(#p75ccf4e3a8)" style="fill: none; stroke: #b0b0b0; stroke-width: 0.8; stroke-linecap: square"/>
     </g>
     <g id="line2d_2">
      <defs>
       <path id="mb9ae26ce83" d="M 0 0 
L 0 3.5 
" style="stroke: #000000; stroke-width: 0.8"/>
      </defs>
      <g>
       <use xlink:href="#mb9ae26ce83" x="199.223818" y="512.64" style="stroke: #000000; stroke-width: 0.8"/>
      </g>
     </g>
     <g id="text_1">
      <!-- 0.6 -->
      <g transform="translate(191.272255 527.238438) scale(0.1 -0.1)">
       <defs>
        <path id="DejaVuSans-30" d="M 2034 4250 
Q 1547 4250 1301 3770 
Q 1056 3291 1056 2328 
Q 1056 1369 1301 889 
Q 1547 409 2034 409 
Q 2525 409 2770 889 
Q 3016 1369 3016 2328 
Q 3016 3291 2770 3770 
Q 2525 4250 2034 4250 
z
M 2034 4750 
Q 2819 4750 3233 4129 
Q 3647 3509 3647 2328 
Q 3647 1150 3233 529 
Q 2819 -91 2034 -91 
Q 1250 -91 836 529 
Q 422 1150 422 2328 
Q 422 3509 836 4129 
Q 1250 4750 2034 4750 
z
" transform="scale(0.015625)"/>
        <path id="DejaVuSans-2e" d="M 684 794 
L 1344 794 
L 1344 0 
L 684 0 
L 684 794 
z
" transform="scale(0.015625)"/>
        <path id="DejaVuSans-36" d="M 2113 2584 
Q 1688 2584 1439 2293 
Q 1191 2003 1191 1497 
Q 1191 994 1439 701 
Q 1688 409 2113 409 
Q 2538 409 2786 701 
Q 3034 994 3034 1497 
Q 3034 2003 2786 2293 
Q 2538 2584 2113 2584 
z
M 3366 4563 
L 3366 3988 
Q 3128 4100 2886 4159 
Q 2644 4219 2406 4219 
Q 1781 4219 1451 3797 
Q 1122 3375 1075 2522 
Q 1259 2794 1537 2939 
Q 1816 3084 2150 3084 
Q 2853 3084 3261 2657 
Q 3669 2231 3669 1497 
Q 3669 778 3244 343 
Q 2819 -91 2113 -91 
Q 1303 -91 875 529 
Q 447 1150 447 2328 
Q 447 3434 972 4092 
Q 1497 4750 2381 4750 
Q 2619 4750 2861 4703 
Q 3103 4656 3366 4563 
z
" transform="scale(0.015625)"/>
       </defs>
       <use xlink:href="#DejaVuSans-30"/>
       <use xlink:href="#DejaVuSans-2e" x="63.623047"/>
       <use xlink:href="#DejaVuSans-36" x="95.410156"/>
      </g>
     </g>
    </g>
    <g id="xtick_2">
     <g id="line2d_3">
      <path d="M 321.042364 512.64 
L 321.042364 69.12 
" clip-path="url(#p75ccf4e3a8)" style="fill: none; stroke: #b0b0b0; stroke-width: 0.8; stroke-linecap: square"/>
     </g>
     <g id="line2d_4">
      <g>
       <use xlink:href="#mb9ae26ce83" x="321.042364" y="512.64" style="stroke: #000000; stroke-width: 0.8"/>
      </g>
     </g>
     <g id="text_2">
      <!-- 0.8 -->
      <g transform="translate(313.090801 527.238438) scale(0.1 -0.1)">
       <defs>
        <path id="DejaVuSans-38" d="M 2034 2216 
Q 1584 2216 1326 1975 
Q 1069 1734 1069 1313 
Q 1069 891 1326 650 
Q 1584 409 2034 409 
Q 2484 409 2743 651 
Q 3003 894 3003 1313 
Q 3003 1734 2745 1975 
Q 2488 2216 2034 2216 
z
M 1403 2484 
Q 997 2584 770 2862 
Q 544 3141 544 3541 
Q 544 4100 942 4425 
Q 1341 4750 2034 4750 
Q 2731 4750 3128 4425 
Q 3525 4100 3525 3541 
Q 3525 3141 3298 2862 
Q 3072 2584 2669 2484 
Q 3125 2378 3379 2068 
Q 3634 1759 3634 1313 
Q 3634 634 3220 271 
Q 2806 -91 2034 -91 
Q 1263 -91 848 271 
Q 434 634 434 1313 
Q 434 1759 690 2068 
Q 947 2378 1403 2484 
z
M 1172 3481 
Q 1172 3119 1398 2916 
Q 1625 2713 2034 2713 
Q 2441 2713 2670 2916 
Q 2900 3119 2900 3481 
Q 2900 3844 2670 4047 
Q 2441 4250 2034 4250 
Q 1625 4250 1398 4047 
Q 1172 3844 1172 3481 
z
" transform="scale(0.015625)"/>
       </defs>
       <use xlink:href="#DejaVuSans-30"/>
       <use xlink:href="#DejaVuSans-2e" x="63.623047"/>
       <use xlink:href="#DejaVuSans-38" x="95.410156"/>
      </g>
     </g>
    </g>
    <g id="xtick_3">
     <g id="line2d_5">
      <path d="M 442.860909 512.64 
L 442.860909 69.12 
" clip-path="url(#p75ccf4e3a8)" style="fill: none; stroke: #b0b0b0; stroke-width: 0.8; stroke-linecap: square"/>
     </g>
     <g id="line2d_6">
      <g>
       <use xlink:href="#mb9ae26ce83" x="442.860909" y="512.64" style="stroke: #000000; stroke-width: 0.8"/>
      </g>
     </g>
     <g id="text_3">
      <!-- 1.0 -->
      <g transform="translate(434.909347 527.238438) scale(0.1 -0.1)">
       <defs>
        <path id="DejaVuSans-31" d="M 794 531 
L 1825 531 
L 1825 4091 
L 703 3866 
L 703 4441 
L 1819 4666 
L 2450 4666 
L 2450 531 
L 3481 531 
L 3481 0 
L 794 0 
L 794 531 
z
" transform="scale(0.015625)"/>
       </defs>
       <use xlink:href="#DejaVuSans-31"/>
       <use xlink:href="#DejaVuSans-2e" x="63.623047"/>
       <use xlink:href="#DejaVuSans-30" x="95.410156"/>
      </g>
     </g>
    </g>
    <g id="xtick_4">
     <g id="line2d_7">
      <path d="M 564.679455 512.64 
L 564.679455 69.12 
" clip-path="url(#p75ccf4e3a8)" style="fill: none; stroke: #b0b0b0; stroke-width: 0.8; stroke-linecap: square"/>
     </g>
     <g id="line2d_8">
      <g>
       <use xlink:href="#mb9ae26ce83" x="564.679455" y="512.64" style="stroke: #000000; stroke-width: 0.8"/>
      </g>
     </g>
     <g id="text_4">
      <!-- 1.2 -->
      <g transform="translate(556.727892 527.238438) scale(0.1 -0.1)">
       <defs>
        <path id="DejaVuSans-32" d="M 1228 531 
L 3431 531 
L 3431 0 
L 469 0 
L 469 531 
Q 828 903 1448 1529 
Q 2069 2156 2228 2338 
Q 2531 2678 2651 2914 
Q 2772 3150 2772 3378 
Q 2772 3750 2511 3984 
Q 2250 4219 1831 4219 
Q 1534 4219 1204 4116 
Q 875 4013 500 3803 
L 500 4441 
Q 881 4594 1212 4672 
Q 1544 4750 1819 4750 
Q 2544 4750 2975 4387 
Q 3406 4025 3406 3419 
Q 3406 3131 3298 2873 
Q 3191 2616 2906 2266 
Q 2828 2175 2409 1742 
Q 1991 1309 1228 531 
z
" transform="scale(0.015625)"/>
       </defs>
       <use xlink:href="#DejaVuSans-31"/>
       <use xlink:href="#DejaVuSans-2e" x="63.623047"/>
       <use xlink:href="#DejaVuSans-32" x="95.410156"/>
      </g>
     </g>
    </g>
    <g id="xtick_5">
     <g id="line2d_9">
      <path d="M 686.498001 512.64 
L 686.498001 69.12 
" clip-path="url(#p75ccf4e3a8)" style="fill: none; stroke: #b0b0b0; stroke-width: 0.8; stroke-linecap: square"/>
     </g>
     <g id="line2d_10">
      <g>
       <use xlink:href="#mb9ae26ce83" x="686.498001" y="512.64" style="stroke: #000000; stroke-width: 0.8"/>
      </g>
     </g>
     <g id="text_5">
      <!-- 1.4 -->
      <g transform="translate(678.546438 527.238438) scale(0.1 -0.1)">
       <defs>
        <path id="DejaVuSans-34" d="M 2419 4116 
L 825 1625 
L 2419 1625 
L 2419 4116 
z
M 2253 4666 
L 3047 4666 
L 3047 1625 
L 3713 1625 
L 3713 1100 
L 3047 1100 
L 3047 0 
L 2419 0 
L 2419 1100 
L 313 1100 
L 313 1709 
L 2253 4666 
z
" transform="scale(0.015625)"/>
       </defs>
       <use xlink:href="#DejaVuSans-31"/>
       <use xlink:href="#DejaVuSans-2e" x="63.623047"/>
       <use xlink:href="#DejaVuSans-34" x="95.410156"/>
      </g>
     </g>
    </g>
    <g id="text_6">
     <!-- Spot/strike ratio -->
     <g transform="translate(370.854844 546.995312) scale(0.18 -0.18)">
      <defs>
       <path id="DejaVuSans-53" d="M 3425 4513 
L 3425 3897 
Q 3066 4069 2747 4153 
Q 2428 4238 2131 4238 
Q 1616 4238 1336 4038 
Q 1056 3838 1056 3469 
Q 1056 3159 1242 3001 
Q 1428 2844 1947 2747 
L 2328 2669 
Q 3034 2534 3370 2195 
Q 3706 1856 3706 1288 
Q 3706 609 3251 259 
Q 2797 -91 1919 -91 
Q 1588 -91 1214 -16 
Q 841 59 441 206 
L 441 856 
Q 825 641 1194 531 
Q 1563 422 1919 422 
Q 2459 422 2753 634 
Q 3047 847 3047 1241 
Q 3047 1584 2836 1778 
Q 2625 1972 2144 2069 
L 1759 2144 
Q 1053 2284 737 2584 
Q 422 2884 422 3419 
Q 422 4038 858 4394 
Q 1294 4750 2059 4750 
Q 2388 4750 2728 4690 
Q 3069 4631 3425 4513 
z
" transform="scale(0.015625)"/>
       <path id="DejaVuSans-70" d="M 1159 525 
L 1159 -1331 
L 581 -1331 
L 581 3500 
L 1159 3500 
L 1159 2969 
Q 1341 3281 1617 3432 
Q 1894 3584 2278 3584 
Q 2916 3584 3314 3078 
Q 3713 2572 3713 1747 
Q 3713 922 3314 415 
Q 2916 -91 2278 -91 
Q 1894 -91 1617 61 
Q 1341 213 1159 525 
z
M 3116 1747 
Q 3116 2381 2855 2742 
Q 2594 3103 2138 3103 
Q 1681 3103 1420 2742 
Q 1159 2381 1159 1747 
Q 1159 1113 1420 752 
Q 1681 391 2138 391 
Q 2594 391 2855 752 
Q 3116 1113 3116 1747 
z
" transform="scale(0.015625)"/>
       <path id="DejaVuSans-6f" d="M 1959 3097 
Q 1497 3097 1228 2736 
Q 959 2375 959 1747 
Q 959 1119 1226 758 
Q 1494 397 1959 397 
Q 2419 397 2687 759 
Q 2956 1122 2956 1747 
Q 2956 2369 2687 2733 
Q 2419 3097 1959 3097 
z
M 1959 3584 
Q 2709 3584 3137 3096 
Q 3566 2609 3566 1747 
Q 3566 888 3137 398 
Q 2709 -91 1959 -91 
Q 1206 -91 779 398 
Q 353 888 353 1747 
Q 353 2609 779 3096 
Q 1206 3584 1959 3584 
z
" transform="scale(0.015625)"/>
       <path id="DejaVuSans-74" d="M 1172 4494 
L 1172 3500 
L 2356 3500 
L 2356 3053 
L 1172 3053 
L 1172 1153 
Q 1172 725 1289 603 
Q 1406 481 1766 481 
L 2356 481 
L 2356 0 
L 1766 0 
Q 1100 0 847 248 
Q 594 497 594 1153 
L 594 3053 
L 172 3053 
L 172 3500 
L 594 3500 
L 594 4494 
L 1172 4494 
z
" transform="scale(0.015625)"/>
       <path id="DejaVuSans-2f" d="M 1625 4666 
L 2156 4666 
L 531 -594 
L 0 -594 
L 1625 4666 
z
" transform="scale(0.015625)"/>
       <path id="DejaVuSans-73" d="M 2834 3397 
L 2834 2853 
Q 2591 2978 2328 3040 
Q 2066 3103 1784 3103 
Q 1356 3103 1142 2972 
Q 928 2841 928 2578 
Q 928 2378 1081 2264 
Q 1234 2150 1697 2047 
L 1894 2003 
Q 2506 1872 2764 1633 
Q 3022 1394 3022 966 
Q 3022 478 2636 193 
Q 2250 -91 1575 -91 
Q 1294 -91 989 -36 
Q 684 19 347 128 
L 347 722 
Q 666 556 975 473 
Q 1284 391 1588 391 
Q 1994 391 2212 530 
Q 2431 669 2431 922 
Q 2431 1156 2273 1281 
Q 2116 1406 1581 1522 
L 1381 1569 
Q 847 1681 609 1914 
Q 372 2147 372 2553 
Q 372 3047 722 3315 
Q 1072 3584 1716 3584 
Q 2034 3584 2315 3537 
Q 2597 3491 2834 3397 
z
" transform="scale(0.015625)"/>
       <path id="DejaVuSans-72" d="M 2631 2963 
Q 2534 3019 2420 3045 
Q 2306 3072 2169 3072 
Q 1681 3072 1420 2755 
Q 1159 2438 1159 1844 
L 1159 0 
L 581 0 
L 581 3500 
L 1159 3500 
L 1159 2956 
Q 1341 3275 1631 3429 
Q 1922 3584 2338 3584 
Q 2397 3584 2469 3576 
Q 2541 3569 2628 3553 
L 2631 2963 
z
" transform="scale(0.015625)"/>
       <path id="DejaVuSans-69" d="M 603 3500 
L 1178 3500 
L 1178 0 
L 603 0 
L 603 3500 
z
M 603 4863 
L 1178 4863 
L 1178 4134 
L 603 4134 
L 603 4863 
z
" transform="scale(0.015625)"/>
       <path id="DejaVuSans-6b" d="M 581 4863 
L 1159 4863 
L 1159 1991 
L 2875 3500 
L 3609 3500 
L 1753 1863 
L 3688 0 
L 2938 0 
L 1159 1709 
L 1159 0 
L 581 0 
L 581 4863 
z
" transform="scale(0.015625)"/>
       <path id="DejaVuSans-65" d="M 3597 1894 
L 3597 1613 
L 953 1613 
Q 991 1019 1311 708 
Q 1631 397 2203 397 
Q 2534 397 2845 478 
Q 3156 559 3463 722 
L 3463 178 
Q 3153 47 2828 -22 
Q 2503 -91 2169 -91 
Q 1331 -91 842 396 
Q 353 884 353 1716 
Q 353 2575 817 3079 
Q 1281 3584 2069 3584 
Q 2775 3584 3186 3129 
Q 3597 2675 3597 1894 
z
M 3022 2063 
Q 3016 2534 2758 2815 
Q 2500 3097 2075 3097 
Q 1594 3097 1305 2825 
Q 1016 2553 972 2059 
L 3022 2063 
z
" transform="scale(0.015625)"/>
       <path id="DejaVuSans-20" transform="scale(0.015625)"/>
       <path id="DejaVuSans-61" d="M 2194 1759 
Q 1497 1759 1228 1600 
Q 959 1441 959 1056 
Q 959 750 1161 570 
Q 1363 391 1709 391 
Q 2188 391 2477 730 
Q 2766 1069 2766 1631 
L 2766 1759 
L 2194 1759 
z
M 3341 1997 
L 3341 0 
L 2766 0 
L 2766 531 
Q 2569 213 2275 61 
Q 1981 -91 1556 -91 
Q 1019 -91 701 211 
Q 384 513 384 1019 
Q 384 1609 779 1909 
Q 1175 2209 1959 2209 
L 2766 2209 
L 2766 2266 
Q 2766 2663 2505 2880 
Q 2244 3097 1772 3097 
Q 1472 3097 1187 3025 
Q 903 2953 641 2809 
L 641 3341 
Q 956 3463 1253 3523 
Q 1550 3584 1831 3584 
Q 2591 3584 2966 3190 
Q 3341 2797 3341 1997 
z
" transform="scale(0.015625)"/>
      </defs>
      <use xlink:href="#DejaVuSans-53"/>
      <use xlink:href="#DejaVuSans-70" x="63.476562"/>
      <use xlink:href="#DejaVuSans-6f" x="126.953125"/>
      <use xlink:href="#DejaVuSans-74" x="188.134766"/>
      <use xlink:href="#DejaVuSans-2f" x="227.34375"/>
      <use xlink:href="#DejaVuSans-73" x="261.035156"/>
      <use xlink:href="#DejaVuSans-74" x="313.134766"/>
      <use xlink:href="#DejaVuSans-72" x="352.34375"/>
      <use xlink:href="#DejaVuSans-69" x="393.457031"/>
      <use xlink:href="#DejaVuSans-6b" x="421.240234"/>
      <use xlink:href="#DejaVuSans-65" x="475.525391"/>
      <use xlink:href="#DejaVuSans-20" x="537.048828"/>
      <use xlink:href="#DejaVuSans-72" x="568.835938"/>
      <use xlink:href="#DejaVuSans-61" x="609.949219"/>
      <use xlink:href="#DejaVuSans-74" x="671.228516"/>
      <use xlink:href="#DejaVuSans-69" x="710.4375"/>
      <use xlink:href="#DejaVuSans-6f" x="738.220703"/>
     </g>
    </g>
   </g>
   <g id="matplotlib.axis_2">
    <g id="ytick_1">
     <g id="line2d_11">
      <path d="M 108 491.282969 
L 777.6 491.282969 
" clip-path="url(#p75ccf4e3a8)" style="fill: none; stroke: #b0b0b0; stroke-width: 0.8; stroke-linecap: square"/>
     </g>
     <g id="line2d_12">
      <defs>
       <path id="m606a7aecfa" d="M 0 0 
L -3.5 0 
" style="stroke: #000000; stroke-width: 0.8"/>
      </defs>
      <g>
       <use xlink:href="#m606a7aecfa" x="108" y="491.282969" style="stroke: #000000; stroke-width: 0.8"/>
      </g>
     </g>
     <g id="text_7">
      <!-- 0.000 -->
      <g transform="translate(72.371875 495.082188) scale(0.1 -0.1)">
       <use xlink:href="#DejaVuSans-30"/>
       <use xlink:href="#DejaVuSans-2e" x="63.623047"/>
       <use xlink:href="#DejaVuSans-30" x="95.410156"/>
       <use xlink:href="#DejaVuSans-30" x="159.033203"/>
       <use xlink:href="#DejaVuSans-30" x="222.65625"/>
      </g>
     </g>
    </g>
    <g id="ytick_2">
     <g id="line2d_13">
      <path d="M 108 441.40667 
L 777.6 441.40667 
" clip-path="url(#p75ccf4e3a8)" style="fill: none; stroke: #b0b0b0; stroke-width: 0.8; stroke-linecap: square"/>
     </g>
     <g id="line2d_14">
      <g>
       <use xlink:href="#m606a7aecfa" x="108" y="441.40667" style="stroke: #000000; stroke-width: 0.8"/>
      </g>
     </g>
     <g id="text_8">
      <!-- 0.025 -->
      <g transform="translate(72.371875 445.205889) scale(0.1 -0.1)">
       <defs>
        <path id="DejaVuSans-35" d="M 691 4666 
L 3169 4666 
L 3169 4134 
L 1269 4134 
L 1269 2991 
Q 1406 3038 1543 3061 
Q 1681 3084 1819 3084 
Q 2600 3084 3056 2656 
Q 3513 2228 3513 1497 
Q 3513 744 3044 326 
Q 2575 -91 1722 -91 
Q 1428 -91 1123 -41 
Q 819 9 494 109 
L 494 744 
Q 775 591 1075 516 
Q 1375 441 1709 441 
Q 2250 441 2565 725 
Q 2881 1009 2881 1497 
Q 2881 1984 2565 2268 
Q 2250 2553 1709 2553 
Q 1456 2553 1204 2497 
Q 953 2441 691 2322 
L 691 4666 
z
" transform="scale(0.015625)"/>
       </defs>
       <use xlink:href="#DejaVuSans-30"/>
       <use xlink:href="#DejaVuSans-2e" x="63.623047"/>
       <use xlink:href="#DejaVuSans-30" x="95.410156"/>
       <use xlink:href="#DejaVuSans-32" x="159.033203"/>
       <use xlink:href="#DejaVuSans-35" x="222.65625"/>
      </g>
     </g>
    </g>
    <g id="ytick_3">
     <g id="line2d_15">
      <path d="M 108 391.530371 
L 777.6 391.530371 
" clip-path="url(#p75ccf4e3a8)" style="fill: none; stroke: #b0b0b0; stroke-width: 0.8; stroke-linecap: square"/>
     </g>
     <g id="line2d_16">
      <g>
       <use xlink:href="#m606a7aecfa" x="108" y="391.530371" style="stroke: #000000; stroke-width: 0.8"/>
      </g>
     </g>
     <g id="text_9">
      <!-- 0.050 -->
      <g transform="translate(72.371875 395.32959) scale(0.1 -0.1)">
       <use xlink:href="#DejaVuSans-30"/>
       <use xlink:href="#DejaVuSans-2e" x="63.623047"/>
       <use xlink:href="#DejaVuSans-30" x="95.410156"/>
       <use xlink:href="#DejaVuSans-35" x="159.033203"/>
       <use xlink:href="#DejaVuSans-30" x="222.65625"/>
      </g>
     </g>
    </g>
    <g id="ytick_4">
     <g id="line2d_17">
      <path d="M 108 341.654072 
L 777.6 341.654072 
" clip-path="url(#p75ccf4e3a8)" style="fill: none; stroke: #b0b0b0; stroke-width: 0.8; stroke-linecap: square"/>
     </g>
     <g id="line2d_18">
      <g>
       <use xlink:href="#m606a7aecfa" x="108" y="341.654072" style="stroke: #000000; stroke-width: 0.8"/>
      </g>
     </g>
     <g id="text_10">
      <!-- 0.075 -->
      <g transform="translate(72.371875 345.453291) scale(0.1 -0.1)">
       <defs>
        <path id="DejaVuSans-37" d="M 525 4666 
L 3525 4666 
L 3525 4397 
L 1831 0 
L 1172 0 
L 2766 4134 
L 525 4134 
L 525 4666 
z
" transform="scale(0.015625)"/>
       </defs>
       <use xlink:href="#DejaVuSans-30"/>
       <use xlink:href="#DejaVuSans-2e" x="63.623047"/>
       <use xlink:href="#DejaVuSans-30" x="95.410156"/>
       <use xlink:href="#DejaVuSans-37" x="159.033203"/>
       <use xlink:href="#DejaVuSans-35" x="222.65625"/>
      </g>
     </g>
    </g>
    <g id="ytick_5">
     <g id="line2d_19">
      <path d="M 108 291.777773 
L 777.6 291.777773 
" clip-path="url(#p75ccf4e3a8)" style="fill: none; stroke: #b0b0b0; stroke-width: 0.8; stroke-linecap: square"/>
     </g>
     <g id="line2d_20">
      <g>
       <use xlink:href="#m606a7aecfa" x="108" y="291.777773" style="stroke: #000000; stroke-width: 0.8"/>
      </g>
     </g>
     <g id="text_11">
      <!-- 0.100 -->
      <g transform="translate(72.371875 295.576992) scale(0.1 -0.1)">
       <use xlink:href="#DejaVuSans-30"/>
       <use xlink:href="#DejaVuSans-2e" x="63.623047"/>
       <use xlink:href="#DejaVuSans-31" x="95.410156"/>
       <use xlink:href="#DejaVuSans-30" x="159.033203"/>
       <use xlink:href="#DejaVuSans-30" x="222.65625"/>
      </g>
     </g>
    </g>
    <g id="ytick_6">
     <g id="line2d_21">
      <path d="M 108 241.901475 
L 777.6 241.901475 
" clip-path="url(#p75ccf4e3a8)" style="fill: none; stroke: #b0b0b0; stroke-width: 0.8; stroke-linecap: square"/>
     </g>
     <g id="line2d_22">
      <g>
       <use xlink:href="#m606a7aecfa" x="108" y="241.901475" style="stroke: #000000; stroke-width: 0.8"/>
      </g>
     </g>
     <g id="text_12">
      <!-- 0.125 -->
      <g transform="translate(72.371875 245.700693) scale(0.1 -0.1)">
       <use xlink:href="#DejaVuSans-30"/>
       <use xlink:href="#DejaVuSans-2e" x="63.623047"/>
       <use xlink:href="#DejaVuSans-31" x="95.410156"/>
       <use xlink:href="#DejaVuSans-32" x="159.033203"/>
       <use xlink:href="#DejaVuSans-35" x="222.65625"/>
      </g>
     </g>
    </g>
    <g id="ytick_7">
     <g id="line2d_23">
      <path d="M 108 192.025176 
L 777.6 192.025176 
" clip-path="url(#p75ccf4e3a8)" style="fill: none; stroke: #b0b0b0; stroke-width: 0.8; stroke-linecap: square"/>
     </g>
     <g id="line2d_24">
      <g>
       <use xlink:href="#m606a7aecfa" x="108" y="192.025176" style="stroke: #000000; stroke-width: 0.8"/>
      </g>
     </g>
     <g id="text_13">
      <!-- 0.150 -->
      <g transform="translate(72.371875 195.824394) scale(0.1 -0.1)">
       <use xlink:href="#DejaVuSans-30"/>
       <use xlink:href="#DejaVuSans-2e" x="63.623047"/>
       <use xlink:href="#DejaVuSans-31" x="95.410156"/>
       <use xlink:href="#DejaVuSans-35" x="159.033203"/>
       <use xlink:href="#DejaVuSans-30" x="222.65625"/>
      </g>
     </g>
    </g>
    <g id="ytick_8">
     <g id="line2d_25">
      <path d="M 108 142.148877 
L 777.6 142.148877 
" clip-path="url(#p75ccf4e3a8)" style="fill: none; stroke: #b0b0b0; stroke-width: 0.8; stroke-linecap: square"/>
     </g>
     <g id="line2d_26">
      <g>
       <use xlink:href="#m606a7aecfa" x="108" y="142.148877" style="stroke: #000000; stroke-width: 0.8"/>
      </g>
     </g>
     <g id="text_14">
      <!-- 0.175 -->
      <g transform="translate(72.371875 145.948096) scale(0.1 -0.1)">
       <use xlink:href="#DejaVuSans-30"/>
       <use xlink:href="#DejaVuSans-2e" x="63.623047"/>
       <use xlink:href="#DejaVuSans-31" x="95.410156"/>
       <use xlink:href="#DejaVuSans-37" x="159.033203"/>
       <use xlink:href="#DejaVuSans-35" x="222.65625"/>
      </g>
     </g>
    </g>
    <g id="ytick_9">
     <g id="line2d_27">
      <path d="M 108 92.272578 
L 777.6 92.272578 
" clip-path="url(#p75ccf4e3a8)" style="fill: none; stroke: #b0b0b0; stroke-width: 0.8; stroke-linecap: square"/>
     </g>
     <g id="line2d_28">
      <g>
       <use xlink:href="#m606a7aecfa" x="108" y="92.272578" style="stroke: #000000; stroke-width: 0.8"/>
      </g>
     </g>
     <g id="text_15">
      <!-- 0.200 -->
      <g transform="translate(72.371875 96.071797) scale(0.1 -0.1)">
       <use xlink:href="#DejaVuSans-30"/>
       <use xlink:href="#DejaVuSans-2e" x="63.623047"/>
       <use xlink:href="#DejaVuSans-32" x="95.410156"/>
       <use xlink:href="#DejaVuSans-30" x="159.033203"/>
       <use xlink:href="#DejaVuSans-30" x="222.65625"/>
      </g>
     </g>
    </g>
    <g id="text_16">
     <!-- Price/strike ratio -->
     <g transform="translate(64.628438 364.318594) rotate(-90) scale(0.18 -0.18)">
      <defs>
       <path id="DejaVuSans-50" d="M 1259 4147 
L 1259 2394 
L 2053 2394 
Q 2494 2394 2734 2622 
Q 2975 2850 2975 3272 
Q 2975 3691 2734 3919 
Q 2494 4147 2053 4147 
L 1259 4147 
z
M 628 4666 
L 2053 4666 
Q 2838 4666 3239 4311 
Q 3641 3956 3641 3272 
Q 3641 2581 3239 2228 
Q 2838 1875 2053 1875 
L 1259 1875 
L 1259 0 
L 628 0 
L 628 4666 
z
" transform="scale(0.015625)"/>
       <path id="DejaVuSans-63" d="M 3122 3366 
L 3122 2828 
Q 2878 2963 2633 3030 
Q 2388 3097 2138 3097 
Q 1578 3097 1268 2742 
Q 959 2388 959 1747 
Q 959 1106 1268 751 
Q 1578 397 2138 397 
Q 2388 397 2633 464 
Q 2878 531 3122 666 
L 3122 134 
Q 2881 22 2623 -34 
Q 2366 -91 2075 -91 
Q 1284 -91 818 406 
Q 353 903 353 1747 
Q 353 2603 823 3093 
Q 1294 3584 2113 3584 
Q 2378 3584 2631 3529 
Q 2884 3475 3122 3366 
z
" transform="scale(0.015625)"/>
      </defs>
      <use xlink:href="#DejaVuSans-50"/>
      <use xlink:href="#DejaVuSans-72" x="58.552734"/>
      <use xlink:href="#DejaVuSans-69" x="99.666016"/>
      <use xlink:href="#DejaVuSans-63" x="127.449219"/>
      <use xlink:href="#DejaVuSans-65" x="182.429688"/>
      <use xlink:href="#DejaVuSans-2f" x="243.953125"/>
      <use xlink:href="#DejaVuSans-73" x="277.644531"/>
      <use xlink:href="#DejaVuSans-74" x="329.744141"/>
      <use xlink:href="#DejaVuSans-72" x="368.953125"/>
      <use xlink:href="#DejaVuSans-69" x="410.066406"/>
      <use xlink:href="#DejaVuSans-6b" x="437.849609"/>
      <use xlink:href="#DejaVuSans-65" x="492.134766"/>
      <use xlink:href="#DejaVuSans-20" x="553.658203"/>
      <use xlink:href="#DejaVuSans-72" x="585.445312"/>
      <use xlink:href="#DejaVuSans-61" x="626.558594"/>
      <use xlink:href="#DejaVuSans-74" x="687.837891"/>
      <use xlink:href="#DejaVuSans-69" x="727.046875"/>
      <use xlink:href="#DejaVuSans-6f" x="754.830078"/>
     </g>
    </g>
   </g>
   <g id="line2d_29">
    <path d="M 138.436364 491.282969 
L 247.585781 491.282969 
L 248.012145 491.083464 
L 248.073055 491.282969 
L 254.955803 491.282969 
L 259.097633 491.083464 
L 262.021278 491.083464 
L 264.457649 490.883958 
L 264.457649 491.083464 
L 265.432198 491.083464 
L 266.1022 490.883958 
L 267.74675 491.083464 
L 267.990387 490.883958 
L 268.53857 491.083464 
L 270.487667 491.083464 
L 271.340397 490.883958 
L 271.705853 491.083464 
L 271.94949 490.883958 
L 272.010399 491.083464 
L 272.558582 490.883958 
L 273.350403 490.883958 
L 273.715859 491.083464 
L 274.934044 490.883958 
L 275.604046 490.484948 
L 277.004959 490.684453 
L 277.614052 490.883958 
L 277.674961 490.684453 
L 277.79678 490.883958 
L 278.162236 490.684453 
L 278.284054 490.883958 
L 279.380421 490.684453 
L 279.563149 490.883958 
L 280.050423 490.684453 
L 280.415879 490.684453 
L 281.573155 490.883958 
L 281.573155 490.883958 
L 281.877701 490.684453 
L 283.217705 490.684453 
L 283.217705 490.484948 
L 283.765889 490.684453 
L 284.253163 490.684453 
L 286.628624 490.484948 
L 286.750443 490.684453 
L 287.298626 490.285443 
L 287.481354 490.484948 
L 287.542264 490.285443 
L 289.247723 490.484948 
L 290.465909 490.085938 
L 291.257729 490.285443 
L 293.267735 490.285443 
L 295.216832 489.886432 
L 296.861382 489.886432 
L 297.04411 489.686927 
L 297.775021 490.085938 
L 298.566842 489.686927 
L 299.419572 490.085938 
L 299.724118 489.287917 
L 299.724118 489.886432 
L 299.845937 490.085938 
L 300.028664 489.287917 
L 300.39412 489.686927 
L 301.003213 489.487422 
L 302.343217 489.487422 
L 303.135037 489.686927 
L 303.987767 489.487422 
L 304.048676 489.287917 
L 305.205953 489.487422 
L 305.327771 488.689401 
L 306.606866 488.888906 
L 306.789594 489.088412 
L 307.764142 489.088412 
L 308.068688 488.689401 
L 308.373235 488.888906 
L 308.616872 489.487422 
L 309.165055 489.487422 
L 311.905973 488.689401 
L 312.332338 488.290391 
L 313.245977 488.689401 
L 314.768708 488.689401 
L 315.134164 488.290391 
L 315.925985 487.691875 
L 316.230531 488.090886 
L 316.535077 487.09336 
L 316.900533 488.090886 
L 316.900533 487.891381 
L 317.692354 487.49237 
L 317.9969 488.090886 
L 320.311452 487.292865 
L 320.676908 487.292865 
L 322.321458 487.09336 
L 322.747823 486.893855 
L 323.113279 487.292865 
L 323.722372 486.694349 
L 323.966009 486.694349 
L 326.889654 485.497318 
L 326.950563 486.494844 
L 327.925111 486.295339 
L 328.777841 485.896329 
L 329.082388 485.497318 
L 329.326025 485.497318 
L 329.508753 485.696823 
L 330.361482 485.896329 
L 330.848757 485.297813 
L 330.848757 485.098308 
L 331.39694 485.497318 
L 332.371488 485.098308 
L 332.554216 484.898803 
L 334.320585 484.300287 
L 334.868769 483.901277 
L 334.868769 484.300287 
L 335.538771 483.701771 
L 336.269682 484.300287 
L 338.462416 484.100782 
L 338.827871 483.901277 
L 338.827871 483.502266 
L 340.167875 483.103256 
L 341.934244 482.704245 
L 341.995153 481.706719 
L 342.056063 482.10573 
L 342.360609 482.305235 
L 342.969702 482.305235 
L 343.213339 481.507214 
L 343.274248 482.305235 
L 343.700613 481.906225 
L 343.883341 482.305235 
L 344.857889 481.507214 
L 344.918799 480.908699 
L 345.710619 480.709193 
L 346.319712 480.709193 
L 346.746077 481.307709 
L 347.172442 480.110678 
L 348.938811 480.509688 
L 349.730631 479.512162 
L 349.974268 479.512162 
L 351.009726 478.514636 
L 351.131544 477.716616 
L 351.253363 478.913647 
L 352.654276 478.514636 
L 352.715185 478.714142 
L 353.507006 478.714142 
L 353.507006 477.716616 
L 353.872462 478.315131 
L 355.456103 477.317605 
L 356.065195 476.120574 
L 357.34429 476.519584 
L 357.466109 476.918595 
L 357.648837 475.522058 
L 357.831564 475.522058 
L 359.597933 475.322553 
L 360.267935 475.123048 
L 360.328845 474.325027 
L 360.877028 474.524532 
L 362.034304 475.322553 
L 362.39976 473.726512 
L 362.887034 472.329975 
L 363.130671 472.329975 
L 364.105219 471.531954 
L 364.105219 472.928491 
L 364.775221 472.13047 
L 365.018859 472.728986 
L 365.506133 471.531954 
L 365.871588 471.930965 
L 365.932498 471.73146 
L 367.759776 470.334923 
L 370.013419 469.536903 
L 370.439784 468.140366 
L 370.561602 468.339871 
L 371.048877 467.741356 
L 372.754336 465.945809 
L 372.815246 467.940861 
L 372.815246 467.14284 
L 373.363429 465.147788 
L 374.642524 464.948283 
L 374.886161 465.147788 
L 374.94707 465.546799 
L 376.347983 465.945809 
L 377.809806 464.748778 
L 378.175262 462.15521 
L 379.637084 462.554221 
L 379.697993 461.157684 
L 379.697993 461.35719 
L 380.79436 460.559169 
L 380.916179 461.157684 
L 382.317092 462.15521 
L 385.058009 457.16758 
L 385.545284 457.16758 
L 386.276195 454.574013 
L 386.337104 457.766096 
L 387.189834 456.76857 
L 387.616199 453.376982 
L 387.738017 454.773518 
L 389.565296 452.778466 
L 390.661662 453.975497 
L 390.9053 452.977971 
L 391.331664 450.583909 
L 392.854396 448.788362 
L 393.40258 448.788362 
L 393.40258 450.184899 
L 393.524398 450.982919 
L 393.524398 449.386878 
L 393.828945 448.189847 
L 394.438037 449.187373 
L 395.04713 447.790836 
L 395.168949 447.192321 
L 395.229858 447.790836 
L 395.656223 446.3943 
L 395.717132 446.79331 
L 396.204406 445.197269 
L 396.813499 445.995289 
L 397.178955 445.795784 
L 397.60532 444.798258 
L 397.60532 443.601227 
L 398.336231 444.997763 
L 398.579868 443.401722 
L 399.493507 443.002712 
L 399.615326 443.601227 
L 399.737144 440.608649 
L 400.1026 443.800732 
L 400.711692 441.40667 
L 400.772602 438.813102 
L 401.259876 440.808154 
L 402.051696 439.611123 
L 403.45261 438.414092 
L 404.366249 437.815576 
L 404.731704 435.222009 
L 405.94989 434.423988 
L 405.94989 433.825473 
L 406.010799 433.825473 
L 406.74171 432.428936 
L 407.107166 434.224483 
L 408.751716 431.630915 
L 409.360809 432.428936 
L 409.726265 429.236853 
L 410.335358 429.236853 
L 413.50264 424.249223 
L 413.929005 426.04477 
L 414.111732 422.852687 
L 414.477188 422.254171 
L 414.538097 424.049718 
L 416.426285 419.860109 
L 417.157196 420.059614 
L 417.339924 419.860109 
L 417.888107 418.663078 
L 418.923565 415.870005 
L 419.106293 418.064562 
L 419.593567 414.672974 
L 419.715386 415.470995 
L 420.141751 415.271489 
L 421.420845 413.675448 
L 422.029938 410.68287 
L 422.212666 412.677922 
L 422.212666 414.672974 
L 422.395394 413.076932 
L 423.55267 411.08188 
L 423.55267 412.677922 
L 423.613579 409.286333 
L 424.222672 410.283859 
L 424.527218 410.283859 
L 425.258129 406.09425 
L 425.867222 406.09425 
L 428.364502 404.697714 
L 429.156323 405.29623 
L 429.765416 407.490787 
L 429.887234 404.697714 
L 430.374508 407.091776 
L 430.800873 406.892271 
L 430.922692 407.291282 
L 432.445424 411.08188 
L 432.871789 410.483365 
L 433.541791 412.079406 
L 433.785428 412.079406 
L 434.089974 411.08188 
L 435.490887 414.273963 
L 435.795434 412.079406 
L 436.160889 414.872479 
L 436.769982 416.468521 
L 436.95271 416.269015 
L 438.109986 420.059614 
L 438.292714 417.266541 
L 438.962716 418.264067 
L 439.876355 421.05714 
L 440.850903 423.251697 
L 441.520905 423.251697 
L 441.520905 422.254171 
L 441.886361 424.648234 
L 442.556363 424.847739 
L 443.348183 424.847739 
L 443.957276 426.842791 
L 443.957276 427.241801 
L 444.50546 425.64576 
L 444.627278 427.640811 
L 445.236371 430.433884 
L 445.419099 427.640811 
L 446.454556 430.034874 
L 447.733651 430.234379 
L 448.220925 431.0324 
L 448.890927 431.630915 
L 449.073655 433.027452 
L 449.073655 432.029926 
L 450.596387 435.222009 
L 450.779115 433.625967 
L 450.779115 434.623493 
L 451.083661 436.02003 
L 453.093667 436.81805 
L 453.946397 437.616071 
L 454.007306 438.214587 
L 454.49458 437.815576 
L 454.738217 438.813102 
L 454.738217 441.00766 
L 454.860036 435.421514 
L 456.20004 441.207165 
L 456.321859 439.012608 
L 456.626405 439.810628 
L 457.174588 439.212113 
L 457.296407 442.603701 
L 457.722772 441.207165 
L 458.636411 443.202217 
L 459.306413 444.000238 
L 460.524598 443.401722 
L 461.620965 444.598753 
L 462.169149 445.995289 
L 463.996427 449.586383 
L 465.39734 448.788362 
L 465.580068 446.79331 
L 466.067342 452.778466 
L 467.529165 449.386878 
L 467.590074 450.982919 
L 468.016439 449.785888 
L 468.260076 454.175002 
L 468.381895 450.184899 
L 468.990987 453.376982 
L 469.051897 451.38193 
L 469.356443 452.578961 
L 470.696447 455.372034 
L 472.828272 455.172528 
L 473.132818 454.374508 
L 473.863729 454.973023 
L 474.351003 456.170054 
L 474.960096 454.973023 
L 475.50828 457.16758 
L 475.630098 458.165106 
L 475.934644 457.766096 
L 476.543737 457.367086 
L 477.640104 457.766096 
L 478.919199 459.362138 
L 479.041017 461.7562 
L 479.223745 459.561643 
L 480.441931 461.955705 
L 480.868296 461.955705 
L 481.051023 458.763622 
L 481.538298 460.160158 
L 482.573755 459.960653 
L 483.121939 462.953231 
L 483.974668 462.15521 
L 485.253763 462.953231 
L 485.619219 464.349767 
L 487.081041 467.14284 
L 488.360136 466.544325 
L 489.030138 464.948283 
L 489.091047 467.940861 
L 489.091047 465.147788 
L 489.943777 466.74383 
L 490.491961 467.14284 
L 490.857416 466.145314 
L 491.040144 469.337397 
L 491.527418 466.74383 
L 492.136511 468.339871 
L 493.232878 469.337397 
L 493.537424 468.539377 
L 493.598334 470.135418 
L 494.572882 468.339871 
L 494.75561 470.933439 
L 496.095614 471.332449 
L 496.278342 471.132944 
L 496.582888 468.938387 
L 496.582888 471.332449 
L 497.009253 470.534429 
L 497.070162 469.337397 
L 498.531985 472.13047 
L 498.653803 469.736408 
L 500.359263 472.329975 
L 504.80564 474.923543 
L 505.171095 474.724038 
L 505.232005 473.926017 
L 505.414732 473.926017 
L 506.389281 476.519584 
L 507.242011 474.325027 
L 507.424738 475.721564 
L 509.678382 477.51711 
L 509.8002 476.918595 
L 509.922019 477.51711 
L 509.982928 477.1181 
L 510.896567 476.320079 
L 511.262023 475.721564 
L 511.627478 477.1181 
L 512.29748 477.1181 
L 512.845664 476.918595 
L 515.282035 478.913647 
L 516.256583 478.913647 
L 517.109313 478.315131 
L 517.231131 478.514636 
L 517.779315 478.315131 
L 518.14477 478.514636 
L 518.388408 478.913647 
L 518.388408 481.706719 
L 519.302047 478.913647 
L 519.484775 479.512162 
L 519.484775 479.911173 
L 520.215686 479.312657 
L 520.581141 478.514636 
L 520.763869 480.310183 
L 521.616599 480.709193 
L 521.738418 479.711667 
L 521.982055 480.709193 
L 521.982055 481.307709 
L 523.139331 481.906225 
L 523.626605 481.906225 
L 524.479335 479.911173 
L 525.210246 481.706719 
L 526.002067 480.509688 
L 527.463889 481.906225 
L 528.194801 481.906225 
L 528.438438 482.704245 
L 528.986621 481.108204 
L 529.10844 482.305235 
L 529.291167 482.903751 
L 529.717532 482.704245 
L 530.631171 480.908699 
L 530.631171 482.305235 
L 531.118446 482.305235 
L 531.301173 484.699297 
L 532.519359 482.903751 
L 533.554817 482.305235 
L 535.443004 483.901277 
L 535.869369 483.901277 
L 537.45301 484.300287 
L 538.853923 485.497318 
L 538.975742 483.701771 
L 540.072109 484.699297 
L 541.229385 486.295339 
L 542.691207 485.098308 
L 542.691207 484.898803 
L 543.117572 486.494844 
L 544.640304 485.297813 
L 545.371215 485.297813 
L 546.893947 485.098308 
L 548.416679 485.297813 
L 548.477588 485.696823 
L 548.782135 485.497318 
L 549.573955 485.696823 
L 550.243957 485.297813 
L 552.375782 486.494844 
L 553.533058 486.494844 
L 553.959423 487.292865 
L 554.263969 486.893855 
L 555.543064 487.09336 
L 555.786701 488.290391 
L 556.883068 486.095834 
L 556.943977 487.292865 
L 557.431251 487.292865 
L 557.55307 487.09336 
L 558.953983 487.891381 
L 559.19762 486.893855 
L 559.441257 486.893855 
L 559.684895 487.891381 
L 560.415806 487.49237 
L 560.90308 487.49237 
L 561.816719 487.891381 
L 562.303993 487.691875 
L 562.669449 486.694349 
L 563.034905 489.487422 
L 564.25309 488.290391 
L 565.593094 488.090886 
L 567.542191 488.888906 
L 567.968556 488.489896 
L 568.699467 488.888906 
L 569.064923 487.292865 
L 569.064923 487.292865 
L 569.24765 488.090886 
L 569.369469 487.891381 
L 570.892201 488.489896 
L 570.892201 489.088412 
L 572.293114 488.689401 
L 572.354023 488.290391 
L 572.536751 488.888906 
L 574.120392 489.886432 
L 574.30312 489.686927 
L 574.424939 488.689401 
L 574.546757 489.088412 
L 576.678582 489.088412 
L 577.165856 488.489896 
L 579.724045 489.088412 
L 579.845864 488.888906 
L 579.967682 490.085938 
L 580.576775 490.285443 
L 581.85587 489.487422 
L 582.525872 488.888906 
L 582.586781 490.285443 
L 582.64769 490.085938 
L 583.134965 488.888906 
L 583.439511 489.287917 
L 585.023152 489.886432 
L 585.266789 489.686927 
L 585.510426 489.287917 
L 586.119519 490.484948 
L 586.180428 489.088412 
L 586.241338 489.487422 
L 586.363156 489.088412 
L 586.972249 489.686927 
L 588.616799 489.686927 
L 588.921346 489.287917 
L 589.043164 489.487422 
L 589.164983 490.285443 
L 589.956803 489.287917 
L 590.748624 489.886432 
L 591.114079 489.487422 
L 591.418626 490.285443 
L 591.966809 490.684453 
L 592.941358 490.085938 
L 594.646817 490.085938 
L 594.890454 490.285443 
L 595.804093 490.285443 
L 596.10864 490.484948 
L 598.423192 489.487422 
L 598.60592 490.484948 
L 599.032285 490.285443 
L 599.093194 489.886432 
L 599.945924 489.886432 
L 600.920472 490.285443 
L 601.1032 491.282969 
L 601.590474 490.684453 
L 603.174115 489.686927 
L 603.60048 490.684453 
L 603.722299 490.285443 
L 604.270482 490.684453 
L 605.427758 490.285443 
L 605.854123 491.482474 
L 606.402307 490.285443 
L 607.925039 490.883958 
L 609.874135 491.482474 
L 610.909593 489.487422 
L 611.640504 489.886432 
L 611.823232 490.484948 
L 612.85869 490.285443 
L 613.163236 491.881484 
L 613.65051 489.886432 
L 614.625059 490.684453 
L 615.538698 490.684453 
L 615.599607 490.285443 
L 616.269609 490.285443 
L 616.330518 490.883958 
L 617.244157 491.083464 
L 617.914159 490.684453 
L 617.975069 491.482474 
L 618.096887 491.083464 
L 618.218706 490.285443 
L 618.401434 490.883958 
L 618.70598 490.484948 
L 619.375982 491.083464 
L 619.375982 490.484948 
L 619.55871 491.083464 
L 621.264169 490.285443 
L 621.385988 489.287917 
L 622.604173 491.282969 
L 623.76145 491.282969 
L 624.857817 490.883958 
L 625.040544 490.285443 
L 626.380548 490.684453 
L 626.806913 490.684453 
L 626.928732 492.08099 
L 628.451464 491.681979 
L 629.243284 490.684453 
L 630.644197 490.085938 
L 630.766016 491.083464 
L 631.375109 491.482474 
L 631.496927 491.083464 
L 632.288748 491.083464 
L 632.95875 490.484948 
L 632.95875 490.285443 
L 634.481482 490.285443 
L 636.369669 491.083464 
L 637.039671 490.883958 
L 637.648764 490.285443 
L 639.780588 490.085938 
L 640.328772 490.684453 
L 641.242411 490.883958 
L 643.130598 492.280495 
L 644.166056 491.282969 
L 645.749697 491.282969 
L 646.602427 491.881484 
L 646.967883 490.684453 
L 648.551524 490.285443 
L 648.612433 491.083464 
L 648.795161 490.684453 
L 650.439711 490.484948 
L 650.622439 490.883958 
L 651.840624 491.681979 
L 652.20608 491.083464 
L 654.825179 490.484948 
L 655.495181 491.482474 
L 656.530638 490.684453 
L 657.809733 491.482474 
L 657.931552 490.883958 
L 658.479735 490.684453 
L 658.9061 491.681979 
L 660.124285 490.684453 
L 660.307013 490.684453 
L 661.220652 491.083464 
L 661.281562 490.684453 
L 661.342471 491.282969 
L 661.829745 491.482474 
L 662.438838 491.482474 
L 662.865203 491.282969 
L 663.596114 491.482474 
L 663.96157 491.881484 
L 664.997027 491.083464 
L 665.301574 491.083464 
L 665.849757 490.684453 
L 666.397941 491.482474 
L 667.007033 491.681979 
L 667.433398 491.282969 
L 667.555217 491.482474 
L 667.981582 491.083464 
L 668.286128 491.282969 
L 669.017039 491.282969 
L 670.235225 490.684453 
L 670.296134 489.886432 
L 672.732505 489.088412 
L 673.341598 491.681979 
L 673.646144 491.282969 
L 674.377055 490.684453 
L 674.437965 489.686927 
L 675.168876 490.484948 
L 677.605247 491.881484 
L 678.457977 491.681979 
L 678.457977 490.883958 
L 678.701614 491.482474 
L 679.797981 491.881484 
L 679.980708 491.482474 
L 680.346164 492.280495 
L 680.407073 490.883958 
L 682.417079 492.08099 
L 682.904354 491.681979 
L 683.2089 491.083464 
L 683.696174 490.684453 
L 684.548904 490.684453 
L 685.157997 491.083464 
L 685.70618 491.681979 
L 686.071636 490.684453 
L 686.071636 490.883958 
L 686.193454 491.881484 
L 686.315273 490.684453 
L 686.55891 491.881484 
L 686.924366 491.681979 
L 687.107093 490.883958 
L 687.289821 491.083464 
L 687.898914 490.883958 
L 690.883468 491.083464 
L 693.198021 491.881484 
L 694.842571 491.482474 
L 696.182575 491.482474 
L 696.243484 491.083464 
L 696.426212 491.282969 
L 696.487121 491.681979 
L 696.913486 490.484948 
L 697.035305 492.08099 
L 697.339851 491.083464 
L 697.522579 489.686927 
L 697.827125 490.883958 
L 699.045311 491.083464 
L 700.568043 491.482474 
L 700.689861 490.883958 
L 702.45623 491.881484 
L 703.187141 490.883958 
L 703.248051 490.883958 
L 703.735325 492.48 
L 703.978962 491.482474 
L 705.440784 490.285443 
L 705.988968 491.083464 
L 707.389881 490.684453 
L 707.5117 492.08099 
L 707.998974 490.883958 
L 710.983528 491.681979 
L 711.166256 490.285443 
L 711.531712 491.482474 
L 711.775349 491.482474 
L 712.201714 491.282969 
L 713.115353 492.280495 
L 714.21172 491.083464 
L 714.272629 491.681979 
L 714.577175 491.083464 
L 715.734452 491.681979 
L 716.038998 491.681979 
L 716.099907 491.282969 
L 716.769909 491.482474 
L 717.257183 490.684453 
L 717.683548 491.881484 
L 718.536278 491.282969 
L 718.536278 491.282969 
L 718.962643 491.282969 
L 719.023552 492.08099 
L 719.632645 491.482474 
L 719.937191 491.681979 
L 720.241738 491.282969 
L 721.825379 491.482474 
L 722.739018 491.282969 
L 723.104474 491.681979 
L 723.348111 492.280495 
L 723.40902 490.883958 
L 723.896294 491.282969 
L 724.444478 491.881484 
L 724.931752 492.08099 
L 726.880849 491.282969 
L 728.281762 492.08099 
L 729.073582 491.482474 
L 729.134492 490.883958 
L 729.926312 491.282969 
L 730.291768 490.883958 
L 730.535405 491.681979 
L 730.657223 490.684453 
L 731.266316 491.881484 
L 732.301774 491.881484 
L 733.398141 492.48 
L 733.763596 490.883958 
L 734.738145 491.482474 
L 734.981782 490.484948 
L 735.95633 490.883958 
L 736.017239 491.881484 
L 736.078149 491.681979 
L 736.199967 490.684453 
L 736.382695 491.282969 
L 736.80906 491.681979 
L 737.539971 491.083464 
L 737.905427 492.48 
L 738.758157 491.282969 
L 739.30634 491.681979 
L 739.732705 490.883958 
L 740.280889 490.484948 
L 740.280889 490.484948 
L 740.341798 491.681979 
L 741.681802 490.085938 
L 742.960897 491.282969 
L 743.265443 490.883958 
L 743.813626 492.280495 
L 745.823632 491.482474 
L 747.163636 491.681979 
L 747.163636 491.681979 
" clip-path="url(#p75ccf4e3a8)" style="fill: none; stroke: #1f77b4; stroke-width: 2; stroke-linecap: square"/>
   </g>
   <g id="line2d_30">
    <path d="M 138.436364 488.689401 
L 143.491833 488.689401 
L 144.283654 488.489896 
L 149.400033 488.489896 
L 153.054589 488.290391 
L 156.770055 488.290391 
L 157.257329 488.090886 
L 162.495526 488.090886 
L 162.982801 487.891381 
L 162.982801 487.891381 
L 167.733724 487.891381 
L 168.708272 487.691875 
L 173.032831 487.691875 
L 174.433744 487.49237 
L 178.271028 487.49237 
L 179.611032 487.292865 
L 179.611032 487.292865 
L 182.961042 487.292865 
L 183.265588 487.09336 
L 187.529238 487.09336 
L 189.112879 486.893855 
L 191.366522 486.893855 
L 192.158342 486.694349 
L 195.751989 486.694349 
L 196.361082 486.494844 
L 198.980181 486.494844 
L 201.112005 486.295339 
L 202.939284 486.295339 
L 204.462015 486.095834 
L 206.350203 486.095834 
L 207.44657 485.896329 
L 210.248396 485.896329 
L 213.842043 485.696823 
L 216.095687 485.497318 
L 217.009326 485.497318 
L 217.313872 485.297813 
L 219.445697 485.297813 
L 220.481154 485.098308 
L 223.161162 485.098308 
L 223.587527 484.898803 
L 226.389354 484.898803 
L 226.450263 484.699297 
L 229.130271 484.699297 
L 229.861182 484.499792 
L 231.74937 484.499792 
L 232.236644 484.300287 
L 234.612105 484.300287 
L 234.794833 484.100782 
L 234.794833 484.100782 
L 237.353023 484.100782 
L 237.779388 483.901277 
L 239.363029 483.901277 
L 241.921218 483.701771 
L 269.086754 481.108204 
L 270.487667 480.908699 
L 271.705853 480.908699 
L 272.010399 480.709193 
L 273.350403 480.709193 
L 273.715859 480.509688 
L 274.934044 480.509688 
L 275.604046 480.310183 
L 277.004959 480.310183 
L 277.79678 480.110678 
L 278.284054 480.110678 
L 279.563149 479.911173 
L 280.050423 479.911173 
L 280.415879 479.711667 
L 281.877701 479.711667 
L 282.121338 479.512162 
L 283.217705 479.512162 
L 283.217705 479.512162 
L 283.765889 479.312657 
L 284.253163 479.312657 
L 286.750443 479.113152 
L 286.99408 478.913647 
L 287.542264 478.913647 
L 289.247723 478.714142 
L 290.465909 478.514636 
L 291.257729 478.514636 
L 293.267735 478.115626 
L 296.861382 477.716616 
L 297.04411 477.51711 
L 298.201386 477.51711 
L 298.201386 477.51711 
L 298.566842 477.317605 
L 299.724118 477.317605 
L 299.724118 477.317605 
L 299.845937 477.1181 
L 301.003213 477.1181 
L 301.551396 476.918595 
L 302.343217 476.918595 
L 304.048676 476.519584 
L 306.789594 476.120574 
L 307.581414 476.120574 
L 307.764142 475.921069 
L 308.616872 475.921069 
L 309.165055 475.721564 
L 315.925985 474.724038 
L 316.230531 474.524532 
L 316.900533 474.524532 
L 316.900533 474.524532 
L 317.387807 474.325027 
L 317.9969 474.325027 
L 334.320585 471.132944 
L 334.868769 470.933439 
L 334.868769 470.933439 
L 335.538771 470.933439 
L 336.269682 470.733934 
L 338.462416 470.334923 
L 338.827871 470.135418 
L 340.167875 469.935913 
L 344.553343 468.938387 
L 344.918799 468.738882 
L 345.710619 468.539377 
L 346.319712 468.539377 
L 346.746077 468.339871 
L 347.172442 468.339871 
L 349.730631 467.741356 
L 349.974268 467.541851 
L 352.715185 466.943335 
L 360.328845 464.948283 
L 360.877028 464.748778 
L 362.034304 464.549273 
L 362.39976 464.349767 
L 362.887034 464.349767 
L 363.130671 464.150262 
L 365.506133 463.551747 
L 365.932498 463.352241 
L 368.977961 462.554221 
L 370.013419 462.15521 
L 370.561602 462.15521 
L 372.754336 461.35719 
L 372.815246 461.35719 
L 372.815246 461.35719 
L 374.642524 460.758674 
L 374.94707 460.758674 
L 376.347983 460.359664 
L 377.809806 459.761148 
L 378.175262 459.761148 
L 379.697993 459.162632 
L 379.697993 459.162632 
L 380.79436 458.963127 
L 380.916179 458.763622 
L 382.317092 458.364612 
L 385.058009 457.367086 
L 385.545284 457.367086 
L 386.337104 456.968075 
L 387.189834 456.76857 
L 387.616199 456.569065 
L 387.738017 456.569065 
L 390.661662 455.571539 
L 390.9053 455.372034 
L 391.331664 455.172528 
L 393.40258 454.574013 
L 393.40258 454.574013 
L 393.524398 454.374508 
L 393.524398 454.374508 
L 393.828945 454.374508 
L 395.04713 453.975497 
L 395.229858 453.775992 
L 395.534404 453.775992 
L 395.717132 453.576487 
L 397.178955 452.977971 
L 397.60532 452.977971 
L 397.60532 452.977971 
L 398.336231 452.578961 
L 398.579868 452.578961 
L 400.1026 451.980445 
L 401.259876 451.581435 
L 403.45261 450.583909 
L 404.366249 450.184899 
L 404.731704 450.184899 
L 406.74171 449.187373 
L 407.107166 449.187373 
L 409.726265 447.990341 
L 410.335358 447.790836 
L 418.923565 444.000238 
L 419.106293 443.800732 
L 421.420845 442.803206 
L 422.395394 442.204691 
L 423.55267 441.80568 
L 423.55267 441.80568 
L 423.613579 441.606175 
L 424.527218 441.207165 
L 425.258129 440.808154 
L 425.867222 440.608649 
L 429.156323 439.012608 
L 429.887234 438.613597 
L 430.800873 438.214587 
L 430.922692 438.015082 
L 442.556363 431.830421 
L 443.348183 431.231905 
L 443.957276 431.0324 
L 443.957276 431.0324 
L 445.419099 430.034874 
L 446.454556 429.436358 
L 447.733651 428.837843 
L 448.220925 428.438832 
L 456.20004 423.650708 
L 456.321859 423.451202 
L 456.626405 423.251697 
L 457.174588 423.052192 
L 457.296407 422.852687 
L 457.722772 422.653182 
L 458.636411 422.054666 
L 460.524598 420.857635 
L 463.996427 418.463572 
L 467.529165 416.06951 
L 467.590074 416.06951 
L 468.381895 415.470995 
L 470.696447 413.874953 
L 473.863729 411.480891 
L 474.351003 411.281385 
L 475.50828 410.283859 
L 475.630098 410.283859 
L 477.640104 408.887323 
L 489.091047 399.909589 
L 489.091047 399.909589 
L 490.491961 398.712558 
L 491.040144 398.313548 
L 493.232878 396.518001 
L 493.598334 396.118991 
L 498.10562 392.328392 
L 500.359263 390.33334 
L 505.171095 386.143731 
L 505.171095 386.143731 
L 505.232005 386.143731 
L 506.389281 384.9467 
L 509.982928 381.754617 
L 510.896567 380.757091 
L 511.44475 380.35808 
L 512.845664 378.961544 
L 513.820212 378.163523 
L 517.231131 374.771935 
L 517.779315 374.173419 
L 518.14477 373.973914 
L 518.388408 373.574904 
L 518.388408 373.574904 
L 519.484775 372.577378 
L 519.484775 372.577378 
L 520.215686 371.779357 
L 520.763869 371.380346 
L 521.738418 370.38282 
L 521.982055 370.183315 
L 521.982055 370.183315 
L 535.443004 356.217952 
L 535.869369 355.619436 
L 537.696647 353.624384 
L 541.229385 349.833785 
L 545.371215 345.245166 
L 550.243957 339.65902 
L 556.883068 331.878318 
L 556.943977 331.678812 
L 559.441257 328.686235 
L 559.563076 328.686235 
L 559.684895 328.486729 
L 560.90308 327.090193 
L 562.669449 324.895636 
L 563.034905 324.496625 
L 565.593094 321.304542 
L 572.536751 312.725819 
L 574.30312 310.331757 
L 574.424939 310.331757 
L 574.546757 310.132251 
L 577.165856 306.740663 
L 581.85587 300.755507 
L 583.439511 298.56095 
L 586.972249 293.972331 
L 605.427758 269.233686 
L 606.402307 267.83715 
L 607.925039 265.842098 
L 611.640504 260.654963 
L 611.823232 260.455458 
L 614.50324 256.664859 
L 614.625059 256.465354 
L 617.914159 252.076239 
L 618.096887 251.677229 
L 618.157796 251.677229 
L 618.157796 251.677229 
L 618.218706 251.477724 
L 618.70598 250.879208 
L 625.040544 242.10098 
L 626.928732 239.507412 
L 630.766016 234.120772 
L 631.496927 233.123246 
L 632.95875 230.928689 
L 632.95875 230.928689 
L 636.369669 226.340069 
L 637.648764 224.544523 
L 648.795161 208.983117 
L 651.840624 204.793508 
L 652.20608 204.194993 
L 670.235225 179.655854 
L 670.296134 179.655854 
L 673.646144 175.067234 
L 674.437965 174.069708 
L 678.457977 168.683068 
L 678.457977 168.683068 
L 678.701614 168.483563 
L 682.417079 163.695438 
L 683.2089 162.498407 
L 686.55891 158.308798 
L 687.289821 157.311272 
L 693.198021 149.730074 
L 703.187141 137.560257 
L 703.248051 137.360752 
L 707.389881 132.373122 
L 707.5117 132.373122 
L 712.201714 126.786977 
L 713.115353 125.789451 
L 713.480808 125.190935 
L 716.099907 122.198357 
L 716.769909 121.400336 
L 717.257183 121.001326 
L 717.683548 120.40281 
L 718.962643 119.006274 
L 719.023552 119.006274 
L 719.937191 117.809243 
L 720.241738 117.609738 
L 728.281762 108.632004 
L 729.926312 106.836457 
L 730.535405 106.237942 
L 730.657223 106.237942 
L 731.266316 105.439921 
L 733.398141 103.245364 
L 734.981782 101.649322 
L 736.199967 100.252786 
L 737.905427 98.457239 
L 740.219979 96.262682 
L 740.341798 96.063177 
L 743.265443 93.070599 
L 743.813626 92.671588 
L 747.163636 89.28 
L 747.163636 89.28 
" clip-path="url(#p75ccf4e3a8)" style="fill: none; stroke: #ff7f0e; stroke-width: 2; stroke-linecap: square"/>
   </g>
   <g id="patch_3">
    <path d="M 108 512.64 
L 108 69.12 
" style="fill: none; stroke: #000000; stroke-width: 0.8; stroke-linejoin: miter; stroke-linecap: square"/>
   </g>
   <g id="patch_4">
    <path d="M 777.6 512.64 
L 777.6 69.12 
" style="fill: none; stroke: #000000; stroke-width: 0.8; stroke-linejoin: miter; stroke-linecap: square"/>
   </g>
   <g id="patch_5">
    <path d="M 108 512.64 
L 777.6 512.64 
" style="fill: none; stroke: #000000; stroke-width: 0.8; stroke-linejoin: miter; stroke-linecap: square"/>
   </g>
   <g id="patch_6">
    <path d="M 108 69.12 
L 777.6 69.12 
" style="fill: none; stroke: #000000; stroke-width: 0.8; stroke-linejoin: miter; stroke-linecap: square"/>
   </g>
   <g id="text_17">
    <!-- Price by spot/strike ratio -->
    <g transform="translate(320.98125 63.12) scale(0.2 -0.2)">
     <defs>
      <path id="DejaVuSans-62" d="M 3116 1747 
Q 3116 2381 2855 2742 
Q 2594 3103 2138 3103 
Q 1681 3103 1420 2742 
Q 1159 2381 1159 1747 
Q 1159 1113 1420 752 
Q 1681 391 2138 391 
Q 2594 391 2855 752 
Q 3116 1113 3116 1747 
z
M 1159 2969 
Q 1341 3281 1617 3432 
Q 1894 3584 2278 3584 
Q 2916 3584 3314 3078 
Q 3713 2572 3713 1747 
Q 3713 922 3314 415 
Q 2916 -91 2278 -91 
Q 1894 -91 1617 61 
Q 1341 213 1159 525 
L 1159 0 
L 581 0 
L 581 4863 
L 1159 4863 
L 1159 2969 
z
" transform="scale(0.015625)"/>
      <path id="DejaVuSans-79" d="M 2059 -325 
Q 1816 -950 1584 -1140 
Q 1353 -1331 966 -1331 
L 506 -1331 
L 506 -850 
L 844 -850 
Q 1081 -850 1212 -737 
Q 1344 -625 1503 -206 
L 1606 56 
L 191 3500 
L 800 3500 
L 1894 763 
L 2988 3500 
L 3597 3500 
L 2059 -325 
z
" transform="scale(0.015625)"/>
     </defs>
     <use xlink:href="#DejaVuSans-50"/>
     <use xlink:href="#DejaVuSans-72" x="58.552734"/>
     <use xlink:href="#DejaVuSans-69" x="99.666016"/>
     <use xlink:href="#DejaVuSans-63" x="127.449219"/>
     <use xlink:href="#DejaVuSans-65" x="182.429688"/>
     <use xlink:href="#DejaVuSans-20" x="243.953125"/>
     <use xlink:href="#DejaVuSans-62" x="275.740234"/>
     <use xlink:href="#DejaVuSans-79" x="339.216797"/>
     <use xlink:href="#DejaVuSans-20" x="398.396484"/>
     <use xlink:href="#DejaVuSans-73" x="430.183594"/>
     <use xlink:href="#DejaVuSans-70" x="482.283203"/>
     <use xlink:href="#DejaVuSans-6f" x="545.759766"/>
     <use xlink:href="#DejaVuSans-74" x="606.941406"/>
     <use xlink:href="#DejaVuSans-2f" x="646.150391"/>
     <use xlink:href="#DejaVuSans-73" x="679.841797"/>
     <use xlink:href="#DejaVuSans-74" x="731.941406"/>
     <use xlink:href="#DejaVuSans-72" x="771.150391"/>
     <use xlink:href="#DejaVuSans-69" x="812.263672"/>
     <use xlink:href="#DejaVuSans-6b" x="840.046875"/>
     <use xlink:href="#DejaVuSans-65" x="894.332031"/>
     <use xlink:href="#DejaVuSans-20" x="955.855469"/>
     <use xlink:href="#DejaVuSans-72" x="987.642578"/>
     <use xlink:href="#DejaVuSans-61" x="1028.755859"/>
     <use xlink:href="#DejaVuSans-74" x="1090.035156"/>
     <use xlink:href="#DejaVuSans-69" x="1129.244141"/>
     <use xlink:href="#DejaVuSans-6f" x="1157.027344"/>
    </g>
   </g>
   <g id="legend_1">
    <g id="patch_7">
     <path d="M 120.6 136.36125 
L 282.839062 136.36125 
Q 286.439062 136.36125 286.439062 132.76125 
L 286.439062 81.72 
Q 286.439062 78.12 282.839062 78.12 
L 120.6 78.12 
Q 117 78.12 117 81.72 
L 117 132.76125 
Q 117 136.36125 120.6 136.36125 
z
" style="fill: #ffffff; opacity: 0.8; stroke: #cccccc; stroke-linejoin: miter"/>
    </g>
    <g id="line2d_31">
     <path d="M 124.2 92.697188 
L 142.2 92.697188 
L 160.2 92.697188 
" style="fill: none; stroke: #1f77b4; stroke-width: 2; stroke-linecap: square"/>
    </g>
    <g id="text_18">
     <!-- MC -->
     <g transform="translate(174.6 98.997188) scale(0.18 -0.18)">
      <defs>
       <path id="DejaVuSans-4d" d="M 628 4666 
L 1569 4666 
L 2759 1491 
L 3956 4666 
L 4897 4666 
L 4897 0 
L 4281 0 
L 4281 4097 
L 3078 897 
L 2444 897 
L 1241 4097 
L 1241 0 
L 628 0 
L 628 4666 
z
" transform="scale(0.015625)"/>
       <path id="DejaVuSans-43" d="M 4122 4306 
L 4122 3641 
Q 3803 3938 3442 4084 
Q 3081 4231 2675 4231 
Q 1875 4231 1450 3742 
Q 1025 3253 1025 2328 
Q 1025 1406 1450 917 
Q 1875 428 2675 428 
Q 3081 428 3442 575 
Q 3803 722 4122 1019 
L 4122 359 
Q 3791 134 3420 21 
Q 3050 -91 2638 -91 
Q 1578 -91 968 557 
Q 359 1206 359 2328 
Q 359 3453 968 4101 
Q 1578 4750 2638 4750 
Q 3056 4750 3426 4639 
Q 3797 4528 4122 4306 
z
" transform="scale(0.015625)"/>
      </defs>
      <use xlink:href="#DejaVuSans-4d"/>
      <use xlink:href="#DejaVuSans-43" x="86.279297"/>
     </g>
    </g>
    <g id="line2d_32">
     <path d="M 124.2 119.117813 
L 142.2 119.117813 
L 160.2 119.117813 
" style="fill: none; stroke: #ff7f0e; stroke-width: 2; stroke-linecap: square"/>
    </g>
    <g id="text_19">
     <!-- Positive net -->
     <g transform="translate(174.6 125.417813) scale(0.18 -0.18)">
      <defs>
       <path id="DejaVuSans-76" d="M 191 3500 
L 800 3500 
L 1894 563 
L 2988 3500 
L 3597 3500 
L 2284 0 
L 1503 0 
L 191 3500 
z
" transform="scale(0.015625)"/>
       <path id="DejaVuSans-6e" d="M 3513 2113 
L 3513 0 
L 2938 0 
L 2938 2094 
Q 2938 2591 2744 2837 
Q 2550 3084 2163 3084 
Q 1697 3084 1428 2787 
Q 1159 2491 1159 1978 
L 1159 0 
L 581 0 
L 581 3500 
L 1159 3500 
L 1159 2956 
Q 1366 3272 1645 3428 
Q 1925 3584 2291 3584 
Q 2894 3584 3203 3211 
Q 3513 2838 3513 2113 
z
" transform="scale(0.015625)"/>
      </defs>
      <use xlink:href="#DejaVuSans-50"/>
      <use xlink:href="#DejaVuSans-6f" x="56.677734"/>
      <use xlink:href="#DejaVuSans-73" x="117.859375"/>
      <use xlink:href="#DejaVuSans-69" x="169.958984"/>
      <use xlink:href="#DejaVuSans-74" x="197.742188"/>
      <use xlink:href="#DejaVuSans-69" x="236.951172"/>
      <use xlink:href="#DejaVuSans-76" x="264.734375"/>
      <use xlink:href="#DejaVuSans-65" x="323.914062"/>
      <use xlink:href="#DejaVuSans-20" x="385.4375"/>
      <use xlink:href="#DejaVuSans-6e" x="417.224609"/>
      <use xlink:href="#DejaVuSans-65" x="480.603516"/>
      <use xlink:href="#DejaVuSans-74" x="542.126953"/>
     </g>
    </g>
   </g>
  </g>
 </g>
 <defs>
  <clipPath id="p75ccf4e3a8">
   <rect x="108" y="69.12" width="669.6" height="443.52"/>
  </clipPath>
 </defs>
</svg>
