<?xml version="1.0" encoding="utf-8" standalone="no"?>
<!DOCTYPE svg PUBLIC "-//W3C//DTD SVG 1.1//EN"
  "http://www.w3.org/Graphics/SVG/1.1/DTD/svg11.dtd">
<svg xmlns:xlink="http://www.w3.org/1999/xlink" width="864pt" height="576pt" viewBox="0 0 864 576" xmlns="http://www.w3.org/2000/svg" version="1.1">
 <metadata>
  <rdf:RDF xmlns:dc="http://purl.org/dc/elements/1.1/" xmlns:cc="http://creativecommons.org/ns#" xmlns:rdf="http://www.w3.org/1999/02/22-rdf-syntax-ns#">
   <cc:Work>
    <dc:type rdf:resource="http://purl.org/dc/dcmitype/StillImage"/>
    <dc:date>2024-02-24T19:31:09.529880</dc:date>
    <dc:format>image/svg+xml</dc:format>
    <dc:creator>
     <cc:Agent>
      <dc:title>Matplotlib v3.7.3, https://matplotlib.org/</dc:title>
     </cc:Agent>
    </dc:creator>
   </cc:Work>
  </rdf:RDF>
 </metadata>
 <defs>
  <style type="text/css">*{stroke-linejoin: round; stroke-linecap: butt}</style>
 </defs>
 <g id="figure_1">
  <g id="patch_1">
   <path d="M 0 576 
L 864 576 
L 864 0 
L 0 0 
z
" style="fill: #ffffff"/>
  </g>
  <g id="axes_1">
   <g id="patch_2">
    <path d="M 108 512.64 
L 777.6 512.64 
L 777.6 69.12 
L 108 69.12 
z
" style="fill: #ffffff"/>
   </g>
   <g id="matplotlib.axis_1">
    <g id="xtick_1">
     <g id="line2d_1">
      <path d="M 199.223818 512.64 
L 199.223818 69.12 
" clip-path="url(#p5c40ec2aa6)" style="fill: none; stroke: #b0b0b0; stroke-width: 0.8; stroke-linecap: square"/>
     </g>
     <g id="line2d_2">
      <defs>
       <path id="m333a588aef" d="M 0 0 
L 0 3.5 
" style="stroke: #000000; stroke-width: 0.8"/>
      </defs>
      <g>
       <use xlink:href="#m333a588aef" x="199.223818" y="512.64" style="stroke: #000000; stroke-width: 0.8"/>
      </g>
     </g>
     <g id="text_1">
      <!-- 0.1 -->
      <g transform="translate(191.272255 527.238438) scale(0.1 -0.1)">
       <defs>
        <path id="DejaVuSans-30" d="M 2034 4250 
Q 1547 4250 1301 3770 
Q 1056 3291 1056 2328 
Q 1056 1369 1301 889 
Q 1547 409 2034 409 
Q 2525 409 2770 889 
Q 3016 1369 3016 2328 
Q 3016 3291 2770 3770 
Q 2525 4250 2034 4250 
z
M 2034 4750 
Q 2819 4750 3233 4129 
Q 3647 3509 3647 2328 
Q 3647 1150 3233 529 
Q 2819 -91 2034 -91 
Q 1250 -91 836 529 
Q 422 1150 422 2328 
Q 422 3509 836 4129 
Q 1250 4750 2034 4750 
z
" transform="scale(0.015625)"/>
        <path id="DejaVuSans-2e" d="M 684 794 
L 1344 794 
L 1344 0 
L 684 0 
L 684 794 
z
" transform="scale(0.015625)"/>
        <path id="DejaVuSans-31" d="M 794 531 
L 1825 531 
L 1825 4091 
L 703 3866 
L 703 4441 
L 1819 4666 
L 2450 4666 
L 2450 531 
L 3481 531 
L 3481 0 
L 794 0 
L 794 531 
z
" transform="scale(0.015625)"/>
       </defs>
       <use xlink:href="#DejaVuSans-30"/>
       <use xlink:href="#DejaVuSans-2e" x="63.623047"/>
       <use xlink:href="#DejaVuSans-31" x="95.410156"/>
      </g>
     </g>
    </g>
    <g id="xtick_2">
     <g id="line2d_3">
      <path d="M 321.042364 512.64 
L 321.042364 69.12 
" clip-path="url(#p5c40ec2aa6)" style="fill: none; stroke: #b0b0b0; stroke-width: 0.8; stroke-linecap: square"/>
     </g>
     <g id="line2d_4">
      <g>
       <use xlink:href="#m333a588aef" x="321.042364" y="512.64" style="stroke: #000000; stroke-width: 0.8"/>
      </g>
     </g>
     <g id="text_2">
      <!-- 0.2 -->
      <g transform="translate(313.090801 527.238438) scale(0.1 -0.1)">
       <defs>
        <path id="DejaVuSans-32" d="M 1228 531 
L 3431 531 
L 3431 0 
L 469 0 
L 469 531 
Q 828 903 1448 1529 
Q 2069 2156 2228 2338 
Q 2531 2678 2651 2914 
Q 2772 3150 2772 3378 
Q 2772 3750 2511 3984 
Q 2250 4219 1831 4219 
Q 1534 4219 1204 4116 
Q 875 4013 500 3803 
L 500 4441 
Q 881 4594 1212 4672 
Q 1544 4750 1819 4750 
Q 2544 4750 2975 4387 
Q 3406 4025 3406 3419 
Q 3406 3131 3298 2873 
Q 3191 2616 2906 2266 
Q 2828 2175 2409 1742 
Q 1991 1309 1228 531 
z
" transform="scale(0.015625)"/>
       </defs>
       <use xlink:href="#DejaVuSans-30"/>
       <use xlink:href="#DejaVuSans-2e" x="63.623047"/>
       <use xlink:href="#DejaVuSans-32" x="95.410156"/>
      </g>
     </g>
    </g>
    <g id="xtick_3">
     <g id="line2d_5">
      <path d="M 442.860909 512.64 
L 442.860909 69.12 
" clip-path="url(#p5c40ec2aa6)" style="fill: none; stroke: #b0b0b0; stroke-width: 0.8; stroke-linecap: square"/>
     </g>
     <g id="line2d_6">
      <g>
       <use xlink:href="#m333a588aef" x="442.860909" y="512.64" style="stroke: #000000; stroke-width: 0.8"/>
      </g>
     </g>
     <g id="text_3">
      <!-- 0.3 -->
      <g transform="translate(434.909347 527.238438) scale(0.1 -0.1)">
       <defs>
        <path id="DejaVuSans-33" d="M 2597 2516 
Q 3050 2419 3304 2112 
Q 3559 1806 3559 1356 
Q 3559 666 3084 287 
Q 2609 -91 1734 -91 
Q 1441 -91 1130 -33 
Q 819 25 488 141 
L 488 750 
Q 750 597 1062 519 
Q 1375 441 1716 441 
Q 2309 441 2620 675 
Q 2931 909 2931 1356 
Q 2931 1769 2642 2001 
Q 2353 2234 1838 2234 
L 1294 2234 
L 1294 2753 
L 1863 2753 
Q 2328 2753 2575 2939 
Q 2822 3125 2822 3475 
Q 2822 3834 2567 4026 
Q 2313 4219 1838 4219 
Q 1578 4219 1281 4162 
Q 984 4106 628 3988 
L 628 4550 
Q 988 4650 1302 4700 
Q 1616 4750 1894 4750 
Q 2613 4750 3031 4423 
Q 3450 4097 3450 3541 
Q 3450 3153 3228 2886 
Q 3006 2619 2597 2516 
z
" transform="scale(0.015625)"/>
       </defs>
       <use xlink:href="#DejaVuSans-30"/>
       <use xlink:href="#DejaVuSans-2e" x="63.623047"/>
       <use xlink:href="#DejaVuSans-33" x="95.410156"/>
      </g>
     </g>
    </g>
    <g id="xtick_4">
     <g id="line2d_7">
      <path d="M 564.679455 512.64 
L 564.679455 69.12 
" clip-path="url(#p5c40ec2aa6)" style="fill: none; stroke: #b0b0b0; stroke-width: 0.8; stroke-linecap: square"/>
     </g>
     <g id="line2d_8">
      <g>
       <use xlink:href="#m333a588aef" x="564.679455" y="512.64" style="stroke: #000000; stroke-width: 0.8"/>
      </g>
     </g>
     <g id="text_4">
      <!-- 0.4 -->
      <g transform="translate(556.727892 527.238438) scale(0.1 -0.1)">
       <defs>
        <path id="DejaVuSans-34" d="M 2419 4116 
L 825 1625 
L 2419 1625 
L 2419 4116 
z
M 2253 4666 
L 3047 4666 
L 3047 1625 
L 3713 1625 
L 3713 1100 
L 3047 1100 
L 3047 0 
L 2419 0 
L 2419 1100 
L 313 1100 
L 313 1709 
L 2253 4666 
z
" transform="scale(0.015625)"/>
       </defs>
       <use xlink:href="#DejaVuSans-30"/>
       <use xlink:href="#DejaVuSans-2e" x="63.623047"/>
       <use xlink:href="#DejaVuSans-34" x="95.410156"/>
      </g>
     </g>
    </g>
    <g id="xtick_5">
     <g id="line2d_9">
      <path d="M 686.498001 512.64 
L 686.498001 69.12 
" clip-path="url(#p5c40ec2aa6)" style="fill: none; stroke: #b0b0b0; stroke-width: 0.8; stroke-linecap: square"/>
     </g>
     <g id="line2d_10">
      <g>
       <use xlink:href="#m333a588aef" x="686.498001" y="512.64" style="stroke: #000000; stroke-width: 0.8"/>
      </g>
     </g>
     <g id="text_5">
      <!-- 0.5 -->
      <g transform="translate(678.546438 527.238438) scale(0.1 -0.1)">
       <defs>
        <path id="DejaVuSans-35" d="M 691 4666 
L 3169 4666 
L 3169 4134 
L 1269 4134 
L 1269 2991 
Q 1406 3038 1543 3061 
Q 1681 3084 1819 3084 
Q 2600 3084 3056 2656 
Q 3513 2228 3513 1497 
Q 3513 744 3044 326 
Q 2575 -91 1722 -91 
Q 1428 -91 1123 -41 
Q 819 9 494 109 
L 494 744 
Q 775 591 1075 516 
Q 1375 441 1709 441 
Q 2250 441 2565 725 
Q 2881 1009 2881 1497 
Q 2881 1984 2565 2268 
Q 2250 2553 1709 2553 
Q 1456 2553 1204 2497 
Q 953 2441 691 2322 
L 691 4666 
z
" transform="scale(0.015625)"/>
       </defs>
       <use xlink:href="#DejaVuSans-30"/>
       <use xlink:href="#DejaVuSans-2e" x="63.623047"/>
       <use xlink:href="#DejaVuSans-35" x="95.410156"/>
      </g>
     </g>
    </g>
    <g id="text_6">
     <!-- Volatility -->
     <g transform="translate(403.934062 546.995312) scale(0.18 -0.18)">
      <defs>
       <path id="DejaVuSans-56" d="M 1831 0 
L 50 4666 
L 709 4666 
L 2188 738 
L 3669 4666 
L 4325 4666 
L 2547 0 
L 1831 0 
z
" transform="scale(0.015625)"/>
       <path id="DejaVuSans-6f" d="M 1959 3097 
Q 1497 3097 1228 2736 
Q 959 2375 959 1747 
Q 959 1119 1226 758 
Q 1494 397 1959 397 
Q 2419 397 2687 759 
Q 2956 1122 2956 1747 
Q 2956 2369 2687 2733 
Q 2419 3097 1959 3097 
z
M 1959 3584 
Q 2709 3584 3137 3096 
Q 3566 2609 3566 1747 
Q 3566 888 3137 398 
Q 2709 -91 1959 -91 
Q 1206 -91 779 398 
Q 353 888 353 1747 
Q 353 2609 779 3096 
Q 1206 3584 1959 3584 
z
" transform="scale(0.015625)"/>
       <path id="DejaVuSans-6c" d="M 603 4863 
L 1178 4863 
L 1178 0 
L 603 0 
L 603 4863 
z
" transform="scale(0.015625)"/>
       <path id="DejaVuSans-61" d="M 2194 1759 
Q 1497 1759 1228 1600 
Q 959 1441 959 1056 
Q 959 750 1161 570 
Q 1363 391 1709 391 
Q 2188 391 2477 730 
Q 2766 1069 2766 1631 
L 2766 1759 
L 2194 1759 
z
M 3341 1997 
L 3341 0 
L 2766 0 
L 2766 531 
Q 2569 213 2275 61 
Q 1981 -91 1556 -91 
Q 1019 -91 701 211 
Q 384 513 384 1019 
Q 384 1609 779 1909 
Q 1175 2209 1959 2209 
L 2766 2209 
L 2766 2266 
Q 2766 2663 2505 2880 
Q 2244 3097 1772 3097 
Q 1472 3097 1187 3025 
Q 903 2953 641 2809 
L 641 3341 
Q 956 3463 1253 3523 
Q 1550 3584 1831 3584 
Q 2591 3584 2966 3190 
Q 3341 2797 3341 1997 
z
" transform="scale(0.015625)"/>
       <path id="DejaVuSans-74" d="M 1172 4494 
L 1172 3500 
L 2356 3500 
L 2356 3053 
L 1172 3053 
L 1172 1153 
Q 1172 725 1289 603 
Q 1406 481 1766 481 
L 2356 481 
L 2356 0 
L 1766 0 
Q 1100 0 847 248 
Q 594 497 594 1153 
L 594 3053 
L 172 3053 
L 172 3500 
L 594 3500 
L 594 4494 
L 1172 4494 
z
" transform="scale(0.015625)"/>
       <path id="DejaVuSans-69" d="M 603 3500 
L 1178 3500 
L 1178 0 
L 603 0 
L 603 3500 
z
M 603 4863 
L 1178 4863 
L 1178 4134 
L 603 4134 
L 603 4863 
z
" transform="scale(0.015625)"/>
       <path id="DejaVuSans-79" d="M 2059 -325 
Q 1816 -950 1584 -1140 
Q 1353 -1331 966 -1331 
L 506 -1331 
L 506 -850 
L 844 -850 
Q 1081 -850 1212 -737 
Q 1344 -625 1503 -206 
L 1606 56 
L 191 3500 
L 800 3500 
L 1894 763 
L 2988 3500 
L 3597 3500 
L 2059 -325 
z
" transform="scale(0.015625)"/>
      </defs>
      <use xlink:href="#DejaVuSans-56"/>
      <use xlink:href="#DejaVuSans-6f" x="60.658203"/>
      <use xlink:href="#DejaVuSans-6c" x="121.839844"/>
      <use xlink:href="#DejaVuSans-61" x="149.623047"/>
      <use xlink:href="#DejaVuSans-74" x="210.902344"/>
      <use xlink:href="#DejaVuSans-69" x="250.111328"/>
      <use xlink:href="#DejaVuSans-6c" x="277.894531"/>
      <use xlink:href="#DejaVuSans-69" x="305.677734"/>
      <use xlink:href="#DejaVuSans-74" x="333.460938"/>
      <use xlink:href="#DejaVuSans-79" x="372.669922"/>
     </g>
    </g>
   </g>
   <g id="matplotlib.axis_2">
    <g id="ytick_1">
     <g id="line2d_11">
      <path d="M 108 492.082367 
L 777.6 492.082367 
" clip-path="url(#p5c40ec2aa6)" style="fill: none; stroke: #b0b0b0; stroke-width: 0.8; stroke-linecap: square"/>
     </g>
     <g id="line2d_12">
      <defs>
       <path id="m739bb28870" d="M 0 0 
L -3.5 0 
" style="stroke: #000000; stroke-width: 0.8"/>
      </defs>
      <g>
       <use xlink:href="#m739bb28870" x="108" y="492.082367" style="stroke: #000000; stroke-width: 0.8"/>
      </g>
     </g>
     <g id="text_7">
      <!-- 0.000 -->
      <g transform="translate(72.371875 495.881586) scale(0.1 -0.1)">
       <use xlink:href="#DejaVuSans-30"/>
       <use xlink:href="#DejaVuSans-2e" x="63.623047"/>
       <use xlink:href="#DejaVuSans-30" x="95.410156"/>
       <use xlink:href="#DejaVuSans-30" x="159.033203"/>
       <use xlink:href="#DejaVuSans-30" x="222.65625"/>
      </g>
     </g>
    </g>
    <g id="ytick_2">
     <g id="line2d_13">
      <path d="M 108 442.378225 
L 777.6 442.378225 
" clip-path="url(#p5c40ec2aa6)" style="fill: none; stroke: #b0b0b0; stroke-width: 0.8; stroke-linecap: square"/>
     </g>
     <g id="line2d_14">
      <g>
       <use xlink:href="#m739bb28870" x="108" y="442.378225" style="stroke: #000000; stroke-width: 0.8"/>
      </g>
     </g>
     <g id="text_8">
      <!-- 0.025 -->
      <g transform="translate(72.371875 446.177444) scale(0.1 -0.1)">
       <use xlink:href="#DejaVuSans-30"/>
       <use xlink:href="#DejaVuSans-2e" x="63.623047"/>
       <use xlink:href="#DejaVuSans-30" x="95.410156"/>
       <use xlink:href="#DejaVuSans-32" x="159.033203"/>
       <use xlink:href="#DejaVuSans-35" x="222.65625"/>
      </g>
     </g>
    </g>
    <g id="ytick_3">
     <g id="line2d_15">
      <path d="M 108 392.674083 
L 777.6 392.674083 
" clip-path="url(#p5c40ec2aa6)" style="fill: none; stroke: #b0b0b0; stroke-width: 0.8; stroke-linecap: square"/>
     </g>
     <g id="line2d_16">
      <g>
       <use xlink:href="#m739bb28870" x="108" y="392.674083" style="stroke: #000000; stroke-width: 0.8"/>
      </g>
     </g>
     <g id="text_9">
      <!-- 0.050 -->
      <g transform="translate(72.371875 396.473302) scale(0.1 -0.1)">
       <use xlink:href="#DejaVuSans-30"/>
       <use xlink:href="#DejaVuSans-2e" x="63.623047"/>
       <use xlink:href="#DejaVuSans-30" x="95.410156"/>
       <use xlink:href="#DejaVuSans-35" x="159.033203"/>
       <use xlink:href="#DejaVuSans-30" x="222.65625"/>
      </g>
     </g>
    </g>
    <g id="ytick_4">
     <g id="line2d_17">
      <path d="M 108 342.969941 
L 777.6 342.969941 
" clip-path="url(#p5c40ec2aa6)" style="fill: none; stroke: #b0b0b0; stroke-width: 0.8; stroke-linecap: square"/>
     </g>
     <g id="line2d_18">
      <g>
       <use xlink:href="#m739bb28870" x="108" y="342.969941" style="stroke: #000000; stroke-width: 0.8"/>
      </g>
     </g>
     <g id="text_10">
      <!-- 0.075 -->
      <g transform="translate(72.371875 346.76916) scale(0.1 -0.1)">
       <defs>
        <path id="DejaVuSans-37" d="M 525 4666 
L 3525 4666 
L 3525 4397 
L 1831 0 
L 1172 0 
L 2766 4134 
L 525 4134 
L 525 4666 
z
" transform="scale(0.015625)"/>
       </defs>
       <use xlink:href="#DejaVuSans-30"/>
       <use xlink:href="#DejaVuSans-2e" x="63.623047"/>
       <use xlink:href="#DejaVuSans-30" x="95.410156"/>
       <use xlink:href="#DejaVuSans-37" x="159.033203"/>
       <use xlink:href="#DejaVuSans-35" x="222.65625"/>
      </g>
     </g>
    </g>
    <g id="ytick_5">
     <g id="line2d_19">
      <path d="M 108 293.265799 
L 777.6 293.265799 
" clip-path="url(#p5c40ec2aa6)" style="fill: none; stroke: #b0b0b0; stroke-width: 0.8; stroke-linecap: square"/>
     </g>
     <g id="line2d_20">
      <g>
       <use xlink:href="#m739bb28870" x="108" y="293.265799" style="stroke: #000000; stroke-width: 0.8"/>
      </g>
     </g>
     <g id="text_11">
      <!-- 0.100 -->
      <g transform="translate(72.371875 297.065018) scale(0.1 -0.1)">
       <use xlink:href="#DejaVuSans-30"/>
       <use xlink:href="#DejaVuSans-2e" x="63.623047"/>
       <use xlink:href="#DejaVuSans-31" x="95.410156"/>
       <use xlink:href="#DejaVuSans-30" x="159.033203"/>
       <use xlink:href="#DejaVuSans-30" x="222.65625"/>
      </g>
     </g>
    </g>
    <g id="ytick_6">
     <g id="line2d_21">
      <path d="M 108 243.561657 
L 777.6 243.561657 
" clip-path="url(#p5c40ec2aa6)" style="fill: none; stroke: #b0b0b0; stroke-width: 0.8; stroke-linecap: square"/>
     </g>
     <g id="line2d_22">
      <g>
       <use xlink:href="#m739bb28870" x="108" y="243.561657" style="stroke: #000000; stroke-width: 0.8"/>
      </g>
     </g>
     <g id="text_12">
      <!-- 0.125 -->
      <g transform="translate(72.371875 247.360876) scale(0.1 -0.1)">
       <use xlink:href="#DejaVuSans-30"/>
       <use xlink:href="#DejaVuSans-2e" x="63.623047"/>
       <use xlink:href="#DejaVuSans-31" x="95.410156"/>
       <use xlink:href="#DejaVuSans-32" x="159.033203"/>
       <use xlink:href="#DejaVuSans-35" x="222.65625"/>
      </g>
     </g>
    </g>
    <g id="ytick_7">
     <g id="line2d_23">
      <path d="M 108 193.857515 
L 777.6 193.857515 
" clip-path="url(#p5c40ec2aa6)" style="fill: none; stroke: #b0b0b0; stroke-width: 0.8; stroke-linecap: square"/>
     </g>
     <g id="line2d_24">
      <g>
       <use xlink:href="#m739bb28870" x="108" y="193.857515" style="stroke: #000000; stroke-width: 0.8"/>
      </g>
     </g>
     <g id="text_13">
      <!-- 0.150 -->
      <g transform="translate(72.371875 197.656734) scale(0.1 -0.1)">
       <use xlink:href="#DejaVuSans-30"/>
       <use xlink:href="#DejaVuSans-2e" x="63.623047"/>
       <use xlink:href="#DejaVuSans-31" x="95.410156"/>
       <use xlink:href="#DejaVuSans-35" x="159.033203"/>
       <use xlink:href="#DejaVuSans-30" x="222.65625"/>
      </g>
     </g>
    </g>
    <g id="ytick_8">
     <g id="line2d_25">
      <path d="M 108 144.153373 
L 777.6 144.153373 
" clip-path="url(#p5c40ec2aa6)" style="fill: none; stroke: #b0b0b0; stroke-width: 0.8; stroke-linecap: square"/>
     </g>
     <g id="line2d_26">
      <g>
       <use xlink:href="#m739bb28870" x="108" y="144.153373" style="stroke: #000000; stroke-width: 0.8"/>
      </g>
     </g>
     <g id="text_14">
      <!-- 0.175 -->
      <g transform="translate(72.371875 147.952592) scale(0.1 -0.1)">
       <use xlink:href="#DejaVuSans-30"/>
       <use xlink:href="#DejaVuSans-2e" x="63.623047"/>
       <use xlink:href="#DejaVuSans-31" x="95.410156"/>
       <use xlink:href="#DejaVuSans-37" x="159.033203"/>
       <use xlink:href="#DejaVuSans-35" x="222.65625"/>
      </g>
     </g>
    </g>
    <g id="ytick_9">
     <g id="line2d_27">
      <path d="M 108 94.449231 
L 777.6 94.449231 
" clip-path="url(#p5c40ec2aa6)" style="fill: none; stroke: #b0b0b0; stroke-width: 0.8; stroke-linecap: square"/>
     </g>
     <g id="line2d_28">
      <g>
       <use xlink:href="#m739bb28870" x="108" y="94.449231" style="stroke: #000000; stroke-width: 0.8"/>
      </g>
     </g>
     <g id="text_15">
      <!-- 0.200 -->
      <g transform="translate(72.371875 98.24845) scale(0.1 -0.1)">
       <use xlink:href="#DejaVuSans-30"/>
       <use xlink:href="#DejaVuSans-2e" x="63.623047"/>
       <use xlink:href="#DejaVuSans-32" x="95.410156"/>
       <use xlink:href="#DejaVuSans-30" x="159.033203"/>
       <use xlink:href="#DejaVuSans-30" x="222.65625"/>
      </g>
     </g>
    </g>
    <g id="text_16">
     <!-- Price/strike ratio -->
     <g transform="translate(64.628438 364.318594) rotate(-90) scale(0.18 -0.18)">
      <defs>
       <path id="DejaVuSans-50" d="M 1259 4147 
L 1259 2394 
L 2053 2394 
Q 2494 2394 2734 2622 
Q 2975 2850 2975 3272 
Q 2975 3691 2734 3919 
Q 2494 4147 2053 4147 
L 1259 4147 
z
M 628 4666 
L 2053 4666 
Q 2838 4666 3239 4311 
Q 3641 3956 3641 3272 
Q 3641 2581 3239 2228 
Q 2838 1875 2053 1875 
L 1259 1875 
L 1259 0 
L 628 0 
L 628 4666 
z
" transform="scale(0.015625)"/>
       <path id="DejaVuSans-72" d="M 2631 2963 
Q 2534 3019 2420 3045 
Q 2306 3072 2169 3072 
Q 1681 3072 1420 2755 
Q 1159 2438 1159 1844 
L 1159 0 
L 581 0 
L 581 3500 
L 1159 3500 
L 1159 2956 
Q 1341 3275 1631 3429 
Q 1922 3584 2338 3584 
Q 2397 3584 2469 3576 
Q 2541 3569 2628 3553 
L 2631 2963 
z
" transform="scale(0.015625)"/>
       <path id="DejaVuSans-63" d="M 3122 3366 
L 3122 2828 
Q 2878 2963 2633 3030 
Q 2388 3097 2138 3097 
Q 1578 3097 1268 2742 
Q 959 2388 959 1747 
Q 959 1106 1268 751 
Q 1578 397 2138 397 
Q 2388 397 2633 464 
Q 2878 531 3122 666 
L 3122 134 
Q 2881 22 2623 -34 
Q 2366 -91 2075 -91 
Q 1284 -91 818 406 
Q 353 903 353 1747 
Q 353 2603 823 3093 
Q 1294 3584 2113 3584 
Q 2378 3584 2631 3529 
Q 2884 3475 3122 3366 
z
" transform="scale(0.015625)"/>
       <path id="DejaVuSans-65" d="M 3597 1894 
L 3597 1613 
L 953 1613 
Q 991 1019 1311 708 
Q 1631 397 2203 397 
Q 2534 397 2845 478 
Q 3156 559 3463 722 
L 3463 178 
Q 3153 47 2828 -22 
Q 2503 -91 2169 -91 
Q 1331 -91 842 396 
Q 353 884 353 1716 
Q 353 2575 817 3079 
Q 1281 3584 2069 3584 
Q 2775 3584 3186 3129 
Q 3597 2675 3597 1894 
z
M 3022 2063 
Q 3016 2534 2758 2815 
Q 2500 3097 2075 3097 
Q 1594 3097 1305 2825 
Q 1016 2553 972 2059 
L 3022 2063 
z
" transform="scale(0.015625)"/>
       <path id="DejaVuSans-2f" d="M 1625 4666 
L 2156 4666 
L 531 -594 
L 0 -594 
L 1625 4666 
z
" transform="scale(0.015625)"/>
       <path id="DejaVuSans-73" d="M 2834 3397 
L 2834 2853 
Q 2591 2978 2328 3040 
Q 2066 3103 1784 3103 
Q 1356 3103 1142 2972 
Q 928 2841 928 2578 
Q 928 2378 1081 2264 
Q 1234 2150 1697 2047 
L 1894 2003 
Q 2506 1872 2764 1633 
Q 3022 1394 3022 966 
Q 3022 478 2636 193 
Q 2250 -91 1575 -91 
Q 1294 -91 989 -36 
Q 684 19 347 128 
L 347 722 
Q 666 556 975 473 
Q 1284 391 1588 391 
Q 1994 391 2212 530 
Q 2431 669 2431 922 
Q 2431 1156 2273 1281 
Q 2116 1406 1581 1522 
L 1381 1569 
Q 847 1681 609 1914 
Q 372 2147 372 2553 
Q 372 3047 722 3315 
Q 1072 3584 1716 3584 
Q 2034 3584 2315 3537 
Q 2597 3491 2834 3397 
z
" transform="scale(0.015625)"/>
       <path id="DejaVuSans-6b" d="M 581 4863 
L 1159 4863 
L 1159 1991 
L 2875 3500 
L 3609 3500 
L 1753 1863 
L 3688 0 
L 2938 0 
L 1159 1709 
L 1159 0 
L 581 0 
L 581 4863 
z
" transform="scale(0.015625)"/>
       <path id="DejaVuSans-20" transform="scale(0.015625)"/>
      </defs>
      <use xlink:href="#DejaVuSans-50"/>
      <use xlink:href="#DejaVuSans-72" x="58.552734"/>
      <use xlink:href="#DejaVuSans-69" x="99.666016"/>
      <use xlink:href="#DejaVuSans-63" x="127.449219"/>
      <use xlink:href="#DejaVuSans-65" x="182.429688"/>
      <use xlink:href="#DejaVuSans-2f" x="243.953125"/>
      <use xlink:href="#DejaVuSans-73" x="277.644531"/>
      <use xlink:href="#DejaVuSans-74" x="329.744141"/>
      <use xlink:href="#DejaVuSans-72" x="368.953125"/>
      <use xlink:href="#DejaVuSans-69" x="410.066406"/>
      <use xlink:href="#DejaVuSans-6b" x="437.849609"/>
      <use xlink:href="#DejaVuSans-65" x="492.134766"/>
      <use xlink:href="#DejaVuSans-20" x="553.658203"/>
      <use xlink:href="#DejaVuSans-72" x="585.445312"/>
      <use xlink:href="#DejaVuSans-61" x="626.558594"/>
      <use xlink:href="#DejaVuSans-74" x="687.837891"/>
      <use xlink:href="#DejaVuSans-69" x="727.046875"/>
      <use xlink:href="#DejaVuSans-6f" x="754.830078"/>
     </g>
    </g>
   </g>
   <g id="line2d_29">
    <path d="M 138.436364 492.082367 
L 144.283654 492.082367 
L 146.720025 491.88355 
L 147.08548 492.281183 
L 147.450936 492.082367 
L 153.054589 492.082367 
L 153.420045 492.281183 
L 153.907319 492.082367 
L 155.612779 492.082367 
L 156.709145 492.281183 
L 157.318238 492.082367 
L 159.510972 492.082367 
L 160.972795 491.88355 
L 161.703706 492.082367 
L 162.069161 491.88355 
L 162.556436 492.082367 
L 173.032831 492.082367 
L 174.494653 491.88355 
L 175.59102 492.281183 
L 177.418298 492.082367 
L 177.418298 492.281183 
L 178.271028 492.082367 
L 179.611032 492.082367 
L 179.611032 492.082367 
L 181.194673 491.88355 
L 181.560129 492.082367 
L 181.560129 492.082367 
L 184.240137 492.082367 
L 184.361955 491.88355 
L 185.945596 492.082367 
L 187.2856 492.082367 
L 187.2856 491.88355 
L 187.529238 492.082367 
L 189.112879 492.281183 
L 189.112879 491.88355 
L 191.427431 492.082367 
L 192.158342 491.88355 
L 193.132891 492.082367 
L 193.376528 492.281183 
L 193.620165 492.281183 
L 193.741983 492.082367 
L 194.351076 492.281183 
L 195.69108 492.281183 
L 196.300173 492.082367 
L 198.858362 492.082367 
L 198.858362 492.281183 
L 198.980181 492.082367 
L 200.442003 492.281183 
L 201.53837 491.88355 
L 202.025644 491.88355 
L 202.878374 491.684734 
L 203.974741 492.082367 
L 204.462015 492.082367 
L 204.827471 491.88355 
L 206.167475 492.082367 
L 206.411112 491.88355 
L 207.38566 491.88355 
L 209.212939 492.082367 
L 209.334757 491.684734 
L 209.456576 492.082367 
L 210.187487 492.082367 
L 213.842043 491.88355 
L 215.425685 491.684734 
L 215.425685 492.48 
L 215.669322 492.281183 
L 215.912959 492.281183 
L 216.034777 492.082367 
L 216.400233 492.281183 
L 217.009326 491.88355 
L 217.374781 492.281183 
L 218.227511 492.48 
L 218.471148 491.88355 
L 219.445697 492.281183 
L 221.151156 492.082367 
L 223.100253 492.082367 
L 223.222071 491.88355 
L 223.587527 492.082367 
L 224.562075 492.082367 
L 224.805713 491.88355 
L 225.414805 492.082367 
L 226.023898 492.082367 
L 226.389354 492.281183 
L 226.389354 491.88355 
L 226.632991 492.082367 
L 226.632991 492.082367 
L 227.363902 492.281183 
L 228.947543 491.88355 
L 229.069362 492.281183 
L 230.287547 491.88355 
L 230.531184 492.48 
L 230.531184 492.082367 
L 230.653003 491.88355 
L 231.018458 491.88355 
L 231.74937 492.082367 
L 231.74937 492.082367 
L 232.236644 492.082367 
L 234.794833 491.88355 
L 234.794833 491.88355 
L 236.013019 492.082367 
L 236.013019 491.88355 
L 237.718478 491.88355 
L 237.840297 492.281183 
L 239.423938 492.281183 
L 241.982127 491.684734 
L 244.053043 491.88355 
L 245.514865 491.684734 
L 246.123958 491.88355 
L 247.342143 491.684734 
L 247.463962 492.281183 
L 247.463962 492.082367 
L 247.585781 491.88355 
L 248.073055 491.88355 
L 248.073055 491.485917 
L 248.316692 492.48 
L 248.803966 491.88355 
L 249.047603 491.684734 
L 249.413059 492.281183 
L 249.534877 492.082367 
L 250.631244 491.684734 
L 250.631244 492.082367 
L 250.631244 491.684734 
L 251.84943 491.88355 
L 253.798526 492.082367 
L 255.016712 492.082367 
L 257.818538 492.281183 
L 258.305813 492.082367 
L 259.158542 491.88355 
L 259.645817 492.082367 
L 261.960369 491.684734 
L 264.39674 491.88355 
L 264.518558 491.088284 
L 265.371288 492.082367 
L 266.1022 491.287101 
L 267.929478 491.088284 
L 269.147663 491.485917 
L 270.122212 491.684734 
L 270.487667 491.287101 
L 271.340397 491.485917 
L 272.071308 491.485917 
L 272.436764 491.287101 
L 272.558582 491.485917 
L 273.289494 491.485917 
L 273.289494 491.88355 
L 273.654949 491.88355 
L 274.873135 492.082367 
L 275.604046 490.293018 
L 277.553143 492.281183 
L 277.674961 491.287101 
L 277.674961 491.485917 
L 277.79678 491.684734 
L 278.162236 491.684734 
L 278.162236 491.485917 
L 278.162236 491.485917 
L 278.284054 491.684734 
L 279.380421 491.684734 
L 279.624058 491.485917 
L 280.111332 491.485917 
L 280.476788 491.088284 
L 281.329518 492.082367 
L 282.060429 490.889467 
L 283.278614 491.088284 
L 283.278614 491.088284 
L 283.765889 491.287101 
L 284.253163 491.287101 
L 286.567715 490.690651 
L 286.811352 491.88355 
L 287.054989 491.684734 
L 287.298626 490.889467 
L 287.542264 490.889467 
L 287.542264 491.287101 
L 288.63863 490.491834 
L 288.760449 491.287101 
L 289.247723 491.287101 
L 291.19682 490.690651 
L 293.267735 490.889467 
L 297.04411 490.491834 
L 297.775021 491.088284 
L 298.262296 490.491834 
L 298.262296 490.293018 
L 298.505933 490.889467 
L 299.358662 491.287101 
L 299.724118 490.094201 
L 299.724118 490.889467 
L 299.845937 491.287101 
L 299.967755 490.094201 
L 300.333211 490.690651 
L 300.942304 490.690651 
L 301.551396 489.497751 
L 302.404126 490.491834 
L 303.987767 491.287101 
L 304.109586 489.696568 
L 305.205953 490.690651 
L 305.327771 489.298935 
L 306.545957 490.293018 
L 307.520505 490.293018 
L 307.764142 490.690651 
L 308.373235 489.298935 
L 308.616872 491.684734 
L 309.225965 491.485917 
L 311.905973 489.895385 
L 311.905973 490.094201 
L 312.271428 489.298935 
L 313.245977 491.088284 
L 314.829618 490.094201 
L 315.073255 490.293018 
L 315.925985 489.497751 
L 316.29144 489.696568 
L 316.535077 488.702485 
L 316.900533 490.293018 
L 316.900533 489.696568 
L 317.387807 488.901302 
L 317.753263 488.901302 
L 317.9969 490.094201 
L 319.093267 490.094201 
L 320.676908 489.298935 
L 322.382368 489.696568 
L 322.747823 488.901302 
L 323.113279 490.293018 
L 323.722372 488.702485 
L 323.966009 489.497751 
L 326.889654 487.708402 
L 326.889654 489.895385 
L 327.986021 489.696568 
L 328.838751 489.696568 
L 329.082388 488.304852 
L 329.447843 489.298935 
L 330.422392 489.895385 
L 330.909666 488.503669 
L 330.909666 488.702485 
L 331.39694 489.497751 
L 332.493307 488.901302 
L 334.320585 488.304852 
L 334.807859 488.503669 
L 334.929678 487.708402 
L 335.538771 487.708402 
L 336.269682 488.702485 
L 338.462416 489.497751 
L 338.827871 488.702485 
L 338.827871 489.298935 
L 340.167875 488.503669 
L 341.873335 488.901302 
L 341.995153 487.310769 
L 341.995153 487.310769 
L 342.969702 488.702485 
L 343.213339 487.310769 
L 343.335157 488.901302 
L 343.700613 488.503669 
L 343.94425 489.298935 
L 344.553343 488.304852 
L 344.918799 487.310769 
L 344.918799 487.907219 
L 345.64971 487.310769 
L 346.380621 487.708402 
L 346.746077 488.901302 
L 347.233351 486.515503 
L 348.938811 488.304852 
L 350.035177 486.913136 
L 351.009726 486.11787 
L 351.131544 485.123787 
L 351.253363 487.509586 
L 352.715185 487.310769 
L 352.715185 487.907219 
L 353.446097 487.907219 
L 353.446097 486.913136 
L 353.811552 487.907219 
L 355.882468 486.515503 
L 356.126105 486.11787 
L 357.34429 487.310769 
L 357.466109 488.106036 
L 357.709746 485.919053 
L 357.831564 485.919053 
L 360.267935 486.913136 
L 360.389754 485.720237 
L 360.877028 486.71432 
L 362.095213 488.702485 
L 362.460669 486.11787 
L 362.826125 484.726154 
L 363.069762 484.92497 
L 364.04431 484.328521 
L 364.04431 486.913136 
L 364.775221 485.720237 
L 365.018859 486.71432 
L 365.506133 485.52142 
L 365.993407 486.316686 
L 367.577048 485.52142 
L 367.698867 485.123787 
L 369.038871 485.720237 
L 370.013419 486.515503 
L 370.378875 484.92497 
L 370.622512 484.527337 
L 370.987967 484.92497 
L 372.693427 483.135621 
L 372.815246 487.111953 
L 372.815246 484.92497 
L 373.424338 482.936805 
L 374.642524 483.732071 
L 374.886161 484.527337 
L 375.007979 484.527337 
L 376.347983 486.316686 
L 377.809806 486.515503 
L 378.175262 483.334438 
L 379.637084 485.322604 
L 379.637084 483.533254 
L 379.758903 483.732071 
L 380.977088 484.328521 
L 382.317092 487.509586 
L 383.900733 485.123787 
L 383.900733 484.726154 
L 384.509826 483.930888 
L 385.118919 483.334438 
L 385.484374 484.129704 
L 385.606193 483.533254 
L 386.215286 481.545089 
L 386.337104 485.322604 
L 387.189834 484.92497 
L 387.433471 481.942722 
L 387.677108 481.147456 
L 387.677108 483.533254 
L 389.504386 482.340355 
L 390.600753 485.123787 
L 390.84439 484.527337 
L 391.331664 481.942722 
L 392.793487 480.948639 
L 393.40258 481.942722 
L 393.40258 483.135621 
L 393.524398 485.123787 
L 393.524398 482.936805 
L 393.768035 481.147456 
L 394.498947 484.328521 
L 395.229858 481.545089 
L 395.229858 482.936805 
L 395.717132 481.743905 
L 396.204406 480.749822 
L 396.813499 481.942722 
L 397.178955 482.936805 
L 397.54441 479.954556 
L 397.666229 481.545089 
L 398.275322 482.737988 
L 398.518959 481.346272 
L 399.493507 480.948639 
L 399.615326 481.743905 
L 399.615326 480.153373 
L 399.737144 479.358107 
L 400.1026 483.732071 
L 400.711692 481.743905 
L 400.833511 478.56284 
L 401.320785 481.346272 
L 402.051696 480.352189 
L 403.513519 481.743905 
L 404.366249 481.942722 
L 404.731704 478.761657 
L 405.94989 479.75574 
L 405.94989 478.56284 
L 405.94989 479.954556 
L 406.680801 478.56284 
L 407.168075 481.346272 
L 408.751716 480.352189 
L 409.360809 482.539172 
L 409.726265 479.556923 
L 410.335358 479.954556 
L 413.50264 479.556923 
L 413.868095 481.346272 
L 414.111732 478.165207 
L 414.477188 477.966391 
L 414.477188 478.960473 
L 415.451736 480.551006 
L 416.426285 478.364024 
L 417.157196 480.551006 
L 417.400833 479.358107 
L 418.984474 476.773491 
L 419.106293 480.153373 
L 419.593567 476.972308 
L 419.715386 478.364024 
L 420.080841 478.364024 
L 421.420845 477.767574 
L 422.029938 476.972308 
L 422.273575 478.761657 
L 422.273575 481.743905 
L 422.395394 479.15929 
L 423.491761 480.749822 
L 423.613579 479.556923 
L 423.613579 477.369941 
L 424.222672 479.75574 
L 424.466309 479.954556 
L 425.319039 476.574675 
L 425.806313 477.369941 
L 428.364502 478.165207 
L 429.217232 476.574675 
L 429.704506 478.165207 
L 429.826325 475.381775 
L 430.435418 476.574675 
L 430.800873 476.177041 
L 430.922692 474.984142 
L 432.506333 477.171124 
L 432.871789 475.580592 
L 433.480881 475.182959 
L 433.846337 475.182959 
L 434.089974 472.995976 
L 435.551797 475.779408 
L 435.795434 470.411361 
L 436.160889 474.188876 
L 437.013619 474.785325 
L 438.109986 479.556923 
L 438.231805 474.387692 
L 438.962716 473.990059 
L 439.937264 475.580592 
L 440.911813 476.375858 
L 441.520905 476.177041 
L 441.520905 474.387692 
L 441.886361 476.574675 
L 442.495454 475.978225 
L 443.348183 472.399527 
L 443.957276 474.586509 
L 443.957276 476.972308 
L 444.566369 475.779408 
L 444.566369 473.393609 
L 445.29728 478.364024 
L 445.419099 474.387692 
L 446.393647 475.580592 
L 447.733651 474.188876 
L 448.220925 473.990059 
L 448.951837 473.393609 
L 449.073655 475.779408 
L 449.073655 474.984142 
L 450.657296 474.387692 
L 450.779115 472.995976 
L 450.779115 474.387692 
L 451.14457 475.779408 
L 453.093667 472.20071 
L 453.946397 473.592426 
L 453.946397 473.194793 
L 454.55549 471.60426 
L 454.799127 473.990059 
L 454.799127 477.568757 
L 454.799127 468.025562 
L 456.260949 474.984142 
L 456.260949 471.206627 
L 456.626405 471.405444 
L 457.113679 469.814911 
L 457.357316 475.182959 
L 457.722772 472.399527 
L 458.210046 472.79716 
L 458.575502 472.20071 
L 459.306413 472.399527 
L 460.524598 470.610178 
L 461.620965 470.808994 
L 462.230058 471.60426 
L 464.057336 474.586509 
L 465.39734 470.610178 
L 465.640977 467.031479 
L 466.128251 476.375858 
L 467.468255 469.019645 
L 467.590074 470.808994 
L 468.077348 468.025562 
L 468.320985 468.025562 
L 468.320985 474.785325 
L 468.930078 472.399527 
L 469.051897 468.820828 
L 469.295534 470.212544 
L 470.148264 470.411361 
L 470.757356 472.598343 
L 472.828272 469.019645 
L 473.071909 467.230296 
L 473.80282 467.627929 
L 474.290094 469.417278 
L 475.021005 465.24213 
L 475.630098 470.411361 
L 475.873735 469.019645 
L 476.604646 467.627929 
L 477.701013 465.83858 
L 478.919199 467.429112 
L 479.041017 472.20071 
L 479.284654 466.43503 
L 480.381021 469.814911 
L 480.868296 469.019645 
L 481.111933 463.055148 
L 481.599207 464.248047 
L 482.573755 462.856331 
L 483.061029 467.429112 
L 483.913759 465.043314 
L 484.766489 464.844497 
L 485.253763 464.049231 
L 485.619219 467.031479 
L 487.081041 471.007811 
L 488.299227 468.224379 
L 489.030138 462.657515 
L 489.030138 469.417278 
L 489.030138 463.850414 
L 490.004686 465.440947 
L 490.491961 465.83858 
L 490.857416 463.253964 
L 490.979235 470.212544 
L 491.588328 463.253964 
L 492.075602 465.639763 
L 493.293787 466.832663 
L 493.537424 464.446864 
L 493.659243 468.025562 
L 494.511973 462.657515 
L 494.511973 462.657515 
L 494.75561 468.224379 
L 496.217432 466.832663 
L 496.582888 461.066982 
L 496.582888 466.43503 
L 497.070162 461.066982 
L 497.070162 464.049231 
L 498.166529 464.844497 
L 498.531985 465.83858 
L 498.653803 459.675266 
L 500.359263 463.651598 
L 504.74473 464.248047 
L 505.110186 462.856331 
L 505.232005 463.850414 
L 505.232005 460.868166 
L 505.353823 460.669349 
L 506.45019 466.236213 
L 507.181101 459.675266 
L 507.424738 462.856331 
L 509.617472 465.24213 
L 509.739291 463.452781 
L 509.982928 463.253964 
L 509.982928 464.844497 
L 510.835658 460.072899 
L 511.322932 458.084734 
L 511.44475 459.277633 
L 511.566569 461.862249 
L 512.29748 461.066982 
L 512.784754 459.277633 
L 513.759303 460.470533 
L 515.221125 462.458698 
L 516.195674 461.066982 
L 517.048404 457.885917 
L 517.170222 458.482367 
L 517.779315 457.289467 
L 518.14477 457.289467 
L 518.388408 458.88 
L 518.388408 467.031479 
L 519.362956 456.891834 
L 519.484775 460.072899 
L 520.215686 458.28355 
L 520.581141 454.307219 
L 520.824779 459.277633 
L 521.55569 460.271716 
L 521.677508 457.289467 
L 522.042964 459.277633 
L 522.042964 462.458698 
L 523.139331 462.657515 
L 523.626605 461.663432 
L 524.479335 453.909586 
L 525.210246 459.47645 
L 525.941157 455.301302 
L 527.40298 458.084734 
L 528.25571 457.687101 
L 528.499347 459.874083 
L 528.986621 453.313136 
L 529.230258 458.482367 
L 529.717532 458.084734 
L 530.570262 451.32497 
L 530.570262 456.494201 
L 531.057536 455.301302 
L 531.301173 463.055148 
L 532.519359 455.102485 
L 533.615726 453.511953 
L 535.443004 455.698935 
L 535.80846 456.494201 
L 537.392101 456.693018 
L 537.635738 456.494201 
L 538.853923 458.482367 
L 538.975742 452.319053 
L 540.072109 454.903669 
L 541.168476 459.47645 
L 542.752117 453.511953 
L 543.117572 458.681183 
L 544.701213 453.511953 
L 545.310306 452.120237 
L 546.893947 449.933254 
L 548.35577 449.734438 
L 548.477588 449.933254 
L 548.843044 448.342722 
L 550.183048 449.336805 
L 552.132145 451.32497 
L 552.375782 451.92142 
L 553.593967 449.933254 
L 553.959423 453.909586 
L 554.20306 451.92142 
L 554.20306 449.933254 
L 555.543064 451.722604 
L 555.786701 455.301302 
L 556.883068 444.764024 
L 556.883068 451.722604 
L 557.370342 450.728521 
L 557.492161 449.137988 
L 558.953983 451.32497 
L 559.19762 447.945089 
L 559.441257 447.746272 
L 559.684895 452.51787 
L 560.415806 449.137988 
L 560.90308 448.740355 
L 561.75581 451.32497 
L 562.243084 449.137988 
L 562.730358 443.968757 
L 562.973995 456.693018 
L 564.192181 450.529704 
L 565.654003 446.752189 
L 567.481281 450.927337 
L 567.968556 448.143905 
L 568.699467 449.734438 
L 569.064923 440.986509 
L 569.064923 441.781775 
L 569.430378 445.161657 
L 570.892201 446.752189 
L 570.892201 449.734438 
L 571.623112 448.740355 
L 572.354023 446.752189 
L 572.354023 443.173491 
L 572.475842 446.553373 
L 574.181302 450.132071 
L 574.30312 450.728521 
L 574.424939 445.161657 
L 574.546757 445.956923 
L 576.617672 446.15574 
L 577.104947 441.781775 
L 579.784955 441.980592 
L 579.784955 442.775858 
L 580.028592 448.342722 
L 580.637684 448.939172 
L 581.85587 443.968757 
L 582.464963 440.787692 
L 582.586781 448.143905 
L 582.7086 448.541538 
L 583.195874 440.986509 
L 583.317692 443.173491 
L 583.439511 441.980592 
L 585.023152 444.96284 
L 585.266789 444.96284 
L 585.510426 442.974675 
L 586.119519 447.149822 
L 586.119519 442.378225 
L 586.241338 439.992426 
L 586.241338 443.769941 
L 586.363156 441.185325 
L 586.972249 442.577041 
L 588.55589 442.974675 
L 589.043164 438.998343 
L 589.164983 444.167574 
L 589.895894 438.203077 
L 589.895894 439.992426 
L 590.748624 441.582959 
L 591.114079 439.992426 
L 591.357716 444.565207 
L 591.966809 445.360473 
L 592.941358 441.582959 
L 595.743184 441.980592 
L 596.10864 443.372308 
L 598.423192 434.624379 
L 598.666829 441.185325 
L 599.032285 438.203077 
L 600.006833 436.811361 
L 600.494107 438.00426 
L 600.859563 438.203077 
L 601.1032 446.354556 
L 601.590474 441.781775 
L 603.174115 435.220828 
L 603.539571 441.384142 
L 603.66139 437.208994 
L 604.270482 440.390059 
L 605.488668 437.208994 
L 605.854123 445.360473 
L 606.341398 438.799527 
L 607.925039 439.793609 
L 609.874135 443.769941 
L 610.848684 429.057515 
L 611.579595 430.648047 
L 611.823232 435.817278 
L 612.79778 433.431479 
L 613.163236 445.758107 
L 613.65051 429.653964 
L 614.625059 435.817278 
L 615.477788 435.817278 
L 615.599607 433.829112 
L 616.2087 432.636213 
L 616.330518 434.027929 
L 617.183248 436.811361 
L 617.914159 434.624379 
L 617.914159 439.992426 
L 618.279615 430.051598 
L 618.401434 436.214911 
L 618.645071 431.840947 
L 619.132345 434.425562 
L 619.375982 437.606627 
L 619.375982 431.443314 
L 619.4978 437.606627 
L 621.20326 429.653964 
L 621.325079 425.28 
L 622.665083 437.606627 
L 623.76145 435.419645 
L 624.857817 434.027929 
L 625.101454 428.858698 
L 626.319639 429.852781 
L 626.806913 431.64213 
L 626.928732 440.390059 
L 628.390554 437.208994 
L 629.243284 430.648047 
L 630.705107 425.081183 
L 630.705107 433.630296 
L 631.314199 434.624379 
L 631.557837 433.232663 
L 632.288748 430.250414 
L 632.897841 425.87645 
L 633.019659 426.870533 
L 634.481482 425.87645 
L 636.30876 429.057515 
L 637.039671 428.262249 
L 637.648764 423.291834 
L 639.841498 422.098935 
L 640.328772 426.870533 
L 641.30332 427.069349 
L 643.130598 436.811361 
L 644.226965 428.659882 
L 645.688788 427.268166 
L 646.663336 433.829112 
L 647.028792 423.291834 
L 648.00334 422.098935 
L 648.612433 421.104852 
L 648.612433 426.472899 
L 648.85607 421.900118 
L 650.439711 419.713136 
L 650.56153 423.093018 
L 651.779715 430.648047 
L 652.145171 424.484734 
L 654.825179 418.122604 
L 655.434271 426.274083 
L 656.530638 420.309586 
L 657.505187 423.490651 
L 657.870642 426.870533 
L 657.992461 419.911953 
L 658.479735 419.116686 
L 658.967009 429.455148 
L 660.063376 417.526154 
L 660.307013 417.72497 
L 661.159743 421.104852 
L 661.281562 418.520237 
L 661.40338 422.695385 
L 661.768836 425.081183 
L 662.499747 424.882367 
L 662.865203 422.496568 
L 663.596114 424.882367 
L 663.96157 428.063432 
L 664.936118 421.104852 
L 665.301574 421.303669 
L 665.910666 416.929704 
L 665.910666 417.128521 
L 666.397941 422.894201 
L 667.007033 425.28 
L 667.372489 420.707219 
L 667.494307 422.098935 
L 667.981582 418.719053 
L 668.347037 421.104852 
L 668.95613 421.303669 
L 670.174315 416.134438 
L 670.296134 407.784142 
L 672.732505 400.825562 
L 673.341598 422.496568 
L 673.707053 419.713136 
L 674.437965 407.386509 
L 674.437965 413.748639 
L 675.168876 410.766391 
L 677.605247 423.689467 
L 678.457977 414.742722 
L 678.457977 419.713136 
L 678.701614 420.906036 
L 679.797981 422.894201 
L 679.919799 419.713136 
L 680.285255 425.87645 
L 680.407073 421.701302 
L 680.407073 413.748639 
L 682.477989 422.894201 
L 682.965263 418.32142 
L 683.2089 413.549822 
L 683.696174 412.158107 
L 684.548904 411.164024 
L 685.157997 413.748639 
L 685.767089 420.110769 
L 686.010726 410.766391 
L 686.010726 412.158107 
L 686.132545 412.953373 
L 686.132545 419.51432 
L 686.254364 411.36284 
L 686.376182 410.965207 
L 686.498001 420.110769 
L 686.498001 418.122604 
L 686.863456 418.32142 
L 687.107093 411.561657 
L 687.35073 413.351006 
L 687.959823 411.164024 
L 690.883468 411.760473 
L 693.198021 419.315503 
L 694.90348 415.935621 
L 696.121666 415.339172 
L 696.243484 410.965207 
L 696.487121 414.742722 
L 696.974396 405.00071 
L 697.096214 418.122604 
L 697.339851 411.164024 
L 697.46167 397.644497 
L 697.827125 409.374675 
L 699.045311 408.778225 
L 700.385315 412.55574 
L 700.507133 412.356923 
L 700.75077 409.175858 
L 702.45623 416.929704 
L 703.187141 406.392426 
L 703.187141 407.982959 
L 703.674416 419.911953 
L 703.918053 410.965207 
L 705.379875 400.825562 
L 705.988968 407.585325 
L 707.45079 404.603077 
L 707.572609 415.736805 
L 707.938065 404.205444 
L 710.983528 410.567574 
L 711.105347 398.04213 
L 711.592621 409.573491 
L 711.836258 408.977041 
L 712.201714 407.784142 
L 713.176262 416.929704 
L 714.15081 404.603077 
L 714.272629 408.977041 
L 714.394448 406.988876 
L 714.638085 405.398343 
L 715.734452 411.95929 
L 715.978089 409.971124 
L 716.099907 404.40426 
L 716.709 407.386509 
L 717.196274 399.23503 
L 717.683548 412.356923 
L 718.536278 405.795976 
L 718.536278 404.40426 
L 718.901734 406.193609 
L 719.023552 412.356923 
L 719.632645 407.187692 
L 719.876282 409.175858 
L 720.241738 404.40426 
L 721.825379 406.790059 
L 722.678109 404.801893 
L 723.40902 411.95929 
L 723.40902 400.030296 
L 723.896294 405.398343 
L 724.505387 409.971124 
L 724.992661 412.55574 
L 726.819939 402.217278 
L 728.281762 411.561657 
L 729.012673 405.398343 
L 729.134492 398.439763 
L 729.499947 400.427929 
L 729.987221 402.416095 
L 730.352677 399.23503 
L 730.596314 404.40426 
L 730.718133 396.849231 
L 731.205407 406.988876 
L 732.301774 407.585325 
L 733.398141 412.158107 
L 733.763596 396.650414 
L 734.738145 401.024379 
L 734.981782 394.065799 
L 735.95633 395.059882 
L 735.95633 406.193609 
L 736.078149 404.801893 
L 736.199967 394.463432 
L 736.321786 398.837396 
L 736.80906 402.813728 
L 737.539971 397.843314 
L 737.905427 410.965207 
L 738.758157 400.030296 
L 739.245431 403.807811 
L 739.732705 395.656331 
L 740.219979 389.691834 
L 740.341798 390.884734 
L 740.341798 389.890651 
L 740.341798 402.813728 
L 741.681802 387.504852 
L 743.021806 396.849231 
L 743.265443 393.270533 
L 743.752717 407.982959 
L 745.823632 399.632663 
L 747.163636 398.837396 
L 747.163636 398.837396 
" clip-path="url(#p5c40ec2aa6)" style="fill: none; stroke: #1f77b4; stroke-width: 2; stroke-linecap: square"/>
   </g>
   <g id="line2d_30">
    <path d="M 138.436364 384.920237 
L 138.923638 384.72142 
L 140.263642 384.323787 
L 140.629097 384.12497 
L 141.847283 383.727337 
L 142.212739 383.528521 
L 144.283654 382.733254 
L 147.329117 381.739172 
L 147.572755 381.540355 
L 149.400033 380.943905 
L 153.907319 379.154556 
L 155.247323 378.756923 
L 155.612779 378.558107 
L 159.267335 377.166391 
L 159.510972 376.967574 
L 160.972795 376.569941 
L 161.703706 376.172308 
L 162.069161 376.172308 
L 162.921891 375.774675 
L 162.921891 375.774675 
L 167.18554 374.184142 
L 167.794633 373.786509 
L 170.840097 372.593609 
L 171.083734 372.593609 
L 177.418298 370.008994 
L 177.418298 370.008994 
L 178.271028 369.810178 
L 181.803766 368.219645 
L 184.240137 367.424379 
L 184.361955 367.225562 
L 185.580141 366.827929 
L 185.945596 366.629112 
L 186.920145 366.231479 
L 186.920145 366.231479 
L 187.2856 366.032663 
L 187.2856 366.032663 
L 187.529238 366.032663 
L 191.061975 364.640947 
L 192.158342 364.044497 
L 206.167475 358.278817 
L 206.411112 358.08 
L 210.187487 356.489467 
L 215.912959 354.103669 
L 216.034777 354.103669 
L 216.765689 353.706036 
L 217.009326 353.706036 
L 218.471148 352.910769 
L 224.562075 350.326154 
L 224.805713 350.127337 
L 226.389354 349.530888 
L 226.389354 349.530888 
L 226.632991 349.332071 
L 226.632991 349.332071 
L 227.363902 349.133254 
L 230.287547 347.741538 
L 230.531184 347.741538 
L 230.531184 347.741538 
L 230.653003 347.542722 
L 231.018458 347.542722 
L 232.236644 346.946272 
L 234.185741 345.952189 
L 234.551196 345.952189 
L 234.794833 345.753373 
L 234.794833 345.753373 
L 237.840297 344.361657 
L 239.423938 343.765207 
L 241.982127 342.572308 
L 247.585781 339.987692 
L 248.316692 339.590059 
L 248.803966 339.391243 
L 249.047603 339.391243 
L 249.413059 339.192426 
L 249.534877 338.993609 
L 250.631244 338.595976 
L 250.631244 338.595976 
L 253.798526 337.005444 
L 255.016712 336.607811 
L 261.960369 333.227929 
L 264.39674 332.233846 
L 264.518558 332.03503 
L 273.654949 327.661065 
L 274.873135 327.064615 
L 275.604046 326.865799 
L 276.94405 326.070533 
L 277.674961 325.871716 
L 277.674961 325.871716 
L 277.79678 325.672899 
L 278.284054 325.474083 
L 279.624058 324.877633 
L 281.329518 324.082367 
L 281.93861 323.684734 
L 282.060429 323.684734 
L 303.987767 312.948639 
L 304.109586 312.749822 
L 305.205953 312.352189 
L 305.327771 312.153373 
L 315.073255 307.381775 
L 316.29144 306.586509 
L 316.535077 306.586509 
L 320.676908 304.399527 
L 323.113279 303.206627 
L 323.722372 302.808994 
L 323.966009 302.808994 
L 328.838751 300.224379 
L 329.082388 300.224379 
L 329.447843 300.025562 
L 331.39694 298.832663 
L 332.493307 298.43503 
L 338.827871 295.055148 
L 338.827871 295.055148 
L 340.167875 294.458698 
L 342.969702 292.868166 
L 343.213339 292.868166 
L 343.335157 292.669349 
L 343.700613 292.470533 
L 343.94425 292.470533 
L 345.64971 291.47645 
L 349.79154 289.289467 
L 350.035177 289.289467 
L 352.715185 287.698935 
L 352.715185 287.698935 
L 353.811552 287.301302 
L 356.126105 285.909586 
L 359.658843 284.120237 
L 360.389754 283.722604 
L 360.877028 283.523787 
L 362.826125 282.330888 
L 363.069762 282.330888 
L 364.775221 281.336805 
L 365.018859 281.336805 
L 365.871588 280.740355 
L 365.993407 280.740355 
L 367.577048 279.945089 
L 367.698867 279.746272 
L 369.038871 279.149822 
L 370.378875 278.354556 
L 370.622512 278.354556 
L 410.335358 256.68355 
L 413.868095 254.695385 
L 414.111732 254.695385 
L 415.451736 253.900118 
L 417.157196 252.906036 
L 417.400833 252.906036 
L 417.888107 252.508402 
L 419.106293 251.911953 
L 419.593567 251.713136 
L 419.715386 251.51432 
L 420.080841 251.315503 
L 421.420845 250.719053 
L 422.395394 250.122604 
L 425.319039 248.532071 
L 425.806313 248.134438 
L 429.217232 246.345089 
L 429.704506 246.146272 
L 429.826325 245.947456 
L 430.800873 245.549822 
L 430.922692 245.351006 
L 433.846337 243.760473 
L 434.089974 243.561657 
L 435.551797 242.766391 
L 435.795434 242.766391 
L 436.769982 242.169941 
L 437.013619 241.971124 
L 437.622712 241.772308 
L 438.231805 241.374675 
L 443.957276 238.193609 
L 443.957276 238.193609 
L 445.29728 237.398343 
L 445.419099 237.398343 
L 446.393647 236.801893 
L 447.733651 236.205444 
L 448.220925 235.807811 
L 458.575502 230.240947 
L 459.306413 229.644497 
L 461.620965 228.451598 
L 462.230058 228.053964 
L 464.057336 227.059882 
L 466.128251 226.065799 
L 470.148264 223.68 
L 470.757356 223.481183 
L 475.021005 221.095385 
L 475.50828 220.896568 
L 475.630098 220.697751 
L 475.873735 220.697751 
L 476.604646 220.101302 
L 478.919199 218.908402 
L 479.041017 218.908402 
L 479.284654 218.709586 
L 489.030138 213.341538 
L 489.030138 213.341538 
L 490.857416 212.347456 
L 490.979235 212.347456 
L 493.293787 210.95574 
L 493.537424 210.95574 
L 493.659243 210.756923 
L 496.095614 209.564024 
L 496.217432 209.365207 
L 498.531985 208.172308 
L 498.653803 208.172308 
L 505.232005 204.593609 
L 505.232005 204.593609 
L 505.353823 204.394793 
L 506.45019 203.798343 
L 507.059283 203.599527 
L 507.181101 203.40071 
L 507.424738 203.40071 
L 509.617472 202.207811 
L 509.739291 202.008994 
L 509.982928 202.008994 
L 509.982928 202.008994 
L 510.835658 201.412544 
L 511.566569 201.014911 
L 515.221125 199.026746 
L 516.195674 198.629112 
L 517.779315 197.63503 
L 518.14477 197.436213 
L 518.388408 197.436213 
L 518.388408 197.436213 
L 520.215686 196.44213 
L 523.139331 194.851598 
L 523.626605 194.453964 
L 525.941157 193.261065 
L 529.717532 191.272899 
L 530.570262 190.875266 
L 530.570262 190.875266 
L 531.057536 190.477633 
L 531.301173 190.477633 
L 533.615726 189.085917 
L 538.853923 186.302485 
L 538.975742 186.302485 
L 540.072109 185.706036 
L 543.117572 184.115503 
L 546.893947 182.127337 
L 548.35577 181.332071 
L 548.477588 181.133254 
L 548.843044 181.133254 
L 557.370342 176.560473 
L 557.492161 176.560473 
L 559.19762 175.566391 
L 559.563076 175.367574 
L 559.684895 175.367574 
L 567.481281 171.192426 
L 568.699467 170.595976 
L 569.064923 170.39716 
L 569.064923 170.39716 
L 569.30856 170.39716 
L 569.430378 170.198343 
L 571.623112 169.005444 
L 572.354023 168.806627 
L 572.354023 168.806627 
L 572.475842 168.607811 
L 576.617672 166.619645 
L 577.104947 166.222012 
L 579.784955 164.830296 
L 579.784955 164.830296 
L 580.028592 164.830296 
L 580.637684 164.432663 
L 586.241338 161.649231 
L 586.241338 161.649231 
L 586.363156 161.450414 
L 586.972249 161.251598 
L 618.035978 145.743905 
L 618.157796 145.743905 
L 618.157796 145.743905 
L 618.401434 145.545089 
L 618.645071 145.346272 
L 619.4978 144.948639 
L 626.319639 141.767574 
L 626.928732 141.369941 
L 629.243284 140.375858 
L 630.705107 139.580592 
L 630.705107 139.580592 
L 631.314199 139.381775 
L 631.557837 139.182959 
L 632.288748 138.785325 
L 633.019659 138.586509 
L 634.481482 137.791243 
L 637.039671 136.598343 
L 637.648764 136.20071 
L 644.226965 133.218462 
L 645.688788 132.423195 
L 648.85607 131.031479 
L 652.145171 129.440947 
L 658.479735 126.657515 
L 658.967009 126.259882 
L 660.307013 125.663432 
L 662.499747 124.669349 
L 662.865203 124.669349 
L 663.96157 124.072899 
L 666.397941 123.078817 
L 667.494307 122.482367 
L 670.296134 121.289467 
L 674.437965 119.301302 
L 674.437965 119.301302 
L 675.168876 119.102485 
L 678.457977 117.511953 
L 678.457977 117.511953 
L 678.701614 117.511953 
L 679.797981 117.11432 
L 679.919799 116.915503 
L 680.407073 116.716686 
L 680.407073 116.716686 
L 683.2089 115.523787 
L 685.157997 114.728521 
L 685.767089 114.330888 
L 686.132545 114.330888 
L 686.132545 114.330888 
L 686.376182 114.132071 
L 686.498001 114.132071 
L 686.498001 114.132071 
L 687.35073 113.734438 
L 687.959823 113.535621 
L 693.198021 111.149822 
L 694.90348 110.553373 
L 697.827125 109.161657 
L 699.045311 108.764024 
L 705.988968 105.781775 
L 730.596314 95.840947 
L 730.718133 95.840947 
L 731.205407 95.64213 
L 732.301774 95.04568 
L 736.199967 93.653964 
L 736.321786 93.455148 
L 736.80906 93.455148 
L 737.905427 92.858698 
L 739.245431 92.461065 
L 747.163636 89.28 
L 747.163636 89.28 
" clip-path="url(#p5c40ec2aa6)" style="fill: none; stroke: #ff7f0e; stroke-width: 2; stroke-linecap: square"/>
   </g>
   <g id="patch_3">
    <path d="M 108 512.64 
L 108 69.12 
" style="fill: none; stroke: #000000; stroke-width: 0.8; stroke-linejoin: miter; stroke-linecap: square"/>
   </g>
   <g id="patch_4">
    <path d="M 777.6 512.64 
L 777.6 69.12 
" style="fill: none; stroke: #000000; stroke-width: 0.8; stroke-linejoin: miter; stroke-linecap: square"/>
   </g>
   <g id="patch_5">
    <path d="M 108 512.64 
L 777.6 512.64 
" style="fill: none; stroke: #000000; stroke-width: 0.8; stroke-linejoin: miter; stroke-linecap: square"/>
   </g>
   <g id="patch_6">
    <path d="M 108 69.12 
L 777.6 69.12 
" style="fill: none; stroke: #000000; stroke-width: 0.8; stroke-linejoin: miter; stroke-linecap: square"/>
   </g>
   <g id="text_17">
    <!-- Price by volatility -->
    <g transform="translate(356.74375 63.12) scale(0.2 -0.2)">
     <defs>
      <path id="DejaVuSans-62" d="M 3116 1747 
Q 3116 2381 2855 2742 
Q 2594 3103 2138 3103 
Q 1681 3103 1420 2742 
Q 1159 2381 1159 1747 
Q 1159 1113 1420 752 
Q 1681 391 2138 391 
Q 2594 391 2855 752 
Q 3116 1113 3116 1747 
z
M 1159 2969 
Q 1341 3281 1617 3432 
Q 1894 3584 2278 3584 
Q 2916 3584 3314 3078 
Q 3713 2572 3713 1747 
Q 3713 922 3314 415 
Q 2916 -91 2278 -91 
Q 1894 -91 1617 61 
Q 1341 213 1159 525 
L 1159 0 
L 581 0 
L 581 4863 
L 1159 4863 
L 1159 2969 
z
" transform="scale(0.015625)"/>
      <path id="DejaVuSans-76" d="M 191 3500 
L 800 3500 
L 1894 563 
L 2988 3500 
L 3597 3500 
L 2284 0 
L 1503 0 
L 191 3500 
z
" transform="scale(0.015625)"/>
     </defs>
     <use xlink:href="#DejaVuSans-50"/>
     <use xlink:href="#DejaVuSans-72" x="58.552734"/>
     <use xlink:href="#DejaVuSans-69" x="99.666016"/>
     <use xlink:href="#DejaVuSans-63" x="127.449219"/>
     <use xlink:href="#DejaVuSans-65" x="182.429688"/>
     <use xlink:href="#DejaVuSans-20" x="243.953125"/>
     <use xlink:href="#DejaVuSans-62" x="275.740234"/>
     <use xlink:href="#DejaVuSans-79" x="339.216797"/>
     <use xlink:href="#DejaVuSans-20" x="398.396484"/>
     <use xlink:href="#DejaVuSans-76" x="430.183594"/>
     <use xlink:href="#DejaVuSans-6f" x="489.363281"/>
     <use xlink:href="#DejaVuSans-6c" x="550.544922"/>
     <use xlink:href="#DejaVuSans-61" x="578.328125"/>
     <use xlink:href="#DejaVuSans-74" x="639.607422"/>
     <use xlink:href="#DejaVuSans-69" x="678.816406"/>
     <use xlink:href="#DejaVuSans-6c" x="706.599609"/>
     <use xlink:href="#DejaVuSans-69" x="734.382812"/>
     <use xlink:href="#DejaVuSans-74" x="762.166016"/>
     <use xlink:href="#DejaVuSans-79" x="801.375"/>
    </g>
   </g>
   <g id="legend_1">
    <g id="patch_7">
     <path d="M 120.6 136.36125 
L 282.839062 136.36125 
Q 286.439062 136.36125 286.439062 132.76125 
L 286.439062 81.72 
Q 286.439062 78.12 282.839062 78.12 
L 120.6 78.12 
Q 117 78.12 117 81.72 
L 117 132.76125 
Q 117 136.36125 120.6 136.36125 
z
" style="fill: #ffffff; opacity: 0.8; stroke: #cccccc; stroke-linejoin: miter"/>
    </g>
    <g id="line2d_31">
     <path d="M 124.2 92.697188 
L 142.2 92.697188 
L 160.2 92.697188 
" style="fill: none; stroke: #1f77b4; stroke-width: 2; stroke-linecap: square"/>
    </g>
    <g id="text_18">
     <!-- MC -->
     <g transform="translate(174.6 98.997188) scale(0.18 -0.18)">
      <defs>
       <path id="DejaVuSans-4d" d="M 628 4666 
L 1569 4666 
L 2759 1491 
L 3956 4666 
L 4897 4666 
L 4897 0 
L 4281 0 
L 4281 4097 
L 3078 897 
L 2444 897 
L 1241 4097 
L 1241 0 
L 628 0 
L 628 4666 
z
" transform="scale(0.015625)"/>
       <path id="DejaVuSans-43" d="M 4122 4306 
L 4122 3641 
Q 3803 3938 3442 4084 
Q 3081 4231 2675 4231 
Q 1875 4231 1450 3742 
Q 1025 3253 1025 2328 
Q 1025 1406 1450 917 
Q 1875 428 2675 428 
Q 3081 428 3442 575 
Q 3803 722 4122 1019 
L 4122 359 
Q 3791 134 3420 21 
Q 3050 -91 2638 -91 
Q 1578 -91 968 557 
Q 359 1206 359 2328 
Q 359 3453 968 4101 
Q 1578 4750 2638 4750 
Q 3056 4750 3426 4639 
Q 3797 4528 4122 4306 
z
" transform="scale(0.015625)"/>
      </defs>
      <use xlink:href="#DejaVuSans-4d"/>
      <use xlink:href="#DejaVuSans-43" x="86.279297"/>
     </g>
    </g>
    <g id="line2d_32">
     <path d="M 124.2 119.117813 
L 142.2 119.117813 
L 160.2 119.117813 
" style="fill: none; stroke: #ff7f0e; stroke-width: 2; stroke-linecap: square"/>
    </g>
    <g id="text_19">
     <!-- Positive net -->
     <g transform="translate(174.6 125.417813) scale(0.18 -0.18)">
      <defs>
       <path id="DejaVuSans-6e" d="M 3513 2113 
L 3513 0 
L 2938 0 
L 2938 2094 
Q 2938 2591 2744 2837 
Q 2550 3084 2163 3084 
Q 1697 3084 1428 2787 
Q 1159 2491 1159 1978 
L 1159 0 
L 581 0 
L 581 3500 
L 1159 3500 
L 1159 2956 
Q 1366 3272 1645 3428 
Q 1925 3584 2291 3584 
Q 2894 3584 3203 3211 
Q 3513 2838 3513 2113 
z
" transform="scale(0.015625)"/>
      </defs>
      <use xlink:href="#DejaVuSans-50"/>
      <use xlink:href="#DejaVuSans-6f" x="56.677734"/>
      <use xlink:href="#DejaVuSans-73" x="117.859375"/>
      <use xlink:href="#DejaVuSans-69" x="169.958984"/>
      <use xlink:href="#DejaVuSans-74" x="197.742188"/>
      <use xlink:href="#DejaVuSans-69" x="236.951172"/>
      <use xlink:href="#DejaVuSans-76" x="264.734375"/>
      <use xlink:href="#DejaVuSans-65" x="323.914062"/>
      <use xlink:href="#DejaVuSans-20" x="385.4375"/>
      <use xlink:href="#DejaVuSans-6e" x="417.224609"/>
      <use xlink:href="#DejaVuSans-65" x="480.603516"/>
      <use xlink:href="#DejaVuSans-74" x="542.126953"/>
     </g>
    </g>
   </g>
  </g>
 </g>
 <defs>
  <clipPath id="p5c40ec2aa6">
   <rect x="108" y="69.12" width="669.6" height="443.52"/>
  </clipPath>
 </defs>
</svg>
