<?xml version="1.0" encoding="utf-8" standalone="no"?>
<!DOCTYPE svg PUBLIC "-//W3C//DTD SVG 1.1//EN"
  "http://www.w3.org/Graphics/SVG/1.1/DTD/svg11.dtd">
<svg xmlns:xlink="http://www.w3.org/1999/xlink" width="864pt" height="576pt" viewBox="0 0 864 576" xmlns="http://www.w3.org/2000/svg" version="1.1">
 <metadata>
  <rdf:RDF xmlns:dc="http://purl.org/dc/elements/1.1/" xmlns:cc="http://creativecommons.org/ns#" xmlns:rdf="http://www.w3.org/1999/02/22-rdf-syntax-ns#">
   <cc:Work>
    <dc:type rdf:resource="http://purl.org/dc/dcmitype/StillImage"/>
    <dc:date>2024-02-24T15:13:32.924363</dc:date>
    <dc:format>image/svg+xml</dc:format>
    <dc:creator>
     <cc:Agent>
      <dc:title>Matplotlib v3.7.3, https://matplotlib.org/</dc:title>
     </cc:Agent>
    </dc:creator>
   </cc:Work>
  </rdf:RDF>
 </metadata>
 <defs>
  <style type="text/css">*{stroke-linejoin: round; stroke-linecap: butt}</style>
 </defs>
 <g id="figure_1">
  <g id="patch_1">
   <path d="M 0 576 
L 864 576 
L 864 0 
L 0 0 
z
" style="fill: #ffffff"/>
  </g>
  <g id="axes_1">
   <g id="patch_2">
    <path d="M 108 512.64 
L 777.6 512.64 
L 777.6 69.12 
L 108 69.12 
z
" style="fill: #ffffff"/>
   </g>
   <g id="matplotlib.axis_1">
    <g id="xtick_1">
     <g id="line2d_1">
      <path d="M 199.223818 512.64 
L 199.223818 69.12 
" clip-path="url(#pd7d76a84e9)" style="fill: none; stroke: #b0b0b0; stroke-width: 0.8; stroke-linecap: square"/>
     </g>
     <g id="line2d_2">
      <defs>
       <path id="m1639e847cf" d="M 0 0 
L 0 3.5 
" style="stroke: #000000; stroke-width: 0.8"/>
      </defs>
      <g>
       <use xlink:href="#m1639e847cf" x="199.223818" y="512.64" style="stroke: #000000; stroke-width: 0.8"/>
      </g>
     </g>
     <g id="text_1">
      <!-- 0.1 -->
      <g transform="translate(191.272255 527.238438) scale(0.1 -0.1)">
       <defs>
        <path id="DejaVuSans-30" d="M 2034 4250 
Q 1547 4250 1301 3770 
Q 1056 3291 1056 2328 
Q 1056 1369 1301 889 
Q 1547 409 2034 409 
Q 2525 409 2770 889 
Q 3016 1369 3016 2328 
Q 3016 3291 2770 3770 
Q 2525 4250 2034 4250 
z
M 2034 4750 
Q 2819 4750 3233 4129 
Q 3647 3509 3647 2328 
Q 3647 1150 3233 529 
Q 2819 -91 2034 -91 
Q 1250 -91 836 529 
Q 422 1150 422 2328 
Q 422 3509 836 4129 
Q 1250 4750 2034 4750 
z
" transform="scale(0.015625)"/>
        <path id="DejaVuSans-2e" d="M 684 794 
L 1344 794 
L 1344 0 
L 684 0 
L 684 794 
z
" transform="scale(0.015625)"/>
        <path id="DejaVuSans-31" d="M 794 531 
L 1825 531 
L 1825 4091 
L 703 3866 
L 703 4441 
L 1819 4666 
L 2450 4666 
L 2450 531 
L 3481 531 
L 3481 0 
L 794 0 
L 794 531 
z
" transform="scale(0.015625)"/>
       </defs>
       <use xlink:href="#DejaVuSans-30"/>
       <use xlink:href="#DejaVuSans-2e" x="63.623047"/>
       <use xlink:href="#DejaVuSans-31" x="95.410156"/>
      </g>
     </g>
    </g>
    <g id="xtick_2">
     <g id="line2d_3">
      <path d="M 321.042364 512.64 
L 321.042364 69.12 
" clip-path="url(#pd7d76a84e9)" style="fill: none; stroke: #b0b0b0; stroke-width: 0.8; stroke-linecap: square"/>
     </g>
     <g id="line2d_4">
      <g>
       <use xlink:href="#m1639e847cf" x="321.042364" y="512.64" style="stroke: #000000; stroke-width: 0.8"/>
      </g>
     </g>
     <g id="text_2">
      <!-- 0.2 -->
      <g transform="translate(313.090801 527.238438) scale(0.1 -0.1)">
       <defs>
        <path id="DejaVuSans-32" d="M 1228 531 
L 3431 531 
L 3431 0 
L 469 0 
L 469 531 
Q 828 903 1448 1529 
Q 2069 2156 2228 2338 
Q 2531 2678 2651 2914 
Q 2772 3150 2772 3378 
Q 2772 3750 2511 3984 
Q 2250 4219 1831 4219 
Q 1534 4219 1204 4116 
Q 875 4013 500 3803 
L 500 4441 
Q 881 4594 1212 4672 
Q 1544 4750 1819 4750 
Q 2544 4750 2975 4387 
Q 3406 4025 3406 3419 
Q 3406 3131 3298 2873 
Q 3191 2616 2906 2266 
Q 2828 2175 2409 1742 
Q 1991 1309 1228 531 
z
" transform="scale(0.015625)"/>
       </defs>
       <use xlink:href="#DejaVuSans-30"/>
       <use xlink:href="#DejaVuSans-2e" x="63.623047"/>
       <use xlink:href="#DejaVuSans-32" x="95.410156"/>
      </g>
     </g>
    </g>
    <g id="xtick_3">
     <g id="line2d_5">
      <path d="M 442.860909 512.64 
L 442.860909 69.12 
" clip-path="url(#pd7d76a84e9)" style="fill: none; stroke: #b0b0b0; stroke-width: 0.8; stroke-linecap: square"/>
     </g>
     <g id="line2d_6">
      <g>
       <use xlink:href="#m1639e847cf" x="442.860909" y="512.64" style="stroke: #000000; stroke-width: 0.8"/>
      </g>
     </g>
     <g id="text_3">
      <!-- 0.3 -->
      <g transform="translate(434.909347 527.238438) scale(0.1 -0.1)">
       <defs>
        <path id="DejaVuSans-33" d="M 2597 2516 
Q 3050 2419 3304 2112 
Q 3559 1806 3559 1356 
Q 3559 666 3084 287 
Q 2609 -91 1734 -91 
Q 1441 -91 1130 -33 
Q 819 25 488 141 
L 488 750 
Q 750 597 1062 519 
Q 1375 441 1716 441 
Q 2309 441 2620 675 
Q 2931 909 2931 1356 
Q 2931 1769 2642 2001 
Q 2353 2234 1838 2234 
L 1294 2234 
L 1294 2753 
L 1863 2753 
Q 2328 2753 2575 2939 
Q 2822 3125 2822 3475 
Q 2822 3834 2567 4026 
Q 2313 4219 1838 4219 
Q 1578 4219 1281 4162 
Q 984 4106 628 3988 
L 628 4550 
Q 988 4650 1302 4700 
Q 1616 4750 1894 4750 
Q 2613 4750 3031 4423 
Q 3450 4097 3450 3541 
Q 3450 3153 3228 2886 
Q 3006 2619 2597 2516 
z
" transform="scale(0.015625)"/>
       </defs>
       <use xlink:href="#DejaVuSans-30"/>
       <use xlink:href="#DejaVuSans-2e" x="63.623047"/>
       <use xlink:href="#DejaVuSans-33" x="95.410156"/>
      </g>
     </g>
    </g>
    <g id="xtick_4">
     <g id="line2d_7">
      <path d="M 564.679455 512.64 
L 564.679455 69.12 
" clip-path="url(#pd7d76a84e9)" style="fill: none; stroke: #b0b0b0; stroke-width: 0.8; stroke-linecap: square"/>
     </g>
     <g id="line2d_8">
      <g>
       <use xlink:href="#m1639e847cf" x="564.679455" y="512.64" style="stroke: #000000; stroke-width: 0.8"/>
      </g>
     </g>
     <g id="text_4">
      <!-- 0.4 -->
      <g transform="translate(556.727892 527.238438) scale(0.1 -0.1)">
       <defs>
        <path id="DejaVuSans-34" d="M 2419 4116 
L 825 1625 
L 2419 1625 
L 2419 4116 
z
M 2253 4666 
L 3047 4666 
L 3047 1625 
L 3713 1625 
L 3713 1100 
L 3047 1100 
L 3047 0 
L 2419 0 
L 2419 1100 
L 313 1100 
L 313 1709 
L 2253 4666 
z
" transform="scale(0.015625)"/>
       </defs>
       <use xlink:href="#DejaVuSans-30"/>
       <use xlink:href="#DejaVuSans-2e" x="63.623047"/>
       <use xlink:href="#DejaVuSans-34" x="95.410156"/>
      </g>
     </g>
    </g>
    <g id="xtick_5">
     <g id="line2d_9">
      <path d="M 686.498001 512.64 
L 686.498001 69.12 
" clip-path="url(#pd7d76a84e9)" style="fill: none; stroke: #b0b0b0; stroke-width: 0.8; stroke-linecap: square"/>
     </g>
     <g id="line2d_10">
      <g>
       <use xlink:href="#m1639e847cf" x="686.498001" y="512.64" style="stroke: #000000; stroke-width: 0.8"/>
      </g>
     </g>
     <g id="text_5">
      <!-- 0.5 -->
      <g transform="translate(678.546438 527.238438) scale(0.1 -0.1)">
       <defs>
        <path id="DejaVuSans-35" d="M 691 4666 
L 3169 4666 
L 3169 4134 
L 1269 4134 
L 1269 2991 
Q 1406 3038 1543 3061 
Q 1681 3084 1819 3084 
Q 2600 3084 3056 2656 
Q 3513 2228 3513 1497 
Q 3513 744 3044 326 
Q 2575 -91 1722 -91 
Q 1428 -91 1123 -41 
Q 819 9 494 109 
L 494 744 
Q 775 591 1075 516 
Q 1375 441 1709 441 
Q 2250 441 2565 725 
Q 2881 1009 2881 1497 
Q 2881 1984 2565 2268 
Q 2250 2553 1709 2553 
Q 1456 2553 1204 2497 
Q 953 2441 691 2322 
L 691 4666 
z
" transform="scale(0.015625)"/>
       </defs>
       <use xlink:href="#DejaVuSans-30"/>
       <use xlink:href="#DejaVuSans-2e" x="63.623047"/>
       <use xlink:href="#DejaVuSans-35" x="95.410156"/>
      </g>
     </g>
    </g>
    <g id="text_6">
     <!-- Volatility -->
     <g transform="translate(403.934062 546.995312) scale(0.18 -0.18)">
      <defs>
       <path id="DejaVuSans-56" d="M 1831 0 
L 50 4666 
L 709 4666 
L 2188 738 
L 3669 4666 
L 4325 4666 
L 2547 0 
L 1831 0 
z
" transform="scale(0.015625)"/>
       <path id="DejaVuSans-6f" d="M 1959 3097 
Q 1497 3097 1228 2736 
Q 959 2375 959 1747 
Q 959 1119 1226 758 
Q 1494 397 1959 397 
Q 2419 397 2687 759 
Q 2956 1122 2956 1747 
Q 2956 2369 2687 2733 
Q 2419 3097 1959 3097 
z
M 1959 3584 
Q 2709 3584 3137 3096 
Q 3566 2609 3566 1747 
Q 3566 888 3137 398 
Q 2709 -91 1959 -91 
Q 1206 -91 779 398 
Q 353 888 353 1747 
Q 353 2609 779 3096 
Q 1206 3584 1959 3584 
z
" transform="scale(0.015625)"/>
       <path id="DejaVuSans-6c" d="M 603 4863 
L 1178 4863 
L 1178 0 
L 603 0 
L 603 4863 
z
" transform="scale(0.015625)"/>
       <path id="DejaVuSans-61" d="M 2194 1759 
Q 1497 1759 1228 1600 
Q 959 1441 959 1056 
Q 959 750 1161 570 
Q 1363 391 1709 391 
Q 2188 391 2477 730 
Q 2766 1069 2766 1631 
L 2766 1759 
L 2194 1759 
z
M 3341 1997 
L 3341 0 
L 2766 0 
L 2766 531 
Q 2569 213 2275 61 
Q 1981 -91 1556 -91 
Q 1019 -91 701 211 
Q 384 513 384 1019 
Q 384 1609 779 1909 
Q 1175 2209 1959 2209 
L 2766 2209 
L 2766 2266 
Q 2766 2663 2505 2880 
Q 2244 3097 1772 3097 
Q 1472 3097 1187 3025 
Q 903 2953 641 2809 
L 641 3341 
Q 956 3463 1253 3523 
Q 1550 3584 1831 3584 
Q 2591 3584 2966 3190 
Q 3341 2797 3341 1997 
z
" transform="scale(0.015625)"/>
       <path id="DejaVuSans-74" d="M 1172 4494 
L 1172 3500 
L 2356 3500 
L 2356 3053 
L 1172 3053 
L 1172 1153 
Q 1172 725 1289 603 
Q 1406 481 1766 481 
L 2356 481 
L 2356 0 
L 1766 0 
Q 1100 0 847 248 
Q 594 497 594 1153 
L 594 3053 
L 172 3053 
L 172 3500 
L 594 3500 
L 594 4494 
L 1172 4494 
z
" transform="scale(0.015625)"/>
       <path id="DejaVuSans-69" d="M 603 3500 
L 1178 3500 
L 1178 0 
L 603 0 
L 603 3500 
z
M 603 4863 
L 1178 4863 
L 1178 4134 
L 603 4134 
L 603 4863 
z
" transform="scale(0.015625)"/>
       <path id="DejaVuSans-79" d="M 2059 -325 
Q 1816 -950 1584 -1140 
Q 1353 -1331 966 -1331 
L 506 -1331 
L 506 -850 
L 844 -850 
Q 1081 -850 1212 -737 
Q 1344 -625 1503 -206 
L 1606 56 
L 191 3500 
L 800 3500 
L 1894 763 
L 2988 3500 
L 3597 3500 
L 2059 -325 
z
" transform="scale(0.015625)"/>
      </defs>
      <use xlink:href="#DejaVuSans-56"/>
      <use xlink:href="#DejaVuSans-6f" x="60.658203"/>
      <use xlink:href="#DejaVuSans-6c" x="121.839844"/>
      <use xlink:href="#DejaVuSans-61" x="149.623047"/>
      <use xlink:href="#DejaVuSans-74" x="210.902344"/>
      <use xlink:href="#DejaVuSans-69" x="250.111328"/>
      <use xlink:href="#DejaVuSans-6c" x="277.894531"/>
      <use xlink:href="#DejaVuSans-69" x="305.677734"/>
      <use xlink:href="#DejaVuSans-74" x="333.460938"/>
      <use xlink:href="#DejaVuSans-79" x="372.669922"/>
     </g>
    </g>
   </g>
   <g id="matplotlib.axis_2">
    <g id="ytick_1">
     <g id="line2d_11">
      <path d="M 108 490.952727 
L 777.6 490.952727 
" clip-path="url(#pd7d76a84e9)" style="fill: none; stroke: #b0b0b0; stroke-width: 0.8; stroke-linecap: square"/>
     </g>
     <g id="line2d_12">
      <defs>
       <path id="mda6812c65f" d="M 0 0 
L -3.5 0 
" style="stroke: #000000; stroke-width: 0.8"/>
      </defs>
      <g>
       <use xlink:href="#mda6812c65f" x="108" y="490.952727" style="stroke: #000000; stroke-width: 0.8"/>
      </g>
     </g>
     <g id="text_7">
      <!-- 0.00 -->
      <g transform="translate(78.734375 494.751946) scale(0.1 -0.1)">
       <use xlink:href="#DejaVuSans-30"/>
       <use xlink:href="#DejaVuSans-2e" x="63.623047"/>
       <use xlink:href="#DejaVuSans-30" x="95.410156"/>
       <use xlink:href="#DejaVuSans-30" x="159.033203"/>
      </g>
     </g>
    </g>
    <g id="ytick_2">
     <g id="line2d_13">
      <path d="M 108 414.589091 
L 777.6 414.589091 
" clip-path="url(#pd7d76a84e9)" style="fill: none; stroke: #b0b0b0; stroke-width: 0.8; stroke-linecap: square"/>
     </g>
     <g id="line2d_14">
      <g>
       <use xlink:href="#mda6812c65f" x="108" y="414.589091" style="stroke: #000000; stroke-width: 0.8"/>
      </g>
     </g>
     <g id="text_8">
      <!-- 0.01 -->
      <g transform="translate(78.734375 418.38831) scale(0.1 -0.1)">
       <use xlink:href="#DejaVuSans-30"/>
       <use xlink:href="#DejaVuSans-2e" x="63.623047"/>
       <use xlink:href="#DejaVuSans-30" x="95.410156"/>
       <use xlink:href="#DejaVuSans-31" x="159.033203"/>
      </g>
     </g>
    </g>
    <g id="ytick_3">
     <g id="line2d_15">
      <path d="M 108 338.225455 
L 777.6 338.225455 
" clip-path="url(#pd7d76a84e9)" style="fill: none; stroke: #b0b0b0; stroke-width: 0.8; stroke-linecap: square"/>
     </g>
     <g id="line2d_16">
      <g>
       <use xlink:href="#mda6812c65f" x="108" y="338.225455" style="stroke: #000000; stroke-width: 0.8"/>
      </g>
     </g>
     <g id="text_9">
      <!-- 0.02 -->
      <g transform="translate(78.734375 342.024673) scale(0.1 -0.1)">
       <use xlink:href="#DejaVuSans-30"/>
       <use xlink:href="#DejaVuSans-2e" x="63.623047"/>
       <use xlink:href="#DejaVuSans-30" x="95.410156"/>
       <use xlink:href="#DejaVuSans-32" x="159.033203"/>
      </g>
     </g>
    </g>
    <g id="ytick_4">
     <g id="line2d_17">
      <path d="M 108 261.861818 
L 777.6 261.861818 
" clip-path="url(#pd7d76a84e9)" style="fill: none; stroke: #b0b0b0; stroke-width: 0.8; stroke-linecap: square"/>
     </g>
     <g id="line2d_18">
      <g>
       <use xlink:href="#mda6812c65f" x="108" y="261.861818" style="stroke: #000000; stroke-width: 0.8"/>
      </g>
     </g>
     <g id="text_10">
      <!-- 0.03 -->
      <g transform="translate(78.734375 265.661037) scale(0.1 -0.1)">
       <use xlink:href="#DejaVuSans-30"/>
       <use xlink:href="#DejaVuSans-2e" x="63.623047"/>
       <use xlink:href="#DejaVuSans-30" x="95.410156"/>
       <use xlink:href="#DejaVuSans-33" x="159.033203"/>
      </g>
     </g>
    </g>
    <g id="ytick_5">
     <g id="line2d_19">
      <path d="M 108 185.498182 
L 777.6 185.498182 
" clip-path="url(#pd7d76a84e9)" style="fill: none; stroke: #b0b0b0; stroke-width: 0.8; stroke-linecap: square"/>
     </g>
     <g id="line2d_20">
      <g>
       <use xlink:href="#mda6812c65f" x="108" y="185.498182" style="stroke: #000000; stroke-width: 0.8"/>
      </g>
     </g>
     <g id="text_11">
      <!-- 0.04 -->
      <g transform="translate(78.734375 189.297401) scale(0.1 -0.1)">
       <use xlink:href="#DejaVuSans-30"/>
       <use xlink:href="#DejaVuSans-2e" x="63.623047"/>
       <use xlink:href="#DejaVuSans-30" x="95.410156"/>
       <use xlink:href="#DejaVuSans-34" x="159.033203"/>
      </g>
     </g>
    </g>
    <g id="ytick_6">
     <g id="line2d_21">
      <path d="M 108 109.134545 
L 777.6 109.134545 
" clip-path="url(#pd7d76a84e9)" style="fill: none; stroke: #b0b0b0; stroke-width: 0.8; stroke-linecap: square"/>
     </g>
     <g id="line2d_22">
      <g>
       <use xlink:href="#mda6812c65f" x="108" y="109.134545" style="stroke: #000000; stroke-width: 0.8"/>
      </g>
     </g>
     <g id="text_12">
      <!-- 0.05 -->
      <g transform="translate(78.734375 112.933764) scale(0.1 -0.1)">
       <use xlink:href="#DejaVuSans-30"/>
       <use xlink:href="#DejaVuSans-2e" x="63.623047"/>
       <use xlink:href="#DejaVuSans-30" x="95.410156"/>
       <use xlink:href="#DejaVuSans-35" x="159.033203"/>
      </g>
     </g>
    </g>
    <g id="text_13">
     <!-- Price/strike ratio -->
     <g transform="translate(70.990938 364.318594) rotate(-90) scale(0.18 -0.18)">
      <defs>
       <path id="DejaVuSans-50" d="M 1259 4147 
L 1259 2394 
L 2053 2394 
Q 2494 2394 2734 2622 
Q 2975 2850 2975 3272 
Q 2975 3691 2734 3919 
Q 2494 4147 2053 4147 
L 1259 4147 
z
M 628 4666 
L 2053 4666 
Q 2838 4666 3239 4311 
Q 3641 3956 3641 3272 
Q 3641 2581 3239 2228 
Q 2838 1875 2053 1875 
L 1259 1875 
L 1259 0 
L 628 0 
L 628 4666 
z
" transform="scale(0.015625)"/>
       <path id="DejaVuSans-72" d="M 2631 2963 
Q 2534 3019 2420 3045 
Q 2306 3072 2169 3072 
Q 1681 3072 1420 2755 
Q 1159 2438 1159 1844 
L 1159 0 
L 581 0 
L 581 3500 
L 1159 3500 
L 1159 2956 
Q 1341 3275 1631 3429 
Q 1922 3584 2338 3584 
Q 2397 3584 2469 3576 
Q 2541 3569 2628 3553 
L 2631 2963 
z
" transform="scale(0.015625)"/>
       <path id="DejaVuSans-63" d="M 3122 3366 
L 3122 2828 
Q 2878 2963 2633 3030 
Q 2388 3097 2138 3097 
Q 1578 3097 1268 2742 
Q 959 2388 959 1747 
Q 959 1106 1268 751 
Q 1578 397 2138 397 
Q 2388 397 2633 464 
Q 2878 531 3122 666 
L 3122 134 
Q 2881 22 2623 -34 
Q 2366 -91 2075 -91 
Q 1284 -91 818 406 
Q 353 903 353 1747 
Q 353 2603 823 3093 
Q 1294 3584 2113 3584 
Q 2378 3584 2631 3529 
Q 2884 3475 3122 3366 
z
" transform="scale(0.015625)"/>
       <path id="DejaVuSans-65" d="M 3597 1894 
L 3597 1613 
L 953 1613 
Q 991 1019 1311 708 
Q 1631 397 2203 397 
Q 2534 397 2845 478 
Q 3156 559 3463 722 
L 3463 178 
Q 3153 47 2828 -22 
Q 2503 -91 2169 -91 
Q 1331 -91 842 396 
Q 353 884 353 1716 
Q 353 2575 817 3079 
Q 1281 3584 2069 3584 
Q 2775 3584 3186 3129 
Q 3597 2675 3597 1894 
z
M 3022 2063 
Q 3016 2534 2758 2815 
Q 2500 3097 2075 3097 
Q 1594 3097 1305 2825 
Q 1016 2553 972 2059 
L 3022 2063 
z
" transform="scale(0.015625)"/>
       <path id="DejaVuSans-2f" d="M 1625 4666 
L 2156 4666 
L 531 -594 
L 0 -594 
L 1625 4666 
z
" transform="scale(0.015625)"/>
       <path id="DejaVuSans-73" d="M 2834 3397 
L 2834 2853 
Q 2591 2978 2328 3040 
Q 2066 3103 1784 3103 
Q 1356 3103 1142 2972 
Q 928 2841 928 2578 
Q 928 2378 1081 2264 
Q 1234 2150 1697 2047 
L 1894 2003 
Q 2506 1872 2764 1633 
Q 3022 1394 3022 966 
Q 3022 478 2636 193 
Q 2250 -91 1575 -91 
Q 1294 -91 989 -36 
Q 684 19 347 128 
L 347 722 
Q 666 556 975 473 
Q 1284 391 1588 391 
Q 1994 391 2212 530 
Q 2431 669 2431 922 
Q 2431 1156 2273 1281 
Q 2116 1406 1581 1522 
L 1381 1569 
Q 847 1681 609 1914 
Q 372 2147 372 2553 
Q 372 3047 722 3315 
Q 1072 3584 1716 3584 
Q 2034 3584 2315 3537 
Q 2597 3491 2834 3397 
z
" transform="scale(0.015625)"/>
       <path id="DejaVuSans-6b" d="M 581 4863 
L 1159 4863 
L 1159 1991 
L 2875 3500 
L 3609 3500 
L 1753 1863 
L 3688 0 
L 2938 0 
L 1159 1709 
L 1159 0 
L 581 0 
L 581 4863 
z
" transform="scale(0.015625)"/>
       <path id="DejaVuSans-20" transform="scale(0.015625)"/>
      </defs>
      <use xlink:href="#DejaVuSans-50"/>
      <use xlink:href="#DejaVuSans-72" x="58.552734"/>
      <use xlink:href="#DejaVuSans-69" x="99.666016"/>
      <use xlink:href="#DejaVuSans-63" x="127.449219"/>
      <use xlink:href="#DejaVuSans-65" x="182.429688"/>
      <use xlink:href="#DejaVuSans-2f" x="243.953125"/>
      <use xlink:href="#DejaVuSans-73" x="277.644531"/>
      <use xlink:href="#DejaVuSans-74" x="329.744141"/>
      <use xlink:href="#DejaVuSans-72" x="368.953125"/>
      <use xlink:href="#DejaVuSans-69" x="410.066406"/>
      <use xlink:href="#DejaVuSans-6b" x="437.849609"/>
      <use xlink:href="#DejaVuSans-65" x="492.134766"/>
      <use xlink:href="#DejaVuSans-20" x="553.658203"/>
      <use xlink:href="#DejaVuSans-72" x="585.445312"/>
      <use xlink:href="#DejaVuSans-61" x="626.558594"/>
      <use xlink:href="#DejaVuSans-74" x="687.837891"/>
      <use xlink:href="#DejaVuSans-69" x="727.046875"/>
      <use xlink:href="#DejaVuSans-6f" x="754.830078"/>
     </g>
    </g>
   </g>
   <g id="line2d_23">
    <path d="M 138.436364 490.952727 
L 144.283654 490.952727 
L 146.720025 490.189091 
L 147.08548 491.716364 
L 147.329117 490.952727 
L 153.054589 490.952727 
L 153.420045 491.716364 
L 153.907319 490.952727 
L 155.612779 490.952727 
L 156.709145 491.716364 
L 157.318238 490.952727 
L 159.510972 490.952727 
L 160.972795 490.189091 
L 161.703706 490.952727 
L 162.069161 490.189091 
L 162.556436 490.952727 
L 173.032831 490.952727 
L 174.494653 490.189091 
L 175.59102 491.716364 
L 177.052843 490.952727 
L 177.418298 490.952727 
L 177.418298 491.716364 
L 178.271028 490.952727 
L 179.611032 490.952727 
L 179.611032 490.952727 
L 181.194673 490.189091 
L 181.560129 490.952727 
L 184.240137 490.952727 
L 184.361955 490.189091 
L 185.580141 490.952727 
L 187.2856 490.952727 
L 187.2856 490.189091 
L 187.529238 490.952727 
L 189.112879 491.716364 
L 189.112879 490.189091 
L 191.061975 490.952727 
L 191.427431 490.952727 
L 192.158342 490.189091 
L 193.132891 490.952727 
L 193.376528 491.716364 
L 193.620165 491.716364 
L 193.741983 490.952727 
L 194.351076 491.716364 
L 195.69108 491.716364 
L 196.300173 490.952727 
L 198.858362 490.952727 
L 198.858362 491.716364 
L 198.980181 490.952727 
L 200.442003 491.716364 
L 201.53837 490.189091 
L 202.025644 490.189091 
L 202.878374 489.425455 
L 203.974741 490.952727 
L 204.462015 490.952727 
L 204.827471 490.189091 
L 206.167475 490.952727 
L 206.411112 490.189091 
L 207.38566 490.189091 
L 209.212939 490.952727 
L 209.334757 489.425455 
L 209.456576 490.952727 
L 210.187487 490.952727 
L 213.842043 490.189091 
L 215.425685 489.425455 
L 215.425685 492.48 
L 215.669322 491.716364 
L 215.912959 491.716364 
L 216.034777 490.952727 
L 216.400233 491.716364 
L 217.009326 490.189091 
L 217.374781 491.716364 
L 218.227511 492.48 
L 218.471148 490.189091 
L 219.445697 491.716364 
L 220.542063 490.952727 
L 223.100253 490.952727 
L 223.222071 490.189091 
L 223.587527 490.952727 
L 224.562075 490.952727 
L 224.805713 490.189091 
L 225.414805 490.952727 
L 226.023898 490.952727 
L 226.389354 491.716364 
L 226.389354 490.189091 
L 226.632991 490.952727 
L 226.632991 490.952727 
L 227.363902 491.716364 
L 228.947543 490.189091 
L 229.069362 491.716364 
L 229.800273 490.952727 
L 230.287547 490.189091 
L 230.531184 492.48 
L 230.531184 490.952727 
L 230.653003 490.189091 
L 231.018458 490.189091 
L 231.74937 490.952727 
L 231.74937 490.952727 
L 232.236644 490.952727 
L 234.185741 490.189091 
L 234.794833 490.189091 
L 234.794833 490.189091 
L 236.013019 490.952727 
L 236.013019 490.189091 
L 237.718478 490.189091 
L 237.840297 491.716364 
L 239.423938 491.716364 
L 241.007579 490.189091 
L 241.982127 489.425455 
L 244.053043 490.189091 
L 245.514865 489.425455 
L 246.123958 490.189091 
L 246.976688 489.425455 
L 247.342143 489.425455 
L 247.463962 491.716364 
L 247.463962 490.952727 
L 247.585781 490.189091 
L 248.073055 490.189091 
L 248.073055 488.661818 
L 248.316692 492.48 
L 248.682147 490.189091 
L 248.803966 490.189091 
L 249.047603 489.425455 
L 249.413059 491.716364 
L 249.534877 490.952727 
L 250.631244 489.425455 
L 250.631244 490.952727 
L 250.631244 489.425455 
L 251.84943 490.189091 
L 253.798526 490.952727 
L 255.016712 490.952727 
L 257.818538 491.716364 
L 258.305813 490.952727 
L 259.158542 490.189091 
L 259.645817 490.952727 
L 261.960369 489.425455 
L 264.39674 490.189091 
L 264.518558 487.134545 
L 265.371288 490.952727 
L 266.1022 487.898182 
L 267.929478 487.134545 
L 269.147663 488.661818 
L 270.122212 489.425455 
L 270.487667 487.898182 
L 271.340397 488.661818 
L 272.071308 488.661818 
L 272.436764 487.898182 
L 272.558582 488.661818 
L 273.289494 488.661818 
L 273.289494 490.189091 
L 273.654949 490.189091 
L 274.873135 490.952727 
L 275.604046 484.08 
L 277.553143 491.716364 
L 277.674961 487.898182 
L 277.674961 488.661818 
L 277.79678 489.425455 
L 278.162236 489.425455 
L 278.162236 488.661818 
L 278.162236 488.661818 
L 278.284054 489.425455 
L 279.380421 489.425455 
L 279.624058 488.661818 
L 280.111332 488.661818 
L 280.476788 487.134545 
L 281.329518 490.952727 
L 281.573155 489.425455 
L 281.573155 490.189091 
L 282.060429 486.370909 
L 283.278614 487.134545 
L 283.278614 487.134545 
L 283.765889 487.898182 
L 284.253163 487.898182 
L 286.567715 485.607273 
L 286.811352 490.189091 
L 287.054989 489.425455 
L 287.298626 486.370909 
L 287.542264 486.370909 
L 287.542264 487.898182 
L 288.63863 484.843636 
L 288.760449 487.898182 
L 289.247723 487.898182 
L 291.19682 485.607273 
L 293.267735 486.370909 
L 295.216832 485.607273 
L 297.04411 484.843636 
L 297.775021 487.134545 
L 298.262296 484.843636 
L 298.262296 484.08 
L 298.505933 486.370909 
L 299.358662 487.898182 
L 299.724118 483.316364 
L 299.724118 486.370909 
L 299.845937 487.898182 
L 299.967755 483.316364 
L 300.333211 485.607273 
L 300.942304 485.607273 
L 301.551396 481.025455 
L 302.404126 484.843636 
L 303.987767 487.898182 
L 304.109586 481.789091 
L 305.205953 485.607273 
L 305.327771 480.261818 
L 306.545957 484.08 
L 307.520505 484.08 
L 307.764142 485.607273 
L 308.373235 480.261818 
L 308.616872 489.425455 
L 309.225965 488.661818 
L 311.905973 482.552727 
L 311.905973 483.316364 
L 312.271428 480.261818 
L 313.245977 487.134545 
L 314.829618 483.316364 
L 315.073255 484.08 
L 315.925985 481.025455 
L 316.29144 481.789091 
L 316.535077 477.970909 
L 316.900533 484.08 
L 316.900533 481.789091 
L 317.387807 478.734545 
L 317.753263 478.734545 
L 317.9969 483.316364 
L 319.093267 483.316364 
L 320.676908 480.261818 
L 322.382368 481.789091 
L 322.747823 478.734545 
L 323.113279 484.08 
L 323.722372 477.970909 
L 323.966009 481.025455 
L 326.889654 474.152727 
L 326.889654 482.552727 
L 327.986021 481.789091 
L 328.838751 481.789091 
L 329.082388 476.443636 
L 329.447843 480.261818 
L 330.422392 482.552727 
L 330.909666 477.207273 
L 330.909666 477.970909 
L 331.39694 481.025455 
L 332.371488 478.734545 
L 332.493307 478.734545 
L 334.320585 476.443636 
L 334.807859 477.207273 
L 334.929678 474.152727 
L 335.538771 474.152727 
L 336.269682 477.970909 
L 338.462416 481.025455 
L 338.827871 477.970909 
L 338.827871 480.261818 
L 340.167875 477.207273 
L 341.873335 478.734545 
L 341.995153 472.625455 
L 341.995153 472.625455 
L 342.360609 474.916364 
L 342.969702 477.970909 
L 343.213339 472.625455 
L 343.335157 478.734545 
L 343.700613 477.207273 
L 343.94425 480.261818 
L 344.553343 476.443636 
L 344.918799 472.625455 
L 344.918799 474.916364 
L 345.64971 472.625455 
L 346.380621 474.152727 
L 346.746077 478.734545 
L 347.233351 469.570909 
L 348.938811 476.443636 
L 350.035177 471.098182 
L 351.009726 468.043636 
L 351.131544 464.225455 
L 351.253363 473.389091 
L 352.715185 472.625455 
L 352.715185 474.916364 
L 353.446097 474.916364 
L 353.446097 471.098182 
L 353.811552 474.916364 
L 355.395193 471.098182 
L 355.882468 469.570909 
L 356.126105 468.043636 
L 357.34429 472.625455 
L 357.466109 475.68 
L 357.709746 467.28 
L 357.831564 467.28 
L 359.658843 470.334545 
L 360.267935 471.098182 
L 360.389754 466.516364 
L 360.877028 470.334545 
L 362.095213 477.970909 
L 362.460669 468.043636 
L 362.826125 462.698182 
L 363.069762 463.461818 
L 364.04431 461.170909 
L 364.04431 471.098182 
L 364.775221 466.516364 
L 365.018859 470.334545 
L 365.506133 465.752727 
L 365.871588 468.807273 
L 365.993407 468.807273 
L 367.577048 465.752727 
L 367.698867 464.225455 
L 369.038871 466.516364 
L 370.013419 469.570909 
L 370.378875 463.461818 
L 370.622512 461.934545 
L 370.987967 463.461818 
L 372.693427 456.589091 
L 372.815246 471.861818 
L 372.815246 463.461818 
L 373.424338 455.825455 
L 374.642524 458.88 
L 374.886161 461.934545 
L 375.007979 461.934545 
L 376.347983 468.807273 
L 377.809806 469.570909 
L 378.175262 457.352727 
L 379.637084 464.989091 
L 379.637084 458.116364 
L 379.758903 458.88 
L 380.733451 460.407273 
L 380.977088 461.170909 
L 382.317092 473.389091 
L 383.900733 464.225455 
L 383.900733 462.698182 
L 384.509826 459.643636 
L 385.118919 457.352727 
L 385.484374 460.407273 
L 385.606193 458.116364 
L 386.215286 450.48 
L 386.337104 464.989091 
L 387.189834 463.461818 
L 387.433471 452.007273 
L 387.677108 448.952727 
L 387.677108 458.116364 
L 389.504386 453.534545 
L 390.600753 464.225455 
L 390.84439 461.934545 
L 391.331664 452.007273 
L 392.793487 448.189091 
L 393.40258 452.007273 
L 393.40258 456.589091 
L 393.524398 464.225455 
L 393.524398 455.825455 
L 393.768035 448.952727 
L 394.498947 461.170909 
L 395.229858 450.48 
L 395.229858 455.825455 
L 395.717132 451.243636 
L 396.204406 447.425455 
L 396.813499 452.007273 
L 397.178955 455.825455 
L 397.54441 444.370909 
L 397.666229 450.48 
L 398.275322 455.061818 
L 398.518959 449.716364 
L 399.493507 448.189091 
L 399.615326 451.243636 
L 399.615326 445.134545 
L 399.737144 442.08 
L 400.1026 458.88 
L 400.711692 451.243636 
L 400.833511 439.025455 
L 401.320785 449.716364 
L 402.051696 445.898182 
L 403.513519 451.243636 
L 404.366249 452.007273 
L 404.731704 439.789091 
L 405.94989 443.607273 
L 405.94989 439.025455 
L 405.94989 444.370909 
L 406.680801 439.025455 
L 407.168075 449.716364 
L 408.751716 445.898182 
L 409.360809 454.298182 
L 409.726265 442.843636 
L 410.335358 444.370909 
L 413.50264 442.843636 
L 413.868095 449.716364 
L 414.111732 437.498182 
L 414.477188 436.734545 
L 414.477188 440.552727 
L 415.451736 446.661818 
L 416.426285 438.261818 
L 417.157196 446.661818 
L 417.400833 442.08 
L 418.984474 432.152727 
L 419.106293 445.134545 
L 419.593567 432.916364 
L 419.715386 438.261818 
L 420.080841 438.261818 
L 421.420845 435.970909 
L 422.029938 432.916364 
L 422.273575 439.789091 
L 422.273575 451.243636 
L 422.395394 441.316364 
L 423.491761 447.425455 
L 423.613579 442.843636 
L 423.613579 434.443636 
L 424.222672 443.607273 
L 424.466309 444.370909 
L 425.319039 431.389091 
L 425.806313 434.443636 
L 428.364502 437.498182 
L 429.217232 431.389091 
L 429.704506 437.498182 
L 429.826325 426.807273 
L 430.435418 431.389091 
L 430.800873 429.861818 
L 430.922692 425.28 
L 432.506333 433.68 
L 432.871789 427.570909 
L 433.480881 426.043636 
L 433.846337 426.043636 
L 434.089974 417.643636 
L 435.551797 428.334545 
L 435.795434 407.716364 
L 436.160889 422.225455 
L 437.013619 424.516364 
L 438.109986 442.843636 
L 438.231805 422.989091 
L 438.962716 421.461818 
L 439.937264 427.570909 
L 440.911813 430.625455 
L 441.520905 429.861818 
L 441.520905 422.989091 
L 441.886361 431.389091 
L 442.495454 429.098182 
L 443.348183 415.352727 
L 443.957276 423.752727 
L 443.957276 432.916364 
L 444.566369 428.334545 
L 444.566369 419.170909 
L 445.29728 438.261818 
L 445.419099 422.989091 
L 446.393647 427.570909 
L 447.733651 422.225455 
L 448.220925 421.461818 
L 448.951837 419.170909 
L 449.073655 428.334545 
L 449.073655 425.28 
L 450.657296 422.989091 
L 450.779115 417.643636 
L 450.779115 422.989091 
L 451.14457 428.334545 
L 453.093667 414.589091 
L 453.946397 419.934545 
L 453.946397 418.407273 
L 454.55549 412.298182 
L 454.799127 421.461818 
L 454.799127 435.207273 
L 454.799127 398.552727 
L 456.260949 425.28 
L 456.260949 410.770909 
L 456.626405 411.534545 
L 457.113679 405.425455 
L 457.357316 426.043636 
L 457.722772 415.352727 
L 458.210046 416.88 
L 458.575502 414.589091 
L 459.306413 415.352727 
L 460.524598 408.48 
L 461.620965 409.243636 
L 462.230058 412.298182 
L 464.057336 423.752727 
L 465.39734 408.48 
L 465.640977 394.734545 
L 466.128251 430.625455 
L 467.468255 402.370909 
L 467.590074 409.243636 
L 468.077348 398.552727 
L 468.320985 398.552727 
L 468.320985 424.516364 
L 468.930078 415.352727 
L 469.051897 401.607273 
L 469.295534 406.952727 
L 470.148264 407.716364 
L 470.757356 416.116364 
L 472.828272 402.370909 
L 473.071909 395.498182 
L 473.80282 397.025455 
L 474.290094 403.898182 
L 475.021005 387.861818 
L 475.630098 407.716364 
L 475.873735 402.370909 
L 476.604646 397.025455 
L 477.701013 390.152727 
L 478.919199 396.261818 
L 479.041017 414.589091 
L 479.284654 392.443636 
L 480.381021 405.425455 
L 480.868296 402.370909 
L 481.111933 379.461818 
L 481.599207 384.043636 
L 482.573755 378.698182 
L 483.061029 396.261818 
L 483.913759 387.098182 
L 484.766489 386.334545 
L 485.253763 383.28 
L 485.619219 394.734545 
L 487.081041 410.007273 
L 488.299227 399.316364 
L 489.030138 377.934545 
L 489.030138 403.898182 
L 489.030138 382.516364 
L 490.004686 388.625455 
L 490.491961 390.152727 
L 490.857416 380.225455 
L 490.979235 406.952727 
L 491.588328 380.225455 
L 492.075602 389.389091 
L 493.293787 393.970909 
L 493.537424 384.807273 
L 493.659243 398.552727 
L 494.511973 377.934545 
L 494.511973 377.934545 
L 494.75561 399.316364 
L 496.217432 393.970909 
L 496.582888 371.825455 
L 496.582888 392.443636 
L 497.070162 371.825455 
L 497.070162 383.28 
L 498.166529 386.334545 
L 498.531985 390.152727 
L 498.653803 366.48 
L 500.359263 381.752727 
L 504.74473 384.043636 
L 505.110186 378.698182 
L 505.232005 382.516364 
L 505.232005 371.061818 
L 505.353823 370.298182 
L 506.45019 391.68 
L 507.181101 366.48 
L 507.424738 378.698182 
L 509.617472 387.861818 
L 509.739291 380.989091 
L 509.982928 380.225455 
L 509.982928 386.334545 
L 510.835658 368.007273 
L 511.322932 360.370909 
L 511.44475 364.952727 
L 511.566569 374.88 
L 512.29748 371.825455 
L 512.784754 364.952727 
L 513.759303 369.534545 
L 515.221125 377.170909 
L 516.195674 371.825455 
L 517.048404 359.607273 
L 517.170222 361.898182 
L 517.779315 357.316364 
L 518.14477 357.316364 
L 518.388408 363.425455 
L 518.388408 394.734545 
L 519.362956 355.789091 
L 519.484775 368.007273 
L 520.215686 361.134545 
L 520.581141 345.861818 
L 520.824779 364.952727 
L 521.55569 368.770909 
L 521.677508 357.316364 
L 522.042964 364.952727 
L 522.042964 377.170909 
L 523.139331 377.934545 
L 523.626605 374.116364 
L 524.479335 344.334545 
L 525.210246 365.716364 
L 525.941157 349.68 
L 527.40298 360.370909 
L 528.25571 358.843636 
L 528.499347 367.243636 
L 528.986621 342.043636 
L 529.230258 361.898182 
L 529.717532 360.370909 
L 530.570262 334.407273 
L 530.570262 354.261818 
L 531.057536 349.68 
L 531.301173 379.461818 
L 532.519359 348.916364 
L 533.615726 342.807273 
L 535.443004 351.207273 
L 535.80846 354.261818 
L 537.392101 355.025455 
L 537.635738 354.261818 
L 538.853923 361.898182 
L 538.975742 338.225455 
L 540.072109 348.152727 
L 541.168476 365.716364 
L 542.752117 344.334545 
L 542.752117 342.807273 
L 543.117572 362.661818 
L 544.701213 342.807273 
L 545.310306 337.461818 
L 546.893947 329.061818 
L 548.35577 328.298182 
L 548.477588 329.061818 
L 548.843044 322.952727 
L 549.573955 325.243636 
L 550.183048 326.770909 
L 552.132145 334.407273 
L 552.375782 336.698182 
L 553.593967 329.061818 
L 553.959423 344.334545 
L 554.20306 336.698182 
L 554.20306 329.061818 
L 555.543064 335.934545 
L 555.786701 349.68 
L 556.883068 309.207273 
L 556.883068 335.934545 
L 557.370342 332.116364 
L 557.492161 326.007273 
L 558.953983 334.407273 
L 559.19762 321.425455 
L 559.441257 320.661818 
L 559.684895 338.989091 
L 560.415806 326.007273 
L 560.90308 324.48 
L 561.75581 334.407273 
L 562.243084 326.007273 
L 562.730358 306.152727 
L 562.973995 355.025455 
L 564.192181 331.352727 
L 565.654003 316.843636 
L 567.481281 332.88 
L 567.968556 322.189091 
L 568.699467 328.298182 
L 569.064923 294.698182 
L 569.064923 297.752727 
L 569.430378 310.734545 
L 570.892201 316.843636 
L 570.892201 328.298182 
L 571.623112 324.48 
L 572.354023 316.843636 
L 572.354023 303.098182 
L 572.475842 316.08 
L 574.181302 329.825455 
L 574.30312 332.116364 
L 574.424939 310.734545 
L 574.546757 313.789091 
L 576.617672 314.552727 
L 577.104947 297.752727 
L 579.784955 298.516364 
L 579.784955 301.570909 
L 580.028592 322.952727 
L 580.637684 325.243636 
L 581.85587 306.152727 
L 582.464963 293.934545 
L 582.586781 322.189091 
L 582.7086 323.716364 
L 583.195874 294.698182 
L 583.317692 303.098182 
L 583.439511 298.516364 
L 585.023152 309.970909 
L 585.266789 309.970909 
L 585.510426 302.334545 
L 586.119519 318.370909 
L 586.119519 300.043636 
L 586.241338 290.88 
L 586.241338 305.389091 
L 586.363156 295.461818 
L 586.972249 300.807273 
L 588.55589 302.334545 
L 589.043164 287.061818 
L 589.164983 306.916364 
L 589.895894 284.007273 
L 589.895894 290.88 
L 590.748624 296.989091 
L 591.114079 290.88 
L 591.357716 308.443636 
L 591.966809 311.498182 
L 592.941358 296.989091 
L 594.890454 297.752727 
L 595.743184 298.516364 
L 596.10864 303.861818 
L 598.423192 270.261818 
L 598.666829 295.461818 
L 599.032285 284.007273 
L 600.006833 278.661818 
L 600.494107 283.243636 
L 600.859563 284.007273 
L 601.1032 315.316364 
L 601.590474 297.752727 
L 603.174115 272.552727 
L 603.539571 296.225455 
L 603.66139 280.189091 
L 604.270482 292.407273 
L 605.488668 280.189091 
L 605.854123 311.498182 
L 606.341398 286.298182 
L 607.925039 290.116364 
L 609.874135 305.389091 
L 610.848684 248.88 
L 611.579595 254.989091 
L 611.823232 274.843636 
L 612.79778 265.68 
L 613.163236 313.025455 
L 613.65051 251.170909 
L 614.625059 274.843636 
L 615.477788 274.843636 
L 615.599607 267.207273 
L 616.2087 262.625455 
L 616.330518 267.970909 
L 617.183248 278.661818 
L 617.914159 270.261818 
L 617.914159 290.88 
L 618.279615 252.698182 
L 618.401434 276.370909 
L 618.645071 259.570909 
L 619.132345 269.498182 
L 619.375982 281.716364 
L 619.375982 258.043636 
L 619.4978 281.716364 
L 621.20326 251.170909 
L 621.325079 234.370909 
L 622.665083 281.716364 
L 623.76145 273.316364 
L 624.857817 267.970909 
L 625.101454 248.116364 
L 626.319639 251.934545 
L 626.806913 258.807273 
L 626.928732 292.407273 
L 628.390554 280.189091 
L 629.243284 254.989091 
L 630.705107 233.607273 
L 630.705107 266.443636 
L 631.314199 270.261818 
L 631.557837 264.916364 
L 632.288748 253.461818 
L 632.897841 236.661818 
L 633.019659 240.48 
L 634.481482 236.661818 
L 636.30876 248.88 
L 637.039671 245.825455 
L 637.648764 226.734545 
L 639.841498 222.152727 
L 640.328772 240.48 
L 641.30332 241.243636 
L 643.130598 278.661818 
L 644.226965 247.352727 
L 645.688788 242.007273 
L 646.663336 267.207273 
L 647.028792 226.734545 
L 648.00334 222.152727 
L 648.612433 218.334545 
L 648.612433 238.952727 
L 648.85607 221.389091 
L 650.439711 212.989091 
L 650.56153 225.970909 
L 651.779715 254.989091 
L 652.145171 231.316364 
L 654.825179 206.88 
L 655.434271 238.189091 
L 656.530638 215.28 
L 657.505187 227.498182 
L 657.870642 240.48 
L 657.992461 213.752727 
L 658.479735 210.698182 
L 658.967009 250.407273 
L 660.063376 204.589091 
L 660.307013 205.352727 
L 661.159743 218.334545 
L 661.281562 208.407273 
L 661.40338 224.443636 
L 661.768836 233.607273 
L 662.499747 232.843636 
L 662.865203 223.68 
L 663.596114 232.843636 
L 663.96157 245.061818 
L 664.936118 218.334545 
L 665.301574 219.098182 
L 665.910666 202.298182 
L 665.910666 203.061818 
L 666.397941 225.207273 
L 667.007033 234.370909 
L 667.372489 216.807273 
L 667.494307 222.152727 
L 667.981582 209.170909 
L 668.347037 218.334545 
L 668.95613 219.098182 
L 670.174315 199.243636 
L 670.296134 167.170909 
L 672.732505 140.443636 
L 673.341598 223.68 
L 673.707053 212.989091 
L 674.437965 165.643636 
L 674.437965 190.08 
L 675.168876 178.625455 
L 677.605247 228.261818 
L 678.457977 193.898182 
L 678.457977 212.989091 
L 678.701614 217.570909 
L 679.797981 225.207273 
L 679.919799 212.989091 
L 680.285255 236.661818 
L 680.407073 220.625455 
L 680.407073 190.08 
L 682.477989 225.207273 
L 682.965263 207.643636 
L 683.2089 189.316364 
L 683.696174 183.970909 
L 684.548904 180.152727 
L 685.157997 190.08 
L 685.767089 214.516364 
L 686.010726 178.625455 
L 686.010726 183.970909 
L 686.132545 187.025455 
L 686.132545 212.225455 
L 686.254364 180.916364 
L 686.376182 179.389091 
L 686.498001 214.516364 
L 686.498001 206.88 
L 686.863456 207.643636 
L 687.107093 181.68 
L 687.35073 188.552727 
L 687.959823 180.152727 
L 690.883468 182.443636 
L 693.198021 211.461818 
L 694.90348 198.48 
L 696.121666 196.189091 
L 696.243484 179.389091 
L 696.487121 193.898182 
L 696.974396 156.48 
L 697.096214 206.88 
L 697.339851 180.152727 
L 697.46167 128.225455 
L 697.827125 173.28 
L 699.045311 170.989091 
L 700.385315 185.498182 
L 700.507133 184.734545 
L 700.75077 172.516364 
L 702.45623 202.298182 
L 703.187141 161.825455 
L 703.187141 167.934545 
L 703.674416 213.752727 
L 703.918053 179.389091 
L 705.379875 140.443636 
L 705.988968 166.407273 
L 707.45079 154.952727 
L 707.572609 197.716364 
L 707.938065 153.425455 
L 710.983528 177.861818 
L 711.105347 129.752727 
L 711.592621 174.043636 
L 711.836258 171.752727 
L 712.201714 167.170909 
L 713.176262 202.298182 
L 714.15081 154.952727 
L 714.272629 171.752727 
L 714.394448 164.116364 
L 714.638085 158.007273 
L 715.734452 183.207273 
L 715.978089 175.570909 
L 716.099907 154.189091 
L 716.709 165.643636 
L 717.196274 134.334545 
L 717.683548 184.734545 
L 718.536278 159.534545 
L 718.536278 154.189091 
L 718.901734 161.061818 
L 719.023552 184.734545 
L 719.632645 164.88 
L 719.876282 172.516364 
L 720.241738 154.189091 
L 721.825379 163.352727 
L 722.678109 155.716364 
L 723.40902 183.207273 
L 723.40902 137.389091 
L 723.896294 158.007273 
L 724.505387 175.570909 
L 724.992661 185.498182 
L 726.819939 145.789091 
L 728.281762 181.68 
L 729.012673 158.007273 
L 729.134492 131.28 
L 729.499947 138.916364 
L 729.987221 146.552727 
L 730.352677 134.334545 
L 730.596314 154.189091 
L 730.718133 125.170909 
L 731.205407 164.116364 
L 732.301774 166.407273 
L 733.398141 183.970909 
L 733.763596 124.407273 
L 734.738145 141.207273 
L 734.981782 114.48 
L 735.95633 118.298182 
L 735.95633 161.061818 
L 736.078149 155.716364 
L 736.199967 116.007273 
L 736.321786 132.807273 
L 736.80906 148.08 
L 737.539971 128.989091 
L 737.905427 179.389091 
L 738.758157 137.389091 
L 739.245431 151.898182 
L 739.732705 120.589091 
L 740.219979 97.68 
L 740.341798 102.261818 
L 740.341798 98.443636 
L 740.341798 148.08 
L 741.681802 89.28 
L 743.021806 125.170909 
L 743.265443 111.425455 
L 743.752717 167.934545 
L 745.823632 135.861818 
L 747.163636 132.807273 
L 747.163636 132.807273 
" clip-path="url(#pd7d76a84e9)" style="fill: none; stroke: #1f77b4; stroke-width: 2; stroke-linecap: square"/>
   </g>
   <g id="patch_3">
    <path d="M 108 512.64 
L 108 69.12 
" style="fill: none; stroke: #000000; stroke-width: 0.8; stroke-linejoin: miter; stroke-linecap: square"/>
   </g>
   <g id="patch_4">
    <path d="M 777.6 512.64 
L 777.6 69.12 
" style="fill: none; stroke: #000000; stroke-width: 0.8; stroke-linejoin: miter; stroke-linecap: square"/>
   </g>
   <g id="patch_5">
    <path d="M 108 512.64 
L 777.6 512.64 
" style="fill: none; stroke: #000000; stroke-width: 0.8; stroke-linejoin: miter; stroke-linecap: square"/>
   </g>
   <g id="patch_6">
    <path d="M 108 69.12 
L 777.6 69.12 
" style="fill: none; stroke: #000000; stroke-width: 0.8; stroke-linejoin: miter; stroke-linecap: square"/>
   </g>
   <g id="text_14">
    <!-- Price by volatility -->
    <g transform="translate(356.74375 63.12) scale(0.2 -0.2)">
     <defs>
      <path id="DejaVuSans-62" d="M 3116 1747 
Q 3116 2381 2855 2742 
Q 2594 3103 2138 3103 
Q 1681 3103 1420 2742 
Q 1159 2381 1159 1747 
Q 1159 1113 1420 752 
Q 1681 391 2138 391 
Q 2594 391 2855 752 
Q 3116 1113 3116 1747 
z
M 1159 2969 
Q 1341 3281 1617 3432 
Q 1894 3584 2278 3584 
Q 2916 3584 3314 3078 
Q 3713 2572 3713 1747 
Q 3713 922 3314 415 
Q 2916 -91 2278 -91 
Q 1894 -91 1617 61 
Q 1341 213 1159 525 
L 1159 0 
L 581 0 
L 581 4863 
L 1159 4863 
L 1159 2969 
z
" transform="scale(0.015625)"/>
      <path id="DejaVuSans-76" d="M 191 3500 
L 800 3500 
L 1894 563 
L 2988 3500 
L 3597 3500 
L 2284 0 
L 1503 0 
L 191 3500 
z
" transform="scale(0.015625)"/>
     </defs>
     <use xlink:href="#DejaVuSans-50"/>
     <use xlink:href="#DejaVuSans-72" x="58.552734"/>
     <use xlink:href="#DejaVuSans-69" x="99.666016"/>
     <use xlink:href="#DejaVuSans-63" x="127.449219"/>
     <use xlink:href="#DejaVuSans-65" x="182.429688"/>
     <use xlink:href="#DejaVuSans-20" x="243.953125"/>
     <use xlink:href="#DejaVuSans-62" x="275.740234"/>
     <use xlink:href="#DejaVuSans-79" x="339.216797"/>
     <use xlink:href="#DejaVuSans-20" x="398.396484"/>
     <use xlink:href="#DejaVuSans-76" x="430.183594"/>
     <use xlink:href="#DejaVuSans-6f" x="489.363281"/>
     <use xlink:href="#DejaVuSans-6c" x="550.544922"/>
     <use xlink:href="#DejaVuSans-61" x="578.328125"/>
     <use xlink:href="#DejaVuSans-74" x="639.607422"/>
     <use xlink:href="#DejaVuSans-69" x="678.816406"/>
     <use xlink:href="#DejaVuSans-6c" x="706.599609"/>
     <use xlink:href="#DejaVuSans-69" x="734.382812"/>
     <use xlink:href="#DejaVuSans-74" x="762.166016"/>
     <use xlink:href="#DejaVuSans-79" x="801.375"/>
    </g>
   </g>
   <g id="legend_1">
    <g id="patch_7">
     <path d="M 120.6 109.940625 
L 206.299688 109.940625 
Q 209.899687 109.940625 209.899687 106.340625 
L 209.899687 81.72 
Q 209.899687 78.12 206.299688 78.12 
L 120.6 78.12 
Q 117 78.12 117 81.72 
L 117 106.340625 
Q 117 109.940625 120.6 109.940625 
z
" style="fill: #ffffff; opacity: 0.8; stroke: #cccccc; stroke-linejoin: miter"/>
    </g>
    <g id="line2d_24">
     <path d="M 124.2 92.697188 
L 142.2 92.697188 
L 160.2 92.697188 
" style="fill: none; stroke: #1f77b4; stroke-width: 2; stroke-linecap: square"/>
    </g>
    <g id="text_15">
     <!-- MC -->
     <g transform="translate(174.6 98.997188) scale(0.18 -0.18)">
      <defs>
       <path id="DejaVuSans-4d" d="M 628 4666 
L 1569 4666 
L 2759 1491 
L 3956 4666 
L 4897 4666 
L 4897 0 
L 4281 0 
L 4281 4097 
L 3078 897 
L 2444 897 
L 1241 4097 
L 1241 0 
L 628 0 
L 628 4666 
z
" transform="scale(0.015625)"/>
       <path id="DejaVuSans-43" d="M 4122 4306 
L 4122 3641 
Q 3803 3938 3442 4084 
Q 3081 4231 2675 4231 
Q 1875 4231 1450 3742 
Q 1025 3253 1025 2328 
Q 1025 1406 1450 917 
Q 1875 428 2675 428 
Q 3081 428 3442 575 
Q 3803 722 4122 1019 
L 4122 359 
Q 3791 134 3420 21 
Q 3050 -91 2638 -91 
Q 1578 -91 968 557 
Q 359 1206 359 2328 
Q 359 3453 968 4101 
Q 1578 4750 2638 4750 
Q 3056 4750 3426 4639 
Q 3797 4528 4122 4306 
z
" transform="scale(0.015625)"/>
      </defs>
      <use xlink:href="#DejaVuSans-4d"/>
      <use xlink:href="#DejaVuSans-43" x="86.279297"/>
     </g>
    </g>
   </g>
  </g>
 </g>
 <defs>
  <clipPath id="pd7d76a84e9">
   <rect x="108" y="69.12" width="669.6" height="443.52"/>
  </clipPath>
 </defs>
</svg>
