<?xml version="1.0" encoding="utf-8" standalone="no"?>
<!DOCTYPE svg PUBLIC "-//W3C//DTD SVG 1.1//EN"
  "http://www.w3.org/Graphics/SVG/1.1/DTD/svg11.dtd">
<svg xmlns:xlink="http://www.w3.org/1999/xlink" width="864pt" height="576pt" viewBox="0 0 864 576" xmlns="http://www.w3.org/2000/svg" version="1.1">
 <metadata>
  <rdf:RDF xmlns:dc="http://purl.org/dc/elements/1.1/" xmlns:cc="http://creativecommons.org/ns#" xmlns:rdf="http://www.w3.org/1999/02/22-rdf-syntax-ns#">
   <cc:Work>
    <dc:type rdf:resource="http://purl.org/dc/dcmitype/StillImage"/>
    <dc:date>2024-02-24T15:13:32.623369</dc:date>
    <dc:format>image/svg+xml</dc:format>
    <dc:creator>
     <cc:Agent>
      <dc:title>Matplotlib v3.7.3, https://matplotlib.org/</dc:title>
     </cc:Agent>
    </dc:creator>
   </cc:Work>
  </rdf:RDF>
 </metadata>
 <defs>
  <style type="text/css">*{stroke-linejoin: round; stroke-linecap: butt}</style>
 </defs>
 <g id="figure_1">
  <g id="patch_1">
   <path d="M 0 576 
L 864 576 
L 864 0 
L 0 0 
z
" style="fill: #ffffff"/>
  </g>
  <g id="axes_1">
   <g id="patch_2">
    <path d="M 108 512.64 
L 777.6 512.64 
L 777.6 69.12 
L 108 69.12 
z
" style="fill: #ffffff"/>
   </g>
   <g id="matplotlib.axis_1">
    <g id="xtick_1">
     <g id="line2d_1">
      <path d="M 199.180886 512.64 
L 199.180886 69.12 
" clip-path="url(#pe57ddb9e6f)" style="fill: none; stroke: #b0b0b0; stroke-width: 0.8; stroke-linecap: square"/>
     </g>
     <g id="line2d_2">
      <defs>
       <path id="m8da7890d5d" d="M 0 0 
L 0 3.5 
" style="stroke: #000000; stroke-width: 0.8"/>
      </defs>
      <g>
       <use xlink:href="#m8da7890d5d" x="199.180886" y="512.64" style="stroke: #000000; stroke-width: 0.8"/>
      </g>
     </g>
     <g id="text_1">
      <!-- 0.6 -->
      <g transform="translate(191.229324 527.238438) scale(0.1 -0.1)">
       <defs>
        <path id="DejaVuSans-30" d="M 2034 4250 
Q 1547 4250 1301 3770 
Q 1056 3291 1056 2328 
Q 1056 1369 1301 889 
Q 1547 409 2034 409 
Q 2525 409 2770 889 
Q 3016 1369 3016 2328 
Q 3016 3291 2770 3770 
Q 2525 4250 2034 4250 
z
M 2034 4750 
Q 2819 4750 3233 4129 
Q 3647 3509 3647 2328 
Q 3647 1150 3233 529 
Q 2819 -91 2034 -91 
Q 1250 -91 836 529 
Q 422 1150 422 2328 
Q 422 3509 836 4129 
Q 1250 4750 2034 4750 
z
" transform="scale(0.015625)"/>
        <path id="DejaVuSans-2e" d="M 684 794 
L 1344 794 
L 1344 0 
L 684 0 
L 684 794 
z
" transform="scale(0.015625)"/>
        <path id="DejaVuSans-36" d="M 2113 2584 
Q 1688 2584 1439 2293 
Q 1191 2003 1191 1497 
Q 1191 994 1439 701 
Q 1688 409 2113 409 
Q 2538 409 2786 701 
Q 3034 994 3034 1497 
Q 3034 2003 2786 2293 
Q 2538 2584 2113 2584 
z
M 3366 4563 
L 3366 3988 
Q 3128 4100 2886 4159 
Q 2644 4219 2406 4219 
Q 1781 4219 1451 3797 
Q 1122 3375 1075 2522 
Q 1259 2794 1537 2939 
Q 1816 3084 2150 3084 
Q 2853 3084 3261 2657 
Q 3669 2231 3669 1497 
Q 3669 778 3244 343 
Q 2819 -91 2113 -91 
Q 1303 -91 875 529 
Q 447 1150 447 2328 
Q 447 3434 972 4092 
Q 1497 4750 2381 4750 
Q 2619 4750 2861 4703 
Q 3103 4656 3366 4563 
z
" transform="scale(0.015625)"/>
       </defs>
       <use xlink:href="#DejaVuSans-30"/>
       <use xlink:href="#DejaVuSans-2e" x="63.623047"/>
       <use xlink:href="#DejaVuSans-36" x="95.410156"/>
      </g>
     </g>
    </g>
    <g id="xtick_2">
     <g id="line2d_3">
      <path d="M 321.28043 512.64 
L 321.28043 69.12 
" clip-path="url(#pe57ddb9e6f)" style="fill: none; stroke: #b0b0b0; stroke-width: 0.8; stroke-linecap: square"/>
     </g>
     <g id="line2d_4">
      <g>
       <use xlink:href="#m8da7890d5d" x="321.28043" y="512.64" style="stroke: #000000; stroke-width: 0.8"/>
      </g>
     </g>
     <g id="text_2">
      <!-- 0.8 -->
      <g transform="translate(313.328867 527.238438) scale(0.1 -0.1)">
       <defs>
        <path id="DejaVuSans-38" d="M 2034 2216 
Q 1584 2216 1326 1975 
Q 1069 1734 1069 1313 
Q 1069 891 1326 650 
Q 1584 409 2034 409 
Q 2484 409 2743 651 
Q 3003 894 3003 1313 
Q 3003 1734 2745 1975 
Q 2488 2216 2034 2216 
z
M 1403 2484 
Q 997 2584 770 2862 
Q 544 3141 544 3541 
Q 544 4100 942 4425 
Q 1341 4750 2034 4750 
Q 2731 4750 3128 4425 
Q 3525 4100 3525 3541 
Q 3525 3141 3298 2862 
Q 3072 2584 2669 2484 
Q 3125 2378 3379 2068 
Q 3634 1759 3634 1313 
Q 3634 634 3220 271 
Q 2806 -91 2034 -91 
Q 1263 -91 848 271 
Q 434 634 434 1313 
Q 434 1759 690 2068 
Q 947 2378 1403 2484 
z
M 1172 3481 
Q 1172 3119 1398 2916 
Q 1625 2713 2034 2713 
Q 2441 2713 2670 2916 
Q 2900 3119 2900 3481 
Q 2900 3844 2670 4047 
Q 2441 4250 2034 4250 
Q 1625 4250 1398 4047 
Q 1172 3844 1172 3481 
z
" transform="scale(0.015625)"/>
       </defs>
       <use xlink:href="#DejaVuSans-30"/>
       <use xlink:href="#DejaVuSans-2e" x="63.623047"/>
       <use xlink:href="#DejaVuSans-38" x="95.410156"/>
      </g>
     </g>
    </g>
    <g id="xtick_3">
     <g id="line2d_5">
      <path d="M 443.379973 512.64 
L 443.379973 69.12 
" clip-path="url(#pe57ddb9e6f)" style="fill: none; stroke: #b0b0b0; stroke-width: 0.8; stroke-linecap: square"/>
     </g>
     <g id="line2d_6">
      <g>
       <use xlink:href="#m8da7890d5d" x="443.379973" y="512.64" style="stroke: #000000; stroke-width: 0.8"/>
      </g>
     </g>
     <g id="text_3">
      <!-- 1.0 -->
      <g transform="translate(435.42841 527.238438) scale(0.1 -0.1)">
       <defs>
        <path id="DejaVuSans-31" d="M 794 531 
L 1825 531 
L 1825 4091 
L 703 3866 
L 703 4441 
L 1819 4666 
L 2450 4666 
L 2450 531 
L 3481 531 
L 3481 0 
L 794 0 
L 794 531 
z
" transform="scale(0.015625)"/>
       </defs>
       <use xlink:href="#DejaVuSans-31"/>
       <use xlink:href="#DejaVuSans-2e" x="63.623047"/>
       <use xlink:href="#DejaVuSans-30" x="95.410156"/>
      </g>
     </g>
    </g>
    <g id="xtick_4">
     <g id="line2d_7">
      <path d="M 565.479516 512.64 
L 565.479516 69.12 
" clip-path="url(#pe57ddb9e6f)" style="fill: none; stroke: #b0b0b0; stroke-width: 0.8; stroke-linecap: square"/>
     </g>
     <g id="line2d_8">
      <g>
       <use xlink:href="#m8da7890d5d" x="565.479516" y="512.64" style="stroke: #000000; stroke-width: 0.8"/>
      </g>
     </g>
     <g id="text_4">
      <!-- 1.2 -->
      <g transform="translate(557.527954 527.238438) scale(0.1 -0.1)">
       <defs>
        <path id="DejaVuSans-32" d="M 1228 531 
L 3431 531 
L 3431 0 
L 469 0 
L 469 531 
Q 828 903 1448 1529 
Q 2069 2156 2228 2338 
Q 2531 2678 2651 2914 
Q 2772 3150 2772 3378 
Q 2772 3750 2511 3984 
Q 2250 4219 1831 4219 
Q 1534 4219 1204 4116 
Q 875 4013 500 3803 
L 500 4441 
Q 881 4594 1212 4672 
Q 1544 4750 1819 4750 
Q 2544 4750 2975 4387 
Q 3406 4025 3406 3419 
Q 3406 3131 3298 2873 
Q 3191 2616 2906 2266 
Q 2828 2175 2409 1742 
Q 1991 1309 1228 531 
z
" transform="scale(0.015625)"/>
       </defs>
       <use xlink:href="#DejaVuSans-31"/>
       <use xlink:href="#DejaVuSans-2e" x="63.623047"/>
       <use xlink:href="#DejaVuSans-32" x="95.410156"/>
      </g>
     </g>
    </g>
    <g id="xtick_5">
     <g id="line2d_9">
      <path d="M 687.579059 512.64 
L 687.579059 69.12 
" clip-path="url(#pe57ddb9e6f)" style="fill: none; stroke: #b0b0b0; stroke-width: 0.8; stroke-linecap: square"/>
     </g>
     <g id="line2d_10">
      <g>
       <use xlink:href="#m8da7890d5d" x="687.579059" y="512.64" style="stroke: #000000; stroke-width: 0.8"/>
      </g>
     </g>
     <g id="text_5">
      <!-- 1.4 -->
      <g transform="translate(679.627497 527.238438) scale(0.1 -0.1)">
       <defs>
        <path id="DejaVuSans-34" d="M 2419 4116 
L 825 1625 
L 2419 1625 
L 2419 4116 
z
M 2253 4666 
L 3047 4666 
L 3047 1625 
L 3713 1625 
L 3713 1100 
L 3047 1100 
L 3047 0 
L 2419 0 
L 2419 1100 
L 313 1100 
L 313 1709 
L 2253 4666 
z
" transform="scale(0.015625)"/>
       </defs>
       <use xlink:href="#DejaVuSans-31"/>
       <use xlink:href="#DejaVuSans-2e" x="63.623047"/>
       <use xlink:href="#DejaVuSans-34" x="95.410156"/>
      </g>
     </g>
    </g>
    <g id="text_6">
     <!-- TTM -->
     <g transform="translate(424.198125 546.995312) scale(0.18 -0.18)">
      <defs>
       <path id="DejaVuSans-54" d="M -19 4666 
L 3928 4666 
L 3928 4134 
L 2272 4134 
L 2272 0 
L 1638 0 
L 1638 4134 
L -19 4134 
L -19 4666 
z
" transform="scale(0.015625)"/>
       <path id="DejaVuSans-4d" d="M 628 4666 
L 1569 4666 
L 2759 1491 
L 3956 4666 
L 4897 4666 
L 4897 0 
L 4281 0 
L 4281 4097 
L 3078 897 
L 2444 897 
L 1241 4097 
L 1241 0 
L 628 0 
L 628 4666 
z
" transform="scale(0.015625)"/>
      </defs>
      <use xlink:href="#DejaVuSans-54"/>
      <use xlink:href="#DejaVuSans-54" x="59.333984"/>
      <use xlink:href="#DejaVuSans-4d" x="120.417969"/>
     </g>
    </g>
   </g>
   <g id="matplotlib.axis_2">
    <g id="ytick_1">
     <g id="line2d_11">
      <path d="M 108 483.316364 
L 777.6 483.316364 
" clip-path="url(#pe57ddb9e6f)" style="fill: none; stroke: #b0b0b0; stroke-width: 0.8; stroke-linecap: square"/>
     </g>
     <g id="line2d_12">
      <defs>
       <path id="m9151f03bd0" d="M 0 0 
L -3.5 0 
" style="stroke: #000000; stroke-width: 0.8"/>
      </defs>
      <g>
       <use xlink:href="#m9151f03bd0" x="108" y="483.316364" style="stroke: #000000; stroke-width: 0.8"/>
      </g>
     </g>
     <g id="text_7">
      <!-- 0.026 -->
      <g transform="translate(72.371875 487.115582) scale(0.1 -0.1)">
       <use xlink:href="#DejaVuSans-30"/>
       <use xlink:href="#DejaVuSans-2e" x="63.623047"/>
       <use xlink:href="#DejaVuSans-30" x="95.410156"/>
       <use xlink:href="#DejaVuSans-32" x="159.033203"/>
       <use xlink:href="#DejaVuSans-36" x="222.65625"/>
      </g>
     </g>
    </g>
    <g id="ytick_2">
     <g id="line2d_13">
      <path d="M 108 422.225455 
L 777.6 422.225455 
" clip-path="url(#pe57ddb9e6f)" style="fill: none; stroke: #b0b0b0; stroke-width: 0.8; stroke-linecap: square"/>
     </g>
     <g id="line2d_14">
      <g>
       <use xlink:href="#m9151f03bd0" x="108" y="422.225455" style="stroke: #000000; stroke-width: 0.8"/>
      </g>
     </g>
     <g id="text_8">
      <!-- 0.028 -->
      <g transform="translate(72.371875 426.024673) scale(0.1 -0.1)">
       <use xlink:href="#DejaVuSans-30"/>
       <use xlink:href="#DejaVuSans-2e" x="63.623047"/>
       <use xlink:href="#DejaVuSans-30" x="95.410156"/>
       <use xlink:href="#DejaVuSans-32" x="159.033203"/>
       <use xlink:href="#DejaVuSans-38" x="222.65625"/>
      </g>
     </g>
    </g>
    <g id="ytick_3">
     <g id="line2d_15">
      <path d="M 108 361.134545 
L 777.6 361.134545 
" clip-path="url(#pe57ddb9e6f)" style="fill: none; stroke: #b0b0b0; stroke-width: 0.8; stroke-linecap: square"/>
     </g>
     <g id="line2d_16">
      <g>
       <use xlink:href="#m9151f03bd0" x="108" y="361.134545" style="stroke: #000000; stroke-width: 0.8"/>
      </g>
     </g>
     <g id="text_9">
      <!-- 0.030 -->
      <g transform="translate(72.371875 364.933764) scale(0.1 -0.1)">
       <defs>
        <path id="DejaVuSans-33" d="M 2597 2516 
Q 3050 2419 3304 2112 
Q 3559 1806 3559 1356 
Q 3559 666 3084 287 
Q 2609 -91 1734 -91 
Q 1441 -91 1130 -33 
Q 819 25 488 141 
L 488 750 
Q 750 597 1062 519 
Q 1375 441 1716 441 
Q 2309 441 2620 675 
Q 2931 909 2931 1356 
Q 2931 1769 2642 2001 
Q 2353 2234 1838 2234 
L 1294 2234 
L 1294 2753 
L 1863 2753 
Q 2328 2753 2575 2939 
Q 2822 3125 2822 3475 
Q 2822 3834 2567 4026 
Q 2313 4219 1838 4219 
Q 1578 4219 1281 4162 
Q 984 4106 628 3988 
L 628 4550 
Q 988 4650 1302 4700 
Q 1616 4750 1894 4750 
Q 2613 4750 3031 4423 
Q 3450 4097 3450 3541 
Q 3450 3153 3228 2886 
Q 3006 2619 2597 2516 
z
" transform="scale(0.015625)"/>
       </defs>
       <use xlink:href="#DejaVuSans-30"/>
       <use xlink:href="#DejaVuSans-2e" x="63.623047"/>
       <use xlink:href="#DejaVuSans-30" x="95.410156"/>
       <use xlink:href="#DejaVuSans-33" x="159.033203"/>
       <use xlink:href="#DejaVuSans-30" x="222.65625"/>
      </g>
     </g>
    </g>
    <g id="ytick_4">
     <g id="line2d_17">
      <path d="M 108 300.043636 
L 777.6 300.043636 
" clip-path="url(#pe57ddb9e6f)" style="fill: none; stroke: #b0b0b0; stroke-width: 0.8; stroke-linecap: square"/>
     </g>
     <g id="line2d_18">
      <g>
       <use xlink:href="#m9151f03bd0" x="108" y="300.043636" style="stroke: #000000; stroke-width: 0.8"/>
      </g>
     </g>
     <g id="text_10">
      <!-- 0.032 -->
      <g transform="translate(72.371875 303.842855) scale(0.1 -0.1)">
       <use xlink:href="#DejaVuSans-30"/>
       <use xlink:href="#DejaVuSans-2e" x="63.623047"/>
       <use xlink:href="#DejaVuSans-30" x="95.410156"/>
       <use xlink:href="#DejaVuSans-33" x="159.033203"/>
       <use xlink:href="#DejaVuSans-32" x="222.65625"/>
      </g>
     </g>
    </g>
    <g id="ytick_5">
     <g id="line2d_19">
      <path d="M 108 238.952727 
L 777.6 238.952727 
" clip-path="url(#pe57ddb9e6f)" style="fill: none; stroke: #b0b0b0; stroke-width: 0.8; stroke-linecap: square"/>
     </g>
     <g id="line2d_20">
      <g>
       <use xlink:href="#m9151f03bd0" x="108" y="238.952727" style="stroke: #000000; stroke-width: 0.8"/>
      </g>
     </g>
     <g id="text_11">
      <!-- 0.034 -->
      <g transform="translate(72.371875 242.751946) scale(0.1 -0.1)">
       <use xlink:href="#DejaVuSans-30"/>
       <use xlink:href="#DejaVuSans-2e" x="63.623047"/>
       <use xlink:href="#DejaVuSans-30" x="95.410156"/>
       <use xlink:href="#DejaVuSans-33" x="159.033203"/>
       <use xlink:href="#DejaVuSans-34" x="222.65625"/>
      </g>
     </g>
    </g>
    <g id="ytick_6">
     <g id="line2d_21">
      <path d="M 108 177.861818 
L 777.6 177.861818 
" clip-path="url(#pe57ddb9e6f)" style="fill: none; stroke: #b0b0b0; stroke-width: 0.8; stroke-linecap: square"/>
     </g>
     <g id="line2d_22">
      <g>
       <use xlink:href="#m9151f03bd0" x="108" y="177.861818" style="stroke: #000000; stroke-width: 0.8"/>
      </g>
     </g>
     <g id="text_12">
      <!-- 0.036 -->
      <g transform="translate(72.371875 181.661037) scale(0.1 -0.1)">
       <use xlink:href="#DejaVuSans-30"/>
       <use xlink:href="#DejaVuSans-2e" x="63.623047"/>
       <use xlink:href="#DejaVuSans-30" x="95.410156"/>
       <use xlink:href="#DejaVuSans-33" x="159.033203"/>
       <use xlink:href="#DejaVuSans-36" x="222.65625"/>
      </g>
     </g>
    </g>
    <g id="ytick_7">
     <g id="line2d_23">
      <path d="M 108 116.770909 
L 777.6 116.770909 
" clip-path="url(#pe57ddb9e6f)" style="fill: none; stroke: #b0b0b0; stroke-width: 0.8; stroke-linecap: square"/>
     </g>
     <g id="line2d_24">
      <g>
       <use xlink:href="#m9151f03bd0" x="108" y="116.770909" style="stroke: #000000; stroke-width: 0.8"/>
      </g>
     </g>
     <g id="text_13">
      <!-- 0.038 -->
      <g transform="translate(72.371875 120.570128) scale(0.1 -0.1)">
       <use xlink:href="#DejaVuSans-30"/>
       <use xlink:href="#DejaVuSans-2e" x="63.623047"/>
       <use xlink:href="#DejaVuSans-30" x="95.410156"/>
       <use xlink:href="#DejaVuSans-33" x="159.033203"/>
       <use xlink:href="#DejaVuSans-38" x="222.65625"/>
      </g>
     </g>
    </g>
    <g id="text_14">
     <!-- Price/strike ratio -->
     <g transform="translate(64.628438 364.318594) rotate(-90) scale(0.18 -0.18)">
      <defs>
       <path id="DejaVuSans-50" d="M 1259 4147 
L 1259 2394 
L 2053 2394 
Q 2494 2394 2734 2622 
Q 2975 2850 2975 3272 
Q 2975 3691 2734 3919 
Q 2494 4147 2053 4147 
L 1259 4147 
z
M 628 4666 
L 2053 4666 
Q 2838 4666 3239 4311 
Q 3641 3956 3641 3272 
Q 3641 2581 3239 2228 
Q 2838 1875 2053 1875 
L 1259 1875 
L 1259 0 
L 628 0 
L 628 4666 
z
" transform="scale(0.015625)"/>
       <path id="DejaVuSans-72" d="M 2631 2963 
Q 2534 3019 2420 3045 
Q 2306 3072 2169 3072 
Q 1681 3072 1420 2755 
Q 1159 2438 1159 1844 
L 1159 0 
L 581 0 
L 581 3500 
L 1159 3500 
L 1159 2956 
Q 1341 3275 1631 3429 
Q 1922 3584 2338 3584 
Q 2397 3584 2469 3576 
Q 2541 3569 2628 3553 
L 2631 2963 
z
" transform="scale(0.015625)"/>
       <path id="DejaVuSans-69" d="M 603 3500 
L 1178 3500 
L 1178 0 
L 603 0 
L 603 3500 
z
M 603 4863 
L 1178 4863 
L 1178 4134 
L 603 4134 
L 603 4863 
z
" transform="scale(0.015625)"/>
       <path id="DejaVuSans-63" d="M 3122 3366 
L 3122 2828 
Q 2878 2963 2633 3030 
Q 2388 3097 2138 3097 
Q 1578 3097 1268 2742 
Q 959 2388 959 1747 
Q 959 1106 1268 751 
Q 1578 397 2138 397 
Q 2388 397 2633 464 
Q 2878 531 3122 666 
L 3122 134 
Q 2881 22 2623 -34 
Q 2366 -91 2075 -91 
Q 1284 -91 818 406 
Q 353 903 353 1747 
Q 353 2603 823 3093 
Q 1294 3584 2113 3584 
Q 2378 3584 2631 3529 
Q 2884 3475 3122 3366 
z
" transform="scale(0.015625)"/>
       <path id="DejaVuSans-65" d="M 3597 1894 
L 3597 1613 
L 953 1613 
Q 991 1019 1311 708 
Q 1631 397 2203 397 
Q 2534 397 2845 478 
Q 3156 559 3463 722 
L 3463 178 
Q 3153 47 2828 -22 
Q 2503 -91 2169 -91 
Q 1331 -91 842 396 
Q 353 884 353 1716 
Q 353 2575 817 3079 
Q 1281 3584 2069 3584 
Q 2775 3584 3186 3129 
Q 3597 2675 3597 1894 
z
M 3022 2063 
Q 3016 2534 2758 2815 
Q 2500 3097 2075 3097 
Q 1594 3097 1305 2825 
Q 1016 2553 972 2059 
L 3022 2063 
z
" transform="scale(0.015625)"/>
       <path id="DejaVuSans-2f" d="M 1625 4666 
L 2156 4666 
L 531 -594 
L 0 -594 
L 1625 4666 
z
" transform="scale(0.015625)"/>
       <path id="DejaVuSans-73" d="M 2834 3397 
L 2834 2853 
Q 2591 2978 2328 3040 
Q 2066 3103 1784 3103 
Q 1356 3103 1142 2972 
Q 928 2841 928 2578 
Q 928 2378 1081 2264 
Q 1234 2150 1697 2047 
L 1894 2003 
Q 2506 1872 2764 1633 
Q 3022 1394 3022 966 
Q 3022 478 2636 193 
Q 2250 -91 1575 -91 
Q 1294 -91 989 -36 
Q 684 19 347 128 
L 347 722 
Q 666 556 975 473 
Q 1284 391 1588 391 
Q 1994 391 2212 530 
Q 2431 669 2431 922 
Q 2431 1156 2273 1281 
Q 2116 1406 1581 1522 
L 1381 1569 
Q 847 1681 609 1914 
Q 372 2147 372 2553 
Q 372 3047 722 3315 
Q 1072 3584 1716 3584 
Q 2034 3584 2315 3537 
Q 2597 3491 2834 3397 
z
" transform="scale(0.015625)"/>
       <path id="DejaVuSans-74" d="M 1172 4494 
L 1172 3500 
L 2356 3500 
L 2356 3053 
L 1172 3053 
L 1172 1153 
Q 1172 725 1289 603 
Q 1406 481 1766 481 
L 2356 481 
L 2356 0 
L 1766 0 
Q 1100 0 847 248 
Q 594 497 594 1153 
L 594 3053 
L 172 3053 
L 172 3500 
L 594 3500 
L 594 4494 
L 1172 4494 
z
" transform="scale(0.015625)"/>
       <path id="DejaVuSans-6b" d="M 581 4863 
L 1159 4863 
L 1159 1991 
L 2875 3500 
L 3609 3500 
L 1753 1863 
L 3688 0 
L 2938 0 
L 1159 1709 
L 1159 0 
L 581 0 
L 581 4863 
z
" transform="scale(0.015625)"/>
       <path id="DejaVuSans-20" transform="scale(0.015625)"/>
       <path id="DejaVuSans-61" d="M 2194 1759 
Q 1497 1759 1228 1600 
Q 959 1441 959 1056 
Q 959 750 1161 570 
Q 1363 391 1709 391 
Q 2188 391 2477 730 
Q 2766 1069 2766 1631 
L 2766 1759 
L 2194 1759 
z
M 3341 1997 
L 3341 0 
L 2766 0 
L 2766 531 
Q 2569 213 2275 61 
Q 1981 -91 1556 -91 
Q 1019 -91 701 211 
Q 384 513 384 1019 
Q 384 1609 779 1909 
Q 1175 2209 1959 2209 
L 2766 2209 
L 2766 2266 
Q 2766 2663 2505 2880 
Q 2244 3097 1772 3097 
Q 1472 3097 1187 3025 
Q 903 2953 641 2809 
L 641 3341 
Q 956 3463 1253 3523 
Q 1550 3584 1831 3584 
Q 2591 3584 2966 3190 
Q 3341 2797 3341 1997 
z
" transform="scale(0.015625)"/>
       <path id="DejaVuSans-6f" d="M 1959 3097 
Q 1497 3097 1228 2736 
Q 959 2375 959 1747 
Q 959 1119 1226 758 
Q 1494 397 1959 397 
Q 2419 397 2687 759 
Q 2956 1122 2956 1747 
Q 2956 2369 2687 2733 
Q 2419 3097 1959 3097 
z
M 1959 3584 
Q 2709 3584 3137 3096 
Q 3566 2609 3566 1747 
Q 3566 888 3137 398 
Q 2709 -91 1959 -91 
Q 1206 -91 779 398 
Q 353 888 353 1747 
Q 353 2609 779 3096 
Q 1206 3584 1959 3584 
z
" transform="scale(0.015625)"/>
      </defs>
      <use xlink:href="#DejaVuSans-50"/>
      <use xlink:href="#DejaVuSans-72" x="58.552734"/>
      <use xlink:href="#DejaVuSans-69" x="99.666016"/>
      <use xlink:href="#DejaVuSans-63" x="127.449219"/>
      <use xlink:href="#DejaVuSans-65" x="182.429688"/>
      <use xlink:href="#DejaVuSans-2f" x="243.953125"/>
      <use xlink:href="#DejaVuSans-73" x="277.644531"/>
      <use xlink:href="#DejaVuSans-74" x="329.744141"/>
      <use xlink:href="#DejaVuSans-72" x="368.953125"/>
      <use xlink:href="#DejaVuSans-69" x="410.066406"/>
      <use xlink:href="#DejaVuSans-6b" x="437.849609"/>
      <use xlink:href="#DejaVuSans-65" x="492.134766"/>
      <use xlink:href="#DejaVuSans-20" x="553.658203"/>
      <use xlink:href="#DejaVuSans-72" x="585.445312"/>
      <use xlink:href="#DejaVuSans-61" x="626.558594"/>
      <use xlink:href="#DejaVuSans-74" x="687.837891"/>
      <use xlink:href="#DejaVuSans-69" x="727.046875"/>
      <use xlink:href="#DejaVuSans-6f" x="754.830078"/>
     </g>
    </g>
   </g>
   <g id="line2d_25">
    <path d="M 138.436364 477.207273 
L 139.41316 492.48 
L 140.023658 461.934545 
L 140.756255 474.152727 
L 141.488852 480.261818 
L 141.610952 455.825455 
L 141.672002 492.48 
L 141.733051 480.261818 
L 143.137196 455.825455 
L 143.625594 458.88 
L 143.686644 480.261818 
L 143.808744 464.989091 
L 144.72449 471.098182 
L 145.151839 468.043636 
L 145.334988 468.043636 
L 145.457087 461.934545 
L 146.372834 452.770909 
L 146.494933 486.370909 
L 146.678083 449.716364 
L 148.631675 446.661818 
L 149.669522 452.770909 
L 150.21897 449.716364 
L 151.012617 455.825455 
L 151.928363 471.098182 
L 151.989413 464.989091 
L 152.599911 446.661818 
L 152.599911 446.661818 
L 152.78306 486.370909 
L 153.210408 483.316364 
L 154.370354 471.098182 
L 154.492454 455.825455 
L 156.446046 437.498182 
L 156.690245 455.825455 
L 159.254336 443.607273 
L 159.315386 458.88 
L 160.90268 461.934545 
L 161.207928 455.825455 
L 161.330028 464.989091 
L 162.062625 471.098182 
L 162.062625 437.498182 
L 162.184725 458.88 
L 162.367874 455.825455 
L 163.52782 440.552727 
L 164.748815 452.770909 
L 166.763458 431.389091 
L 167.129756 403.898182 
L 167.984453 449.716364 
L 168.594951 458.88 
L 168.7781 443.607273 
L 170.426444 449.716364 
L 171.647439 410.007273 
L 173.295783 455.825455 
L 174.27258 464.989091 
L 174.333629 422.225455 
L 174.699928 455.825455 
L 175.005177 431.389091 
L 175.615675 425.28 
L 175.859874 446.661818 
L 175.920923 434.443636 
L 176.104073 452.770909 
L 176.531421 440.552727 
L 176.531421 440.552727 
L 177.019819 449.716364 
L 177.691367 422.225455 
L 179.095512 434.443636 
L 183.979493 422.225455 
L 184.284742 437.498182 
L 185.139439 425.28 
L 185.627837 428.334545 
L 186.909882 413.061818 
L 187.39828 437.498182 
L 187.886679 425.28 
L 188.436127 428.334545 
L 188.436127 419.170909 
L 188.558226 437.498182 
L 189.168724 413.061818 
L 190.20657 410.007273 
L 190.450769 443.607273 
L 191.244416 422.225455 
L 192.099113 449.716364 
L 193.625357 431.389091 
L 193.747457 422.225455 
L 194.357954 400.843636 
L 194.541104 425.28 
L 196.311547 431.389091 
L 196.555746 422.225455 
L 197.715692 419.170909 
L 197.898841 397.789091 
L 198.936687 397.789091 
L 200.401882 413.061818 
L 202.660723 419.170909 
L 202.782823 419.170909 
L 202.904922 397.789091 
L 203.210171 413.061818 
L 203.63752 419.170909 
L 204.492217 419.170909 
L 204.553266 391.68 
L 204.858515 394.734545 
L 205.652162 410.007273 
L 205.835311 397.789091 
L 206.32371 434.443636 
L 206.445809 400.843636 
L 206.445809 400.843636 
L 206.995257 440.552727 
L 206.995257 419.170909 
L 207.178406 440.552727 
L 207.300506 422.225455 
L 208.033103 391.68 
L 209.070949 425.28 
L 209.131999 397.789091 
L 209.315148 385.570909 
L 209.437248 422.225455 
L 209.803547 397.789091 
L 210.841393 413.061818 
L 212.001338 406.952727 
L 212.428687 443.607273 
L 212.550786 416.116364 
L 214.443329 406.952727 
L 214.504379 394.734545 
L 215.114877 391.68 
L 216.580071 400.843636 
L 217.434768 416.116364 
L 217.923166 422.225455 
L 217.984216 394.734545 
L 220.182008 388.625455 
L 220.487257 406.952727 
L 220.548306 446.661818 
L 221.708252 385.570909 
L 221.891401 391.68 
L 222.31875 428.334545 
L 222.3798 425.28 
L 222.440849 382.516364 
L 222.440849 403.898182 
L 223.173447 382.516364 
L 224.638641 410.007273 
L 225.249139 394.734545 
L 226.409085 373.352727 
L 226.775383 413.061818 
L 227.996379 388.625455 
L 228.240578 391.68 
L 229.034225 379.461818 
L 230.865718 391.68 
L 230.926768 397.789091 
L 233.00246 385.570909 
L 233.368758 388.625455 
L 233.735057 400.843636 
L 233.918206 397.789091 
L 234.101356 379.461818 
L 234.528704 373.352727 
L 234.528704 397.789091 
L 234.956053 382.516364 
L 235.017102 416.116364 
L 236.421247 388.625455 
L 236.848595 391.68 
L 237.459093 397.789091 
L 237.947491 388.625455 
L 238.25274 364.189091 
L 239.473736 397.789091 
L 240.084233 406.952727 
L 242.343075 406.952727 
L 242.404125 434.443636 
L 242.465174 379.461818 
L 243.503021 379.461818 
L 243.991419 394.734545 
L 244.235618 382.516364 
L 244.357717 364.189091 
L 245.578713 370.298182 
L 246.555509 376.407273 
L 246.616559 373.352727 
L 247.837554 397.789091 
L 248.325953 382.516364 
L 248.570152 364.189091 
L 248.753301 379.461818 
L 248.93645 376.407273 
L 249.913247 394.734545 
L 250.767943 406.952727 
L 251.317391 373.352727 
L 251.988939 382.516364 
L 252.965735 361.134545 
L 253.148884 370.298182 
L 253.148884 342.807273 
L 253.820432 400.843636 
L 254.003581 367.243636 
L 256.140323 367.243636 
L 257.178169 339.752727 
L 258.887563 361.134545 
L 259.864359 391.68 
L 259.986459 367.243636 
L 260.291708 397.789091 
L 260.535907 361.134545 
L 261.207454 327.534545 
L 261.512703 370.298182 
L 262.550549 373.352727 
L 262.550549 355.025455 
L 262.977898 358.08 
L 263.588395 376.407273 
L 264.198893 379.461818 
L 265.480938 351.970909 
L 265.969337 364.189091 
L 266.152486 388.625455 
L 266.335635 370.298182 
L 266.824033 358.08 
L 269.449174 379.461818 
L 270.181771 355.025455 
L 270.914368 342.807273 
L 272.562712 388.625455 
L 272.684811 364.189091 
L 273.539508 379.461818 
L 275.309952 367.243636 
L 276.164648 364.189091 
L 276.653047 364.189091 
L 277.080395 382.516364 
L 277.996142 333.643636 
L 279.095037 339.752727 
L 279.400286 327.534545 
L 279.705535 348.916364 
L 280.132884 361.134545 
L 280.926531 355.025455 
L 280.98758 339.752727 
L 281.10968 370.298182 
L 282.513825 336.698182 
L 283.185372 364.189091 
L 283.73482 364.189091 
L 283.917969 361.134545 
L 283.979019 373.352727 
L 284.162168 339.752727 
L 284.711616 364.189091 
L 284.955816 336.698182 
L 285.138965 351.970909 
L 285.810512 351.970909 
L 286.604159 376.407273 
L 286.848358 391.68 
L 287.825155 364.189091 
L 287.886205 348.916364 
L 288.496702 342.807273 
L 288.496702 361.134545 
L 288.863001 361.134545 
L 289.290349 376.407273 
L 289.473499 348.916364 
L 289.717698 376.407273 
L 289.839797 330.589091 
L 290.999743 370.298182 
L 292.831236 330.589091 
L 293.075435 373.352727 
L 293.075435 351.970909 
L 293.685933 318.370909 
L 294.235381 336.698182 
L 294.235381 336.698182 
L 294.662729 336.698182 
L 294.784829 324.48 
L 294.967978 318.370909 
L 295.334277 330.589091 
L 295.761625 351.970909 
L 295.944774 336.698182 
L 296.005824 342.807273 
L 296.127924 312.261818 
L 296.311073 348.916364 
L 296.799471 345.861818 
L 297.959417 333.643636 
L 298.203616 342.807273 
L 298.630964 345.861818 
L 298.753064 327.534545 
L 300.157209 351.970909 
L 301.378204 339.752727 
L 302.232901 318.370909 
L 302.4771 321.425455 
L 302.4771 318.370909 
L 303.575996 330.589091 
L 304.369643 342.807273 
L 304.491742 370.298182 
L 304.858041 330.589091 
L 305.04119 333.643636 
L 305.04119 330.589091 
L 305.16329 336.698182 
L 305.22434 321.425455 
L 305.468539 351.970909 
L 306.017987 318.370909 
L 306.201136 355.025455 
L 306.384285 342.807273 
L 306.628484 309.207273 
L 307.177932 327.534545 
L 307.78843 342.807273 
L 310.047272 345.861818 
L 310.230421 321.425455 
L 310.840919 330.589091 
L 311.207217 345.861818 
L 311.939815 300.043636 
L 313.03871 327.534545 
L 313.771308 336.698182 
L 313.893407 327.534545 
L 314.809154 339.752727 
L 315.053353 333.643636 
L 315.114403 348.916364 
L 316.762747 355.025455 
L 317.067995 355.025455 
L 317.190095 373.352727 
L 317.251145 327.534545 
L 317.800593 321.425455 
L 318.41109 318.370909 
L 318.838439 355.025455 
L 319.326837 318.370909 
L 319.509986 345.861818 
L 319.876285 324.48 
L 320.425733 348.916364 
L 320.730982 351.970909 
L 321.402529 333.643636 
L 323.356122 318.370909 
L 323.417172 351.970909 
L 324.821316 321.425455 
L 325.065515 342.807273 
L 325.187615 342.807273 
L 325.798113 355.025455 
L 326.897009 345.861818 
L 327.324357 293.934545 
L 327.507506 309.207273 
L 328.240104 290.88 
L 329.400049 287.825455 
L 329.400049 315.316364 
L 330.010547 327.534545 
L 330.376846 339.752727 
L 330.376846 318.370909 
L 330.498945 339.752727 
L 330.498945 324.48 
L 330.621045 339.752727 
L 331.170493 324.48 
L 331.536791 324.48 
L 332.025189 330.589091 
L 334.955578 300.043636 
L 336.909171 296.989091 
L 338.496465 318.370909 
L 339.229062 300.043636 
L 339.229062 315.316364 
L 340.022709 318.370909 
L 340.999506 303.098182 
L 341.243705 296.989091 
L 341.487904 306.152727 
L 342.708899 287.825455 
L 343.624646 315.316364 
L 343.990945 318.370909 
L 344.235144 321.425455 
L 344.784592 318.370909 
L 345.21194 303.098182 
L 345.700338 321.425455 
L 345.883488 312.261818 
L 346.249786 312.261818 
L 346.860284 330.589091 
L 347.226583 303.098182 
L 348.142329 315.316364 
L 348.142329 296.989091 
L 350.279071 293.934545 
L 354.369406 318.370909 
L 354.979904 327.534545 
L 356.384048 315.316364 
L 356.628247 309.207273 
L 357.360845 312.261818 
L 358.215541 306.152727 
L 358.215541 272.552727 
L 358.337641 330.589091 
L 358.52079 309.207273 
L 358.887089 290.88 
L 359.009188 306.152727 
L 359.131288 348.916364 
L 359.192338 309.207273 
L 360.047035 296.989091 
L 360.962781 318.370909 
L 361.39013 321.425455 
L 361.939578 303.098182 
L 362.427976 315.316364 
L 362.489025 275.607273 
L 362.611125 342.807273 
L 364.442618 309.207273 
L 366.090962 315.316364 
L 366.70146 284.770909 
L 368.716102 300.043636 
L 371.402292 300.043636 
L 371.707541 275.607273 
L 372.01279 309.207273 
L 372.07384 296.989091 
L 372.134889 306.152727 
L 372.256989 306.152727 
L 372.806437 293.934545 
L 373.050636 309.207273 
L 374.210582 309.207273 
L 374.69898 303.098182 
L 376.103125 303.098182 
L 376.103125 312.261818 
L 376.286274 275.607273 
L 376.652572 318.370909 
L 376.652572 275.607273 
L 377.140971 339.752727 
L 377.20202 303.098182 
L 378.667215 266.443636 
L 380.498708 287.825455 
L 381.536554 306.152727 
L 382.086002 281.716364 
L 382.147052 287.825455 
L 383.734346 306.152727 
L 384.711142 296.989091 
L 385.32164 333.643636 
L 385.44374 263.389091 
L 385.871088 284.770909 
L 386.664735 281.716364 
L 387.214183 330.589091 
L 387.824681 315.316364 
L 387.824681 290.88 
L 388.12993 296.989091 
L 388.984626 306.152727 
L 391.548717 303.098182 
L 392.037115 257.28 
L 392.220264 272.552727 
L 392.281314 287.825455 
L 392.586563 293.934545 
L 394.295956 275.607273 
L 394.418056 309.207273 
L 395.455902 275.607273 
L 395.9443 300.043636 
L 397.653694 284.770909 
L 399.179938 260.334545 
L 400.584083 284.770909 
L 400.706182 266.443636 
L 400.889332 287.825455 
L 402.354526 275.607273 
L 402.537676 269.498182 
L 404.491268 263.389091 
L 404.613368 269.498182 
L 405.284915 281.716364 
L 405.773314 321.425455 
L 406.322761 290.88 
L 406.994309 293.934545 
L 407.177458 275.607273 
L 407.787956 257.28 
L 408.764752 266.443636 
L 410.290997 248.116364 
L 410.474146 275.607273 
L 411.206743 275.607273 
L 411.817241 229.789091 
L 413.038236 272.552727 
L 413.160336 318.370909 
L 413.892933 269.498182 
L 414.68658 300.043636 
L 415.480227 293.934545 
L 415.602327 248.116364 
L 416.212824 278.661818 
L 416.457024 257.28 
L 416.762272 248.116364 
L 417.861168 293.934545 
L 417.983268 248.116364 
L 417.983268 266.443636 
L 418.715865 275.607273 
L 419.021114 266.443636 
L 419.143214 290.88 
L 419.265313 257.28 
L 419.326363 287.825455 
L 419.875811 275.607273 
L 420.12001 263.389091 
L 420.913657 263.389091 
L 421.829403 272.552727 
L 421.829403 242.007273 
L 422.317802 242.007273 
L 422.8062 303.098182 
L 423.050399 269.498182 
L 423.844046 260.334545 
L 424.271394 290.88 
L 424.820842 281.716364 
L 424.942942 257.28 
L 425.187141 275.607273 
L 425.614489 242.007273 
L 425.797639 217.570909 
L 426.530236 272.552727 
L 427.323883 260.334545 
L 427.629132 248.116364 
L 428.17858 245.061818 
L 428.666978 266.443636 
L 429.399575 248.116364 
L 429.704824 266.443636 
L 430.071123 245.061818 
L 431.353168 281.716364 
L 431.536317 257.28 
L 431.902616 254.225455 
L 432.085765 254.225455 
L 433.48991 248.116364 
L 434.161457 260.334545 
L 435.443503 263.389091 
L 435.931901 269.498182 
L 438.67914 290.88 
L 439.900136 260.334545 
L 440.205385 226.734545 
L 440.510634 290.88 
L 441.243231 229.789091 
L 441.48743 287.825455 
L 441.54848 284.770909 
L 442.342127 293.934545 
L 444.356769 235.898182 
L 444.600968 266.443636 
L 444.723068 248.116364 
L 444.906217 290.88 
L 446.188262 248.116364 
L 446.249312 315.316364 
L 446.981909 254.225455 
L 446.981909 281.716364 
L 447.592407 232.843636 
L 447.653457 257.28 
L 447.775556 254.225455 
L 448.325004 254.225455 
L 448.386054 269.498182 
L 449.668099 208.407273 
L 450.766995 245.061818 
L 452.903737 257.28 
L 453.086887 269.498182 
L 453.880534 278.661818 
L 454.368932 272.552727 
L 454.979429 232.843636 
L 455.284678 278.661818 
L 456.566723 226.734545 
L 456.688823 238.952727 
L 456.688823 251.170909 
L 457.848769 275.607273 
L 458.825565 235.898182 
L 459.802361 263.389091 
L 459.802361 254.225455 
L 460.412859 260.334545 
L 462.061203 217.570909 
L 462.244352 220.625455 
L 462.85485 226.734545 
L 464.747393 260.334545 
L 465.724189 248.116364 
L 466.823085 251.170909 
L 467.372533 220.625455 
L 467.860931 260.334545 
L 468.410379 238.952727 
L 469.142976 220.625455 
L 469.997673 202.298182 
L 470.608171 229.789091 
L 470.85237 254.225455 
L 471.218669 205.352727 
L 471.340768 226.734545 
L 471.890216 242.007273 
L 472.683863 214.516364 
L 472.805963 242.007273 
L 472.867013 217.570909 
L 473.050162 260.334545 
L 473.294361 251.170909 
L 473.355411 238.952727 
L 473.59961 229.789091 
L 474.149058 257.28 
L 475.614252 266.443636 
L 475.736352 242.007273 
L 476.10265 260.334545 
L 476.10265 290.88 
L 476.529999 226.734545 
L 476.774198 257.28 
L 476.835248 284.770909 
L 477.384696 229.789091 
L 477.995193 211.461818 
L 478.239392 242.007273 
L 478.300442 229.789091 
L 479.216189 223.68 
L 480.437184 214.516364 
L 482.879175 303.098182 
L 483.062324 251.170909 
L 483.123374 260.334545 
L 483.184424 205.352727 
L 483.367573 260.334545 
L 484.16122 266.443636 
L 484.649618 235.898182 
L 486.114813 208.407273 
L 486.297962 251.170909 
L 487.335808 226.734545 
L 488.251555 226.734545 
L 489.228351 245.061818 
L 490.571446 245.061818 
L 491.242994 229.789091 
L 491.365093 245.061818 
L 491.914541 217.570909 
L 493.318686 217.570909 
L 493.379736 208.407273 
L 493.440786 232.843636 
L 493.623935 232.843636 
L 494.295482 248.116364 
L 495.699627 242.007273 
L 496.065926 235.898182 
L 497.53112 251.170909 
L 497.836369 171.752727 
L 498.019518 226.734545 
L 500.766758 226.734545 
L 502.415102 248.116364 
L 502.96455 223.68 
L 503.575048 235.898182 
L 505.223391 235.898182 
L 505.284441 275.607273 
L 505.284441 199.243636 
L 505.894939 232.843636 
L 506.017039 254.225455 
L 506.261238 223.68 
L 506.444387 232.843636 
L 506.505437 220.625455 
L 507.726432 226.734545 
L 508.092731 235.898182 
L 508.21483 232.843636 
L 509.008477 238.952727 
L 510.290523 251.170909 
L 511.206269 245.061818 
L 511.694667 232.843636 
L 511.999916 229.789091 
L 512.488314 226.734545 
L 512.610414 254.225455 
L 513.404061 202.298182 
L 513.404061 223.68 
L 515.235554 217.570909 
L 516.029201 217.570909 
L 516.029201 220.625455 
L 517.005997 190.08 
L 517.372296 242.007273 
L 517.738595 211.461818 
L 518.349092 202.298182 
L 518.532242 196.189091 
L 518.837491 211.461818 
L 519.203789 260.334545 
L 519.753237 235.898182 
L 520.730033 248.116364 
L 522.073128 199.243636 
L 522.866775 214.516364 
L 523.965671 242.007273 
L 525.308766 238.952727 
L 527.384459 190.08 
L 527.567608 242.007273 
L 527.933907 205.352727 
L 527.994956 254.225455 
L 527.994956 217.570909 
L 528.605454 220.625455 
L 528.727554 193.134545 
L 529.460151 214.516364 
L 531.718992 223.68 
L 532.939988 211.461818 
L 533.794685 220.625455 
L 533.916784 187.025455 
L 535.809327 235.898182 
L 535.992476 187.025455 
L 536.053526 193.134545 
L 537.518721 180.916364 
L 539.472313 220.625455 
L 541.181707 193.134545 
L 541.548006 193.134545 
L 541.609055 208.407273 
L 541.609055 208.407273 
L 542.097454 193.134545 
L 542.463752 232.843636 
L 543.318449 214.516364 
L 543.440548 223.68 
L 544.356295 238.952727 
L 545.82149 229.789091 
L 545.882539 226.734545 
L 546.676186 217.570909 
L 547.286684 205.352727 
L 548.38558 165.643636 
L 549.789725 217.570909 
L 550.217073 211.461818 
L 550.217073 223.68 
L 551.13282 220.625455 
L 551.743317 211.461818 
L 552.414865 193.134545 
L 552.659064 205.352727 
L 553.269562 226.734545 
L 553.69691 180.916364 
L 554.002159 202.298182 
L 554.612657 168.698182 
L 555.711553 217.570909 
L 556.016801 193.134545 
L 556.261001 193.134545 
L 557.420946 199.243636 
L 558.275643 223.68 
L 559.19139 156.48 
L 560.107136 193.134545 
L 560.473435 187.025455 
L 560.778684 168.698182 
L 561.022883 214.516364 
L 561.206032 150.370909 
L 562.610177 202.298182 
L 563.525923 214.516364 
L 564.746919 187.025455 
L 565.662665 174.807273 
L 566.212113 202.298182 
L 566.334213 193.134545 
L 566.334213 211.461818 
L 566.639462 205.352727 
L 568.104656 180.916364 
L 568.654104 153.425455 
L 569.569851 193.134545 
L 570.851896 177.861818 
L 571.279244 208.407273 
L 571.279244 196.189091 
L 571.401344 205.352727 
L 572.072891 193.134545 
L 572.37814 220.625455 
L 572.622339 180.916364 
L 572.988638 180.916364 
L 573.110738 196.189091 
L 573.599136 190.08 
L 574.331733 196.189091 
L 574.636982 183.970909 
L 575.980077 208.407273 
L 576.956873 235.898182 
L 578.055769 177.861818 
L 579.337814 202.298182 
L 580.803009 196.189091 
L 581.291407 168.698182 
L 583.428149 138.152727 
L 585.503841 190.08 
L 587.518484 180.916364 
L 587.701633 205.352727 
L 588.312131 144.261818 
L 589.044728 165.643636 
L 589.594176 153.425455 
L 589.777325 232.843636 
L 589.960474 187.025455 
L 590.021524 196.189091 
L 592.280366 214.516364 
L 592.707714 193.134545 
L 593.379262 168.698182 
L 593.562411 156.48 
L 593.86766 165.643636 
L 594.356058 156.48 
L 595.516004 180.916364 
L 595.577053 214.516364 
L 595.699153 196.189091 
L 597.347497 165.643636 
L 597.530646 199.243636 
L 598.507442 196.189091 
L 599.728438 156.48 
L 600.155786 162.589091 
L 600.277886 232.843636 
L 600.949433 144.261818 
L 601.80413 214.516364 
L 602.292528 196.189091 
L 604.062972 180.916364 
L 604.185071 202.298182 
L 605.039768 208.407273 
L 606.016564 199.243636 
L 606.199714 226.734545 
L 606.627062 174.807273 
L 606.688112 214.516364 
L 606.871261 165.643636 
L 607.23756 183.970909 
L 607.359659 205.352727 
L 608.153306 138.152727 
L 608.458555 153.425455 
L 608.946953 171.752727 
L 609.313252 232.843636 
L 609.435352 171.752727 
L 610.045849 190.08 
L 610.778447 138.152727 
L 610.900546 153.425455 
L 611.205795 147.316364 
L 612.060492 156.48 
L 612.365741 174.807273 
L 612.67099 177.861818 
L 612.732039 153.425455 
L 615.662428 199.243636 
L 616.089777 190.08 
L 616.089777 159.534545 
L 616.333976 211.461818 
L 616.517125 171.752727 
L 617.188673 162.589091 
L 617.249722 156.48 
L 622.011605 183.970909 
L 622.438953 141.207273 
L 623.537849 193.134545 
L 624.697795 159.534545 
L 625.308292 196.189091 
L 625.369342 174.807273 
L 626.895586 159.534545 
L 627.445034 156.48 
L 628.360781 165.643636 
L 629.948075 147.316364 
L 630.497523 168.698182 
L 630.680672 187.025455 
L 631.779568 180.916364 
L 633.305812 183.970909 
L 634.404708 141.207273 
L 634.587858 196.189091 
L 634.709957 183.970909 
L 634.709957 150.370909 
L 635.076256 153.425455 
L 636.419351 171.752727 
L 637.212998 177.861818 
L 639.471839 190.08 
L 640.204437 168.698182 
L 641.425432 193.134545 
L 641.91383 168.698182 
L 641.91383 177.861818 
L 642.096979 168.698182 
L 643.806373 165.643636 
L 643.806373 138.152727 
L 644.111622 165.643636 
L 644.233721 132.043636 
L 645.088418 190.08 
L 647.713558 165.643636 
L 647.957757 144.261818 
L 649.9724 135.098182 
L 650.582898 168.698182 
L 650.643947 153.425455 
L 651.010246 211.461818 
L 651.193395 132.043636 
L 652.71964 183.970909 
L 653.818536 147.316364 
L 654.062735 165.643636 
L 654.245884 113.716364 
L 654.490083 165.643636 
L 654.978481 171.752727 
L 655.039531 202.298182 
L 655.40583 174.807273 
L 656.382626 196.189091 
L 656.809974 190.08 
L 659.068816 174.807273 
L 659.251965 150.370909 
L 659.496164 180.916364 
L 659.862463 168.698182 
L 659.984563 214.516364 
L 660.53401 125.934545 
L 661.144508 183.970909 
L 662.121305 159.534545 
L 662.365504 162.589091 
L 663.586499 171.752727 
L 663.647549 132.043636 
L 663.830698 183.970909 
L 665.540092 153.425455 
L 665.601141 180.916364 
L 666.822137 144.261818 
L 666.883187 199.243636 
L 667.921033 159.534545 
L 670.179874 138.152727 
L 670.363024 119.825455 
L 672.011368 159.534545 
L 672.072417 150.370909 
L 672.255567 165.643636 
L 674.270209 144.261818 
L 675.247005 153.425455 
L 675.613304 147.316364 
L 676.284852 138.152727 
L 676.77325 150.370909 
L 678.726842 135.098182 
L 679.45944 147.316364 
L 680.253087 153.425455 
L 681.168833 159.534545 
L 684.526571 174.807273 
L 685.503367 128.989091 
L 685.747566 147.316364 
L 686.297014 122.88 
L 686.602263 141.207273 
L 686.907512 177.861818 
L 687.27381 162.589091 
L 689.349503 165.643636 
L 689.593702 141.207273 
L 691.364145 177.861818 
L 692.890389 144.261818 
L 693.500887 183.970909 
L 693.745086 177.861818 
L 696.064978 147.316364 
L 696.492326 132.043636 
L 696.614425 168.698182 
L 697.041774 165.643636 
L 697.041774 156.48 
L 697.530172 104.552727 
L 697.652272 190.08 
L 697.652272 116.770909 
L 698.07962 162.589091 
L 699.178516 171.752727 
L 700.460561 144.261818 
L 700.70476 147.316364 
L 701.315258 144.261818 
L 701.376308 104.552727 
L 701.559457 159.534545 
L 702.536253 138.152727 
L 702.780452 162.589091 
L 703.024651 159.534545 
L 703.635149 159.534545 
L 704.001448 122.88 
L 705.283493 156.48 
L 705.466642 144.261818 
L 705.588742 159.534545 
L 707.969683 159.534545 
L 708.152832 128.989091 
L 709.190678 144.261818 
L 709.679077 180.916364 
L 709.679077 98.443636 
L 711.266371 147.316364 
L 711.38847 128.989091 
L 711.38847 162.589091 
L 711.876868 113.716364 
L 712.182117 128.989091 
L 714.318859 125.934545 
L 714.990407 147.316364 
L 716.455601 138.152727 
L 716.76085 153.425455 
L 717.981846 156.48 
L 718.042895 132.043636 
L 718.775493 132.043636 
L 719.44704 122.88 
L 719.50809 119.825455 
L 721.522732 153.425455 
L 721.766931 119.825455 
L 721.950081 159.534545 
L 722.316379 147.316364 
L 722.560578 113.716364 
L 723.476325 132.043636 
L 723.476325 165.643636 
L 724.269972 156.48 
L 724.81942 168.698182 
L 725.185719 132.043636 
L 725.552017 141.207273 
L 727.932958 147.316364 
L 728.177157 150.370909 
L 728.299257 183.970909 
L 728.543456 135.098182 
L 728.604506 98.443636 
L 728.665556 147.316364 
L 729.886551 165.643636 
L 731.779094 122.88 
L 732.084343 132.043636 
L 733.610587 107.607273 
L 733.732687 119.825455 
L 733.976886 89.28 
L 734.770533 141.207273 
L 734.892632 135.098182 
L 735.136831 144.261818 
L 735.197881 119.825455 
L 735.258931 141.207273 
L 735.319981 132.043636 
L 736.479926 150.370909 
L 736.724125 199.243636 
L 736.968325 138.152727 
L 739.105067 153.425455 
L 739.715564 141.207273 
L 740.203962 116.770909 
L 740.448161 135.098182 
L 740.75341 107.607273 
L 741.791256 125.934545 
L 742.707003 122.88 
L 743.073302 196.189091 
L 743.989048 107.607273 
L 744.416397 128.989091 
L 744.599546 104.552727 
L 746.18684 113.716364 
L 746.30894 135.098182 
L 747.163636 147.316364 
L 747.163636 147.316364 
" clip-path="url(#pe57ddb9e6f)" style="fill: none; stroke: #1f77b4; stroke-width: 2; stroke-linecap: square"/>
   </g>
   <g id="patch_3">
    <path d="M 108 512.64 
L 108 69.12 
" style="fill: none; stroke: #000000; stroke-width: 0.8; stroke-linejoin: miter; stroke-linecap: square"/>
   </g>
   <g id="patch_4">
    <path d="M 777.6 512.64 
L 777.6 69.12 
" style="fill: none; stroke: #000000; stroke-width: 0.8; stroke-linejoin: miter; stroke-linecap: square"/>
   </g>
   <g id="patch_5">
    <path d="M 108 512.64 
L 777.6 512.64 
" style="fill: none; stroke: #000000; stroke-width: 0.8; stroke-linejoin: miter; stroke-linecap: square"/>
   </g>
   <g id="patch_6">
    <path d="M 108 69.12 
L 777.6 69.12 
" style="fill: none; stroke: #000000; stroke-width: 0.8; stroke-linejoin: miter; stroke-linecap: square"/>
   </g>
   <g id="text_15">
    <!-- Price by ttm -->
    <g transform="translate(382.2 63.12) scale(0.2 -0.2)">
     <defs>
      <path id="DejaVuSans-62" d="M 3116 1747 
Q 3116 2381 2855 2742 
Q 2594 3103 2138 3103 
Q 1681 3103 1420 2742 
Q 1159 2381 1159 1747 
Q 1159 1113 1420 752 
Q 1681 391 2138 391 
Q 2594 391 2855 752 
Q 3116 1113 3116 1747 
z
M 1159 2969 
Q 1341 3281 1617 3432 
Q 1894 3584 2278 3584 
Q 2916 3584 3314 3078 
Q 3713 2572 3713 1747 
Q 3713 922 3314 415 
Q 2916 -91 2278 -91 
Q 1894 -91 1617 61 
Q 1341 213 1159 525 
L 1159 0 
L 581 0 
L 581 4863 
L 1159 4863 
L 1159 2969 
z
" transform="scale(0.015625)"/>
      <path id="DejaVuSans-79" d="M 2059 -325 
Q 1816 -950 1584 -1140 
Q 1353 -1331 966 -1331 
L 506 -1331 
L 506 -850 
L 844 -850 
Q 1081 -850 1212 -737 
Q 1344 -625 1503 -206 
L 1606 56 
L 191 3500 
L 800 3500 
L 1894 763 
L 2988 3500 
L 3597 3500 
L 2059 -325 
z
" transform="scale(0.015625)"/>
      <path id="DejaVuSans-6d" d="M 3328 2828 
Q 3544 3216 3844 3400 
Q 4144 3584 4550 3584 
Q 5097 3584 5394 3201 
Q 5691 2819 5691 2113 
L 5691 0 
L 5113 0 
L 5113 2094 
Q 5113 2597 4934 2840 
Q 4756 3084 4391 3084 
Q 3944 3084 3684 2787 
Q 3425 2491 3425 1978 
L 3425 0 
L 2847 0 
L 2847 2094 
Q 2847 2600 2669 2842 
Q 2491 3084 2119 3084 
Q 1678 3084 1418 2786 
Q 1159 2488 1159 1978 
L 1159 0 
L 581 0 
L 581 3500 
L 1159 3500 
L 1159 2956 
Q 1356 3278 1631 3431 
Q 1906 3584 2284 3584 
Q 2666 3584 2933 3390 
Q 3200 3197 3328 2828 
z
" transform="scale(0.015625)"/>
     </defs>
     <use xlink:href="#DejaVuSans-50"/>
     <use xlink:href="#DejaVuSans-72" x="58.552734"/>
     <use xlink:href="#DejaVuSans-69" x="99.666016"/>
     <use xlink:href="#DejaVuSans-63" x="127.449219"/>
     <use xlink:href="#DejaVuSans-65" x="182.429688"/>
     <use xlink:href="#DejaVuSans-20" x="243.953125"/>
     <use xlink:href="#DejaVuSans-62" x="275.740234"/>
     <use xlink:href="#DejaVuSans-79" x="339.216797"/>
     <use xlink:href="#DejaVuSans-20" x="398.396484"/>
     <use xlink:href="#DejaVuSans-74" x="430.183594"/>
     <use xlink:href="#DejaVuSans-74" x="469.392578"/>
     <use xlink:href="#DejaVuSans-6d" x="508.601562"/>
    </g>
   </g>
   <g id="legend_1">
    <g id="patch_7">
     <path d="M 120.6 109.940625 
L 206.299688 109.940625 
Q 209.899687 109.940625 209.899687 106.340625 
L 209.899687 81.72 
Q 209.899687 78.12 206.299688 78.12 
L 120.6 78.12 
Q 117 78.12 117 81.72 
L 117 106.340625 
Q 117 109.940625 120.6 109.940625 
z
" style="fill: #ffffff; opacity: 0.8; stroke: #cccccc; stroke-linejoin: miter"/>
    </g>
    <g id="line2d_26">
     <path d="M 124.2 92.697188 
L 142.2 92.697188 
L 160.2 92.697188 
" style="fill: none; stroke: #1f77b4; stroke-width: 2; stroke-linecap: square"/>
    </g>
    <g id="text_16">
     <!-- MC -->
     <g transform="translate(174.6 98.997188) scale(0.18 -0.18)">
      <defs>
       <path id="DejaVuSans-43" d="M 4122 4306 
L 4122 3641 
Q 3803 3938 3442 4084 
Q 3081 4231 2675 4231 
Q 1875 4231 1450 3742 
Q 1025 3253 1025 2328 
Q 1025 1406 1450 917 
Q 1875 428 2675 428 
Q 3081 428 3442 575 
Q 3803 722 4122 1019 
L 4122 359 
Q 3791 134 3420 21 
Q 3050 -91 2638 -91 
Q 1578 -91 968 557 
Q 359 1206 359 2328 
Q 359 3453 968 4101 
Q 1578 4750 2638 4750 
Q 3056 4750 3426 4639 
Q 3797 4528 4122 4306 
z
" transform="scale(0.015625)"/>
      </defs>
      <use xlink:href="#DejaVuSans-4d"/>
      <use xlink:href="#DejaVuSans-43" x="86.279297"/>
     </g>
    </g>
   </g>
  </g>
 </g>
 <defs>
  <clipPath id="pe57ddb9e6f">
   <rect x="108" y="69.12" width="669.6" height="443.52"/>
  </clipPath>
 </defs>
</svg>
