<?xml version="1.0" encoding="utf-8" standalone="no"?>
<!DOCTYPE svg PUBLIC "-//W3C//DTD SVG 1.1//EN"
  "http://www.w3.org/Graphics/SVG/1.1/DTD/svg11.dtd">
<svg xmlns:xlink="http://www.w3.org/1999/xlink" width="460.8pt" height="345.6pt" viewBox="0 0 460.8 345.6" xmlns="http://www.w3.org/2000/svg" version="1.1">
 <metadata>
  <rdf:RDF xmlns:dc="http://purl.org/dc/elements/1.1/" xmlns:cc="http://creativecommons.org/ns#" xmlns:rdf="http://www.w3.org/1999/02/22-rdf-syntax-ns#">
   <cc:Work>
    <dc:type rdf:resource="http://purl.org/dc/dcmitype/StillImage"/>
    <dc:date>2024-03-24T14:05:32.207139</dc:date>
    <dc:format>image/svg+xml</dc:format>
    <dc:creator>
     <cc:Agent>
      <dc:title>Matplotlib v3.7.3, https://matplotlib.org/</dc:title>
     </cc:Agent>
    </dc:creator>
   </cc:Work>
  </rdf:RDF>
 </metadata>
 <defs>
  <style type="text/css">*{stroke-linejoin: round; stroke-linecap: butt}</style>
 </defs>
 <g id="figure_1">
  <g id="patch_1">
   <path d="M 0 345.6 
L 460.8 345.6 
L 460.8 0 
L 0 0 
z
" style="fill: #ffffff"/>
  </g>
  <g id="patch_2">
   <path d="M 103.104 307.584 
L 369.216 307.584 
L 369.216 41.472 
L 103.104 41.472 
z
" style="fill: #ffffff"/>
  </g>
  <g id="pane3d_1">
   <g id="patch_3">
    <path d="M 123.197291 241.969309 
L 211.076164 168.307495 
L 209.854564 62.073991 
L 117.770234 129.272941 
" style="fill: #f2f2f2; opacity: 0.5; stroke: #f2f2f2; stroke-linejoin: miter"/>
   </g>
  </g>
  <g id="pane3d_2">
   <g id="patch_4">
    <path d="M 352.090401 209.294766 
L 211.076164 168.307495 
L 209.854564 62.073991 
L 357.122702 99.402171 
" style="fill: #e6e6e6; opacity: 0.5; stroke: #e6e6e6; stroke-linejoin: miter"/>
   </g>
  </g>
  <g id="pane3d_3">
   <g id="patch_5">
    <path d="M 272.679269 290.790123 
L 123.197291 241.969309 
L 211.076164 168.307495 
L 352.090401 209.294766 
" style="fill: #ececec; opacity: 0.5; stroke: #ececec; stroke-linejoin: miter"/>
   </g>
  </g>
  <g id="axis3d_1">
   <g id="line2d_1">
    <path d="M 123.197291 241.969309 
L 272.679269 290.790123 
" style="fill: none; stroke: #000000; stroke-width: 0.8; stroke-linecap: square"/>
   </g>
   <g id="text_1">
    <!-- TTM -->
    <g transform="translate(169.342053 303.76759) scale(0.1 -0.1)">
     <defs>
      <path id="DejaVuSans-54" d="M -19 4666 
L 3928 4666 
L 3928 4134 
L 2272 4134 
L 2272 0 
L 1638 0 
L 1638 4134 
L -19 4134 
L -19 4666 
z
" transform="scale(0.015625)"/>
      <path id="DejaVuSans-4d" d="M 628 4666 
L 1569 4666 
L 2759 1491 
L 3956 4666 
L 4897 4666 
L 4897 0 
L 4281 0 
L 4281 4097 
L 3078 897 
L 2444 897 
L 1241 4097 
L 1241 0 
L 628 0 
L 628 4666 
z
" transform="scale(0.015625)"/>
     </defs>
     <use xlink:href="#DejaVuSans-54"/>
     <use xlink:href="#DejaVuSans-54" x="59.333984"/>
     <use xlink:href="#DejaVuSans-4d" x="120.417969"/>
    </g>
   </g>
   <g id="Line3DCollection_1">
    <path d="M 268.159543 289.31398 
L 347.844922 208.060773 
L 352.679852 98.276038 
" style="fill: none; stroke: #b0b0b0; stroke-width: 0.8"/>
    <path d="M 248.282625 282.822179 
L 329.16066 202.629996 
L 333.133677 93.321652 
" style="fill: none; stroke: #b0b0b0; stroke-width: 0.8"/>
    <path d="M 228.675839 276.418603 
L 310.708848 197.266783 
L 313.841412 88.431626 
" style="fill: none; stroke: #b0b0b0; stroke-width: 0.8"/>
    <path d="M 209.333717 270.101466 
L 292.485176 191.969881 
L 294.798142 83.604712 
" style="fill: none; stroke: #b0b0b0; stroke-width: 0.8"/>
    <path d="M 190.250935 263.869029 
L 274.485439 186.738068 
L 275.999076 78.839697 
" style="fill: none; stroke: #b0b0b0; stroke-width: 0.8"/>
    <path d="M 171.422312 257.719601 
L 256.705534 181.570151 
L 257.439548 74.135397 
" style="fill: none; stroke: #b0b0b0; stroke-width: 0.8"/>
    <path d="M 152.842805 251.651534 
L 239.141458 176.464968 
L 239.115009 69.490661 
" style="fill: none; stroke: #b0b0b0; stroke-width: 0.8"/>
    <path d="M 134.507501 245.663224 
L 221.789306 171.421382 
L 221.021022 64.904363 
" style="fill: none; stroke: #b0b0b0; stroke-width: 0.8"/>
   </g>
   <g id="xtick_1">
    <g id="line2d_2">
     <path d="M 268.856206 288.603611 
L 266.763083 290.737917 
" style="fill: none; stroke: #000000; stroke-width: 0.8; stroke-linecap: square"/>
    </g>
    <g id="text_2">
     <!-- 0.00 -->
     <g transform="translate(249.656847 313.570278) scale(0.1 -0.1)">
      <defs>
       <path id="DejaVuSans-30" d="M 2034 4250 
Q 1547 4250 1301 3770 
Q 1056 3291 1056 2328 
Q 1056 1369 1301 889 
Q 1547 409 2034 409 
Q 2525 409 2770 889 
Q 3016 1369 3016 2328 
Q 3016 3291 2770 3770 
Q 2525 4250 2034 4250 
z
M 2034 4750 
Q 2819 4750 3233 4129 
Q 3647 3509 3647 2328 
Q 3647 1150 3233 529 
Q 2819 -91 2034 -91 
Q 1250 -91 836 529 
Q 422 1150 422 2328 
Q 422 3509 836 4129 
Q 1250 4750 2034 4750 
z
" transform="scale(0.015625)"/>
       <path id="DejaVuSans-2e" d="M 684 794 
L 1344 794 
L 1344 0 
L 684 0 
L 684 794 
z
" transform="scale(0.015625)"/>
      </defs>
      <use xlink:href="#DejaVuSans-30"/>
      <use xlink:href="#DejaVuSans-2e" x="63.623047"/>
      <use xlink:href="#DejaVuSans-30" x="95.410156"/>
      <use xlink:href="#DejaVuSans-30" x="159.033203"/>
     </g>
    </g>
   </g>
   <g id="xtick_2">
    <g id="line2d_3">
     <path d="M 248.989303 282.121493 
L 246.866108 284.226683 
" style="fill: none; stroke: #000000; stroke-width: 0.8; stroke-linecap: square"/>
    </g>
    <g id="text_3">
     <!-- 0.05 -->
     <g transform="translate(229.75355 306.938922) scale(0.1 -0.1)">
      <defs>
       <path id="DejaVuSans-35" d="M 691 4666 
L 3169 4666 
L 3169 4134 
L 1269 4134 
L 1269 2991 
Q 1406 3038 1543 3061 
Q 1681 3084 1819 3084 
Q 2600 3084 3056 2656 
Q 3513 2228 3513 1497 
Q 3513 744 3044 326 
Q 2575 -91 1722 -91 
Q 1428 -91 1123 -41 
Q 819 9 494 109 
L 494 744 
Q 775 591 1075 516 
Q 1375 441 1709 441 
Q 2250 441 2565 725 
Q 2881 1009 2881 1497 
Q 2881 1984 2565 2268 
Q 2250 2553 1709 2553 
Q 1456 2553 1204 2497 
Q 953 2441 691 2322 
L 691 4666 
z
" transform="scale(0.015625)"/>
      </defs>
      <use xlink:href="#DejaVuSans-30"/>
      <use xlink:href="#DejaVuSans-2e" x="63.623047"/>
      <use xlink:href="#DejaVuSans-30" x="95.410156"/>
      <use xlink:href="#DejaVuSans-35" x="159.033203"/>
     </g>
    </g>
   </g>
   <g id="xtick_3">
    <g id="line2d_4">
     <path d="M 229.392199 275.727403 
L 227.239939 277.80407 
" style="fill: none; stroke: #000000; stroke-width: 0.8; stroke-linecap: square"/>
    </g>
    <g id="text_4">
     <!-- 0.10 -->
     <g transform="translate(210.121786 300.398034) scale(0.1 -0.1)">
      <defs>
       <path id="DejaVuSans-31" d="M 794 531 
L 1825 531 
L 1825 4091 
L 703 3866 
L 703 4441 
L 1819 4666 
L 2450 4666 
L 2450 531 
L 3481 531 
L 3481 0 
L 794 0 
L 794 531 
z
" transform="scale(0.015625)"/>
      </defs>
      <use xlink:href="#DejaVuSans-30"/>
      <use xlink:href="#DejaVuSans-2e" x="63.623047"/>
      <use xlink:href="#DejaVuSans-31" x="95.410156"/>
      <use xlink:href="#DejaVuSans-30" x="159.033203"/>
     </g>
    </g>
   </g>
   <g id="xtick_4">
    <g id="line2d_5">
     <path d="M 210.059433 269.419562 
L 207.879085 271.468281 
" style="fill: none; stroke: #000000; stroke-width: 0.8; stroke-linecap: square"/>
    </g>
    <g id="text_5">
     <!-- 0.15 -->
     <g transform="translate(190.756034 293.945776) scale(0.1 -0.1)">
      <use xlink:href="#DejaVuSans-30"/>
      <use xlink:href="#DejaVuSans-2e" x="63.623047"/>
      <use xlink:href="#DejaVuSans-31" x="95.410156"/>
      <use xlink:href="#DejaVuSans-35" x="159.033203"/>
     </g>
    </g>
   </g>
   <g id="xtick_5">
    <g id="line2d_6">
     <path d="M 190.985692 263.196234 
L 188.778201 265.217566 
" style="fill: none; stroke: #000000; stroke-width: 0.8; stroke-linecap: square"/>
    </g>
    <g id="text_6">
     <!-- 0.20 -->
     <g transform="translate(171.650925 287.580358) scale(0.1 -0.1)">
      <defs>
       <path id="DejaVuSans-32" d="M 1228 531 
L 3431 531 
L 3431 0 
L 469 0 
L 469 531 
Q 828 903 1448 1529 
Q 2069 2156 2228 2338 
Q 2531 2678 2651 2914 
Q 2772 3150 2772 3378 
Q 2772 3750 2511 3984 
Q 2250 4219 1831 4219 
Q 1534 4219 1204 4116 
Q 875 4013 500 3803 
L 500 4441 
Q 881 4594 1212 4672 
Q 1544 4750 1819 4750 
Q 2544 4750 2975 4387 
Q 3406 4025 3406 3419 
Q 3406 3131 3298 2873 
Q 3191 2616 2906 2266 
Q 2828 2175 2409 1742 
Q 1991 1309 1228 531 
z
" transform="scale(0.015625)"/>
      </defs>
      <use xlink:href="#DejaVuSans-30"/>
      <use xlink:href="#DejaVuSans-2e" x="63.623047"/>
      <use xlink:href="#DejaVuSans-32" x="95.410156"/>
      <use xlink:href="#DejaVuSans-30" x="159.033203"/>
     </g>
    </g>
   </g>
   <g id="xtick_6">
    <g id="line2d_7">
     <path d="M 172.165807 257.055734 
L 169.932087 259.050224 
" style="fill: none; stroke: #000000; stroke-width: 0.8; stroke-linecap: square"/>
    </g>
    <g id="text_7">
     <!-- 0.25 -->
     <g transform="translate(152.801232 281.30004) scale(0.1 -0.1)">
      <use xlink:href="#DejaVuSans-30"/>
      <use xlink:href="#DejaVuSans-2e" x="63.623047"/>
      <use xlink:href="#DejaVuSans-32" x="95.410156"/>
      <use xlink:href="#DejaVuSans-35" x="159.033203"/>
     </g>
    </g>
   </g>
   <g id="xtick_7">
    <g id="line2d_8">
     <path d="M 153.594743 250.996418 
L 151.335679 252.964598 
" style="fill: none; stroke: #000000; stroke-width: 0.8; stroke-linecap: square"/>
    </g>
    <g id="text_8">
     <!-- 0.30 -->
     <g transform="translate(134.201868 275.103126) scale(0.1 -0.1)">
      <defs>
       <path id="DejaVuSans-33" d="M 2597 2516 
Q 3050 2419 3304 2112 
Q 3559 1806 3559 1356 
Q 3559 666 3084 287 
Q 2609 -91 1734 -91 
Q 1441 -91 1130 -33 
Q 819 25 488 141 
L 488 750 
Q 750 597 1062 519 
Q 1375 441 1716 441 
Q 2309 441 2620 675 
Q 2931 909 2931 1356 
Q 2931 1769 2642 2001 
Q 2353 2234 1838 2234 
L 1294 2234 
L 1294 2753 
L 1863 2753 
Q 2328 2753 2575 2939 
Q 2822 3125 2822 3475 
Q 2822 3834 2567 4026 
Q 2313 4219 1838 4219 
Q 1578 4219 1281 4162 
Q 984 4106 628 3988 
L 628 4550 
Q 988 4650 1302 4700 
Q 1616 4750 1894 4750 
Q 2613 4750 3031 4423 
Q 3450 4097 3450 3541 
Q 3450 3153 3228 2886 
Q 3006 2619 2597 2516 
z
" transform="scale(0.015625)"/>
      </defs>
      <use xlink:href="#DejaVuSans-30"/>
      <use xlink:href="#DejaVuSans-2e" x="63.623047"/>
      <use xlink:href="#DejaVuSans-33" x="95.410156"/>
      <use xlink:href="#DejaVuSans-30" x="159.033203"/>
     </g>
    </g>
   </g>
   <g id="xtick_8">
    <g id="line2d_9">
     <path d="M 135.267596 245.016687 
L 132.984046 246.959073 
" style="fill: none; stroke: #000000; stroke-width: 0.8; stroke-linecap: square"/>
    </g>
    <g id="text_9">
     <!-- 0.35 -->
     <g transform="translate(115.847877 268.987965) scale(0.1 -0.1)">
      <use xlink:href="#DejaVuSans-30"/>
      <use xlink:href="#DejaVuSans-2e" x="63.623047"/>
      <use xlink:href="#DejaVuSans-33" x="95.410156"/>
      <use xlink:href="#DejaVuSans-35" x="159.033203"/>
     </g>
    </g>
   </g>
  </g>
  <g id="axis3d_2">
   <g id="line2d_10">
    <path d="M 352.090401 209.294766 
L 272.679269 290.790123 
" style="fill: none; stroke: #000000; stroke-width: 0.8; stroke-linecap: square"/>
   </g>
   <g id="text_10">
    <!-- Strike/spot -->
    <g transform="translate(324.369105 297.386866) rotate(-45.742112) scale(0.1 -0.1)">
     <defs>
      <path id="DejaVuSans-53" d="M 3425 4513 
L 3425 3897 
Q 3066 4069 2747 4153 
Q 2428 4238 2131 4238 
Q 1616 4238 1336 4038 
Q 1056 3838 1056 3469 
Q 1056 3159 1242 3001 
Q 1428 2844 1947 2747 
L 2328 2669 
Q 3034 2534 3370 2195 
Q 3706 1856 3706 1288 
Q 3706 609 3251 259 
Q 2797 -91 1919 -91 
Q 1588 -91 1214 -16 
Q 841 59 441 206 
L 441 856 
Q 825 641 1194 531 
Q 1563 422 1919 422 
Q 2459 422 2753 634 
Q 3047 847 3047 1241 
Q 3047 1584 2836 1778 
Q 2625 1972 2144 2069 
L 1759 2144 
Q 1053 2284 737 2584 
Q 422 2884 422 3419 
Q 422 4038 858 4394 
Q 1294 4750 2059 4750 
Q 2388 4750 2728 4690 
Q 3069 4631 3425 4513 
z
" transform="scale(0.015625)"/>
      <path id="DejaVuSans-74" d="M 1172 4494 
L 1172 3500 
L 2356 3500 
L 2356 3053 
L 1172 3053 
L 1172 1153 
Q 1172 725 1289 603 
Q 1406 481 1766 481 
L 2356 481 
L 2356 0 
L 1766 0 
Q 1100 0 847 248 
Q 594 497 594 1153 
L 594 3053 
L 172 3053 
L 172 3500 
L 594 3500 
L 594 4494 
L 1172 4494 
z
" transform="scale(0.015625)"/>
      <path id="DejaVuSans-72" d="M 2631 2963 
Q 2534 3019 2420 3045 
Q 2306 3072 2169 3072 
Q 1681 3072 1420 2755 
Q 1159 2438 1159 1844 
L 1159 0 
L 581 0 
L 581 3500 
L 1159 3500 
L 1159 2956 
Q 1341 3275 1631 3429 
Q 1922 3584 2338 3584 
Q 2397 3584 2469 3576 
Q 2541 3569 2628 3553 
L 2631 2963 
z
" transform="scale(0.015625)"/>
      <path id="DejaVuSans-69" d="M 603 3500 
L 1178 3500 
L 1178 0 
L 603 0 
L 603 3500 
z
M 603 4863 
L 1178 4863 
L 1178 4134 
L 603 4134 
L 603 4863 
z
" transform="scale(0.015625)"/>
      <path id="DejaVuSans-6b" d="M 581 4863 
L 1159 4863 
L 1159 1991 
L 2875 3500 
L 3609 3500 
L 1753 1863 
L 3688 0 
L 2938 0 
L 1159 1709 
L 1159 0 
L 581 0 
L 581 4863 
z
" transform="scale(0.015625)"/>
      <path id="DejaVuSans-65" d="M 3597 1894 
L 3597 1613 
L 953 1613 
Q 991 1019 1311 708 
Q 1631 397 2203 397 
Q 2534 397 2845 478 
Q 3156 559 3463 722 
L 3463 178 
Q 3153 47 2828 -22 
Q 2503 -91 2169 -91 
Q 1331 -91 842 396 
Q 353 884 353 1716 
Q 353 2575 817 3079 
Q 1281 3584 2069 3584 
Q 2775 3584 3186 3129 
Q 3597 2675 3597 1894 
z
M 3022 2063 
Q 3016 2534 2758 2815 
Q 2500 3097 2075 3097 
Q 1594 3097 1305 2825 
Q 1016 2553 972 2059 
L 3022 2063 
z
" transform="scale(0.015625)"/>
      <path id="DejaVuSans-2f" d="M 1625 4666 
L 2156 4666 
L 531 -594 
L 0 -594 
L 1625 4666 
z
" transform="scale(0.015625)"/>
      <path id="DejaVuSans-73" d="M 2834 3397 
L 2834 2853 
Q 2591 2978 2328 3040 
Q 2066 3103 1784 3103 
Q 1356 3103 1142 2972 
Q 928 2841 928 2578 
Q 928 2378 1081 2264 
Q 1234 2150 1697 2047 
L 1894 2003 
Q 2506 1872 2764 1633 
Q 3022 1394 3022 966 
Q 3022 478 2636 193 
Q 2250 -91 1575 -91 
Q 1294 -91 989 -36 
Q 684 19 347 128 
L 347 722 
Q 666 556 975 473 
Q 1284 391 1588 391 
Q 1994 391 2212 530 
Q 2431 669 2431 922 
Q 2431 1156 2273 1281 
Q 2116 1406 1581 1522 
L 1381 1569 
Q 847 1681 609 1914 
Q 372 2147 372 2553 
Q 372 3047 722 3315 
Q 1072 3584 1716 3584 
Q 2034 3584 2315 3537 
Q 2597 3491 2834 3397 
z
" transform="scale(0.015625)"/>
      <path id="DejaVuSans-70" d="M 1159 525 
L 1159 -1331 
L 581 -1331 
L 581 3500 
L 1159 3500 
L 1159 2969 
Q 1341 3281 1617 3432 
Q 1894 3584 2278 3584 
Q 2916 3584 3314 3078 
Q 3713 2572 3713 1747 
Q 3713 922 3314 415 
Q 2916 -91 2278 -91 
Q 1894 -91 1617 61 
Q 1341 213 1159 525 
z
M 3116 1747 
Q 3116 2381 2855 2742 
Q 2594 3103 2138 3103 
Q 1681 3103 1420 2742 
Q 1159 2381 1159 1747 
Q 1159 1113 1420 752 
Q 1681 391 2138 391 
Q 2594 391 2855 752 
Q 3116 1113 3116 1747 
z
" transform="scale(0.015625)"/>
      <path id="DejaVuSans-6f" d="M 1959 3097 
Q 1497 3097 1228 2736 
Q 959 2375 959 1747 
Q 959 1119 1226 758 
Q 1494 397 1959 397 
Q 2419 397 2687 759 
Q 2956 1122 2956 1747 
Q 2956 2369 2687 2733 
Q 2419 3097 1959 3097 
z
M 1959 3584 
Q 2709 3584 3137 3096 
Q 3566 2609 3566 1747 
Q 3566 888 3137 398 
Q 2709 -91 1959 -91 
Q 1206 -91 779 398 
Q 353 888 353 1747 
Q 353 2609 779 3096 
Q 1206 3584 1959 3584 
z
" transform="scale(0.015625)"/>
     </defs>
     <use xlink:href="#DejaVuSans-53"/>
     <use xlink:href="#DejaVuSans-74" x="63.476562"/>
     <use xlink:href="#DejaVuSans-72" x="102.685547"/>
     <use xlink:href="#DejaVuSans-69" x="143.798828"/>
     <use xlink:href="#DejaVuSans-6b" x="171.582031"/>
     <use xlink:href="#DejaVuSans-65" x="225.867188"/>
     <use xlink:href="#DejaVuSans-2f" x="287.390625"/>
     <use xlink:href="#DejaVuSans-73" x="321.082031"/>
     <use xlink:href="#DejaVuSans-70" x="373.181641"/>
     <use xlink:href="#DejaVuSans-6f" x="436.658203"/>
     <use xlink:href="#DejaVuSans-74" x="497.839844"/>
    </g>
   </g>
   <g id="Line3DCollection_2">
    <path d="M 123.80429 124.869562 
L 128.935375 237.159534 
L 277.885887 285.446851 
" style="fill: none; stroke: #b0b0b0; stroke-width: 0.8"/>
    <path d="M 145.942631 108.714009 
L 150.012261 219.492469 
L 296.984832 265.846636 
" style="fill: none; stroke: #b0b0b0; stroke-width: 0.8"/>
    <path d="M 167.187475 93.210489 
L 170.27468 202.508108 
L 315.307613 247.042954 
" style="fill: none; stroke: #b0b0b0; stroke-width: 0.8"/>
    <path d="M 187.591846 78.320309 
L 189.768946 186.167628 
L 332.900604 228.988218 
" style="fill: none; stroke: #b0b0b0; stroke-width: 0.8"/>
    <path d="M 207.204649 64.007778 
L 208.537927 170.435095 
L 349.806554 211.638555 
" style="fill: none; stroke: #b0b0b0; stroke-width: 0.8"/>
   </g>
   <g id="xtick_9">
    <g id="line2d_11">
     <path d="M 276.630657 285.039926 
L 280.399595 286.261754 
" style="fill: none; stroke: #000000; stroke-width: 0.8; stroke-linecap: square"/>
    </g>
    <g id="text_11">
     <!-- 0.90 -->
     <g transform="translate(279.637569 306.472961) scale(0.1 -0.1)">
      <defs>
       <path id="DejaVuSans-39" d="M 703 97 
L 703 672 
Q 941 559 1184 500 
Q 1428 441 1663 441 
Q 2288 441 2617 861 
Q 2947 1281 2994 2138 
Q 2813 1869 2534 1725 
Q 2256 1581 1919 1581 
Q 1219 1581 811 2004 
Q 403 2428 403 3163 
Q 403 3881 828 4315 
Q 1253 4750 1959 4750 
Q 2769 4750 3195 4129 
Q 3622 3509 3622 2328 
Q 3622 1225 3098 567 
Q 2575 -91 1691 -91 
Q 1453 -91 1209 -44 
Q 966 3 703 97 
z
M 1959 2075 
Q 2384 2075 2632 2365 
Q 2881 2656 2881 3163 
Q 2881 3666 2632 3958 
Q 2384 4250 1959 4250 
Q 1534 4250 1286 3958 
Q 1038 3666 1038 3163 
Q 1038 2656 1286 2365 
Q 1534 2075 1959 2075 
z
" transform="scale(0.015625)"/>
      </defs>
      <use xlink:href="#DejaVuSans-30"/>
      <use xlink:href="#DejaVuSans-2e" x="63.623047"/>
      <use xlink:href="#DejaVuSans-39" x="95.410156"/>
      <use xlink:href="#DejaVuSans-30" x="159.033203"/>
     </g>
    </g>
   </g>
   <g id="xtick_10">
    <g id="line2d_12">
     <path d="M 295.747571 265.456412 
L 299.462487 266.628072 
" style="fill: none; stroke: #000000; stroke-width: 0.8; stroke-linecap: square"/>
    </g>
    <g id="text_12">
     <!-- 0.95 -->
     <g transform="translate(298.480322 286.582583) scale(0.1 -0.1)">
      <use xlink:href="#DejaVuSans-30"/>
      <use xlink:href="#DejaVuSans-2e" x="63.623047"/>
      <use xlink:href="#DejaVuSans-39" x="95.410156"/>
      <use xlink:href="#DejaVuSans-35" x="159.033203"/>
     </g>
    </g>
   </g>
   <g id="xtick_11">
    <g id="line2d_13">
     <path d="M 314.087914 246.668425 
L 317.75004 247.792943 
" style="fill: none; stroke: #000000; stroke-width: 0.8; stroke-linecap: square"/>
    </g>
    <g id="text_13">
     <!-- 1.00 -->
     <g transform="translate(316.556884 267.500996) scale(0.1 -0.1)">
      <use xlink:href="#DejaVuSans-31"/>
      <use xlink:href="#DejaVuSans-2e" x="63.623047"/>
      <use xlink:href="#DejaVuSans-30" x="95.410156"/>
      <use xlink:href="#DejaVuSans-30" x="159.033203"/>
     </g>
    </g>
   </g>
   <g id="xtick_12">
    <g id="line2d_14">
     <path d="M 331.698062 228.628454 
L 335.308614 229.70862 
" style="fill: none; stroke: #000000; stroke-width: 0.8; stroke-linecap: square"/>
    </g>
    <g id="text_14">
     <!-- 1.05 -->
     <g transform="translate(333.913056 249.17985) scale(0.1 -0.1)">
      <use xlink:href="#DejaVuSans-31"/>
      <use xlink:href="#DejaVuSans-2e" x="63.623047"/>
      <use xlink:href="#DejaVuSans-30" x="95.410156"/>
      <use xlink:href="#DejaVuSans-35" x="159.033203"/>
     </g>
    </g>
   </g>
   <g id="xtick_13">
    <g id="line2d_15">
     <path d="M 348.620772 211.2927 
L 352.180947 212.331088 
" style="fill: none; stroke: #000000; stroke-width: 0.8; stroke-linecap: square"/>
    </g>
    <g id="text_15">
     <!-- 1.10 -->
     <g transform="translate(350.591061 231.574577) scale(0.1 -0.1)">
      <use xlink:href="#DejaVuSans-31"/>
      <use xlink:href="#DejaVuSans-2e" x="63.623047"/>
      <use xlink:href="#DejaVuSans-31" x="95.410156"/>
      <use xlink:href="#DejaVuSans-30" x="159.033203"/>
     </g>
    </g>
   </g>
  </g>
  <g id="axis3d_3">
   <g id="line2d_16">
    <path d="M 352.090401 209.294766 
L 357.122702 99.402171 
" style="fill: none; stroke: #000000; stroke-width: 0.8; stroke-linecap: square"/>
   </g>
   <g id="text_16">
    <!-- Vol -->
    <g transform="translate(387.44598 152.902279) scale(0.1 -0.1)">
     <defs>
      <path id="DejaVuSans-56" d="M 1831 0 
L 50 4666 
L 709 4666 
L 2188 738 
L 3669 4666 
L 4325 4666 
L 2547 0 
L 1831 0 
z
" transform="scale(0.015625)"/>
      <path id="DejaVuSans-6c" d="M 603 4863 
L 1178 4863 
L 1178 0 
L 603 0 
L 603 4863 
z
" transform="scale(0.015625)"/>
     </defs>
     <use xlink:href="#DejaVuSans-56"/>
     <use xlink:href="#DejaVuSans-6f" x="60.658203"/>
     <use xlink:href="#DejaVuSans-6c" x="121.839844"/>
    </g>
   </g>
   <g id="Line3DCollection_3">
    <path d="M 352.51406 200.043125 
L 210.973121 159.346599 
L 122.741103 232.496264 
" style="fill: none; stroke: #b0b0b0; stroke-width: 0.8"/>
    <path d="M 353.249784 183.976791 
L 210.794264 143.792745 
L 121.948582 216.039054 
" style="fill: none; stroke: #b0b0b0; stroke-width: 0.8"/>
    <path d="M 353.995172 167.699421 
L 210.613171 128.044379 
L 121.145253 199.357401 
" style="fill: none; stroke: #b0b0b0; stroke-width: 0.8"/>
    <path d="M 354.750416 151.206828 
L 210.429798 112.09783 
L 120.330892 182.446681 
" style="fill: none; stroke: #b0b0b0; stroke-width: 0.8"/>
    <path d="M 355.515712 134.494716 
L 210.244103 95.949333 
L 119.505272 165.302144 
" style="fill: none; stroke: #b0b0b0; stroke-width: 0.8"/>
    <path d="M 356.291263 117.558674 
L 210.056042 79.595028 
L 118.668157 147.918907 
" style="fill: none; stroke: #b0b0b0; stroke-width: 0.8"/>
   </g>
   <g id="xtick_14">
    <g id="line2d_17">
     <path d="M 351.325932 199.701509 
L 354.893152 200.727173 
" style="fill: none; stroke: #000000; stroke-width: 0.8; stroke-linecap: square"/>
    </g>
    <g id="text_17">
     <!-- 0.1 -->
     <g transform="translate(362.878478 205.054613) scale(0.1 -0.1)">
      <use xlink:href="#DejaVuSans-30"/>
      <use xlink:href="#DejaVuSans-2e" x="63.623047"/>
      <use xlink:href="#DejaVuSans-31" x="95.410156"/>
     </g>
    </g>
   </g>
   <g id="xtick_15">
    <g id="line2d_18">
     <path d="M 352.053613 183.639373 
L 355.645001 184.652437 
" style="fill: none; stroke: #000000; stroke-width: 0.8; stroke-linecap: square"/>
    </g>
    <g id="text_18">
     <!-- 0.2 -->
     <g transform="translate(363.73112 189.020117) scale(0.1 -0.1)">
      <use xlink:href="#DejaVuSans-30"/>
      <use xlink:href="#DejaVuSans-2e" x="63.623047"/>
      <use xlink:href="#DejaVuSans-32" x="95.410156"/>
     </g>
    </g>
   </g>
   <g id="xtick_16">
    <g id="line2d_19">
     <path d="M 352.790848 167.366342 
L 356.406734 168.366384 
" style="fill: none; stroke: #000000; stroke-width: 0.8; stroke-linecap: square"/>
    </g>
    <g id="text_19">
     <!-- 0.3 -->
     <g transform="translate(364.594927 172.775644) scale(0.1 -0.1)">
      <use xlink:href="#DejaVuSans-30"/>
      <use xlink:href="#DejaVuSans-2e" x="63.623047"/>
      <use xlink:href="#DejaVuSans-33" x="95.410156"/>
     </g>
    </g>
   </g>
   <g id="xtick_17">
    <g id="line2d_20">
     <path d="M 353.537827 150.878232 
L 357.178547 151.86482 
" style="fill: none; stroke: #000000; stroke-width: 0.8; stroke-linecap: square"/>
    </g>
    <g id="text_20">
     <!-- 0.4 -->
     <g transform="translate(365.470121 156.317044) scale(0.1 -0.1)">
      <defs>
       <path id="DejaVuSans-34" d="M 2419 4116 
L 825 1625 
L 2419 1625 
L 2419 4116 
z
M 2253 4666 
L 3047 4666 
L 3047 1625 
L 3713 1625 
L 3713 1100 
L 3047 1100 
L 3047 0 
L 2419 0 
L 2419 1100 
L 313 1100 
L 313 1709 
L 2253 4666 
z
" transform="scale(0.015625)"/>
      </defs>
      <use xlink:href="#DejaVuSans-30"/>
      <use xlink:href="#DejaVuSans-2e" x="63.623047"/>
      <use xlink:href="#DejaVuSans-34" x="95.410156"/>
     </g>
    </g>
   </g>
   <g id="xtick_18">
    <g id="line2d_21">
     <path d="M 354.294744 134.170753 
L 357.960641 135.143437 
" style="fill: none; stroke: #000000; stroke-width: 0.8; stroke-linecap: square"/>
    </g>
    <g id="text_21">
     <!-- 0.5 -->
     <g transform="translate(366.356928 139.640054) scale(0.1 -0.1)">
      <use xlink:href="#DejaVuSans-30"/>
      <use xlink:href="#DejaVuSans-2e" x="63.623047"/>
      <use xlink:href="#DejaVuSans-35" x="95.410156"/>
     </g>
    </g>
   </g>
   <g id="xtick_19">
    <g id="line2d_22">
     <path d="M 355.061799 117.239497 
L 358.753223 118.197815 
" style="fill: none; stroke: #000000; stroke-width: 0.8; stroke-linecap: square"/>
    </g>
    <g id="text_22">
     <!-- 0.6 -->
     <g transform="translate(367.25558 122.740299) scale(0.1 -0.1)">
      <defs>
       <path id="DejaVuSans-36" d="M 2113 2584 
Q 1688 2584 1439 2293 
Q 1191 2003 1191 1497 
Q 1191 994 1439 701 
Q 1688 409 2113 409 
Q 2538 409 2786 701 
Q 3034 994 3034 1497 
Q 3034 2003 2786 2293 
Q 2538 2584 2113 2584 
z
M 3366 4563 
L 3366 3988 
Q 3128 4100 2886 4159 
Q 2644 4219 2406 4219 
Q 1781 4219 1451 3797 
Q 1122 3375 1075 2522 
Q 1259 2794 1537 2939 
Q 1816 3084 2150 3084 
Q 2853 3084 3261 2657 
Q 3669 2231 3669 1497 
Q 3669 778 3244 343 
Q 2819 -91 2113 -91 
Q 1303 -91 875 529 
Q 447 1150 447 2328 
Q 447 3434 972 4092 
Q 1497 4750 2381 4750 
Q 2619 4750 2861 4703 
Q 3103 4656 3366 4563 
z
" transform="scale(0.015625)"/>
      </defs>
      <use xlink:href="#DejaVuSans-30"/>
      <use xlink:href="#DejaVuSans-2e" x="63.623047"/>
      <use xlink:href="#DejaVuSans-36" x="95.410156"/>
     </g>
    </g>
   </g>
  </g>
  <g id="axes_1">
   <g id="Poly3DCollection_1">
    <path d="M 246.168022 127.221024 
L 213.779777 111.231711 
L 213.870039 111.159213 
L 246.256161 127.11494 
z
" clip-path="url(#p604209e3bb)" style="fill: #90d743"/>
    <path d="M 243.49149 130.457934 
L 211.03956 113.590873 
L 213.103631 111.783396 
L 213.779777 111.231711 
L 246.168022 127.221024 
L 245.507754 128.017434 
z
" clip-path="url(#p604209e3bb)" style="fill: #8ed645"/>
    <path d="M 240.664297 133.850406 
L 208.149483 116.581649 
L 210.235974 114.359784 
L 211.03956 113.590873 
L 243.49149 130.457934 
L 242.706022 131.406946 
z
" clip-path="url(#p604209e3bb)" style="fill: #86d549"/>
    <path d="M 239.066251 135.722171 
L 206.519823 118.59377 
L 206.739344 118.306583 
L 208.149483 116.581649 
L 240.664297 133.850406 
L 239.281732 135.472542 
z
" clip-path="url(#p604209e3bb)" style="fill: #7cd250"/>
    <path d="M 236.449046 138.673947 
L 203.859539 122.451809 
L 204.858782 120.928696 
L 206.519823 118.59377 
L 239.066251 135.722171 
L 237.433348 137.579489 
z
" clip-path="url(#p604209e3bb)" style="fill: #73d056"/>
    <path d="M 274.175172 136.8987 
L 246.168022 127.221024 
L 246.256161 127.11494 
L 274.261904 136.787416 
z
" clip-path="url(#p604209e3bb)" style="fill: #60ca60"/>
    <path d="M 271.540787 140.330738 
L 243.49149 130.457934 
L 245.507754 128.017434 
L 246.168022 127.221024 
L 274.175172 136.8987 
L 273.525396 137.736681 
z
" clip-path="url(#p604209e3bb)" style="fill: #5cc863"/>
    <path d="M 233.599694 142.150275 
L 200.973352 127.190894 
L 203.080627 123.688573 
L 203.859539 122.451809 
L 236.449046 138.673947 
L 235.680858 139.541842 
z
" clip-path="url(#p604209e3bb)" style="fill: #65cb5e"/>
    <path d="M 231.870809 144.862025 
L 199.223743 130.191432 
L 199.564221 129.605287 
L 200.973352 127.190894 
L 233.599694 142.150275 
L 232.207169 144.281747 
z
" clip-path="url(#p604209e3bb)" style="fill: #54c568"/>
    <path d="M 268.758094 143.974096 
L 240.664297 133.850406 
L 242.706022 131.406946 
L 243.49149 130.457934 
L 271.540787 140.330738 
L 270.767632 141.345178 
z
" clip-path="url(#p604209e3bb)" style="fill: #52c569"/>
    <path d="M 230.238655 148.132183 
L 197.57036 133.062567 
L 198.756284 130.996649 
L 199.223743 130.191432 
L 231.870809 144.862025 
L 231.409146 145.706855 
z
" clip-path="url(#p604209e3bb)" style="fill: #48c16e"/>
    <path d="M 228.579055 152.298761 
L 195.887679 136.14581 
L 196.643057 134.730887 
L 197.57036 133.062567 
L 230.238655 148.132183 
L 229.324025 150.335147 
z
" clip-path="url(#p604209e3bb)" style="fill: #38b977"/>
    <path d="M 267.185178 146.048946 
L 239.066251 135.722171 
L 239.281732 135.472542 
L 240.664297 133.850406 
L 268.758094 143.974096 
L 267.397281 145.767175 
z
" clip-path="url(#p604209e3bb)" style="fill: #4ac16d"/>
    <path d="M 224.329179 164.650419 
L 191.597454 145.919895 
L 192.329484 143.972568 
L 195.887679 136.14581 
L 228.579055 152.298761 
L 225.058826 162.544683 
z
" clip-path="url(#p604209e3bb)" style="fill: #20a386"/>
    <path d="M 223.157642 167.849408 
L 190.429065 149.346732 
L 190.91082 147.882993 
L 191.597454 145.919895 
L 224.329179 164.650419 
L 223.641875 166.560904 
z
" clip-path="url(#p604209e3bb)" style="fill: #20928c"/>
    <path d="M 264.608581 149.554639 
L 236.449046 138.673947 
L 237.433348 137.579489 
L 239.066251 135.722171 
L 267.185178 146.048946 
L 265.577709 148.214947 
z
" clip-path="url(#p604209e3bb)" style="fill: #42be71"/>
    <path d="M 261.801783 153.606998 
L 233.599694 142.150275 
L 235.680858 139.541842 
L 236.449046 138.673947 
L 264.608581 149.554639 
L 263.852106 150.622855 
z
" clip-path="url(#p604209e3bb)" style="fill: #3bbb75"/>
    <path d="M 305.785624 145.412866 
L 274.175172 136.8987 
L 274.261904 136.787416 
L 305.869701 145.341148 
z
" clip-path="url(#p604209e3bb)" style="fill: #58c765"/>
    <path d="M 215.663562 175.010981 
L 182.88564 162.077313 
L 184.576713 163.292336 
L 190.429065 149.346732 
L 223.157642 167.849408 
L 217.285218 176.220998 
z
" clip-path="url(#p604209e3bb)" style="fill: #26818e"/>
    <path d="M 303.22783 147.722772 
L 271.540787 140.330738 
L 273.525396 137.736681 
L 274.175172 136.8987 
L 305.785624 145.412866 
L 305.155797 145.946521 
z
" clip-path="url(#p604209e3bb)" style="fill: #56c667"/>
    <path d="M 260.097026 156.110361 
L 231.870809 144.862025 
L 232.207169 144.281747 
L 233.599694 142.150275 
L 261.801783 153.606998 
L 260.428853 155.625895 
z
" clip-path="url(#p604209e3bb)" style="fill: #32b67a"/>
    <path d="M 258.485022 158.431549 
L 230.238655 148.132183 
L 231.409146 145.706855 
L 231.870809 144.862025 
L 260.097026 156.110361 
L 259.641417 156.771172 
z
" clip-path="url(#p604209e3bb)" style="fill: #2cb17e"/>
    <path d="M 300.503597 150.987499 
L 268.758094 143.974096 
L 270.767632 141.345178 
L 271.540787 140.330738 
L 303.22783 147.722772 
L 302.472858 148.557421 
z
" clip-path="url(#p604209e3bb)" style="fill: #50c46a"/>
    <path d="M 256.840504 160.857892 
L 228.579055 152.298761 
L 229.324025 150.335147 
L 230.238655 148.132183 
L 258.485022 158.431549 
L 257.579519 159.74775 
z
" clip-path="url(#p604209e3bb)" style="fill: #24aa83"/>
    <path d="M 305.785624 145.412866 
L 305.869701 145.341148 
z
" clip-path="url(#p604209e3bb)" style="fill: #58c765"/>
    <path d="M 213.36957 170.369958 
L 180.450814 157.195808 
L 182.065815 160.709657 
L 182.88564 162.077313 
L 215.663562 175.010981 
L 214.888071 173.758001 
z
" clip-path="url(#p604209e3bb)" style="fill: #228b8d"/>
    <path d="M 252.60428 167.87618 
L 224.329179 164.650419 
L 225.058826 162.544683 
L 228.579055 152.298761 
L 256.840504 160.857892 
L 253.333025 166.632174 
z
" clip-path="url(#p604209e3bb)" style="fill: #1f988b"/>
    <path d="M 298.963136 152.844578 
L 267.185178 146.048946 
L 267.397281 145.767175 
L 268.758094 143.974096 
L 300.503597 150.987499 
L 299.170451 152.611523 
z
" clip-path="url(#p604209e3bb)" style="fill: #48c16e"/>
    <path d="M 303.22783 147.722772 
L 305.155797 145.946521 
L 305.785624 145.412866 
z
" clip-path="url(#p604209e3bb)" style="fill: #58c765"/>
    <path d="M 251.434358 169.858717 
L 223.157642 167.849408 
L 223.641875 166.560904 
L 224.329179 164.650419 
L 252.60428 167.87618 
L 251.917838 169.042644 
z
" clip-path="url(#p604209e3bb)" style="fill: #228b8d"/>
    <path d="M 296.449297 155.474234 
L 264.608581 149.554639 
L 265.577709 148.214947 
L 267.185178 146.048946 
L 298.963136 152.844578 
L 297.394996 154.478375 
z
" clip-path="url(#p604209e3bb)" style="fill: #42be71"/>
    <path d="M 300.503597 150.987499 
L 302.472858 148.557421 
L 303.22783 147.722772 
z
" clip-path="url(#p604209e3bb)" style="fill: #56c667"/>
    <path d="M 293.700962 158.786928 
L 261.801783 153.606998 
L 263.852106 150.622855 
L 264.608581 149.554639 
L 296.449297 155.474234 
L 295.70955 156.321839 
z
" clip-path="url(#p604209e3bb)" style="fill: #3bbb75"/>
    <path d="M 244.051182 180.894431 
L 215.663562 175.010981 
L 217.285218 176.220998 
L 223.157642 167.849408 
L 251.434358 169.858717 
L 245.621944 178.869697 
z
" clip-path="url(#p604209e3bb)" style="fill: #27808e"/>
    <path d="M 298.963136 152.844578 
L 299.170451 152.611523 
L 300.503597 150.987499 
z
" clip-path="url(#p604209e3bb)" style="fill: #50c46a"/>
    <path d="M 292.031114 160.79971 
L 260.097026 156.110361 
L 260.428853 155.625895 
L 261.801783 153.606998 
L 293.700962 158.786928 
L 292.356179 160.410213 
z
" clip-path="url(#p604209e3bb)" style="fill: #34b679"/>
    <path d="M 209.501247 160.479814 
L 176.363124 148.67687 
L 177.176016 149.890215 
L 180.450814 157.195808 
L 213.36957 170.369958 
L 210.280292 162.259679 
z
" clip-path="url(#p604209e3bb)" style="fill: #35b779"/>
    <path d="M 290.451211 162.697592 
L 258.485022 158.431549 
L 259.641417 156.771172 
L 260.097026 156.110361 
L 292.031114 160.79971 
L 291.5847 161.335022 
z
" clip-path="url(#p604209e3bb)" style="fill: #2fb47c"/>
    <path d="M 296.449297 155.474234 
L 297.394996 154.478375 
L 298.963136 152.844578 
z
" clip-path="url(#p604209e3bb)" style="fill: #4cc26c"/>
    <path d="M 288.838852 164.650808 
L 256.840504 160.857892 
L 257.579519 159.74775 
L 258.485022 158.431549 
L 290.451211 162.697592 
L 289.563432 163.769747 
z
" clip-path="url(#p604209e3bb)" style="fill: #2cb17e"/>
    <path d="M 241.866497 183.28713 
L 213.36957 170.369958 
L 214.888071 173.758001 
L 215.663562 175.010981 
L 244.051182 180.894431 
L 243.308123 181.767662 
z
" clip-path="url(#p604209e3bb)" style="fill: #26828e"/>
    <path d="M 293.700962 158.786928 
L 295.70955 156.321839 
L 296.449297 155.474234 
z
" clip-path="url(#p604209e3bb)" style="fill: #48c16e"/>
    <path d="M 284.674906 170.301856 
L 252.60428 167.87618 
L 253.333025 166.632174 
L 256.840504 160.857892 
L 288.838852 164.650808 
L 285.393437 169.217912 
z
" clip-path="url(#p604209e3bb)" style="fill: #24aa83"/>
    <path d="M 292.031114 160.79971 
L 292.356179 160.410213 
L 293.700962 158.786928 
z
" clip-path="url(#p604209e3bb)" style="fill: #40bd72"/>
    <path d="M 207.192977 157.23799 
L 173.989084 147.358035 
L 174.689192 147.485788 
L 176.363124 148.67687 
L 209.501247 160.479814 
L 207.875648 157.803093 
z
" clip-path="url(#p604209e3bb)" style="fill: #70cf57"/>
    <path d="M 283.52166 172.009378 
L 251.434358 169.858717 
L 251.917838 169.042644 
L 252.60428 167.87618 
L 284.674906 170.301856 
L 283.998003 171.320464 
z
" clip-path="url(#p604209e3bb)" style="fill: #20a386"/>
    <path d="M 290.451211 162.697592 
L 291.5847 161.335022 
L 292.031114 160.79971 
z
" clip-path="url(#p604209e3bb)" style="fill: #3fbc73"/>
    <path d="M 238.233169 185.917846 
L 209.501247 160.479814 
L 210.280292 162.259679 
L 213.36957 170.369958 
L 241.866497 183.28713 
L 238.964458 185.541226 
z
" clip-path="url(#p604209e3bb)" style="fill: #1f9a8a"/>
    <path d="M 288.838852 164.650808 
L 289.563432 163.769747 
L 290.451211 162.697592 
z
" clip-path="url(#p604209e3bb)" style="fill: #3aba76"/>
    <path d="M 204.812945 156.913744 
L 171.537803 147.323927 
L 173.170099 147.333391 
L 173.989084 147.358035 
L 207.192977 157.23799 
L 206.395647 156.936121 
z
" clip-path="url(#p604209e3bb)" style="fill: #8bd646"/>
    <path d="M 276.2371 182.592719 
L 244.051182 180.894431 
L 245.621944 178.869697 
L 251.434358 169.858717 
L 283.52166 172.009378 
L 277.794916 179.890866 
z
" clip-path="url(#p604209e3bb)" style="fill: #1f988b"/>
    <path d="M 284.674906 170.301856 
L 285.393437 169.217912 
L 288.838852 164.650808 
z
" clip-path="url(#p604209e3bb)" style="fill: #32b67a"/>
    <path d="M 202.606915 156.878833 
L 169.26026 147.21628 
L 171.497045 147.322633 
L 171.537803 147.323927 
L 204.812945 156.913744 
L 204.77348 156.915195 
z
" clip-path="url(#p604209e3bb)" style="fill: #9dd93b"/>
    <path d="M 236.047684 186.647907 
L 207.192977 157.23799 
L 207.875648 157.803093 
L 209.501247 160.479814 
L 238.233169 185.917846 
L 236.698215 186.471786 
z
" clip-path="url(#p604209e3bb)" style="fill: #25ac82"/>
    <path d="M 283.52166 172.009378 
L 283.998003 171.320464 
L 284.674906 170.301856 
z
" clip-path="url(#p604209e3bb)" style="fill: #2cb17e"/>
    <path d="M 274.059125 187.22802 
L 241.866497 183.28713 
L 243.308123 181.767662 
L 244.051182 180.894431 
L 276.2371 182.592719 
L 275.497565 184.060583 
z
" clip-path="url(#p604209e3bb)" style="fill: #218f8d"/>
    <path d="M 201.70485 156.909841 
L 168.329835 147.227544 
L 168.450959 147.221835 
L 169.26026 147.21628 
L 202.606915 156.878833 
L 201.822323 156.900698 
z
" clip-path="url(#p604209e3bb)" style="fill: #b0dd2f"/>
    <path d="M 233.760574 187.290169 
L 204.812945 156.913744 
L 206.395647 156.936121 
L 207.192977 157.23799 
L 236.047684 186.647907 
L 235.283748 186.842125 
z
" clip-path="url(#p604209e3bb)" style="fill: #2fb47c"/>
    <path d="M 200.106563 157.276594 
L 166.681989 147.444779 
L 167.64491 147.287537 
L 168.329835 147.227544 
L 201.70485 156.909841 
L 201.040409 157.001033 
z
" clip-path="url(#p604209e3bb)" style="fill: #b8de29"/>
    <path d="M 270.457344 194.010763 
L 238.233169 185.917846 
L 238.964458 185.541226 
L 241.866497 183.28713 
L 274.059125 187.22802 
L 271.176225 193.046732 
z
" clip-path="url(#p604209e3bb)" style="fill: #24878e"/>
    <path d="M 198.753901 157.990351 
L 165.285543 147.798751 
L 166.082427 147.580401 
L 166.681989 147.444779 
L 200.106563 157.276594 
L 199.52572 157.551649 
z
" clip-path="url(#p604209e3bb)" style="fill: #c2df23"/>
    <path d="M 276.2371 182.592719 
L 277.794916 179.890866 
L 283.52166 172.009378 
z
" clip-path="url(#p604209e3bb)" style="fill: #22a785"/>
    <path d="M 231.639928 188.382773 
L 202.606915 156.878833 
L 204.77348 156.915195 
L 204.812945 156.913744 
L 233.760574 187.290169 
L 233.722579 187.303739 
z
" clip-path="url(#p604209e3bb)" style="fill: #38b977"/>
    <path d="M 197.945402 158.455346 
L 164.451723 148.065959 
L 165.047015 147.871525 
L 165.285543 147.798751 
L 198.753901 157.990351 
L 198.522755 158.126012 
z
" clip-path="url(#p604209e3bb)" style="fill: #c5e021"/>
    <path d="M 268.325168 195.702531 
L 236.047684 186.647907 
L 236.698215 186.471786 
L 238.233169 185.917846 
L 270.457344 194.010763 
L 268.957963 195.339719 
z
" clip-path="url(#p604209e3bb)" style="fill: #24878e"/>
    <path d="M 196.946223 158.985115 
L 163.423134 148.436968 
L 163.462624 148.422065 
L 164.451723 148.065959 
L 197.945402 158.455346 
L 196.984619 158.965794 
z
" clip-path="url(#p604209e3bb)" style="fill: #cae11f"/>
    <path d="M 230.773605 189.099635 
L 201.70485 156.909841 
L 201.822323 156.900698 
L 202.606915 156.878833 
L 231.639928 188.382773 
L 230.886432 188.995047 
z
" clip-path="url(#p604209e3bb)" style="fill: #3fbc73"/>
    <path d="M 195.376344 159.820067 
L 161.808918 149.08761 
L 162.870866 148.650233 
L 163.423134 148.436968 
L 196.946223 158.985115 
L 196.409043 159.251022 
z
" clip-path="url(#p604209e3bb)" style="fill: #cde11d"/>
    <path d="M 229.236829 190.79633 
L 200.106563 157.276594 
L 201.040409 157.001033 
L 201.70485 156.909841 
L 230.773605 189.099635 
L 230.135244 189.750514 
z
" clip-path="url(#p604209e3bb)" style="fill: #40bd72"/>
    <path d="M 266.104742 196.625732 
L 233.760574 187.290169 
L 235.283748 186.842125 
L 236.047684 186.647907 
L 268.325168 195.702531 
L 267.583184 196.039633 
z
" clip-path="url(#p604209e3bb)" style="fill: #238a8d"/>
    <path d="M 194.122882 160.766491 
L 160.516805 149.674103 
L 161.299124 149.311466 
L 161.808918 149.08761 
L 195.376344 159.820067 
L 194.881433 160.162346 
z
" clip-path="url(#p604209e3bb)" style="fill: #d2e21b"/>
    <path d="M 227.932104 192.440352 
L 198.753901 157.990351 
L 199.52572 157.551649 
L 200.106563 157.276594 
L 229.236829 190.79633 
L 228.676907 191.494471 
z
" clip-path="url(#p604209e3bb)" style="fill: #42be71"/>
    <path d="M 308.934555 204.483221 
L 274.059125 187.22802 
L 275.497565 184.060583 
L 276.2371 182.592719 
L 310.026382 212.869131 
z
" clip-path="url(#p604209e3bb)" style="fill: #24878e"/>
    <path d="M 192.53763 162.136532 
L 158.882023 150.514337 
L 159.698018 150.080279 
L 160.516805 149.674103 
L 194.122882 160.766491 
L 193.329288 161.453034 
z
" clip-path="url(#p604209e3bb)" style="fill: #d5e21a"/>
    <path d="M 227.152076 193.420764 
L 197.945402 158.455346 
L 198.522755 158.126012 
L 198.753901 157.990351 
L 227.932104 192.440352 
L 227.70903 192.721941 
z
" clip-path="url(#p604209e3bb)" style="fill: #42be71"/>
    <path d="M 264.040388 197.910822 
L 231.639928 188.382773 
L 233.722579 187.303739 
L 233.760574 187.290169 
L 266.104742 196.625732 
L 266.067845 196.641571 
z
" clip-path="url(#p604209e3bb)" style="fill: #218e8d"/>
    <path d="M 226.189271 194.63676 
L 196.946223 158.985115 
L 196.984619 158.965794 
L 197.945402 158.455346 
L 227.152076 193.420764 
L 226.226239 194.589444 
z
" clip-path="url(#p604209e3bb)" style="fill: #40bd72"/>
    <path d="M 191.746961 162.768232 
L 158.068903 150.978117 
L 158.57192 150.687412 
L 158.882023 150.514337 
L 192.53763 162.136532 
L 192.236329 162.384343 
z
" clip-path="url(#p604209e3bb)" style="fill: #d8e219"/>
    <path d="M 224.678239 196.663478 
L 195.376344 159.820067 
L 196.409043 159.251022 
L 196.946223 158.985115 
L 226.189271 194.63676 
L 225.672269 195.307369 
z
" clip-path="url(#p604209e3bb)" style="fill: #40bd72"/>
    <path d="M 263.192791 198.789361 
L 230.773605 189.099635 
L 230.886432 188.995047 
L 231.639928 188.382773 
L 264.040388 197.910822 
L 263.303322 198.663582 
z
" clip-path="url(#p604209e3bb)" style="fill: #21908d"/>
    <path d="M 190.658909 163.672534 
L 156.950902 151.670757 
L 157.297251 151.449089 
L 158.068903 150.978117 
L 191.746961 162.768232 
L 190.995771 163.370866 
z
" clip-path="url(#p604209e3bb)" style="fill: #d8e219"/>
    <path d="M 261.684549 200.6999 
L 229.236829 190.79633 
L 230.135244 189.750514 
L 230.773605 189.099635 
L 263.192791 198.789361 
L 262.566785 199.548334 
z
" clip-path="url(#p604209e3bb)" style="fill: #218f8d"/>
    <path d="M 189.431348 165.001194 
L 155.685834 152.537871 
L 156.489982 151.976032 
L 156.950902 151.670757 
L 190.658909 163.672534 
L 190.211253 164.121466 
z
" clip-path="url(#p604209e3bb)" style="fill: #d8e219"/>
    <path d="M 223.469268 198.493676 
L 194.122882 160.766491 
L 194.881433 160.162346 
L 195.376344 159.820067 
L 224.678239 196.663478 
L 224.201157 197.357562 
z
" clip-path="url(#p604209e3bb)" style="fill: #3fbc73"/>
    <path d="M 188.654566 165.931569 
L 154.884892 153.136271 
L 155.342175 152.789756 
L 155.685834 152.537871 
L 189.431348 165.001194 
L 189.098137 165.397714 
z
" clip-path="url(#p604209e3bb)" style="fill: #d5e21a"/>
    <path d="M 260.402826 202.371391 
L 227.932104 192.440352 
L 228.676907 191.494471 
L 229.236829 190.79633 
L 261.684549 200.6999 
L 261.134447 201.427243 
z
" clip-path="url(#p604209e3bb)" style="fill: #228d8d"/>
    <path d="M 221.940578 201.117516 
L 192.53763 162.136532 
L 193.329288 161.453034 
L 194.122882 160.766491 
L 223.469268 198.493676 
L 222.703604 199.780485 
z
" clip-path="url(#p604209e3bb)" style="fill: #3bbb75"/>
    <path d="M 259.636697 203.352064 
L 227.152076 193.420764 
L 227.70903 192.721941 
L 227.932104 192.440352 
L 260.402826 202.371391 
L 260.183729 202.651209 
z
" clip-path="url(#p604209e3bb)" style="fill: #228c8d"/>
    <path d="M 221.179843 202.453413 
L 191.746961 162.768232 
L 192.236329 162.384343 
L 192.53763 162.136532 
L 221.940578 201.117516 
L 221.650517 201.628238 
z
" clip-path="url(#p604209e3bb)" style="fill: #38b977"/>
    <path d="M 186.339592 168.849498 
L 152.502157 155.166846 
L 153.25523 154.482426 
L 154.884892 153.136271 
L 188.654566 165.931569 
L 187.071867 167.896622 
z
" clip-path="url(#p604209e3bb)" style="fill: #d2e21b"/>
    <path d="M 258.690676 204.602636 
L 226.189271 194.63676 
L 226.226239 194.589444 
L 227.152076 193.420764 
L 259.636697 203.352064 
L 258.727014 204.553081 
z
" clip-path="url(#p604209e3bb)" style="fill: #238a8d"/>
    <path d="M 220.132747 204.257602 
L 190.658909 163.672534 
L 190.995771 163.370866 
L 191.746961 162.768232 
L 221.179843 202.453413 
L 220.457295 203.703993 
z
" clip-path="url(#p604209e3bb)" style="fill: #35b779"/>
    <path d="M 257.20357 206.804245 
L 224.678239 196.663478 
L 225.672269 195.307369 
L 226.189271 194.63676 
L 258.690676 204.602636 
L 258.182288 205.313738 
z
" clip-path="url(#p604209e3bb)" style="fill: #23888e"/>
    <path d="M 184.774335 171.014601 
L 150.894052 156.77141 
L 151.677499 155.964587 
L 152.502157 155.166846 
L 186.339592 168.849498 
L 185.537148 169.935209 
z
" clip-path="url(#p604209e3bb)" style="fill: #cae11f"/>
    <path d="M 218.946676 206.334047 
L 189.431348 165.001194 
L 190.211253 164.121466 
L 190.658909 163.672534 
L 220.132747 204.257602 
L 219.700667 204.996326 
z
" clip-path="url(#p604209e3bb)" style="fill: #32b67a"/>
    <path d="M 306.352601 175.22533 
L 270.457344 194.010763 
L 271.176225 193.046732 
L 274.059125 187.22802 
L 308.934555 204.483221 
L 306.919445 179.631566 
z
" clip-path="url(#p604209e3bb)" style="fill: #25ab82"/>
    <path d="M 248.479775 249.504754 
L 215.964359 212.814122 
L 216.669427 211.11461 
L 218.195944 207.783937 
L 250.704805 238.379319 
L 249.157283 252.475924 
z
" clip-path="url(#p604209e3bb)" style="fill: #472e7c"/>
    <path d="M 218.195944 207.783937 
L 188.654566 165.931569 
L 189.098137 165.397714 
L 189.431348 165.001194 
L 218.946676 206.334047 
L 218.624517 206.940354 
z
" clip-path="url(#p604209e3bb)" style="fill: #2eb37c"/>
    <path d="M 183.978691 172.197155 
L 150.077294 157.665542 
L 150.448037 157.252889 
L 150.894052 156.77141 
L 184.774335 171.014601 
L 184.339892 171.652641 
z
" clip-path="url(#p604209e3bb)" style="fill: #c5e021"/>
    <path d="M 256.009994 208.944157 
L 223.469268 198.493676 
L 224.201157 197.357562 
L 224.678239 196.663478 
L 257.20357 206.804245 
L 256.733081 207.594312 
z
" clip-path="url(#p604209e3bb)" style="fill: #25858e"/>
    <path d="M 250.704805 238.379319 
L 218.195944 207.783937 
L 218.624517 206.940354 
L 218.946676 206.334047 
L 251.48961 227.206316 
L 251.152584 231.928441 
z
" clip-path="url(#p604209e3bb)" style="fill: #3a538b"/>
    <path d="M 182.79236 174.084851 
L 148.85958 159.09131 
L 149.301401 158.562592 
L 150.077294 157.665542 
L 183.978691 172.197155 
L 183.222728 173.381486 
z
" clip-path="url(#p604209e3bb)" style="fill: #c0df25"/>
    <path d="M 254.492818 212.670257 
L 221.940578 201.117516 
L 222.703604 199.780485 
L 223.469268 198.493676 
L 256.009994 208.944157 
L 255.251038 210.665506 
z
" clip-path="url(#p604209e3bb)" style="fill: #27808e"/>
    <path d="M 215.964359 212.814122 
L 186.339592 168.849498 
L 187.071867 167.896622 
L 188.654566 165.931569 
L 218.195944 207.783937 
L 216.669427 211.11461 
z
" clip-path="url(#p604209e3bb)" style="fill: #28ae80"/>
    <path d="M 247.021733 243.037293 
L 214.467513 217.561112 
L 215.19352 214.891991 
L 215.964359 212.814122 
L 248.479775 249.504754 
L 247.740523 244.247614 
z
" clip-path="url(#p604209e3bb)" style="fill: #472e7c"/>
    <path d="M 253.740004 214.184485 
L 221.179843 202.453413 
L 221.650517 201.628238 
L 221.940578 201.117516 
L 254.492818 212.670257 
L 254.205115 213.356518 
z
" clip-path="url(#p604209e3bb)" style="fill: #297a8e"/>
    <path d="M 214.467513 217.561112 
L 184.774335 171.014601 
L 185.537148 169.935209 
L 186.339592 168.849498 
L 215.964359 212.814122 
L 215.19352 214.891991 
z
" clip-path="url(#p604209e3bb)" style="fill: #22a785"/>
    <path d="M 179.596988 179.731444 
L 145.576482 163.275099 
L 148.455514 159.584705 
L 148.85958 159.09131 
L 182.79236 174.084851 
L 182.398905 174.747061 
z
" clip-path="url(#p604209e3bb)" style="fill: #b2dd2d"/>
    <path d="M 251.48961 227.206316 
L 218.946676 206.334047 
L 219.700667 204.996326 
L 220.132747 204.257602 
L 252.705763 215.977651 
L 252.269871 218.504094 
z
" clip-path="url(#p604209e3bb)" style="fill: #2e6d8e"/>
    <path d="M 245.128267 246.0747 
L 212.619756 228.071803 
L 213.019458 225.670541 
L 213.721768 221.441067 
L 246.262297 244.396983 
L 245.53972 245.616058 
z
" clip-path="url(#p604209e3bb)" style="fill: #481f70"/>
    <path d="M 212.619756 228.071803 
L 182.79236 174.084851 
L 183.222728 173.381486 
L 183.978691 172.197155 
L 213.721768 221.441067 
L 213.019458 225.670541 
z
" clip-path="url(#p604209e3bb)" style="fill: #1f948c"/>
    <path d="M 252.705763 215.977651 
L 220.132747 204.257602 
L 220.457295 203.703993 
L 221.179843 202.453413 
L 253.740004 214.184485 
L 253.028314 215.048543 
z
" clip-path="url(#p604209e3bb)" style="fill: #2a778e"/>
    <path d="M 246.262297 244.396983 
L 213.721768 221.441067 
L 214.059028 219.562048 
L 214.467513 217.561112 
L 247.021733 243.037293 
L 246.607548 243.659179 
z
" clip-path="url(#p604209e3bb)" style="fill: #472d7b"/>
    <path d="M 209.610331 241.840682 
L 179.596988 179.731444 
L 182.398905 174.747061 
L 182.79236 174.084851 
L 212.619756 228.071803 
L 212.253717 230.203625 
z
" clip-path="url(#p604209e3bb)" style="fill: #25838e"/>
    <path d="M 213.721768 221.441067 
L 183.978691 172.197155 
L 184.339892 171.652641 
L 184.774335 171.014601 
L 214.467513 217.561112 
L 214.059028 219.562048 
z
" clip-path="url(#p604209e3bb)" style="fill: #1f9f88"/>
    <path d="M 242.064265 246.113737 
L 209.610331 241.840682 
L 212.253717 230.203625 
L 212.619756 228.071803 
L 245.128267 246.0747 
L 244.751889 246.364423 
z
" clip-path="url(#p604209e3bb)" style="fill: #470d60"/>
    <path d="M 208.100359 243.91587 
L 178.048006 182.408237 
L 178.575578 181.520795 
L 179.596988 179.731444 
L 209.610331 241.840682 
L 208.619753 243.643444 
z
" clip-path="url(#p604209e3bb)" style="fill: #2d718e"/>
    <path d="M 207.787069 243.924786 
L 177.731636 182.925856 
L 177.977687 182.524068 
L 178.048006 182.408237 
L 208.100359 243.91587 
L 208.030819 243.925591 
z
" clip-path="url(#p604209e3bb)" style="fill: #2e6f8e"/>
    <path d="M 178.048006 182.408237 
L 143.9878 165.370684 
L 144.528173 164.652245 
L 145.576482 163.275099 
L 179.596988 179.731444 
L 178.575578 181.520795 
z
" clip-path="url(#p604209e3bb)" style="fill: #9dd93b"/>
    <path d="M 206.532598 243.681542 
L 176.471145 185.033828 
L 177.029938 184.072268 
L 177.731636 182.925856 
L 207.787069 243.924786 
L 207.089445 243.77221 
z
" clip-path="url(#p604209e3bb)" style="fill: #2d708e"/>
    <path d="M 177.731636 182.925856 
L 143.664244 165.805348 
L 143.915854 165.467017 
L 143.9878 165.370684 
L 178.048006 182.408237 
L 177.977687 182.524068 
z
" clip-path="url(#p604209e3bb)" style="fill: #98d83e"/>
    <path d="M 240.575301 245.493727 
L 208.100359 243.91587 
L 208.619753 243.643444 
L 209.610331 241.840682 
L 242.064265 246.113737 
L 241.08237 245.662094 
z
" clip-path="url(#p604209e3bb)" style="fill: #440154"/>
    <path d="M 176.471145 185.033828 
L 142.37514 167.573216 
L 142.947067 166.78184 
L 143.664244 165.805348 
L 177.731636 182.925856 
L 177.029938 184.072268 
z
" clip-path="url(#p604209e3bb)" style="fill: #90d743"/>
    <path d="M 304.50545 167.361996 
L 268.325168 195.702531 
L 268.957963 195.339719 
L 270.457344 194.010763 
L 306.352601 175.22533 
L 305.069721 169.207367 
z
" clip-path="url(#p604209e3bb)" style="fill: #5ac864"/>
    <path d="M 240.271335 245.433375 
L 207.787069 243.924786 
L 208.030819 243.925591 
L 208.100359 243.91587 
L 240.575301 245.493727 
L 240.507735 245.477282 
z
" clip-path="url(#p604209e3bb)" style="fill: #450457"/>
    <path d="M 239.057795 245.532354 
L 206.532598 243.681542 
L 207.089445 243.77221 
L 207.787069 243.924786 
L 240.271335 245.433375 
L 239.596661 245.429246 
z
" clip-path="url(#p604209e3bb)" style="fill: #46085c"/>
    <path d="M 173.087942 192.67922 
L 138.871687 172.652788 
L 139.047187 172.389291 
L 142.37514 167.573216 
L 176.471145 185.033828 
L 173.25589 192.232527 
z
" clip-path="url(#p604209e3bb)" style="fill: #75d054"/>
    <path d="M 203.118488 244.103732 
L 173.087942 192.67922 
L 173.25589 192.232527 
L 176.471145 185.033828 
L 206.532598 243.681542 
L 203.290004 244.071096 
z
" clip-path="url(#p604209e3bb)" style="fill: #2e6d8e"/>
    <path d="M 171.555966 197.017739 
L 137.264159 175.107861 
L 138.136237 173.766815 
L 138.871687 172.652788 
L 173.087942 192.67922 
L 172.38568 194.61147 
z
" clip-path="url(#p604209e3bb)" style="fill: #60ca60"/>
    <path d="M 170.045845 201.685034 
L 135.669248 177.614282 
L 136.534495 176.246097 
L 137.264159 175.107861 
L 171.555966 197.017739 
L 170.864014 199.114749 
z
" clip-path="url(#p604209e3bb)" style="fill: #4ec36b"/>
    <path d="M 201.542627 244.297823 
L 171.555966 197.017739 
L 172.38568 194.61147 
L 173.087942 192.67922 
L 203.118488 244.103732 
L 202.398645 244.217978 
z
" clip-path="url(#p604209e3bb)" style="fill: #306a8e"/>
    <path d="M 302.493322 161.673752 
L 266.104742 196.625732 
L 267.583184 196.039633 
L 268.325168 195.702531 
L 304.50545 167.361996 
L 303.838096 165.328236 
z
" clip-path="url(#p604209e3bb)" style="fill: #81d34d"/>
    <path d="M 199.973576 244.503411 
L 170.045845 201.685034 
L 170.864014 199.114749 
L 171.555966 197.017739 
L 201.542627 244.297823 
L 200.825071 244.365029 
z
" clip-path="url(#p604209e3bb)" style="fill: #31668e"/>
    <path d="M 235.742087 246.720217 
L 203.118488 244.103732 
L 203.290004 244.071096 
L 206.532598 243.681542 
L 239.057795 245.532354 
L 235.908832 246.68822 
z
" clip-path="url(#p604209e3bb)" style="fill: #481668"/>
    <path d="M 240.575301 245.493727 
L 241.08237 245.662094 
L 242.064265 246.113737 
z
" clip-path="url(#p604209e3bb)" style="fill: #48186a"/>
    <path d="M 300.57851 157.940277 
L 264.040388 197.910822 
L 266.067845 196.641571 
L 266.104742 196.625732 
L 302.493322 161.673752 
L 302.459491 161.591302 
z
" clip-path="url(#p604209e3bb)" style="fill: #a5db36"/>
    <path d="M 234.211312 246.880046 
L 201.542627 244.297823 
L 202.398645 244.217978 
L 203.118488 244.103732 
L 235.742087 246.720217 
L 235.04247 246.791089 
z
" clip-path="url(#p604209e3bb)" style="fill: #481d6f"/>
    <path d="M 240.271335 245.433375 
L 240.507735 245.477282 
L 240.575301 245.493727 
z
" clip-path="url(#p604209e3bb)" style="fill: #481d6f"/>
    <path d="M 239.057795 245.532354 
L 239.596661 245.429246 
L 240.271335 245.433375 
z
" clip-path="url(#p604209e3bb)" style="fill: #482173"/>
    <path d="M 232.688009 247.450023 
L 199.973576 244.503411 
L 200.825071 244.365029 
L 201.542627 244.297823 
L 234.211312 246.880046 
L 233.514901 247.082389 
z
" clip-path="url(#p604209e3bb)" style="fill: #482374"/>
    <path d="M 299.780543 156.935102 
L 263.192791 198.789361 
L 263.303322 198.663582 
L 264.040388 197.910822 
L 300.57851 157.940277 
L 299.884664 157.062236 
z
" clip-path="url(#p604209e3bb)" style="fill: #c0df25"/>
    <path d="M 298.370419 154.721404 
L 261.684549 200.6999 
L 262.566785 199.548334 
L 263.192791 198.789361 
L 299.780543 156.935102 
L 299.192534 156.143654 
z
" clip-path="url(#p604209e3bb)" style="fill: #cae11f"/>
    <path d="M 235.742087 246.720217 
L 235.908832 246.68822 
L 239.057795 245.532354 
z
" clip-path="url(#p604209e3bb)" style="fill: #472a7a"/>
    <path d="M 297.16811 152.86049 
L 260.402826 202.371391 
L 261.134447 201.427243 
L 261.684549 200.6999 
L 298.370419 154.721404 
L 297.857029 153.832071 
z
" clip-path="url(#p604209e3bb)" style="fill: #dae319"/>
    <path d="M 234.211312 246.880046 
L 235.04247 246.791089 
L 235.742087 246.720217 
z
" clip-path="url(#p604209e3bb)" style="fill: #46327e"/>
    <path d="M 296.44172 152.007399 
L 259.636697 203.352064 
L 260.183729 202.651209 
L 260.402826 202.371391 
L 297.16811 152.86049 
L 296.960711 152.6067 
z
" clip-path="url(#p604209e3bb)" style="fill: #e2e418"/>
    <path d="M 232.688009 247.450023 
L 233.514901 247.082389 
L 234.211312 246.880046 
z
" clip-path="url(#p604209e3bb)" style="fill: #453781"/>
    <path d="M 295.54468 150.901421 
L 258.690676 204.602636 
L 258.727014 204.553081 
L 259.636697 203.352064 
L 296.44172 152.007399 
L 295.579022 150.950079 
z
" clip-path="url(#p604209e3bb)" style="fill: #ece51b"/>
    <path d="M 294.150008 148.358228 
L 257.20357 206.804245 
L 258.182288 205.313738 
L 258.690676 204.602636 
L 295.54468 150.901421 
L 295.066082 150.129093 
z
" clip-path="url(#p604209e3bb)" style="fill: #f4e61e"/>
    <path d="M 293.000355 147.668867 
L 256.009994 208.944157 
L 256.733081 207.594312 
L 257.20357 206.804245 
L 294.150008 148.358228 
L 293.703342 147.781283 
z
" clip-path="url(#p604209e3bb)" style="fill: #fde725"/>
    <path d="M 285.583946 154.117811 
L 248.479775 249.504754 
L 249.157283 252.475924 
L 250.704805 238.379319 
L 287.802327 152.141205 
L 286.286506 153.491916 
z
" clip-path="url(#p604209e3bb)" style="fill: #58c765"/>
    <path d="M 291.498971 148.836603 
L 254.492818 212.670257 
L 255.251038 210.665506 
L 256.009994 208.944157 
L 293.000355 147.668867 
L 292.250385 148.177649 
z
" clip-path="url(#p604209e3bb)" style="fill: #fbe723"/>
    <path d="M 287.802327 152.141205 
L 250.704805 238.379319 
L 251.152584 231.928441 
L 251.48961 227.206316 
L 288.545273 151.478428 
L 288.226655 151.762631 
z
" clip-path="url(#p604209e3bb)" style="fill: #98d83e"/>
    <path d="M 290.748883 149.515602 
L 253.740004 214.184485 
L 254.205115 213.356518 
L 254.492818 212.670257 
L 291.498971 148.836603 
L 291.213024 149.094965 
z
" clip-path="url(#p604209e3bb)" style="fill: #f4e61e"/>
    <path d="M 242.064265 246.113737 
L 244.751889 246.364423 
L 245.128267 246.0747 
L 282.163853 157.165553 
L 281.782279 157.505523 
z
" clip-path="url(#p604209e3bb)" style="fill: #2ab07f"/>
    <path d="M 289.716216 150.437507 
L 252.705763 215.977651 
L 253.028314 215.048543 
L 253.740004 214.184485 
L 290.748883 149.515602 
L 290.036308 150.15333 
z
" clip-path="url(#p604209e3bb)" style="fill: #efe51c"/>
    <path d="M 288.545273 151.478428 
L 251.48961 227.206316 
L 252.269871 218.504094 
L 252.705763 215.977651 
L 289.716216 150.437507 
L 289.289935 150.815634 
z
" clip-path="url(#p604209e3bb)" style="fill: #d5e21a"/>
    <path d="M 284.078714 155.459136 
L 247.021733 243.037293 
L 247.740523 244.247614 
L 248.479775 249.504754 
L 285.583946 154.117811 
L 284.81293 154.80483 
z
" clip-path="url(#p604209e3bb)" style="fill: #65cb5e"/>
    <path d="M 283.311368 156.142989 
L 246.262297 244.396983 
L 246.607548 243.659179 
L 247.021733 243.037293 
L 284.078714 155.459136 
L 283.65993 155.832355 
z
" clip-path="url(#p604209e3bb)" style="fill: #75d054"/>
    <path d="M 282.163853 157.165553 
L 245.128267 246.0747 
L 245.53972 245.616058 
L 246.262297 244.396983 
L 283.311368 156.142989 
L 282.580646 156.794167 
z
" clip-path="url(#p604209e3bb)" style="fill: #70cf57"/>
   </g>
   <g id="text_23">
    <!-- Implied vol -->
    <g transform="translate(203.105625 35.472) scale(0.12 -0.12)">
     <defs>
      <path id="DejaVuSans-49" d="M 628 4666 
L 1259 4666 
L 1259 0 
L 628 0 
L 628 4666 
z
" transform="scale(0.015625)"/>
      <path id="DejaVuSans-6d" d="M 3328 2828 
Q 3544 3216 3844 3400 
Q 4144 3584 4550 3584 
Q 5097 3584 5394 3201 
Q 5691 2819 5691 2113 
L 5691 0 
L 5113 0 
L 5113 2094 
Q 5113 2597 4934 2840 
Q 4756 3084 4391 3084 
Q 3944 3084 3684 2787 
Q 3425 2491 3425 1978 
L 3425 0 
L 2847 0 
L 2847 2094 
Q 2847 2600 2669 2842 
Q 2491 3084 2119 3084 
Q 1678 3084 1418 2786 
Q 1159 2488 1159 1978 
L 1159 0 
L 581 0 
L 581 3500 
L 1159 3500 
L 1159 2956 
Q 1356 3278 1631 3431 
Q 1906 3584 2284 3584 
Q 2666 3584 2933 3390 
Q 3200 3197 3328 2828 
z
" transform="scale(0.015625)"/>
      <path id="DejaVuSans-64" d="M 2906 2969 
L 2906 4863 
L 3481 4863 
L 3481 0 
L 2906 0 
L 2906 525 
Q 2725 213 2448 61 
Q 2172 -91 1784 -91 
Q 1150 -91 751 415 
Q 353 922 353 1747 
Q 353 2572 751 3078 
Q 1150 3584 1784 3584 
Q 2172 3584 2448 3432 
Q 2725 3281 2906 2969 
z
M 947 1747 
Q 947 1113 1208 752 
Q 1469 391 1925 391 
Q 2381 391 2643 752 
Q 2906 1113 2906 1747 
Q 2906 2381 2643 2742 
Q 2381 3103 1925 3103 
Q 1469 3103 1208 2742 
Q 947 2381 947 1747 
z
" transform="scale(0.015625)"/>
      <path id="DejaVuSans-20" transform="scale(0.015625)"/>
      <path id="DejaVuSans-76" d="M 191 3500 
L 800 3500 
L 1894 563 
L 2988 3500 
L 3597 3500 
L 2284 0 
L 1503 0 
L 191 3500 
z
" transform="scale(0.015625)"/>
     </defs>
     <use xlink:href="#DejaVuSans-49"/>
     <use xlink:href="#DejaVuSans-6d" x="29.492188"/>
     <use xlink:href="#DejaVuSans-70" x="126.904297"/>
     <use xlink:href="#DejaVuSans-6c" x="190.380859"/>
     <use xlink:href="#DejaVuSans-69" x="218.164062"/>
     <use xlink:href="#DejaVuSans-65" x="245.947266"/>
     <use xlink:href="#DejaVuSans-64" x="307.470703"/>
     <use xlink:href="#DejaVuSans-20" x="370.947266"/>
     <use xlink:href="#DejaVuSans-76" x="402.734375"/>
     <use xlink:href="#DejaVuSans-6f" x="461.914062"/>
     <use xlink:href="#DejaVuSans-6c" x="523.095703"/>
    </g>
   </g>
  </g>
 </g>
 <defs>
  <clipPath id="p604209e3bb">
   <rect x="103.104" y="41.472" width="266.112" height="266.112"/>
  </clipPath>
 </defs>
</svg>
