<?xml version="1.0" encoding="utf-8" standalone="no"?>
<!DOCTYPE svg PUBLIC "-//W3C//DTD SVG 1.1//EN"
  "http://www.w3.org/Graphics/SVG/1.1/DTD/svg11.dtd">
<svg xmlns:xlink="http://www.w3.org/1999/xlink" width="460.8pt" height="345.6pt" viewBox="0 0 460.8 345.6" xmlns="http://www.w3.org/2000/svg" version="1.1">
 <metadata>
  <rdf:RDF xmlns:dc="http://purl.org/dc/elements/1.1/" xmlns:cc="http://creativecommons.org/ns#" xmlns:rdf="http://www.w3.org/1999/02/22-rdf-syntax-ns#">
   <cc:Work>
    <dc:type rdf:resource="http://purl.org/dc/dcmitype/StillImage"/>
    <dc:date>2024-03-26T22:46:44.328897</dc:date>
    <dc:format>image/svg+xml</dc:format>
    <dc:creator>
     <cc:Agent>
      <dc:title>Matplotlib v3.7.3, https://matplotlib.org/</dc:title>
     </cc:Agent>
    </dc:creator>
   </cc:Work>
  </rdf:RDF>
 </metadata>
 <defs>
  <style type="text/css">*{stroke-linejoin: round; stroke-linecap: butt}</style>
 </defs>
 <g id="figure_1">
  <g id="patch_1">
   <path d="M 0 345.6 
L 460.8 345.6 
L 460.8 0 
L 0 0 
z
" style="fill: #ffffff"/>
  </g>
  <g id="axes_1">
   <g id="patch_2">
    <path d="M 57.6 307.584 
L 414.72 307.584 
L 414.72 41.472 
L 57.6 41.472 
z
" style="fill: #ffffff"/>
   </g>
   <g id="matplotlib.axis_1">
    <g id="xtick_1">
     <g id="line2d_1">
      <path d="M 73.818116 307.584 
L 73.818116 41.472 
" clip-path="url(#pa04758458f)" style="fill: none; stroke: #b0b0b0; stroke-width: 0.8; stroke-linecap: square"/>
     </g>
     <g id="line2d_2">
      <defs>
       <path id="m1321140efd" d="M 0 0 
L 0 3.5 
" style="stroke: #000000; stroke-width: 0.8"/>
      </defs>
      <g>
       <use xlink:href="#m1321140efd" x="73.818116" y="307.584" style="stroke: #000000; stroke-width: 0.8"/>
      </g>
     </g>
     <g id="text_1">
      <!-- 0.900 -->
      <g transform="translate(59.504054 322.182437) scale(0.1 -0.1)">
       <defs>
        <path id="DejaVuSans-30" d="M 2034 4250 
Q 1547 4250 1301 3770 
Q 1056 3291 1056 2328 
Q 1056 1369 1301 889 
Q 1547 409 2034 409 
Q 2525 409 2770 889 
Q 3016 1369 3016 2328 
Q 3016 3291 2770 3770 
Q 2525 4250 2034 4250 
z
M 2034 4750 
Q 2819 4750 3233 4129 
Q 3647 3509 3647 2328 
Q 3647 1150 3233 529 
Q 2819 -91 2034 -91 
Q 1250 -91 836 529 
Q 422 1150 422 2328 
Q 422 3509 836 4129 
Q 1250 4750 2034 4750 
z
" transform="scale(0.015625)"/>
        <path id="DejaVuSans-2e" d="M 684 794 
L 1344 794 
L 1344 0 
L 684 0 
L 684 794 
z
" transform="scale(0.015625)"/>
        <path id="DejaVuSans-39" d="M 703 97 
L 703 672 
Q 941 559 1184 500 
Q 1428 441 1663 441 
Q 2288 441 2617 861 
Q 2947 1281 2994 2138 
Q 2813 1869 2534 1725 
Q 2256 1581 1919 1581 
Q 1219 1581 811 2004 
Q 403 2428 403 3163 
Q 403 3881 828 4315 
Q 1253 4750 1959 4750 
Q 2769 4750 3195 4129 
Q 3622 3509 3622 2328 
Q 3622 1225 3098 567 
Q 2575 -91 1691 -91 
Q 1453 -91 1209 -44 
Q 966 3 703 97 
z
M 1959 2075 
Q 2384 2075 2632 2365 
Q 2881 2656 2881 3163 
Q 2881 3666 2632 3958 
Q 2384 4250 1959 4250 
Q 1534 4250 1286 3958 
Q 1038 3666 1038 3163 
Q 1038 2656 1286 2365 
Q 1534 2075 1959 2075 
z
" transform="scale(0.015625)"/>
       </defs>
       <use xlink:href="#DejaVuSans-30"/>
       <use xlink:href="#DejaVuSans-2e" x="63.623047"/>
       <use xlink:href="#DejaVuSans-39" x="95.410156"/>
       <use xlink:href="#DejaVuSans-30" x="159.033203"/>
       <use xlink:href="#DejaVuSans-30" x="222.65625"/>
      </g>
     </g>
    </g>
    <g id="xtick_2">
     <g id="line2d_3">
      <path d="M 114.403993 307.584 
L 114.403993 41.472 
" clip-path="url(#pa04758458f)" style="fill: none; stroke: #b0b0b0; stroke-width: 0.8; stroke-linecap: square"/>
     </g>
     <g id="line2d_4">
      <g>
       <use xlink:href="#m1321140efd" x="114.403993" y="307.584" style="stroke: #000000; stroke-width: 0.8"/>
      </g>
     </g>
     <g id="text_2">
      <!-- 0.925 -->
      <g transform="translate(100.08993 322.182437) scale(0.1 -0.1)">
       <defs>
        <path id="DejaVuSans-32" d="M 1228 531 
L 3431 531 
L 3431 0 
L 469 0 
L 469 531 
Q 828 903 1448 1529 
Q 2069 2156 2228 2338 
Q 2531 2678 2651 2914 
Q 2772 3150 2772 3378 
Q 2772 3750 2511 3984 
Q 2250 4219 1831 4219 
Q 1534 4219 1204 4116 
Q 875 4013 500 3803 
L 500 4441 
Q 881 4594 1212 4672 
Q 1544 4750 1819 4750 
Q 2544 4750 2975 4387 
Q 3406 4025 3406 3419 
Q 3406 3131 3298 2873 
Q 3191 2616 2906 2266 
Q 2828 2175 2409 1742 
Q 1991 1309 1228 531 
z
" transform="scale(0.015625)"/>
        <path id="DejaVuSans-35" d="M 691 4666 
L 3169 4666 
L 3169 4134 
L 1269 4134 
L 1269 2991 
Q 1406 3038 1543 3061 
Q 1681 3084 1819 3084 
Q 2600 3084 3056 2656 
Q 3513 2228 3513 1497 
Q 3513 744 3044 326 
Q 2575 -91 1722 -91 
Q 1428 -91 1123 -41 
Q 819 9 494 109 
L 494 744 
Q 775 591 1075 516 
Q 1375 441 1709 441 
Q 2250 441 2565 725 
Q 2881 1009 2881 1497 
Q 2881 1984 2565 2268 
Q 2250 2553 1709 2553 
Q 1456 2553 1204 2497 
Q 953 2441 691 2322 
L 691 4666 
z
" transform="scale(0.015625)"/>
       </defs>
       <use xlink:href="#DejaVuSans-30"/>
       <use xlink:href="#DejaVuSans-2e" x="63.623047"/>
       <use xlink:href="#DejaVuSans-39" x="95.410156"/>
       <use xlink:href="#DejaVuSans-32" x="159.033203"/>
       <use xlink:href="#DejaVuSans-35" x="222.65625"/>
      </g>
     </g>
    </g>
    <g id="xtick_3">
     <g id="line2d_5">
      <path d="M 154.98987 307.584 
L 154.98987 41.472 
" clip-path="url(#pa04758458f)" style="fill: none; stroke: #b0b0b0; stroke-width: 0.8; stroke-linecap: square"/>
     </g>
     <g id="line2d_6">
      <g>
       <use xlink:href="#m1321140efd" x="154.98987" y="307.584" style="stroke: #000000; stroke-width: 0.8"/>
      </g>
     </g>
     <g id="text_3">
      <!-- 0.950 -->
      <g transform="translate(140.675807 322.182437) scale(0.1 -0.1)">
       <use xlink:href="#DejaVuSans-30"/>
       <use xlink:href="#DejaVuSans-2e" x="63.623047"/>
       <use xlink:href="#DejaVuSans-39" x="95.410156"/>
       <use xlink:href="#DejaVuSans-35" x="159.033203"/>
       <use xlink:href="#DejaVuSans-30" x="222.65625"/>
      </g>
     </g>
    </g>
    <g id="xtick_4">
     <g id="line2d_7">
      <path d="M 195.575747 307.584 
L 195.575747 41.472 
" clip-path="url(#pa04758458f)" style="fill: none; stroke: #b0b0b0; stroke-width: 0.8; stroke-linecap: square"/>
     </g>
     <g id="line2d_8">
      <g>
       <use xlink:href="#m1321140efd" x="195.575747" y="307.584" style="stroke: #000000; stroke-width: 0.8"/>
      </g>
     </g>
     <g id="text_4">
      <!-- 0.975 -->
      <g transform="translate(181.261684 322.182437) scale(0.1 -0.1)">
       <defs>
        <path id="DejaVuSans-37" d="M 525 4666 
L 3525 4666 
L 3525 4397 
L 1831 0 
L 1172 0 
L 2766 4134 
L 525 4134 
L 525 4666 
z
" transform="scale(0.015625)"/>
       </defs>
       <use xlink:href="#DejaVuSans-30"/>
       <use xlink:href="#DejaVuSans-2e" x="63.623047"/>
       <use xlink:href="#DejaVuSans-39" x="95.410156"/>
       <use xlink:href="#DejaVuSans-37" x="159.033203"/>
       <use xlink:href="#DejaVuSans-35" x="222.65625"/>
      </g>
     </g>
    </g>
    <g id="xtick_5">
     <g id="line2d_9">
      <path d="M 236.161623 307.584 
L 236.161623 41.472 
" clip-path="url(#pa04758458f)" style="fill: none; stroke: #b0b0b0; stroke-width: 0.8; stroke-linecap: square"/>
     </g>
     <g id="line2d_10">
      <g>
       <use xlink:href="#m1321140efd" x="236.161623" y="307.584" style="stroke: #000000; stroke-width: 0.8"/>
      </g>
     </g>
     <g id="text_5">
      <!-- 1.000 -->
      <g transform="translate(221.847561 322.182437) scale(0.1 -0.1)">
       <defs>
        <path id="DejaVuSans-31" d="M 794 531 
L 1825 531 
L 1825 4091 
L 703 3866 
L 703 4441 
L 1819 4666 
L 2450 4666 
L 2450 531 
L 3481 531 
L 3481 0 
L 794 0 
L 794 531 
z
" transform="scale(0.015625)"/>
       </defs>
       <use xlink:href="#DejaVuSans-31"/>
       <use xlink:href="#DejaVuSans-2e" x="63.623047"/>
       <use xlink:href="#DejaVuSans-30" x="95.410156"/>
       <use xlink:href="#DejaVuSans-30" x="159.033203"/>
       <use xlink:href="#DejaVuSans-30" x="222.65625"/>
      </g>
     </g>
    </g>
    <g id="xtick_6">
     <g id="line2d_11">
      <path d="M 276.7475 307.584 
L 276.7475 41.472 
" clip-path="url(#pa04758458f)" style="fill: none; stroke: #b0b0b0; stroke-width: 0.8; stroke-linecap: square"/>
     </g>
     <g id="line2d_12">
      <g>
       <use xlink:href="#m1321140efd" x="276.7475" y="307.584" style="stroke: #000000; stroke-width: 0.8"/>
      </g>
     </g>
     <g id="text_6">
      <!-- 1.025 -->
      <g transform="translate(262.433438 322.182437) scale(0.1 -0.1)">
       <use xlink:href="#DejaVuSans-31"/>
       <use xlink:href="#DejaVuSans-2e" x="63.623047"/>
       <use xlink:href="#DejaVuSans-30" x="95.410156"/>
       <use xlink:href="#DejaVuSans-32" x="159.033203"/>
       <use xlink:href="#DejaVuSans-35" x="222.65625"/>
      </g>
     </g>
    </g>
    <g id="xtick_7">
     <g id="line2d_13">
      <path d="M 317.333377 307.584 
L 317.333377 41.472 
" clip-path="url(#pa04758458f)" style="fill: none; stroke: #b0b0b0; stroke-width: 0.8; stroke-linecap: square"/>
     </g>
     <g id="line2d_14">
      <g>
       <use xlink:href="#m1321140efd" x="317.333377" y="307.584" style="stroke: #000000; stroke-width: 0.8"/>
      </g>
     </g>
     <g id="text_7">
      <!-- 1.050 -->
      <g transform="translate(303.019314 322.182437) scale(0.1 -0.1)">
       <use xlink:href="#DejaVuSans-31"/>
       <use xlink:href="#DejaVuSans-2e" x="63.623047"/>
       <use xlink:href="#DejaVuSans-30" x="95.410156"/>
       <use xlink:href="#DejaVuSans-35" x="159.033203"/>
       <use xlink:href="#DejaVuSans-30" x="222.65625"/>
      </g>
     </g>
    </g>
    <g id="xtick_8">
     <g id="line2d_15">
      <path d="M 357.919254 307.584 
L 357.919254 41.472 
" clip-path="url(#pa04758458f)" style="fill: none; stroke: #b0b0b0; stroke-width: 0.8; stroke-linecap: square"/>
     </g>
     <g id="line2d_16">
      <g>
       <use xlink:href="#m1321140efd" x="357.919254" y="307.584" style="stroke: #000000; stroke-width: 0.8"/>
      </g>
     </g>
     <g id="text_8">
      <!-- 1.075 -->
      <g transform="translate(343.605191 322.182437) scale(0.1 -0.1)">
       <use xlink:href="#DejaVuSans-31"/>
       <use xlink:href="#DejaVuSans-2e" x="63.623047"/>
       <use xlink:href="#DejaVuSans-30" x="95.410156"/>
       <use xlink:href="#DejaVuSans-37" x="159.033203"/>
       <use xlink:href="#DejaVuSans-35" x="222.65625"/>
      </g>
     </g>
    </g>
    <g id="xtick_9">
     <g id="line2d_17">
      <path d="M 398.50513 307.584 
L 398.50513 41.472 
" clip-path="url(#pa04758458f)" style="fill: none; stroke: #b0b0b0; stroke-width: 0.8; stroke-linecap: square"/>
     </g>
     <g id="line2d_18">
      <g>
       <use xlink:href="#m1321140efd" x="398.50513" y="307.584" style="stroke: #000000; stroke-width: 0.8"/>
      </g>
     </g>
     <g id="text_9">
      <!-- 1.100 -->
      <g transform="translate(384.191068 322.182437) scale(0.1 -0.1)">
       <use xlink:href="#DejaVuSans-31"/>
       <use xlink:href="#DejaVuSans-2e" x="63.623047"/>
       <use xlink:href="#DejaVuSans-31" x="95.410156"/>
       <use xlink:href="#DejaVuSans-30" x="159.033203"/>
       <use xlink:href="#DejaVuSans-30" x="222.65625"/>
      </g>
     </g>
    </g>
    <g id="text_10">
     <!-- Strike/spot -->
     <g transform="translate(209.307656 335.860562) scale(0.1 -0.1)">
      <defs>
       <path id="DejaVuSans-53" d="M 3425 4513 
L 3425 3897 
Q 3066 4069 2747 4153 
Q 2428 4238 2131 4238 
Q 1616 4238 1336 4038 
Q 1056 3838 1056 3469 
Q 1056 3159 1242 3001 
Q 1428 2844 1947 2747 
L 2328 2669 
Q 3034 2534 3370 2195 
Q 3706 1856 3706 1288 
Q 3706 609 3251 259 
Q 2797 -91 1919 -91 
Q 1588 -91 1214 -16 
Q 841 59 441 206 
L 441 856 
Q 825 641 1194 531 
Q 1563 422 1919 422 
Q 2459 422 2753 634 
Q 3047 847 3047 1241 
Q 3047 1584 2836 1778 
Q 2625 1972 2144 2069 
L 1759 2144 
Q 1053 2284 737 2584 
Q 422 2884 422 3419 
Q 422 4038 858 4394 
Q 1294 4750 2059 4750 
Q 2388 4750 2728 4690 
Q 3069 4631 3425 4513 
z
" transform="scale(0.015625)"/>
       <path id="DejaVuSans-74" d="M 1172 4494 
L 1172 3500 
L 2356 3500 
L 2356 3053 
L 1172 3053 
L 1172 1153 
Q 1172 725 1289 603 
Q 1406 481 1766 481 
L 2356 481 
L 2356 0 
L 1766 0 
Q 1100 0 847 248 
Q 594 497 594 1153 
L 594 3053 
L 172 3053 
L 172 3500 
L 594 3500 
L 594 4494 
L 1172 4494 
z
" transform="scale(0.015625)"/>
       <path id="DejaVuSans-72" d="M 2631 2963 
Q 2534 3019 2420 3045 
Q 2306 3072 2169 3072 
Q 1681 3072 1420 2755 
Q 1159 2438 1159 1844 
L 1159 0 
L 581 0 
L 581 3500 
L 1159 3500 
L 1159 2956 
Q 1341 3275 1631 3429 
Q 1922 3584 2338 3584 
Q 2397 3584 2469 3576 
Q 2541 3569 2628 3553 
L 2631 2963 
z
" transform="scale(0.015625)"/>
       <path id="DejaVuSans-69" d="M 603 3500 
L 1178 3500 
L 1178 0 
L 603 0 
L 603 3500 
z
M 603 4863 
L 1178 4863 
L 1178 4134 
L 603 4134 
L 603 4863 
z
" transform="scale(0.015625)"/>
       <path id="DejaVuSans-6b" d="M 581 4863 
L 1159 4863 
L 1159 1991 
L 2875 3500 
L 3609 3500 
L 1753 1863 
L 3688 0 
L 2938 0 
L 1159 1709 
L 1159 0 
L 581 0 
L 581 4863 
z
" transform="scale(0.015625)"/>
       <path id="DejaVuSans-65" d="M 3597 1894 
L 3597 1613 
L 953 1613 
Q 991 1019 1311 708 
Q 1631 397 2203 397 
Q 2534 397 2845 478 
Q 3156 559 3463 722 
L 3463 178 
Q 3153 47 2828 -22 
Q 2503 -91 2169 -91 
Q 1331 -91 842 396 
Q 353 884 353 1716 
Q 353 2575 817 3079 
Q 1281 3584 2069 3584 
Q 2775 3584 3186 3129 
Q 3597 2675 3597 1894 
z
M 3022 2063 
Q 3016 2534 2758 2815 
Q 2500 3097 2075 3097 
Q 1594 3097 1305 2825 
Q 1016 2553 972 2059 
L 3022 2063 
z
" transform="scale(0.015625)"/>
       <path id="DejaVuSans-2f" d="M 1625 4666 
L 2156 4666 
L 531 -594 
L 0 -594 
L 1625 4666 
z
" transform="scale(0.015625)"/>
       <path id="DejaVuSans-73" d="M 2834 3397 
L 2834 2853 
Q 2591 2978 2328 3040 
Q 2066 3103 1784 3103 
Q 1356 3103 1142 2972 
Q 928 2841 928 2578 
Q 928 2378 1081 2264 
Q 1234 2150 1697 2047 
L 1894 2003 
Q 2506 1872 2764 1633 
Q 3022 1394 3022 966 
Q 3022 478 2636 193 
Q 2250 -91 1575 -91 
Q 1294 -91 989 -36 
Q 684 19 347 128 
L 347 722 
Q 666 556 975 473 
Q 1284 391 1588 391 
Q 1994 391 2212 530 
Q 2431 669 2431 922 
Q 2431 1156 2273 1281 
Q 2116 1406 1581 1522 
L 1381 1569 
Q 847 1681 609 1914 
Q 372 2147 372 2553 
Q 372 3047 722 3315 
Q 1072 3584 1716 3584 
Q 2034 3584 2315 3537 
Q 2597 3491 2834 3397 
z
" transform="scale(0.015625)"/>
       <path id="DejaVuSans-70" d="M 1159 525 
L 1159 -1331 
L 581 -1331 
L 581 3500 
L 1159 3500 
L 1159 2969 
Q 1341 3281 1617 3432 
Q 1894 3584 2278 3584 
Q 2916 3584 3314 3078 
Q 3713 2572 3713 1747 
Q 3713 922 3314 415 
Q 2916 -91 2278 -91 
Q 1894 -91 1617 61 
Q 1341 213 1159 525 
z
M 3116 1747 
Q 3116 2381 2855 2742 
Q 2594 3103 2138 3103 
Q 1681 3103 1420 2742 
Q 1159 2381 1159 1747 
Q 1159 1113 1420 752 
Q 1681 391 2138 391 
Q 2594 391 2855 752 
Q 3116 1113 3116 1747 
z
" transform="scale(0.015625)"/>
       <path id="DejaVuSans-6f" d="M 1959 3097 
Q 1497 3097 1228 2736 
Q 959 2375 959 1747 
Q 959 1119 1226 758 
Q 1494 397 1959 397 
Q 2419 397 2687 759 
Q 2956 1122 2956 1747 
Q 2956 2369 2687 2733 
Q 2419 3097 1959 3097 
z
M 1959 3584 
Q 2709 3584 3137 3096 
Q 3566 2609 3566 1747 
Q 3566 888 3137 398 
Q 2709 -91 1959 -91 
Q 1206 -91 779 398 
Q 353 888 353 1747 
Q 353 2609 779 3096 
Q 1206 3584 1959 3584 
z
" transform="scale(0.015625)"/>
      </defs>
      <use xlink:href="#DejaVuSans-53"/>
      <use xlink:href="#DejaVuSans-74" x="63.476562"/>
      <use xlink:href="#DejaVuSans-72" x="102.685547"/>
      <use xlink:href="#DejaVuSans-69" x="143.798828"/>
      <use xlink:href="#DejaVuSans-6b" x="171.582031"/>
      <use xlink:href="#DejaVuSans-65" x="225.867188"/>
      <use xlink:href="#DejaVuSans-2f" x="287.390625"/>
      <use xlink:href="#DejaVuSans-73" x="321.082031"/>
      <use xlink:href="#DejaVuSans-70" x="373.181641"/>
      <use xlink:href="#DejaVuSans-6f" x="436.658203"/>
      <use xlink:href="#DejaVuSans-74" x="497.839844"/>
     </g>
    </g>
   </g>
   <g id="matplotlib.axis_2">
    <g id="ytick_1">
     <g id="line2d_19">
      <path d="M 57.6 279.4014 
L 414.72 279.4014 
" clip-path="url(#pa04758458f)" style="fill: none; stroke: #b0b0b0; stroke-width: 0.8; stroke-linecap: square"/>
     </g>
     <g id="line2d_20">
      <defs>
       <path id="m1dbdc29903" d="M 0 0 
L -3.5 0 
" style="stroke: #000000; stroke-width: 0.8"/>
      </defs>
      <g>
       <use xlink:href="#m1dbdc29903" x="57.6" y="279.4014" style="stroke: #000000; stroke-width: 0.8"/>
      </g>
     </g>
     <g id="text_11">
      <!-- 0.3 -->
      <g transform="translate(34.696875 283.200618) scale(0.1 -0.1)">
       <defs>
        <path id="DejaVuSans-33" d="M 2597 2516 
Q 3050 2419 3304 2112 
Q 3559 1806 3559 1356 
Q 3559 666 3084 287 
Q 2609 -91 1734 -91 
Q 1441 -91 1130 -33 
Q 819 25 488 141 
L 488 750 
Q 750 597 1062 519 
Q 1375 441 1716 441 
Q 2309 441 2620 675 
Q 2931 909 2931 1356 
Q 2931 1769 2642 2001 
Q 2353 2234 1838 2234 
L 1294 2234 
L 1294 2753 
L 1863 2753 
Q 2328 2753 2575 2939 
Q 2822 3125 2822 3475 
Q 2822 3834 2567 4026 
Q 2313 4219 1838 4219 
Q 1578 4219 1281 4162 
Q 984 4106 628 3988 
L 628 4550 
Q 988 4650 1302 4700 
Q 1616 4750 1894 4750 
Q 2613 4750 3031 4423 
Q 3450 4097 3450 3541 
Q 3450 3153 3228 2886 
Q 3006 2619 2597 2516 
z
" transform="scale(0.015625)"/>
       </defs>
       <use xlink:href="#DejaVuSans-30"/>
       <use xlink:href="#DejaVuSans-2e" x="63.623047"/>
       <use xlink:href="#DejaVuSans-33" x="95.410156"/>
      </g>
     </g>
    </g>
    <g id="ytick_2">
     <g id="line2d_21">
      <path d="M 57.6 222.808862 
L 414.72 222.808862 
" clip-path="url(#pa04758458f)" style="fill: none; stroke: #b0b0b0; stroke-width: 0.8; stroke-linecap: square"/>
     </g>
     <g id="line2d_22">
      <g>
       <use xlink:href="#m1dbdc29903" x="57.6" y="222.808862" style="stroke: #000000; stroke-width: 0.8"/>
      </g>
     </g>
     <g id="text_12">
      <!-- 0.4 -->
      <g transform="translate(34.696875 226.608081) scale(0.1 -0.1)">
       <defs>
        <path id="DejaVuSans-34" d="M 2419 4116 
L 825 1625 
L 2419 1625 
L 2419 4116 
z
M 2253 4666 
L 3047 4666 
L 3047 1625 
L 3713 1625 
L 3713 1100 
L 3047 1100 
L 3047 0 
L 2419 0 
L 2419 1100 
L 313 1100 
L 313 1709 
L 2253 4666 
z
" transform="scale(0.015625)"/>
       </defs>
       <use xlink:href="#DejaVuSans-30"/>
       <use xlink:href="#DejaVuSans-2e" x="63.623047"/>
       <use xlink:href="#DejaVuSans-34" x="95.410156"/>
      </g>
     </g>
    </g>
    <g id="ytick_3">
     <g id="line2d_23">
      <path d="M 57.6 166.216324 
L 414.72 166.216324 
" clip-path="url(#pa04758458f)" style="fill: none; stroke: #b0b0b0; stroke-width: 0.8; stroke-linecap: square"/>
     </g>
     <g id="line2d_24">
      <g>
       <use xlink:href="#m1dbdc29903" x="57.6" y="166.216324" style="stroke: #000000; stroke-width: 0.8"/>
      </g>
     </g>
     <g id="text_13">
      <!-- 0.5 -->
      <g transform="translate(34.696875 170.015543) scale(0.1 -0.1)">
       <use xlink:href="#DejaVuSans-30"/>
       <use xlink:href="#DejaVuSans-2e" x="63.623047"/>
       <use xlink:href="#DejaVuSans-35" x="95.410156"/>
      </g>
     </g>
    </g>
    <g id="ytick_4">
     <g id="line2d_25">
      <path d="M 57.6 109.623787 
L 414.72 109.623787 
" clip-path="url(#pa04758458f)" style="fill: none; stroke: #b0b0b0; stroke-width: 0.8; stroke-linecap: square"/>
     </g>
     <g id="line2d_26">
      <g>
       <use xlink:href="#m1dbdc29903" x="57.6" y="109.623787" style="stroke: #000000; stroke-width: 0.8"/>
      </g>
     </g>
     <g id="text_14">
      <!-- 0.6 -->
      <g transform="translate(34.696875 113.423005) scale(0.1 -0.1)">
       <defs>
        <path id="DejaVuSans-36" d="M 2113 2584 
Q 1688 2584 1439 2293 
Q 1191 2003 1191 1497 
Q 1191 994 1439 701 
Q 1688 409 2113 409 
Q 2538 409 2786 701 
Q 3034 994 3034 1497 
Q 3034 2003 2786 2293 
Q 2538 2584 2113 2584 
z
M 3366 4563 
L 3366 3988 
Q 3128 4100 2886 4159 
Q 2644 4219 2406 4219 
Q 1781 4219 1451 3797 
Q 1122 3375 1075 2522 
Q 1259 2794 1537 2939 
Q 1816 3084 2150 3084 
Q 2853 3084 3261 2657 
Q 3669 2231 3669 1497 
Q 3669 778 3244 343 
Q 2819 -91 2113 -91 
Q 1303 -91 875 529 
Q 447 1150 447 2328 
Q 447 3434 972 4092 
Q 1497 4750 2381 4750 
Q 2619 4750 2861 4703 
Q 3103 4656 3366 4563 
z
" transform="scale(0.015625)"/>
       </defs>
       <use xlink:href="#DejaVuSans-30"/>
       <use xlink:href="#DejaVuSans-2e" x="63.623047"/>
       <use xlink:href="#DejaVuSans-36" x="95.410156"/>
      </g>
     </g>
    </g>
    <g id="ytick_5">
     <g id="line2d_27">
      <path d="M 57.6 53.031249 
L 414.72 53.031249 
" clip-path="url(#pa04758458f)" style="fill: none; stroke: #b0b0b0; stroke-width: 0.8; stroke-linecap: square"/>
     </g>
     <g id="line2d_28">
      <g>
       <use xlink:href="#m1dbdc29903" x="57.6" y="53.031249" style="stroke: #000000; stroke-width: 0.8"/>
      </g>
     </g>
     <g id="text_15">
      <!-- 0.7 -->
      <g transform="translate(34.696875 56.830468) scale(0.1 -0.1)">
       <use xlink:href="#DejaVuSans-30"/>
       <use xlink:href="#DejaVuSans-2e" x="63.623047"/>
       <use xlink:href="#DejaVuSans-37" x="95.410156"/>
      </g>
     </g>
    </g>
    <g id="text_16">
     <!-- Vol -->
     <g transform="translate(28.617188 182.00925) rotate(-90) scale(0.1 -0.1)">
      <defs>
       <path id="DejaVuSans-56" d="M 1831 0 
L 50 4666 
L 709 4666 
L 2188 738 
L 3669 4666 
L 4325 4666 
L 2547 0 
L 1831 0 
z
" transform="scale(0.015625)"/>
       <path id="DejaVuSans-6c" d="M 603 4863 
L 1178 4863 
L 1178 0 
L 603 0 
L 603 4863 
z
" transform="scale(0.015625)"/>
      </defs>
      <use xlink:href="#DejaVuSans-56"/>
      <use xlink:href="#DejaVuSans-6f" x="60.658203"/>
      <use xlink:href="#DejaVuSans-6c" x="121.839844"/>
     </g>
    </g>
   </g>
   <g id="line2d_29">
    <path d="M 121.775698 99.040982 
L 127.973025 104.756828 
L 131.659066 107.930127 
L 136.220425 112.067319 
L 138.081312 113.920707 
L 140.234146 116.245114 
L 141.384811 117.576266 
L 146.439421 123.432366 
L 151.527567 127.978854 
L 157.090204 132.119046 
L 157.972194 132.799691 
L 158.855191 133.505838 
L 160.624217 135.009574 
L 161.214792 135.536519 
L 163.433469 137.612709 
L 165.064543 139.221684 
L 167.145425 141.327122 
L 167.44315 141.625265 
L 171.17435 144.994123 
L 173.721813 146.709169 
L 177.181666 149.0485 
L 177.483247 149.295156 
L 182.324417 153.994482 
L 183.539393 155.067594 
L 186.27998 156.957377 
L 186.432515 157.051637 
L 188.724097 158.53766 
L 189.795788 159.368627 
L 192.404543 161.878168 
L 195.021943 164.38314 
L 195.947804 165.084474 
L 198.731897 166.43564 
L 202.148004 167.970693 
L 202.770696 168.405002 
L 204.953966 170.331041 
L 207.613153 173.001116 
L 208.396958 173.743132 
L 209.181534 174.431311 
L 214.063178 177.772095 
L 214.53718 178.044165 
L 215.644276 178.679893 
L 220.406361 183.291788 
L 220.72484 183.816604 
L 223.596835 190.133268 
L 226.639537 199.139545 
L 228.40636 204.992335 
L 234.863913 225.972537 
L 236.161623 229.421335 
L 238.112086 233.679413 
L 239.252022 235.542183 
L 241.209922 237.549107 
L 245.632478 237.819238 
L 247.770435 236.647613 
L 251.566721 234.070777 
L 257.377622 231.813307 
L 258.377917 231.629524 
L 264.069316 231.184558 
L 267.435625 231.118281 
L 270.13857 231.184558 
L 270.307797 231.194062 
L 282.583651 232.655964 
L 286.198432 232.865609 
L 289.655662 232.878987 
L 290.002171 232.872049 
L 294.868373 232.655964 
L 307.335186 232.655964 
L 311.769013 233.634556 
L 313.549047 234.070777 
L 321.965414 235.398875 
L 323.58657 235.496756 
L 325.752901 235.542183 
L 329.73879 235.473698 
L 332.102819 235.542183 
L 344.390628 238.37181 
L 347.721819 239.21074 
L 348.463825 239.383855 
L 350.507617 239.843216 
L 353.302376 240.44815 
L 360.987451 242.217688 
L 362.872166 242.729435 
" clip-path="url(#pa04758458f)" style="fill: none; stroke: #1f77b4; stroke-width: 1.5; stroke-linecap: square"/>
   </g>
   <g id="line2d_30">
    <path d="M 73.832727 223.997305 
L 92.61267 213.980426 
L 93.692682 213.429609 
L 104.991532 208.207987 
L 111.328113 202.492141 
L 112.712759 201.60186 
L 117.579232 199.605922 
L 121.775698 197.921677 
L 127.973025 195.000893 
L 131.659066 193.165187 
L 136.220425 190.947263 
L 138.081312 190.09277 
L 140.234146 189.152793 
L 141.384811 188.673528 
L 146.439421 186.782863 
L 151.527567 185.285475 
L 157.090204 184.198409 
L 157.972194 184.084734 
L 158.855191 183.988052 
L 160.624217 183.847397 
L 161.214792 183.816604 
L 163.433469 183.766714 
L 165.064543 183.776316 
L 167.145425 183.811557 
L 167.44315 183.816604 
L 171.17435 183.845088 
L 173.721813 183.816604 
L 177.181666 183.747027 
L 177.483247 183.745998 
L 182.324417 184.087214 
L 183.539393 184.332573 
L 186.27998 185.231417 
L 186.432515 185.297575 
L 188.724097 186.43606 
L 189.795788 186.994288 
L 192.404543 188.117636 
L 195.021943 188.670064 
L 195.947804 188.813994 
L 198.731897 189.53245 
L 202.148004 191.592377 
L 202.770696 192.070143 
L 204.953966 193.833483 
L 207.613153 195.961672 
L 208.396958 196.582195 
L 209.181534 197.203788 
L 214.063178 201.203335 
L 214.53718 201.614426 
L 215.644276 202.597978 
L 220.406361 207.323031 
L 220.72484 207.674479 
L 223.596835 211.094207 
L 226.639537 215.23339 
L 228.40636 217.826318 
L 234.863913 227.787944 
L 236.161623 229.769744 
L 238.112086 232.670024 
L 239.252022 234.314651 
L 241.209922 237.041995 
L 245.632478 242.676174 
L 247.770435 245.096914 
L 251.566721 248.828148 
L 257.377622 252.907428 
L 258.377917 253.385492 
L 264.069316 254.688068 
L 267.435625 254.21772 
L 270.13857 253.133141 
L 270.307797 253.046182 
L 282.583651 243.149667 
L 286.198432 239.843216 
L 289.655662 236.955887 
L 290.002171 236.682809 
L 294.868373 233.130588 
L 307.335186 225.897555 
L 311.769013 223.74163 
L 313.549047 222.908302 
L 321.965414 219.040139 
L 323.58657 218.281459 
L 325.752901 217.252828 
L 329.73879 215.39524 
L 332.102819 214.366967 
L 344.390628 209.691785 
L 347.721819 208.48147 
L 348.463825 208.207987 
L 350.507617 207.446341 
L 353.302376 206.408465 
L 360.987451 203.906954 
L 362.872166 203.438903 
L 367.222468 202.492141 
L 372.166317 201.390019 
L 375.988278 200.501716 
L 379.82688 199.605922 
L 384.842119 198.454656 
L 386.391002 198.098672 
L 392.223506 196.719702 
L 398.487273 195.304889 
" clip-path="url(#pa04758458f)" style="fill: none; stroke: #ff7f0e; stroke-width: 1.5; stroke-linecap: square"/>
   </g>
   <g id="line2d_31">
    <path d="M 73.832727 205.796939 
L 92.61267 195.948825 
L 93.692682 195.304889 
L 104.991532 188.265866 
L 111.328113 184.557165 
L 112.712759 183.816604 
L 117.579232 181.46812 
L 121.775698 179.74244 
L 127.973025 177.647265 
L 131.659066 176.629351 
L 136.220425 175.558934 
L 138.081312 175.157945 
L 140.234146 174.706188 
L 141.384811 174.47114 
L 146.439421 173.520819 
L 151.527567 172.764549 
L 157.090204 172.271726 
L 157.972194 172.232932 
L 158.855191 172.206048 
L 160.624217 172.189562 
L 161.214792 172.195538 
L 163.433469 172.271726 
L 165.064543 172.38297 
L 167.145425 172.58641 
L 167.44315 172.620585 
L 171.17435 173.137891 
L 173.721813 173.564562 
L 177.181666 174.198679 
L 177.483247 174.25549 
L 182.324417 175.157945 
L 183.539393 175.375422 
L 186.27998 175.929934 
L 186.432515 175.966309 
L 188.724097 176.629351 
L 189.795788 177.030455 
L 192.404543 178.192605 
L 195.021943 179.458978 
L 195.947804 179.894985 
L 198.731897 181.184694 
L 202.148004 182.904046 
L 202.770696 183.254247 
L 204.953966 184.617379 
L 207.613153 186.64623 
L 208.396958 187.336748 
L 209.181534 188.060157 
L 214.063178 192.418669 
L 214.53718 192.754393 
L 215.644276 193.466851 
L 220.406361 196.719702 
L 220.72484 197.0229 
L 223.596835 200.292631 
L 226.639537 203.906954 
L 228.40636 205.620455 
L 234.863913 210.821806 
L 236.161623 212.084725 
L 238.112086 214.388616 
L 239.252022 216.028266 
L 241.209922 219.482975 
L 245.632478 231.184558 
L 247.770435 239.157267 
L 251.566721 255.609309 
L 257.377622 279.700217 
L 258.377917 282.96673 
L 264.069316 294.104573 
L 267.435625 295.488 
L 270.13857 294.313158 
L 270.307797 294.179967 
L 282.583651 271.94361 
L 286.198432 263.127433 
L 289.655662 254.991186 
L 290.002171 254.21772 
L 294.868373 244.409787 
L 307.335186 227.173029 
L 311.769013 223.307101 
L 313.549047 222.029514 
L 321.965414 217.754974 
L 323.58657 217.210876 
L 325.752901 216.595647 
L 329.73879 215.742786 
L 332.102819 215.370832 
L 344.390628 214.072386 
L 347.721819 213.633175 
L 348.463825 213.515972 
L 350.507617 213.146577 
L 353.302376 212.50902 
L 360.987451 209.940293 
L 362.872166 209.18552 
L 367.222468 207.366859 
L 372.166317 205.321768 
L 375.988278 203.869335 
L 379.82688 202.546398 
L 384.842119 201.020735 
L 386.391002 200.595253 
L 392.223506 199.154249 
L 398.487273 197.801734 
" clip-path="url(#pa04758458f)" style="fill: none; stroke: #2ca02c; stroke-width: 1.5; stroke-linecap: square"/>
   </g>
   <g id="line2d_32">
    <path d="M 73.832727 148.920306 
L 92.61267 143.877644 
L 93.692682 143.643924 
L 104.991532 141.599358 
L 111.328113 140.788875 
L 112.712759 140.645497 
L 117.579232 140.240497 
L 121.775698 140.017983 
L 127.973025 139.911577 
L 131.659066 139.977912 
L 136.220425 140.198038 
L 138.081312 140.332627 
L 140.234146 140.52128 
L 141.384811 140.63676 
L 146.439421 141.266909 
L 151.527567 142.107903 
L 157.090204 143.335456 
L 157.972194 143.579309 
L 158.855191 143.840883 
L 160.624217 144.415932 
L 161.214792 144.622348 
L 163.433469 145.457916 
L 165.064543 146.12836 
L 167.145425 147.045595 
L 167.44315 147.182058 
L 171.17435 148.988841 
L 173.721813 150.308638 
L 177.181666 152.181375 
L 177.483247 152.347876 
L 182.324417 155.09267 
L 183.539393 155.807269 
L 186.27998 157.466188 
L 186.432515 157.560607 
L 188.724097 159.008347 
L 189.795788 159.705438 
L 192.404543 161.461167 
L 195.021943 163.314754 
L 195.947804 163.994427 
L 198.731897 166.120014 
L 202.148004 168.910235 
L 202.770696 169.442099 
L 204.953966 171.358439 
L 207.613153 173.749782 
L 208.396958 174.455307 
L 209.181534 175.157945 
L 214.063178 179.48924 
L 214.53718 179.917234 
L 215.644276 180.930384 
L 220.406361 185.530393 
L 220.72484 185.850043 
L 223.596835 188.783663 
L 226.639537 191.965835 
L 228.40636 193.833483 
L 234.863913 201.020735 
L 236.161623 202.637354 
L 238.112086 205.215744 
L 239.252022 206.805562 
L 241.209922 209.679393 
L 245.632478 216.552392 
L 247.770435 219.696272 
L 251.566721 224.411887 
L 257.377622 229.481546 
L 258.377917 230.108831 
L 264.069316 232.416717 
L 267.435625 232.843303 
L 270.13857 232.725736 
L 270.307797 232.705448 
L 282.583651 227.708125 
L 286.198432 225.125334 
L 289.655662 222.292014 
L 290.002171 221.990736 
L 294.868373 217.477828 
L 307.335186 204.40227 
L 311.769013 199.605922 
L 313.549047 197.705804 
L 321.965414 189.037417 
L 323.58657 187.438373 
L 325.752901 185.34283 
L 329.73879 181.621129 
L 332.102819 179.502952 
L 344.390628 169.750543 
L 347.721819 167.522561 
L 348.463825 167.053219 
L 350.507617 165.81314 
L 353.302376 164.246767 
L 360.987451 160.766517 
L 362.872166 160.110714 
L 367.222468 158.91548 
L 372.166317 158.125502 
L 375.988278 157.953814 
L 379.82688 158.17439 
L 384.842119 158.976783 
L 386.391002 159.323745 
L 392.223506 160.956371 
L 398.487273 163.101998 
" clip-path="url(#pa04758458f)" style="fill: none; stroke: #d62728; stroke-width: 1.5; stroke-linecap: square"/>
   </g>
   <g id="line2d_33">
    <path d="M 73.832727 127.914285 
L 92.61267 124.161078 
L 93.692682 124.171009 
L 104.991532 125.473338 
L 111.328113 127.029818 
L 112.712759 127.436194 
L 117.579232 129.028922 
L 121.775698 130.583036 
L 127.973025 133.122381 
L 131.659066 134.738637 
L 136.220425 136.813925 
L 138.081312 137.676883 
L 140.234146 138.682362 
L 141.384811 139.221684 
L 146.439421 141.590057 
L 151.527567 143.936299 
L 157.090204 146.39943 
L 157.972194 146.776078 
L 158.855191 147.14863 
L 160.624217 147.880342 
L 161.214792 148.120266 
L 163.433469 149.028792 
L 165.064543 149.741301 
L 167.145425 150.766562 
L 167.44315 150.927659 
L 171.17435 153.236173 
L 173.721813 155.034045 
L 177.181666 157.597799 
L 177.483247 157.822052 
L 182.324417 161.263188 
L 183.539393 162.041488 
L 186.27998 163.593093 
L 186.432515 163.66966 
L 188.724097 164.689844 
L 189.795788 165.091745 
L 192.404543 165.908547 
L 195.021943 166.556223 
L 195.947804 166.757773 
L 198.731897 167.32131 
L 202.148004 168.027681 
L 202.770696 168.169819 
L 204.953966 168.726568 
L 207.613153 169.575019 
L 208.396958 169.871075 
L 209.181534 170.191903 
L 214.063178 172.859147 
L 214.53718 173.190266 
L 215.644276 174.021033 
L 220.406361 178.63086 
L 220.72484 179.005927 
L 223.596835 182.815654 
L 226.639537 187.76722 
L 228.40636 191.118868 
L 234.863913 206.7511 
L 236.161623 210.598335 
L 238.112086 216.866646 
L 239.252022 220.800276 
L 241.209922 227.878338 
L 245.632478 244.004211 
L 247.770435 251.1028 
L 251.566721 261.093185 
L 257.377622 265.706006 
L 258.377917 264.747314 
L 264.069316 250.348575 
L 267.435625 236.873489 
L 270.13857 224.771237 
L 270.307797 223.997305 
L 282.583651 167.789565 
L 286.198432 152.062613 
L 289.655662 137.80687 
L 290.002171 136.429372 
L 294.868373 118.165205 
L 307.335186 81.12231 
L 311.769013 71.559786 
L 313.549047 68.283173 
L 321.965414 57.332282 
L 323.58657 56.106985 
L 325.752901 54.886212 
L 329.73879 53.716287 
L 332.102819 53.568 
L 344.390628 56.369211 
L 347.721819 57.332282 
L 348.463825 57.515269 
L 350.507617 57.949272 
L 353.302376 58.388634 
L 360.987451 58.841851 
L 362.872166 58.819951 
L 367.222468 58.630293 
L 372.166317 58.262071 
L 375.988278 57.937052 
L 379.82688 57.63506 
L 384.842119 57.368314 
L 386.391002 57.332282 
L 392.223506 57.413782 
L 398.487273 57.718504 
" clip-path="url(#pa04758458f)" style="fill: none; stroke: #9467bd; stroke-width: 1.5; stroke-linecap: square"/>
   </g>
   <g id="patch_3">
    <path d="M 57.6 307.584 
L 57.6 41.472 
" style="fill: none; stroke: #000000; stroke-width: 0.8; stroke-linejoin: miter; stroke-linecap: square"/>
   </g>
   <g id="patch_4">
    <path d="M 414.72 307.584 
L 414.72 41.472 
" style="fill: none; stroke: #000000; stroke-width: 0.8; stroke-linejoin: miter; stroke-linecap: square"/>
   </g>
   <g id="patch_5">
    <path d="M 57.6 307.584 
L 414.72 307.584 
" style="fill: none; stroke: #000000; stroke-width: 0.8; stroke-linejoin: miter; stroke-linecap: square"/>
   </g>
   <g id="patch_6">
    <path d="M 57.6 41.472 
L 414.72 41.472 
" style="fill: none; stroke: #000000; stroke-width: 0.8; stroke-linejoin: miter; stroke-linecap: square"/>
   </g>
   <g id="text_17">
    <!-- Implied vol -->
    <g transform="translate(203.105625 35.472) scale(0.12 -0.12)">
     <defs>
      <path id="DejaVuSans-49" d="M 628 4666 
L 1259 4666 
L 1259 0 
L 628 0 
L 628 4666 
z
" transform="scale(0.015625)"/>
      <path id="DejaVuSans-6d" d="M 3328 2828 
Q 3544 3216 3844 3400 
Q 4144 3584 4550 3584 
Q 5097 3584 5394 3201 
Q 5691 2819 5691 2113 
L 5691 0 
L 5113 0 
L 5113 2094 
Q 5113 2597 4934 2840 
Q 4756 3084 4391 3084 
Q 3944 3084 3684 2787 
Q 3425 2491 3425 1978 
L 3425 0 
L 2847 0 
L 2847 2094 
Q 2847 2600 2669 2842 
Q 2491 3084 2119 3084 
Q 1678 3084 1418 2786 
Q 1159 2488 1159 1978 
L 1159 0 
L 581 0 
L 581 3500 
L 1159 3500 
L 1159 2956 
Q 1356 3278 1631 3431 
Q 1906 3584 2284 3584 
Q 2666 3584 2933 3390 
Q 3200 3197 3328 2828 
z
" transform="scale(0.015625)"/>
      <path id="DejaVuSans-64" d="M 2906 2969 
L 2906 4863 
L 3481 4863 
L 3481 0 
L 2906 0 
L 2906 525 
Q 2725 213 2448 61 
Q 2172 -91 1784 -91 
Q 1150 -91 751 415 
Q 353 922 353 1747 
Q 353 2572 751 3078 
Q 1150 3584 1784 3584 
Q 2172 3584 2448 3432 
Q 2725 3281 2906 2969 
z
M 947 1747 
Q 947 1113 1208 752 
Q 1469 391 1925 391 
Q 2381 391 2643 752 
Q 2906 1113 2906 1747 
Q 2906 2381 2643 2742 
Q 2381 3103 1925 3103 
Q 1469 3103 1208 2742 
Q 947 2381 947 1747 
z
" transform="scale(0.015625)"/>
      <path id="DejaVuSans-20" transform="scale(0.015625)"/>
      <path id="DejaVuSans-76" d="M 191 3500 
L 800 3500 
L 1894 563 
L 2988 3500 
L 3597 3500 
L 2284 0 
L 1503 0 
L 191 3500 
z
" transform="scale(0.015625)"/>
     </defs>
     <use xlink:href="#DejaVuSans-49"/>
     <use xlink:href="#DejaVuSans-6d" x="29.492188"/>
     <use xlink:href="#DejaVuSans-70" x="126.904297"/>
     <use xlink:href="#DejaVuSans-6c" x="190.380859"/>
     <use xlink:href="#DejaVuSans-69" x="218.164062"/>
     <use xlink:href="#DejaVuSans-65" x="245.947266"/>
     <use xlink:href="#DejaVuSans-64" x="307.470703"/>
     <use xlink:href="#DejaVuSans-20" x="370.947266"/>
     <use xlink:href="#DejaVuSans-76" x="402.734375"/>
     <use xlink:href="#DejaVuSans-6f" x="461.914062"/>
     <use xlink:href="#DejaVuSans-6c" x="523.095703"/>
    </g>
   </g>
   <g id="legend_1">
    <g id="patch_7">
     <path d="M 64.6 302.584 
L 127.078125 302.584 
Q 129.078125 302.584 129.078125 300.584 
L 129.078125 228.193375 
Q 129.078125 226.193375 127.078125 226.193375 
L 64.6 226.193375 
Q 62.6 226.193375 62.6 228.193375 
L 62.6 300.584 
Q 62.6 302.584 64.6 302.584 
z
" style="fill: #ffffff; opacity: 0.8; stroke: #cccccc; stroke-linejoin: miter"/>
    </g>
    <g id="line2d_34">
     <path d="M 66.6 234.291812 
L 76.6 234.291812 
L 86.6 234.291812 
" style="fill: none; stroke: #1f77b4; stroke-width: 1.5; stroke-linecap: square"/>
    </g>
    <g id="text_18">
     <!-- March -->
     <g transform="translate(94.6 237.791812) scale(0.1 -0.1)">
      <defs>
       <path id="DejaVuSans-4d" d="M 628 4666 
L 1569 4666 
L 2759 1491 
L 3956 4666 
L 4897 4666 
L 4897 0 
L 4281 0 
L 4281 4097 
L 3078 897 
L 2444 897 
L 1241 4097 
L 1241 0 
L 628 0 
L 628 4666 
z
" transform="scale(0.015625)"/>
       <path id="DejaVuSans-61" d="M 2194 1759 
Q 1497 1759 1228 1600 
Q 959 1441 959 1056 
Q 959 750 1161 570 
Q 1363 391 1709 391 
Q 2188 391 2477 730 
Q 2766 1069 2766 1631 
L 2766 1759 
L 2194 1759 
z
M 3341 1997 
L 3341 0 
L 2766 0 
L 2766 531 
Q 2569 213 2275 61 
Q 1981 -91 1556 -91 
Q 1019 -91 701 211 
Q 384 513 384 1019 
Q 384 1609 779 1909 
Q 1175 2209 1959 2209 
L 2766 2209 
L 2766 2266 
Q 2766 2663 2505 2880 
Q 2244 3097 1772 3097 
Q 1472 3097 1187 3025 
Q 903 2953 641 2809 
L 641 3341 
Q 956 3463 1253 3523 
Q 1550 3584 1831 3584 
Q 2591 3584 2966 3190 
Q 3341 2797 3341 1997 
z
" transform="scale(0.015625)"/>
       <path id="DejaVuSans-63" d="M 3122 3366 
L 3122 2828 
Q 2878 2963 2633 3030 
Q 2388 3097 2138 3097 
Q 1578 3097 1268 2742 
Q 959 2388 959 1747 
Q 959 1106 1268 751 
Q 1578 397 2138 397 
Q 2388 397 2633 464 
Q 2878 531 3122 666 
L 3122 134 
Q 2881 22 2623 -34 
Q 2366 -91 2075 -91 
Q 1284 -91 818 406 
Q 353 903 353 1747 
Q 353 2603 823 3093 
Q 1294 3584 2113 3584 
Q 2378 3584 2631 3529 
Q 2884 3475 3122 3366 
z
" transform="scale(0.015625)"/>
       <path id="DejaVuSans-68" d="M 3513 2113 
L 3513 0 
L 2938 0 
L 2938 2094 
Q 2938 2591 2744 2837 
Q 2550 3084 2163 3084 
Q 1697 3084 1428 2787 
Q 1159 2491 1159 1978 
L 1159 0 
L 581 0 
L 581 4863 
L 1159 4863 
L 1159 2956 
Q 1366 3272 1645 3428 
Q 1925 3584 2291 3584 
Q 2894 3584 3203 3211 
Q 3513 2838 3513 2113 
z
" transform="scale(0.015625)"/>
      </defs>
      <use xlink:href="#DejaVuSans-4d"/>
      <use xlink:href="#DejaVuSans-61" x="86.279297"/>
      <use xlink:href="#DejaVuSans-72" x="147.558594"/>
      <use xlink:href="#DejaVuSans-63" x="186.421875"/>
      <use xlink:href="#DejaVuSans-68" x="241.402344"/>
     </g>
    </g>
    <g id="line2d_35">
     <path d="M 66.6 248.969937 
L 76.6 248.969937 
L 86.6 248.969937 
" style="fill: none; stroke: #ff7f0e; stroke-width: 1.5; stroke-linecap: square"/>
    </g>
    <g id="text_19">
     <!-- April -->
     <g transform="translate(94.6 252.469937) scale(0.1 -0.1)">
      <defs>
       <path id="DejaVuSans-41" d="M 2188 4044 
L 1331 1722 
L 3047 1722 
L 2188 4044 
z
M 1831 4666 
L 2547 4666 
L 4325 0 
L 3669 0 
L 3244 1197 
L 1141 1197 
L 716 0 
L 50 0 
L 1831 4666 
z
" transform="scale(0.015625)"/>
      </defs>
      <use xlink:href="#DejaVuSans-41"/>
      <use xlink:href="#DejaVuSans-70" x="68.408203"/>
      <use xlink:href="#DejaVuSans-72" x="131.884766"/>
      <use xlink:href="#DejaVuSans-69" x="172.998047"/>
      <use xlink:href="#DejaVuSans-6c" x="200.78125"/>
     </g>
    </g>
    <g id="line2d_36">
     <path d="M 66.6 263.648062 
L 76.6 263.648062 
L 86.6 263.648062 
" style="fill: none; stroke: #2ca02c; stroke-width: 1.5; stroke-linecap: square"/>
    </g>
    <g id="text_20">
     <!-- May -->
     <g transform="translate(94.6 267.148062) scale(0.1 -0.1)">
      <defs>
       <path id="DejaVuSans-79" d="M 2059 -325 
Q 1816 -950 1584 -1140 
Q 1353 -1331 966 -1331 
L 506 -1331 
L 506 -850 
L 844 -850 
Q 1081 -850 1212 -737 
Q 1344 -625 1503 -206 
L 1606 56 
L 191 3500 
L 800 3500 
L 1894 763 
L 2988 3500 
L 3597 3500 
L 2059 -325 
z
" transform="scale(0.015625)"/>
      </defs>
      <use xlink:href="#DejaVuSans-4d"/>
      <use xlink:href="#DejaVuSans-61" x="86.279297"/>
      <use xlink:href="#DejaVuSans-79" x="147.558594"/>
     </g>
    </g>
    <g id="line2d_37">
     <path d="M 66.6 278.326188 
L 76.6 278.326188 
L 86.6 278.326188 
" style="fill: none; stroke: #d62728; stroke-width: 1.5; stroke-linecap: square"/>
    </g>
    <g id="text_21">
     <!-- June -->
     <g transform="translate(94.6 281.826188) scale(0.1 -0.1)">
      <defs>
       <path id="DejaVuSans-4a" d="M 628 4666 
L 1259 4666 
L 1259 325 
Q 1259 -519 939 -900 
Q 619 -1281 -91 -1281 
L -331 -1281 
L -331 -750 
L -134 -750 
Q 284 -750 456 -515 
Q 628 -281 628 325 
L 628 4666 
z
" transform="scale(0.015625)"/>
       <path id="DejaVuSans-75" d="M 544 1381 
L 544 3500 
L 1119 3500 
L 1119 1403 
Q 1119 906 1312 657 
Q 1506 409 1894 409 
Q 2359 409 2629 706 
Q 2900 1003 2900 1516 
L 2900 3500 
L 3475 3500 
L 3475 0 
L 2900 0 
L 2900 538 
Q 2691 219 2414 64 
Q 2138 -91 1772 -91 
Q 1169 -91 856 284 
Q 544 659 544 1381 
z
M 1991 3584 
L 1991 3584 
z
" transform="scale(0.015625)"/>
       <path id="DejaVuSans-6e" d="M 3513 2113 
L 3513 0 
L 2938 0 
L 2938 2094 
Q 2938 2591 2744 2837 
Q 2550 3084 2163 3084 
Q 1697 3084 1428 2787 
Q 1159 2491 1159 1978 
L 1159 0 
L 581 0 
L 581 3500 
L 1159 3500 
L 1159 2956 
Q 1366 3272 1645 3428 
Q 1925 3584 2291 3584 
Q 2894 3584 3203 3211 
Q 3513 2838 3513 2113 
z
" transform="scale(0.015625)"/>
      </defs>
      <use xlink:href="#DejaVuSans-4a"/>
      <use xlink:href="#DejaVuSans-75" x="29.492188"/>
      <use xlink:href="#DejaVuSans-6e" x="92.871094"/>
      <use xlink:href="#DejaVuSans-65" x="156.25"/>
     </g>
    </g>
    <g id="line2d_38">
     <path d="M 66.6 293.004312 
L 76.6 293.004312 
L 86.6 293.004312 
" style="fill: none; stroke: #9467bd; stroke-width: 1.5; stroke-linecap: square"/>
    </g>
    <g id="text_22">
     <!-- July -->
     <g transform="translate(94.6 296.504312) scale(0.1 -0.1)">
      <use xlink:href="#DejaVuSans-4a"/>
      <use xlink:href="#DejaVuSans-75" x="29.492188"/>
      <use xlink:href="#DejaVuSans-6c" x="92.871094"/>
      <use xlink:href="#DejaVuSans-79" x="120.654297"/>
     </g>
    </g>
   </g>
  </g>
 </g>
 <defs>
  <clipPath id="pa04758458f">
   <rect x="57.6" y="41.472" width="357.12" height="266.112"/>
  </clipPath>
 </defs>
</svg>
