<?xml version="1.0" encoding="utf-8" standalone="no"?>
<!DOCTYPE svg PUBLIC "-//W3C//DTD SVG 1.1//EN"
  "http://www.w3.org/Graphics/SVG/1.1/DTD/svg11.dtd">
<svg xmlns:xlink="http://www.w3.org/1999/xlink" width="460.8pt" height="345.6pt" viewBox="0 0 460.8 345.6" xmlns="http://www.w3.org/2000/svg" version="1.1">
 <metadata>
  <rdf:RDF xmlns:dc="http://purl.org/dc/elements/1.1/" xmlns:cc="http://creativecommons.org/ns#" xmlns:rdf="http://www.w3.org/1999/02/22-rdf-syntax-ns#">
   <cc:Work>
    <dc:type rdf:resource="http://purl.org/dc/dcmitype/StillImage"/>
    <dc:date>2024-03-26T22:36:32.258430</dc:date>
    <dc:format>image/svg+xml</dc:format>
    <dc:creator>
     <cc:Agent>
      <dc:title>Matplotlib v3.7.3, https://matplotlib.org/</dc:title>
     </cc:Agent>
    </dc:creator>
   </cc:Work>
  </rdf:RDF>
 </metadata>
 <defs>
  <style type="text/css">*{stroke-linejoin: round; stroke-linecap: butt}</style>
 </defs>
 <g id="figure_1">
  <g id="patch_1">
   <path d="M 0 345.6 
L 460.8 345.6 
L 460.8 0 
L 0 0 
z
" style="fill: #ffffff"/>
  </g>
  <g id="patch_2">
   <path d="M 103.104 307.584 
L 369.216 307.584 
L 369.216 41.472 
L 103.104 41.472 
z
" style="fill: #ffffff"/>
  </g>
  <g id="pane3d_1">
   <g id="patch_3">
    <path d="M 123.197291 241.969309 
L 211.076164 168.307495 
L 209.854564 62.073991 
L 117.770234 129.272941 
" style="fill: #f2f2f2; opacity: 0.5; stroke: #f2f2f2; stroke-linejoin: miter"/>
   </g>
  </g>
  <g id="pane3d_2">
   <g id="patch_4">
    <path d="M 352.090401 209.294766 
L 211.076164 168.307495 
L 209.854564 62.073991 
L 357.122702 99.402171 
" style="fill: #e6e6e6; opacity: 0.5; stroke: #e6e6e6; stroke-linejoin: miter"/>
   </g>
  </g>
  <g id="pane3d_3">
   <g id="patch_5">
    <path d="M 272.679269 290.790123 
L 123.197291 241.969309 
L 211.076164 168.307495 
L 352.090401 209.294766 
" style="fill: #ececec; opacity: 0.5; stroke: #ececec; stroke-linejoin: miter"/>
   </g>
  </g>
  <g id="axis3d_1">
   <g id="line2d_1">
    <path d="M 123.197291 241.969309 
L 272.679269 290.790123 
" style="fill: none; stroke: #000000; stroke-width: 0.8; stroke-linecap: square"/>
   </g>
   <g id="text_1">
    <!-- TTM -->
    <g transform="translate(169.342053 303.76759) scale(0.1 -0.1)">
     <defs>
      <path id="DejaVuSans-54" d="M -19 4666 
L 3928 4666 
L 3928 4134 
L 2272 4134 
L 2272 0 
L 1638 0 
L 1638 4134 
L -19 4134 
L -19 4666 
z
" transform="scale(0.015625)"/>
      <path id="DejaVuSans-4d" d="M 628 4666 
L 1569 4666 
L 2759 1491 
L 3956 4666 
L 4897 4666 
L 4897 0 
L 4281 0 
L 4281 4097 
L 3078 897 
L 2444 897 
L 1241 4097 
L 1241 0 
L 628 0 
L 628 4666 
z
" transform="scale(0.015625)"/>
     </defs>
     <use xlink:href="#DejaVuSans-54"/>
     <use xlink:href="#DejaVuSans-54" x="59.333984"/>
     <use xlink:href="#DejaVuSans-4d" x="120.417969"/>
    </g>
   </g>
   <g id="Line3DCollection_1">
    <path d="M 264.881618 288.24341 
L 344.765187 207.165616 
L 349.457294 97.459213 
" style="fill: none; stroke: #b0b0b0; stroke-width: 0.8"/>
    <path d="M 245.043621 281.76432 
L 326.113927 201.744431 
L 329.947435 92.514033 
" style="fill: none; stroke: #b0b0b0; stroke-width: 0.8"/>
    <path d="M 225.475006 275.373211 
L 307.694538 196.390642 
L 310.690818 87.633042 
" style="fill: none; stroke: #b0b0b0; stroke-width: 0.8"/>
    <path d="M 206.170323 269.068301 
L 289.502723 191.102999 
L 291.682544 82.814999 
" style="fill: none; stroke: #b0b0b0; stroke-width: 0.8"/>
    <path d="M 187.124267 262.847859 
L 271.534289 185.880285 
L 272.917839 78.058693 
" style="fill: none; stroke: #b0b0b0; stroke-width: 0.8"/>
    <path d="M 168.331676 256.710199 
L 253.785148 180.72131 
L 254.392052 73.362946 
" style="fill: none; stroke: #b0b0b0; stroke-width: 0.8"/>
    <path d="M 149.787523 250.653679 
L 236.251309 175.624916 
L 236.100649 68.726608 
" style="fill: none; stroke: #b0b0b0; stroke-width: 0.8"/>
    <path d="M 131.486915 244.6767 
L 218.928879 170.589969 
L 218.039209 64.14856 
" style="fill: none; stroke: #b0b0b0; stroke-width: 0.8"/>
   </g>
   <g id="xtick_1">
    <g id="line2d_2">
     <path d="M 265.579946 287.534642 
L 263.481822 289.664133 
" style="fill: none; stroke: #000000; stroke-width: 0.8; stroke-linecap: square"/>
    </g>
    <g id="text_2">
     <!-- 0.00 -->
     <g transform="translate(246.374498 312.476669) scale(0.1 -0.1)">
      <defs>
       <path id="DejaVuSans-30" d="M 2034 4250 
Q 1547 4250 1301 3770 
Q 1056 3291 1056 2328 
Q 1056 1369 1301 889 
Q 1547 409 2034 409 
Q 2525 409 2770 889 
Q 3016 1369 3016 2328 
Q 3016 3291 2770 3770 
Q 2525 4250 2034 4250 
z
M 2034 4750 
Q 2819 4750 3233 4129 
Q 3647 3509 3647 2328 
Q 3647 1150 3233 529 
Q 2819 -91 2034 -91 
Q 1250 -91 836 529 
Q 422 1150 422 2328 
Q 422 3509 836 4129 
Q 1250 4750 2034 4750 
z
" transform="scale(0.015625)"/>
       <path id="DejaVuSans-2e" d="M 684 794 
L 1344 794 
L 1344 0 
L 684 0 
L 684 794 
z
" transform="scale(0.015625)"/>
      </defs>
      <use xlink:href="#DejaVuSans-30"/>
      <use xlink:href="#DejaVuSans-2e" x="63.623047"/>
      <use xlink:href="#DejaVuSans-30" x="95.410156"/>
      <use xlink:href="#DejaVuSans-30" x="159.033203"/>
     </g>
    </g>
   </g>
   <g id="xtick_2">
    <g id="line2d_3">
     <path d="M 245.751913 281.065206 
L 243.623875 283.165671 
" style="fill: none; stroke: #000000; stroke-width: 0.8; stroke-linecap: square"/>
    </g>
    <g id="text_3">
     <!-- 0.05 -->
     <g transform="translate(226.510349 305.858356) scale(0.1 -0.1)">
      <defs>
       <path id="DejaVuSans-35" d="M 691 4666 
L 3169 4666 
L 3169 4134 
L 1269 4134 
L 1269 2991 
Q 1406 3038 1543 3061 
Q 1681 3084 1819 3084 
Q 2600 3084 3056 2656 
Q 3513 2228 3513 1497 
Q 3513 744 3044 326 
Q 2575 -91 1722 -91 
Q 1428 -91 1123 -41 
Q 819 9 494 109 
L 494 744 
Q 775 591 1075 516 
Q 1375 441 1709 441 
Q 2250 441 2565 725 
Q 2881 1009 2881 1497 
Q 2881 1984 2565 2268 
Q 2250 2553 1709 2553 
Q 1456 2553 1204 2497 
Q 953 2441 691 2322 
L 691 4666 
z
" transform="scale(0.015625)"/>
      </defs>
      <use xlink:href="#DejaVuSans-30"/>
      <use xlink:href="#DejaVuSans-2e" x="63.623047"/>
      <use xlink:href="#DejaVuSans-30" x="95.410156"/>
      <use xlink:href="#DejaVuSans-35" x="159.033203"/>
     </g>
    </g>
   </g>
   <g id="xtick_3">
    <g id="line2d_4">
     <path d="M 226.192927 274.683554 
L 224.03598 276.755583 
" style="fill: none; stroke: #000000; stroke-width: 0.8; stroke-linecap: square"/>
    </g>
    <g id="text_4">
     <!-- 0.10 -->
     <g transform="translate(206.916973 299.330258) scale(0.1 -0.1)">
      <defs>
       <path id="DejaVuSans-31" d="M 794 531 
L 1825 531 
L 1825 4091 
L 703 3866 
L 703 4441 
L 1819 4666 
L 2450 4666 
L 2450 531 
L 3481 531 
L 3481 0 
L 794 0 
L 794 531 
z
" transform="scale(0.015625)"/>
      </defs>
      <use xlink:href="#DejaVuSans-30"/>
      <use xlink:href="#DejaVuSans-2e" x="63.623047"/>
      <use xlink:href="#DejaVuSans-31" x="95.410156"/>
      <use xlink:href="#DejaVuSans-30" x="159.033203"/>
     </g>
    </g>
   </g>
   <g id="xtick_4">
    <g id="line2d_5">
     <path d="M 206.89755 268.387911 
L 204.712664 270.432078 
" style="fill: none; stroke: #000000; stroke-width: 0.8; stroke-linecap: square"/>
    </g>
    <g id="text_5">
     <!-- 0.15 -->
     <g transform="translate(187.588871 292.890544) scale(0.1 -0.1)">
      <use xlink:href="#DejaVuSans-30"/>
      <use xlink:href="#DejaVuSans-2e" x="63.623047"/>
      <use xlink:href="#DejaVuSans-31" x="95.410156"/>
      <use xlink:href="#DejaVuSans-35" x="159.033203"/>
     </g>
    </g>
   </g>
   <g id="xtick_5">
    <g id="line2d_6">
     <path d="M 187.860487 262.176551 
L 185.648603 264.193413 
" style="fill: none; stroke: #000000; stroke-width: 0.8; stroke-linecap: square"/>
    </g>
    <g id="text_6">
     <!-- 0.20 -->
     <g transform="translate(168.520692 286.537431) scale(0.1 -0.1)">
      <defs>
       <path id="DejaVuSans-32" d="M 1228 531 
L 3431 531 
L 3431 0 
L 469 0 
L 469 531 
Q 828 903 1448 1529 
Q 2069 2156 2228 2338 
Q 2531 2678 2651 2914 
Q 2772 3150 2772 3378 
Q 2772 3750 2511 3984 
Q 2250 4219 1831 4219 
Q 1534 4219 1204 4116 
Q 875 4013 500 3803 
L 500 4441 
Q 881 4594 1212 4672 
Q 1544 4750 1819 4750 
Q 2544 4750 2975 4387 
Q 3406 4025 3406 3419 
Q 3406 3131 3298 2873 
Q 3191 2616 2906 2266 
Q 2828 2175 2409 1742 
Q 1991 1309 1228 531 
z
" transform="scale(0.015625)"/>
      </defs>
      <use xlink:href="#DejaVuSans-30"/>
      <use xlink:href="#DejaVuSans-2e" x="63.623047"/>
      <use xlink:href="#DejaVuSans-32" x="95.410156"/>
      <use xlink:href="#DejaVuSans-30" x="159.033203"/>
     </g>
    </g>
   </g>
   <g id="xtick_6">
    <g id="line2d_7">
     <path d="M 169.076587 256.047792 
L 166.838614 258.037893 
" style="fill: none; stroke: #000000; stroke-width: 0.8; stroke-linecap: square"/>
    </g>
    <g id="text_7">
     <!-- 0.25 -->
     <g transform="translate(149.707228 280.269183) scale(0.1 -0.1)">
      <use xlink:href="#DejaVuSans-30"/>
      <use xlink:href="#DejaVuSans-2e" x="63.623047"/>
      <use xlink:href="#DejaVuSans-32" x="95.410156"/>
      <use xlink:href="#DejaVuSans-35" x="159.033203"/>
     </g>
    </g>
   </g>
   <g id="xtick_7">
    <g id="line2d_8">
     <path d="M 150.540832 249.999996 
L 148.277652 251.963866 
" style="fill: none; stroke: #000000; stroke-width: 0.8; stroke-linecap: square"/>
    </g>
    <g id="text_8">
     <!-- 0.30 -->
     <g transform="translate(131.143409 274.084112) scale(0.1 -0.1)">
      <defs>
       <path id="DejaVuSans-33" d="M 2597 2516 
Q 3050 2419 3304 2112 
Q 3559 1806 3559 1356 
Q 3559 666 3084 287 
Q 2609 -91 1734 -91 
Q 1441 -91 1130 -33 
Q 819 25 488 141 
L 488 750 
Q 750 597 1062 519 
Q 1375 441 1716 441 
Q 2309 441 2620 675 
Q 2931 909 2931 1356 
Q 2931 1769 2642 2001 
Q 2353 2234 1838 2234 
L 1294 2234 
L 1294 2753 
L 1863 2753 
Q 2328 2753 2575 2939 
Q 2822 3125 2822 3475 
Q 2822 3834 2567 4026 
Q 2313 4219 1838 4219 
Q 1578 4219 1281 4162 
Q 984 4106 628 3988 
L 628 4550 
Q 988 4650 1302 4700 
Q 1616 4750 1894 4750 
Q 2613 4750 3031 4423 
Q 3450 4097 3450 3541 
Q 3450 3153 3228 2886 
Q 3006 2619 2597 2516 
z
" transform="scale(0.015625)"/>
      </defs>
      <use xlink:href="#DejaVuSans-30"/>
      <use xlink:href="#DejaVuSans-2e" x="63.623047"/>
      <use xlink:href="#DejaVuSans-33" x="95.410156"/>
      <use xlink:href="#DejaVuSans-30" x="159.033203"/>
     </g>
    </g>
   </g>
   <g id="xtick_8">
    <g id="line2d_9">
     <path d="M 132.248338 244.031572 
L 129.960804 245.969725 
" style="fill: none; stroke: #000000; stroke-width: 0.8; stroke-linecap: square"/>
    </g>
    <g id="text_9">
     <!-- 0.35 -->
     <g transform="translate(112.824299 267.980573) scale(0.1 -0.1)">
      <use xlink:href="#DejaVuSans-30"/>
      <use xlink:href="#DejaVuSans-2e" x="63.623047"/>
      <use xlink:href="#DejaVuSans-33" x="95.410156"/>
      <use xlink:href="#DejaVuSans-35" x="159.033203"/>
     </g>
    </g>
   </g>
  </g>
  <g id="axis3d_2">
   <g id="line2d_10">
    <path d="M 352.090401 209.294766 
L 272.679269 290.790123 
" style="fill: none; stroke: #000000; stroke-width: 0.8; stroke-linecap: square"/>
   </g>
   <g id="text_10">
    <!-- Strike/spot -->
    <g transform="translate(324.369105 297.386866) rotate(-45.742112) scale(0.1 -0.1)">
     <defs>
      <path id="DejaVuSans-53" d="M 3425 4513 
L 3425 3897 
Q 3066 4069 2747 4153 
Q 2428 4238 2131 4238 
Q 1616 4238 1336 4038 
Q 1056 3838 1056 3469 
Q 1056 3159 1242 3001 
Q 1428 2844 1947 2747 
L 2328 2669 
Q 3034 2534 3370 2195 
Q 3706 1856 3706 1288 
Q 3706 609 3251 259 
Q 2797 -91 1919 -91 
Q 1588 -91 1214 -16 
Q 841 59 441 206 
L 441 856 
Q 825 641 1194 531 
Q 1563 422 1919 422 
Q 2459 422 2753 634 
Q 3047 847 3047 1241 
Q 3047 1584 2836 1778 
Q 2625 1972 2144 2069 
L 1759 2144 
Q 1053 2284 737 2584 
Q 422 2884 422 3419 
Q 422 4038 858 4394 
Q 1294 4750 2059 4750 
Q 2388 4750 2728 4690 
Q 3069 4631 3425 4513 
z
" transform="scale(0.015625)"/>
      <path id="DejaVuSans-74" d="M 1172 4494 
L 1172 3500 
L 2356 3500 
L 2356 3053 
L 1172 3053 
L 1172 1153 
Q 1172 725 1289 603 
Q 1406 481 1766 481 
L 2356 481 
L 2356 0 
L 1766 0 
Q 1100 0 847 248 
Q 594 497 594 1153 
L 594 3053 
L 172 3053 
L 172 3500 
L 594 3500 
L 594 4494 
L 1172 4494 
z
" transform="scale(0.015625)"/>
      <path id="DejaVuSans-72" d="M 2631 2963 
Q 2534 3019 2420 3045 
Q 2306 3072 2169 3072 
Q 1681 3072 1420 2755 
Q 1159 2438 1159 1844 
L 1159 0 
L 581 0 
L 581 3500 
L 1159 3500 
L 1159 2956 
Q 1341 3275 1631 3429 
Q 1922 3584 2338 3584 
Q 2397 3584 2469 3576 
Q 2541 3569 2628 3553 
L 2631 2963 
z
" transform="scale(0.015625)"/>
      <path id="DejaVuSans-69" d="M 603 3500 
L 1178 3500 
L 1178 0 
L 603 0 
L 603 3500 
z
M 603 4863 
L 1178 4863 
L 1178 4134 
L 603 4134 
L 603 4863 
z
" transform="scale(0.015625)"/>
      <path id="DejaVuSans-6b" d="M 581 4863 
L 1159 4863 
L 1159 1991 
L 2875 3500 
L 3609 3500 
L 1753 1863 
L 3688 0 
L 2938 0 
L 1159 1709 
L 1159 0 
L 581 0 
L 581 4863 
z
" transform="scale(0.015625)"/>
      <path id="DejaVuSans-65" d="M 3597 1894 
L 3597 1613 
L 953 1613 
Q 991 1019 1311 708 
Q 1631 397 2203 397 
Q 2534 397 2845 478 
Q 3156 559 3463 722 
L 3463 178 
Q 3153 47 2828 -22 
Q 2503 -91 2169 -91 
Q 1331 -91 842 396 
Q 353 884 353 1716 
Q 353 2575 817 3079 
Q 1281 3584 2069 3584 
Q 2775 3584 3186 3129 
Q 3597 2675 3597 1894 
z
M 3022 2063 
Q 3016 2534 2758 2815 
Q 2500 3097 2075 3097 
Q 1594 3097 1305 2825 
Q 1016 2553 972 2059 
L 3022 2063 
z
" transform="scale(0.015625)"/>
      <path id="DejaVuSans-2f" d="M 1625 4666 
L 2156 4666 
L 531 -594 
L 0 -594 
L 1625 4666 
z
" transform="scale(0.015625)"/>
      <path id="DejaVuSans-73" d="M 2834 3397 
L 2834 2853 
Q 2591 2978 2328 3040 
Q 2066 3103 1784 3103 
Q 1356 3103 1142 2972 
Q 928 2841 928 2578 
Q 928 2378 1081 2264 
Q 1234 2150 1697 2047 
L 1894 2003 
Q 2506 1872 2764 1633 
Q 3022 1394 3022 966 
Q 3022 478 2636 193 
Q 2250 -91 1575 -91 
Q 1294 -91 989 -36 
Q 684 19 347 128 
L 347 722 
Q 666 556 975 473 
Q 1284 391 1588 391 
Q 1994 391 2212 530 
Q 2431 669 2431 922 
Q 2431 1156 2273 1281 
Q 2116 1406 1581 1522 
L 1381 1569 
Q 847 1681 609 1914 
Q 372 2147 372 2553 
Q 372 3047 722 3315 
Q 1072 3584 1716 3584 
Q 2034 3584 2315 3537 
Q 2597 3491 2834 3397 
z
" transform="scale(0.015625)"/>
      <path id="DejaVuSans-70" d="M 1159 525 
L 1159 -1331 
L 581 -1331 
L 581 3500 
L 1159 3500 
L 1159 2969 
Q 1341 3281 1617 3432 
Q 1894 3584 2278 3584 
Q 2916 3584 3314 3078 
Q 3713 2572 3713 1747 
Q 3713 922 3314 415 
Q 2916 -91 2278 -91 
Q 1894 -91 1617 61 
Q 1341 213 1159 525 
z
M 3116 1747 
Q 3116 2381 2855 2742 
Q 2594 3103 2138 3103 
Q 1681 3103 1420 2742 
Q 1159 2381 1159 1747 
Q 1159 1113 1420 752 
Q 1681 391 2138 391 
Q 2594 391 2855 752 
Q 3116 1113 3116 1747 
z
" transform="scale(0.015625)"/>
      <path id="DejaVuSans-6f" d="M 1959 3097 
Q 1497 3097 1228 2736 
Q 959 2375 959 1747 
Q 959 1119 1226 758 
Q 1494 397 1959 397 
Q 2419 397 2687 759 
Q 2956 1122 2956 1747 
Q 2956 2369 2687 2733 
Q 2419 3097 1959 3097 
z
M 1959 3584 
Q 2709 3584 3137 3096 
Q 3566 2609 3566 1747 
Q 3566 888 3137 398 
Q 2709 -91 1959 -91 
Q 1206 -91 779 398 
Q 353 888 353 1747 
Q 353 2609 779 3096 
Q 1206 3584 1959 3584 
z
" transform="scale(0.015625)"/>
     </defs>
     <use xlink:href="#DejaVuSans-53"/>
     <use xlink:href="#DejaVuSans-74" x="63.476562"/>
     <use xlink:href="#DejaVuSans-72" x="102.685547"/>
     <use xlink:href="#DejaVuSans-69" x="143.798828"/>
     <use xlink:href="#DejaVuSans-6b" x="171.582031"/>
     <use xlink:href="#DejaVuSans-65" x="225.867188"/>
     <use xlink:href="#DejaVuSans-2f" x="287.390625"/>
     <use xlink:href="#DejaVuSans-73" x="321.082031"/>
     <use xlink:href="#DejaVuSans-70" x="373.181641"/>
     <use xlink:href="#DejaVuSans-6f" x="436.658203"/>
     <use xlink:href="#DejaVuSans-74" x="497.839844"/>
    </g>
   </g>
   <g id="Line3DCollection_2">
    <path d="M 122.315812 125.955785 
L 127.519642 238.346229 
L 276.60156 286.764887 
" style="fill: none; stroke: #b0b0b0; stroke-width: 0.8"/>
    <path d="M 144.243888 109.953674 
L 148.393605 220.849259 
L 295.519512 267.350415 
" style="fill: none; stroke: #b0b0b0; stroke-width: 0.8"/>
    <path d="M 165.29638 94.590524 
L 168.469595 204.021166 
L 313.676835 248.716534 
" style="fill: none; stroke: #b0b0b0; stroke-width: 0.8"/>
    <path d="M 185.524704 79.828815 
L 187.792511 187.824315 
L 331.118499 230.817096 
" style="fill: none; stroke: #b0b0b0; stroke-width: 0.8"/>
    <path d="M 204.976328 65.633906 
L 206.403946 172.223841 
L 347.885997 213.609518 
" style="fill: none; stroke: #b0b0b0; stroke-width: 0.8"/>
   </g>
   <g id="xtick_9">
    <g id="line2d_11">
     <path d="M 275.345134 286.356826 
L 279.117668 287.582065 
" style="fill: none; stroke: #000000; stroke-width: 0.8; stroke-linecap: square"/>
    </g>
    <g id="text_11">
     <!-- 0.90 -->
     <g transform="translate(278.370453 307.810526) scale(0.1 -0.1)">
      <defs>
       <path id="DejaVuSans-39" d="M 703 97 
L 703 672 
Q 941 559 1184 500 
Q 1428 441 1663 441 
Q 2288 441 2617 861 
Q 2947 1281 2994 2138 
Q 2813 1869 2534 1725 
Q 2256 1581 1919 1581 
Q 1219 1581 811 2004 
Q 403 2428 403 3163 
Q 403 3881 828 4315 
Q 1253 4750 1959 4750 
Q 2769 4750 3195 4129 
Q 3622 3509 3622 2328 
Q 3622 1225 3098 567 
Q 2575 -91 1691 -91 
Q 1453 -91 1209 -44 
Q 966 3 703 97 
z
M 1959 2075 
Q 2384 2075 2632 2365 
Q 2881 2656 2881 3163 
Q 2881 3666 2632 3958 
Q 2384 4250 1959 4250 
Q 1534 4250 1286 3958 
Q 1038 3666 1038 3163 
Q 1038 2656 1286 2365 
Q 1534 2075 1959 2075 
z
" transform="scale(0.015625)"/>
      </defs>
      <use xlink:href="#DejaVuSans-30"/>
      <use xlink:href="#DejaVuSans-2e" x="63.623047"/>
      <use xlink:href="#DejaVuSans-39" x="95.410156"/>
      <use xlink:href="#DejaVuSans-30" x="159.033203"/>
     </g>
    </g>
   </g>
   <g id="xtick_10">
    <g id="line2d_12">
     <path d="M 294.280861 266.958922 
L 297.999957 268.134393 
" style="fill: none; stroke: #000000; stroke-width: 0.8; stroke-linecap: square"/>
    </g>
    <g id="text_12">
     <!-- 0.95 -->
     <g transform="translate(297.034674 288.108606) scale(0.1 -0.1)">
      <use xlink:href="#DejaVuSans-30"/>
      <use xlink:href="#DejaVuSans-2e" x="63.623047"/>
      <use xlink:href="#DejaVuSans-39" x="95.410156"/>
      <use xlink:href="#DejaVuSans-35" x="159.033203"/>
     </g>
    </g>
   </g>
   <g id="xtick_11">
    <g id="line2d_13">
     <path d="M 312.45556 248.340621 
L 316.122422 249.469296 
" style="fill: none; stroke: #000000; stroke-width: 0.8; stroke-linecap: square"/>
    </g>
    <g id="text_13">
     <!-- 1.00 -->
     <g transform="translate(314.948037 269.199292) scale(0.1 -0.1)">
      <use xlink:href="#DejaVuSans-31"/>
      <use xlink:href="#DejaVuSans-2e" x="63.623047"/>
      <use xlink:href="#DejaVuSans-30" x="95.410156"/>
      <use xlink:href="#DejaVuSans-30" x="159.033203"/>
     </g>
    </g>
   </g>
   <g id="xtick_12">
    <g id="line2d_14">
     <path d="M 329.914205 230.45585 
L 333.530022 231.540469 
" style="fill: none; stroke: #000000; stroke-width: 0.8; stroke-linecap: square"/>
    </g>
    <g id="text_14">
     <!-- 1.05 -->
     <g transform="translate(332.154958 251.035696) scale(0.1 -0.1)">
      <use xlink:href="#DejaVuSans-31"/>
      <use xlink:href="#DejaVuSans-2e" x="63.623047"/>
      <use xlink:href="#DejaVuSans-30" x="95.410156"/>
      <use xlink:href="#DejaVuSans-35" x="159.033203"/>
     </g>
    </g>
   </g>
   <g id="xtick_13">
    <g id="line2d_15">
     <path d="M 346.698297 213.262098 
L 350.264236 214.30519 
" style="fill: none; stroke: #000000; stroke-width: 0.8; stroke-linecap: square"/>
    </g>
    <g id="text_15">
     <!-- 1.10 -->
     <g transform="translate(348.696418 233.574559) scale(0.1 -0.1)">
      <use xlink:href="#DejaVuSans-31"/>
      <use xlink:href="#DejaVuSans-2e" x="63.623047"/>
      <use xlink:href="#DejaVuSans-31" x="95.410156"/>
      <use xlink:href="#DejaVuSans-30" x="159.033203"/>
     </g>
    </g>
   </g>
  </g>
  <g id="axis3d_3">
   <g id="line2d_16">
    <path d="M 352.090401 209.294766 
L 357.122702 99.402171 
" style="fill: none; stroke: #000000; stroke-width: 0.8; stroke-linecap: square"/>
   </g>
   <g id="text_16">
    <!-- Vol -->
    <g transform="translate(387.44598 152.902279) scale(0.1 -0.1)">
     <defs>
      <path id="DejaVuSans-56" d="M 1831 0 
L 50 4666 
L 709 4666 
L 2188 738 
L 3669 4666 
L 4325 4666 
L 2547 0 
L 1831 0 
z
" transform="scale(0.015625)"/>
      <path id="DejaVuSans-6c" d="M 603 4863 
L 1178 4863 
L 1178 0 
L 603 0 
L 603 4863 
z
" transform="scale(0.015625)"/>
     </defs>
     <use xlink:href="#DejaVuSans-56"/>
     <use xlink:href="#DejaVuSans-6f" x="60.658203"/>
     <use xlink:href="#DejaVuSans-6c" x="121.839844"/>
    </g>
   </g>
   <g id="Line3DCollection_3">
    <path d="M 352.751475 194.858579 
L 210.915393 154.326378 
L 122.485402 227.18647 
" style="fill: none; stroke: #b0b0b0; stroke-width: 0.8"/>
    <path d="M 353.80244 171.908194 
L 210.659985 132.115425 
L 121.353005 203.671506 
" style="fill: none; stroke: #b0b0b0; stroke-width: 0.8"/>
    <path d="M 354.873138 148.52688 
L 210.400012 109.507565 
L 120.198525 179.697982 
" style="fill: none; stroke: #b0b0b0; stroke-width: 0.8"/>
    <path d="M 355.964131 124.702385 
L 210.135352 86.492062 
L 119.02131 155.25235 
" style="fill: none; stroke: #b0b0b0; stroke-width: 0.8"/>
   </g>
   <g id="xtick_14">
    <g id="line2d_17">
     <path d="M 351.560752 194.518308 
L 355.13577 195.539934 
" style="fill: none; stroke: #000000; stroke-width: 0.8; stroke-linecap: square"/>
    </g>
    <g id="text_17">
     <!-- 0.3 -->
     <g transform="translate(363.153626 199.880272) scale(0.1 -0.1)">
      <use xlink:href="#DejaVuSans-30"/>
      <use xlink:href="#DejaVuSans-2e" x="63.623047"/>
      <use xlink:href="#DejaVuSans-33" x="95.410156"/>
     </g>
    </g>
   </g>
   <g id="xtick_15">
    <g id="line2d_18">
     <path d="M 352.600224 171.573985 
L 356.209775 172.577419 
" style="fill: none; stroke: #000000; stroke-width: 0.8; stroke-linecap: square"/>
    </g>
    <g id="text_18">
     <!-- 0.4 -->
     <g transform="translate(364.371579 176.97585) scale(0.1 -0.1)">
      <defs>
       <path id="DejaVuSans-34" d="M 2419 4116 
L 825 1625 
L 2419 1625 
L 2419 4116 
z
M 2253 4666 
L 3047 4666 
L 3047 1625 
L 3713 1625 
L 3713 1100 
L 3047 1100 
L 3047 0 
L 2419 0 
L 2419 1100 
L 313 1100 
L 313 1709 
L 2253 4666 
z
" transform="scale(0.015625)"/>
      </defs>
      <use xlink:href="#DejaVuSans-30"/>
      <use xlink:href="#DejaVuSans-2e" x="63.623047"/>
      <use xlink:href="#DejaVuSans-34" x="95.410156"/>
     </g>
    </g>
   </g>
   <g id="xtick_16">
    <g id="line2d_19">
     <path d="M 353.659206 148.199021 
L 357.303962 149.183397 
" style="fill: none; stroke: #000000; stroke-width: 0.8; stroke-linecap: square"/>
    </g>
    <g id="text_19">
     <!-- 0.5 -->
     <g transform="translate(365.612331 153.642683) scale(0.1 -0.1)">
      <use xlink:href="#DejaVuSans-30"/>
      <use xlink:href="#DejaVuSans-2e" x="63.623047"/>
      <use xlink:href="#DejaVuSans-35" x="95.410156"/>
     </g>
    </g>
   </g>
   <g id="xtick_17">
    <g id="line2d_20">
     <path d="M 354.738252 124.381178 
L 358.418906 125.34559 
" style="fill: none; stroke: #000000; stroke-width: 0.8; stroke-linecap: square"/>
    </g>
    <g id="text_20">
     <!-- 0.6 -->
     <g transform="translate(366.876528 129.868619) scale(0.1 -0.1)">
      <defs>
       <path id="DejaVuSans-36" d="M 2113 2584 
Q 1688 2584 1439 2293 
Q 1191 2003 1191 1497 
Q 1191 994 1439 701 
Q 1688 409 2113 409 
Q 2538 409 2786 701 
Q 3034 994 3034 1497 
Q 3034 2003 2786 2293 
Q 2538 2584 2113 2584 
z
M 3366 4563 
L 3366 3988 
Q 3128 4100 2886 4159 
Q 2644 4219 2406 4219 
Q 1781 4219 1451 3797 
Q 1122 3375 1075 2522 
Q 1259 2794 1537 2939 
Q 1816 3084 2150 3084 
Q 2853 3084 3261 2657 
Q 3669 2231 3669 1497 
Q 3669 778 3244 343 
Q 2819 -91 2113 -91 
Q 1303 -91 875 529 
Q 447 1150 447 2328 
Q 447 3434 972 4092 
Q 1497 4750 2381 4750 
Q 2619 4750 2861 4703 
Q 3103 4656 3366 4563 
z
" transform="scale(0.015625)"/>
      </defs>
      <use xlink:href="#DejaVuSans-30"/>
      <use xlink:href="#DejaVuSans-2e" x="63.623047"/>
      <use xlink:href="#DejaVuSans-36" x="95.410156"/>
     </g>
    </g>
   </g>
  </g>
  <g id="axes_1">
   <g id="Poly3DCollection_1">
    <path d="M 243.450886 138.878885 
L 210.942801 108.488667 
L 213.450136 110.055968 
L 213.86125 110.293021 
L 246.243129 135.910403 
L 245.849016 136.325155 
z
" clip-path="url(#pdeeae3fd6e)" style="fill: #24878e"/>
    <path d="M 240.166289 142.42235 
L 207.506786 107.20691 
L 209.490572 107.718344 
L 210.942801 108.488667 
L 243.450886 138.878885 
L 242.063782 140.372163 
z
" clip-path="url(#pdeeae3fd6e)" style="fill: #228c8d"/>
    <path d="M 271.374756 149.10513 
L 243.450886 138.878885 
L 245.849016 136.325155 
L 246.243129 135.910403 
L 274.119629 145.820821 
L 273.732076 146.290977 
z
" clip-path="url(#pdeeae3fd6e)" style="fill: #306a8e"/>
    <path d="M 238.793359 143.904286 
L 206.077096 107.450074 
L 206.56709 107.296018 
L 207.506786 107.20691 
L 240.166289 142.42235 
L 239.264636 143.396117 
z
" clip-path="url(#pdeeae3fd6e)" style="fill: #218f8d"/>
    <path d="M 236.447471 146.4833 
L 203.652953 109.41294 
L 205.544472 107.710144 
L 206.077096 107.450074 
L 238.793359 143.904286 
L 238.280034 144.456862 
z
" clip-path="url(#pdeeae3fd6e)" style="fill: #218f8d"/>
    <path d="M 268.145573 153.046372 
L 240.166289 142.42235 
L 242.063782 140.372163 
L 243.450886 138.878885 
L 271.374756 149.10513 
L 270.011343 150.738433 
z
" clip-path="url(#pdeeae3fd6e)" style="fill: #31678e"/>
    <path d="M 235.006433 148.313867 
L 202.176848 111.568719 
L 203.12997 110.094917 
L 203.652953 109.41294 
L 236.447471 146.4833 
L 235.93803 147.095213 
z
" clip-path="url(#pdeeae3fd6e)" style="fill: #228d8d"/>
    <path d="M 266.794707 154.814067 
L 238.793359 143.904286 
L 239.264636 143.396117 
L 240.166289 142.42235 
L 268.145573 153.046372 
L 267.258526 154.194214 
z
" clip-path="url(#pdeeae3fd6e)" style="fill: #32658e"/>
    <path d="M 232.190815 153.238381 
L 199.320669 117.726789 
L 200.208237 115.538303 
L 202.176848 111.568719 
L 235.006433 148.313867 
L 233.069497 151.451515 
z
" clip-path="url(#pdeeae3fd6e)" style="fill: #24878e"/>
    <path d="M 231.149995 155.727611 
L 198.273307 120.620656 
L 198.816671 119.077542 
L 199.320669 117.726789 
L 232.190815 153.238381 
L 231.690475 154.380696 
z
" clip-path="url(#pdeeae3fd6e)" style="fill: #26818e"/>
    <path d="M 223.113209 182.088744 
L 190.361895 153.803913 
L 193.671267 137.406426 
L 195.072778 131.575331 
L 227.943074 165.777574 
L 226.52321 170.801813 
z
" clip-path="url(#pdeeae3fd6e)" style="fill: #3a548c"/>
    <path d="M 264.4834 158.202138 
L 236.447471 146.4833 
L 238.280034 144.456862 
L 238.793359 143.904286 
L 266.794707 154.814067 
L 266.28934 155.508635 
z
" clip-path="url(#pdeeae3fd6e)" style="fill: #33638d"/>
    <path d="M 217.327497 189.64882 
L 184.805776 177.813562 
L 185.442846 176.714677 
L 190.361895 153.803913 
L 223.113209 182.088744 
L 217.970132 189.942186 
z
" clip-path="url(#pdeeae3fd6e)" style="fill: #481b6d"/>
    <path d="M 227.943074 165.777574 
L 195.072778 131.575331 
L 195.964895 128.196137 
L 198.273307 120.620656 
L 231.149995 155.727611 
L 228.841407 162.700611 
z
" clip-path="url(#pdeeae3fd6e)" style="fill: #2c718e"/>
    <path d="M 216.763197 189.104597 
L 184.238203 178.262325 
L 184.401321 178.181491 
L 184.805776 177.813562 
L 217.327497 189.64882 
L 216.924635 189.288364 
z
" clip-path="url(#pdeeae3fd6e)" style="fill: #470d60"/>
    <path d="M 263.060801 160.605224 
L 235.006433 148.313867 
L 235.93803 147.095213 
L 236.447471 146.4833 
L 264.4834 158.202138 
L 263.980731 159.023961 
z
" clip-path="url(#pdeeae3fd6e)" style="fill: #34608d"/>
    <path d="M 302.852992 160.782444 
L 271.374756 149.10513 
L 273.732076 146.290977 
L 274.119629 145.820821 
L 305.518265 158.341876 
L 305.14332 158.641923 
z
" clip-path="url(#pdeeae3fd6e)" style="fill: #34618d"/>
    <path d="M 260.280709 165.085918 
L 232.190815 153.238381 
L 233.069497 151.451515 
L 235.006433 148.313867 
L 263.060801 160.605224 
L 261.147901 163.825106 
z
" clip-path="url(#pdeeae3fd6e)" style="fill: #375b8d"/>
    <path d="M 214.404646 184.302415 
L 181.803211 176.081249 
L 182.86685 177.685498 
L 184.238203 178.262325 
L 216.763197 189.104597 
L 215.424921 186.792115 
z
" clip-path="url(#pdeeae3fd6e)" style="fill: #481a6c"/>
    <path d="M 259.252278 166.513672 
L 231.149995 155.727611 
L 231.690475 154.380696 
L 232.190815 153.238381 
L 260.280709 165.085918 
L 259.786626 165.769724 
z
" clip-path="url(#pdeeae3fd6e)" style="fill: #39558c"/>
    <path d="M 299.707752 163.985413 
L 268.145573 153.046372 
L 270.011343 150.738433 
L 271.374756 149.10513 
L 302.852992 160.782444 
L 301.513474 162.598472 
z
" clip-path="url(#pdeeae3fd6e)" style="fill: #355f8d"/>
    <path d="M 256.056073 172.574254 
L 227.943074 165.777574 
L 228.841407 162.700611 
L 231.149995 155.727611 
L 259.252278 166.513672 
L 256.956641 170.430284 
z
" clip-path="url(#pdeeae3fd6e)" style="fill: #3e4a89"/>
    <path d="M 251.185688 188.035279 
L 223.113209 182.088744 
L 226.52321 170.801813 
L 227.943074 165.777574 
L 256.056073 172.574254 
L 254.626327 176.65109 
z
" clip-path="url(#pdeeae3fd6e)" style="fill: #46307e"/>
    <path d="M 302.852992 160.782444 
L 305.14332 158.641923 
L 305.518265 158.341876 
z
" clip-path="url(#pdeeae3fd6e)" style="fill: #365c8d"/>
    <path d="M 298.406612 164.728351 
L 266.794707 154.814067 
L 267.258526 154.194214 
L 268.145573 153.046372 
L 299.707752 163.985413 
L 298.854033 164.444256 
z
" clip-path="url(#pdeeae3fd6e)" style="fill: #355e8d"/>
    <path d="M 212.395402 178.462655 
L 179.682726 171.315013 
L 180.855051 174.115373 
L 181.803211 176.081249 
L 214.404646 184.302415 
L 213.503548 181.774992 
z
" clip-path="url(#pdeeae3fd6e)" style="fill: #46307e"/>
    <path d="M 245.463139 201.68337 
L 217.327497 189.64882 
L 217.970132 189.942186 
L 223.113209 182.088744 
L 251.185688 188.035279 
L 246.085545 201.021762 
z
" clip-path="url(#pdeeae3fd6e)" style="fill: #46075a"/>
    <path d="M 296.160662 166.910552 
L 264.4834 158.202138 
L 266.28934 155.508635 
L 266.794707 154.814067 
L 298.406612 164.728351 
L 297.917935 165.090629 
z
" clip-path="url(#pdeeae3fd6e)" style="fill: #365d8d"/>
    <path d="M 299.707752 163.985413 
L 301.513474 162.598472 
L 302.852992 160.782444 
z
" clip-path="url(#pdeeae3fd6e)" style="fill: #375b8d"/>
    <path d="M 244.920079 202.021967 
L 216.763197 189.104597 
L 216.924635 189.288364 
L 217.327497 189.64882 
L 245.463139 201.68337 
L 245.075099 201.949142 
z
" clip-path="url(#pdeeae3fd6e)" style="fill: #440154"/>
    <path d="M 294.768404 168.779306 
L 263.060801 160.605224 
L 263.980731 159.023961 
L 264.4834 158.202138 
L 296.160662 166.910552 
L 295.668486 167.572996 
z
" clip-path="url(#pdeeae3fd6e)" style="fill: #375b8d"/>
    <path d="M 298.406612 164.728351 
L 298.854033 164.444256 
L 299.707752 163.985413 
z
" clip-path="url(#pdeeae3fd6e)" style="fill: #365c8d"/>
    <path d="M 292.068757 171.253123 
L 260.280709 165.085918 
L 261.147901 163.825106 
L 263.060801 160.605224 
L 294.768404 168.779306 
L 292.910487 170.574663 
z
" clip-path="url(#pdeeae3fd6e)" style="fill: #39568c"/>
    <path d="M 242.682696 200.673704 
L 214.404646 184.302415 
L 215.424921 186.792115 
L 216.763197 189.104597 
L 244.920079 202.021967 
L 243.644972 201.836269 
z
" clip-path="url(#pdeeae3fd6e)" style="fill: #470d60"/>
    <path d="M 296.160662 166.910552 
L 297.917935 165.090629 
L 298.406612 164.728351 
z
" clip-path="url(#pdeeae3fd6e)" style="fill: #365c8d"/>
    <path d="M 291.067925 172.133035 
L 259.252278 166.513672 
L 259.786626 165.769724 
L 260.280709 165.085918 
L 292.068757 171.253123 
L 291.588255 171.662385 
z
" clip-path="url(#pdeeae3fd6e)" style="fill: #39558c"/>
    <path d="M 209.327211 170.127116 
L 176.448305 164.323569 
L 176.745212 164.787364 
L 179.682726 171.315013 
L 212.395402 178.462655 
L 209.611694 170.753789 
z
" clip-path="url(#pdeeae3fd6e)" style="fill: #3a538b"/>
    <path d="M 294.768404 168.779306 
L 295.668486 167.572996 
L 296.160662 166.910552 
z
" clip-path="url(#pdeeae3fd6e)" style="fill: #375b8d"/>
    <path d="M 287.950525 175.601907 
L 256.056073 172.574254 
L 256.956641 170.430284 
L 259.252278 166.513672 
L 291.067925 172.133035 
L 288.828994 174.506019 
z
" clip-path="url(#pdeeae3fd6e)" style="fill: #3b518b"/>
    <path d="M 240.801602 195.896279 
L 212.395402 178.462655 
L 213.503548 181.774992 
L 214.404646 184.302415 
L 242.682696 200.673704 
L 241.83766 198.88083 
z
" clip-path="url(#pdeeae3fd6e)" style="fill: #482475"/>
    <path d="M 292.068757 171.253123 
L 292.910487 170.574663 
L 294.768404 168.779306 
z
" clip-path="url(#pdeeae3fd6e)" style="fill: #375a8c"/>
    <path d="M 283.207239 181.336425 
L 251.185688 188.035279 
L 254.626327 176.65109 
L 256.056073 172.574254 
L 287.950525 175.601907 
L 286.556057 177.45625 
z
" clip-path="url(#pdeeae3fd6e)" style="fill: #404688"/>
    <path d="M 206.673738 166.227163 
L 173.693885 161.493691 
L 176.152775 163.910486 
L 176.448305 164.323569 
L 209.327211 170.127116 
L 209.043366 169.548587 
z
" clip-path="url(#pdeeae3fd6e)" style="fill: #32658e"/>
    <path d="M 291.067925 172.133035 
L 291.588255 171.662385 
L 292.068757 171.253123 
z
" clip-path="url(#pdeeae3fd6e)" style="fill: #375a8c"/>
    <path d="M 277.546207 189.999681 
L 245.463139 201.68337 
L 246.085545 201.021762 
L 251.185688 188.035279 
L 283.207239 181.336425 
L 278.170689 188.699821 
z
" clip-path="url(#pdeeae3fd6e)" style="fill: #472c7a"/>
    <path d="M 205.955747 165.479771 
L 172.945798 160.767746 
L 173.527792 161.340706 
L 173.693885 161.493691 
L 206.673738 166.227163 
L 206.514091 166.059068 
z
" clip-path="url(#pdeeae3fd6e)" style="fill: #2d708e"/>
    <path d="M 287.950525 175.601907 
L 288.828994 174.506019 
L 291.067925 172.133035 
z
" clip-path="url(#pdeeae3fd6e)" style="fill: #38598c"/>
    <path d="M 277.000743 191.156744 
L 244.920079 202.021967 
L 245.075099 201.949142 
L 245.463139 201.68337 
L 277.546207 189.999681 
L 277.156436 190.828381 
z
" clip-path="url(#pdeeae3fd6e)" style="fill: #482374"/>
    <path d="M 204.919853 164.388281 
L 171.864461 159.636655 
L 172.737792 160.552977 
L 172.945798 160.767746 
L 205.955747 165.479771 
L 205.756432 165.27138 
z
" clip-path="url(#pdeeae3fd6e)" style="fill: #2b748e"/>
    <path d="M 237.922739 185.57853 
L 209.327211 170.127116 
L 209.611694 170.753789 
L 212.395402 178.462655 
L 240.801602 195.896279 
L 238.191602 186.550367 
z
" clip-path="url(#pdeeae3fd6e)" style="fill: #3e4c8a"/>
    <path d="M 274.770861 194.724264 
L 242.682696 200.673704 
L 243.644972 201.836269 
L 244.920079 202.021967 
L 277.000743 191.156744 
L 275.724144 193.575896 
z
" clip-path="url(#pdeeae3fd6e)" style="fill: #482374"/>
    <path d="M 203.568646 163.030162 
L 170.455683 158.257475 
L 171.615293 159.380568 
L 171.864461 159.636655 
L 204.919853 164.388281 
L 204.681054 164.138217 
z
" clip-path="url(#pdeeae3fd6e)" style="fill: #297a8e"/>
    <path d="M 283.207239 181.336425 
L 286.556057 177.45625 
L 287.950525 175.601907 
z
" clip-path="url(#pdeeae3fd6e)" style="fill: #39568c"/>
    <path d="M 202.658242 162.249926 
L 169.507511 157.436999 
L 170.001683 157.852568 
L 170.455683 158.257475 
L 203.568646 163.030162 
L 203.132785 162.638008 
z
" clip-path="url(#pdeeae3fd6e)" style="fill: #27808e"/>
    <path d="M 272.951643 193.967242 
L 240.801602 195.896279 
L 241.83766 198.88083 
L 242.682696 200.673704 
L 274.770861 194.724264 
L 273.945476 194.940904 
z
" clip-path="url(#pdeeae3fd6e)" style="fill: #472d7b"/>
    <path d="M 235.388878 178.046827 
L 206.673738 166.227163 
L 209.043366 169.548587 
L 209.327211 170.127116 
L 237.922739 185.57853 
L 237.653857 184.625403 
z
" clip-path="url(#pdeeae3fd6e)" style="fill: #33628d"/>
    <path d="M 201.594901 161.572221 
L 168.400189 156.611899 
L 168.604746 156.752535 
L 169.507511 157.436999 
L 202.658242 162.249926 
L 201.791301 161.674214 
z
" clip-path="url(#pdeeae3fd6e)" style="fill: #25848e"/>
    <path d="M 200.030842 161.035095 
L 166.771613 155.66735 
L 168.032562 156.372478 
L 168.400189 156.611899 
L 201.594901 161.572221 
L 201.242043 161.419262 
z
" clip-path="url(#pdeeae3fd6e)" style="fill: #23898e"/>
    <path d="M 277.546207 189.999681 
L 278.170689 188.699821 
L 283.207239 181.336425 
z
" clip-path="url(#pdeeae3fd6e)" style="fill: #3d4d8a"/>
    <path d="M 310.941159 234.286491 
L 277.000743 191.156744 
L 277.156436 190.828381 
L 277.546207 189.999681 
L 311.017683 236.537587 
z
" clip-path="url(#pdeeae3fd6e)" style="fill: #481668"/>
    <path d="M 198.894298 160.289152 
L 165.598685 155.142632 
L 166.40696 155.492499 
L 166.771613 155.66735 
L 200.030842 161.035095 
L 199.67884 160.864362 
z
" clip-path="url(#pdeeae3fd6e)" style="fill: #218e8d"/>
    <path d="M 234.699525 176.813113 
L 205.955747 165.479771 
L 206.514091 166.059068 
L 206.673738 166.227163 
L 235.388878 178.046827 
L 235.235586 177.738191 
z
" clip-path="url(#pdeeae3fd6e)" style="fill: #2c728e"/>
    <path d="M 198.110569 159.697159 
L 164.792988 154.835709 
L 165.155255 154.969319 
L 165.598685 155.142632 
L 198.894298 160.289152 
L 198.462785 159.943691 
z
" clip-path="url(#pdeeae3fd6e)" style="fill: #20928c"/>
    <path d="M 233.706003 175.601241 
L 204.919853 164.388281 
L 205.756432 165.27138 
L 205.955747 165.479771 
L 234.699525 176.813113 
L 234.508257 176.534788 
z
" clip-path="url(#pdeeae3fd6e)" style="fill: #2a778e"/>
    <path d="M 270.259739 186.406756 
L 237.922739 185.57853 
L 238.191602 186.550367 
L 240.801602 195.896279 
L 272.951643 193.967242 
L 270.508759 187.284112 
z
" clip-path="url(#pdeeae3fd6e)" style="fill: #3c4f8a"/>
    <path d="M 197.293195 159.333841 
L 163.949405 154.545903 
L 164.672335 154.792594 
L 164.792988 154.835709 
L 198.110569 159.697159 
L 197.993427 159.627787 
z
" clip-path="url(#pdeeae3fd6e)" style="fill: #20938c"/>
    <path d="M 309.495157 212.624691 
L 274.770861 194.724264 
L 275.724144 193.575896 
L 277.000743 191.156744 
L 310.941159 234.286491 
L 310.18814 219.654361 
z
" clip-path="url(#pdeeae3fd6e)" style="fill: #482173"/>
    <path d="M 196.905656 159.231533 
L 163.548447 154.41553 
L 163.708777 154.467245 
L 163.949405 154.545903 
L 197.293195 159.333841 
L 197.060576 159.26918 
z
" clip-path="url(#pdeeae3fd6e)" style="fill: #1f968b"/>
    <path d="M 232.41057 174.572757 
L 203.568646 163.030162 
L 204.681054 164.138217 
L 204.919853 164.388281 
L 233.706003 175.601241 
L 233.477102 175.389342 
z
" clip-path="url(#pdeeae3fd6e)" style="fill: #287d8e"/>
    <path d="M 196.402759 159.122395 
L 163.027863 154.251292 
L 163.147932 154.288669 
L 163.548447 154.41553 
L 196.905656 159.231533 
L 196.518754 159.147126 
z
" clip-path="url(#pdeeae3fd6e)" style="fill: #1f978b"/>
    <path d="M 195.360208 158.90307 
L 161.949057 153.929326 
L 162.348234 154.045516 
L 163.027863 154.251292 
L 196.402759 159.122395 
L 195.746016 158.982102 
z
" clip-path="url(#pdeeae3fd6e)" style="fill: #1f9a8a"/>
    <path d="M 231.536228 173.961567 
L 202.658242 162.249926 
L 203.132785 162.638008 
L 203.568646 163.030162 
L 232.41057 174.572757 
L 231.992224 174.278986 
z
" clip-path="url(#pdeeae3fd6e)" style="fill: #26828e"/>
    <path d="M 194.16721 158.706937 
L 160.714491 153.592598 
L 161.390968 153.772815 
L 161.949057 153.929326 
L 195.360208 158.90307 
L 194.820824 158.802856 
z
" clip-path="url(#pdeeae3fd6e)" style="fill: #1e9d89"/>
    <path d="M 267.909118 178.298245 
L 235.388878 178.046827 
L 237.653857 184.625403 
L 237.922739 185.57853 
L 270.259739 186.406756 
L 270.010855 185.516746 
z
" clip-path="url(#pdeeae3fd6e)" style="fill: #31678e"/>
    <path d="M 230.51173 173.266682 
L 201.594901 161.572221 
L 201.791301 161.674214 
L 202.658242 162.249926 
L 231.536228 173.961567 
L 230.701293 173.39281 
z
" clip-path="url(#pdeeae3fd6e)" style="fill: #24868e"/>
    <path d="M 193.32395 158.64427 
L 159.841027 153.375748 
L 160.317184 153.491714 
L 160.714491 153.592598 
L 194.16721 158.706937 
L 193.783519 158.668479 
z
" clip-path="url(#pdeeae3fd6e)" style="fill: #1fa088"/>
    <path d="M 307.924602 206.1712 
L 272.951643 193.967242 
L 273.945476 194.940904 
L 274.770861 194.724264 
L 309.495157 212.624691 
L 308.818153 208.73379 
z
" clip-path="url(#pdeeae3fd6e)" style="fill: #433d84"/>
    <path d="M 228.997929 172.316493 
L 200.030842 161.035095 
L 201.242043 161.419262 
L 201.594901 161.572221 
L 230.51173 173.266682 
L 230.170702 173.043224 
z
" clip-path="url(#pdeeae3fd6e)" style="fill: #228b8d"/>
    <path d="M 191.721989 158.69393 
L 158.179801 153.01476 
L 159.761732 153.356966 
L 159.841027 153.375748 
L 193.32395 158.64427 
L 193.247452 158.642832 
z
" clip-path="url(#pdeeae3fd6e)" style="fill: #1fa187"/>
    <path d="M 227.903592 171.713458 
L 198.894298 160.289152 
L 199.67884 160.864362 
L 200.030842 161.035095 
L 228.997929 172.316493 
L 228.658012 172.120418 
z
" clip-path="url(#pdeeae3fd6e)" style="fill: #21908d"/>
    <path d="M 190.126119 158.733478 
L 156.527019 152.726154 
L 157.431055 152.875039 
L 158.179801 153.01476 
L 191.721989 158.69393 
L 190.999208 158.708502 
z
" clip-path="url(#pdeeae3fd6e)" style="fill: #21a685"/>
    <path d="M 267.263098 176.514225 
L 234.699525 176.813113 
L 235.235586 177.738191 
L 235.388878 178.046827 
L 267.909118 178.298245 
L 267.765844 177.875384 
z
" clip-path="url(#pdeeae3fd6e)" style="fill: #297a8e"/>
    <path d="M 227.150636 171.37071 
L 198.110569 159.697159 
L 198.462785 159.943691 
L 198.894298 160.289152 
L 227.903592 171.713458 
L 227.489255 171.511583 
z
" clip-path="url(#pdeeae3fd6e)" style="fill: #20938c"/>
    <path d="M 189.407087 158.793967 
L 155.782163 152.62024 
L 156.487771 152.720192 
L 156.527019 152.726154 
L 190.126119 158.733478 
L 190.088222 158.735606 
z
" clip-path="url(#pdeeae3fd6e)" style="fill: #22a884"/>
    <path d="M 266.323664 174.549531 
L 233.706003 175.601241 
L 234.508257 176.534788 
L 234.699525 176.813113 
L 267.263098 176.514225 
L 267.083013 176.078708 
z
" clip-path="url(#pdeeae3fd6e)" style="fill: #26818e"/>
    <path d="M 226.362271 171.191995 
L 197.293195 159.333841 
L 197.993427 159.627787 
L 198.110569 159.697159 
L 227.150636 171.37071 
L 227.037853 171.330702 
z
" clip-path="url(#pdeeae3fd6e)" style="fill: #1f968b"/>
    <path d="M 225.98788 171.202075 
L 196.905656 159.231533 
L 197.060576 159.26918 
L 197.293195 159.333841 
L 226.362271 171.191995 
L 226.137562 171.191965 
z
" clip-path="url(#pdeeae3fd6e)" style="fill: #1f988b"/>
    <path d="M 187.787344 159.063417 
L 154.103083 152.439159 
L 154.843856 152.509013 
L 155.782163 152.62024 
L 189.407087 158.793967 
L 188.5018 158.924529 
z
" clip-path="url(#pdeeae3fd6e)" style="fill: #25ab82"/>
    <path d="M 305.523017 196.099918 
L 270.259739 186.406756 
L 270.508759 187.284112 
L 272.951643 193.967242 
L 307.924602 206.1712 
L 305.710542 198.414157 
z
" clip-path="url(#pdeeae3fd6e)" style="fill: #365c8d"/>
    <path d="M 225.501922 171.255706 
L 196.402759 159.122395 
L 196.518754 159.147126 
L 196.905656 159.231533 
L 225.98788 171.202075 
L 225.614013 171.243402 
z
" clip-path="url(#pdeeae3fd6e)" style="fill: #1f998a"/>
    <path d="M 265.087769 172.820545 
L 232.41057 174.572757 
L 233.477102 175.389342 
L 233.706003 175.601241 
L 266.323664 174.549531 
L 266.105996 174.188989 
z
" clip-path="url(#pdeeae3fd6e)" style="fill: #24878e"/>
    <path d="M 224.493255 171.15678 
L 195.360208 158.90307 
L 195.746016 158.982102 
L 196.402759 159.122395 
L 225.501922 171.255706 
L 224.866921 171.254909 
z
" clip-path="url(#pdeeae3fd6e)" style="fill: #1e9b8a"/>
    <path d="M 184.240841 160.019769 
L 150.427185 152.340777 
L 153.17 152.374369 
L 154.103083 152.439159 
L 187.787344 159.063417 
L 186.887523 159.2739 
z
" clip-path="url(#pdeeae3fd6e)" style="fill: #29af7f"/>
    <path d="M 264.250348 171.91394 
L 231.536228 173.961567 
L 231.992224 174.278986 
L 232.41057 174.572757 
L 265.087769 172.820545 
L 264.687235 172.375416 
z
" clip-path="url(#pdeeae3fd6e)" style="fill: #228d8d"/>
    <path d="M 223.335773 170.685363 
L 194.16721 158.706937 
L 194.820824 158.802856 
L 195.360208 158.90307 
L 224.493255 171.15678 
L 223.970138 170.93892 
z
" clip-path="url(#pdeeae3fd6e)" style="fill: #1f9e89"/>
    <path d="M 222.517589 170.572324 
L 193.32395 158.64427 
L 193.783519 158.668479 
L 194.16721 158.706937 
L 223.335773 170.685363 
L 222.963468 170.603096 
z
" clip-path="url(#pdeeae3fd6e)" style="fill: #1fa188"/>
    <path d="M 263.268382 170.889665 
L 230.51173 173.266682 
L 230.701293 173.39281 
L 231.536228 173.961567 
L 264.250348 171.91394 
L 263.450116 171.078225 
z
" clip-path="url(#pdeeae3fd6e)" style="fill: #20928c"/>
    <path d="M 220.962996 170.759451 
L 191.721989 158.69393 
L 193.247452 158.642832 
L 193.32395 158.64427 
L 222.517589 170.572324 
L 222.443363 170.573052 
z
" clip-path="url(#pdeeae3fd6e)" style="fill: #1fa287"/>
    <path d="M 182.980278 160.384172 
L 149.123715 152.424158 
L 149.851185 152.365892 
L 150.427185 152.340777 
L 184.240841 160.019769 
L 183.684209 160.181967 
z
" clip-path="url(#pdeeae3fd6e)" style="fill: #2fb47c"/>
    <path d="M 261.816134 169.422968 
L 228.997929 172.316493 
L 230.170702 173.043224 
L 230.51173 173.266682 
L 263.268382 170.889665 
L 262.94138 170.552428 
z
" clip-path="url(#pdeeae3fd6e)" style="fill: #1f968b"/>
    <path d="M 304.1182 159.56012 
L 267.909118 178.298245 
L 270.010855 185.516746 
L 270.259739 186.406756 
L 305.523017 196.099918 
L 305.348058 193.30097 
z
" clip-path="url(#pdeeae3fd6e)" style="fill: #26818e"/>
    <path d="M 219.413559 170.820027 
L 190.126119 158.733478 
L 190.999208 158.708502 
L 191.721989 158.69393 
L 220.962996 170.759451 
L 220.261649 170.829621 
z
" clip-path="url(#pdeeae3fd6e)" style="fill: #21a685"/>
    <path d="M 180.475635 161.262721 
L 146.547321 153.072925 
L 147.450928 152.743959 
L 149.123715 152.424158 
L 182.980278 160.384172 
L 181.356472 160.903031 
z
" clip-path="url(#pdeeae3fd6e)" style="fill: #34b679"/>
    <path d="M 260.764869 168.434266 
L 227.903592 171.713458 
L 228.658012 172.120418 
L 228.997929 172.316493 
L 261.816134 169.422968 
L 261.489745 169.107754 
z
" clip-path="url(#pdeeae3fd6e)" style="fill: #1e9c89"/>
    <path d="M 218.714955 170.890007 
L 189.407087 158.793967 
L 190.088222 158.735606 
L 190.126119 158.733478 
L 219.413559 170.820027 
L 219.37673 170.820221 
z
" clip-path="url(#pdeeae3fd6e)" style="fill: #23a983"/>
    <path d="M 260.040559 167.805239 
L 227.150636 171.37071 
L 227.489255 171.511583 
L 227.903592 171.713458 
L 260.764869 168.434266 
L 260.366431 168.082237 
z
" clip-path="url(#pdeeae3fd6e)" style="fill: #1fa188"/>
    <path d="M 178.836288 162.195133 
L 144.874214 154.086686 
L 145.42865 153.68709 
L 146.547321 153.072925 
L 180.475635 161.262721 
L 179.380755 161.839368 
z
" clip-path="url(#pdeeae3fd6e)" style="fill: #37b878"/>
    <path d="M 217.143572 171.606302 
L 187.787344 159.063417 
L 188.5018 158.924529 
L 189.407087 158.793967 
L 218.714955 170.890007 
L 217.836637 171.245093 
z
" clip-path="url(#pdeeae3fd6e)" style="fill: #25ab82"/>
    <path d="M 259.280653 167.196445 
L 226.362271 171.191995 
L 227.037853 171.330702 
L 227.150636 171.37071 
L 260.040559 167.805239 
L 259.93196 167.715261 
z
" clip-path="url(#pdeeae3fd6e)" style="fill: #1fa287"/>
    <path d="M 177.214354 163.501972 
L 143.220838 155.392062 
L 143.771351 154.966683 
L 144.874214 154.086686 
L 178.836288 162.195133 
L 177.753435 163.041437 
z
" clip-path="url(#pdeeae3fd6e)" style="fill: #37b878"/>
    <path d="M 258.919092 166.917018 
L 225.98788 171.202075 
L 226.137562 171.191965 
L 226.362271 171.191995 
L 259.280653 167.196445 
L 259.063689 167.02849 
z
" clip-path="url(#pdeeae3fd6e)" style="fill: #21a585"/>
    <path d="M 258.449433 166.5535 
L 225.501922 171.255706 
L 225.614013 171.243402 
L 225.98788 171.202075 
L 258.919092 166.917018 
L 258.557775 166.637884 
z
" clip-path="url(#pdeeae3fd6e)" style="fill: #22a785"/>
    <path d="M 213.694077 172.921355 
L 184.240841 160.019769 
L 186.887523 159.2739 
L 187.787344 159.063417 
L 217.143572 171.606302 
L 216.269334 171.97862 
z
" clip-path="url(#pdeeae3fd6e)" style="fill: #27ad81"/>
    <path d="M 175.63914 164.875963 
L 141.606989 156.521136 
L 142.523732 155.900077 
L 143.220838 155.392062 
L 177.214354 163.501972 
L 176.533074 164.092653 
z
" clip-path="url(#pdeeae3fd6e)" style="fill: #37b878"/>
    <path d="M 257.47551 165.77141 
L 224.493255 171.15678 
L 224.866921 171.254909 
L 225.501922 171.255706 
L 258.449433 166.5535 
L 257.835981 166.065755 
z
" clip-path="url(#pdeeae3fd6e)" style="fill: #23a983"/>
    <path d="M 174.037122 166.301193 
L 139.958929 157.52468 
L 140.874136 156.983624 
L 141.606989 156.521136 
L 175.63914 164.875963 
L 174.926016 165.507148 
z
" clip-path="url(#pdeeae3fd6e)" style="fill: #37b878"/>
    <path d="M 256.359752 164.832896 
L 223.335773 170.685363 
L 223.970138 170.93892 
L 224.493255 171.15678 
L 257.47551 165.77141 
L 256.971315 165.350513 
z
" clip-path="url(#pdeeae3fd6e)" style="fill: #26ad81"/>
    <path d="M 212.470538 173.657315 
L 182.980278 160.384172 
L 183.684209 160.181967 
L 184.240841 160.019769 
L 213.694077 172.921355 
L 213.153277 173.20425 
z
" clip-path="url(#pdeeae3fd6e)" style="fill: #2ab07f"/>
    <path d="M 303.720557 149.787365 
L 267.263098 176.514225 
L 267.765844 177.875384 
L 267.909118 178.298245 
L 304.1182 159.56012 
L 304.033983 157.24025 
z
" clip-path="url(#pdeeae3fd6e)" style="fill: #2cb17e"/>
    <path d="M 172.408778 167.774717 
L 138.278146 158.434276 
L 138.752671 158.186729 
L 139.958929 157.52468 
L 174.037122 166.301193 
L 172.86802 167.35683 
z
" clip-path="url(#pdeeae3fd6e)" style="fill: #38b977"/>
    <path d="M 255.569056 164.207383 
L 222.517589 170.572324 
L 222.963468 170.603096 
L 223.335773 170.685363 
L 256.359752 164.832896 
L 256.000268 164.537968 
z
" clip-path="url(#pdeeae3fd6e)" style="fill: #2ab07f"/>
    <path d="M 210.042344 175.580639 
L 180.475635 161.262721 
L 181.356472 160.903031 
L 182.980278 160.384172 
L 212.470538 173.657315 
L 210.898178 174.98569 
z
" clip-path="url(#pdeeae3fd6e)" style="fill: #2db27d"/>
    <path d="M 254.061246 163.284655 
L 220.962996 170.759451 
L 222.443363 170.573052 
L 222.517589 170.572324 
L 255.569056 164.207383 
L 255.4972 164.155665 
z
" clip-path="url(#pdeeae3fd6e)" style="fill: #2eb37c"/>
    <path d="M 169.179658 170.755449 
L 134.934047 160.063478 
L 135.839995 159.633075 
L 138.278146 158.434276 
L 172.408778 167.774717 
L 170.053547 169.942335 
z
" clip-path="url(#pdeeae3fd6e)" style="fill: #38b977"/>
    <path d="M 303.021282 140.368878 
L 266.323664 174.549531 
L 267.083013 176.078708 
L 267.263098 176.514225 
L 303.720557 149.787365 
L 303.59964 147.456785 
z
" clip-path="url(#pdeeae3fd6e)" style="fill: #46c06f"/>
    <path d="M 208.440384 176.426451 
L 178.836288 162.195133 
L 179.380755 161.839368 
L 180.475635 161.262721 
L 210.042344 175.580639 
L 208.973775 176.164798 
z
" clip-path="url(#pdeeae3fd6e)" style="fill: #2eb37c"/>
    <path d="M 252.557967 162.37183 
L 219.413559 170.820027 
L 220.261649 170.829621 
L 220.962996 170.759451 
L 254.061246 163.284655 
L 253.380465 162.900859 
z
" clip-path="url(#pdeeae3fd6e)" style="fill: #35b779"/>
    <path d="M 206.846032 177.272552 
L 177.214354 163.501972 
L 177.753435 163.041437 
L 178.836288 162.195133 
L 208.440384 176.426451 
L 207.376313 176.965368 
z
" clip-path="url(#pdeeae3fd6e)" style="fill: #2fb47c"/>
    <path d="M 251.879971 161.843846 
L 218.714955 170.890007 
L 219.37673 170.820221 
L 219.413559 170.820027 
L 252.557967 162.37183 
L 252.52225 162.346074 
z
" clip-path="url(#pdeeae3fd6e)" style="fill: #3bbb75"/>
    <path d="M 301.814397 139.644901 
L 265.087769 172.820545 
L 266.105996 174.188989 
L 266.323664 174.549531 
L 303.021282 140.368878 
L 302.830797 139.332532 
z
" clip-path="url(#pdeeae3fd6e)" style="fill: #63cb5f"/>
    <path d="M 205.299277 178.450086 
L 175.63914 164.875963 
L 176.533074 164.092653 
L 177.214354 163.501972 
L 206.846032 177.272552 
L 206.176456 177.727703 
z
" clip-path="url(#pdeeae3fd6e)" style="fill: #31b57b"/>
    <path d="M 250.34896 160.603866 
L 217.143572 171.606302 
L 217.836637 171.245093 
L 218.714955 170.890007 
L 251.879971 161.843846 
L 251.024989 161.134685 
z
" clip-path="url(#pdeeae3fd6e)" style="fill: #42be71"/>
    <path d="M 300.94802 141.283648 
L 264.250348 171.91394 
L 264.687235 172.375416 
L 265.087769 172.820545 
L 301.814397 139.644901 
L 301.395199 140.612692 
z
" clip-path="url(#pdeeae3fd6e)" style="fill: #6ccd5a"/>
    <path d="M 203.726829 179.763112 
L 174.037122 166.301193 
L 174.926016 165.507148 
L 175.63914 164.875963 
L 205.299277 178.450086 
L 204.599754 179.057767 
z
" clip-path="url(#pdeeae3fd6e)" style="fill: #31b57b"/>
    <path d="M 299.966037 141.887113 
L 263.268382 170.889665 
L 263.450116 171.078225 
L 264.250348 171.91394 
L 300.94802 141.283648 
L 300.14727 141.792251 
z
" clip-path="url(#pdeeae3fd6e)" style="fill: #70cf57"/>
    <path d="M 202.124868 180.913879 
L 172.408778 167.774717 
L 172.86802 167.35683 
L 174.037122 166.301193 
L 203.726829 179.763112 
L 202.576987 180.603092 
z
" clip-path="url(#pdeeae3fd6e)" style="fill: #31b57b"/>
    <path d="M 254.061246 163.284655 
L 255.4972 164.155665 
L 255.569056 164.207383 
z
" clip-path="url(#pdeeae3fd6e)" style="fill: #56c667"/>
    <path d="M 246.983572 157.306534 
L 213.694077 172.921355 
L 216.269334 171.97862 
L 217.143572 171.606302 
L 250.34896 160.603866 
L 249.496343 159.912323 
z
" clip-path="url(#pdeeae3fd6e)" style="fill: #4ec36b"/>
    <path d="M 298.506869 143.188291 
L 261.816134 169.422968 
L 262.94138 170.552428 
L 263.268382 170.889665 
L 299.966037 141.887113 
L 299.638744 142.112853 
z
" clip-path="url(#pdeeae3fd6e)" style="fill: #77d153"/>
    <path d="M 198.942329 183.036615 
L 169.179658 170.755449 
L 170.053547 169.942335 
L 172.408778 167.774717 
L 202.124868 180.913879 
L 199.80385 182.450363 
z
" clip-path="url(#pdeeae3fd6e)" style="fill: #31b57b"/>
    <path d="M 297.452889 144.139387 
L 260.764869 168.434266 
L 261.489745 169.107754 
L 261.816134 169.422968 
L 298.506869 143.188291 
L 298.179063 143.498153 
z
" clip-path="url(#pdeeae3fd6e)" style="fill: #81d34d"/>
    <path d="M 252.557967 162.37183 
L 253.380465 162.900859 
L 254.061246 163.284655 
z
" clip-path="url(#pdeeae3fd6e)" style="fill: #65cb5e"/>
    <path d="M 296.728594 144.769326 
L 260.040559 167.805239 
L 260.366431 168.082237 
L 260.764869 168.434266 
L 297.452889 144.139387 
L 297.05438 144.483513 
z
" clip-path="url(#pdeeae3fd6e)" style="fill: #86d549"/>
    <path d="M 245.784304 155.954247 
L 212.470538 173.657315 
L 213.153277 173.20425 
L 213.694077 172.921355 
L 246.983572 157.306534 
L 246.454205 156.706034 
z
" clip-path="url(#pdeeae3fd6e)" style="fill: #5ec962"/>
    <path d="M 251.879971 161.843846 
L 252.52225 162.346074 
L 252.557967 162.37183 
z
" clip-path="url(#pdeeae3fd6e)" style="fill: #6ece58"/>
    <path d="M 295.969432 145.448208 
L 259.280653 167.196445 
L 259.93196 167.715261 
L 260.040559 167.805239 
L 296.728594 144.769326 
L 296.620051 144.865522 
z
" clip-path="url(#pdeeae3fd6e)" style="fill: #8bd646"/>
    <path d="M 295.608523 145.772821 
L 258.919092 166.917018 
L 259.063689 167.02849 
L 259.280653 167.196445 
L 295.969432 145.448208 
L 295.752835 145.643109 
z
" clip-path="url(#pdeeae3fd6e)" style="fill: #8ed645"/>
    <path d="M 295.140003 146.192287 
L 258.449433 166.5535 
L 258.557775 166.637884 
L 258.919092 166.917018 
L 295.608523 145.772821 
L 295.248057 146.095754 
z
" clip-path="url(#pdeeae3fd6e)" style="fill: #90d743"/>
    <path d="M 250.34896 160.603866 
L 251.024989 161.134685 
L 251.879971 161.843846 
z
" clip-path="url(#pdeeae3fd6e)" style="fill: #7cd250"/>
    <path d="M 243.392196 153.635689 
L 210.042344 175.580639 
L 210.898178 174.98569 
L 212.470538 173.657315 
L 245.784304 155.954247 
L 244.2355 154.356021 
z
" clip-path="url(#pdeeae3fd6e)" style="fill: #69cd5b"/>
    <path d="M 294.169254 147.056256 
L 257.47551 165.77141 
L 257.835981 166.065755 
L 258.449433 166.5535 
L 295.140003 146.192287 
L 294.528433 146.737035 
z
" clip-path="url(#pdeeae3fd6e)" style="fill: #95d840"/>
    <path d="M 255.569056 164.207383 
L 256.000268 164.537968 
L 256.359752 164.832896 
L 293.058355 148.045352 
L 292.700792 148.365721 
z
" clip-path="url(#pdeeae3fd6e)" style="fill: #8ed645"/>
    <path d="M 293.058355 148.045352 
L 256.359752 164.832896 
L 256.971315 165.350513 
L 257.47551 165.77141 
L 294.169254 147.056256 
L 293.667089 147.502633 
z
" clip-path="url(#pdeeae3fd6e)" style="fill: #9bd93c"/>
    <path d="M 241.814171 152.718138 
L 208.440384 176.426451 
L 208.973775 176.164798 
L 210.042344 175.580639 
L 243.392196 153.635689 
L 242.339682 152.95405 
z
" clip-path="url(#pdeeae3fd6e)" style="fill: #75d054"/>
    <path d="M 246.983572 157.306534 
L 249.496343 159.912323 
L 250.34896 160.603866 
z
" clip-path="url(#pdeeae3fd6e)" style="fill: #95d840"/>
    <path d="M 240.24113 152.492812 
L 206.846032 177.272552 
L 207.376313 176.965368 
L 208.440384 176.426451 
L 241.814171 152.718138 
L 240.764849 152.482394 
z
" clip-path="url(#pdeeae3fd6e)" style="fill: #7cd250"/>
    <path d="M 238.709135 153.073438 
L 205.299277 178.450086 
L 206.176456 177.727703 
L 206.846032 177.272552 
L 240.24113 152.492812 
L 239.578764 152.639007 
z
" clip-path="url(#pdeeae3fd6e)" style="fill: #81d34d"/>
    <path d="M 245.784304 155.954247 
L 246.454205 156.706034 
L 246.983572 157.306534 
z
" clip-path="url(#pdeeae3fd6e)" style="fill: #b8de29"/>
    <path d="M 237.149935 154.393268 
L 203.726829 179.763112 
L 204.599754 179.057767 
L 205.299277 178.450086 
L 238.709135 153.073438 
L 238.01516 153.613049 
z
" clip-path="url(#pdeeae3fd6e)" style="fill: #84d44b"/>
    <path d="M 235.564131 155.735617 
L 202.124868 180.913879 
L 202.576987 180.603092 
L 203.726829 179.763112 
L 237.149935 154.393268 
L 236.011492 155.370146 
z
" clip-path="url(#pdeeae3fd6e)" style="fill: #84d44b"/>
    <path d="M 243.392196 153.635689 
L 244.2355 154.356021 
L 245.784304 155.954247 
z
" clip-path="url(#pdeeae3fd6e)" style="fill: #d2e21b"/>
    <path d="M 232.416675 158.399871 
L 198.942329 183.036615 
L 199.80385 182.450363 
L 202.124868 180.913879 
L 235.564131 155.735617 
L 233.268654 157.624222 
z
" clip-path="url(#pdeeae3fd6e)" style="fill: #84d44b"/>
    <path d="M 241.814171 152.718138 
L 242.339682 152.95405 
L 243.392196 153.635689 
z
" clip-path="url(#pdeeae3fd6e)" style="fill: #eae51a"/>
    <path d="M 240.24113 152.492812 
L 240.764849 152.482394 
L 241.814171 152.718138 
z
" clip-path="url(#pdeeae3fd6e)" style="fill: #f6e620"/>
    <path d="M 238.709135 153.073438 
L 239.578764 152.639007 
L 240.24113 152.492812 
z
" clip-path="url(#pdeeae3fd6e)" style="fill: #fde725"/>
    <path d="M 237.149935 154.393268 
L 238.01516 153.613049 
L 238.709135 153.073438 
z
" clip-path="url(#pdeeae3fd6e)" style="fill: #fde725"/>
    <path d="M 235.564131 155.735617 
L 236.011492 155.370146 
L 237.149935 154.393268 
z
" clip-path="url(#pdeeae3fd6e)" style="fill: #fde725"/>
    <path d="M 232.416675 158.399871 
L 233.268654 157.624222 
L 235.564131 155.735617 
z
" clip-path="url(#pdeeae3fd6e)" style="fill: #fde725"/>
   </g>
   <g id="text_21">
    <!-- Implied vol -->
    <g transform="translate(203.105625 35.472) scale(0.12 -0.12)">
     <defs>
      <path id="DejaVuSans-49" d="M 628 4666 
L 1259 4666 
L 1259 0 
L 628 0 
L 628 4666 
z
" transform="scale(0.015625)"/>
      <path id="DejaVuSans-6d" d="M 3328 2828 
Q 3544 3216 3844 3400 
Q 4144 3584 4550 3584 
Q 5097 3584 5394 3201 
Q 5691 2819 5691 2113 
L 5691 0 
L 5113 0 
L 5113 2094 
Q 5113 2597 4934 2840 
Q 4756 3084 4391 3084 
Q 3944 3084 3684 2787 
Q 3425 2491 3425 1978 
L 3425 0 
L 2847 0 
L 2847 2094 
Q 2847 2600 2669 2842 
Q 2491 3084 2119 3084 
Q 1678 3084 1418 2786 
Q 1159 2488 1159 1978 
L 1159 0 
L 581 0 
L 581 3500 
L 1159 3500 
L 1159 2956 
Q 1356 3278 1631 3431 
Q 1906 3584 2284 3584 
Q 2666 3584 2933 3390 
Q 3200 3197 3328 2828 
z
" transform="scale(0.015625)"/>
      <path id="DejaVuSans-64" d="M 2906 2969 
L 2906 4863 
L 3481 4863 
L 3481 0 
L 2906 0 
L 2906 525 
Q 2725 213 2448 61 
Q 2172 -91 1784 -91 
Q 1150 -91 751 415 
Q 353 922 353 1747 
Q 353 2572 751 3078 
Q 1150 3584 1784 3584 
Q 2172 3584 2448 3432 
Q 2725 3281 2906 2969 
z
M 947 1747 
Q 947 1113 1208 752 
Q 1469 391 1925 391 
Q 2381 391 2643 752 
Q 2906 1113 2906 1747 
Q 2906 2381 2643 2742 
Q 2381 3103 1925 3103 
Q 1469 3103 1208 2742 
Q 947 2381 947 1747 
z
" transform="scale(0.015625)"/>
      <path id="DejaVuSans-20" transform="scale(0.015625)"/>
      <path id="DejaVuSans-76" d="M 191 3500 
L 800 3500 
L 1894 563 
L 2988 3500 
L 3597 3500 
L 2284 0 
L 1503 0 
L 191 3500 
z
" transform="scale(0.015625)"/>
     </defs>
     <use xlink:href="#DejaVuSans-49"/>
     <use xlink:href="#DejaVuSans-6d" x="29.492188"/>
     <use xlink:href="#DejaVuSans-70" x="126.904297"/>
     <use xlink:href="#DejaVuSans-6c" x="190.380859"/>
     <use xlink:href="#DejaVuSans-69" x="218.164062"/>
     <use xlink:href="#DejaVuSans-65" x="245.947266"/>
     <use xlink:href="#DejaVuSans-64" x="307.470703"/>
     <use xlink:href="#DejaVuSans-20" x="370.947266"/>
     <use xlink:href="#DejaVuSans-76" x="402.734375"/>
     <use xlink:href="#DejaVuSans-6f" x="461.914062"/>
     <use xlink:href="#DejaVuSans-6c" x="523.095703"/>
    </g>
   </g>
  </g>
 </g>
 <defs>
  <clipPath id="pdeeae3fd6e">
   <rect x="103.104" y="41.472" width="266.112" height="266.112"/>
  </clipPath>
 </defs>
</svg>
