<?xml version="1.0" encoding="utf-8" standalone="no"?>
<!DOCTYPE svg PUBLIC "-//W3C//DTD SVG 1.1//EN"
  "http://www.w3.org/Graphics/SVG/1.1/DTD/svg11.dtd">
<svg xmlns:xlink="http://www.w3.org/1999/xlink" width="460.8pt" height="345.6pt" viewBox="0 0 460.8 345.6" xmlns="http://www.w3.org/2000/svg" version="1.1">
 <metadata>
  <rdf:RDF xmlns:dc="http://purl.org/dc/elements/1.1/" xmlns:cc="http://creativecommons.org/ns#" xmlns:rdf="http://www.w3.org/1999/02/22-rdf-syntax-ns#">
   <cc:Work>
    <dc:type rdf:resource="http://purl.org/dc/dcmitype/StillImage"/>
    <dc:date>2024-03-24T14:00:00.183634</dc:date>
    <dc:format>image/svg+xml</dc:format>
    <dc:creator>
     <cc:Agent>
      <dc:title>Matplotlib v3.7.3, https://matplotlib.org/</dc:title>
     </cc:Agent>
    </dc:creator>
   </cc:Work>
  </rdf:RDF>
 </metadata>
 <defs>
  <style type="text/css">*{stroke-linejoin: round; stroke-linecap: butt}</style>
 </defs>
 <g id="figure_1">
  <g id="patch_1">
   <path d="M 0 345.6 
L 460.8 345.6 
L 460.8 0 
L 0 0 
z
" style="fill: #ffffff"/>
  </g>
  <g id="axes_1">
   <g id="patch_2">
    <path d="M 57.6 307.584 
L 414.72 307.584 
L 414.72 41.472 
L 57.6 41.472 
z
" style="fill: #ffffff"/>
   </g>
   <g id="matplotlib.axis_1">
    <g id="xtick_1">
     <g id="line2d_1">
      <path d="M 73.818116 307.584 
L 73.818116 41.472 
" clip-path="url(#pcdda969ebd)" style="fill: none; stroke: #b0b0b0; stroke-width: 0.8; stroke-linecap: square"/>
     </g>
     <g id="line2d_2">
      <defs>
       <path id="mb66fed0ac7" d="M 0 0 
L 0 3.5 
" style="stroke: #000000; stroke-width: 0.8"/>
      </defs>
      <g>
       <use xlink:href="#mb66fed0ac7" x="73.818116" y="307.584" style="stroke: #000000; stroke-width: 0.8"/>
      </g>
     </g>
     <g id="text_1">
      <!-- 0.900 -->
      <g transform="translate(59.504054 322.182437) scale(0.1 -0.1)">
       <defs>
        <path id="DejaVuSans-30" d="M 2034 4250 
Q 1547 4250 1301 3770 
Q 1056 3291 1056 2328 
Q 1056 1369 1301 889 
Q 1547 409 2034 409 
Q 2525 409 2770 889 
Q 3016 1369 3016 2328 
Q 3016 3291 2770 3770 
Q 2525 4250 2034 4250 
z
M 2034 4750 
Q 2819 4750 3233 4129 
Q 3647 3509 3647 2328 
Q 3647 1150 3233 529 
Q 2819 -91 2034 -91 
Q 1250 -91 836 529 
Q 422 1150 422 2328 
Q 422 3509 836 4129 
Q 1250 4750 2034 4750 
z
" transform="scale(0.015625)"/>
        <path id="DejaVuSans-2e" d="M 684 794 
L 1344 794 
L 1344 0 
L 684 0 
L 684 794 
z
" transform="scale(0.015625)"/>
        <path id="DejaVuSans-39" d="M 703 97 
L 703 672 
Q 941 559 1184 500 
Q 1428 441 1663 441 
Q 2288 441 2617 861 
Q 2947 1281 2994 2138 
Q 2813 1869 2534 1725 
Q 2256 1581 1919 1581 
Q 1219 1581 811 2004 
Q 403 2428 403 3163 
Q 403 3881 828 4315 
Q 1253 4750 1959 4750 
Q 2769 4750 3195 4129 
Q 3622 3509 3622 2328 
Q 3622 1225 3098 567 
Q 2575 -91 1691 -91 
Q 1453 -91 1209 -44 
Q 966 3 703 97 
z
M 1959 2075 
Q 2384 2075 2632 2365 
Q 2881 2656 2881 3163 
Q 2881 3666 2632 3958 
Q 2384 4250 1959 4250 
Q 1534 4250 1286 3958 
Q 1038 3666 1038 3163 
Q 1038 2656 1286 2365 
Q 1534 2075 1959 2075 
z
" transform="scale(0.015625)"/>
       </defs>
       <use xlink:href="#DejaVuSans-30"/>
       <use xlink:href="#DejaVuSans-2e" x="63.623047"/>
       <use xlink:href="#DejaVuSans-39" x="95.410156"/>
       <use xlink:href="#DejaVuSans-30" x="159.033203"/>
       <use xlink:href="#DejaVuSans-30" x="222.65625"/>
      </g>
     </g>
    </g>
    <g id="xtick_2">
     <g id="line2d_3">
      <path d="M 114.403993 307.584 
L 114.403993 41.472 
" clip-path="url(#pcdda969ebd)" style="fill: none; stroke: #b0b0b0; stroke-width: 0.8; stroke-linecap: square"/>
     </g>
     <g id="line2d_4">
      <g>
       <use xlink:href="#mb66fed0ac7" x="114.403993" y="307.584" style="stroke: #000000; stroke-width: 0.8"/>
      </g>
     </g>
     <g id="text_2">
      <!-- 0.925 -->
      <g transform="translate(100.08993 322.182437) scale(0.1 -0.1)">
       <defs>
        <path id="DejaVuSans-32" d="M 1228 531 
L 3431 531 
L 3431 0 
L 469 0 
L 469 531 
Q 828 903 1448 1529 
Q 2069 2156 2228 2338 
Q 2531 2678 2651 2914 
Q 2772 3150 2772 3378 
Q 2772 3750 2511 3984 
Q 2250 4219 1831 4219 
Q 1534 4219 1204 4116 
Q 875 4013 500 3803 
L 500 4441 
Q 881 4594 1212 4672 
Q 1544 4750 1819 4750 
Q 2544 4750 2975 4387 
Q 3406 4025 3406 3419 
Q 3406 3131 3298 2873 
Q 3191 2616 2906 2266 
Q 2828 2175 2409 1742 
Q 1991 1309 1228 531 
z
" transform="scale(0.015625)"/>
        <path id="DejaVuSans-35" d="M 691 4666 
L 3169 4666 
L 3169 4134 
L 1269 4134 
L 1269 2991 
Q 1406 3038 1543 3061 
Q 1681 3084 1819 3084 
Q 2600 3084 3056 2656 
Q 3513 2228 3513 1497 
Q 3513 744 3044 326 
Q 2575 -91 1722 -91 
Q 1428 -91 1123 -41 
Q 819 9 494 109 
L 494 744 
Q 775 591 1075 516 
Q 1375 441 1709 441 
Q 2250 441 2565 725 
Q 2881 1009 2881 1497 
Q 2881 1984 2565 2268 
Q 2250 2553 1709 2553 
Q 1456 2553 1204 2497 
Q 953 2441 691 2322 
L 691 4666 
z
" transform="scale(0.015625)"/>
       </defs>
       <use xlink:href="#DejaVuSans-30"/>
       <use xlink:href="#DejaVuSans-2e" x="63.623047"/>
       <use xlink:href="#DejaVuSans-39" x="95.410156"/>
       <use xlink:href="#DejaVuSans-32" x="159.033203"/>
       <use xlink:href="#DejaVuSans-35" x="222.65625"/>
      </g>
     </g>
    </g>
    <g id="xtick_3">
     <g id="line2d_5">
      <path d="M 154.98987 307.584 
L 154.98987 41.472 
" clip-path="url(#pcdda969ebd)" style="fill: none; stroke: #b0b0b0; stroke-width: 0.8; stroke-linecap: square"/>
     </g>
     <g id="line2d_6">
      <g>
       <use xlink:href="#mb66fed0ac7" x="154.98987" y="307.584" style="stroke: #000000; stroke-width: 0.8"/>
      </g>
     </g>
     <g id="text_3">
      <!-- 0.950 -->
      <g transform="translate(140.675807 322.182437) scale(0.1 -0.1)">
       <use xlink:href="#DejaVuSans-30"/>
       <use xlink:href="#DejaVuSans-2e" x="63.623047"/>
       <use xlink:href="#DejaVuSans-39" x="95.410156"/>
       <use xlink:href="#DejaVuSans-35" x="159.033203"/>
       <use xlink:href="#DejaVuSans-30" x="222.65625"/>
      </g>
     </g>
    </g>
    <g id="xtick_4">
     <g id="line2d_7">
      <path d="M 195.575747 307.584 
L 195.575747 41.472 
" clip-path="url(#pcdda969ebd)" style="fill: none; stroke: #b0b0b0; stroke-width: 0.8; stroke-linecap: square"/>
     </g>
     <g id="line2d_8">
      <g>
       <use xlink:href="#mb66fed0ac7" x="195.575747" y="307.584" style="stroke: #000000; stroke-width: 0.8"/>
      </g>
     </g>
     <g id="text_4">
      <!-- 0.975 -->
      <g transform="translate(181.261684 322.182437) scale(0.1 -0.1)">
       <defs>
        <path id="DejaVuSans-37" d="M 525 4666 
L 3525 4666 
L 3525 4397 
L 1831 0 
L 1172 0 
L 2766 4134 
L 525 4134 
L 525 4666 
z
" transform="scale(0.015625)"/>
       </defs>
       <use xlink:href="#DejaVuSans-30"/>
       <use xlink:href="#DejaVuSans-2e" x="63.623047"/>
       <use xlink:href="#DejaVuSans-39" x="95.410156"/>
       <use xlink:href="#DejaVuSans-37" x="159.033203"/>
       <use xlink:href="#DejaVuSans-35" x="222.65625"/>
      </g>
     </g>
    </g>
    <g id="xtick_5">
     <g id="line2d_9">
      <path d="M 236.161623 307.584 
L 236.161623 41.472 
" clip-path="url(#pcdda969ebd)" style="fill: none; stroke: #b0b0b0; stroke-width: 0.8; stroke-linecap: square"/>
     </g>
     <g id="line2d_10">
      <g>
       <use xlink:href="#mb66fed0ac7" x="236.161623" y="307.584" style="stroke: #000000; stroke-width: 0.8"/>
      </g>
     </g>
     <g id="text_5">
      <!-- 1.000 -->
      <g transform="translate(221.847561 322.182437) scale(0.1 -0.1)">
       <defs>
        <path id="DejaVuSans-31" d="M 794 531 
L 1825 531 
L 1825 4091 
L 703 3866 
L 703 4441 
L 1819 4666 
L 2450 4666 
L 2450 531 
L 3481 531 
L 3481 0 
L 794 0 
L 794 531 
z
" transform="scale(0.015625)"/>
       </defs>
       <use xlink:href="#DejaVuSans-31"/>
       <use xlink:href="#DejaVuSans-2e" x="63.623047"/>
       <use xlink:href="#DejaVuSans-30" x="95.410156"/>
       <use xlink:href="#DejaVuSans-30" x="159.033203"/>
       <use xlink:href="#DejaVuSans-30" x="222.65625"/>
      </g>
     </g>
    </g>
    <g id="xtick_6">
     <g id="line2d_11">
      <path d="M 276.7475 307.584 
L 276.7475 41.472 
" clip-path="url(#pcdda969ebd)" style="fill: none; stroke: #b0b0b0; stroke-width: 0.8; stroke-linecap: square"/>
     </g>
     <g id="line2d_12">
      <g>
       <use xlink:href="#mb66fed0ac7" x="276.7475" y="307.584" style="stroke: #000000; stroke-width: 0.8"/>
      </g>
     </g>
     <g id="text_6">
      <!-- 1.025 -->
      <g transform="translate(262.433438 322.182437) scale(0.1 -0.1)">
       <use xlink:href="#DejaVuSans-31"/>
       <use xlink:href="#DejaVuSans-2e" x="63.623047"/>
       <use xlink:href="#DejaVuSans-30" x="95.410156"/>
       <use xlink:href="#DejaVuSans-32" x="159.033203"/>
       <use xlink:href="#DejaVuSans-35" x="222.65625"/>
      </g>
     </g>
    </g>
    <g id="xtick_7">
     <g id="line2d_13">
      <path d="M 317.333377 307.584 
L 317.333377 41.472 
" clip-path="url(#pcdda969ebd)" style="fill: none; stroke: #b0b0b0; stroke-width: 0.8; stroke-linecap: square"/>
     </g>
     <g id="line2d_14">
      <g>
       <use xlink:href="#mb66fed0ac7" x="317.333377" y="307.584" style="stroke: #000000; stroke-width: 0.8"/>
      </g>
     </g>
     <g id="text_7">
      <!-- 1.050 -->
      <g transform="translate(303.019314 322.182437) scale(0.1 -0.1)">
       <use xlink:href="#DejaVuSans-31"/>
       <use xlink:href="#DejaVuSans-2e" x="63.623047"/>
       <use xlink:href="#DejaVuSans-30" x="95.410156"/>
       <use xlink:href="#DejaVuSans-35" x="159.033203"/>
       <use xlink:href="#DejaVuSans-30" x="222.65625"/>
      </g>
     </g>
    </g>
    <g id="xtick_8">
     <g id="line2d_15">
      <path d="M 357.919254 307.584 
L 357.919254 41.472 
" clip-path="url(#pcdda969ebd)" style="fill: none; stroke: #b0b0b0; stroke-width: 0.8; stroke-linecap: square"/>
     </g>
     <g id="line2d_16">
      <g>
       <use xlink:href="#mb66fed0ac7" x="357.919254" y="307.584" style="stroke: #000000; stroke-width: 0.8"/>
      </g>
     </g>
     <g id="text_8">
      <!-- 1.075 -->
      <g transform="translate(343.605191 322.182437) scale(0.1 -0.1)">
       <use xlink:href="#DejaVuSans-31"/>
       <use xlink:href="#DejaVuSans-2e" x="63.623047"/>
       <use xlink:href="#DejaVuSans-30" x="95.410156"/>
       <use xlink:href="#DejaVuSans-37" x="159.033203"/>
       <use xlink:href="#DejaVuSans-35" x="222.65625"/>
      </g>
     </g>
    </g>
    <g id="xtick_9">
     <g id="line2d_17">
      <path d="M 398.50513 307.584 
L 398.50513 41.472 
" clip-path="url(#pcdda969ebd)" style="fill: none; stroke: #b0b0b0; stroke-width: 0.8; stroke-linecap: square"/>
     </g>
     <g id="line2d_18">
      <g>
       <use xlink:href="#mb66fed0ac7" x="398.50513" y="307.584" style="stroke: #000000; stroke-width: 0.8"/>
      </g>
     </g>
     <g id="text_9">
      <!-- 1.100 -->
      <g transform="translate(384.191068 322.182437) scale(0.1 -0.1)">
       <use xlink:href="#DejaVuSans-31"/>
       <use xlink:href="#DejaVuSans-2e" x="63.623047"/>
       <use xlink:href="#DejaVuSans-31" x="95.410156"/>
       <use xlink:href="#DejaVuSans-30" x="159.033203"/>
       <use xlink:href="#DejaVuSans-30" x="222.65625"/>
      </g>
     </g>
    </g>
    <g id="text_10">
     <!-- Strike/spot -->
     <g transform="translate(209.307656 335.860562) scale(0.1 -0.1)">
      <defs>
       <path id="DejaVuSans-53" d="M 3425 4513 
L 3425 3897 
Q 3066 4069 2747 4153 
Q 2428 4238 2131 4238 
Q 1616 4238 1336 4038 
Q 1056 3838 1056 3469 
Q 1056 3159 1242 3001 
Q 1428 2844 1947 2747 
L 2328 2669 
Q 3034 2534 3370 2195 
Q 3706 1856 3706 1288 
Q 3706 609 3251 259 
Q 2797 -91 1919 -91 
Q 1588 -91 1214 -16 
Q 841 59 441 206 
L 441 856 
Q 825 641 1194 531 
Q 1563 422 1919 422 
Q 2459 422 2753 634 
Q 3047 847 3047 1241 
Q 3047 1584 2836 1778 
Q 2625 1972 2144 2069 
L 1759 2144 
Q 1053 2284 737 2584 
Q 422 2884 422 3419 
Q 422 4038 858 4394 
Q 1294 4750 2059 4750 
Q 2388 4750 2728 4690 
Q 3069 4631 3425 4513 
z
" transform="scale(0.015625)"/>
       <path id="DejaVuSans-74" d="M 1172 4494 
L 1172 3500 
L 2356 3500 
L 2356 3053 
L 1172 3053 
L 1172 1153 
Q 1172 725 1289 603 
Q 1406 481 1766 481 
L 2356 481 
L 2356 0 
L 1766 0 
Q 1100 0 847 248 
Q 594 497 594 1153 
L 594 3053 
L 172 3053 
L 172 3500 
L 594 3500 
L 594 4494 
L 1172 4494 
z
" transform="scale(0.015625)"/>
       <path id="DejaVuSans-72" d="M 2631 2963 
Q 2534 3019 2420 3045 
Q 2306 3072 2169 3072 
Q 1681 3072 1420 2755 
Q 1159 2438 1159 1844 
L 1159 0 
L 581 0 
L 581 3500 
L 1159 3500 
L 1159 2956 
Q 1341 3275 1631 3429 
Q 1922 3584 2338 3584 
Q 2397 3584 2469 3576 
Q 2541 3569 2628 3553 
L 2631 2963 
z
" transform="scale(0.015625)"/>
       <path id="DejaVuSans-69" d="M 603 3500 
L 1178 3500 
L 1178 0 
L 603 0 
L 603 3500 
z
M 603 4863 
L 1178 4863 
L 1178 4134 
L 603 4134 
L 603 4863 
z
" transform="scale(0.015625)"/>
       <path id="DejaVuSans-6b" d="M 581 4863 
L 1159 4863 
L 1159 1991 
L 2875 3500 
L 3609 3500 
L 1753 1863 
L 3688 0 
L 2938 0 
L 1159 1709 
L 1159 0 
L 581 0 
L 581 4863 
z
" transform="scale(0.015625)"/>
       <path id="DejaVuSans-65" d="M 3597 1894 
L 3597 1613 
L 953 1613 
Q 991 1019 1311 708 
Q 1631 397 2203 397 
Q 2534 397 2845 478 
Q 3156 559 3463 722 
L 3463 178 
Q 3153 47 2828 -22 
Q 2503 -91 2169 -91 
Q 1331 -91 842 396 
Q 353 884 353 1716 
Q 353 2575 817 3079 
Q 1281 3584 2069 3584 
Q 2775 3584 3186 3129 
Q 3597 2675 3597 1894 
z
M 3022 2063 
Q 3016 2534 2758 2815 
Q 2500 3097 2075 3097 
Q 1594 3097 1305 2825 
Q 1016 2553 972 2059 
L 3022 2063 
z
" transform="scale(0.015625)"/>
       <path id="DejaVuSans-2f" d="M 1625 4666 
L 2156 4666 
L 531 -594 
L 0 -594 
L 1625 4666 
z
" transform="scale(0.015625)"/>
       <path id="DejaVuSans-73" d="M 2834 3397 
L 2834 2853 
Q 2591 2978 2328 3040 
Q 2066 3103 1784 3103 
Q 1356 3103 1142 2972 
Q 928 2841 928 2578 
Q 928 2378 1081 2264 
Q 1234 2150 1697 2047 
L 1894 2003 
Q 2506 1872 2764 1633 
Q 3022 1394 3022 966 
Q 3022 478 2636 193 
Q 2250 -91 1575 -91 
Q 1294 -91 989 -36 
Q 684 19 347 128 
L 347 722 
Q 666 556 975 473 
Q 1284 391 1588 391 
Q 1994 391 2212 530 
Q 2431 669 2431 922 
Q 2431 1156 2273 1281 
Q 2116 1406 1581 1522 
L 1381 1569 
Q 847 1681 609 1914 
Q 372 2147 372 2553 
Q 372 3047 722 3315 
Q 1072 3584 1716 3584 
Q 2034 3584 2315 3537 
Q 2597 3491 2834 3397 
z
" transform="scale(0.015625)"/>
       <path id="DejaVuSans-70" d="M 1159 525 
L 1159 -1331 
L 581 -1331 
L 581 3500 
L 1159 3500 
L 1159 2969 
Q 1341 3281 1617 3432 
Q 1894 3584 2278 3584 
Q 2916 3584 3314 3078 
Q 3713 2572 3713 1747 
Q 3713 922 3314 415 
Q 2916 -91 2278 -91 
Q 1894 -91 1617 61 
Q 1341 213 1159 525 
z
M 3116 1747 
Q 3116 2381 2855 2742 
Q 2594 3103 2138 3103 
Q 1681 3103 1420 2742 
Q 1159 2381 1159 1747 
Q 1159 1113 1420 752 
Q 1681 391 2138 391 
Q 2594 391 2855 752 
Q 3116 1113 3116 1747 
z
" transform="scale(0.015625)"/>
       <path id="DejaVuSans-6f" d="M 1959 3097 
Q 1497 3097 1228 2736 
Q 959 2375 959 1747 
Q 959 1119 1226 758 
Q 1494 397 1959 397 
Q 2419 397 2687 759 
Q 2956 1122 2956 1747 
Q 2956 2369 2687 2733 
Q 2419 3097 1959 3097 
z
M 1959 3584 
Q 2709 3584 3137 3096 
Q 3566 2609 3566 1747 
Q 3566 888 3137 398 
Q 2709 -91 1959 -91 
Q 1206 -91 779 398 
Q 353 888 353 1747 
Q 353 2609 779 3096 
Q 1206 3584 1959 3584 
z
" transform="scale(0.015625)"/>
      </defs>
      <use xlink:href="#DejaVuSans-53"/>
      <use xlink:href="#DejaVuSans-74" x="63.476562"/>
      <use xlink:href="#DejaVuSans-72" x="102.685547"/>
      <use xlink:href="#DejaVuSans-69" x="143.798828"/>
      <use xlink:href="#DejaVuSans-6b" x="171.582031"/>
      <use xlink:href="#DejaVuSans-65" x="225.867188"/>
      <use xlink:href="#DejaVuSans-2f" x="287.390625"/>
      <use xlink:href="#DejaVuSans-73" x="321.082031"/>
      <use xlink:href="#DejaVuSans-70" x="373.181641"/>
      <use xlink:href="#DejaVuSans-6f" x="436.658203"/>
      <use xlink:href="#DejaVuSans-74" x="497.839844"/>
     </g>
    </g>
   </g>
   <g id="matplotlib.axis_2">
    <g id="ytick_1">
     <g id="line2d_19">
      <path d="M 57.6 265.776431 
L 414.72 265.776431 
" clip-path="url(#pcdda969ebd)" style="fill: none; stroke: #b0b0b0; stroke-width: 0.8; stroke-linecap: square"/>
     </g>
     <g id="line2d_20">
      <defs>
       <path id="m3b4dc03748" d="M 0 0 
L -3.5 0 
" style="stroke: #000000; stroke-width: 0.8"/>
      </defs>
      <g>
       <use xlink:href="#m3b4dc03748" x="57.6" y="265.776431" style="stroke: #000000; stroke-width: 0.8"/>
      </g>
     </g>
     <g id="text_11">
      <!-- 0.30 -->
      <g transform="translate(28.334375 269.575649) scale(0.1 -0.1)">
       <defs>
        <path id="DejaVuSans-33" d="M 2597 2516 
Q 3050 2419 3304 2112 
Q 3559 1806 3559 1356 
Q 3559 666 3084 287 
Q 2609 -91 1734 -91 
Q 1441 -91 1130 -33 
Q 819 25 488 141 
L 488 750 
Q 750 597 1062 519 
Q 1375 441 1716 441 
Q 2309 441 2620 675 
Q 2931 909 2931 1356 
Q 2931 1769 2642 2001 
Q 2353 2234 1838 2234 
L 1294 2234 
L 1294 2753 
L 1863 2753 
Q 2328 2753 2575 2939 
Q 2822 3125 2822 3475 
Q 2822 3834 2567 4026 
Q 2313 4219 1838 4219 
Q 1578 4219 1281 4162 
Q 984 4106 628 3988 
L 628 4550 
Q 988 4650 1302 4700 
Q 1616 4750 1894 4750 
Q 2613 4750 3031 4423 
Q 3450 4097 3450 3541 
Q 3450 3153 3228 2886 
Q 3006 2619 2597 2516 
z
" transform="scale(0.015625)"/>
       </defs>
       <use xlink:href="#DejaVuSans-30"/>
       <use xlink:href="#DejaVuSans-2e" x="63.623047"/>
       <use xlink:href="#DejaVuSans-33" x="95.410156"/>
       <use xlink:href="#DejaVuSans-30" x="159.033203"/>
      </g>
     </g>
    </g>
    <g id="ytick_2">
     <g id="line2d_21">
      <path d="M 57.6 214.565728 
L 414.72 214.565728 
" clip-path="url(#pcdda969ebd)" style="fill: none; stroke: #b0b0b0; stroke-width: 0.8; stroke-linecap: square"/>
     </g>
     <g id="line2d_22">
      <g>
       <use xlink:href="#m3b4dc03748" x="57.6" y="214.565728" style="stroke: #000000; stroke-width: 0.8"/>
      </g>
     </g>
     <g id="text_12">
      <!-- 0.35 -->
      <g transform="translate(28.334375 218.364947) scale(0.1 -0.1)">
       <use xlink:href="#DejaVuSans-30"/>
       <use xlink:href="#DejaVuSans-2e" x="63.623047"/>
       <use xlink:href="#DejaVuSans-33" x="95.410156"/>
       <use xlink:href="#DejaVuSans-35" x="159.033203"/>
      </g>
     </g>
    </g>
    <g id="ytick_3">
     <g id="line2d_23">
      <path d="M 57.6 163.355026 
L 414.72 163.355026 
" clip-path="url(#pcdda969ebd)" style="fill: none; stroke: #b0b0b0; stroke-width: 0.8; stroke-linecap: square"/>
     </g>
     <g id="line2d_24">
      <g>
       <use xlink:href="#m3b4dc03748" x="57.6" y="163.355026" style="stroke: #000000; stroke-width: 0.8"/>
      </g>
     </g>
     <g id="text_13">
      <!-- 0.40 -->
      <g transform="translate(28.334375 167.154245) scale(0.1 -0.1)">
       <defs>
        <path id="DejaVuSans-34" d="M 2419 4116 
L 825 1625 
L 2419 1625 
L 2419 4116 
z
M 2253 4666 
L 3047 4666 
L 3047 1625 
L 3713 1625 
L 3713 1100 
L 3047 1100 
L 3047 0 
L 2419 0 
L 2419 1100 
L 313 1100 
L 313 1709 
L 2253 4666 
z
" transform="scale(0.015625)"/>
       </defs>
       <use xlink:href="#DejaVuSans-30"/>
       <use xlink:href="#DejaVuSans-2e" x="63.623047"/>
       <use xlink:href="#DejaVuSans-34" x="95.410156"/>
       <use xlink:href="#DejaVuSans-30" x="159.033203"/>
      </g>
     </g>
    </g>
    <g id="ytick_4">
     <g id="line2d_25">
      <path d="M 57.6 112.144324 
L 414.72 112.144324 
" clip-path="url(#pcdda969ebd)" style="fill: none; stroke: #b0b0b0; stroke-width: 0.8; stroke-linecap: square"/>
     </g>
     <g id="line2d_26">
      <g>
       <use xlink:href="#m3b4dc03748" x="57.6" y="112.144324" style="stroke: #000000; stroke-width: 0.8"/>
      </g>
     </g>
     <g id="text_14">
      <!-- 0.45 -->
      <g transform="translate(28.334375 115.943543) scale(0.1 -0.1)">
       <use xlink:href="#DejaVuSans-30"/>
       <use xlink:href="#DejaVuSans-2e" x="63.623047"/>
       <use xlink:href="#DejaVuSans-34" x="95.410156"/>
       <use xlink:href="#DejaVuSans-35" x="159.033203"/>
      </g>
     </g>
    </g>
    <g id="ytick_5">
     <g id="line2d_27">
      <path d="M 57.6 60.933622 
L 414.72 60.933622 
" clip-path="url(#pcdda969ebd)" style="fill: none; stroke: #b0b0b0; stroke-width: 0.8; stroke-linecap: square"/>
     </g>
     <g id="line2d_28">
      <g>
       <use xlink:href="#m3b4dc03748" x="57.6" y="60.933622" style="stroke: #000000; stroke-width: 0.8"/>
      </g>
     </g>
     <g id="text_15">
      <!-- 0.50 -->
      <g transform="translate(28.334375 64.732841) scale(0.1 -0.1)">
       <use xlink:href="#DejaVuSans-30"/>
       <use xlink:href="#DejaVuSans-2e" x="63.623047"/>
       <use xlink:href="#DejaVuSans-35" x="95.410156"/>
       <use xlink:href="#DejaVuSans-30" x="159.033203"/>
      </g>
     </g>
    </g>
    <g id="text_16">
     <!-- Vol -->
     <g transform="translate(22.254688 182.00925) rotate(-90) scale(0.1 -0.1)">
      <defs>
       <path id="DejaVuSans-56" d="M 1831 0 
L 50 4666 
L 709 4666 
L 2188 738 
L 3669 4666 
L 4325 4666 
L 2547 0 
L 1831 0 
z
" transform="scale(0.015625)"/>
       <path id="DejaVuSans-6c" d="M 603 4863 
L 1178 4863 
L 1178 0 
L 603 0 
L 603 4863 
z
" transform="scale(0.015625)"/>
      </defs>
      <use xlink:href="#DejaVuSans-56"/>
      <use xlink:href="#DejaVuSans-6f" x="60.658203"/>
      <use xlink:href="#DejaVuSans-6c" x="121.839844"/>
     </g>
    </g>
   </g>
   <g id="line2d_29">
    <path d="M 121.775698 66.361957 
L 127.973025 66.361957 
L 131.659066 66.361963 
L 136.220425 66.361966 
L 138.081312 66.361963 
L 140.234146 66.361957 
L 141.384811 66.361951 
L 146.439421 66.361957 
L 151.527567 66.362059 
L 157.090204 66.362044 
L 157.972194 66.362007 
L 158.855191 66.361957 
L 160.624217 66.361829 
L 161.214792 66.361792 
L 163.433469 66.361768 
L 165.064543 66.361957 
L 167.145425 66.36245 
L 167.44315 66.362515 
L 171.17435 66.361957 
L 173.721813 66.359735 
L 177.181666 66.361235 
L 177.483247 66.361957 
L 182.324417 66.369877 
L 183.539393 66.361957 
L 186.27998 66.329315 
L 186.432515 66.327985 
L 188.724097 66.333909 
L 189.795788 66.361957 
L 192.404543 66.478569 
L 195.021943 66.45573 
L 195.947804 66.361957 
L 198.731897 65.903348 
L 202.148004 66.361957 
L 202.770696 66.727136 
L 204.953966 68.742428 
L 207.613153 72.327329 
L 208.396958 73.531455 
L 209.181534 74.772652 
L 214.063178 82.002669 
L 214.53718 82.544538 
L 215.644276 83.662402 
L 220.406361 90.69253 
L 220.72484 91.557622 
L 223.596835 102.567254 
L 226.639537 118.963431 
L 228.40636 129.792009 
L 234.863913 169.047201 
L 236.161623 175.514381 
L 238.112086 183.466732 
L 239.252022 186.911949 
L 241.209922 190.533234 
L 245.632478 190.596319 
L 247.770435 188.222186 
L 251.566721 183.3272 
L 257.377622 179.825726 
L 258.377917 179.661837 
L 264.069316 179.742451 
L 267.435625 179.80511 
L 270.13857 179.742451 
L 270.307797 179.736455 
L 282.583651 179.742451 
L 286.198432 180.288103 
L 289.655662 180.927077 
L 290.002171 180.988258 
L 294.868373 181.586036 
L 307.335186 181.586036 
L 311.769013 182.698315 
L 313.549047 183.3272 
L 321.965414 186.31642 
L 323.58657 186.669722 
L 325.752901 186.911949 
L 329.73879 186.805009 
L 332.102819 186.911949 
L 344.390628 192.340284 
L 347.721819 193.501137 
L 348.463825 193.701982 
L 350.507617 194.183869 
L 353.302376 194.754541 
L 360.987451 196.882111 
L 362.872166 197.768618 
" clip-path="url(#pcdda969ebd)" style="fill: none; stroke: #1f77b4; stroke-width: 1.5; stroke-linecap: square"/>
   </g>
   <g id="line2d_30">
    <path d="M 73.832727 165.403454 
L 92.61267 145.533702 
L 93.692682 144.536132 
L 104.991532 136.520618 
L 111.328113 127.507535 
L 112.712759 125.68197 
L 117.579232 120.338037 
L 121.775698 116.289815 
L 127.973025 110.78738 
L 131.659066 107.740052 
L 136.220425 104.155455 
L 138.081312 102.744212 
L 140.234146 101.158411 
L 141.384811 100.336641 
L 146.439421 97.009501 
L 151.527567 94.280272 
L 157.090204 92.255458 
L 157.972194 92.043825 
L 158.855191 91.864982 
L 160.624217 91.610525 
L 161.214792 91.557622 
L 163.433469 91.486476 
L 165.064543 91.512295 
L 167.145425 91.555746 
L 167.44315 91.557622 
L 171.17435 91.502356 
L 173.721813 91.557622 
L 177.181666 92.015881 
L 177.483247 92.077356 
L 182.324417 93.484054 
L 183.539393 93.949672 
L 186.27998 95.142371 
L 186.432515 95.214111 
L 188.724097 96.37423 
L 189.795788 96.985443 
L 192.404543 98.72712 
L 195.021943 100.872633 
L 195.947804 101.689777 
L 198.731897 104.155455 
L 202.148004 107.019767 
L 202.770696 107.555996 
L 204.953966 109.583789 
L 207.613153 112.517872 
L 208.396958 113.488275 
L 209.181534 114.50793 
L 214.063178 121.943319 
L 214.53718 122.765897 
L 215.644276 124.756859 
L 220.406361 134.439424 
L 220.72484 135.152037 
L 223.596835 141.948953 
L 226.639537 149.832066 
L 228.40636 154.640345 
L 234.863913 172.628734 
L 236.161623 176.157702 
L 238.112086 181.310568 
L 239.252022 184.227181 
L 241.209922 189.055754 
L 245.632478 199.000647 
L 247.770435 203.262161 
L 251.566721 209.819559 
L 257.377622 216.98246 
L 258.377917 217.823635 
L 264.069316 220.14875 
L 267.435625 219.379534 
L 270.13857 217.542941 
L 270.307797 217.394895 
L 282.583651 200.154302 
L 286.198432 194.183869 
L 289.655662 188.81621 
L 290.002171 188.300296 
L 294.868373 181.465197 
L 307.335186 167.194245 
L 311.769013 163.133899 
L 313.549047 161.639908 
L 321.965414 155.548495 
L 323.58657 154.546786 
L 325.752901 153.277778 
L 329.73879 150.962036 
L 332.102819 149.480999 
L 344.390628 141.017929 
L 347.721819 138.828552 
L 348.463825 138.364204 
L 350.507617 137.134422 
L 353.302376 135.537616 
L 360.987451 131.194705 
L 362.872166 130.051491 
L 367.222468 127.507535 
L 372.166317 125.226673 
L 375.988278 123.728004 
L 379.82688 122.181622 
L 384.842119 119.870894 
L 386.391002 119.144531 
L 392.223506 116.753287 
L 398.487273 114.909702 
" clip-path="url(#pcdda969ebd)" style="fill: none; stroke: #ff7f0e; stroke-width: 1.5; stroke-linecap: square"/>
   </g>
   <g id="line2d_31">
    <path d="M 73.832727 132.30566 
L 92.61267 114.336316 
L 93.692682 113.168538 
L 104.991532 100.626466 
L 111.328113 94.455088 
L 112.712759 93.298786 
L 117.579232 89.831828 
L 121.775698 87.278647 
L 127.973025 83.441454 
L 131.659066 80.700953 
L 136.220425 76.797021 
L 138.081312 75.37504 
L 140.234146 74.066468 
L 141.384811 73.512224 
L 146.439421 72.04778 
L 151.527567 71.663899 
L 157.090204 71.68787 
L 157.972194 71.678712 
L 158.855191 71.66412 
L 160.624217 71.638048 
L 161.214792 71.635594 
L 163.433469 71.68787 
L 165.064543 71.815151 
L 167.145425 72.092051 
L 167.44315 72.141663 
L 171.17435 72.959249 
L 173.721813 73.707112 
L 177.181666 74.933296 
L 177.483247 75.050392 
L 182.324417 77.116204 
L 183.539393 77.684516 
L 186.27998 79.117446 
L 186.432515 79.206232 
L 188.724097 80.700953 
L 189.795788 81.518809 
L 192.404543 83.750341 
L 195.021943 86.129288 
L 195.947804 86.959728 
L 198.731897 89.432466 
L 202.148004 92.60755 
L 202.770696 93.224777 
L 204.953966 95.53085 
L 207.613153 98.72712 
L 208.396958 99.767248 
L 209.181534 100.846242 
L 214.063178 107.740204 
L 214.53718 108.368771 
L 215.644276 109.804927 
L 220.406361 116.753287 
L 220.72484 117.334364 
L 223.596835 123.181775 
L 226.639537 129.35112 
L 228.40636 132.313583 
L 234.863913 141.870257 
L 236.161623 144.26733 
L 238.112086 148.630449 
L 239.252022 151.718942 
L 241.209922 158.179925 
L 245.632478 179.742451 
L 247.770435 194.269964 
L 251.566721 224.078858 
L 257.377622 267.49266 
L 258.377917 273.355615 
L 264.069316 293.195594 
L 267.435625 295.488 
L 270.13857 293.184092 
L 270.307797 292.931756 
L 282.583651 251.875087 
L 286.198432 235.704714 
L 289.655662 220.796309 
L 290.002171 219.379534 
L 294.868373 201.420271 
L 307.335186 169.912591 
L 311.769013 162.870561 
L 313.549047 160.548376 
L 321.965414 152.820151 
L 323.58657 151.846061 
L 325.752901 150.750699 
L 329.73879 149.250742 
L 332.102819 148.608809 
L 344.390628 146.462384 
L 347.721819 145.727997 
L 348.463825 145.529321 
L 350.507617 144.897488 
L 353.302376 143.792538 
L 360.987451 139.276009 
L 362.872166 137.946257 
L 367.222468 134.751988 
L 372.166317 131.194705 
L 375.988278 128.707576 
L 379.82688 126.472398 
L 384.842119 123.922786 
L 386.391002 123.214948 
L 392.223506 120.821782 
L 398.487273 118.570993 
" clip-path="url(#pcdda969ebd)" style="fill: none; stroke: #2ca02c; stroke-width: 1.5; stroke-linecap: square"/>
   </g>
   <g id="line2d_32">
    <path d="M 73.832727 66.400868 
L 92.61267 66.553599 
L 93.692682 66.562168 
L 104.991532 66.640122 
L 111.328113 66.669564 
L 112.712759 66.674152 
L 117.579232 66.68412 
L 121.775698 66.684081 
L 127.973025 66.66708 
L 131.659066 66.646174 
L 136.220425 66.607874 
L 138.081312 66.588016 
L 140.234146 66.561806 
L 141.384811 66.546327 
L 146.439421 66.465584 
L 151.527567 66.361957 
L 157.090204 66.327785 
L 157.972194 66.361957 
L 158.855191 66.413164 
L 160.624217 66.557608 
L 161.214792 66.614963 
L 163.433469 66.850457 
L 165.064543 67.023402 
L 167.145425 67.210384 
L 167.44315 67.231978 
L 171.17435 67.326067 
L 173.721813 67.125692 
L 177.181666 66.361957 
L 177.483247 66.263397 
L 182.324417 64.148015 
L 183.539393 63.538101 
L 186.27998 62.206085 
L 186.432515 62.136773 
L 188.724097 61.205513 
L 189.795788 60.862084 
L 192.404543 60.36771 
L 195.021943 60.503085 
L 195.947804 60.736293 
L 198.731897 62.130809 
L 202.148004 65.516999 
L 202.770696 66.361957 
L 204.953966 69.831906 
L 207.613153 74.508992 
L 208.396958 75.84509 
L 209.181534 77.116204 
L 214.063178 83.847267 
L 214.53718 84.505089 
L 215.644276 86.129288 
L 220.406361 94.732599 
L 220.72484 95.376874 
L 223.596835 101.37186 
L 226.639537 107.770681 
L 228.40636 111.324953 
L 234.863913 123.922786 
L 236.161623 126.878288 
L 238.112086 131.712493 
L 239.252022 134.716435 
L 241.209922 140.105368 
L 245.632478 152.569051 
L 247.770435 158.131535 
L 251.566721 166.349817 
L 257.377622 174.891142 
L 258.377917 175.903918 
L 264.069316 179.341327 
L 267.435625 179.662853 
L 270.13857 179.094372 
L 270.307797 179.03577 
L 282.583651 168.682255 
L 286.198432 163.789682 
L 289.655662 158.556589 
L 290.002171 158.007013 
L 294.868373 149.913852 
L 307.335186 127.849713 
L 311.769013 120.338037 
L 313.549047 117.469815 
L 321.965414 105.146963 
L 323.58657 103.000786 
L 325.752901 100.243685 
L 329.73879 95.494634 
L 332.102819 92.871253 
L 344.390628 81.423727 
L 347.721819 78.916573 
L 348.463825 78.390839 
L 350.507617 77.003049 
L 353.302376 75.245624 
L 360.987451 71.209583 
L 362.872166 70.389534 
L 367.222468 68.737398 
L 372.166317 67.24774 
L 375.988278 66.361957 
L 379.82688 65.691539 
L 384.842119 65.126808 
L 386.391002 65.019986 
L 392.223506 64.885429 
L 398.487273 65.176215 
" clip-path="url(#pcdda969ebd)" style="fill: none; stroke: #d62728; stroke-width: 1.5; stroke-linecap: square"/>
   </g>
   <g id="line2d_33">
    <path d="M 73.832727 65.246968 
L 92.61267 65.39896 
L 93.692682 65.416855 
L 104.991532 65.640525 
L 111.328113 65.783937 
L 112.712759 65.81591 
L 117.579232 65.928049 
L 121.775698 66.022337 
L 127.973025 66.152256 
L 131.659066 66.221519 
L 136.220425 66.296062 
L 138.081312 66.322281 
L 140.234146 66.349187 
L 141.384811 66.361957 
L 146.439421 66.403351 
L 151.527567 66.417728 
L 157.090204 66.397153 
L 157.972194 66.390059 
L 158.855191 66.381846 
L 160.624217 66.361957 
L 161.214792 66.354358 
L 163.433469 66.32982 
L 165.064543 66.327283 
L 167.145425 66.361957 
L 167.44315 66.371538 
L 171.17435 66.571374 
L 173.721813 66.744412 
L 177.181666 66.934123 
L 177.483247 66.944903 
L 182.324417 66.893368 
L 183.539393 66.792596 
L 186.27998 66.392127 
L 186.432515 66.361957 
L 188.724097 65.813642 
L 189.795788 65.50943 
L 192.404543 64.702432 
L 195.021943 63.889435 
L 195.947804 63.62246 
L 198.731897 62.953868 
L 202.148004 62.568803 
L 202.770696 62.5685 
L 204.953966 62.778109 
L 207.613153 63.550877 
L 208.396958 63.903203 
L 209.181534 64.318186 
L 214.063178 68.490099 
L 214.53718 69.057635 
L 215.644276 70.507204 
L 220.406361 78.910576 
L 220.72484 79.608715 
L 223.596835 86.752685 
L 226.639537 96.106263 
L 228.40636 102.449721 
L 234.863913 131.969409 
L 236.161623 139.203802 
L 238.112086 150.962036 
L 239.252022 158.323265 
L 241.209922 171.540284 
L 245.632478 201.530569 
L 247.770435 214.669158 
L 251.566721 233.029624 
L 257.377622 240.990451 
L 258.377917 239.067859 
L 264.069316 212.155739 
L 267.435625 188.453825 
L 270.13857 168.382586 
L 270.307797 167.144618 
L 282.583651 92.705498 
L 286.198432 77.523229 
L 289.655662 66.361957 
L 290.002171 65.434419 
L 294.868373 55.892362 
L 307.335186 53.568 
L 311.769013 57.1865 
L 313.549047 58.88666 
L 321.965414 66.361957 
L 323.58657 67.326003 
L 325.752901 68.288696 
L 329.73879 69.217496 
L 332.102819 69.340143 
L 344.390628 67.138707 
L 347.721819 66.361957 
L 348.463825 66.212012 
L 350.507617 65.851036 
L 353.302376 65.47299 
L 360.987451 65.014612 
L 362.872166 65.008668 
L 367.222468 65.114969 
L 372.166317 65.384541 
L 375.988278 65.654746 
L 379.82688 65.941014 
L 384.842119 66.277736 
L 386.391002 66.361957 
L 392.223506 66.567452 
L 398.487273 66.628092 
" clip-path="url(#pcdda969ebd)" style="fill: none; stroke: #9467bd; stroke-width: 1.5; stroke-linecap: square"/>
   </g>
   <g id="patch_3">
    <path d="M 57.6 307.584 
L 57.6 41.472 
" style="fill: none; stroke: #000000; stroke-width: 0.8; stroke-linejoin: miter; stroke-linecap: square"/>
   </g>
   <g id="patch_4">
    <path d="M 414.72 307.584 
L 414.72 41.472 
" style="fill: none; stroke: #000000; stroke-width: 0.8; stroke-linejoin: miter; stroke-linecap: square"/>
   </g>
   <g id="patch_5">
    <path d="M 57.6 307.584 
L 414.72 307.584 
" style="fill: none; stroke: #000000; stroke-width: 0.8; stroke-linejoin: miter; stroke-linecap: square"/>
   </g>
   <g id="patch_6">
    <path d="M 57.6 41.472 
L 414.72 41.472 
" style="fill: none; stroke: #000000; stroke-width: 0.8; stroke-linejoin: miter; stroke-linecap: square"/>
   </g>
   <g id="text_17">
    <!-- Implied vol -->
    <g transform="translate(203.105625 35.472) scale(0.12 -0.12)">
     <defs>
      <path id="DejaVuSans-49" d="M 628 4666 
L 1259 4666 
L 1259 0 
L 628 0 
L 628 4666 
z
" transform="scale(0.015625)"/>
      <path id="DejaVuSans-6d" d="M 3328 2828 
Q 3544 3216 3844 3400 
Q 4144 3584 4550 3584 
Q 5097 3584 5394 3201 
Q 5691 2819 5691 2113 
L 5691 0 
L 5113 0 
L 5113 2094 
Q 5113 2597 4934 2840 
Q 4756 3084 4391 3084 
Q 3944 3084 3684 2787 
Q 3425 2491 3425 1978 
L 3425 0 
L 2847 0 
L 2847 2094 
Q 2847 2600 2669 2842 
Q 2491 3084 2119 3084 
Q 1678 3084 1418 2786 
Q 1159 2488 1159 1978 
L 1159 0 
L 581 0 
L 581 3500 
L 1159 3500 
L 1159 2956 
Q 1356 3278 1631 3431 
Q 1906 3584 2284 3584 
Q 2666 3584 2933 3390 
Q 3200 3197 3328 2828 
z
" transform="scale(0.015625)"/>
      <path id="DejaVuSans-64" d="M 2906 2969 
L 2906 4863 
L 3481 4863 
L 3481 0 
L 2906 0 
L 2906 525 
Q 2725 213 2448 61 
Q 2172 -91 1784 -91 
Q 1150 -91 751 415 
Q 353 922 353 1747 
Q 353 2572 751 3078 
Q 1150 3584 1784 3584 
Q 2172 3584 2448 3432 
Q 2725 3281 2906 2969 
z
M 947 1747 
Q 947 1113 1208 752 
Q 1469 391 1925 391 
Q 2381 391 2643 752 
Q 2906 1113 2906 1747 
Q 2906 2381 2643 2742 
Q 2381 3103 1925 3103 
Q 1469 3103 1208 2742 
Q 947 2381 947 1747 
z
" transform="scale(0.015625)"/>
      <path id="DejaVuSans-20" transform="scale(0.015625)"/>
      <path id="DejaVuSans-76" d="M 191 3500 
L 800 3500 
L 1894 563 
L 2988 3500 
L 3597 3500 
L 2284 0 
L 1503 0 
L 191 3500 
z
" transform="scale(0.015625)"/>
     </defs>
     <use xlink:href="#DejaVuSans-49"/>
     <use xlink:href="#DejaVuSans-6d" x="29.492188"/>
     <use xlink:href="#DejaVuSans-70" x="126.904297"/>
     <use xlink:href="#DejaVuSans-6c" x="190.380859"/>
     <use xlink:href="#DejaVuSans-69" x="218.164062"/>
     <use xlink:href="#DejaVuSans-65" x="245.947266"/>
     <use xlink:href="#DejaVuSans-64" x="307.470703"/>
     <use xlink:href="#DejaVuSans-20" x="370.947266"/>
     <use xlink:href="#DejaVuSans-76" x="402.734375"/>
     <use xlink:href="#DejaVuSans-6f" x="461.914062"/>
     <use xlink:href="#DejaVuSans-6c" x="523.095703"/>
    </g>
   </g>
   <g id="legend_1">
    <g id="patch_7">
     <path d="M 64.6 302.584 
L 127.078125 302.584 
Q 129.078125 302.584 129.078125 300.584 
L 129.078125 228.193375 
Q 129.078125 226.193375 127.078125 226.193375 
L 64.6 226.193375 
Q 62.6 226.193375 62.6 228.193375 
L 62.6 300.584 
Q 62.6 302.584 64.6 302.584 
z
" style="fill: #ffffff; opacity: 0.8; stroke: #cccccc; stroke-linejoin: miter"/>
    </g>
    <g id="line2d_34">
     <path d="M 66.6 234.291812 
L 76.6 234.291812 
L 86.6 234.291812 
" style="fill: none; stroke: #1f77b4; stroke-width: 1.5; stroke-linecap: square"/>
    </g>
    <g id="text_18">
     <!-- March -->
     <g transform="translate(94.6 237.791812) scale(0.1 -0.1)">
      <defs>
       <path id="DejaVuSans-4d" d="M 628 4666 
L 1569 4666 
L 2759 1491 
L 3956 4666 
L 4897 4666 
L 4897 0 
L 4281 0 
L 4281 4097 
L 3078 897 
L 2444 897 
L 1241 4097 
L 1241 0 
L 628 0 
L 628 4666 
z
" transform="scale(0.015625)"/>
       <path id="DejaVuSans-61" d="M 2194 1759 
Q 1497 1759 1228 1600 
Q 959 1441 959 1056 
Q 959 750 1161 570 
Q 1363 391 1709 391 
Q 2188 391 2477 730 
Q 2766 1069 2766 1631 
L 2766 1759 
L 2194 1759 
z
M 3341 1997 
L 3341 0 
L 2766 0 
L 2766 531 
Q 2569 213 2275 61 
Q 1981 -91 1556 -91 
Q 1019 -91 701 211 
Q 384 513 384 1019 
Q 384 1609 779 1909 
Q 1175 2209 1959 2209 
L 2766 2209 
L 2766 2266 
Q 2766 2663 2505 2880 
Q 2244 3097 1772 3097 
Q 1472 3097 1187 3025 
Q 903 2953 641 2809 
L 641 3341 
Q 956 3463 1253 3523 
Q 1550 3584 1831 3584 
Q 2591 3584 2966 3190 
Q 3341 2797 3341 1997 
z
" transform="scale(0.015625)"/>
       <path id="DejaVuSans-63" d="M 3122 3366 
L 3122 2828 
Q 2878 2963 2633 3030 
Q 2388 3097 2138 3097 
Q 1578 3097 1268 2742 
Q 959 2388 959 1747 
Q 959 1106 1268 751 
Q 1578 397 2138 397 
Q 2388 397 2633 464 
Q 2878 531 3122 666 
L 3122 134 
Q 2881 22 2623 -34 
Q 2366 -91 2075 -91 
Q 1284 -91 818 406 
Q 353 903 353 1747 
Q 353 2603 823 3093 
Q 1294 3584 2113 3584 
Q 2378 3584 2631 3529 
Q 2884 3475 3122 3366 
z
" transform="scale(0.015625)"/>
       <path id="DejaVuSans-68" d="M 3513 2113 
L 3513 0 
L 2938 0 
L 2938 2094 
Q 2938 2591 2744 2837 
Q 2550 3084 2163 3084 
Q 1697 3084 1428 2787 
Q 1159 2491 1159 1978 
L 1159 0 
L 581 0 
L 581 4863 
L 1159 4863 
L 1159 2956 
Q 1366 3272 1645 3428 
Q 1925 3584 2291 3584 
Q 2894 3584 3203 3211 
Q 3513 2838 3513 2113 
z
" transform="scale(0.015625)"/>
      </defs>
      <use xlink:href="#DejaVuSans-4d"/>
      <use xlink:href="#DejaVuSans-61" x="86.279297"/>
      <use xlink:href="#DejaVuSans-72" x="147.558594"/>
      <use xlink:href="#DejaVuSans-63" x="186.421875"/>
      <use xlink:href="#DejaVuSans-68" x="241.402344"/>
     </g>
    </g>
    <g id="line2d_35">
     <path d="M 66.6 248.969937 
L 76.6 248.969937 
L 86.6 248.969937 
" style="fill: none; stroke: #ff7f0e; stroke-width: 1.5; stroke-linecap: square"/>
    </g>
    <g id="text_19">
     <!-- April -->
     <g transform="translate(94.6 252.469937) scale(0.1 -0.1)">
      <defs>
       <path id="DejaVuSans-41" d="M 2188 4044 
L 1331 1722 
L 3047 1722 
L 2188 4044 
z
M 1831 4666 
L 2547 4666 
L 4325 0 
L 3669 0 
L 3244 1197 
L 1141 1197 
L 716 0 
L 50 0 
L 1831 4666 
z
" transform="scale(0.015625)"/>
      </defs>
      <use xlink:href="#DejaVuSans-41"/>
      <use xlink:href="#DejaVuSans-70" x="68.408203"/>
      <use xlink:href="#DejaVuSans-72" x="131.884766"/>
      <use xlink:href="#DejaVuSans-69" x="172.998047"/>
      <use xlink:href="#DejaVuSans-6c" x="200.78125"/>
     </g>
    </g>
    <g id="line2d_36">
     <path d="M 66.6 263.648062 
L 76.6 263.648062 
L 86.6 263.648062 
" style="fill: none; stroke: #2ca02c; stroke-width: 1.5; stroke-linecap: square"/>
    </g>
    <g id="text_20">
     <!-- May -->
     <g transform="translate(94.6 267.148062) scale(0.1 -0.1)">
      <defs>
       <path id="DejaVuSans-79" d="M 2059 -325 
Q 1816 -950 1584 -1140 
Q 1353 -1331 966 -1331 
L 506 -1331 
L 506 -850 
L 844 -850 
Q 1081 -850 1212 -737 
Q 1344 -625 1503 -206 
L 1606 56 
L 191 3500 
L 800 3500 
L 1894 763 
L 2988 3500 
L 3597 3500 
L 2059 -325 
z
" transform="scale(0.015625)"/>
      </defs>
      <use xlink:href="#DejaVuSans-4d"/>
      <use xlink:href="#DejaVuSans-61" x="86.279297"/>
      <use xlink:href="#DejaVuSans-79" x="147.558594"/>
     </g>
    </g>
    <g id="line2d_37">
     <path d="M 66.6 278.326188 
L 76.6 278.326188 
L 86.6 278.326188 
" style="fill: none; stroke: #d62728; stroke-width: 1.5; stroke-linecap: square"/>
    </g>
    <g id="text_21">
     <!-- June -->
     <g transform="translate(94.6 281.826188) scale(0.1 -0.1)">
      <defs>
       <path id="DejaVuSans-4a" d="M 628 4666 
L 1259 4666 
L 1259 325 
Q 1259 -519 939 -900 
Q 619 -1281 -91 -1281 
L -331 -1281 
L -331 -750 
L -134 -750 
Q 284 -750 456 -515 
Q 628 -281 628 325 
L 628 4666 
z
" transform="scale(0.015625)"/>
       <path id="DejaVuSans-75" d="M 544 1381 
L 544 3500 
L 1119 3500 
L 1119 1403 
Q 1119 906 1312 657 
Q 1506 409 1894 409 
Q 2359 409 2629 706 
Q 2900 1003 2900 1516 
L 2900 3500 
L 3475 3500 
L 3475 0 
L 2900 0 
L 2900 538 
Q 2691 219 2414 64 
Q 2138 -91 1772 -91 
Q 1169 -91 856 284 
Q 544 659 544 1381 
z
M 1991 3584 
L 1991 3584 
z
" transform="scale(0.015625)"/>
       <path id="DejaVuSans-6e" d="M 3513 2113 
L 3513 0 
L 2938 0 
L 2938 2094 
Q 2938 2591 2744 2837 
Q 2550 3084 2163 3084 
Q 1697 3084 1428 2787 
Q 1159 2491 1159 1978 
L 1159 0 
L 581 0 
L 581 3500 
L 1159 3500 
L 1159 2956 
Q 1366 3272 1645 3428 
Q 1925 3584 2291 3584 
Q 2894 3584 3203 3211 
Q 3513 2838 3513 2113 
z
" transform="scale(0.015625)"/>
      </defs>
      <use xlink:href="#DejaVuSans-4a"/>
      <use xlink:href="#DejaVuSans-75" x="29.492188"/>
      <use xlink:href="#DejaVuSans-6e" x="92.871094"/>
      <use xlink:href="#DejaVuSans-65" x="156.25"/>
     </g>
    </g>
    <g id="line2d_38">
     <path d="M 66.6 293.004312 
L 76.6 293.004312 
L 86.6 293.004312 
" style="fill: none; stroke: #9467bd; stroke-width: 1.5; stroke-linecap: square"/>
    </g>
    <g id="text_22">
     <!-- July -->
     <g transform="translate(94.6 296.504312) scale(0.1 -0.1)">
      <use xlink:href="#DejaVuSans-4a"/>
      <use xlink:href="#DejaVuSans-75" x="29.492188"/>
      <use xlink:href="#DejaVuSans-6c" x="92.871094"/>
      <use xlink:href="#DejaVuSans-79" x="120.654297"/>
     </g>
    </g>
   </g>
  </g>
 </g>
 <defs>
  <clipPath id="pcdda969ebd">
   <rect x="57.6" y="41.472" width="357.12" height="266.112"/>
  </clipPath>
 </defs>
</svg>
