<?xml version="1.0" encoding="utf-8" standalone="no"?>
<!DOCTYPE svg PUBLIC "-//W3C//DTD SVG 1.1//EN"
  "http://www.w3.org/Graphics/SVG/1.1/DTD/svg11.dtd">
<svg xmlns:xlink="http://www.w3.org/1999/xlink" width="460.8pt" height="345.6pt" viewBox="0 0 460.8 345.6" xmlns="http://www.w3.org/2000/svg" version="1.1">
 <metadata>
  <rdf:RDF xmlns:dc="http://purl.org/dc/elements/1.1/" xmlns:cc="http://creativecommons.org/ns#" xmlns:rdf="http://www.w3.org/1999/02/22-rdf-syntax-ns#">
   <cc:Work>
    <dc:type rdf:resource="http://purl.org/dc/dcmitype/StillImage"/>
    <dc:date>2024-03-26T22:47:42.008043</dc:date>
    <dc:format>image/svg+xml</dc:format>
    <dc:creator>
     <cc:Agent>
      <dc:title>Matplotlib v3.7.3, https://matplotlib.org/</dc:title>
     </cc:Agent>
    </dc:creator>
   </cc:Work>
  </rdf:RDF>
 </metadata>
 <defs>
  <style type="text/css">*{stroke-linejoin: round; stroke-linecap: butt}</style>
 </defs>
 <g id="figure_1">
  <g id="patch_1">
   <path d="M 0 345.6 
L 460.8 345.6 
L 460.8 0 
L 0 0 
z
" style="fill: #ffffff"/>
  </g>
  <g id="patch_2">
   <path d="M 103.104 307.584 
L 369.216 307.584 
L 369.216 41.472 
L 103.104 41.472 
z
" style="fill: #ffffff"/>
  </g>
  <g id="pane3d_1">
   <g id="patch_3">
    <path d="M 123.197291 241.969309 
L 211.076164 168.307495 
L 209.854564 62.073991 
L 117.770234 129.272941 
" style="fill: #f2f2f2; opacity: 0.5; stroke: #f2f2f2; stroke-linejoin: miter"/>
   </g>
  </g>
  <g id="pane3d_2">
   <g id="patch_4">
    <path d="M 352.090401 209.294766 
L 211.076164 168.307495 
L 209.854564 62.073991 
L 357.122702 99.402171 
" style="fill: #e6e6e6; opacity: 0.5; stroke: #e6e6e6; stroke-linejoin: miter"/>
   </g>
  </g>
  <g id="pane3d_3">
   <g id="patch_5">
    <path d="M 272.679269 290.790123 
L 123.197291 241.969309 
L 211.076164 168.307495 
L 352.090401 209.294766 
" style="fill: #ececec; opacity: 0.5; stroke: #ececec; stroke-linejoin: miter"/>
   </g>
  </g>
  <g id="axis3d_1">
   <g id="line2d_1">
    <path d="M 123.197291 241.969309 
L 272.679269 290.790123 
" style="fill: none; stroke: #000000; stroke-width: 0.8; stroke-linecap: square"/>
   </g>
   <g id="text_1">
    <!-- TTM -->
    <g transform="translate(169.342053 303.76759) scale(0.1 -0.1)">
     <defs>
      <path id="DejaVuSans-54" d="M -19 4666 
L 3928 4666 
L 3928 4134 
L 2272 4134 
L 2272 0 
L 1638 0 
L 1638 4134 
L -19 4134 
L -19 4666 
z
" transform="scale(0.015625)"/>
      <path id="DejaVuSans-4d" d="M 628 4666 
L 1569 4666 
L 2759 1491 
L 3956 4666 
L 4897 4666 
L 4897 0 
L 4281 0 
L 4281 4097 
L 3078 897 
L 2444 897 
L 1241 4097 
L 1241 0 
L 628 0 
L 628 4666 
z
" transform="scale(0.015625)"/>
     </defs>
     <use xlink:href="#DejaVuSans-54"/>
     <use xlink:href="#DejaVuSans-54" x="59.333984"/>
     <use xlink:href="#DejaVuSans-4d" x="120.417969"/>
    </g>
   </g>
   <g id="Line3DCollection_1">
    <path d="M 267.879377 289.222478 
L 347.581718 207.98427 
L 352.40443 98.206227 
" style="fill: none; stroke: #b0b0b0; stroke-width: 0.8"/>
    <path d="M 248.006278 282.731924 
L 328.90074 202.554447 
L 332.861844 93.252751 
" style="fill: none; stroke: #b0b0b0; stroke-width: 0.8"/>
    <path d="M 228.403236 276.32957 
L 310.452152 197.192171 
L 313.573099 88.363616 
" style="fill: none; stroke: #b0b0b0; stroke-width: 0.8"/>
    <path d="M 209.06478 270.013631 
L 292.231644 191.896189 
L 294.53328 83.537577 
" style="fill: none; stroke: #b0b0b0; stroke-width: 0.8"/>
    <path d="M 189.985592 263.782368 
L 274.235012 186.665278 
L 275.7376 78.77342 
" style="fill: none; stroke: #b0b0b0; stroke-width: 0.8"/>
    <path d="M 171.160492 257.63409 
L 256.458156 181.498248 
L 257.181393 74.069963 
" style="fill: none; stroke: #b0b0b0; stroke-width: 0.8"/>
    <path d="M 152.584436 251.567151 
L 238.897074 176.393935 
L 238.860112 69.426052 
" style="fill: none; stroke: #b0b0b0; stroke-width: 0.8"/>
    <path d="M 134.252517 245.579946 
L 221.547862 171.351204 
L 220.769322 64.840564 
" style="fill: none; stroke: #b0b0b0; stroke-width: 0.8"/>
   </g>
   <g id="xtick_1">
    <g id="line2d_2">
     <path d="M 268.576181 288.512246 
L 266.48263 290.646139 
" style="fill: none; stroke: #000000; stroke-width: 0.8; stroke-linecap: square"/>
    </g>
    <g id="text_2">
     <!-- 0.05 -->
     <g transform="translate(249.376301 313.476806) scale(0.1 -0.1)">
      <defs>
       <path id="DejaVuSans-30" d="M 2034 4250 
Q 1547 4250 1301 3770 
Q 1056 3291 1056 2328 
Q 1056 1369 1301 889 
Q 1547 409 2034 409 
Q 2525 409 2770 889 
Q 3016 1369 3016 2328 
Q 3016 3291 2770 3770 
Q 2525 4250 2034 4250 
z
M 2034 4750 
Q 2819 4750 3233 4129 
Q 3647 3509 3647 2328 
Q 3647 1150 3233 529 
Q 2819 -91 2034 -91 
Q 1250 -91 836 529 
Q 422 1150 422 2328 
Q 422 3509 836 4129 
Q 1250 4750 2034 4750 
z
" transform="scale(0.015625)"/>
       <path id="DejaVuSans-2e" d="M 684 794 
L 1344 794 
L 1344 0 
L 684 0 
L 684 794 
z
" transform="scale(0.015625)"/>
       <path id="DejaVuSans-35" d="M 691 4666 
L 3169 4666 
L 3169 4134 
L 1269 4134 
L 1269 2991 
Q 1406 3038 1543 3061 
Q 1681 3084 1819 3084 
Q 2600 3084 3056 2656 
Q 3513 2228 3513 1497 
Q 3513 744 3044 326 
Q 2575 -91 1722 -91 
Q 1428 -91 1123 -41 
Q 819 9 494 109 
L 494 744 
Q 775 591 1075 516 
Q 1375 441 1709 441 
Q 2250 441 2565 725 
Q 2881 1009 2881 1497 
Q 2881 1984 2565 2268 
Q 2250 2553 1709 2553 
Q 1456 2553 1204 2497 
Q 953 2441 691 2322 
L 691 4666 
z
" transform="scale(0.015625)"/>
      </defs>
      <use xlink:href="#DejaVuSans-30"/>
      <use xlink:href="#DejaVuSans-2e" x="63.623047"/>
      <use xlink:href="#DejaVuSans-30" x="95.410156"/>
      <use xlink:href="#DejaVuSans-35" x="159.033203"/>
     </g>
    </g>
   </g>
   <g id="xtick_2">
    <g id="line2d_3">
     <path d="M 248.713095 282.031372 
L 246.589486 284.136159 
" style="fill: none; stroke: #000000; stroke-width: 0.8; stroke-linecap: square"/>
    </g>
    <g id="text_3">
     <!-- 0.10 -->
     <g transform="translate(229.476844 306.846729) scale(0.1 -0.1)">
      <defs>
       <path id="DejaVuSans-31" d="M 794 531 
L 1825 531 
L 1825 4091 
L 703 3866 
L 703 4441 
L 1819 4666 
L 2450 4666 
L 2450 531 
L 3481 531 
L 3481 0 
L 794 0 
L 794 531 
z
" transform="scale(0.015625)"/>
      </defs>
      <use xlink:href="#DejaVuSans-30"/>
      <use xlink:href="#DejaVuSans-2e" x="63.623047"/>
      <use xlink:href="#DejaVuSans-31" x="95.410156"/>
      <use xlink:href="#DejaVuSans-30" x="159.033203"/>
     </g>
    </g>
   </g>
   <g id="xtick_3">
    <g id="line2d_4">
     <path d="M 229.119728 275.638502 
L 226.967069 277.714774 
" style="fill: none; stroke: #000000; stroke-width: 0.8; stroke-linecap: square"/>
    </g>
    <g id="text_4">
     <!-- 0.15 -->
     <g transform="translate(209.848842 300.307095) scale(0.1 -0.1)">
      <use xlink:href="#DejaVuSans-30"/>
      <use xlink:href="#DejaVuSans-2e" x="63.623047"/>
      <use xlink:href="#DejaVuSans-31" x="95.410156"/>
      <use xlink:href="#DejaVuSans-35" x="159.033203"/>
     </g>
    </g>
   </g>
   <g id="xtick_4">
    <g id="line2d_5">
     <path d="M 209.790625 269.331856 
L 207.609891 271.380188 
" style="fill: none; stroke: #000000; stroke-width: 0.8; stroke-linecap: square"/>
    </g>
    <g id="text_5">
     <!-- 0.20 -->
     <g transform="translate(190.486776 293.856065) scale(0.1 -0.1)">
      <defs>
       <path id="DejaVuSans-32" d="M 1228 531 
L 3431 531 
L 3431 0 
L 469 0 
L 469 531 
Q 828 903 1448 1529 
Q 2069 2156 2228 2338 
Q 2531 2678 2651 2914 
Q 2772 3150 2772 3378 
Q 2772 3750 2511 3984 
Q 2250 4219 1831 4219 
Q 1534 4219 1204 4116 
Q 875 4013 500 3803 
L 500 4441 
Q 881 4594 1212 4672 
Q 1544 4750 1819 4750 
Q 2544 4750 2975 4387 
Q 3406 4025 3406 3419 
Q 3406 3131 3298 2873 
Q 3191 2616 2906 2266 
Q 2828 2175 2409 1742 
Q 1991 1309 1228 531 
z
" transform="scale(0.015625)"/>
      </defs>
      <use xlink:href="#DejaVuSans-30"/>
      <use xlink:href="#DejaVuSans-2e" x="63.623047"/>
      <use xlink:href="#DejaVuSans-32" x="95.410156"/>
      <use xlink:href="#DejaVuSans-30" x="159.033203"/>
     </g>
    </g>
   </g>
   <g id="xtick_5">
    <g id="line2d_6">
     <path d="M 190.720474 263.109699 
L 188.512609 265.130652 
" style="fill: none; stroke: #000000; stroke-width: 0.8; stroke-linecap: square"/>
    </g>
    <g id="text_6">
     <!-- 0.25 -->
     <g transform="translate(171.385279 287.491851) scale(0.1 -0.1)">
      <use xlink:href="#DejaVuSans-30"/>
      <use xlink:href="#DejaVuSans-2e" x="63.623047"/>
      <use xlink:href="#DejaVuSans-32" x="95.410156"/>
      <use xlink:href="#DejaVuSans-35" x="159.033203"/>
     </g>
    </g>
   </g>
   <g id="xtick_6">
    <g id="line2d_7">
     <path d="M 171.904107 256.970347 
L 169.670026 258.964465 
" style="fill: none; stroke: #000000; stroke-width: 0.8; stroke-linecap: square"/>
    </g>
    <g id="text_7">
     <!-- 0.30 -->
     <g transform="translate(152.539125 281.212712) scale(0.1 -0.1)">
      <defs>
       <path id="DejaVuSans-33" d="M 2597 2516 
Q 3050 2419 3304 2112 
Q 3559 1806 3559 1356 
Q 3559 666 3084 287 
Q 2609 -91 1734 -91 
Q 1441 -91 1130 -33 
Q 819 25 488 141 
L 488 750 
Q 750 597 1062 519 
Q 1375 441 1716 441 
Q 2309 441 2620 675 
Q 2931 909 2931 1356 
Q 2931 1769 2642 2001 
Q 2353 2234 1838 2234 
L 1294 2234 
L 1294 2753 
L 1863 2753 
Q 2328 2753 2575 2939 
Q 2822 3125 2822 3475 
Q 2822 3834 2567 4026 
Q 2313 4219 1838 4219 
Q 1578 4219 1281 4162 
Q 984 4106 628 3988 
L 628 4550 
Q 988 4650 1302 4700 
Q 1616 4750 1894 4750 
Q 2613 4750 3031 4423 
Q 3450 4097 3450 3541 
Q 3450 3153 3228 2886 
Q 3006 2619 2597 2516 
z
" transform="scale(0.015625)"/>
      </defs>
      <use xlink:href="#DejaVuSans-30"/>
      <use xlink:href="#DejaVuSans-2e" x="63.623047"/>
      <use xlink:href="#DejaVuSans-33" x="95.410156"/>
      <use xlink:href="#DejaVuSans-30" x="159.033203"/>
     </g>
    </g>
   </g>
   <g id="xtick_7">
    <g id="line2d_8">
     <path d="M 153.33649 250.912156 
L 151.077078 252.879971 
" style="fill: none; stroke: #000000; stroke-width: 0.8; stroke-linecap: square"/>
    </g>
    <g id="text_8">
     <!-- 0.35 -->
     <g transform="translate(133.943229 275.016953) scale(0.1 -0.1)">
      <use xlink:href="#DejaVuSans-30"/>
      <use xlink:href="#DejaVuSans-2e" x="63.623047"/>
      <use xlink:href="#DejaVuSans-33" x="95.410156"/>
      <use xlink:href="#DejaVuSans-35" x="159.033203"/>
     </g>
    </g>
   </g>
   <g id="xtick_8">
    <g id="line2d_9">
     <path d="M 135.012725 244.933528 
L 132.728838 246.875557 
" style="fill: none; stroke: #000000; stroke-width: 0.8; stroke-linecap: square"/>
    </g>
    <g id="text_9">
     <!-- 0.40 -->
     <g transform="translate(115.592639 268.902925) scale(0.1 -0.1)">
      <defs>
       <path id="DejaVuSans-34" d="M 2419 4116 
L 825 1625 
L 2419 1625 
L 2419 4116 
z
M 2253 4666 
L 3047 4666 
L 3047 1625 
L 3713 1625 
L 3713 1100 
L 3047 1100 
L 3047 0 
L 2419 0 
L 2419 1100 
L 313 1100 
L 313 1709 
L 2253 4666 
z
" transform="scale(0.015625)"/>
      </defs>
      <use xlink:href="#DejaVuSans-30"/>
      <use xlink:href="#DejaVuSans-2e" x="63.623047"/>
      <use xlink:href="#DejaVuSans-34" x="95.410156"/>
      <use xlink:href="#DejaVuSans-30" x="159.033203"/>
     </g>
    </g>
   </g>
  </g>
  <g id="axis3d_2">
   <g id="line2d_10">
    <path d="M 352.090401 209.294766 
L 272.679269 290.790123 
" style="fill: none; stroke: #000000; stroke-width: 0.8; stroke-linecap: square"/>
   </g>
   <g id="text_10">
    <!-- Strike/spot -->
    <g transform="translate(324.369105 297.386866) rotate(-45.742112) scale(0.1 -0.1)">
     <defs>
      <path id="DejaVuSans-53" d="M 3425 4513 
L 3425 3897 
Q 3066 4069 2747 4153 
Q 2428 4238 2131 4238 
Q 1616 4238 1336 4038 
Q 1056 3838 1056 3469 
Q 1056 3159 1242 3001 
Q 1428 2844 1947 2747 
L 2328 2669 
Q 3034 2534 3370 2195 
Q 3706 1856 3706 1288 
Q 3706 609 3251 259 
Q 2797 -91 1919 -91 
Q 1588 -91 1214 -16 
Q 841 59 441 206 
L 441 856 
Q 825 641 1194 531 
Q 1563 422 1919 422 
Q 2459 422 2753 634 
Q 3047 847 3047 1241 
Q 3047 1584 2836 1778 
Q 2625 1972 2144 2069 
L 1759 2144 
Q 1053 2284 737 2584 
Q 422 2884 422 3419 
Q 422 4038 858 4394 
Q 1294 4750 2059 4750 
Q 2388 4750 2728 4690 
Q 3069 4631 3425 4513 
z
" transform="scale(0.015625)"/>
      <path id="DejaVuSans-74" d="M 1172 4494 
L 1172 3500 
L 2356 3500 
L 2356 3053 
L 1172 3053 
L 1172 1153 
Q 1172 725 1289 603 
Q 1406 481 1766 481 
L 2356 481 
L 2356 0 
L 1766 0 
Q 1100 0 847 248 
Q 594 497 594 1153 
L 594 3053 
L 172 3053 
L 172 3500 
L 594 3500 
L 594 4494 
L 1172 4494 
z
" transform="scale(0.015625)"/>
      <path id="DejaVuSans-72" d="M 2631 2963 
Q 2534 3019 2420 3045 
Q 2306 3072 2169 3072 
Q 1681 3072 1420 2755 
Q 1159 2438 1159 1844 
L 1159 0 
L 581 0 
L 581 3500 
L 1159 3500 
L 1159 2956 
Q 1341 3275 1631 3429 
Q 1922 3584 2338 3584 
Q 2397 3584 2469 3576 
Q 2541 3569 2628 3553 
L 2631 2963 
z
" transform="scale(0.015625)"/>
      <path id="DejaVuSans-69" d="M 603 3500 
L 1178 3500 
L 1178 0 
L 603 0 
L 603 3500 
z
M 603 4863 
L 1178 4863 
L 1178 4134 
L 603 4134 
L 603 4863 
z
" transform="scale(0.015625)"/>
      <path id="DejaVuSans-6b" d="M 581 4863 
L 1159 4863 
L 1159 1991 
L 2875 3500 
L 3609 3500 
L 1753 1863 
L 3688 0 
L 2938 0 
L 1159 1709 
L 1159 0 
L 581 0 
L 581 4863 
z
" transform="scale(0.015625)"/>
      <path id="DejaVuSans-65" d="M 3597 1894 
L 3597 1613 
L 953 1613 
Q 991 1019 1311 708 
Q 1631 397 2203 397 
Q 2534 397 2845 478 
Q 3156 559 3463 722 
L 3463 178 
Q 3153 47 2828 -22 
Q 2503 -91 2169 -91 
Q 1331 -91 842 396 
Q 353 884 353 1716 
Q 353 2575 817 3079 
Q 1281 3584 2069 3584 
Q 2775 3584 3186 3129 
Q 3597 2675 3597 1894 
z
M 3022 2063 
Q 3016 2534 2758 2815 
Q 2500 3097 2075 3097 
Q 1594 3097 1305 2825 
Q 1016 2553 972 2059 
L 3022 2063 
z
" transform="scale(0.015625)"/>
      <path id="DejaVuSans-2f" d="M 1625 4666 
L 2156 4666 
L 531 -594 
L 0 -594 
L 1625 4666 
z
" transform="scale(0.015625)"/>
      <path id="DejaVuSans-73" d="M 2834 3397 
L 2834 2853 
Q 2591 2978 2328 3040 
Q 2066 3103 1784 3103 
Q 1356 3103 1142 2972 
Q 928 2841 928 2578 
Q 928 2378 1081 2264 
Q 1234 2150 1697 2047 
L 1894 2003 
Q 2506 1872 2764 1633 
Q 3022 1394 3022 966 
Q 3022 478 2636 193 
Q 2250 -91 1575 -91 
Q 1294 -91 989 -36 
Q 684 19 347 128 
L 347 722 
Q 666 556 975 473 
Q 1284 391 1588 391 
Q 1994 391 2212 530 
Q 2431 669 2431 922 
Q 2431 1156 2273 1281 
Q 2116 1406 1581 1522 
L 1381 1569 
Q 847 1681 609 1914 
Q 372 2147 372 2553 
Q 372 3047 722 3315 
Q 1072 3584 1716 3584 
Q 2034 3584 2315 3537 
Q 2597 3491 2834 3397 
z
" transform="scale(0.015625)"/>
      <path id="DejaVuSans-70" d="M 1159 525 
L 1159 -1331 
L 581 -1331 
L 581 3500 
L 1159 3500 
L 1159 2969 
Q 1341 3281 1617 3432 
Q 1894 3584 2278 3584 
Q 2916 3584 3314 3078 
Q 3713 2572 3713 1747 
Q 3713 922 3314 415 
Q 2916 -91 2278 -91 
Q 1894 -91 1617 61 
Q 1341 213 1159 525 
z
M 3116 1747 
Q 3116 2381 2855 2742 
Q 2594 3103 2138 3103 
Q 1681 3103 1420 2742 
Q 1159 2381 1159 1747 
Q 1159 1113 1420 752 
Q 1681 391 2138 391 
Q 2594 391 2855 752 
Q 3116 1113 3116 1747 
z
" transform="scale(0.015625)"/>
      <path id="DejaVuSans-6f" d="M 1959 3097 
Q 1497 3097 1228 2736 
Q 959 2375 959 1747 
Q 959 1119 1226 758 
Q 1494 397 1959 397 
Q 2419 397 2687 759 
Q 2956 1122 2956 1747 
Q 2956 2369 2687 2733 
Q 2419 3097 1959 3097 
z
M 1959 3584 
Q 2709 3584 3137 3096 
Q 3566 2609 3566 1747 
Q 3566 888 3137 398 
Q 2709 -91 1959 -91 
Q 1206 -91 779 398 
Q 353 888 353 1747 
Q 353 2609 779 3096 
Q 1206 3584 1959 3584 
z
" transform="scale(0.015625)"/>
     </defs>
     <use xlink:href="#DejaVuSans-53"/>
     <use xlink:href="#DejaVuSans-74" x="63.476562"/>
     <use xlink:href="#DejaVuSans-72" x="102.685547"/>
     <use xlink:href="#DejaVuSans-69" x="143.798828"/>
     <use xlink:href="#DejaVuSans-6b" x="171.582031"/>
     <use xlink:href="#DejaVuSans-65" x="225.867188"/>
     <use xlink:href="#DejaVuSans-2f" x="287.390625"/>
     <use xlink:href="#DejaVuSans-73" x="321.082031"/>
     <use xlink:href="#DejaVuSans-70" x="373.181641"/>
     <use xlink:href="#DejaVuSans-6f" x="436.658203"/>
     <use xlink:href="#DejaVuSans-74" x="497.839844"/>
    </g>
   </g>
   <g id="Line3DCollection_2">
    <path d="M 124.134186 124.628818 
L 129.249172 236.896503 
L 278.170533 285.154734 
" style="fill: none; stroke: #b0b0b0; stroke-width: 0.8"/>
    <path d="M 145.410777 109.102131 
L 149.505457 219.917283 
L 296.526063 266.317446 
" style="fill: none; stroke: #b0b0b0; stroke-width: 0.8"/>
    <path d="M 165.86118 94.178359 
L 169.008678 203.569296 
L 314.163893 248.216693 
" style="fill: none; stroke: #b0b0b0; stroke-width: 0.8"/>
    <path d="M 185.532602 79.823051 
L 187.800062 187.817986 
L 331.125308 230.810109 
" style="fill: none; stroke: #b0b0b0; stroke-width: 0.8"/>
    <path d="M 204.468718 66.004336 
L 205.917882 172.63127 
L 347.448488 214.05851 
" style="fill: none; stroke: #b0b0b0; stroke-width: 0.8"/>
   </g>
   <g id="xtick_9">
    <g id="line2d_11">
     <path d="M 276.915568 284.748061 
L 280.683709 285.969133 
" style="fill: none; stroke: #000000; stroke-width: 0.8; stroke-linecap: square"/>
    </g>
    <g id="text_11">
     <!-- 0.90 -->
     <g transform="translate(279.9184 306.176516) scale(0.1 -0.1)">
      <defs>
       <path id="DejaVuSans-39" d="M 703 97 
L 703 672 
Q 941 559 1184 500 
Q 1428 441 1663 441 
Q 2288 441 2617 861 
Q 2947 1281 2994 2138 
Q 2813 1869 2534 1725 
Q 2256 1581 1919 1581 
Q 1219 1581 811 2004 
Q 403 2428 403 3163 
Q 403 3881 828 4315 
Q 1253 4750 1959 4750 
Q 2769 4750 3195 4129 
Q 3622 3509 3622 2328 
Q 3622 1225 3098 567 
Q 2575 -91 1691 -91 
Q 1453 -91 1209 -44 
Q 966 3 703 97 
z
M 1959 2075 
Q 2384 2075 2632 2365 
Q 2881 2656 2881 3163 
Q 2881 3666 2632 3958 
Q 2384 4250 1959 4250 
Q 1534 4250 1286 3958 
Q 1038 3666 1038 3163 
Q 1038 2656 1286 2365 
Q 1534 2075 1959 2075 
z
" transform="scale(0.015625)"/>
      </defs>
      <use xlink:href="#DejaVuSans-30"/>
      <use xlink:href="#DejaVuSans-2e" x="63.623047"/>
      <use xlink:href="#DejaVuSans-39" x="95.410156"/>
      <use xlink:href="#DejaVuSans-30" x="159.033203"/>
     </g>
    </g>
   </g>
   <g id="xtick_10">
    <g id="line2d_12">
     <path d="M 295.288367 265.926825 
L 299.004592 267.099677 
" style="fill: none; stroke: #000000; stroke-width: 0.8; stroke-linecap: square"/>
    </g>
    <g id="text_12">
     <!-- 0.95 -->
     <g transform="translate(298.027713 287.060357) scale(0.1 -0.1)">
      <use xlink:href="#DejaVuSans-30"/>
      <use xlink:href="#DejaVuSans-2e" x="63.623047"/>
      <use xlink:href="#DejaVuSans-39" x="95.410156"/>
      <use xlink:href="#DejaVuSans-35" x="159.033203"/>
     </g>
    </g>
   </g>
   <g id="xtick_11">
    <g id="line2d_13">
     <path d="M 312.943088 247.841194 
L 316.608536 248.968626 
" style="fill: none; stroke: #000000; stroke-width: 0.8; stroke-linecap: square"/>
    </g>
    <g id="text_13">
     <!-- 1.00 -->
     <g transform="translate(315.428545 268.692068) scale(0.1 -0.1)">
      <use xlink:href="#DejaVuSans-31"/>
      <use xlink:href="#DejaVuSans-2e" x="63.623047"/>
      <use xlink:href="#DejaVuSans-30" x="95.410156"/>
      <use xlink:href="#DejaVuSans-30" x="159.033203"/>
     </g>
    </g>
   </g>
   <g id="xtick_12">
    <g id="line2d_14">
     <path d="M 329.921021 230.448868 
L 333.536817 231.53347 
" style="fill: none; stroke: #000000; stroke-width: 0.8; stroke-linecap: square"/>
    </g>
    <g id="text_14">
     <!-- 1.05 -->
     <g transform="translate(332.161675 251.028605) scale(0.1 -0.1)">
      <use xlink:href="#DejaVuSans-31"/>
      <use xlink:href="#DejaVuSans-2e" x="63.623047"/>
      <use xlink:href="#DejaVuSans-30" x="95.410156"/>
      <use xlink:href="#DejaVuSans-35" x="159.033203"/>
     </g>
    </g>
   </g>
   <g id="xtick_13">
    <g id="line2d_15">
     <path d="M 346.260352 213.710732 
L 349.827602 214.754898 
" style="fill: none; stroke: #000000; stroke-width: 0.8; stroke-linecap: square"/>
    </g>
    <g id="text_15">
     <!-- 1.10 -->
     <g transform="translate(348.264811 234.030162) scale(0.1 -0.1)">
      <use xlink:href="#DejaVuSans-31"/>
      <use xlink:href="#DejaVuSans-2e" x="63.623047"/>
      <use xlink:href="#DejaVuSans-31" x="95.410156"/>
      <use xlink:href="#DejaVuSans-30" x="159.033203"/>
     </g>
    </g>
   </g>
  </g>
  <g id="axis3d_3">
   <g id="line2d_16">
    <path d="M 352.090401 209.294766 
L 357.122702 99.402171 
" style="fill: none; stroke: #000000; stroke-width: 0.8; stroke-linecap: square"/>
   </g>
   <g id="text_16">
    <!-- Vol -->
    <g transform="translate(387.44598 152.902279) scale(0.1 -0.1)">
     <defs>
      <path id="DejaVuSans-56" d="M 1831 0 
L 50 4666 
L 709 4666 
L 2188 738 
L 3669 4666 
L 4325 4666 
L 2547 0 
L 1831 0 
z
" transform="scale(0.015625)"/>
      <path id="DejaVuSans-6c" d="M 603 4863 
L 1178 4863 
L 1178 0 
L 603 0 
L 603 4863 
z
" transform="scale(0.015625)"/>
     </defs>
     <use xlink:href="#DejaVuSans-56"/>
     <use xlink:href="#DejaVuSans-6f" x="60.658203"/>
     <use xlink:href="#DejaVuSans-6c" x="121.839844"/>
    </g>
   </g>
   <g id="Line3DCollection_3">
    <path d="M 352.495655 200.445051 
L 210.977597 159.735828 
L 122.760924 232.907864 
" style="fill: none; stroke: #b0b0b0; stroke-width: 0.8"/>
    <path d="M 353.59577 176.421341 
L 210.710192 136.481617 
L 121.575751 208.296984 
" style="fill: none; stroke: #b0b0b0; stroke-width: 0.8"/>
    <path d="M 354.717567 151.924162 
L 210.437771 112.791204 
L 120.366321 183.182379 
" style="fill: none; stroke: #b0b0b0; stroke-width: 0.8"/>
    <path d="M 355.861693 126.939379 
L 210.160192 88.6522 
L 119.131881 157.548425 
" style="fill: none; stroke: #b0b0b0; stroke-width: 0.8"/>
   </g>
   <g id="xtick_14">
    <g id="line2d_17">
     <path d="M 351.307728 200.103331 
L 354.874344 201.129307 
" style="fill: none; stroke: #000000; stroke-width: 0.8; stroke-linecap: square"/>
    </g>
    <g id="text_17">
     <!-- 0.3 -->
     <g transform="translate(362.857147 205.455751) scale(0.1 -0.1)">
      <use xlink:href="#DejaVuSans-30"/>
      <use xlink:href="#DejaVuSans-2e" x="63.623047"/>
      <use xlink:href="#DejaVuSans-33" x="95.410156"/>
     </g>
    </g>
   </g>
   <g id="xtick_15">
    <g id="line2d_18">
     <path d="M 352.395815 176.085926 
L 355.998573 177.092978 
" style="fill: none; stroke: #000000; stroke-width: 0.8; stroke-linecap: square"/>
    </g>
    <g id="text_18">
     <!-- 0.4 -->
     <g transform="translate(364.132077 181.479856) scale(0.1 -0.1)">
      <use xlink:href="#DejaVuSans-30"/>
      <use xlink:href="#DejaVuSans-2e" x="63.623047"/>
      <use xlink:href="#DejaVuSans-34" x="95.410156"/>
     </g>
    </g>
   </g>
   <g id="xtick_16">
    <g id="line2d_19">
     <path d="M 353.505337 151.595369 
L 357.144977 152.582547 
" style="fill: none; stroke: #000000; stroke-width: 0.8; stroke-linecap: square"/>
    </g>
    <g id="text_19">
     <!-- 0.5 -->
     <g transform="translate(365.432056 157.032886) scale(0.1 -0.1)">
      <use xlink:href="#DejaVuSans-30"/>
      <use xlink:href="#DejaVuSans-2e" x="63.623047"/>
      <use xlink:href="#DejaVuSans-35" x="95.410156"/>
     </g>
    </g>
   </g>
   <g id="xtick_17">
    <g id="line2d_20">
     <path d="M 354.636936 126.617539 
L 358.314218 127.583849 
" style="fill: none; stroke: #000000; stroke-width: 0.8; stroke-linecap: square"/>
    </g>
    <g id="text_20">
     <!-- 0.6 -->
     <g transform="translate(366.75783 132.100818) scale(0.1 -0.1)">
      <defs>
       <path id="DejaVuSans-36" d="M 2113 2584 
Q 1688 2584 1439 2293 
Q 1191 2003 1191 1497 
Q 1191 994 1439 701 
Q 1688 409 2113 409 
Q 2538 409 2786 701 
Q 3034 994 3034 1497 
Q 3034 2003 2786 2293 
Q 2538 2584 2113 2584 
z
M 3366 4563 
L 3366 3988 
Q 3128 4100 2886 4159 
Q 2644 4219 2406 4219 
Q 1781 4219 1451 3797 
Q 1122 3375 1075 2522 
Q 1259 2794 1537 2939 
Q 1816 3084 2150 3084 
Q 2853 3084 3261 2657 
Q 3669 2231 3669 1497 
Q 3669 778 3244 343 
Q 2819 -91 2113 -91 
Q 1303 -91 875 529 
Q 447 1150 447 2328 
Q 447 3434 972 4092 
Q 1497 4750 2381 4750 
Q 2619 4750 2861 4703 
Q 3103 4656 3366 4563 
z
" transform="scale(0.015625)"/>
      </defs>
      <use xlink:href="#DejaVuSans-30"/>
      <use xlink:href="#DejaVuSans-2e" x="63.623047"/>
      <use xlink:href="#DejaVuSans-36" x="95.410156"/>
     </g>
    </g>
   </g>
  </g>
  <g id="axes_1">
   <g id="Poly3DCollection_1">
    <path d="M 271.459072 152.787043 
L 243.612341 127.37201 
L 244.889918 127.019686 
L 246.256941 126.810797 
L 274.053664 149.337138 
L 272.71214 151.081462 
z
" clip-path="url(#pe5f8e683bc)" style="fill: #1fa088"/>
    <path d="M 243.612341 127.37201 
L 210.718305 74.23274 
L 212.049623 73.28023 
L 213.476321 72.35593 
L 246.256941 126.810797 
L 244.889918 127.019686 
z
" clip-path="url(#pe5f8e683bc)" style="fill: #fbe723"/>
    <path d="M 270.043823 154.851761 
L 242.169271 128.066337 
L 243.27232 127.503031 
L 243.612341 127.37201 
L 271.459072 152.787043 
L 271.125615 153.258889 
z
" clip-path="url(#pe5f8e683bc)" style="fill: #1fa088"/>
    <path d="M 268.385506 157.480463 
L 240.478755 129.437222 
L 241.322979 128.668138 
L 242.169271 128.066337 
L 270.043823 154.851761 
L 269.213741 156.139167 
z
" clip-path="url(#pe5f8e683bc)" style="fill: #1f9f88"/>
    <path d="M 242.169271 128.066337 
L 209.217703 75.482317 
L 210.36444 74.511613 
L 210.718305 74.23274 
L 243.612341 127.37201 
L 243.27232 127.503031 
z
" clip-path="url(#pe5f8e683bc)" style="fill: #fde725"/>
    <path d="M 266.365517 160.891086 
L 238.420132 131.989844 
L 239.384619 130.6791 
L 240.478755 129.437222 
L 268.385506 157.480463 
L 267.311808 159.289074 
z
" clip-path="url(#pe5f8e683bc)" style="fill: #1e9c89"/>
    <path d="M 240.478755 129.437222 
L 207.462378 77.066425 
L 208.338801 76.270035 
L 209.217703 75.482317 
L 242.169271 128.066337 
L 241.322979 128.668138 
z
" clip-path="url(#pe5f8e683bc)" style="fill: #fde725"/>
    <path d="M 264.282065 164.133622 
L 236.293894 135.531279 
L 238.001841 132.617927 
L 238.420132 131.989844 
L 266.365517 160.891086 
L 265.955287 161.571669 
z
" clip-path="url(#pe5f8e683bc)" style="fill: #1f978b"/>
    <path d="M 303.013035 160.517933 
L 271.459072 152.787043 
L 272.71214 151.081462 
L 274.053664 149.337138 
L 305.563175 157.01107 
L 304.244487 158.811252 
z
" clip-path="url(#pe5f8e683bc)" style="fill: #24868e"/>
    <path d="M 238.420132 131.989844 
L 205.32365 78.905538 
L 206.32623 78.075424 
L 207.462378 77.066425 
L 240.478755 129.437222 
L 239.384619 130.6791 
z
" clip-path="url(#pe5f8e683bc)" style="fill: #fbe723"/>
    <path d="M 263.228745 165.489204 
L 235.216966 137.634673 
L 235.671988 136.722289 
L 236.293894 135.531279 
L 264.282065 164.133622 
L 263.67368 164.940212 
z
" clip-path="url(#pe5f8e683bc)" style="fill: #20928c"/>
    <path d="M 262.341612 166.507763 
L 234.309625 139.55192 
L 235.051725 137.97429 
L 235.216966 137.634673 
L 263.228745 165.489204 
L 263.067187 165.681399 
z
" clip-path="url(#pe5f8e683bc)" style="fill: #21918c"/>
    <path d="M 301.624278 162.424034 
L 270.043823 154.851761 
L 271.125615 153.258889 
L 271.459072 152.787043 
L 303.013035 160.517933 
L 302.685656 160.967405 
z
" clip-path="url(#pe5f8e683bc)" style="fill: #25838e"/>
    <path d="M 214.957515 181.931602 
L 182.65818 186.941056 
L 183.849708 179.775778 
L 184.509161 173.431615 
L 217.048703 181.321184 
L 216.275161 181.799884 
z
" clip-path="url(#pe5f8e683bc)" style="fill: #414287"/>
    <path d="M 236.293894 135.531279 
L 203.105905 80.360596 
L 204.888324 79.238955 
L 205.32365 78.905538 
L 238.420132 131.989844 
L 238.001841 132.617927 
z
" clip-path="url(#pe5f8e683bc)" style="fill: #f6e620"/>
    <path d="M 217.048703 181.321184 
L 184.509161 173.431615 
L 185.028154 167.778561 
L 185.060546 167.41719 
L 217.705743 180.69904 
L 217.667101 180.740871 
z
" clip-path="url(#pe5f8e683bc)" style="fill: #3a548c"/>
    <path d="M 213.361206 180.829406 
L 181.027874 186.731149 
L 182.433752 187.538573 
L 182.65818 186.941056 
L 214.957515 181.931602 
L 214.724501 181.859813 
z
" clip-path="url(#pe5f8e683bc)" style="fill: #443a83"/>
    <path d="M 299.998814 164.665473 
L 268.385506 157.480463 
L 269.213741 156.139167 
L 270.043823 154.851761 
L 301.624278 162.424034 
L 300.810364 163.547137 
z
" clip-path="url(#pe5f8e683bc)" style="fill: #27808e"/>
    <path d="M 259.139064 170.044146 
L 231.041782 147.398031 
L 231.569359 146.04321 
L 234.309625 139.55192 
L 262.341612 166.507763 
L 259.657489 169.428178 
z
" clip-path="url(#pe5f8e683bc)" style="fill: #23898e"/>
    <path d="M 235.216966 137.634673 
L 201.976441 80.807549 
L 202.454294 80.647544 
L 203.105905 80.360596 
L 236.293894 135.531279 
L 235.671988 136.722289 
z
" clip-path="url(#pe5f8e683bc)" style="fill: #f1e51d"/>
    <path d="M 217.705743 180.69904 
L 185.060546 167.41719 
L 187.425816 140.994319 
L 188.13575 133.503566 
L 221.304029 174.361993 
L 220.489853 176.167598 
z
" clip-path="url(#pe5f8e683bc)" style="fill: #287c8e"/>
    <path d="M 234.309625 139.55192 
L 201.020648 81.001862 
L 201.802658 80.854381 
L 201.976441 80.807549 
L 235.216966 137.634673 
L 235.051725 137.97429 
z
" clip-path="url(#pe5f8e683bc)" style="fill: #ece51b"/>
    <path d="M 257.785976 171.864406 
L 229.66841 151.057401 
L 230.152062 149.748194 
L 231.041782 147.398031 
L 259.139064 170.044146 
L 258.263106 171.180831 
z
" clip-path="url(#pe5f8e683bc)" style="fill: #26828e"/>
    <path d="M 298.021406 167.343953 
L 266.365517 160.891086 
L 267.311808 159.289074 
L 268.385506 157.480463 
L 299.998814 164.665473 
L 298.94774 166.09431 
z
" clip-path="url(#pe5f8e683bc)" style="fill: #287c8e"/>
    <path d="M 255.564886 175.882795 
L 227.426809 157.368052 
L 229.306437 152.050658 
L 229.66841 151.057401 
L 257.785976 171.864406 
L 257.428416 172.412197 
z
" clip-path="url(#pe5f8e683bc)" style="fill: #287c8e"/>
    <path d="M 303.013035 160.517933 
L 304.244487 158.811252 
L 305.563175 157.01107 
z
" clip-path="url(#pe5f8e683bc)" style="fill: #23888e"/>
    <path d="M 221.304029 174.361993 
L 188.13575 133.503566 
L 188.824109 126.656284 
L 188.893676 125.991171 
L 222.158808 172.285396 
L 222.081012 172.48123 
z
" clip-path="url(#pe5f8e683bc)" style="fill: #1e9c89"/>
    <path d="M 211.949709 178.616203 
L 179.458751 180.666603 
L 180.03521 183.255748 
L 181.027874 186.731149 
L 213.361206 180.829406 
L 212.460611 179.549464 
z
" clip-path="url(#pe5f8e683bc)" style="fill: #3e4c8a"/>
    <path d="M 295.969437 170.483167 
L 264.282065 164.133622 
L 265.955287 161.571669 
L 266.365517 160.891086 
L 298.021406 167.343953 
L 297.619012 167.910973 
z
" clip-path="url(#pe5f8e683bc)" style="fill: #2a788e"/>
    <path d="M 254.18114 179.302305 
L 226.038633 161.424313 
L 227.029194 158.521973 
L 227.426809 157.368052 
L 255.564886 175.882795 
L 255.169176 176.778024 
z
" clip-path="url(#pe5f8e683bc)" style="fill: #2c718e"/>
    <path d="M 231.041782 147.398031 
L 197.575026 82.360948 
L 198.128631 81.883705 
L 201.020648 81.001862 
L 234.309625 139.55192 
L 231.569359 146.04321 
z
" clip-path="url(#pe5f8e683bc)" style="fill: #e2e418"/>
    <path d="M 245.864649 215.159473 
L 217.705743 180.69904 
L 220.489853 176.167598 
L 221.304029 174.361993 
L 249.431662 198.822435 
L 248.61654 203.285631 
z
" clip-path="url(#pe5f8e683bc)" style="fill: #472e7c"/>
    <path d="M 249.431662 198.822435 
L 221.304029 174.361993 
L 222.081012 172.48123 
L 222.158808 172.285396 
L 250.289915 194.275724 
L 250.211754 194.673916 
z
" clip-path="url(#pe5f8e683bc)" style="fill: #404588"/>
    <path d="M 250.289915 194.275724 
L 222.158808 172.285396 
L 223.250056 169.415793 
L 226.038633 161.424313 
L 254.18114 179.302305 
L 251.386327 189.129135 
z
" clip-path="url(#pe5f8e683bc)" style="fill: #38598c"/>
    <path d="M 245.22522 216.296044 
L 217.048703 181.321184 
L 217.667101 180.740871 
L 217.705743 180.69904 
L 245.864649 215.159473 
L 245.826932 215.250035 
z
" clip-path="url(#pe5f8e683bc)" style="fill: #481769"/>
    <path d="M 222.158808 172.285396 
L 188.893676 125.991171 
L 189.882249 117.103399 
L 192.51304 98.504854 
L 226.038633 161.424313 
L 223.250056 169.415793 
z
" clip-path="url(#pe5f8e683bc)" style="fill: #35b779"/>
    <path d="M 301.624278 162.424034 
L 302.685656 160.967405 
L 303.013035 160.517933 
z
" clip-path="url(#pe5f8e683bc)" style="fill: #25858e"/>
    <path d="M 294.926392 172.203154 
L 263.228745 165.489204 
L 263.67368 164.940212 
L 264.282065 164.133622 
L 295.969437 170.483167 
L 295.367196 171.475629 
z
" clip-path="url(#pe5f8e683bc)" style="fill: #2b748e"/>
    <path d="M 229.66841 151.057401 
L 196.146711 84.501028 
L 196.647158 83.577702 
L 197.575026 82.360948 
L 231.041782 147.398031 
L 230.152062 149.748194 
z
" clip-path="url(#pe5f8e683bc)" style="fill: #d0e11c"/>
    <path d="M 294.047292 173.639864 
L 262.341612 166.507763 
L 263.067187 165.681399 
L 263.228745 165.489204 
L 294.926392 172.203154 
L 294.766309 172.4661 
z
" clip-path="url(#pe5f8e683bc)" style="fill: #2c728e"/>
    <path d="M 227.426809 157.368052 
L 193.875942 91.694214 
L 195.774387 85.331571 
L 196.146711 84.501028 
L 229.66841 151.057401 
L 229.306437 152.050658 
z
" clip-path="url(#pe5f8e683bc)" style="fill: #b8de29"/>
    <path d="M 226.038633 161.424313 
L 192.51304 98.504854 
L 193.482091 93.467648 
L 193.875942 91.694214 
L 227.426809 157.368052 
L 227.029194 158.521973 
z
" clip-path="url(#pe5f8e683bc)" style="fill: #8bd646"/>
    <path d="M 299.998814 164.665473 
L 300.810364 163.547137 
L 301.624278 162.424034 
z
" clip-path="url(#pe5f8e683bc)" style="fill: #26828e"/>
    <path d="M 243.214903 212.860414 
L 214.957515 181.931602 
L 216.275161 181.799884 
L 217.048703 181.321184 
L 245.22522 216.296044 
L 244.477428 216.401223 
z
" clip-path="url(#pe5f8e683bc)" style="fill: #481c6e"/>
    <path d="M 210.416734 175.661539 
L 177.70511 172.023457 
L 178.244821 174.66769 
L 179.458751 180.666603 
L 211.949709 178.616203 
L 210.887597 176.519575 
z
" clip-path="url(#pe5f8e683bc)" style="fill: #32648e"/>
    <path d="M 290.871604 178.982596 
L 259.139064 170.044146 
L 259.657489 169.428178 
L 262.341612 166.507763 
L 294.047292 173.639864 
L 291.386017 178.072146 
z
" clip-path="url(#pe5f8e683bc)" style="fill: #2e6f8e"/>
    <path d="M 331.793237 193.99642 
L 298.021406 167.343953 
L 298.94774 166.09431 
L 299.998814 164.665473 
z
" clip-path="url(#pe5f8e683bc)" style="fill: #2d718e"/>
    <path d="M 289.529234 181.445958 
L 257.785976 171.864406 
L 258.263106 171.180831 
L 259.139064 170.044146 
L 290.871604 178.982596 
L 290.00231 180.572699 
z
" clip-path="url(#pe5f8e683bc)" style="fill: #2f6b8e"/>
    <path d="M 241.697845 202.60584 
L 213.361206 180.829406 
L 214.724501 181.859813 
L 214.957515 181.931602 
L 243.214903 212.860414 
L 242.99289 211.681007 
z
" clip-path="url(#pe5f8e683bc)" style="fill: #46327e"/>
    <path d="M 209.673597 174.463506 
L 176.860044 168.248434 
L 177.392054 170.560122 
L 177.70511 172.023457 
L 210.416734 175.661539 
L 210.1426 175.197357 
z
" clip-path="url(#pe5f8e683bc)" style="fill: #2b748e"/>
    <path d="M 287.334327 185.439605 
L 255.564886 175.882795 
L 257.428416 172.412197 
L 257.785976 171.864406 
L 289.529234 181.445958 
L 289.175102 182.095047 
z
" clip-path="url(#pe5f8e683bc)" style="fill: #31678e"/>
    <path d="M 285.971091 187.972121 
L 254.18114 179.302305 
L 255.169176 176.778024 
L 255.564886 175.882795 
L 287.334327 185.439605 
L 286.944265 186.154665 
z
" clip-path="url(#pe5f8e683bc)" style="fill: #355f8d"/>
    <path d="M 329.872425 194.942987 
L 295.969437 170.483167 
L 297.619012 167.910973 
L 298.021406 167.343953 
L 331.793237 193.99642 
L 331.416744 194.155655 
z
" clip-path="url(#pe5f8e683bc)" style="fill: #34618d"/>
    <path d="M 282.13664 196.117295 
L 250.289915 194.275724 
L 251.386327 189.129135 
L 254.18114 179.302305 
L 285.971091 187.972121 
L 283.218852 193.600762 
z
" clip-path="url(#pe5f8e683bc)" style="fill: #3e4a89"/>
    <path d="M 277.731743 207.184224 
L 245.864649 215.159473 
L 248.61654 203.285631 
L 249.431662 198.822435 
L 281.287124 198.251636 
L 280.477102 200.411854 
z
" clip-path="url(#pe5f8e683bc)" style="fill: #481d6f"/>
    <path d="M 207.808405 172.163666 
L 174.789731 161.345067 
L 176.508698 166.845509 
L 176.860044 168.248434 
L 209.673597 174.463506 
L 209.361604 174.01745 
z
" clip-path="url(#pe5f8e683bc)" style="fill: #26828e"/>
    <path d="M 277.095961 208.279234 
L 245.22522 216.296044 
L 245.826932 215.250035 
L 245.864649 215.159473 
L 277.731743 207.184224 
L 277.69418 207.256423 
z
" clip-path="url(#pe5f8e683bc)" style="fill: #440154"/>
    <path d="M 281.287124 198.251636 
L 249.431662 198.822435 
L 250.211754 194.673916 
L 250.289915 194.275724 
L 282.13664 196.117295 
L 282.059386 196.305274 
z
" clip-path="url(#pe5f8e683bc)" style="fill: #453781"/>
    <path d="M 328.895977 195.461838 
L 294.926392 172.203154 
L 295.367196 171.475629 
L 295.969437 170.483167 
L 329.872425 194.942987 
L 329.308589 195.246725 
z
" clip-path="url(#pe5f8e683bc)" style="fill: #34608d"/>
    <path d="M 275.115069 209.790951 
L 243.214903 212.860414 
L 244.477428 216.401223 
L 245.22522 216.296044 
L 277.095961 208.279234 
L 276.355819 209.175684 
z
" clip-path="url(#pe5f8e683bc)" style="fill: #450457"/>
    <path d="M 328.073757 195.849699 
L 294.047292 173.639864 
L 294.766309 172.4661 
L 294.926392 172.203154 
L 328.895977 195.461838 
L 328.74616 195.537267 
z
" clip-path="url(#pe5f8e683bc)" style="fill: #34608d"/>
    <path d="M 240.360348 193.309976 
L 211.949709 178.616203 
L 212.460611 179.549464 
L 213.361206 180.829406 
L 241.697845 202.60584 
L 240.844118 196.315238 
z
" clip-path="url(#pe5f8e683bc)" style="fill: #3a548c"/>
    <path d="M 206.647715 170.908732 
L 173.538399 158.66981 
L 174.327373 160.233242 
L 174.789731 161.345067 
L 207.808405 172.163666 
L 207.38249 171.69777 
z
" clip-path="url(#pe5f8e683bc)" style="fill: #20928c"/>
    <path d="M 325.089455 197.572967 
L 290.871604 178.982596 
L 291.386017 178.072146 
L 294.047292 173.639864 
L 328.073757 195.849699 
L 325.578571 197.121654 
z
" clip-path="url(#pe5f8e683bc)" style="fill: #355e8d"/>
    <path d="M 273.642904 209.235504 
L 241.697845 202.60584 
L 242.99289 211.681007 
L 243.214903 212.860414 
L 275.115069 209.790951 
L 274.898132 209.791947 
z
" clip-path="url(#pe5f8e683bc)" style="fill: #481b6d"/>
    <path d="M 205.875727 170.115723 
L 172.72017 157.463681 
L 172.801459 157.56567 
L 173.538399 158.66981 
L 206.647715 170.908732 
L 205.952851 170.192746 
z
" clip-path="url(#pe5f8e683bc)" style="fill: #1e9b8a"/>
    <path d="M 238.90689 188.032175 
L 210.416734 175.661539 
L 210.887597 176.519575 
L 211.949709 178.616203 
L 240.360348 193.309976 
L 239.354103 189.137474 
z
" clip-path="url(#pe5f8e683bc)" style="fill: #2f6b8e"/>
    <path d="M 323.81096 198.836949 
L 289.529234 181.445958 
L 290.00231 180.572699 
L 290.871604 178.982596 
L 325.089455 197.572967 
L 324.260777 198.414599 
z
" clip-path="url(#pe5f8e683bc)" style="fill: #365c8d"/>
    <path d="M 321.738142 200.273092 
L 287.334327 185.439605 
L 289.175102 182.095047 
L 289.529234 181.445958 
L 323.81096 198.836949 
L 323.474973 199.125668 
z
" clip-path="url(#pe5f8e683bc)" style="fill: #375a8c"/>
    <path d="M 204.452513 168.814478 
L 171.23558 156.221502 
L 171.513823 156.370963 
L 172.72017 157.463681 
L 205.875727 170.115723 
L 204.721211 169.040377 
z
" clip-path="url(#pe5f8e683bc)" style="fill: #1fa287"/>
    <path d="M 238.199456 186.940106 
L 209.673597 174.463506 
L 210.1426 175.197357 
L 210.416734 175.661539 
L 238.90689 188.032175 
L 238.646143 187.549248 
z
" clip-path="url(#pe5f8e683bc)" style="fill: #2b758e"/>
    <path d="M 203.150224 167.781288 
L 169.898806 155.943167 
L 171.116675 156.168202 
L 171.23558 156.221502 
L 204.452513 168.814478 
L 204.337434 168.720238 
z
" clip-path="url(#pe5f8e683bc)" style="fill: #22a785"/>
    <path d="M 320.457003 200.935117 
L 285.971091 187.972121 
L 286.944265 186.154665 
L 287.334327 185.439605 
L 321.738142 200.273092 
L 321.372042 200.449094 
z
" clip-path="url(#pe5f8e683bc)" style="fill: #38588c"/>
    <path d="M 236.417253 185.686195 
L 207.808405 172.163666 
L 209.361604 174.01745 
L 209.673597 174.463506 
L 238.199456 186.940106 
L 237.901918 186.651849 
z
" clip-path="url(#pe5f8e683bc)" style="fill: #287d8e"/>
    <path d="M 272.366997 207.804696 
L 240.360348 193.309976 
L 240.844118 196.315238 
L 241.697845 202.60584 
L 273.642904 209.235504 
L 272.826218 208.409429 
z
" clip-path="url(#pe5f8e683bc)" style="fill: #433e85"/>
    <path d="M 202.767714 167.471542 
L 169.509633 155.975754 
L 169.704021 155.954113 
L 169.898806 155.943167 
L 203.150224 167.781288 
L 202.958946 167.627175 
z
" clip-path="url(#pe5f8e683bc)" style="fill: #25ac82"/>
    <path d="M 316.802974 204.606332 
L 282.13664 196.117295 
L 283.218852 193.600762 
L 285.971091 187.972121 
L 320.457003 200.935117 
L 317.834015 203.505026 
z
" clip-path="url(#pe5f8e683bc)" style="fill: #3b528b"/>
    <path d="M 201.583948 166.530436 
L 168.311928 156.295408 
L 168.851387 156.11755 
L 169.509633 155.975754 
L 202.767714 167.471542 
L 202.118051 166.943804 
z
" clip-path="url(#pe5f8e683bc)" style="fill: #28ae80"/>
    <path d="M 235.305587 184.327126 
L 206.647715 170.908732 
L 207.38249 171.69777 
L 207.808405 172.163666 
L 236.417253 185.686195 
L 236.009574 185.294178 
z
" clip-path="url(#pe5f8e683bc)" style="fill: #24878e"/>
    <path d="M 200.595032 165.862453 
L 167.314542 156.704556 
L 168.158156 156.353471 
L 168.311928 156.295408 
L 201.583948 166.530436 
L 201.431546 166.418898 
z
" clip-path="url(#pe5f8e683bc)" style="fill: #2cb17e"/>
    <path d="M 315.997792 205.392585 
L 281.287124 198.251636 
L 282.059386 196.305274 
L 282.13664 196.117295 
L 316.802974 204.606332 
L 316.729583 204.681171 
z
" clip-path="url(#pe5f8e683bc)" style="fill: #3d4d8a"/>
    <path d="M 270.997659 205.498698 
L 238.90689 188.032175 
L 239.354103 189.137474 
L 240.360348 193.309976 
L 272.366997 207.804696 
L 271.417824 206.27796 
z
" clip-path="url(#pe5f8e683bc)" style="fill: #39558c"/>
    <path d="M 199.685668 165.356131 
L 166.396603 157.087482 
L 166.625995 156.996504 
L 167.314542 156.704556 
L 200.595032 165.862453 
L 199.912702 165.473584 
z
" clip-path="url(#pe5f8e683bc)" style="fill: #31b57b"/>
    <path d="M 234.565539 183.405467 
L 205.875727 170.115723 
L 205.952851 170.192746 
L 206.647715 170.908732 
L 235.305587 184.327126 
L 234.639457 183.474128 
z
" clip-path="url(#pe5f8e683bc)" style="fill: #218e8d"/>
    <path d="M 312.63937 207.974917 
L 277.731743 207.184224 
L 280.477102 200.411854 
L 281.287124 198.251636 
L 315.997792 205.392585 
L 315.233967 206.052459 
z
" clip-path="url(#pe5f8e683bc)" style="fill: #3f4788"/>
    <path d="M 198.402882 164.79248 
L 165.095285 157.458276 
L 165.746468 157.310718 
L 166.396603 157.087482 
L 199.685668 165.356131 
L 199.04349 165.053736 
z
" clip-path="url(#pe5f8e683bc)" style="fill: #35b779"/>
    <path d="M 270.334129 204.161066 
L 238.199456 186.940106 
L 238.646143 187.549248 
L 238.90689 188.032175 
L 270.997659 205.498698 
L 270.752971 205.019628 
z
" clip-path="url(#pe5f8e683bc)" style="fill: #34618d"/>
    <path d="M 233.201767 182.850739 
L 204.452513 168.814478 
L 204.721211 169.040377 
L 205.875727 170.115723 
L 234.565539 183.405467 
L 233.459415 182.939941 
z
" clip-path="url(#pe5f8e683bc)" style="fill: #1f948c"/>
    <path d="M 312.026475 208.542829 
L 277.095961 208.279234 
L 277.69418 207.256423 
L 277.731743 207.184224 
L 312.63937 207.974917 
L 312.603348 208.006155 
z
" clip-path="url(#pe5f8e683bc)" style="fill: #424086"/>
    <path d="M 197.576105 164.507691 
L 164.249402 157.486492 
L 164.826615 157.489787 
L 165.095285 157.458276 
L 198.402882 164.79248 
L 198.139546 164.695745 
z
" clip-path="url(#pe5f8e683bc)" style="fill: #3aba76"/>
    <path d="M 310.078547 210.667272 
L 275.115069 209.790951 
L 276.355819 209.175684 
L 277.095961 208.279234 
L 312.026475 208.542829 
L 311.305056 209.277262 
z
" clip-path="url(#pe5f8e683bc)" style="fill: #424086"/>
    <path d="M 268.662709 200.550213 
L 236.417253 185.686195 
L 237.901918 186.651849 
L 238.199456 186.940106 
L 270.334129 204.161066 
L 270.055284 203.566153 
z
" clip-path="url(#pe5f8e683bc)" style="fill: #306a8e"/>
    <path d="M 196.864023 164.302954 
L 163.514915 157.33251 
L 164.210836 157.482462 
L 164.249402 157.486492 
L 197.576105 164.507691 
L 197.538582 164.496028 
z
" clip-path="url(#pe5f8e683bc)" style="fill: #3dbc74"/>
    <path d="M 231.950785 181.868133 
L 203.150224 167.781288 
L 204.337434 168.720238 
L 204.452513 168.814478 
L 233.201767 182.850739 
L 233.091357 182.799025 
z
" clip-path="url(#pe5f8e683bc)" style="fill: #1f998a"/>
    <path d="M 195.370432 163.967061 
L 161.961654 156.651118 
L 163.204764 157.226098 
L 163.514915 157.33251 
L 196.864023 164.302954 
L 196.56472 164.226519 
z
" clip-path="url(#pe5f8e683bc)" style="fill: #44bf70"/>
    <path d="M 308.583058 213.170868 
L 273.642904 209.235504 
L 274.898132 209.791947 
L 275.115069 209.790951 
L 310.078547 210.667272 
L 309.861332 210.958132 
z
" clip-path="url(#pe5f8e683bc)" style="fill: #424186"/>
    <path d="M 231.583376 181.562273 
L 202.767714 167.471542 
L 202.958946 167.627175 
L 203.150224 167.781288 
L 231.950785 181.868133 
L 231.767026 181.708074 
z
" clip-path="url(#pe5f8e683bc)" style="fill: #1f9f88"/>
    <path d="M 230.447673 181.046076 
L 201.583948 166.530436 
L 202.118051 166.943804 
L 202.767714 167.471542 
L 231.583376 181.562273 
L 230.959954 181.205615 
z
" clip-path="url(#pe5f8e683bc)" style="fill: #1fa287"/>
    <path d="M 267.616074 198.593032 
L 235.305587 184.327126 
L 236.009574 185.294178 
L 236.417253 185.686195 
L 268.662709 200.550213 
L 268.279401 199.779725 
z
" clip-path="url(#pe5f8e683bc)" style="fill: #2a768e"/>
    <path d="M 194.440523 163.806569 
L 160.99118 156.15241 
L 161.883934 156.610867 
L 161.961654 156.651118 
L 195.370432 163.967061 
L 195.295938 163.95287 
z
" clip-path="url(#pe5f8e683bc)" style="fill: #4ec36b"/>
    <path d="M 307.257585 216.066398 
L 272.366997 207.804696 
L 272.826218 208.409429 
L 273.642904 209.235504 
L 308.583058 213.170868 
L 307.733181 215.100924 
z
" clip-path="url(#pe5f8e683bc)" style="fill: #414487"/>
    <path d="M 229.498756 180.950503 
L 200.595032 165.862453 
L 201.431546 166.418898 
L 201.583948 166.530436 
L 230.447673 181.046076 
L 230.301485 181.017592 
z
" clip-path="url(#pe5f8e683bc)" style="fill: #22a785"/>
    <path d="M 192.885333 163.66187 
L 159.372997 155.559543 
L 160.33365 155.853852 
L 160.99118 156.15241 
L 194.440523 163.806569 
L 193.80989 163.725034 
z
" clip-path="url(#pe5f8e683bc)" style="fill: #58c765"/>
    <path d="M 266.915666 197.595588 
L 234.565539 183.405467 
L 234.639457 183.474128 
L 235.305587 184.327126 
L 267.616074 198.593032 
L 266.985794 197.684277 
z
" clip-path="url(#pe5f8e683bc)" style="fill: #277f8e"/>
    <path d="M 305.904822 216.424426 
L 270.997659 205.498698 
L 271.417824 206.27796 
L 272.366997 207.804696 
L 307.257585 216.066398 
L 306.304908 216.887088 
z
" clip-path="url(#pe5f8e683bc)" style="fill: #3e4989"/>
    <path d="M 228.625196 180.94022 
L 199.685668 165.356131 
L 199.912702 165.473584 
L 200.595032 165.862453 
L 229.498756 180.950503 
L 228.84341 180.945153 
z
" clip-path="url(#pe5f8e683bc)" style="fill: #25ab82"/>
    <path d="M 192.295584 163.665457 
L 158.763372 155.4981 
L 159.296564 155.546269 
L 159.372997 155.559543 
L 192.885333 163.66187 
L 192.811527 163.660272 
z
" clip-path="url(#pe5f8e683bc)" style="fill: #60ca60"/>
    <path d="M 265.616199 196.296087 
L 233.201767 182.850739 
L 233.459415 182.939941 
L 234.565539 183.405467 
L 266.915666 197.595588 
L 265.862238 196.500524 
z
" clip-path="url(#pe5f8e683bc)" style="fill: #25848e"/>
    <path d="M 227.39105 180.926787 
L 198.402882 164.79248 
L 199.04349 165.053736 
L 199.685668 165.356131 
L 228.625196 180.94022 
L 228.007522 180.911266 
z
" clip-path="url(#pe5f8e683bc)" style="fill: #28ae80"/>
    <path d="M 191.340896 163.760666 
L 157.779026 155.531301 
L 158.346242 155.500748 
L 158.763372 155.4981 
L 192.295584 163.665457 
L 191.891102 163.691264 
z
" clip-path="url(#pe5f8e683bc)" style="fill: #65cb5e"/>
    <path d="M 305.306673 214.396034 
L 270.334129 204.161066 
L 270.752971 205.019628 
L 270.997659 205.498698 
L 305.904822 216.424426 
L 305.679776 215.850304 
z
" clip-path="url(#pe5f8e683bc)" style="fill: #3b518b"/>
    <path d="M 190.755852 163.882664 
L 157.174839 155.561441 
L 157.627938 155.54029 
L 157.779026 155.531301 
L 191.340896 163.760666 
L 191.194452 163.78633 
z
" clip-path="url(#pe5f8e683bc)" style="fill: #69cd5b"/>
    <path d="M 264.421335 195.458359 
L 231.950785 181.868133 
L 233.091357 182.799025 
L 233.201767 182.850739 
L 265.616199 196.296087 
L 265.510745 196.212926 
z
" clip-path="url(#pe5f8e683bc)" style="fill: #238a8d"/>
    <path d="M 226.595772 181.139827 
L 197.576105 164.507691 
L 198.139546 164.695745 
L 198.402882 164.79248 
L 227.39105 180.926787 
L 227.137672 180.967073 
z
" clip-path="url(#pe5f8e683bc)" style="fill: #2db27d"/>
    <path d="M 190.318394 164.009541 
L 156.721992 155.574045 
L 156.948382 155.568751 
L 157.174839 155.561441 
L 190.755852 163.882664 
L 190.536978 163.942211 
z
" clip-path="url(#pe5f8e683bc)" style="fill: #6ccd5a"/>
    <path d="M 225.911188 181.46778 
L 196.864023 164.302954 
L 197.538582 164.496028 
L 197.576105 164.507691 
L 226.595772 181.139827 
L 226.559693 181.154783 
z
" clip-path="url(#pe5f8e683bc)" style="fill: #2fb47c"/>
    <path d="M 264.070259 195.234313 
L 231.583376 181.562273 
L 231.767026 181.708074 
L 231.950785 181.868133 
L 264.421335 195.458359 
L 264.245765 195.346213 
z
" clip-path="url(#pe5f8e683bc)" style="fill: #218f8d"/>
    <path d="M 303.900721 205.255319 
L 268.662709 200.550213 
L 270.055284 203.566153 
L 270.334129 204.161066 
L 305.306673 214.396034 
L 305.065144 213.155612 
z
" clip-path="url(#pe5f8e683bc)" style="fill: #33628d"/>
    <path d="M 187.678077 165.219661 
L 153.974141 155.521736 
L 155.289934 155.568461 
L 156.721992 155.574045 
L 190.318394 164.009541 
L 188.940033 164.574504 
z
" clip-path="url(#pe5f8e683bc)" style="fill: #73d056"/>
    <path d="M 224.474886 182.208104 
L 195.370432 163.967061 
L 196.56472 164.226519 
L 196.864023 164.302954 
L 225.911188 181.46778 
L 225.623442 181.619309 
z
" clip-path="url(#pe5f8e683bc)" style="fill: #32b67a"/>
    <path d="M 262.983846 194.515789 
L 230.447673 181.046076 
L 230.959954 181.205615 
L 231.583376 181.562273 
L 264.070259 195.234313 
L 263.474134 194.843983 
z
" clip-path="url(#pe5f8e683bc)" style="fill: #20928c"/>
    <path d="M 223.580396 182.67124 
L 194.440523 163.806569 
L 195.295938 163.95287 
L 195.370432 163.967061 
L 224.474886 182.208104 
L 224.403233 182.244572 
z
" clip-path="url(#pe5f8e683bc)" style="fill: #37b878"/>
    <path d="M 262.071756 194.229384 
L 229.498756 180.950503 
L 230.301485 181.017592 
L 230.447673 181.046076 
L 262.983846 194.515789 
L 262.843753 194.433257 
z
" clip-path="url(#pe5f8e683bc)" style="fill: #1f968b"/>
    <path d="M 186.136995 166.135061 
L 152.362868 155.443829 
L 152.662145 155.458361 
L 153.974141 155.521736 
L 187.678077 165.219661 
L 186.422928 165.954825 
z
" clip-path="url(#pe5f8e683bc)" style="fill: #7fd34e"/>
    <path d="M 222.083809 183.539917 
L 192.885333 163.66187 
L 193.80989 163.725034 
L 194.440523 163.806569 
L 223.580396 182.67124 
L 222.973663 183.003857 
z
" clip-path="url(#pe5f8e683bc)" style="fill: #3bbb75"/>
    <path d="M 261.225917 194.619577 
L 228.625196 180.94022 
L 228.84341 180.945153 
L 229.498756 180.950503 
L 262.071756 194.229384 
L 261.437453 194.490393 
z
" clip-path="url(#pe5f8e683bc)" style="fill: #1f998a"/>
    <path d="M 185.139041 166.80049 
L 151.317383 155.39879 
L 151.80239 155.418206 
L 152.362868 155.443829 
L 186.136995 166.135061 
L 185.601832 166.484919 
z
" clip-path="url(#pe5f8e683bc)" style="fill: #84d44b"/>
    <path d="M 303.016519 199.65829 
L 267.616074 198.593032 
L 268.279401 199.779725 
L 268.662709 200.550213 
L 303.900721 205.255319 
L 303.581245 203.028923 
z
" clip-path="url(#pe5f8e683bc)" style="fill: #297a8e"/>
    <path d="M 221.515906 183.923375 
L 192.295584 163.665457 
L 192.811527 163.660272 
L 192.885333 163.66187 
L 222.083809 183.539917 
L 222.012751 183.585909 
z
" clip-path="url(#pe5f8e683bc)" style="fill: #3fbc73"/>
    <path d="M 260.033032 194.96516 
L 227.39105 180.926787 
L 228.007522 180.911266 
L 228.625196 180.94022 
L 261.225917 194.619577 
L 260.627878 194.920302 
z
" clip-path="url(#pe5f8e683bc)" style="fill: #1e9c89"/>
    <path d="M 220.595939 184.633125 
L 191.340896 163.760666 
L 191.891102 163.691264 
L 192.295584 163.665457 
L 221.515906 183.923375 
L 221.126243 184.209695 
z
" clip-path="url(#pe5f8e683bc)" style="fill: #40bd72"/>
    <path d="M 183.085784 168.34274 
L 149.162929 155.372201 
L 150.126704 155.369025 
L 151.317383 155.39879 
L 185.139041 166.80049 
L 184.003883 167.624827 
z
" clip-path="url(#pe5f8e683bc)" style="fill: #89d548"/>
    <path d="M 259.265538 194.912208 
L 226.595772 181.139827 
L 227.137672 180.967073 
L 227.39105 180.926787 
L 260.033032 194.96516 
L 259.788726 194.94046 
z
" clip-path="url(#pe5f8e683bc)" style="fill: #1f9e89"/>
    <path d="M 220.031629 185.124894 
L 190.755852 163.882664 
L 191.194452 163.78633 
L 191.340896 163.760666 
L 220.595939 184.633125 
L 220.454731 184.752308 
z
" clip-path="url(#pe5f8e683bc)" style="fill: #42be71"/>
    <path d="M 302.391852 197.272436 
L 266.915666 197.595588 
L 266.985794 197.684277 
L 267.616074 198.593032 
L 303.016519 199.65829 
L 302.456122 197.440251 
z
" clip-path="url(#pe5f8e683bc)" style="fill: #24878e"/>
    <path d="M 219.60931 185.518965 
L 190.318394 164.009541 
L 190.536978 163.942211 
L 190.755852 163.882664 
L 220.031629 185.124894 
L 219.820372 185.31933 
z
" clip-path="url(#pe5f8e683bc)" style="fill: #44bf70"/>
    <path d="M 258.602254 195.087489 
L 225.911188 181.46778 
L 226.559693 181.154783 
L 226.595772 181.139827 
L 259.265538 194.912208 
L 259.230651 194.914621 
z
" clip-path="url(#pe5f8e683bc)" style="fill: #1fa088"/>
    <path d="M 257.205466 196.096662 
L 224.474886 182.208104 
L 225.623442 181.619309 
L 225.911188 181.46778 
L 258.602254 195.087489 
L 258.322818 195.23264 
z
" clip-path="url(#pe5f8e683bc)" style="fill: #1fa188"/>
    <path d="M 180.493421 170.60756 
L 146.440754 155.590209 
L 147.540331 155.457659 
L 149.162929 155.372201 
L 183.085784 168.34274 
L 181.54069 169.651239 
z
" clip-path="url(#pe5f8e683bc)" style="fill: #90d743"/>
    <path d="M 217.05679 188.285925 
L 187.678077 165.219661 
L 188.940033 164.574504 
L 190.318394 164.009541 
L 219.60931 185.518965 
L 218.277091 186.891034 
z
" clip-path="url(#pe5f8e683bc)" style="fill: #44bf70"/>
    <path d="M 301.153932 196.157606 
L 265.616199 196.296087 
L 265.862238 196.500524 
L 266.915666 197.595588 
L 302.391852 197.272436 
L 301.391867 196.209359 
z
" clip-path="url(#pe5f8e683bc)" style="fill: #218f8d"/>
    <path d="M 256.334376 196.919715 
L 223.580396 182.67124 
L 224.403233 182.244572 
L 224.474886 182.208104 
L 257.205466 196.096662 
L 257.135697 196.160526 
z
" clip-path="url(#pe5f8e683bc)" style="fill: #1fa187"/>
    <path d="M 300.006197 195.664818 
L 264.421335 195.458359 
L 265.510745 196.212926 
L 265.616199 196.296087 
L 301.153932 196.157606 
L 301.052002 196.135488 
z
" clip-path="url(#pe5f8e683bc)" style="fill: #1f948c"/>
    <path d="M 215.566046 190.109134 
L 186.136995 166.135061 
L 186.422928 165.954825 
L 187.678077 165.219661 
L 217.05679 188.285925 
L 215.842708 189.763862 
z
" clip-path="url(#pe5f8e683bc)" style="fill: #44bf70"/>
    <path d="M 178.931934 172.133818 
L 144.802894 155.93085 
L 145.165598 155.838854 
L 146.440754 155.590209 
L 180.493421 170.60756 
L 179.277956 171.785452 
z
" clip-path="url(#pe5f8e683bc)" style="fill: #95d840"/>
    <path d="M 254.877114 198.244129 
L 222.083809 183.539917 
L 222.973663 183.003857 
L 223.580396 182.67124 
L 256.334376 196.919715 
L 255.743577 197.469332 
z
" clip-path="url(#pe5f8e683bc)" style="fill: #1fa287"/>
    <path d="M 214.600109 191.329528 
L 185.139041 166.80049 
L 185.601832 166.484919 
L 186.136995 166.135061 
L 215.566046 190.109134 
L 215.048122 190.76094 
z
" clip-path="url(#pe5f8e683bc)" style="fill: #44bf70"/>
    <path d="M 254.323974 198.728886 
L 221.515906 183.923375 
L 222.012751 183.585909 
L 222.083809 183.539917 
L 254.877114 198.244129 
L 254.807915 198.304771 
z
" clip-path="url(#pe5f8e683bc)" style="fill: #1fa287"/>
    <path d="M 299.673296 195.352522 
L 264.070259 195.234313 
L 264.245765 195.346213 
L 264.421335 195.458359 
L 300.006197 195.664818 
L 299.83942 195.520921 
z
" clip-path="url(#pe5f8e683bc)" style="fill: #1f998a"/>
    <path d="M 253.427068 199.561984 
L 220.595939 184.633125 
L 221.126243 184.209695 
L 221.515906 183.923375 
L 254.323974 198.728886 
L 253.944245 199.069709 
z
" clip-path="url(#pe5f8e683bc)" style="fill: #20a386"/>
    <path d="M 212.611907 193.994308 
L 183.085784 168.34274 
L 184.003883 167.624827 
L 185.139041 166.80049 
L 214.600109 191.329528 
L 213.500909 192.764327 
z
" clip-path="url(#pe5f8e683bc)" style="fill: #42be71"/>
    <path d="M 174.517966 177.056683 
L 140.198879 158.159167 
L 143.144519 156.489861 
L 144.802894 155.93085 
L 178.931934 172.133818 
L 177.347397 173.800765 
z
" clip-path="url(#pe5f8e683bc)" style="fill: #98d83e"/>
    <path d="M 252.876146 200.139212 
L 220.031629 185.124894 
L 220.454731 184.752308 
L 220.595939 184.633125 
L 253.427068 199.561984 
L 253.289267 199.700963 
z
" clip-path="url(#pe5f8e683bc)" style="fill: #20a386"/>
    <path d="M 298.644656 194.304321 
L 262.983846 194.515789 
L 263.474134 194.843983 
L 264.070259 195.234313 
L 299.673296 195.352522 
L 299.110534 194.711521 
z
" clip-path="url(#pe5f8e683bc)" style="fill: #1e9d89"/>
    <path d="M 252.463469 200.608234 
L 219.60931 185.518965 
L 219.820372 185.31933 
L 220.031629 185.124894 
L 252.876146 200.139212 
L 252.669751 200.369972 
z
" clip-path="url(#pe5f8e683bc)" style="fill: #1fa287"/>
    <path d="M 297.7637 194.269826 
L 262.071756 194.229384 
L 262.843753 194.433257 
L 262.983846 194.515789 
L 298.644656 194.304321 
L 298.510394 194.239994 
z
" clip-path="url(#pe5f8e683bc)" style="fill: #1fa187"/>
    <path d="M 210.103325 197.89863 
L 180.493421 170.60756 
L 181.54069 169.651239 
L 183.085784 168.34274 
L 212.611907 193.994308 
L 211.116332 196.238426 
z
" clip-path="url(#pe5f8e683bc)" style="fill: #3fbc73"/>
    <path d="M 249.963741 204.037036 
L 217.05679 188.285925 
L 218.277091 186.891034 
L 219.60931 185.518965 
L 252.463469 200.608234 
L 251.159818 202.279243 
z
" clip-path="url(#pe5f8e683bc)" style="fill: #1fa187"/>
    <path d="M 296.954909 194.127828 
L 261.225917 194.619577 
L 261.437453 194.490393 
L 262.071756 194.229384 
L 297.7637 194.269826 
L 297.154958 194.248883 
z
" clip-path="url(#pe5f8e683bc)" style="fill: #20a486"/>
    <path d="M 208.594567 200.608687 
L 178.931934 172.133818 
L 179.277956 171.785452 
L 180.493421 170.60756 
L 210.103325 197.89863 
L 208.928701 199.982677 
z
" clip-path="url(#pe5f8e683bc)" style="fill: #38b977"/>
    <path d="M 169.533003 183.582215 
L 135.09302 163.858516 
L 139.91846 158.371155 
L 140.198879 158.159167 
L 174.517966 177.056683 
L 174.247252 177.386092 
z
" clip-path="url(#pe5f8e683bc)" style="fill: #90d743"/>
    <path d="M 248.500995 206.429653 
L 215.566046 190.109134 
L 215.842708 189.763862 
L 217.05679 188.285925 
L 249.963741 204.037036 
L 248.772546 205.967712 
z
" clip-path="url(#pe5f8e683bc)" style="fill: #1f9f88"/>
    <path d="M 295.833885 192.963724 
L 260.033032 194.96516 
L 260.627878 194.920302 
L 261.225917 194.619577 
L 296.954909 194.127828 
L 296.394025 193.548376 
z
" clip-path="url(#pe5f8e683bc)" style="fill: #22a785"/>
    <path d="M 247.552761 208.097515 
L 214.600109 191.329528 
L 215.048122 190.76094 
L 215.566046 190.109134 
L 248.500995 206.429653 
L 247.992583 207.313853 
z
" clip-path="url(#pe5f8e683bc)" style="fill: #1e9d89"/>
    <path d="M 204.335284 209.194092 
L 174.517966 177.056683 
L 177.347397 173.800765 
L 178.931934 172.133818 
L 208.594567 200.608687 
L 207.065603 203.620145 
z
" clip-path="url(#pe5f8e683bc)" style="fill: #31b57b"/>
    <path d="M 245.599964 211.69611 
L 212.611907 193.994308 
L 213.500909 192.764327 
L 214.600109 191.329528 
L 247.552761 208.097515 
L 246.473394 210.07584 
z
" clip-path="url(#pe5f8e683bc)" style="fill: #1f998a"/>
    <path d="M 295.100542 192.625608 
L 259.265538 194.912208 
L 259.788726 194.94046 
L 260.033032 194.96516 
L 295.833885 192.963724 
L 295.601362 192.813991 
z
" clip-path="url(#pe5f8e683bc)" style="fill: #25ab82"/>
    <path d="M 294.468135 192.338195 
L 258.602254 195.087489 
L 259.230651 194.914621 
L 259.265538 194.912208 
L 295.100542 192.625608 
L 295.067128 192.615174 
z
" clip-path="url(#pe5f8e683bc)" style="fill: #27ad81"/>
    <path d="M 243.131995 216.01859 
L 210.103325 197.89863 
L 211.116332 196.238426 
L 212.611907 193.994308 
L 245.599964 211.69611 
L 244.129323 214.350165 
z
" clip-path="url(#pe5f8e683bc)" style="fill: #20938c"/>
    <path d="M 199.50231 218.190703 
L 169.533003 183.582215 
L 174.247252 177.386092 
L 174.517966 177.056683 
L 204.335284 209.194092 
L 204.073684 209.71482 
z
" clip-path="url(#pe5f8e683bc)" style="fill: #25ab82"/>
    <path d="M 293.155828 190.995459 
L 257.205466 196.096662 
L 258.322818 195.23264 
L 258.602254 195.087489 
L 294.468135 192.338195 
L 294.204552 192.108058 
z
" clip-path="url(#pe5f8e683bc)" style="fill: #2ab07f"/>
    <path d="M 241.64351 218.677854 
L 208.594567 200.608687 
L 208.928701 199.982677 
L 210.103325 197.89863 
L 243.131995 216.01859 
L 241.97358 217.975677 
z
" clip-path="url(#pe5f8e683bc)" style="fill: #218f8d"/>
    <path d="M 292.327625 190.615011 
L 256.334376 196.919715 
L 257.135697 196.160526 
L 257.205466 196.096662 
L 293.155828 190.995459 
L 293.089899 190.947042 
z
" clip-path="url(#pe5f8e683bc)" style="fill: #2fb47c"/>
    <path d="M 237.428944 227.463359 
L 204.335284 209.194092 
L 207.065603 203.620145 
L 208.594567 200.608687 
L 241.64351 218.677854 
L 240.131363 222.630849 
z
" clip-path="url(#pe5f8e683bc)" style="fill: #25858e"/>
    <path d="M 290.947199 189.625691 
L 254.877114 198.244129 
L 255.743577 197.469332 
L 256.334376 196.919715 
L 292.327625 190.615011 
L 291.76503 190.373368 
z
" clip-path="url(#pe5f8e683bc)" style="fill: #34b679"/>
    <path d="M 232.656323 236.623856 
L 199.50231 218.190703 
L 204.073684 209.71482 
L 204.335284 209.194092 
L 237.428944 227.463359 
L 237.170129 227.9494 
z
" clip-path="url(#pe5f8e683bc)" style="fill: #2a778e"/>
    <path d="M 241.64351 218.677854 
L 241.97358 217.975677 
L 243.131995 216.01859 
z
" clip-path="url(#pe5f8e683bc)" style="fill: #26828e"/>
    <path d="M 290.426912 189.0303 
L 254.323974 198.728886 
L 254.807915 198.304771 
L 254.877114 198.244129 
L 290.947199 189.625691 
L 290.88211 189.552478 
z
" clip-path="url(#pe5f8e683bc)" style="fill: #38b977"/>
    <path d="M 237.428944 227.463359 
L 240.131363 222.630849 
L 241.64351 218.677854 
z
" clip-path="url(#pe5f8e683bc)" style="fill: #2a778e"/>
    <path d="M 289.580627 188.158357 
L 253.427068 199.561984 
L 253.944245 199.069709 
L 254.323974 198.728886 
L 290.426912 189.0303 
L 290.069142 188.639332 
z
" clip-path="url(#pe5f8e683bc)" style="fill: #3bbb75"/>
    <path d="M 289.058439 187.727546 
L 252.876146 200.139212 
L 253.289267 199.700963 
L 253.427068 199.561984 
L 289.580627 188.158357 
L 289.450198 188.042005 
z
" clip-path="url(#pe5f8e683bc)" style="fill: #3fbc73"/>
    <path d="M 288.665973 187.465683 
L 252.463469 200.608234 
L 252.669751 200.369972 
L 252.876146 200.139212 
L 289.058439 187.727546 
L 288.862276 187.590892 
z
" clip-path="url(#pe5f8e683bc)" style="fill: #42be71"/>
    <path d="M 232.656323 236.623856 
L 237.170129 227.9494 
L 237.428944 227.463359 
z
" clip-path="url(#pe5f8e683bc)" style="fill: #306a8e"/>
    <path d="M 286.288636 185.73023 
L 249.963741 204.037036 
L 251.159818 202.279243 
L 252.463469 200.608234 
L 288.665973 187.465683 
L 287.42338 186.744497 
z
" clip-path="url(#pe5f8e683bc)" style="fill: #48c16e"/>
    <path d="M 284.912075 183.723703 
L 248.500995 206.429653 
L 248.772546 205.967712 
L 249.963741 204.037036 
L 286.288636 185.73023 
L 285.167957 184.095921 
z
" clip-path="url(#pe5f8e683bc)" style="fill: #50c46a"/>
    <path d="M 284.013464 182.639173 
L 247.552761 208.097515 
L 247.992583 207.313853 
L 248.500995 206.429653 
L 284.912075 183.723703 
L 284.431193 183.103569 
z
" clip-path="url(#pe5f8e683bc)" style="fill: #56c667"/>
    <path d="M 243.131995 216.01859 
L 244.129323 214.350165 
L 245.599964 211.69611 
L 282.146575 180.9948 
L 280.736877 179.647115 
z
" clip-path="url(#pe5f8e683bc)" style="fill: #3fbc73"/>
    <path d="M 282.146575 180.9948 
L 245.599964 211.69611 
L 246.473394 210.07584 
L 247.552761 208.097515 
L 284.013464 182.639173 
L 282.983323 181.687221 
z
" clip-path="url(#pe5f8e683bc)" style="fill: #5ac864"/>
   </g>
   <g id="text_21">
    <!-- Implied vol -->
    <g transform="translate(203.105625 35.472) scale(0.12 -0.12)">
     <defs>
      <path id="DejaVuSans-49" d="M 628 4666 
L 1259 4666 
L 1259 0 
L 628 0 
L 628 4666 
z
" transform="scale(0.015625)"/>
      <path id="DejaVuSans-6d" d="M 3328 2828 
Q 3544 3216 3844 3400 
Q 4144 3584 4550 3584 
Q 5097 3584 5394 3201 
Q 5691 2819 5691 2113 
L 5691 0 
L 5113 0 
L 5113 2094 
Q 5113 2597 4934 2840 
Q 4756 3084 4391 3084 
Q 3944 3084 3684 2787 
Q 3425 2491 3425 1978 
L 3425 0 
L 2847 0 
L 2847 2094 
Q 2847 2600 2669 2842 
Q 2491 3084 2119 3084 
Q 1678 3084 1418 2786 
Q 1159 2488 1159 1978 
L 1159 0 
L 581 0 
L 581 3500 
L 1159 3500 
L 1159 2956 
Q 1356 3278 1631 3431 
Q 1906 3584 2284 3584 
Q 2666 3584 2933 3390 
Q 3200 3197 3328 2828 
z
" transform="scale(0.015625)"/>
      <path id="DejaVuSans-64" d="M 2906 2969 
L 2906 4863 
L 3481 4863 
L 3481 0 
L 2906 0 
L 2906 525 
Q 2725 213 2448 61 
Q 2172 -91 1784 -91 
Q 1150 -91 751 415 
Q 353 922 353 1747 
Q 353 2572 751 3078 
Q 1150 3584 1784 3584 
Q 2172 3584 2448 3432 
Q 2725 3281 2906 2969 
z
M 947 1747 
Q 947 1113 1208 752 
Q 1469 391 1925 391 
Q 2381 391 2643 752 
Q 2906 1113 2906 1747 
Q 2906 2381 2643 2742 
Q 2381 3103 1925 3103 
Q 1469 3103 1208 2742 
Q 947 2381 947 1747 
z
" transform="scale(0.015625)"/>
      <path id="DejaVuSans-20" transform="scale(0.015625)"/>
      <path id="DejaVuSans-76" d="M 191 3500 
L 800 3500 
L 1894 563 
L 2988 3500 
L 3597 3500 
L 2284 0 
L 1503 0 
L 191 3500 
z
" transform="scale(0.015625)"/>
     </defs>
     <use xlink:href="#DejaVuSans-49"/>
     <use xlink:href="#DejaVuSans-6d" x="29.492188"/>
     <use xlink:href="#DejaVuSans-70" x="126.904297"/>
     <use xlink:href="#DejaVuSans-6c" x="190.380859"/>
     <use xlink:href="#DejaVuSans-69" x="218.164062"/>
     <use xlink:href="#DejaVuSans-65" x="245.947266"/>
     <use xlink:href="#DejaVuSans-64" x="307.470703"/>
     <use xlink:href="#DejaVuSans-20" x="370.947266"/>
     <use xlink:href="#DejaVuSans-76" x="402.734375"/>
     <use xlink:href="#DejaVuSans-6f" x="461.914062"/>
     <use xlink:href="#DejaVuSans-6c" x="523.095703"/>
    </g>
   </g>
  </g>
 </g>
 <defs>
  <clipPath id="pe5f8e683bc">
   <rect x="103.104" y="41.472" width="266.112" height="266.112"/>
  </clipPath>
 </defs>
</svg>
