<?xml version="1.0" encoding="utf-8" standalone="no"?>
<!DOCTYPE svg PUBLIC "-//W3C//DTD SVG 1.1//EN"
  "http://www.w3.org/Graphics/SVG/1.1/DTD/svg11.dtd">
<svg xmlns:xlink="http://www.w3.org/1999/xlink" width="460.8pt" height="345.6pt" viewBox="0 0 460.8 345.6" xmlns="http://www.w3.org/2000/svg" version="1.1">
 <metadata>
  <rdf:RDF xmlns:dc="http://purl.org/dc/elements/1.1/" xmlns:cc="http://creativecommons.org/ns#" xmlns:rdf="http://www.w3.org/1999/02/22-rdf-syntax-ns#">
   <cc:Work>
    <dc:type rdf:resource="http://purl.org/dc/dcmitype/StillImage"/>
    <dc:date>2024-03-24T13:57:19.987374</dc:date>
    <dc:format>image/svg+xml</dc:format>
    <dc:creator>
     <cc:Agent>
      <dc:title>Matplotlib v3.7.3, https://matplotlib.org/</dc:title>
     </cc:Agent>
    </dc:creator>
   </cc:Work>
  </rdf:RDF>
 </metadata>
 <defs>
  <style type="text/css">*{stroke-linejoin: round; stroke-linecap: butt}</style>
 </defs>
 <g id="figure_1">
  <g id="patch_1">
   <path d="M 0 345.6 
L 460.8 345.6 
L 460.8 0 
L 0 0 
z
" style="fill: #ffffff"/>
  </g>
  <g id="patch_2">
   <path d="M 103.104 307.584 
L 369.216 307.584 
L 369.216 41.472 
L 103.104 41.472 
z
" style="fill: #ffffff"/>
  </g>
  <g id="pane3d_1">
   <g id="patch_3">
    <path d="M 123.197291 241.969309 
L 211.076164 168.307495 
L 209.854564 62.073991 
L 117.770234 129.272941 
" style="fill: #f2f2f2; opacity: 0.5; stroke: #f2f2f2; stroke-linejoin: miter"/>
   </g>
  </g>
  <g id="pane3d_2">
   <g id="patch_4">
    <path d="M 352.090401 209.294766 
L 211.076164 168.307495 
L 209.854564 62.073991 
L 357.122702 99.402171 
" style="fill: #e6e6e6; opacity: 0.5; stroke: #e6e6e6; stroke-linejoin: miter"/>
   </g>
  </g>
  <g id="pane3d_3">
   <g id="patch_5">
    <path d="M 272.679269 290.790123 
L 123.197291 241.969309 
L 211.076164 168.307495 
L 352.090401 209.294766 
" style="fill: #ececec; opacity: 0.5; stroke: #ececec; stroke-linejoin: miter"/>
   </g>
  </g>
  <g id="axis3d_1">
   <g id="line2d_1">
    <path d="M 123.197291 241.969309 
L 272.679269 290.790123 
" style="fill: none; stroke: #000000; stroke-width: 0.8; stroke-linecap: square"/>
   </g>
   <g id="text_1">
    <!-- TTM -->
    <g transform="translate(169.342053 303.76759) scale(0.1 -0.1)">
     <defs>
      <path id="DejaVuSans-54" d="M -19 4666 
L 3928 4666 
L 3928 4134 
L 2272 4134 
L 2272 0 
L 1638 0 
L 1638 4134 
L -19 4134 
L -19 4666 
z
" transform="scale(0.015625)"/>
      <path id="DejaVuSans-4d" d="M 628 4666 
L 1569 4666 
L 2759 1491 
L 3956 4666 
L 4897 4666 
L 4897 0 
L 4281 0 
L 4281 4097 
L 3078 897 
L 2444 897 
L 1241 4097 
L 1241 0 
L 628 0 
L 628 4666 
z
" transform="scale(0.015625)"/>
     </defs>
     <use xlink:href="#DejaVuSans-54"/>
     <use xlink:href="#DejaVuSans-54" x="59.333984"/>
     <use xlink:href="#DejaVuSans-4d" x="120.417969"/>
    </g>
   </g>
   <g id="Line3DCollection_1">
    <path d="M 266.800442 288.870098 
L 346.568067 207.689642 
L 351.343746 97.937374 
" style="fill: none; stroke: #b0b0b0; stroke-width: 0.8"/>
    <path d="M 246.936293 282.382467 
L 327.894318 202.26192 
L 331.809314 92.985965 
" style="fill: none; stroke: #b0b0b0; stroke-width: 0.8"/>
    <path d="M 227.342056 275.982989 
L 309.452857 196.901716 
L 312.528601 88.098866 
" style="fill: none; stroke: #b0b0b0; stroke-width: 0.8"/>
    <path d="M 208.012267 269.66988 
L 291.239378 191.607776 
L 293.496695 83.274833 
" style="fill: none; stroke: #b0b0b0; stroke-width: 0.8"/>
    <path d="M 188.941609 263.441403 
L 273.249679 186.378881 
L 274.708811 78.512652 
" style="fill: none; stroke: #b0b0b0; stroke-width: 0.8"/>
    <path d="M 170.124905 257.295868 
L 255.479661 181.213838 
L 256.160287 73.811142 
" style="fill: none; stroke: #b0b0b0; stroke-width: 0.8"/>
    <path d="M 151.557117 251.231628 
L 237.925324 176.111485 
L 237.846576 69.16915 
" style="fill: none; stroke: #b0b0b0; stroke-width: 0.8"/>
    <path d="M 133.233338 245.247082 
L 220.582765 171.070688 
L 219.763248 64.585554 
" style="fill: none; stroke: #b0b0b0; stroke-width: 0.8"/>
   </g>
   <g id="xtick_1">
    <g id="line2d_2">
     <path d="M 267.497796 288.160393 
L 265.402597 290.292701 
" style="fill: none; stroke: #000000; stroke-width: 0.8; stroke-linecap: square"/>
    </g>
    <g id="text_2">
     <!-- 0.05 -->
     <g transform="translate(248.295908 313.116842) scale(0.1 -0.1)">
      <defs>
       <path id="DejaVuSans-30" d="M 2034 4250 
Q 1547 4250 1301 3770 
Q 1056 3291 1056 2328 
Q 1056 1369 1301 889 
Q 1547 409 2034 409 
Q 2525 409 2770 889 
Q 3016 1369 3016 2328 
Q 3016 3291 2770 3770 
Q 2525 4250 2034 4250 
z
M 2034 4750 
Q 2819 4750 3233 4129 
Q 3647 3509 3647 2328 
Q 3647 1150 3233 529 
Q 2819 -91 2034 -91 
Q 1250 -91 836 529 
Q 422 1150 422 2328 
Q 422 3509 836 4129 
Q 1250 4750 2034 4750 
z
" transform="scale(0.015625)"/>
       <path id="DejaVuSans-2e" d="M 684 794 
L 1344 794 
L 1344 0 
L 684 0 
L 684 794 
z
" transform="scale(0.015625)"/>
       <path id="DejaVuSans-35" d="M 691 4666 
L 3169 4666 
L 3169 4134 
L 1269 4134 
L 1269 2991 
Q 1406 3038 1543 3061 
Q 1681 3084 1819 3084 
Q 2600 3084 3056 2656 
Q 3513 2228 3513 1497 
Q 3513 744 3044 326 
Q 2575 -91 1722 -91 
Q 1428 -91 1123 -41 
Q 819 9 494 109 
L 494 744 
Q 775 591 1075 516 
Q 1375 441 1709 441 
Q 2250 441 2565 725 
Q 2881 1009 2881 1497 
Q 2881 1984 2565 2268 
Q 2250 2553 1709 2553 
Q 1456 2553 1204 2497 
Q 953 2441 691 2322 
L 691 4666 
z
" transform="scale(0.015625)"/>
      </defs>
      <use xlink:href="#DejaVuSans-30"/>
      <use xlink:href="#DejaVuSans-2e" x="63.623047"/>
      <use xlink:href="#DejaVuSans-30" x="95.410156"/>
      <use xlink:href="#DejaVuSans-35" x="159.033203"/>
     </g>
    </g>
   </g>
   <g id="xtick_2">
    <g id="line2d_3">
     <path d="M 247.643642 281.682434 
L 245.518432 283.78566 
" style="fill: none; stroke: #000000; stroke-width: 0.8; stroke-linecap: square"/>
    </g>
    <g id="text_3">
     <!-- 0.10 -->
     <g transform="translate(228.40547 306.48977) scale(0.1 -0.1)">
      <defs>
       <path id="DejaVuSans-31" d="M 794 531 
L 1825 531 
L 1825 4091 
L 703 3866 
L 703 4441 
L 1819 4666 
L 2450 4666 
L 2450 531 
L 3481 531 
L 3481 0 
L 794 0 
L 794 531 
z
" transform="scale(0.015625)"/>
      </defs>
      <use xlink:href="#DejaVuSans-30"/>
      <use xlink:href="#DejaVuSans-2e" x="63.623047"/>
      <use xlink:href="#DejaVuSans-31" x="95.410156"/>
      <use xlink:href="#DejaVuSans-30" x="159.033203"/>
     </g>
    </g>
   </g>
   <g id="xtick_3">
    <g id="line2d_4">
     <path d="M 228.059066 275.292433 
L 225.904851 277.367166 
" style="fill: none; stroke: #000000; stroke-width: 0.8; stroke-linecap: square"/>
    </g>
    <g id="text_4">
     <!-- 0.15 -->
     <g transform="translate(208.78634 299.953092) scale(0.1 -0.1)">
      <use xlink:href="#DejaVuSans-30"/>
      <use xlink:href="#DejaVuSans-2e" x="63.623047"/>
      <use xlink:href="#DejaVuSans-31" x="95.410156"/>
      <use xlink:href="#DejaVuSans-35" x="159.033203"/>
     </g>
    </g>
   </g>
   <g id="xtick_4">
    <g id="line2d_5">
     <path d="M 208.738615 268.988609 
L 206.556369 271.035426 
" style="fill: none; stroke: #000000; stroke-width: 0.8; stroke-linecap: square"/>
    </g>
    <g id="text_5">
     <!-- 0.20 -->
     <g transform="translate(189.433006 293.504971) scale(0.1 -0.1)">
      <defs>
       <path id="DejaVuSans-32" d="M 1228 531 
L 3431 531 
L 3431 0 
L 469 0 
L 469 531 
Q 828 903 1448 1529 
Q 2069 2156 2228 2338 
Q 2531 2678 2651 2914 
Q 2772 3150 2772 3378 
Q 2772 3750 2511 3984 
Q 2250 4219 1831 4219 
Q 1534 4219 1204 4116 
Q 875 4013 500 3803 
L 500 4441 
Q 881 4594 1212 4672 
Q 1544 4750 1819 4750 
Q 2544 4750 2975 4387 
Q 3406 4025 3406 3419 
Q 3406 3131 3298 2873 
Q 3191 2616 2906 2266 
Q 2828 2175 2409 1742 
Q 1991 1309 1228 531 
z
" transform="scale(0.015625)"/>
      </defs>
      <use xlink:href="#DejaVuSans-30"/>
      <use xlink:href="#DejaVuSans-2e" x="63.623047"/>
      <use xlink:href="#DejaVuSans-32" x="95.410156"/>
      <use xlink:href="#DejaVuSans-30" x="159.033203"/>
     </g>
    </g>
   </g>
   <g id="xtick_5">
    <g id="line2d_6">
     <path d="M 189.67698 262.769231 
L 187.467647 264.788691 
" style="fill: none; stroke: #000000; stroke-width: 0.8; stroke-linecap: square"/>
    </g>
    <g id="text_6">
     <!-- 0.25 -->
     <g transform="translate(170.340103 287.14362) scale(0.1 -0.1)">
      <use xlink:href="#DejaVuSans-30"/>
      <use xlink:href="#DejaVuSans-2e" x="63.623047"/>
      <use xlink:href="#DejaVuSans-32" x="95.410156"/>
      <use xlink:href="#DejaVuSans-35" x="159.033203"/>
     </g>
    </g>
   </g>
   <g id="xtick_6">
    <g id="line2d_7">
     <path d="M 170.868996 256.632614 
L 168.633488 258.625261 
" style="fill: none; stroke: #000000; stroke-width: 0.8; stroke-linecap: square"/>
    </g>
    <g id="text_7">
     <!-- 0.30 -->
     <g transform="translate(151.502409 280.8673) scale(0.1 -0.1)">
      <defs>
       <path id="DejaVuSans-33" d="M 2597 2516 
Q 3050 2419 3304 2112 
Q 3559 1806 3559 1356 
Q 3559 666 3084 287 
Q 2609 -91 1734 -91 
Q 1441 -91 1130 -33 
Q 819 25 488 141 
L 488 750 
Q 750 597 1062 519 
Q 1375 441 1716 441 
Q 2309 441 2620 675 
Q 2931 909 2931 1356 
Q 2931 1769 2642 2001 
Q 2353 2234 1838 2234 
L 1294 2234 
L 1294 2753 
L 1863 2753 
Q 2328 2753 2575 2939 
Q 2822 3125 2822 3475 
Q 2822 3834 2567 4026 
Q 2313 4219 1838 4219 
Q 1578 4219 1281 4162 
Q 984 4106 628 3988 
L 628 4550 
Q 988 4650 1302 4700 
Q 1616 4750 1894 4750 
Q 2613 4750 3031 4423 
Q 3450 4097 3450 3541 
Q 3450 3153 3228 2886 
Q 3006 2619 2597 2516 
z
" transform="scale(0.015625)"/>
      </defs>
      <use xlink:href="#DejaVuSans-30"/>
      <use xlink:href="#DejaVuSans-2e" x="63.623047"/>
      <use xlink:href="#DejaVuSans-33" x="95.410156"/>
      <use xlink:href="#DejaVuSans-30" x="159.033203"/>
     </g>
    </g>
   </g>
   <g id="xtick_7">
    <g id="line2d_8">
     <path d="M 152.309633 250.577116 
L 150.048835 252.543481 
" style="fill: none; stroke: #000000; stroke-width: 0.8; stroke-linecap: square"/>
    </g>
    <g id="text_8">
     <!-- 0.35 -->
     <g transform="translate(132.91484 274.674316) scale(0.1 -0.1)">
      <use xlink:href="#DejaVuSans-30"/>
      <use xlink:href="#DejaVuSans-2e" x="63.623047"/>
      <use xlink:href="#DejaVuSans-33" x="95.410156"/>
      <use xlink:href="#DejaVuSans-35" x="159.033203"/>
     </g>
    </g>
   </g>
   <g id="xtick_8">
    <g id="line2d_9">
     <path d="M 133.993994 244.601139 
L 131.708761 246.54174 
" style="fill: none; stroke: #000000; stroke-width: 0.8; stroke-linecap: square"/>
    </g>
    <g id="text_9">
     <!-- 0.40 -->
     <g transform="translate(114.572449 268.56302) scale(0.1 -0.1)">
      <defs>
       <path id="DejaVuSans-34" d="M 2419 4116 
L 825 1625 
L 2419 1625 
L 2419 4116 
z
M 2253 4666 
L 3047 4666 
L 3047 1625 
L 3713 1625 
L 3713 1100 
L 3047 1100 
L 3047 0 
L 2419 0 
L 2419 1100 
L 313 1100 
L 313 1709 
L 2253 4666 
z
" transform="scale(0.015625)"/>
      </defs>
      <use xlink:href="#DejaVuSans-30"/>
      <use xlink:href="#DejaVuSans-2e" x="63.623047"/>
      <use xlink:href="#DejaVuSans-34" x="95.410156"/>
      <use xlink:href="#DejaVuSans-30" x="159.033203"/>
     </g>
    </g>
   </g>
  </g>
  <g id="axis3d_2">
   <g id="line2d_10">
    <path d="M 352.090401 209.294766 
L 272.679269 290.790123 
" style="fill: none; stroke: #000000; stroke-width: 0.8; stroke-linecap: square"/>
   </g>
   <g id="text_10">
    <!-- Strike/spot -->
    <g transform="translate(324.369105 297.386866) rotate(-45.742112) scale(0.1 -0.1)">
     <defs>
      <path id="DejaVuSans-53" d="M 3425 4513 
L 3425 3897 
Q 3066 4069 2747 4153 
Q 2428 4238 2131 4238 
Q 1616 4238 1336 4038 
Q 1056 3838 1056 3469 
Q 1056 3159 1242 3001 
Q 1428 2844 1947 2747 
L 2328 2669 
Q 3034 2534 3370 2195 
Q 3706 1856 3706 1288 
Q 3706 609 3251 259 
Q 2797 -91 1919 -91 
Q 1588 -91 1214 -16 
Q 841 59 441 206 
L 441 856 
Q 825 641 1194 531 
Q 1563 422 1919 422 
Q 2459 422 2753 634 
Q 3047 847 3047 1241 
Q 3047 1584 2836 1778 
Q 2625 1972 2144 2069 
L 1759 2144 
Q 1053 2284 737 2584 
Q 422 2884 422 3419 
Q 422 4038 858 4394 
Q 1294 4750 2059 4750 
Q 2388 4750 2728 4690 
Q 3069 4631 3425 4513 
z
" transform="scale(0.015625)"/>
      <path id="DejaVuSans-74" d="M 1172 4494 
L 1172 3500 
L 2356 3500 
L 2356 3053 
L 1172 3053 
L 1172 1153 
Q 1172 725 1289 603 
Q 1406 481 1766 481 
L 2356 481 
L 2356 0 
L 1766 0 
Q 1100 0 847 248 
Q 594 497 594 1153 
L 594 3053 
L 172 3053 
L 172 3500 
L 594 3500 
L 594 4494 
L 1172 4494 
z
" transform="scale(0.015625)"/>
      <path id="DejaVuSans-72" d="M 2631 2963 
Q 2534 3019 2420 3045 
Q 2306 3072 2169 3072 
Q 1681 3072 1420 2755 
Q 1159 2438 1159 1844 
L 1159 0 
L 581 0 
L 581 3500 
L 1159 3500 
L 1159 2956 
Q 1341 3275 1631 3429 
Q 1922 3584 2338 3584 
Q 2397 3584 2469 3576 
Q 2541 3569 2628 3553 
L 2631 2963 
z
" transform="scale(0.015625)"/>
      <path id="DejaVuSans-69" d="M 603 3500 
L 1178 3500 
L 1178 0 
L 603 0 
L 603 3500 
z
M 603 4863 
L 1178 4863 
L 1178 4134 
L 603 4134 
L 603 4863 
z
" transform="scale(0.015625)"/>
      <path id="DejaVuSans-6b" d="M 581 4863 
L 1159 4863 
L 1159 1991 
L 2875 3500 
L 3609 3500 
L 1753 1863 
L 3688 0 
L 2938 0 
L 1159 1709 
L 1159 0 
L 581 0 
L 581 4863 
z
" transform="scale(0.015625)"/>
      <path id="DejaVuSans-65" d="M 3597 1894 
L 3597 1613 
L 953 1613 
Q 991 1019 1311 708 
Q 1631 397 2203 397 
Q 2534 397 2845 478 
Q 3156 559 3463 722 
L 3463 178 
Q 3153 47 2828 -22 
Q 2503 -91 2169 -91 
Q 1331 -91 842 396 
Q 353 884 353 1716 
Q 353 2575 817 3079 
Q 1281 3584 2069 3584 
Q 2775 3584 3186 3129 
Q 3597 2675 3597 1894 
z
M 3022 2063 
Q 3016 2534 2758 2815 
Q 2500 3097 2075 3097 
Q 1594 3097 1305 2825 
Q 1016 2553 972 2059 
L 3022 2063 
z
" transform="scale(0.015625)"/>
      <path id="DejaVuSans-2f" d="M 1625 4666 
L 2156 4666 
L 531 -594 
L 0 -594 
L 1625 4666 
z
" transform="scale(0.015625)"/>
      <path id="DejaVuSans-73" d="M 2834 3397 
L 2834 2853 
Q 2591 2978 2328 3040 
Q 2066 3103 1784 3103 
Q 1356 3103 1142 2972 
Q 928 2841 928 2578 
Q 928 2378 1081 2264 
Q 1234 2150 1697 2047 
L 1894 2003 
Q 2506 1872 2764 1633 
Q 3022 1394 3022 966 
Q 3022 478 2636 193 
Q 2250 -91 1575 -91 
Q 1294 -91 989 -36 
Q 684 19 347 128 
L 347 722 
Q 666 556 975 473 
Q 1284 391 1588 391 
Q 1994 391 2212 530 
Q 2431 669 2431 922 
Q 2431 1156 2273 1281 
Q 2116 1406 1581 1522 
L 1381 1569 
Q 847 1681 609 1914 
Q 372 2147 372 2553 
Q 372 3047 722 3315 
Q 1072 3584 1716 3584 
Q 2034 3584 2315 3537 
Q 2597 3491 2834 3397 
z
" transform="scale(0.015625)"/>
      <path id="DejaVuSans-70" d="M 1159 525 
L 1159 -1331 
L 581 -1331 
L 581 3500 
L 1159 3500 
L 1159 2969 
Q 1341 3281 1617 3432 
Q 1894 3584 2278 3584 
Q 2916 3584 3314 3078 
Q 3713 2572 3713 1747 
Q 3713 922 3314 415 
Q 2916 -91 2278 -91 
Q 1894 -91 1617 61 
Q 1341 213 1159 525 
z
M 3116 1747 
Q 3116 2381 2855 2742 
Q 2594 3103 2138 3103 
Q 1681 3103 1420 2742 
Q 1159 2381 1159 1747 
Q 1159 1113 1420 752 
Q 1681 391 2138 391 
Q 2594 391 2855 752 
Q 3116 1113 3116 1747 
z
" transform="scale(0.015625)"/>
      <path id="DejaVuSans-6f" d="M 1959 3097 
Q 1497 3097 1228 2736 
Q 959 2375 959 1747 
Q 959 1119 1226 758 
Q 1494 397 1959 397 
Q 2419 397 2687 759 
Q 2956 1122 2956 1747 
Q 2956 2369 2687 2733 
Q 2419 3097 1959 3097 
z
M 1959 3584 
Q 2709 3584 3137 3096 
Q 3566 2609 3566 1747 
Q 3566 888 3137 398 
Q 2709 -91 1959 -91 
Q 1206 -91 779 398 
Q 353 888 353 1747 
Q 353 2609 779 3096 
Q 1206 3584 1959 3584 
z
" transform="scale(0.015625)"/>
     </defs>
     <use xlink:href="#DejaVuSans-53"/>
     <use xlink:href="#DejaVuSans-74" x="63.476562"/>
     <use xlink:href="#DejaVuSans-72" x="102.685547"/>
     <use xlink:href="#DejaVuSans-69" x="143.798828"/>
     <use xlink:href="#DejaVuSans-6b" x="171.582031"/>
     <use xlink:href="#DejaVuSans-65" x="225.867188"/>
     <use xlink:href="#DejaVuSans-2f" x="287.390625"/>
     <use xlink:href="#DejaVuSans-73" x="321.082031"/>
     <use xlink:href="#DejaVuSans-70" x="373.181641"/>
     <use xlink:href="#DejaVuSans-6f" x="436.658203"/>
     <use xlink:href="#DejaVuSans-74" x="497.839844"/>
    </g>
   </g>
   <g id="Line3DCollection_2">
    <path d="M 124.062408 124.681199 
L 129.180896 236.953733 
L 278.108601 285.218292 
" style="fill: none; stroke: #b0b0b0; stroke-width: 0.8"/>
    <path d="M 145.743515 108.859315 
L 149.822521 219.651514 
L 296.813078 266.022898 
" style="fill: none; stroke: #b0b0b0; stroke-width: 0.8"/>
    <path d="M 166.567092 93.663216 
L 169.682482 203.0045 
L 314.772633 247.591976 
" style="fill: none; stroke: #b0b0b0; stroke-width: 0.8"/>
    <path d="M 186.58303 79.056497 
L 188.804355 186.976167 
L 332.030899 229.880749 
" style="fill: none; stroke: #b0b0b0; stroke-width: 0.8"/>
    <path d="M 205.837419 65.00552 
L 207.228535 171.532654 
L 348.628166 212.847871 
" style="fill: none; stroke: #b0b0b0; stroke-width: 0.8"/>
   </g>
   <g id="xtick_9">
    <g id="line2d_11">
     <path d="M 276.853578 284.811564 
L 280.621892 286.032801 
" style="fill: none; stroke: #000000; stroke-width: 0.8; stroke-linecap: square"/>
    </g>
    <g id="text_11">
     <!-- 0.90 -->
     <g transform="translate(279.857298 306.241015) scale(0.1 -0.1)">
      <defs>
       <path id="DejaVuSans-39" d="M 703 97 
L 703 672 
Q 941 559 1184 500 
Q 1428 441 1663 441 
Q 2288 441 2617 861 
Q 2947 1281 2994 2138 
Q 2813 1869 2534 1725 
Q 2256 1581 1919 1581 
Q 1219 1581 811 2004 
Q 403 2428 403 3163 
Q 403 3881 828 4315 
Q 1253 4750 1959 4750 
Q 2769 4750 3195 4129 
Q 3622 3509 3622 2328 
Q 3622 1225 3098 567 
Q 2575 -91 1691 -91 
Q 1453 -91 1209 -44 
Q 966 3 703 97 
z
M 1959 2075 
Q 2384 2075 2632 2365 
Q 2881 2656 2881 3163 
Q 2881 3666 2632 3958 
Q 2384 4250 1959 4250 
Q 1534 4250 1286 3958 
Q 1038 3666 1038 3163 
Q 1038 2656 1286 2365 
Q 1534 2075 1959 2075 
z
" transform="scale(0.015625)"/>
      </defs>
      <use xlink:href="#DejaVuSans-30"/>
      <use xlink:href="#DejaVuSans-2e" x="63.623047"/>
      <use xlink:href="#DejaVuSans-39" x="95.410156"/>
      <use xlink:href="#DejaVuSans-30" x="159.033203"/>
     </g>
    </g>
   </g>
   <g id="xtick_10">
    <g id="line2d_12">
     <path d="M 295.575654 265.632526 
L 299.29106 266.804632 
" style="fill: none; stroke: #000000; stroke-width: 0.8; stroke-linecap: square"/>
    </g>
    <g id="text_12">
     <!-- 0.95 -->
     <g transform="translate(298.310874 286.761452) scale(0.1 -0.1)">
      <use xlink:href="#DejaVuSans-30"/>
      <use xlink:href="#DejaVuSans-2e" x="63.623047"/>
      <use xlink:href="#DejaVuSans-39" x="95.410156"/>
      <use xlink:href="#DejaVuSans-35" x="159.033203"/>
     </g>
    </g>
   </g>
   <g id="xtick_11">
    <g id="line2d_13">
     <path d="M 313.552416 247.216993 
L 317.216097 248.342874 
" style="fill: none; stroke: #000000; stroke-width: 0.8; stroke-linecap: square"/>
    </g>
    <g id="text_13">
     <!-- 1.00 -->
     <g transform="translate(316.029098 268.058125) scale(0.1 -0.1)">
      <use xlink:href="#DejaVuSans-31"/>
      <use xlink:href="#DejaVuSans-2e" x="63.623047"/>
      <use xlink:href="#DejaVuSans-30" x="95.410156"/>
      <use xlink:href="#DejaVuSans-30" x="159.033203"/>
     </g>
    </g>
   </g>
   <g id="xtick_12">
    <g id="line2d_14">
     <path d="M 330.827502 229.520262 
L 334.440624 230.6026 
" style="fill: none; stroke: #000000; stroke-width: 0.8; stroke-linecap: square"/>
    </g>
    <g id="text_14">
     <!-- 1.05 -->
     <g transform="translate(333.055067 250.085542) scale(0.1 -0.1)">
      <use xlink:href="#DejaVuSans-31"/>
      <use xlink:href="#DejaVuSans-2e" x="63.623047"/>
      <use xlink:href="#DejaVuSans-30" x="95.410156"/>
      <use xlink:href="#DejaVuSans-35" x="159.033203"/>
     </g>
    </g>
   </g>
   <g id="xtick_13">
    <g id="line2d_15">
     <path d="M 347.441207 212.501056 
L 351.004919 213.542328 
" style="fill: none; stroke: #000000; stroke-width: 0.8; stroke-linecap: square"/>
    </g>
    <g id="text_15">
     <!-- 1.10 -->
     <g transform="translate(349.428573 232.801697) scale(0.1 -0.1)">
      <use xlink:href="#DejaVuSans-31"/>
      <use xlink:href="#DejaVuSans-2e" x="63.623047"/>
      <use xlink:href="#DejaVuSans-31" x="95.410156"/>
      <use xlink:href="#DejaVuSans-30" x="159.033203"/>
     </g>
    </g>
   </g>
  </g>
  <g id="axis3d_3">
   <g id="line2d_16">
    <path d="M 352.090401 209.294766 
L 357.122702 99.402171 
" style="fill: none; stroke: #000000; stroke-width: 0.8; stroke-linecap: square"/>
   </g>
   <g id="text_16">
    <!-- Vol -->
    <g transform="translate(387.44598 152.902279) scale(0.1 -0.1)">
     <defs>
      <path id="DejaVuSans-56" d="M 1831 0 
L 50 4666 
L 709 4666 
L 2188 738 
L 3669 4666 
L 4325 4666 
L 2547 0 
L 1831 0 
z
" transform="scale(0.015625)"/>
      <path id="DejaVuSans-6c" d="M 603 4863 
L 1178 4863 
L 1178 0 
L 603 0 
L 603 4863 
z
" transform="scale(0.015625)"/>
     </defs>
     <use xlink:href="#DejaVuSans-56"/>
     <use xlink:href="#DejaVuSans-6f" x="60.658203"/>
     <use xlink:href="#DejaVuSans-6c" x="121.839844"/>
    </g>
   </g>
   <g id="Line3DCollection_3">
    <path d="M 352.745074 194.998377 
L 210.916949 154.461733 
L 122.492297 227.329656 
" style="fill: none; stroke: #b0b0b0; stroke-width: 0.8"/>
    <path d="M 353.34126 181.979195 
L 210.772034 141.859539 
L 121.850017 213.992292 
" style="fill: none; stroke: #b0b0b0; stroke-width: 0.8"/>
    <path d="M 353.943771 168.821893 
L 210.625655 129.130055 
L 121.200662 200.50802 
" style="fill: none; stroke: #b0b0b0; stroke-width: 0.8"/>
    <path d="M 354.552708 155.524261 
L 210.47779 116.271343 
L 120.544116 186.874398 
" style="fill: none; stroke: #b0b0b0; stroke-width: 0.8"/>
    <path d="M 355.168175 142.084042 
L 210.328417 103.281424 
L 119.880256 173.088933 
" style="fill: none; stroke: #b0b0b0; stroke-width: 0.8"/>
    <path d="M 355.790276 128.49893 
L 210.177511 90.15828 
L 119.208962 159.149074 
" style="fill: none; stroke: #b0b0b0; stroke-width: 0.8"/>
    <path d="M 356.419121 114.76657 
L 210.025049 76.899851 
L 118.530107 145.05221 
" style="fill: none; stroke: #b0b0b0; stroke-width: 0.8"/>
   </g>
   <g id="xtick_14">
    <g id="line2d_17">
     <path d="M 351.554421 194.65807 
L 355.129228 195.679805 
" style="fill: none; stroke: #000000; stroke-width: 0.8; stroke-linecap: square"/>
    </g>
    <g id="text_17">
     <!-- 0.15 -->
     <g transform="translate(359.964957 200.019794) scale(0.1 -0.1)">
      <use xlink:href="#DejaVuSans-30"/>
      <use xlink:href="#DejaVuSans-2e" x="63.623047"/>
      <use xlink:href="#DejaVuSans-31" x="95.410156"/>
      <use xlink:href="#DejaVuSans-35" x="159.033203"/>
     </g>
    </g>
   </g>
   <g id="xtick_15">
    <g id="line2d_18">
     <path d="M 352.144088 181.642305 
L 355.738482 182.653785 
" style="fill: none; stroke: #000000; stroke-width: 0.8; stroke-linecap: square"/>
    </g>
    <g id="text_18">
     <!-- 0.20 -->
     <g transform="translate(360.65588 187.026523) scale(0.1 -0.1)">
      <use xlink:href="#DejaVuSans-30"/>
      <use xlink:href="#DejaVuSans-2e" x="63.623047"/>
      <use xlink:href="#DejaVuSans-32" x="95.410156"/>
      <use xlink:href="#DejaVuSans-30" x="159.033203"/>
     </g>
    </g>
   </g>
   <g id="xtick_16">
    <g id="line2d_19">
     <path d="M 352.740009 168.488512 
L 356.354205 169.489461 
" style="fill: none; stroke: #000000; stroke-width: 0.8; stroke-linecap: square"/>
    </g>
    <g id="text_19">
     <!-- 0.25 -->
     <g transform="translate(361.354111 173.895828) scale(0.1 -0.1)">
      <use xlink:href="#DejaVuSans-30"/>
      <use xlink:href="#DejaVuSans-2e" x="63.623047"/>
      <use xlink:href="#DejaVuSans-32" x="95.410156"/>
      <use xlink:href="#DejaVuSans-35" x="159.033203"/>
     </g>
    </g>
   </g>
   <g id="xtick_17">
    <g id="line2d_20">
     <path d="M 353.342283 155.194483 
L 356.976501 156.184618 
" style="fill: none; stroke: #000000; stroke-width: 0.8; stroke-linecap: square"/>
    </g>
    <g id="text_20">
     <!-- 0.30 -->
     <g transform="translate(362.059766 160.625515) scale(0.1 -0.1)">
      <use xlink:href="#DejaVuSans-30"/>
      <use xlink:href="#DejaVuSans-2e" x="63.623047"/>
      <use xlink:href="#DejaVuSans-33" x="95.410156"/>
      <use xlink:href="#DejaVuSans-30" x="159.033203"/>
     </g>
    </g>
   </g>
   <g id="xtick_18">
    <g id="line2d_21">
     <path d="M 353.951012 141.757964 
L 357.605474 142.736995 
" style="fill: none; stroke: #000000; stroke-width: 0.8; stroke-linecap: square"/>
    </g>
    <g id="text_21">
     <!-- 0.35 -->
     <g transform="translate(362.772964 147.213346) scale(0.1 -0.1)">
      <use xlink:href="#DejaVuSans-30"/>
      <use xlink:href="#DejaVuSans-2e" x="63.623047"/>
      <use xlink:href="#DejaVuSans-33" x="95.410156"/>
      <use xlink:href="#DejaVuSans-35" x="159.033203"/>
     </g>
    </g>
   </g>
   <g id="xtick_19">
    <g id="line2d_22">
     <path d="M 354.566301 128.176651 
L 358.241234 129.144281 
" style="fill: none; stroke: #000000; stroke-width: 0.8; stroke-linecap: square"/>
    </g>
    <g id="text_22">
     <!-- 0.40 -->
     <g transform="translate(363.493827 133.657035) scale(0.1 -0.1)">
      <use xlink:href="#DejaVuSans-30"/>
      <use xlink:href="#DejaVuSans-2e" x="63.623047"/>
      <use xlink:href="#DejaVuSans-34" x="95.410156"/>
      <use xlink:href="#DejaVuSans-30" x="159.033203"/>
     </g>
    </g>
   </g>
   <g id="xtick_20">
    <g id="line2d_23">
     <path d="M 355.188257 114.448191 
L 358.88389 115.404115 
" style="fill: none; stroke: #000000; stroke-width: 0.8; stroke-linecap: square"/>
    </g>
    <g id="text_23">
     <!-- 0.45 -->
     <g transform="translate(364.22248 119.954245) scale(0.1 -0.1)">
      <use xlink:href="#DejaVuSans-30"/>
      <use xlink:href="#DejaVuSans-2e" x="63.623047"/>
      <use xlink:href="#DejaVuSans-34" x="95.410156"/>
      <use xlink:href="#DejaVuSans-35" x="159.033203"/>
     </g>
    </g>
   </g>
  </g>
  <g id="axes_1">
   <g id="Poly3DCollection_1">
    <path d="M 246.158684 100.639518 
L 213.281774 71.137288 
L 213.462203 70.964487 
L 246.334184 100.447587 
z
" clip-path="url(#p7e20da6b81)" style="fill: #eae51a"/>
    <path d="M 243.493894 103.76652 
L 210.54213 73.750076 
L 212.516087 71.875362 
L 213.281774 71.137288 
L 246.158684 100.639518 
L 245.413848 101.470375 
z
" clip-path="url(#p7e20da6b81)" style="fill: #e7e419"/>
    <path d="M 242.581612 104.956345 
L 209.603649 74.600989 
L 210.318481 73.956065 
L 210.54213 73.750076 
L 243.493894 103.76652 
L 243.276443 104.043626 
z
" clip-path="url(#p7e20da6b81)" style="fill: #e2e418"/>
    <path d="M 239.904173 108.876697 
L 206.84443 76.814114 
L 207.643905 76.227827 
L 209.603649 74.600989 
L 242.581612 104.956345 
L 240.678976 107.678624 
z
" clip-path="url(#p7e20da6b81)" style="fill: #dde318"/>
    <path d="M 274.438584 110.031226 
L 246.158684 100.639518 
L 246.334184 100.447587 
L 274.611734 109.782168 
z
" clip-path="url(#p7e20da6b81)" style="fill: #98d83e"/>
    <path d="M 238.960072 110.402186 
L 205.868772 77.454006 
L 206.179046 77.260204 
L 206.84443 76.814114 
L 239.904173 108.876697 
L 239.260121 109.909751 
z
" clip-path="url(#p7e20da6b81)" style="fill: #dae319"/>
    <path d="M 271.808719 113.963007 
L 243.493894 103.76652 
L 245.413848 101.470375 
L 246.158684 100.639518 
L 274.438584 110.031226 
L 273.70368 111.099793 
z
" clip-path="url(#p7e20da6b81)" style="fill: #93d741"/>
    <path d="M 236.614043 114.48203 
L 203.435033 78.610438 
L 203.921305 78.435575 
L 205.868772 77.454006 
L 238.960072 110.402186 
L 237.081597 113.637845 
z
" clip-path="url(#p7e20da6b81)" style="fill: #d5e21a"/>
    <path d="M 270.907824 115.392608 
L 242.581612 104.956345 
L 243.276443 104.043626 
L 243.493894 103.76652 
L 271.808719 113.963007 
L 271.594017 114.299266 
z
" clip-path="url(#p7e20da6b81)" style="fill: #8bd646"/>
    <path d="M 235.639142 116.288646 
L 202.419282 78.909794 
L 203.214062 78.680116 
L 203.435033 78.610438 
L 236.614043 114.48203 
L 236.401795 114.870091 
z
" clip-path="url(#p7e20da6b81)" style="fill: #d2e21b"/>
    <path d="M 268.261136 119.901402 
L 239.904173 108.876697 
L 240.678976 107.678624 
L 242.581612 104.956345 
L 270.907824 115.392608 
L 269.027507 118.545229 
z
" clip-path="url(#p7e20da6b81)" style="fill: #81d34d"/>
    <path d="M 232.110351 123.295762 
L 198.763072 81.990699 
L 199.448635 80.905582 
L 202.419282 78.909794 
L 235.639142 116.288646 
L 232.778621 121.917724 
z
" clip-path="url(#p7e20da6b81)" style="fill: #c8e020"/>
    <path d="M 267.326725 121.615254 
L 238.960072 110.402186 
L 239.260121 109.909751 
L 239.904173 108.876697 
L 268.261136 119.901402 
L 267.623766 121.063042 
z
" clip-path="url(#p7e20da6b81)" style="fill: #77d153"/>
    <path d="M 222.660795 143.458847 
L 189.62182 126.37495 
L 190.162054 123.809711 
L 191.23724 118.08535 
L 224.35416 140.204793 
L 223.22436 142.431893 
z
" clip-path="url(#p7e20da6b81)" style="fill: #34b679"/>
    <path d="M 221.214893 145.770725 
L 188.230963 132.435965 
L 189.003205 129.123696 
L 189.62182 126.37495 
L 222.660795 143.458847 
L 222.017652 144.549098 
z
" clip-path="url(#p7e20da6b81)" style="fill: #28ae80"/>
    <path d="M 265.002126 126.15387 
L 236.614043 114.48203 
L 237.081597 113.637845 
L 238.960072 110.402186 
L 267.326725 121.615254 
L 265.465665 125.221949 
z
" clip-path="url(#p7e20da6b81)" style="fill: #6ece58"/>
    <path d="M 230.696396 126.279827 
L 197.33295 85.573096 
L 197.9589 83.754845 
L 198.763072 81.990699 
L 232.110351 123.295762 
L 231.319173 124.954562 
z
" clip-path="url(#p7e20da6b81)" style="fill: #b8de29"/>
    <path d="M 224.35416 140.204793 
L 191.23724 118.08535 
L 192.387164 111.324472 
L 194.595611 98.158333 
L 227.893534 132.429029 
L 225.569263 137.621201 
z
" clip-path="url(#p7e20da6b81)" style="fill: #58c765"/>
    <path d="M 227.893534 132.429029 
L 194.595611 98.158333 
L 195.147655 95.133721 
L 197.33295 85.573096 
L 230.696396 126.279827 
L 228.467863 131.14693 
z
" clip-path="url(#p7e20da6b81)" style="fill: #93d741"/>
    <path d="M 218.290696 148.579073 
L 185.482743 146.283349 
L 185.885453 143.82843 
L 188.230963 132.435965 
L 221.214893 145.770725 
L 218.731161 148.345244 
z
" clip-path="url(#p7e20da6b81)" style="fill: #1fa187"/>
    <path d="M 264.035277 128.131307 
L 235.639142 116.288646 
L 236.401795 114.870091 
L 236.614043 114.48203 
L 265.002126 126.15387 
L 264.791666 126.580662 
z
" clip-path="url(#p7e20da6b81)" style="fill: #65cb5e"/>
    <path d="M 216.928281 148.810086 
L 184.23682 153.424094 
L 184.899853 149.872825 
L 185.482743 146.283349 
L 218.290696 148.579073 
L 217.649812 148.78347 
z
" clip-path="url(#p7e20da6b81)" style="fill: #1f988b"/>
    <path d="M 215.280997 147.995097 
L 182.621243 156.336684 
L 182.994366 156.553631 
L 184.23682 153.424094 
L 216.928281 148.810086 
L 215.643186 148.283904 
z
" clip-path="url(#p7e20da6b81)" style="fill: #1f948c"/>
    <path d="M 260.533249 135.516204 
L 232.110351 123.295762 
L 232.778621 121.917724 
L 235.639142 116.288646 
L 264.035277 128.131307 
L 261.19664 134.105087 
z
" clip-path="url(#p7e20da6b81)" style="fill: #52c569"/>
    <path d="M 306.374048 119.523539 
L 274.438584 110.031226 
L 274.611734 109.782168 
L 306.543271 119.312368 
z
" clip-path="url(#p7e20da6b81)" style="fill: #8ed645"/>
    <path d="M 259.12947 138.4923 
L 230.696396 126.279827 
L 231.319173 124.954562 
L 232.110351 123.295762 
L 260.533249 135.516204 
L 259.747783 137.184511 
z
" clip-path="url(#p7e20da6b81)" style="fill: #44bf70"/>
    <path d="M 303.795698 123.095379 
L 271.808719 113.963007 
L 273.70368 111.099793 
L 274.438584 110.031226 
L 306.374048 119.523539 
L 305.654993 120.454302 
z
" clip-path="url(#p7e20da6b81)" style="fill: #89d548"/>
    <path d="M 256.346535 144.239365 
L 227.893534 132.429029 
L 228.467863 131.14693 
L 230.696396 126.279827 
L 259.12947 138.4923 
L 256.91679 143.087393 
z
" clip-path="url(#p7e20da6b81)" style="fill: #35b779"/>
    <path d="M 302.909757 124.457738 
L 270.907824 115.392608 
L 271.594017 114.299266 
L 271.808719 113.963007 
L 303.795698 123.095379 
L 303.584641 123.41496 
z
" clip-path="url(#p7e20da6b81)" style="fill: #81d34d"/>
    <path d="M 212.812924 144.238758 
L 179.857517 144.709876 
L 181.074741 151.301832 
L 182.621243 156.336684 
L 215.280997 147.995097 
L 213.868138 146.23869 
z
" clip-path="url(#p7e20da6b81)" style="fill: #1fa187"/>
    <path d="M 252.834 150.863865 
L 224.35416 140.204793 
L 225.569263 137.621201 
L 227.893534 132.429029 
L 256.346535 144.239365 
L 254.039201 148.698137 
z
" clip-path="url(#p7e20da6b81)" style="fill: #28ae80"/>
    <path d="M 300.307657 128.554865 
L 268.261136 119.901402 
L 269.027507 118.545229 
L 270.907824 115.392608 
L 302.909757 124.457738 
L 301.060364 127.380872 
z
" clip-path="url(#p7e20da6b81)" style="fill: #75d054"/>
    <path d="M 251.156593 153.747819 
L 222.660795 143.458847 
L 223.22436 142.431893 
L 224.35416 140.204793 
L 252.834 150.863865 
L 251.714579 152.782707 
z
" clip-path="url(#p7e20da6b81)" style="fill: #22a785"/>
    <path d="M 306.374048 119.523539 
L 306.543271 119.312368 
z
" clip-path="url(#p7e20da6b81)" style="fill: #89d548"/>
    <path d="M 299.390678 129.973238 
L 267.326725 121.615254 
L 267.623766 121.063042 
L 268.261136 119.901402 
L 300.307657 128.554865 
L 299.682115 129.522743 
z
" clip-path="url(#p7e20da6b81)" style="fill: #6ece58"/>
    <path d="M 249.726335 156.427243 
L 221.214893 145.770725 
L 222.017652 144.549098 
L 222.660795 143.458847 
L 251.156593 153.747819 
L 250.520148 154.891423 
z
" clip-path="url(#p7e20da6b81)" style="fill: #20a486"/>
    <path d="M 303.795698 123.095379 
L 305.654993 120.454302 
L 306.374048 119.523539 
z
" clip-path="url(#p7e20da6b81)" style="fill: #86d549"/>
    <path d="M 297.110892 133.509338 
L 265.002126 126.15387 
L 265.465665 125.221949 
L 267.326725 121.615254 
L 299.390678 129.973238 
L 297.565447 132.8015 
z
" clip-path="url(#p7e20da6b81)" style="fill: #65cb5e"/>
    <path d="M 246.844412 163.930795 
L 218.290696 148.579073 
L 218.731161 148.345244 
L 221.214893 145.770725 
L 249.726335 156.427243 
L 247.277079 162.544165 
z
" clip-path="url(#p7e20da6b81)" style="fill: #1f9e89"/>
    <path d="M 296.162616 134.994805 
L 264.035277 128.131307 
L 264.791666 126.580662 
L 265.002126 126.15387 
L 297.110892 133.509338 
L 296.904502 133.831397 
z
" clip-path="url(#p7e20da6b81)" style="fill: #5cc863"/>
    <path d="M 302.909757 124.457738 
L 303.584641 123.41496 
L 303.795698 123.095379 
z
" clip-path="url(#p7e20da6b81)" style="fill: #7fd34e"/>
    <path d="M 245.511168 168.972549 
L 216.928281 148.810086 
L 217.649812 148.78347 
L 218.290696 148.579073 
L 246.844412 163.930795 
L 246.216197 166.152831 
z
" clip-path="url(#p7e20da6b81)" style="fill: #1f998a"/>
    <path d="M 292.717235 140.810386 
L 260.533249 135.516204 
L 261.19664 134.105087 
L 264.035277 128.131307 
L 296.162616 134.994805 
L 293.371963 139.623218 
z
" clip-path="url(#p7e20da6b81)" style="fill: #4ec36b"/>
    <path d="M 243.915358 175.538254 
L 215.280997 147.995097 
L 215.643186 148.283904 
L 216.928281 148.810086 
L 245.511168 168.972549 
L 244.264036 174.306628 
z
" clip-path="url(#p7e20da6b81)" style="fill: #1f958b"/>
    <path d="M 210.85491 139.465293 
L 177.569034 131.165139 
L 177.947659 133.2748 
L 179.857517 144.709876 
L 212.812924 144.238758 
L 211.181184 140.264885 
z
" clip-path="url(#p7e20da6b81)" style="fill: #40bd72"/>
    <path d="M 291.328554 143.456337 
L 259.12947 138.4923 
L 259.747783 137.184511 
L 260.533249 135.516204 
L 292.717235 140.810386 
L 291.940538 142.278993 
z
" clip-path="url(#p7e20da6b81)" style="fill: #42be71"/>
    <path d="M 334.585529 154.627479 
L 300.307657 128.554865 
L 301.060364 127.380872 
L 302.909757 124.457738 
z
" clip-path="url(#p7e20da6b81)" style="fill: #5ac864"/>
    <path d="M 241.576197 173.893912 
L 212.812924 144.238758 
L 213.868138 146.23869 
L 215.280997 147.995097 
L 243.915358 175.538254 
L 242.569013 177.1826 
z
" clip-path="url(#p7e20da6b81)" style="fill: #1f988b"/>
    <path d="M 288.573472 148.694776 
L 256.346535 144.239365 
L 256.91679 143.087393 
L 259.12947 138.4923 
L 291.328554 143.456337 
L 289.138204 147.626195 
z
" clip-path="url(#p7e20da6b81)" style="fill: #35b779"/>
    <path d="M 210.000377 137.513566 
L 176.590878 126.314459 
L 177.334031 129.919027 
L 177.569034 131.165139 
L 210.85491 139.465293 
L 210.651165 138.978923 
z
" clip-path="url(#p7e20da6b81)" style="fill: #60ca60"/>
    <path d="M 333.687923 156.124564 
L 299.390678 129.973238 
L 299.682115 129.522743 
L 300.307657 128.554865 
L 334.585529 154.627479 
L 333.969812 155.739085 
z
" clip-path="url(#p7e20da6b81)" style="fill: #3fbc73"/>
    <path d="M 285.08979 155.372836 
L 252.834 150.863865 
L 254.039201 148.698137 
L 256.346535 144.239365 
L 288.573472 148.694776 
L 286.286306 153.049646 
z
" clip-path="url(#p7e20da6b81)" style="fill: #2ab07f"/>
    <path d="M 331.557295 157.099597 
L 297.110892 133.509338 
L 297.565447 132.8015 
L 299.390678 129.973238 
L 333.687923 156.124564 
L 331.974734 157.113556 
z
" clip-path="url(#p7e20da6b81)" style="fill: #3dbc74"/>
    <path d="M 209.10956 135.798348 
L 175.590314 122.254621 
L 176.133092 124.345336 
L 176.590878 126.314459 
L 210.000377 137.513566 
L 209.594809 136.686129 
z
" clip-path="url(#p7e20da6b81)" style="fill: #7ad151"/>
    <path d="M 283.422388 158.701574 
L 251.156593 153.747819 
L 251.714579 152.782707 
L 252.834 150.863865 
L 285.08979 155.372836 
L 283.977222 157.579853 
z
" clip-path="url(#p7e20da6b81)" style="fill: #24aa83"/>
    <path d="M 330.690875 156.931751 
L 296.162616 134.994805 
L 296.904502 133.831397 
L 297.110892 133.509338 
L 331.557295 157.099597 
L 331.368378 157.074446 
z
" clip-path="url(#p7e20da6b81)" style="fill: #3dbc74"/>
    <path d="M 281.999933 161.655029 
L 249.726335 156.427243 
L 250.520148 154.891423 
L 251.156593 153.747819 
L 283.422388 158.701574 
L 282.789439 160.001089 
z
" clip-path="url(#p7e20da6b81)" style="fill: #21a685"/>
    <path d="M 279.133589 168.024407 
L 246.844412 163.930795 
L 247.277079 162.544165 
L 249.726335 156.427243 
L 281.999933 161.655029 
L 279.56399 167.027373 
z
" clip-path="url(#p7e20da6b81)" style="fill: #1e9d89"/>
    <path d="M 239.742797 162.04314 
L 210.85491 139.465293 
L 211.181184 140.264885 
L 212.812924 144.238758 
L 241.576197 173.893912 
L 240.048979 164.174345 
z
" clip-path="url(#p7e20da6b81)" style="fill: #28ae80"/>
    <path d="M 277.806708 171.193553 
L 245.511168 168.972549 
L 246.216197 166.152831 
L 246.844412 163.930795 
L 279.133589 168.024407 
L 278.508496 169.500793 
z
" clip-path="url(#p7e20da6b81)" style="fill: #1f948c"/>
    <path d="M 276.216649 174.994208 
L 243.915358 175.538254 
L 244.264036 174.306628 
L 245.511168 168.972549 
L 277.806708 171.193553 
L 276.564453 174.182238 
z
" clip-path="url(#p7e20da6b81)" style="fill: #228b8d"/>
    <path d="M 207.541838 133.531883 
L 173.872735 117.316847 
L 174.350311 118.441772 
L 175.590314 122.254621 
L 209.10956 135.798348 
L 207.982769 134.095843 
z
" clip-path="url(#p7e20da6b81)" style="fill: #9bd93c"/>
    <path d="M 327.472196 158.296257 
L 292.717235 140.810386 
L 293.371963 139.623218 
L 296.162616 134.994805 
L 330.690875 156.931751 
L 328.102214 157.49429 
z
" clip-path="url(#p7e20da6b81)" style="fill: #3dbc74"/>
    <path d="M 273.883335 179.707864 
L 241.576197 173.893912 
L 242.569013 177.1826 
L 243.915358 175.538254 
L 276.216649 174.994208 
L 274.872276 177.908242 
z
" clip-path="url(#p7e20da6b81)" style="fill: #24868e"/>
    <path d="M 238.937824 156.872265 
L 210.000377 137.513566 
L 210.651165 138.978923 
L 210.85491 139.465293 
L 239.742797 162.04314 
L 239.551288 160.738549 
z
" clip-path="url(#p7e20da6b81)" style="fill: #3dbc74"/>
    <path d="M 326.146402 159.747186 
L 291.328554 143.456337 
L 291.940538 142.278993 
L 292.717235 140.810386 
L 327.472196 158.296257 
L 326.725238 159.262292 
z
" clip-path="url(#p7e20da6b81)" style="fill: #3aba76"/>
    <path d="M 205.984851 131.847796 
L 172.218625 114.779092 
L 173.144527 115.949256 
L 173.872735 117.316847 
L 207.541838 133.531883 
L 206.862028 132.745991 
z
" clip-path="url(#p7e20da6b81)" style="fill: #b2dd2d"/>
    <path d="M 204.792401 130.751157 
L 170.982564 114.101835 
L 172.176952 114.740504 
L 172.218625 114.779092 
L 205.984851 131.847796 
L 205.945041 131.809399 
z
" clip-path="url(#p7e20da6b81)" style="fill: #c2df23"/>
    <path d="M 323.582929 160.511355 
L 288.573472 148.694776 
L 289.138204 147.626195 
L 291.328554 143.456337 
L 326.146402 159.747186 
L 324.110691 160.311788 
z
" clip-path="url(#p7e20da6b81)" style="fill: #37b878"/>
    <path d="M 238.093648 152.935805 
L 209.10956 135.798348 
L 209.594809 136.686129 
L 210.000377 137.513566 
L 238.937824 156.872265 
L 238.554099 154.831984 
z
" clip-path="url(#p7e20da6b81)" style="fill: #54c568"/>
    <path d="M 272.083034 181.827748 
L 239.742797 162.04314 
L 240.048979 164.174345 
L 241.576197 173.893912 
L 273.883335 179.707864 
L 272.380633 181.603204 
z
" clip-path="url(#p7e20da6b81)" style="fill: #20928c"/>
    <path d="M 204.356034 130.368974 
L 170.536056 114.074108 
L 170.576513 114.072363 
L 170.982564 114.101835 
L 204.792401 130.751157 
L 204.395678 130.402824 
z
" clip-path="url(#p7e20da6b81)" style="fill: #cde11d"/>
    <path d="M 320.289486 162.705996 
L 285.08979 155.372836 
L 286.286306 153.049646 
L 288.573472 148.694776 
L 323.582929 160.511355 
L 321.423229 161.898972 
z
" clip-path="url(#p7e20da6b81)" style="fill: #32b67a"/>
    <path d="M 202.857044 129.460594 
L 169.016081 114.660558 
L 169.333535 114.464227 
L 170.536056 114.074108 
L 204.356034 130.368974 
L 203.171049 129.567713 
z
" clip-path="url(#p7e20da6b81)" style="fill: #d5e21a"/>
    <path d="M 271.306755 182.132321 
L 238.937824 156.872265 
L 239.551288 160.738549 
L 239.742797 162.04314 
L 272.083034 181.827748 
L 271.897554 181.938659 
z
" clip-path="url(#p7e20da6b81)" style="fill: #1e9d89"/>
    <path d="M 236.600424 150.314069 
L 207.541838 133.531883 
L 207.982769 134.095843 
L 209.10956 135.798348 
L 238.093648 152.935805 
L 237.021086 150.810545 
z
" clip-path="url(#p7e20da6b81)" style="fill: #69cd5b"/>
    <path d="M 201.568899 129.343835 
L 167.717276 115.736899 
L 168.345112 115.171544 
L 169.016081 114.660558 
L 202.857044 129.460594 
L 202.1924 129.362248 
z
" clip-path="url(#p7e20da6b81)" style="fill: #dae319"/>
    <path d="M 318.70369 163.990999 
L 283.422388 158.701574 
L 283.977222 157.579853 
L 285.08979 155.372836 
L 320.289486 162.705996 
L 319.232635 163.525304 
z
" clip-path="url(#p7e20da6b81)" style="fill: #2eb37c"/>
    <path d="M 270.500789 182.010404 
L 238.093648 152.935805 
L 238.554099 154.831984 
L 238.937824 156.872265 
L 271.306755 182.132321 
L 270.939602 182.125448 
z
" clip-path="url(#p7e20da6b81)" style="fill: #20a486"/>
    <path d="M 201.179635 129.329011 
L 167.326244 116.115471 
L 167.443462 116.000561 
L 167.717276 115.736899 
L 201.568899 129.343835 
L 201.296391 129.33443 
z
" clip-path="url(#p7e20da6b81)" style="fill: #dde318"/>
    <path d="M 235.110554 148.235658 
L 205.984851 131.847796 
L 206.862028 132.745991 
L 207.541838 133.531883 
L 236.600424 150.314069 
L 235.950583 149.379641 
z
" clip-path="url(#p7e20da6b81)" style="fill: #7cd250"/>
    <path d="M 317.345173 165.262341 
L 281.999933 161.655029 
L 282.789439 160.001089 
L 283.422388 158.701574 
L 318.70369 163.990999 
L 318.098704 164.57182 
z
" clip-path="url(#p7e20da6b81)" style="fill: #2cb17e"/>
    <path d="M 199.702859 129.216785 
L 165.845217 117.563961 
L 166.780028 116.658712 
L 167.326244 116.115471 
L 201.179635 129.329011 
L 200.63507 129.294894 
z
" clip-path="url(#p7e20da6b81)" style="fill: #dfe318"/>
    <path d="M 199.043775 129.160819 
L 165.182667 118.131987 
L 165.728368 117.670171 
L 165.845217 117.563961 
L 199.702859 129.216785 
L 199.58647 129.206527 
z
" clip-path="url(#p7e20da6b81)" style="fill: #e2e418"/>
    <path d="M 233.968751 147.603102 
L 204.792401 130.751157 
L 205.945041 131.809399 
L 205.984851 131.847796 
L 235.110554 148.235658 
L 235.072417 148.196305 
z
" clip-path="url(#p7e20da6b81)" style="fill: #8bd646"/>
    <path d="M 269.08241 181.241286 
L 236.600424 150.314069 
L 237.021086 150.810545 
L 238.093648 152.935805 
L 270.500789 182.010404 
L 269.481793 181.47834 
z
" clip-path="url(#p7e20da6b81)" style="fill: #26ad81"/>
    <path d="M 314.623318 167.325967 
L 279.133589 168.024407 
L 279.56399 167.027373 
L 281.999933 161.655029 
L 317.345173 165.262341 
L 315.034861 166.921448 
z
" clip-path="url(#p7e20da6b81)" style="fill: #27ad81"/>
    <path d="M 197.999575 129.100505 
L 164.1263 118.799508 
L 164.283273 118.72371 
L 165.182667 118.131987 
L 199.043775 129.160819 
L 198.154049 129.105897 
z
" clip-path="url(#p7e20da6b81)" style="fill: #e5e419"/>
    <path d="M 233.551134 147.527097 
L 204.356034 130.368974 
L 204.395678 130.402824 
L 204.792401 130.751157 
L 233.968751 147.603102 
L 233.589081 147.533373 
z
" clip-path="url(#p7e20da6b81)" style="fill: #95d840"/>
    <path d="M 197.498127 129.094645 
L 163.61472 118.982157 
L 164.047737 118.833935 
L 164.1263 118.799508 
L 197.999575 129.100505 
L 197.922369 129.098396 
z
" clip-path="url(#p7e20da6b81)" style="fill: #e7e419"/>
    <path d="M 313.345293 168.892891 
L 277.806708 171.193553 
L 278.508496 169.500793 
L 279.133589 168.024407 
L 314.623318 167.325967 
L 314.021813 168.043538 
z
" clip-path="url(#p7e20da6b81)" style="fill: #25ab82"/>
    <path d="M 267.665348 180.733201 
L 235.110554 148.235658 
L 235.950583 149.379641 
L 236.600424 150.314069 
L 269.08241 181.241286 
L 268.465181 180.931324 
z
" clip-path="url(#p7e20da6b81)" style="fill: #2db27d"/>
    <path d="M 232.111625 147.284117 
L 202.857044 129.460594 
L 203.171049 129.567713 
L 204.356034 130.368974 
L 233.551134 147.527097 
L 232.41427 147.332609 
z
" clip-path="url(#p7e20da6b81)" style="fill: #a0da39"/>
    <path d="M 311.835855 169.933036 
L 276.216649 174.994208 
L 276.564453 174.182238 
L 277.806708 171.193553 
L 313.345293 168.892891 
L 312.161118 169.8939 
z
" clip-path="url(#p7e20da6b81)" style="fill: #22a884"/>
    <path d="M 195.121578 129.439835 
L 161.156411 118.937052 
L 162.665576 119.102565 
L 163.61472 118.982157 
L 197.498127 129.094645 
L 196.575001 129.143473 
z
" clip-path="url(#p7e20da6b81)" style="fill: #ece51b"/>
    <path d="M 266.572977 180.842634 
L 233.968751 147.603102 
L 235.072417 148.196305 
L 235.110554 148.235658 
L 267.665348 180.733201 
L 267.628962 180.729977 
z
" clip-path="url(#p7e20da6b81)" style="fill: #34b679"/>
    <path d="M 230.865687 147.142743 
L 201.568899 129.343835 
L 202.1924 129.362248 
L 202.857044 129.460594 
L 232.111625 147.284117 
L 231.469268 147.196448 
z
" clip-path="url(#p7e20da6b81)" style="fill: #a8db34"/>
    <path d="M 309.721043 167.257229 
L 273.883335 179.707864 
L 274.872276 177.908242 
L 276.216649 174.994208 
L 311.835855 169.933036 
L 310.608593 168.852708 
z
" clip-path="url(#p7e20da6b81)" style="fill: #22a884"/>
    <path d="M 194.323353 129.748771 
L 160.322695 118.78284 
L 160.997489 118.907717 
L 161.156411 118.937052 
L 195.121578 129.439835 
L 194.969251 129.490357 
z
" clip-path="url(#p7e20da6b81)" style="fill: #f4e61e"/>
    <path d="M 266.172136 180.984682 
L 233.551134 147.527097 
L 233.589081 147.533373 
L 233.968751 147.603102 
L 266.572977 180.842634 
L 266.20858 180.969617 
z
" clip-path="url(#p7e20da6b81)" style="fill: #38b977"/>
    <path d="M 230.488964 147.128313 
L 201.179635 129.329011 
L 201.296391 129.33443 
L 201.568899 129.343835 
L 230.865687 147.142743 
L 230.601938 147.130885 
z
" clip-path="url(#p7e20da6b81)" style="fill: #addc30"/>
    <path d="M 193.038694 130.462329 
L 158.979671 118.643337 
L 159.097654 118.64459 
L 160.322695 118.78284 
L 194.323353 129.748771 
L 193.15167 130.389535 
z
" clip-path="url(#p7e20da6b81)" style="fill: #f8e621"/>
    <path d="M 264.787023 181.856349 
L 232.111625 147.284117 
L 232.41427 147.332609 
L 233.551134 147.527097 
L 266.172136 180.984682 
L 265.07862 181.62637 
z
" clip-path="url(#p7e20da6b81)" style="fill: #3aba76"/>
    <path d="M 229.061861 147.375375 
L 199.702859 129.216785 
L 200.63507 129.294894 
L 201.179635 129.329011 
L 230.488964 147.128313 
L 229.962277 147.144594 
z
" clip-path="url(#p7e20da6b81)" style="fill: #b2dd2d"/>
    <path d="M 191.800657 131.376098 
L 157.689531 118.798774 
L 158.665652 118.653768 
L 158.979671 118.643337 
L 193.038694 130.462329 
L 192.737778 130.665164 
z
" clip-path="url(#p7e20da6b81)" style="fill: #fbe723"/>
    <path d="M 308.086687 164.255942 
L 272.083034 181.827748 
L 272.380633 181.603204 
L 273.883335 179.707864 
L 309.721043 167.257229 
L 308.361232 164.669243 
z
" clip-path="url(#p7e20da6b81)" style="fill: #26ad81"/>
    <path d="M 228.42645 147.775356 
L 199.043775 129.160819 
L 199.58647 129.206527 
L 199.702859 129.216785 
L 229.061861 147.375375 
L 228.949576 147.43063 
z
" clip-path="url(#p7e20da6b81)" style="fill: #b8de29"/>
    <path d="M 263.584674 183.046653 
L 230.865687 147.142743 
L 231.469268 147.196448 
L 232.111625 147.284117 
L 264.787023 181.856349 
L 264.167514 182.421168 
z
" clip-path="url(#p7e20da6b81)" style="fill: #3dbc74"/>
    <path d="M 191.427161 131.690837 
L 157.301021 118.895502 
L 157.456305 118.854595 
L 157.689531 118.798774 
L 191.800657 131.376098 
L 191.576468 131.562973 
z
" clip-path="url(#p7e20da6b81)" style="fill: #fde725"/>
    <path d="M 263.220465 183.491671 
L 230.488964 147.128313 
L 230.601938 147.130885 
L 230.865687 147.142743 
L 263.584674 183.046653 
L 263.329725 183.353342 
z
" clip-path="url(#p7e20da6b81)" style="fill: #3fbc73"/>
    <path d="M 227.421185 148.702467 
L 197.999575 129.100505 
L 198.154049 129.105897 
L 199.043775 129.160819 
L 228.42645 147.775356 
L 227.569849 148.553349 
z
" clip-path="url(#p7e20da6b81)" style="fill: #bade28"/>
    <path d="M 190.27408 132.764024 
L 156.102726 119.302717 
L 157.029642 118.973617 
L 157.301021 118.895502 
L 191.427161 131.690837 
L 191.166164 131.920714 
z
" clip-path="url(#p7e20da6b81)" style="fill: #fde725"/>
    <path d="M 307.358447 163.470403 
L 271.306755 182.132321 
L 271.897554 181.938659 
L 272.083034 181.827748 
L 308.086687 164.255942 
L 307.91427 164.030041 
z
" clip-path="url(#p7e20da6b81)" style="fill: #29af7f"/>
    <path d="M 226.93858 149.196575 
L 197.498127 129.094645 
L 197.922369 129.098396 
L 197.999575 129.100505 
L 227.421185 148.702467 
L 227.346883 148.777573 
z
" clip-path="url(#p7e20da6b81)" style="fill: #bade28"/>
    <path d="M 261.837071 185.58441 
L 229.061861 147.375375 
L 229.962277 147.144594 
L 230.488964 147.128313 
L 263.220465 183.491671 
L 262.710579 184.197179 
z
" clip-path="url(#p7e20da6b81)" style="fill: #3fbc73"/>
    <path d="M 188.649838 134.527696 
L 154.417465 120.14204 
L 156.064222 119.318451 
L 156.102726 119.302717 
L 190.27408 132.764024 
L 190.237001 132.800897 
z
" clip-path="url(#p7e20da6b81)" style="fill: #fde725"/>
    <path d="M 306.590546 162.872288 
L 270.500789 182.010404 
L 270.939602 182.125448 
L 271.306755 182.132321 
L 307.358447 163.470403 
L 307.009345 163.195128 
z
" clip-path="url(#p7e20da6b81)" style="fill: #2db27d"/>
    <path d="M 261.220446 186.522723 
L 228.42645 147.775356 
L 228.949576 147.43063 
L 229.061861 147.375375 
L 261.837071 185.58441 
L 261.728076 185.758596 
z
" clip-path="url(#p7e20da6b81)" style="fill: #3fbc73"/>
    <path d="M 224.649234 151.82854 
L 195.121578 129.439835 
L 196.575001 129.143473 
L 197.498127 129.094645 
L 226.93858 149.196575 
L 226.049897 150.153212 
z
" clip-path="url(#p7e20da6b81)" style="fill: #bddf26"/>
    <path d="M 260.246403 187.72166 
L 227.421185 148.702467 
L 227.569849 148.553349 
L 228.42645 147.775356 
L 261.220446 186.522723 
L 260.390415 187.553884 
z
" clip-path="url(#p7e20da6b81)" style="fill: #3dbc74"/>
    <path d="M 238.880298 255.865677 
L 240.259962 256.311353 
L 241.776023 257.209834 
z
" clip-path="url(#p7e20da6b81)" style="fill: #440154"/>
    <path d="M 259.778686 188.288178 
L 226.93858 149.196575 
L 227.346883 148.777573 
L 227.421185 148.702467 
L 260.246403 187.72166 
L 260.17442 187.806036 
z
" clip-path="url(#p7e20da6b81)" style="fill: #3dbc74"/>
    <path d="M 186.750957 137.038461 
L 152.44902 121.500374 
L 152.787929 121.238378 
L 154.417465 120.14204 
L 188.649838 134.527696 
L 187.077975 136.571189 
z
" clip-path="url(#p7e20da6b81)" style="fill: #fde725"/>
    <path d="M 223.878804 152.863064 
L 194.323353 129.748771 
L 194.969251 129.490357 
L 195.121578 129.439835 
L 224.649234 151.82854 
L 224.502279 152.018969 
z
" clip-path="url(#p7e20da6b81)" style="fill: #c0df25"/>
    <path d="M 305.235013 161.704183 
L 269.08241 181.241286 
L 269.481793 181.47834 
L 270.500789 182.010404 
L 306.590546 162.872288 
L 305.617563 162.011423 
z
" clip-path="url(#p7e20da6b81)" style="fill: #34b679"/>
    <path d="M 257.550361 192.118393 
L 224.649234 151.82854 
L 226.049897 150.153212 
L 226.93858 149.196575 
L 259.778686 188.288178 
L 258.915654 189.53474 
z
" clip-path="url(#p7e20da6b81)" style="fill: #3aba76"/>
    <path d="M 185.52169 138.918654 
L 151.175361 122.586258 
L 152.223492 121.681064 
L 152.44902 121.500374 
L 186.750957 137.038461 
L 186.533324 137.357223 
z
" clip-path="url(#p7e20da6b81)" style="fill: #fbe723"/>
    <path d="M 222.637381 154.741574 
L 193.038694 130.462329 
L 193.15167 130.389535 
L 194.323353 129.748771 
L 223.878804 152.863064 
L 222.746608 154.564611 
z
" clip-path="url(#p7e20da6b81)" style="fill: #bddf26"/>
    <path d="M 184.874803 139.983792 
L 150.505303 123.22023 
L 150.802747 122.933564 
L 151.175361 122.586258 
L 185.52169 138.918654 
L 185.161976 139.504671 
z
" clip-path="url(#p7e20da6b81)" style="fill: #f6e620"/>
    <path d="M 256.796748 193.880934 
L 223.878804 152.863064 
L 224.502279 152.018969 
L 224.649234 151.82854 
L 257.550361 192.118393 
L 257.406759 192.435371 
z
" clip-path="url(#p7e20da6b81)" style="fill: #37b878"/>
    <path d="M 221.440387 156.888315 
L 191.800657 131.376098 
L 192.737778 130.665164 
L 193.038694 130.462329 
L 222.637381 154.741574 
L 222.34642 155.225939 
z
" clip-path="url(#p7e20da6b81)" style="fill: #bade28"/>
    <path d="M 243.264011 258.123261 
L 210.187294 185.645818 
L 210.359094 185.292597 
L 214.739916 173.654977 
L 247.769725 226.530756 
L 243.430252 257.826289 
z
" clip-path="url(#p7e20da6b81)" style="fill: #2f6b8e"/>
    <path d="M 303.858148 161.508883 
L 267.665348 180.733201 
L 268.465181 180.931324 
L 269.08241 181.241286 
L 305.235013 161.704183 
L 304.6404 161.382678 
z
" clip-path="url(#p7e20da6b81)" style="fill: #3aba76"/>
    <path d="M 241.776023 257.209834 
L 208.643102 188.519258 
L 209.259812 187.389918 
L 210.187294 185.645818 
L 243.264011 258.123261 
L 242.37019 257.984811 
z
" clip-path="url(#p7e20da6b81)" style="fill: #375b8d"/>
    <path d="M 255.580197 196.992096 
L 222.637381 154.741574 
L 222.746608 154.564611 
L 223.878804 152.863064 
L 256.796748 193.880934 
L 255.687176 196.732072 
z
" clip-path="url(#p7e20da6b81)" style="fill: #31b57b"/>
    <path d="M 221.079495 157.632161 
L 191.427161 131.690837 
L 191.576468 131.562973 
L 191.800657 131.376098 
L 221.440387 156.888315 
L 221.22374 157.328508 
z
" clip-path="url(#p7e20da6b81)" style="fill: #b8de29"/>
    <path d="M 254.409775 199.348988 
L 221.440387 156.888315 
L 222.34642 155.225939 
L 222.637381 154.741574 
L 255.580197 196.992096 
L 255.295408 197.647426 
z
" clip-path="url(#p7e20da6b81)" style="fill: #2db27d"/>
    <path d="M 219.966486 160.220396 
L 190.27408 132.764024 
L 191.166164 131.920714 
L 191.427161 131.690837 
L 221.079495 157.632161 
L 220.827423 158.182292 
z
" clip-path="url(#p7e20da6b81)" style="fill: #b5de2b"/>
    <path d="M 254.056754 199.97131 
L 221.079495 157.632161 
L 221.22374 157.328508 
L 221.440387 156.888315 
L 254.409775 199.348988 
L 254.197908 199.721614 
z
" clip-path="url(#p7e20da6b81)" style="fill: #2ab07f"/>
    <path d="M 302.770271 162.62485 
L 266.572977 180.842634 
L 267.628962 180.729977 
L 267.665348 180.733201 
L 303.858148 161.508883 
L 303.822109 161.534953 
z
" clip-path="url(#p7e20da6b81)" style="fill: #3fbc73"/>
    <path d="M 252.964149 202.155917 
L 219.966486 160.220396 
L 220.827423 158.182292 
L 221.079495 157.632161 
L 254.056754 199.97131 
L 253.809864 200.419025 
z
" clip-path="url(#p7e20da6b81)" style="fill: #28ae80"/>
    <path d="M 180.211487 149.034782 
L 145.678531 128.968791 
L 145.858643 128.719455 
L 150.505303 123.22023 
L 184.874803 139.983792 
L 180.385607 148.657884 
z
" clip-path="url(#p7e20da6b81)" style="fill: #e7e419"/>
    <path d="M 218.399948 164.322637 
L 188.649838 134.527696 
L 190.237001 132.800897 
L 190.27408 132.764024 
L 219.966486 160.220396 
L 219.930721 160.309537 
z
" clip-path="url(#p7e20da6b81)" style="fill: #addc30"/>
    <path d="M 247.769725 226.530756 
L 214.739916 173.654977 
L 215.019129 172.930118 
L 215.36897 172.054272 
L 248.398616 221.827254 
L 248.049067 224.367182 
z
" clip-path="url(#p7e20da6b81)" style="fill: #228c8d"/>
    <path d="M 251.415878 206.511359 
L 218.399948 164.322637 
L 219.930721 160.309537 
L 219.966486 160.220396 
L 252.964149 202.155917 
L 252.928932 202.236477 
z
" clip-path="url(#p7e20da6b81)" style="fill: #24aa83"/>
    <path d="M 238.880298 255.865677 
L 205.694465 197.1792 
L 207.082931 192.05448 
L 208.643102 188.519258 
L 241.776023 257.209834 
L 240.259962 256.311353 
z
" clip-path="url(#p7e20da6b81)" style="fill: #375b8d"/>
    <path d="M 248.398616 221.827254 
L 215.36897 172.054272 
L 216.352265 169.671059 
L 216.563466 169.150547 
L 249.589565 214.470017 
L 249.379164 215.632335 
z
" clip-path="url(#p7e20da6b81)" style="fill: #1f958b"/>
    <path d="M 249.589565 214.470017 
L 216.563466 169.150547 
L 216.880486 168.350745 
L 218.399948 164.322637 
L 251.415878 206.511359 
L 249.905318 212.82871 
z
" clip-path="url(#p7e20da6b81)" style="fill: #1f9e89"/>
    <path d="M 302.377128 162.842896 
L 266.172136 180.984682 
L 266.20858 180.969617 
L 266.572977 180.842634 
L 302.770271 162.62485 
L 302.412544 162.835271 
z
" clip-path="url(#p7e20da6b81)" style="fill: #40bd72"/>
    <path d="M 216.563466 169.150547 
L 186.750957 137.038461 
L 187.077975 136.571189 
L 188.649838 134.527696 
L 218.399948 164.322637 
L 216.880486 168.350745 
z
" clip-path="url(#p7e20da6b81)" style="fill: #9dd93b"/>
    <path d="M 232.698358 254.501479 
L 237.27657 255.374039 
L 238.880298 255.865677 
z
" clip-path="url(#p7e20da6b81)" style="fill: #481467"/>
    <path d="M 178.653022 152.523963 
L 144.066833 131.309496 
L 144.709514 130.352907 
L 145.678531 128.968791 
L 180.211487 149.034782 
L 179.27456 151.108201 
z
" clip-path="url(#p7e20da6b81)" style="fill: #d8e219"/>
    <path d="M 215.36897 172.054272 
L 185.52169 138.918654 
L 186.533324 137.357223 
L 186.750957 137.038461 
L 216.563466 169.150547 
L 216.352265 169.671059 
z
" clip-path="url(#p7e20da6b81)" style="fill: #93d741"/>
    <path d="M 232.698358 254.501479 
L 199.866439 239.174392 
L 204.136582 206.425648 
L 205.694465 197.1792 
L 238.880298 255.865677 
L 237.27657 255.374039 
z
" clip-path="url(#p7e20da6b81)" style="fill: #3f4889"/>
    <path d="M 301.058188 162.139569 
L 264.787023 181.856349 
L 265.07862 181.62637 
L 266.172136 180.984682 
L 302.377128 162.842896 
L 301.334905 162.313499 
z
" clip-path="url(#p7e20da6b81)" style="fill: #44bf70"/>
    <path d="M 214.739916 173.654977 
L 184.874803 139.983792 
L 185.161976 139.504671 
L 185.52169 138.918654 
L 215.36897 172.054272 
L 215.019129 172.930118 
z
" clip-path="url(#p7e20da6b81)" style="fill: #8bd646"/>
    <path d="M 175.648695 159.762913 
L 140.962062 136.331407 
L 142.436289 133.867422 
L 144.066833 131.309496 
L 178.653022 152.523963 
L 177.075595 156.248841 
z
" clip-path="url(#p7e20da6b81)" style="fill: #c5e021"/>
    <path d="M 299.898342 162.258486 
L 263.584674 183.046653 
L 264.167514 182.421168 
L 264.787023 181.856349 
L 301.058188 162.139569 
L 300.464095 162.042383 
z
" clip-path="url(#p7e20da6b81)" style="fill: #48c16e"/>
    <path d="M 210.187294 185.645818 
L 180.211487 149.034782 
L 180.385607 148.657884 
L 184.874803 139.983792 
L 214.739916 173.654977 
L 210.359094 185.292597 
z
" clip-path="url(#p7e20da6b81)" style="fill: #6ccd5a"/>
    <path d="M 169.339587 176.401577 
L 134.4542 148.608513 
L 139.259078 139.34036 
L 140.962062 136.331407 
L 175.648695 159.762913 
L 173.999459 163.967672 
z
" clip-path="url(#p7e20da6b81)" style="fill: #a0da39"/>
    <path d="M 299.542307 162.514711 
L 263.220465 183.491671 
L 263.329725 183.353342 
L 263.584674 183.046653 
L 299.898342 162.258486 
L 299.649276 162.429527 
z
" clip-path="url(#p7e20da6b81)" style="fill: #48c16e"/>
    <path d="M 208.643102 188.519258 
L 178.653022 152.523963 
L 179.27456 151.108201 
L 180.211487 149.034782 
L 210.187294 185.645818 
L 209.259812 187.389918 
z
" clip-path="url(#p7e20da6b81)" style="fill: #5ac864"/>
    <path d="M 199.866439 239.174392 
L 169.339587 176.401577 
L 173.999459 163.967672 
L 175.648695 159.762913 
L 205.694465 197.1792 
L 204.136582 206.425648 
z
" clip-path="url(#p7e20da6b81)" style="fill: #1fa287"/>
    <path d="M 298.197687 163.2835 
L 261.837071 185.58441 
L 262.710579 184.197179 
L 263.220465 183.491671 
L 299.542307 162.514711 
L 299.04289 162.941623 
z
" clip-path="url(#p7e20da6b81)" style="fill: #48c16e"/>
    <path d="M 205.694465 197.1792 
L 175.648695 159.762913 
L 177.075595 156.248841 
L 178.653022 152.523963 
L 208.643102 188.519258 
L 207.082931 192.05448 
z
" clip-path="url(#p7e20da6b81)" style="fill: #48c16e"/>
    <path d="M 297.615412 162.8699 
L 261.220446 186.522723 
L 261.728076 185.758596 
L 261.837071 185.58441 
L 298.197687 163.2835 
L 298.094 163.248282 
z
" clip-path="url(#p7e20da6b81)" style="fill: #48c16e"/>
    <path d="M 296.697221 161.986987 
L 260.246403 187.72166 
L 260.390415 187.553884 
L 261.220446 186.522723 
L 297.615412 162.8699 
L 296.834163 162.073285 
z
" clip-path="url(#p7e20da6b81)" style="fill: #4ac16d"/>
    <path d="M 296.249186 161.850316 
L 259.778686 188.288178 
L 260.17442 187.806036 
L 260.246403 187.72166 
L 296.697221 161.986987 
L 296.628562 161.952726 
z
" clip-path="url(#p7e20da6b81)" style="fill: #4cc26c"/>
    <path d="M 294.106691 161.762172 
L 257.550361 192.118393 
L 258.915654 189.53474 
L 259.778686 188.288178 
L 296.249186 161.850316 
L 295.417014 161.880212 
z
" clip-path="url(#p7e20da6b81)" style="fill: #4ec36b"/>
    <path d="M 293.386351 161.607047 
L 256.796748 193.880934 
L 257.406759 192.435371 
L 257.550361 192.118393 
L 294.106691 161.762172 
L 293.969304 161.736411 
z
" clip-path="url(#p7e20da6b81)" style="fill: #4ec36b"/>
    <path d="M 292.228805 161.068222 
L 255.580197 196.992096 
L 255.687176 196.732072 
L 256.796748 193.880934 
L 293.386351 161.607047 
L 292.330321 161.13947 
z
" clip-path="url(#p7e20da6b81)" style="fill: #4cc26c"/>
    <path d="M 291.122898 159.829535 
L 254.409775 199.348988 
L 255.295408 197.647426 
L 255.580197 196.992096 
L 292.228805 161.068222 
L 291.958818 160.848696 
z
" clip-path="url(#p7e20da6b81)" style="fill: #4cc26c"/>
    <path d="M 241.776023 257.209834 
L 242.37019 257.984811 
L 243.264011 258.123261 
L 280.256031 161.541124 
L 279.378053 160.328502 
z
" clip-path="url(#p7e20da6b81)" style="fill: #29798e"/>
    <path d="M 290.792185 159.259237 
L 254.056754 199.97131 
L 254.197908 199.721614 
L 254.409775 199.348988 
L 291.122898 159.829535 
L 290.924241 159.49769 
z
" clip-path="url(#p7e20da6b81)" style="fill: #4ec36b"/>
    <path d="M 289.774317 157.170741 
L 252.964149 202.155917 
L 253.809864 200.419025 
L 254.056754 199.97131 
L 290.792185 159.259237 
L 290.561677 158.815492 
z
" clip-path="url(#p7e20da6b81)" style="fill: #52c569"/>
    <path d="M 288.324389 154.577639 
L 251.415878 206.511359 
L 252.928932 202.236477 
L 252.964149 202.155917 
L 289.774317 157.170741 
L 289.741527 157.102102 
z
" clip-path="url(#p7e20da6b81)" style="fill: #54c568"/>
    <path d="M 280.256031 161.541124 
L 243.264011 258.123261 
L 243.430252 257.826289 
L 247.769725 226.530756 
L 284.772959 155.977759 
L 280.420997 161.627971 
z
" clip-path="url(#p7e20da6b81)" style="fill: #1f9e89"/>
    <path d="M 286.572832 153.739545 
L 249.589565 214.470017 
L 249.905318 212.82871 
L 251.415878 206.511359 
L 288.324389 154.577639 
L 286.880119 153.63804 
z
" clip-path="url(#p7e20da6b81)" style="fill: #50c46a"/>
    <path d="M 284.772959 155.977759 
L 247.769725 226.530756 
L 248.049067 224.367182 
L 248.398616 221.827254 
L 285.399168 154.958776 
L 285.051493 155.502792 
z
" clip-path="url(#p7e20da6b81)" style="fill: #37b878"/>
    <path d="M 285.399168 154.958776 
L 248.398616 221.827254 
L 249.379164 215.632335 
L 249.589565 214.470017 
L 286.572832 153.739545 
L 286.367032 153.865868 
z
" clip-path="url(#p7e20da6b81)" style="fill: #44bf70"/>
   </g>
   <g id="text_24">
    <!-- Implied vol -->
    <g transform="translate(203.105625 35.472) scale(0.12 -0.12)">
     <defs>
      <path id="DejaVuSans-49" d="M 628 4666 
L 1259 4666 
L 1259 0 
L 628 0 
L 628 4666 
z
" transform="scale(0.015625)"/>
      <path id="DejaVuSans-6d" d="M 3328 2828 
Q 3544 3216 3844 3400 
Q 4144 3584 4550 3584 
Q 5097 3584 5394 3201 
Q 5691 2819 5691 2113 
L 5691 0 
L 5113 0 
L 5113 2094 
Q 5113 2597 4934 2840 
Q 4756 3084 4391 3084 
Q 3944 3084 3684 2787 
Q 3425 2491 3425 1978 
L 3425 0 
L 2847 0 
L 2847 2094 
Q 2847 2600 2669 2842 
Q 2491 3084 2119 3084 
Q 1678 3084 1418 2786 
Q 1159 2488 1159 1978 
L 1159 0 
L 581 0 
L 581 3500 
L 1159 3500 
L 1159 2956 
Q 1356 3278 1631 3431 
Q 1906 3584 2284 3584 
Q 2666 3584 2933 3390 
Q 3200 3197 3328 2828 
z
" transform="scale(0.015625)"/>
      <path id="DejaVuSans-64" d="M 2906 2969 
L 2906 4863 
L 3481 4863 
L 3481 0 
L 2906 0 
L 2906 525 
Q 2725 213 2448 61 
Q 2172 -91 1784 -91 
Q 1150 -91 751 415 
Q 353 922 353 1747 
Q 353 2572 751 3078 
Q 1150 3584 1784 3584 
Q 2172 3584 2448 3432 
Q 2725 3281 2906 2969 
z
M 947 1747 
Q 947 1113 1208 752 
Q 1469 391 1925 391 
Q 2381 391 2643 752 
Q 2906 1113 2906 1747 
Q 2906 2381 2643 2742 
Q 2381 3103 1925 3103 
Q 1469 3103 1208 2742 
Q 947 2381 947 1747 
z
" transform="scale(0.015625)"/>
      <path id="DejaVuSans-20" transform="scale(0.015625)"/>
      <path id="DejaVuSans-76" d="M 191 3500 
L 800 3500 
L 1894 563 
L 2988 3500 
L 3597 3500 
L 2284 0 
L 1503 0 
L 191 3500 
z
" transform="scale(0.015625)"/>
     </defs>
     <use xlink:href="#DejaVuSans-49"/>
     <use xlink:href="#DejaVuSans-6d" x="29.492188"/>
     <use xlink:href="#DejaVuSans-70" x="126.904297"/>
     <use xlink:href="#DejaVuSans-6c" x="190.380859"/>
     <use xlink:href="#DejaVuSans-69" x="218.164062"/>
     <use xlink:href="#DejaVuSans-65" x="245.947266"/>
     <use xlink:href="#DejaVuSans-64" x="307.470703"/>
     <use xlink:href="#DejaVuSans-20" x="370.947266"/>
     <use xlink:href="#DejaVuSans-76" x="402.734375"/>
     <use xlink:href="#DejaVuSans-6f" x="461.914062"/>
     <use xlink:href="#DejaVuSans-6c" x="523.095703"/>
    </g>
   </g>
  </g>
 </g>
 <defs>
  <clipPath id="p7e20da6b81">
   <rect x="103.104" y="41.472" width="266.112" height="266.112"/>
  </clipPath>
 </defs>
</svg>
